solid Default
  facet normal 7.071068e-01 -4.329780e-17 -7.071068e-01
    outer loop
      vertex 2.344826e+00 3.048000e+00 2.270592e+01
      vertex 1.555750e+00 5.461000e+00 2.210044e+01
      vertex 2.344826e+00 5.461000e+00 2.270592e+01
    endloop
  endfacet
  facet normal 5.000000e-01 -3.710755e-16 -8.660254e-01
    outer loop
      vertex 1.555750e+00 5.461000e+00 2.210044e+01
      vertex 2.344826e+00 3.048000e+00 2.270592e+01
      vertex 1.555750e+00 3.048000e+00 2.210044e+01
    endloop
  endfacet
  facet normal -1.000000e+00 0.000000e+00 0.000000e+00
    outer loop
      vertex -1.143000e+01 -5.461000e+00 5.080000e+01
      vertex -1.143000e+01 -3.048000e+00 0.000000e+00
      vertex -1.143000e+01 -5.461000e+00 0.000000e+00
    endloop
  endfacet
  facet normal -1.000000e+00 0.000000e+00 0.000000e+00
    outer loop
      vertex -1.143000e+01 -3.048000e+00 0.000000e+00
      vertex -1.143000e+01 -5.461000e+00 5.080000e+01
      vertex -1.143000e+01 -3.048000e+00 5.080000e+01
    endloop
  endfacet
  facet normal 0.000000e+00 -6.123234e-17 -1.000000e+00
    outer loop
      vertex -1.143000e+01 -5.461000e+00 5.080000e+01
      vertex -2.286000e+01 -3.048000e+00 5.080000e+01
      vertex -1.143000e+01 -3.048000e+00 5.080000e+01
    endloop
  endfacet
  facet normal 0.000000e+00 -6.123234e-17 -1.000000e+00
    outer loop
      vertex 2.794000e+01 3.048000e+00 5.080000e+01
      vertex -2.794000e+01 5.461000e+00 5.080000e+01
      vertex 2.794000e+01 5.461000e+00 5.080000e+01
    endloop
  endfacet
  facet normal 0.000000e+00 -6.123234e-17 -1.000000e+00
    outer loop
      vertex -2.794000e+01 5.461000e+00 5.080000e+01
      vertex 2.794000e+01 3.048000e+00 5.080000e+01
      vertex -2.286000e+01 3.048000e+00 5.080000e+01
    endloop
  endfacet
  facet normal 0.000000e+00 -6.123234e-17 -1.000000e+00
    outer loop
      vertex -2.794000e+01 5.461000e+00 5.080000e+01
      vertex -2.286000e+01 3.048000e+00 5.080000e+01
      vertex -2.794000e+01 -5.461000e+00 5.080000e+01
    endloop
  endfacet
  facet normal 0.000000e+00 -6.123234e-17 -1.000000e+00
    outer loop
      vertex -2.794000e+01 -5.461000e+00 5.080000e+01
      vertex -2.286000e+01 3.048000e+00 5.080000e+01
      vertex -2.286000e+01 -3.048000e+00 5.080000e+01
    endloop
  endfacet
  facet normal 0.000000e+00 -6.123234e-17 -1.000000e+00
    outer loop
      vertex -2.794000e+01 -5.461000e+00 5.080000e+01
      vertex -2.286000e+01 -3.048000e+00 5.080000e+01
      vertex -1.143000e+01 -5.461000e+00 5.080000e+01
    endloop
  endfacet
  facet normal 0.000000e+00 -1.000000e+00 6.123234e-17
    outer loop
      vertex -1.143000e+01 -3.048000e+00 0.000000e+00
      vertex -2.286000e+01 -3.048000e+00 5.080000e+01
      vertex -2.286000e+01 -3.048000e+00 0.000000e+00
    endloop
  endfacet
  facet normal 0.000000e+00 -1.000000e+00 6.123234e-17
    outer loop
      vertex -2.286000e+01 -3.048000e+00 5.080000e+01
      vertex -1.143000e+01 -3.048000e+00 0.000000e+00
      vertex -1.143000e+01 -3.048000e+00 5.080000e+01
    endloop
  endfacet
  facet normal 0.000000e+00 1.000000e+00 -6.123234e-17
    outer loop
      vertex -1.143000e+01 -5.461000e+00 5.080000e+01
      vertex -2.794000e+01 -5.461000e+00 0.000000e+00
      vertex -2.794000e+01 -5.461000e+00 5.080000e+01
    endloop
  endfacet
  facet normal 0.000000e+00 1.000000e+00 -6.123234e-17
    outer loop
      vertex -2.794000e+01 -5.461000e+00 0.000000e+00
      vertex -1.143000e+01 -5.461000e+00 5.080000e+01
      vertex -1.143000e+01 -5.461000e+00 0.000000e+00
    endloop
  endfacet
  facet normal -1.000000e+00 0.000000e+00 0.000000e+00
    outer loop
      vertex -2.794000e+01 -5.461000e+00 5.080000e+01
      vertex -2.794000e+01 5.461000e+00 0.000000e+00
      vertex -2.794000e+01 -5.461000e+00 0.000000e+00
    endloop
  endfacet
  facet normal -1.000000e+00 0.000000e+00 0.000000e+00
    outer loop
      vertex -2.794000e+01 5.461000e+00 0.000000e+00
      vertex -2.794000e+01 -5.461000e+00 5.080000e+01
      vertex -2.794000e+01 5.461000e+00 5.080000e+01
    endloop
  endfacet
  facet normal 0.000000e+00 6.123234e-17 1.000000e+00
    outer loop
      vertex -2.794000e+01 5.461000e+00 0.000000e+00
      vertex -2.286000e+01 3.048000e+00 0.000000e+00
      vertex 2.794000e+01 5.461000e+00 0.000000e+00
    endloop
  endfacet
  facet normal 0.000000e+00 6.123234e-17 1.000000e+00
    outer loop
      vertex -2.286000e+01 3.048000e+00 0.000000e+00
      vertex -2.794000e+01 5.461000e+00 0.000000e+00
      vertex -2.794000e+01 -5.461000e+00 0.000000e+00
    endloop
  endfacet
  facet normal 0.000000e+00 6.123234e-17 1.000000e+00
    outer loop
      vertex -2.286000e+01 3.048000e+00 0.000000e+00
      vertex -2.794000e+01 -5.461000e+00 0.000000e+00
      vertex -2.286000e+01 -3.048000e+00 0.000000e+00
    endloop
  endfacet
  facet normal 0.000000e+00 6.123234e-17 1.000000e+00
    outer loop
      vertex -2.286000e+01 -3.048000e+00 0.000000e+00
      vertex -2.794000e+01 -5.461000e+00 0.000000e+00
      vertex -1.143000e+01 -3.048000e+00 0.000000e+00
    endloop
  endfacet
  facet normal 0.000000e+00 6.123234e-17 1.000000e+00
    outer loop
      vertex -1.143000e+01 -3.048000e+00 0.000000e+00
      vertex -2.794000e+01 -5.461000e+00 0.000000e+00
      vertex -1.143000e+01 -5.461000e+00 0.000000e+00
    endloop
  endfacet
  facet normal 0.000000e+00 6.123234e-17 1.000000e+00
    outer loop
      vertex 2.794000e+01 3.048000e+00 0.000000e+00
      vertex 2.794000e+01 5.461000e+00 0.000000e+00
      vertex -2.286000e+01 3.048000e+00 0.000000e+00
    endloop
  endfacet
  facet normal -1.000000e+00 0.000000e+00 0.000000e+00
    outer loop
      vertex -2.286000e+01 -3.048000e+00 5.080000e+01
      vertex -2.286000e+01 3.048000e+00 0.000000e+00
      vertex -2.286000e+01 -3.048000e+00 0.000000e+00
    endloop
  endfacet
  facet normal -1.000000e+00 0.000000e+00 0.000000e+00
    outer loop
      vertex -2.286000e+01 3.048000e+00 0.000000e+00
      vertex -2.286000e+01 -3.048000e+00 5.080000e+01
      vertex -2.286000e+01 3.048000e+00 5.080000e+01
    endloop
  endfacet
  facet normal 5.000000e-01 -3.710755e-16 -8.660254e-01
    outer loop
      vertex 1.555750e+00 3.048000e+00 2.210044e+01
      vertex 6.368504e-01 5.461000e+00 2.171982e+01
      vertex 1.555750e+00 5.461000e+00 2.210044e+01
    endloop
  endfacet
  facet normal 2.588190e-01 -3.004858e-16 -9.659258e-01
    outer loop
      vertex 6.368504e-01 5.461000e+00 2.171982e+01
      vertex 1.555750e+00 3.048000e+00 2.210044e+01
      vertex 6.368504e-01 3.048000e+00 2.171982e+01
    endloop
  endfacet
  facet normal 2.588190e-01 -3.004858e-16 -9.659258e-01
    outer loop
      vertex 6.368504e-01 3.048000e+00 2.171982e+01
      vertex -3.492508e-01 5.461000e+00 2.159000e+01
      vertex 6.368504e-01 5.461000e+00 2.171982e+01
    endloop
  endfacet
  facet normal -3.849600e-15 5.229154e-16 -1.000000e+00
    outer loop
      vertex -3.492508e-01 5.461000e+00 2.159000e+01
      vertex 6.368504e-01 3.048000e+00 2.171982e+01
      vertex -3.492508e-01 3.048000e+00 2.159000e+01
    endloop
  endfacet
  facet normal -3.849600e-15 5.229154e-16 -1.000000e+00
    outer loop
      vertex -3.492508e-01 3.048000e+00 2.159000e+01
      vertex -1.335352e+00 5.461000e+00 2.171982e+01
      vertex -3.492508e-01 5.461000e+00 2.159000e+01
    endloop
  endfacet
  facet normal -2.588190e-01 -1.490952e-18 -9.659258e-01
    outer loop
      vertex -1.335352e+00 5.461000e+00 2.171982e+01
      vertex -3.492508e-01 3.048000e+00 2.159000e+01
      vertex -1.335352e+00 3.048000e+00 2.171982e+01
    endloop
  endfacet
  facet normal -2.588190e-01 -1.490952e-18 -9.659258e-01
    outer loop
      vertex -1.335352e+00 3.048000e+00 2.171982e+01
      vertex -2.254251e+00 5.461000e+00 2.210044e+01
      vertex -1.335352e+00 5.461000e+00 2.171982e+01
    endloop
  endfacet
  facet normal -5.000000e-01 -1.330489e-15 -8.660254e-01
    outer loop
      vertex -2.254251e+00 5.461000e+00 2.210044e+01
      vertex -1.335352e+00 3.048000e+00 2.171982e+01
      vertex -2.254251e+00 3.048000e+00 2.210044e+01
    endloop
  endfacet
  facet normal -5.000000e-01 -1.330489e-15 -8.660254e-01
    outer loop
      vertex -2.254251e+00 3.048000e+00 2.210044e+01
      vertex -3.043327e+00 5.461000e+00 2.270592e+01
      vertex -2.254251e+00 5.461000e+00 2.210044e+01
    endloop
  endfacet
  facet normal -7.071068e-01 -1.228725e-15 -7.071068e-01
    outer loop
      vertex -3.043327e+00 5.461000e+00 2.270592e+01
      vertex -2.254251e+00 3.048000e+00 2.210044e+01
      vertex -3.043327e+00 3.048000e+00 2.270592e+01
    endloop
  endfacet
  facet normal -7.071068e-01 -1.228725e-15 -7.071068e-01
    outer loop
      vertex -3.043327e+00 3.048000e+00 2.270592e+01
      vertex -3.648808e+00 5.461000e+00 2.349500e+01
      vertex -3.043327e+00 5.461000e+00 2.270592e+01
    endloop
  endfacet
  facet normal -8.660254e-01 -6.598391e-16 -5.000000e-01
    outer loop
      vertex -3.648808e+00 5.461000e+00 2.349500e+01
      vertex -3.043327e+00 3.048000e+00 2.270592e+01
      vertex -3.648808e+00 3.048000e+00 2.349500e+01
    endloop
  endfacet
  facet normal -9.659258e-01 -6.560986e-16 -2.588190e-01
    outer loop
      vertex -4.029428e+00 3.048000e+00 2.441390e+01
      vertex -3.648808e+00 5.461000e+00 2.349500e+01
      vertex -3.648808e+00 3.048000e+00 2.349500e+01
    endloop
  endfacet
  facet normal -8.660254e-01 -6.598391e-16 -5.000000e-01
    outer loop
      vertex -3.648808e+00 5.461000e+00 2.349500e+01
      vertex -4.029428e+00 3.048000e+00 2.441390e+01
      vertex -4.029428e+00 5.461000e+00 2.441390e+01
    endloop
  endfacet
  facet normal -1.000000e+00 -5.841477e-16 -1.782222e-16
    outer loop
      vertex -4.159250e+00 3.048000e+00 2.540000e+01
      vertex -4.029428e+00 5.461000e+00 2.441390e+01
      vertex -4.029428e+00 3.048000e+00 2.441390e+01
    endloop
  endfacet
  facet normal -9.659258e-01 -6.560986e-16 -2.588190e-01
    outer loop
      vertex -4.029428e+00 5.461000e+00 2.441390e+01
      vertex -4.159250e+00 3.048000e+00 2.540000e+01
      vertex -4.159250e+00 5.461000e+00 2.540000e+01
    endloop
  endfacet
  facet normal -1.000000e+00 -5.841477e-16 -1.782222e-16
    outer loop
      vertex -4.159250e+00 3.048000e+00 2.540000e+01
      vertex -4.029428e+00 5.461000e+00 2.638610e+01
      vertex -4.159250e+00 5.461000e+00 2.540000e+01
    endloop
  endfacet
  facet normal -9.659258e-01 -4.737875e-16 2.588190e-01
    outer loop
      vertex -4.029428e+00 5.461000e+00 2.638610e+01
      vertex -4.159250e+00 3.048000e+00 2.540000e+01
      vertex -4.029428e+00 3.048000e+00 2.638610e+01
    endloop
  endfacet
  facet normal -8.660254e-01 -6.598927e-16 5.000000e-01
    outer loop
      vertex -3.648808e+00 3.048000e+00 2.730500e+01
      vertex -4.029428e+00 5.461000e+00 2.638610e+01
      vertex -4.029428e+00 3.048000e+00 2.638610e+01
    endloop
  endfacet
  facet normal -9.659258e-01 -4.737875e-16 2.588190e-01
    outer loop
      vertex -4.029428e+00 5.461000e+00 2.638610e+01
      vertex -3.648808e+00 3.048000e+00 2.730500e+01
      vertex -3.648808e+00 5.461000e+00 2.730500e+01
    endloop
  endfacet
  facet normal -7.071068e-01 -7.891829e-16 7.071068e-01
    outer loop
      vertex -3.043327e+00 3.048000e+00 2.809408e+01
      vertex -3.648808e+00 5.461000e+00 2.730500e+01
      vertex -3.648808e+00 3.048000e+00 2.730500e+01
    endloop
  endfacet
  facet normal -8.660254e-01 -6.598927e-16 5.000000e-01
    outer loop
      vertex -3.648808e+00 5.461000e+00 2.730500e+01
      vertex -3.043327e+00 3.048000e+00 2.809408e+01
      vertex -3.043327e+00 5.461000e+00 2.809408e+01
    endloop
  endfacet
  facet normal -7.071068e-01 -7.891829e-16 7.071068e-01
    outer loop
      vertex -3.043327e+00 3.048000e+00 2.809408e+01
      vertex -2.254251e+00 5.461000e+00 2.869956e+01
      vertex -3.043327e+00 5.461000e+00 2.809408e+01
    endloop
  endfacet
  facet normal -5.000000e-01 -9.174172e-17 8.660254e-01
    outer loop
      vertex -2.254251e+00 5.461000e+00 2.869956e+01
      vertex -3.043327e+00 3.048000e+00 2.809408e+01
      vertex -2.254251e+00 3.048000e+00 2.869956e+01
    endloop
  endfacet
  facet normal -5.000000e-01 -9.174172e-17 8.660254e-01
    outer loop
      vertex -2.254251e+00 3.048000e+00 2.869956e+01
      vertex -1.335352e+00 5.461000e+00 2.908018e+01
      vertex -2.254251e+00 5.461000e+00 2.869956e+01
    endloop
  endfacet
  facet normal -2.588190e-01 3.854188e-17 9.659258e-01
    outer loop
      vertex -1.335352e+00 5.461000e+00 2.908018e+01
      vertex -2.254251e+00 3.048000e+00 2.869956e+01
      vertex -1.335352e+00 3.048000e+00 2.908018e+01
    endloop
  endfacet
  facet normal -2.588190e-01 3.854188e-17 9.659258e-01
    outer loop
      vertex -1.335352e+00 3.048000e+00 2.908018e+01
      vertex -3.492508e-01 5.461000e+00 2.921000e+01
      vertex -1.335352e+00 5.461000e+00 2.908018e+01
    endloop
  endfacet
  facet normal 0.000000e+00 -5.229154e-16 1.000000e+00
    outer loop
      vertex -3.492508e-01 5.461000e+00 2.921000e+01
      vertex -1.335352e+00 3.048000e+00 2.908018e+01
      vertex -3.492508e-01 3.048000e+00 2.921000e+01
    endloop
  endfacet
  facet normal 0.000000e+00 -5.229154e-16 1.000000e+00
    outer loop
      vertex -3.492508e-01 3.048000e+00 2.921000e+01
      vertex 6.368504e-01 5.461000e+00 2.908018e+01
      vertex -3.492508e-01 5.461000e+00 2.921000e+01
    endloop
  endfacet
  facet normal 2.588190e-01 3.854188e-17 9.659258e-01
    outer loop
      vertex 6.368504e-01 5.461000e+00 2.908018e+01
      vertex -3.492508e-01 3.048000e+00 2.921000e+01
      vertex 6.368504e-01 3.048000e+00 2.908018e+01
    endloop
  endfacet
  facet normal 2.588190e-01 3.854188e-17 9.659258e-01
    outer loop
      vertex 6.368504e-01 3.048000e+00 2.908018e+01
      vertex 1.555750e+00 5.461000e+00 2.869956e+01
      vertex 6.368504e-01 5.461000e+00 2.908018e+01
    endloop
  endfacet
  facet normal 5.000000e-01 8.897890e-17 8.660254e-01
    outer loop
      vertex 1.555750e+00 5.461000e+00 2.869956e+01
      vertex 6.368504e-01 3.048000e+00 2.908018e+01
      vertex 1.555750e+00 3.048000e+00 2.869956e+01
    endloop
  endfacet
  facet normal 5.000000e-01 8.897890e-17 8.660254e-01
    outer loop
      vertex 1.555750e+00 3.048000e+00 2.869956e+01
      vertex 2.344826e+00 5.461000e+00 2.809408e+01
      vertex 1.555750e+00 5.461000e+00 2.869956e+01
    endloop
  endfacet
  facet normal 7.071068e-01 -3.729425e-16 7.071068e-01
    outer loop
      vertex 2.344826e+00 5.461000e+00 2.809408e+01
      vertex 1.555750e+00 3.048000e+00 2.869956e+01
      vertex 2.344826e+00 3.048000e+00 2.809408e+01
    endloop
  endfacet
  facet normal -1.000000e+00 0.000000e+00 0.000000e+00
    outer loop
      vertex 2.794000e+01 3.048000e+00 5.080000e+01
      vertex 2.794000e+01 5.461000e+00 0.000000e+00
      vertex 2.794000e+01 3.048000e+00 0.000000e+00
    endloop
  endfacet
  facet normal -1.000000e+00 0.000000e+00 0.000000e+00
    outer loop
      vertex 2.794000e+01 5.461000e+00 0.000000e+00
      vertex 2.794000e+01 3.048000e+00 5.080000e+01
      vertex 2.794000e+01 5.461000e+00 5.080000e+01
    endloop
  endfacet
  facet normal 8.660254e-01 -3.061617e-17 -5.000000e-01
    outer loop
      vertex 2.950306e+00 5.461000e+00 2.349500e+01
      vertex 2.344826e+00 3.048000e+00 2.270592e+01
      vertex 2.344826e+00 5.461000e+00 2.270592e+01
    endloop
  endfacet
  facet normal 7.071068e-01 -4.329780e-17 -7.071068e-01
    outer loop
      vertex 2.344826e+00 3.048000e+00 2.270592e+01
      vertex 2.950306e+00 5.461000e+00 2.349500e+01
      vertex 2.950306e+00 3.048000e+00 2.349500e+01
    endloop
  endfacet
  facet normal 9.659258e-01 -9.255491e-17 -2.588190e-01
    outer loop
      vertex 3.330927e+00 5.461000e+00 2.441390e+01
      vertex 2.950306e+00 3.048000e+00 2.349500e+01
      vertex 2.950306e+00 5.461000e+00 2.349500e+01
    endloop
  endfacet
  facet normal 8.660254e-01 -3.061617e-17 -5.000000e-01
    outer loop
      vertex 2.950306e+00 3.048000e+00 2.349500e+01
      vertex 3.330927e+00 5.461000e+00 2.441390e+01
      vertex 3.330927e+00 3.048000e+00 2.441390e+01
    endloop
  endfacet
  facet normal 7.071068e-01 -3.729425e-16 7.071068e-01
    outer loop
      vertex 2.344826e+00 5.461000e+00 2.809408e+01
      vertex 2.950306e+00 3.048000e+00 2.730500e+01
      vertex 2.950306e+00 5.461000e+00 2.730500e+01
    endloop
  endfacet
  facet normal 8.660254e-01 -1.501045e-16 5.000000e-01
    outer loop
      vertex 2.950306e+00 3.048000e+00 2.730500e+01
      vertex 2.344826e+00 5.461000e+00 2.809408e+01
      vertex 2.344826e+00 3.048000e+00 2.809408e+01
    endloop
  endfacet
  facet normal 1.000000e+00 -4.165220e-30 -3.395133e-15
    outer loop
      vertex 3.460749e+00 5.461000e+00 2.540000e+01
      vertex 3.330927e+00 3.048000e+00 2.441390e+01
      vertex 3.330927e+00 5.461000e+00 2.441390e+01
    endloop
  endfacet
  facet normal 9.659258e-01 -9.255491e-17 -2.588190e-01
    outer loop
      vertex 3.330927e+00 3.048000e+00 2.441390e+01
      vertex 3.460749e+00 5.461000e+00 2.540000e+01
      vertex 3.460749e+00 3.048000e+00 2.540000e+01
    endloop
  endfacet
  facet normal 8.660254e-01 -1.501045e-16 5.000000e-01
    outer loop
      vertex 2.950306e+00 5.461000e+00 2.730500e+01
      vertex 3.330927e+00 3.048000e+00 2.638610e+01
      vertex 3.330927e+00 5.461000e+00 2.638610e+01
    endloop
  endfacet
  facet normal 9.659258e-01 9.255491e-17 2.588190e-01
    outer loop
      vertex 3.330927e+00 3.048000e+00 2.638610e+01
      vertex 2.950306e+00 5.461000e+00 2.730500e+01
      vertex 2.950306e+00 3.048000e+00 2.730500e+01
    endloop
  endfacet
  facet normal 9.659258e-01 9.255491e-17 2.588190e-01
    outer loop
      vertex 3.330927e+00 5.461000e+00 2.638610e+01
      vertex 3.460749e+00 3.048000e+00 2.540000e+01
      vertex 3.460749e+00 5.461000e+00 2.540000e+01
    endloop
  endfacet
  facet normal 1.000000e+00 -3.682161e-30 -3.003044e-15
    outer loop
      vertex 3.460749e+00 3.048000e+00 2.540000e+01
      vertex 3.330927e+00 5.461000e+00 2.638610e+01
      vertex 3.330927e+00 3.048000e+00 2.638610e+01
    endloop
  endfacet
  facet normal 0.000000e+00 1.000000e+00 -6.123234e-17
    outer loop
      vertex -2.794000e+01 5.461000e+00 5.080000e+01
      vertex -3.043327e+00 5.461000e+00 2.809408e+01
      vertex -2.794000e+01 5.461000e+00 0.000000e+00
    endloop
  endfacet
  facet normal 0.000000e+00 1.000000e+00 -6.123234e-17
    outer loop
      vertex -3.043327e+00 5.461000e+00 2.809408e+01
      vertex -2.794000e+01 5.461000e+00 5.080000e+01
      vertex -2.254251e+00 5.461000e+00 2.869956e+01
    endloop
  endfacet
  facet normal 0.000000e+00 1.000000e+00 -6.123234e-17
    outer loop
      vertex -2.254251e+00 5.461000e+00 2.869956e+01
      vertex -2.794000e+01 5.461000e+00 5.080000e+01
      vertex 2.794000e+01 5.461000e+00 5.080000e+01
    endloop
  endfacet
  facet normal 0.000000e+00 1.000000e+00 -6.123234e-17
    outer loop
      vertex -2.794000e+01 5.461000e+00 0.000000e+00
      vertex -3.043327e+00 5.461000e+00 2.809408e+01
      vertex -3.648808e+00 5.461000e+00 2.730500e+01
    endloop
  endfacet
  facet normal 0.000000e+00 1.000000e+00 -6.123234e-17
    outer loop
      vertex -2.794000e+01 5.461000e+00 0.000000e+00
      vertex -3.648808e+00 5.461000e+00 2.730500e+01
      vertex -4.029428e+00 5.461000e+00 2.638610e+01
    endloop
  endfacet
  facet normal 0.000000e+00 1.000000e+00 -6.123234e-17
    outer loop
      vertex -2.794000e+01 5.461000e+00 0.000000e+00
      vertex -4.029428e+00 5.461000e+00 2.638610e+01
      vertex -4.159250e+00 5.461000e+00 2.540000e+01
    endloop
  endfacet
  facet normal 0.000000e+00 1.000000e+00 -6.123234e-17
    outer loop
      vertex -2.254251e+00 5.461000e+00 2.869956e+01
      vertex 2.794000e+01 5.461000e+00 5.080000e+01
      vertex -1.335352e+00 5.461000e+00 2.908018e+01
    endloop
  endfacet
  facet normal 0.000000e+00 1.000000e+00 -6.123234e-17
    outer loop
      vertex -1.335352e+00 5.461000e+00 2.908018e+01
      vertex 2.794000e+01 5.461000e+00 5.080000e+01
      vertex -3.492508e-01 5.461000e+00 2.921000e+01
    endloop
  endfacet
  facet normal 0.000000e+00 1.000000e+00 -6.123234e-17
    outer loop
      vertex -3.492508e-01 5.461000e+00 2.921000e+01
      vertex 2.794000e+01 5.461000e+00 5.080000e+01
      vertex 6.368504e-01 5.461000e+00 2.908018e+01
    endloop
  endfacet
  facet normal 0.000000e+00 1.000000e+00 -6.123234e-17
    outer loop
      vertex 6.368504e-01 5.461000e+00 2.908018e+01
      vertex 2.794000e+01 5.461000e+00 5.080000e+01
      vertex 1.555750e+00 5.461000e+00 2.869956e+01
    endloop
  endfacet
  facet normal 0.000000e+00 1.000000e+00 -6.123234e-17
    outer loop
      vertex 1.555750e+00 5.461000e+00 2.869956e+01
      vertex 2.794000e+01 5.461000e+00 5.080000e+01
      vertex 2.344826e+00 5.461000e+00 2.809408e+01
    endloop
  endfacet
  facet normal 0.000000e+00 1.000000e+00 -6.123234e-17
    outer loop
      vertex 2.344826e+00 5.461000e+00 2.809408e+01
      vertex 2.794000e+01 5.461000e+00 5.080000e+01
      vertex 2.950306e+00 5.461000e+00 2.730500e+01
    endloop
  endfacet
  facet normal 0.000000e+00 1.000000e+00 -6.123234e-17
    outer loop
      vertex 2.950306e+00 5.461000e+00 2.730500e+01
      vertex 2.794000e+01 5.461000e+00 5.080000e+01
      vertex 3.330927e+00 5.461000e+00 2.638610e+01
    endloop
  endfacet
  facet normal 0.000000e+00 1.000000e+00 -6.123234e-17
    outer loop
      vertex 3.330927e+00 5.461000e+00 2.638610e+01
      vertex 2.794000e+01 5.461000e+00 5.080000e+01
      vertex 3.460749e+00 5.461000e+00 2.540000e+01
    endloop
  endfacet
  facet normal 0.000000e+00 1.000000e+00 -6.123234e-17
    outer loop
      vertex -2.794000e+01 5.461000e+00 0.000000e+00
      vertex -2.254251e+00 5.461000e+00 2.210044e+01
      vertex 2.794000e+01 5.461000e+00 0.000000e+00
    endloop
  endfacet
  facet normal 0.000000e+00 1.000000e+00 -6.123234e-17
    outer loop
      vertex -2.254251e+00 5.461000e+00 2.210044e+01
      vertex -2.794000e+01 5.461000e+00 0.000000e+00
      vertex -3.043327e+00 5.461000e+00 2.270592e+01
    endloop
  endfacet
  facet normal 0.000000e+00 1.000000e+00 -6.123234e-17
    outer loop
      vertex -3.043327e+00 5.461000e+00 2.270592e+01
      vertex -2.794000e+01 5.461000e+00 0.000000e+00
      vertex -3.648808e+00 5.461000e+00 2.349500e+01
    endloop
  endfacet
  facet normal 0.000000e+00 1.000000e+00 -6.123234e-17
    outer loop
      vertex -3.648808e+00 5.461000e+00 2.349500e+01
      vertex -2.794000e+01 5.461000e+00 0.000000e+00
      vertex -4.029428e+00 5.461000e+00 2.441390e+01
    endloop
  endfacet
  facet normal 0.000000e+00 1.000000e+00 -6.123234e-17
    outer loop
      vertex -4.029428e+00 5.461000e+00 2.441390e+01
      vertex -2.794000e+01 5.461000e+00 0.000000e+00
      vertex -4.159250e+00 5.461000e+00 2.540000e+01
    endloop
  endfacet
  facet normal 0.000000e+00 1.000000e+00 -6.123234e-17
    outer loop
      vertex 2.794000e+01 5.461000e+00 0.000000e+00
      vertex -2.254251e+00 5.461000e+00 2.210044e+01
      vertex -1.335352e+00 5.461000e+00 2.171982e+01
    endloop
  endfacet
  facet normal 0.000000e+00 1.000000e+00 -6.123234e-17
    outer loop
      vertex 2.794000e+01 5.461000e+00 0.000000e+00
      vertex -1.335352e+00 5.461000e+00 2.171982e+01
      vertex -3.492508e-01 5.461000e+00 2.159000e+01
    endloop
  endfacet
  facet normal 0.000000e+00 1.000000e+00 -6.123234e-17
    outer loop
      vertex 2.794000e+01 5.461000e+00 0.000000e+00
      vertex -3.492508e-01 5.461000e+00 2.159000e+01
      vertex 6.368504e-01 5.461000e+00 2.171982e+01
    endloop
  endfacet
  facet normal 0.000000e+00 1.000000e+00 -6.123234e-17
    outer loop
      vertex 2.794000e+01 5.461000e+00 0.000000e+00
      vertex 6.368504e-01 5.461000e+00 2.171982e+01
      vertex 1.555750e+00 5.461000e+00 2.210044e+01
    endloop
  endfacet
  facet normal 0.000000e+00 1.000000e+00 -6.123234e-17
    outer loop
      vertex 2.794000e+01 5.461000e+00 0.000000e+00
      vertex 1.555750e+00 5.461000e+00 2.210044e+01
      vertex 2.344826e+00 5.461000e+00 2.270592e+01
    endloop
  endfacet
  facet normal 0.000000e+00 1.000000e+00 -6.123234e-17
    outer loop
      vertex 2.794000e+01 5.461000e+00 0.000000e+00
      vertex 2.344826e+00 5.461000e+00 2.270592e+01
      vertex 2.950306e+00 5.461000e+00 2.349500e+01
    endloop
  endfacet
  facet normal 0.000000e+00 1.000000e+00 -6.123234e-17
    outer loop
      vertex 2.794000e+01 5.461000e+00 0.000000e+00
      vertex 2.950306e+00 5.461000e+00 2.349500e+01
      vertex 3.330927e+00 5.461000e+00 2.441390e+01
    endloop
  endfacet
  facet normal 0.000000e+00 1.000000e+00 -6.123234e-17
    outer loop
      vertex 2.794000e+01 5.461000e+00 0.000000e+00
      vertex 3.330927e+00 5.461000e+00 2.441390e+01
      vertex 3.460749e+00 5.461000e+00 2.540000e+01
    endloop
  endfacet
  facet normal 0.000000e+00 1.000000e+00 -6.123234e-17
    outer loop
      vertex 2.794000e+01 5.461000e+00 0.000000e+00
      vertex 3.460749e+00 5.461000e+00 2.540000e+01
      vertex 2.794000e+01 5.461000e+00 5.080000e+01
    endloop
  endfacet
  facet normal 0.000000e+00 1.000000e+00 -6.123234e-17
    outer loop
      vertex -2.286000e+01 3.048000e+00 5.080000e+01
      vertex -3.648808e+00 3.048000e+00 2.730500e+01
      vertex -2.286000e+01 3.048000e+00 0.000000e+00
    endloop
  endfacet
  facet normal 0.000000e+00 1.000000e+00 -6.123234e-17
    outer loop
      vertex -3.648808e+00 3.048000e+00 2.730500e+01
      vertex -2.286000e+01 3.048000e+00 5.080000e+01
      vertex -3.043327e+00 3.048000e+00 2.809408e+01
    endloop
  endfacet
  facet normal 0.000000e+00 1.000000e+00 -6.123234e-17
    outer loop
      vertex -3.043327e+00 3.048000e+00 2.809408e+01
      vertex -2.286000e+01 3.048000e+00 5.080000e+01
      vertex -2.254251e+00 3.048000e+00 2.869956e+01
    endloop
  endfacet
  facet normal 0.000000e+00 1.000000e+00 -6.123234e-17
    outer loop
      vertex -2.254251e+00 3.048000e+00 2.869956e+01
      vertex -2.286000e+01 3.048000e+00 5.080000e+01
      vertex 2.794000e+01 3.048000e+00 5.080000e+01
    endloop
  endfacet
  facet normal 0.000000e+00 1.000000e+00 -6.123234e-17
    outer loop
      vertex -2.286000e+01 3.048000e+00 0.000000e+00
      vertex -3.648808e+00 3.048000e+00 2.730500e+01
      vertex -4.029428e+00 3.048000e+00 2.638610e+01
    endloop
  endfacet
  facet normal 0.000000e+00 1.000000e+00 -6.123234e-17
    outer loop
      vertex -2.286000e+01 3.048000e+00 0.000000e+00
      vertex -4.029428e+00 3.048000e+00 2.638610e+01
      vertex -4.159250e+00 3.048000e+00 2.540000e+01
    endloop
  endfacet
  facet normal 0.000000e+00 1.000000e+00 -6.123234e-17
    outer loop
      vertex -2.254251e+00 3.048000e+00 2.869956e+01
      vertex 2.794000e+01 3.048000e+00 5.080000e+01
      vertex -1.335352e+00 3.048000e+00 2.908018e+01
    endloop
  endfacet
  facet normal 0.000000e+00 1.000000e+00 -6.123234e-17
    outer loop
      vertex -1.335352e+00 3.048000e+00 2.908018e+01
      vertex 2.794000e+01 3.048000e+00 5.080000e+01
      vertex -3.492508e-01 3.048000e+00 2.921000e+01
    endloop
  endfacet
  facet normal 0.000000e+00 1.000000e+00 -6.123234e-17
    outer loop
      vertex -3.492508e-01 3.048000e+00 2.921000e+01
      vertex 2.794000e+01 3.048000e+00 5.080000e+01
      vertex 6.368504e-01 3.048000e+00 2.908018e+01
    endloop
  endfacet
  facet normal 0.000000e+00 1.000000e+00 -6.123234e-17
    outer loop
      vertex 6.368504e-01 3.048000e+00 2.908018e+01
      vertex 2.794000e+01 3.048000e+00 5.080000e+01
      vertex 1.555750e+00 3.048000e+00 2.869956e+01
    endloop
  endfacet
  facet normal 0.000000e+00 1.000000e+00 -6.123234e-17
    outer loop
      vertex 1.555750e+00 3.048000e+00 2.869956e+01
      vertex 2.794000e+01 3.048000e+00 5.080000e+01
      vertex 2.344826e+00 3.048000e+00 2.809408e+01
    endloop
  endfacet
  facet normal 0.000000e+00 1.000000e+00 -6.123234e-17
    outer loop
      vertex 2.344826e+00 3.048000e+00 2.809408e+01
      vertex 2.794000e+01 3.048000e+00 5.080000e+01
      vertex 2.950306e+00 3.048000e+00 2.730500e+01
    endloop
  endfacet
  facet normal 0.000000e+00 1.000000e+00 -6.123234e-17
    outer loop
      vertex 2.950306e+00 3.048000e+00 2.730500e+01
      vertex 2.794000e+01 3.048000e+00 5.080000e+01
      vertex 3.330927e+00 3.048000e+00 2.638610e+01
    endloop
  endfacet
  facet normal 0.000000e+00 1.000000e+00 -6.123234e-17
    outer loop
      vertex 3.330927e+00 3.048000e+00 2.638610e+01
      vertex 2.794000e+01 3.048000e+00 5.080000e+01
      vertex 3.460749e+00 3.048000e+00 2.540000e+01
    endloop
  endfacet
  facet normal 0.000000e+00 1.000000e+00 -6.123234e-17
    outer loop
      vertex -2.286000e+01 3.048000e+00 0.000000e+00
      vertex -2.254251e+00 3.048000e+00 2.210044e+01
      vertex 2.794000e+01 3.048000e+00 0.000000e+00
    endloop
  endfacet
  facet normal 0.000000e+00 1.000000e+00 -6.123234e-17
    outer loop
      vertex -2.254251e+00 3.048000e+00 2.210044e+01
      vertex -2.286000e+01 3.048000e+00 0.000000e+00
      vertex -3.043327e+00 3.048000e+00 2.270592e+01
    endloop
  endfacet
  facet normal 0.000000e+00 1.000000e+00 -6.123234e-17
    outer loop
      vertex -3.043327e+00 3.048000e+00 2.270592e+01
      vertex -2.286000e+01 3.048000e+00 0.000000e+00
      vertex -3.648808e+00 3.048000e+00 2.349500e+01
    endloop
  endfacet
  facet normal 0.000000e+00 1.000000e+00 -6.123234e-17
    outer loop
      vertex -3.648808e+00 3.048000e+00 2.349500e+01
      vertex -2.286000e+01 3.048000e+00 0.000000e+00
      vertex -4.029428e+00 3.048000e+00 2.441390e+01
    endloop
  endfacet
  facet normal 0.000000e+00 1.000000e+00 -6.123234e-17
    outer loop
      vertex -4.029428e+00 3.048000e+00 2.441390e+01
      vertex -2.286000e+01 3.048000e+00 0.000000e+00
      vertex -4.159250e+00 3.048000e+00 2.540000e+01
    endloop
  endfacet
  facet normal 0.000000e+00 1.000000e+00 -6.123234e-17
    outer loop
      vertex 2.794000e+01 3.048000e+00 0.000000e+00
      vertex -2.254251e+00 3.048000e+00 2.210044e+01
      vertex -1.335352e+00 3.048000e+00 2.171982e+01
    endloop
  endfacet
  facet normal 0.000000e+00 1.000000e+00 -6.123234e-17
    outer loop
      vertex 2.794000e+01 3.048000e+00 0.000000e+00
      vertex -1.335352e+00 3.048000e+00 2.171982e+01
      vertex -3.492508e-01 3.048000e+00 2.159000e+01
    endloop
  endfacet
  facet normal 0.000000e+00 1.000000e+00 -6.123234e-17
    outer loop
      vertex 2.794000e+01 3.048000e+00 0.000000e+00
      vertex -3.492508e-01 3.048000e+00 2.159000e+01
      vertex 6.368504e-01 3.048000e+00 2.171982e+01
    endloop
  endfacet
  facet normal 0.000000e+00 1.000000e+00 -6.123234e-17
    outer loop
      vertex 2.794000e+01 3.048000e+00 0.000000e+00
      vertex 6.368504e-01 3.048000e+00 2.171982e+01
      vertex 1.555750e+00 3.048000e+00 2.210044e+01
    endloop
  endfacet
  facet normal 0.000000e+00 1.000000e+00 -6.123234e-17
    outer loop
      vertex 2.794000e+01 3.048000e+00 0.000000e+00
      vertex 1.555750e+00 3.048000e+00 2.210044e+01
      vertex 2.344826e+00 3.048000e+00 2.270592e+01
    endloop
  endfacet
  facet normal 0.000000e+00 1.000000e+00 -6.123234e-17
    outer loop
      vertex 2.794000e+01 3.048000e+00 0.000000e+00
      vertex 2.344826e+00 3.048000e+00 2.270592e+01
      vertex 2.950306e+00 3.048000e+00 2.349500e+01
    endloop
  endfacet
  facet normal 0.000000e+00 1.000000e+00 -6.123234e-17
    outer loop
      vertex 2.794000e+01 3.048000e+00 0.000000e+00
      vertex 2.950306e+00 3.048000e+00 2.349500e+01
      vertex 3.330927e+00 3.048000e+00 2.441390e+01
    endloop
  endfacet
  facet normal 0.000000e+00 1.000000e+00 -6.123234e-17
    outer loop
      vertex 2.794000e+01 3.048000e+00 0.000000e+00
      vertex 3.330927e+00 3.048000e+00 2.441390e+01
      vertex 3.460749e+00 3.048000e+00 2.540000e+01
    endloop
  endfacet
  facet normal 0.000000e+00 1.000000e+00 -6.123234e-17
    outer loop
      vertex 2.794000e+01 3.048000e+00 0.000000e+00
      vertex 3.460749e+00 3.048000e+00 2.540000e+01
      vertex 2.794000e+01 3.048000e+00 5.080000e+01
    endloop
  endfacet
endsolid Default
