solid tvstandspacer
facet normal -1.0 0.0 0.0
outer loop
vertex 16.51 -0.762000000000001 10.922
vertex 16.51 -51.562 8.509
vertex 16.51 -51.562 10.922
endloop
endfacet
facet normal -1.0 0.0 0.0
outer loop
vertex 16.51 -51.562 8.509
vertex 16.51 -0.762000000000001 10.922
vertex 16.51 -0.762000000000001 8.509
endloop
endfacet
facet normal 0.0 -1.0 0.0
outer loop
vertex 16.51 -0.762000000000001 10.922
vertex 5.08 -0.762000000000001 8.509
vertex 16.51 -0.762000000000001 8.509
endloop
endfacet
facet normal 0.0 -1.0 0.0
outer loop
vertex 55.88 -0.762000000000001 2.413
vertex 0.0 -0.762000000000001 0.0
vertex 55.88 -0.762000000000001 0.0
endloop
endfacet
facet normal 0.0 -1.0 0.0
outer loop
vertex 0.0 -0.762000000000001 0.0
vertex 55.88 -0.762000000000001 2.413
vertex 5.08 -0.762000000000001 2.413
endloop
endfacet
facet normal 0.0 -1.0 0.0
outer loop
vertex 0.0 -0.762000000000001 0.0
vertex 5.08 -0.762000000000001 2.413
vertex 0.0 -0.762000000000001 10.922
endloop
endfacet
facet normal 0.0 -1.0 0.0
outer loop
vertex 0.0 -0.762000000000001 10.922
vertex 5.08 -0.762000000000001 2.413
vertex 5.08 -0.762000000000001 8.509
endloop
endfacet
facet normal 0.0 -1.0 0.0
outer loop
vertex 0.0 -0.762000000000001 10.922
vertex 5.08 -0.762000000000001 8.509
vertex 16.51 -0.762000000000001 10.922
endloop
endfacet
facet normal -0.0 -0.0 1.0
outer loop
vertex 16.51 -51.562 8.509
vertex 5.08 -0.762000000000001 8.509
vertex 5.08 -51.562 8.509
endloop
endfacet
facet normal -0.0 -0.0 1.0
outer loop
vertex 5.08 -0.762000000000001 8.509
vertex 16.51 -51.562 8.509
vertex 16.51 -0.762000000000001 8.509
endloop
endfacet
facet normal 0.0 0.0 -1.0
outer loop
vertex 16.51 -0.762000000000001 10.922
vertex 0.0 -51.562 10.922
vertex 0.0 -0.762000000000001 10.922
endloop
endfacet
facet normal 0.0 0.0 -1.0
outer loop
vertex 0.0 -51.562 10.922
vertex 16.51 -0.762000000000001 10.922
vertex 16.51 -51.562 10.922
endloop
endfacet
facet normal -1.0 0.0 0.0
outer loop
vertex 0.0 -0.762000000000001 10.922
vertex 0.0 -51.562 0.0
vertex 0.0 -51.562 10.922
endloop
endfacet
facet normal -1.0 0.0 0.0
outer loop
vertex 0.0 -51.562 0.0
vertex 0.0 -0.762000000000001 10.922
vertex 0.0 -0.762000000000001 0.0
endloop
endfacet
facet normal 0.0 1.0 0.0
outer loop
vertex 0.0 -51.562 0.0
vertex 5.08 -51.562 2.413
vertex 55.88 -51.562 0.0
endloop
endfacet
facet normal 0.0 1.0 0.0
outer loop
vertex 5.08 -51.562 2.413
vertex 0.0 -51.562 0.0
vertex 0.0 -51.562 10.922
endloop
endfacet
facet normal 0.0 1.0 0.0
outer loop
vertex 5.08 -51.562 2.413
vertex 0.0 -51.562 10.922
vertex 5.08 -51.562 8.509
endloop
endfacet
facet normal 0.0 1.0 0.0
outer loop
vertex 5.08 -51.562 8.509
vertex 0.0 -51.562 10.922
vertex 16.51 -51.562 8.509
endloop
endfacet
facet normal 0.0 1.0 0.0
outer loop
vertex 16.51 -51.562 8.509
vertex 0.0 -51.562 10.922
vertex 16.51 -51.562 10.922
endloop
endfacet
facet normal 0.0 1.0 0.0
outer loop
vertex 55.88 -51.562 2.413
vertex 55.88 -51.562 0.0
vertex 5.08 -51.562 2.413
endloop
endfacet
facet normal -1.0 0.0 0.0
outer loop
vertex 5.08 -0.762000000000001 8.509
vertex 5.08 -51.562 2.413
vertex 5.08 -51.562 8.509
endloop
endfacet
facet normal -1.0 0.0 0.0
outer loop
vertex 5.08 -51.562 2.413
vertex 5.08 -0.762000000000001 8.509
vertex 5.08 -0.762000000000001 2.413
endloop
endfacet
facet normal 0.5 -0.866025403784439 4.31652430971658e-016
outer loop
vertex 25.527 -29.4615567884187 2.413
vertex 24.6081005618406 -29.8421773981614 0.0
vertex 25.527 -29.4615567884187 0.0
endloop
endfacet
facet normal 0.258819045102518 -0.965925826289069 3.92903631686494e-016
outer loop
vertex 24.6081005618406 -29.8421773981614 0.0
vertex 25.527 -29.4615567884187 2.413
vertex 24.6081005618406 -29.8421773981614 2.413
endloop
endfacet
facet normal 0.258819045102519 -0.965925826289069 3.92903631686495e-016
outer loop
vertex 24.6081005618406 -29.8421773981614 2.413
vertex 23.622 -29.972 0.0
vertex 24.6081005618406 -29.8421773981614 0.0
endloop
endfacet
facet normal -3.69811060669346e-015 -1.0 -5.84938499712534e-016
outer loop
vertex 23.622 -29.972 0.0
vertex 24.6081005618406 -29.8421773981614 2.413
vertex 23.622 -29.972 2.413
endloop
endfacet
facet normal -3.69811060669346e-015 -1.0 -5.84938499712533e-016
outer loop
vertex 23.622 -29.972 2.413
vertex 22.6358994381594 -29.8421773981613 0.0
vertex 23.622 -29.972 0.0
endloop
endfacet
facet normal -0.258819045102519 -0.965925826289069 -3.21296722298711e-016
outer loop
vertex 22.6358994381594 -29.8421773981613 0.0
vertex 23.622 -29.972 2.413
vertex 22.6358994381594 -29.8421773981613 2.413
endloop
endfacet
facet normal -0.258819045102519 -0.965925826289069 -3.21296722298712e-016
outer loop
vertex 22.6358994381594 -29.8421773981613 2.413
vertex 21.717 -29.4615567884187 0.0
vertex 22.6358994381594 -29.8421773981613 0.0
endloop
endfacet
facet normal -0.5 -0.866025403784439 8.71846469574988e-016
outer loop
vertex 21.717 -29.4615567884187 0.0
vertex 22.6358994381594 -29.8421773981613 2.413
vertex 21.717 -29.4615567884187 2.413
endloop
endfacet
facet normal -0.5 -0.866025403784439 8.71846469574988e-016
outer loop
vertex 21.717 -29.4615567884187 2.413
vertex 20.9279231636792 -28.8560768363207 0.0
vertex 21.717 -29.4615567884187 0.0
endloop
endfacet
facet normal -0.707106781186549 -0.707106781186546 1.00470655614922e-015
outer loop
vertex 20.9279231636792 -28.8560768363207 0.0
vertex 21.717 -29.4615567884187 2.413
vertex 20.9279231636792 -28.8560768363207 2.413
endloop
endfacet
facet normal -0.707106781186549 -0.707106781186546 1.00470655614921e-015
outer loop
vertex 20.9279231636792 -28.8560768363207 2.413
vertex 20.3224432115813 -28.067 0.0
vertex 20.9279231636792 -28.8560768363207 0.0
endloop
endfacet
facet normal -0.866025403784439 -0.5 6.29222903643229e-016
outer loop
vertex 20.3224432115813 -28.067 0.0
vertex 20.9279231636792 -28.8560768363207 2.413
vertex 20.3224432115813 -28.067 2.413
endloop
endfacet
facet normal -0.965925826289068 -0.258819045102521 6.40250499633724e-016
outer loop
vertex 19.9418226018386 -27.1481005618406 2.413
vertex 20.3224432115813 -28.067 0.0
vertex 20.3224432115813 -28.067 2.413
endloop
endfacet
facet normal -0.866025403784439 -0.5 6.29222903643229e-016
outer loop
vertex 20.3224432115813 -28.067 0.0
vertex 19.9418226018386 -27.1481005618406 2.413
vertex 19.9418226018386 -27.1481005618406 0.0
endloop
endfacet
facet normal -1.0 -1.78222197912938e-016 5.8414770789039e-016
outer loop
vertex 19.812 -26.162 2.413
vertex 19.9418226018386 -27.1481005618406 0.0
vertex 19.9418226018386 -27.1481005618406 2.413
endloop
endfacet
facet normal -0.965925826289068 -0.258819045102521 6.40250499633724e-016
outer loop
vertex 19.9418226018386 -27.1481005618406 0.0
vertex 19.812 -26.162 2.413
vertex 19.812 -26.162 0.0
endloop
endfacet
facet normal -1.0 -1.78222197912938e-016 5.8414770789039e-016
outer loop
vertex 19.812 -26.162 2.413
vertex 19.9418226018386 -25.1758994381594 0.0
vertex 19.812 -26.162 0.0
endloop
endfacet
facet normal -0.965925826289068 0.25881904510252 4.89635544270759e-016
outer loop
vertex 19.9418226018386 -25.1758994381594 0.0
vertex 19.812 -26.162 2.413
vertex 19.9418226018386 -25.1758994381594 2.413
endloop
endfacet
facet normal -0.866025403784439 0.5 6.90508815176161e-016
outer loop
vertex 20.3224432115813 -24.257 2.413
vertex 19.9418226018386 -25.1758994381594 0.0
vertex 19.9418226018386 -25.1758994381594 2.413
endloop
endfacet
facet normal -0.965925826289068 0.25881904510252 4.89635544270759e-016
outer loop
vertex 19.9418226018386 -25.1758994381594 0.0
vertex 20.3224432115813 -24.257 2.413
vertex 20.3224432115813 -24.257 0.0
endloop
endfacet
facet normal -0.707106781186547 0.707106781186547 8.32480636204823e-016
outer loop
vertex 20.9279231636793 -23.4679231636793 2.413
vertex 20.3224432115813 -24.257 0.0
vertex 20.3224432115813 -24.257 2.413
endloop
endfacet
facet normal -0.866025403784439 0.5 6.90508815176161e-016
outer loop
vertex 20.3224432115813 -24.257 0.0
vertex 20.9279231636793 -23.4679231636793 2.413
vertex 20.9279231636792 -23.4679231636793 0.0
endloop
endfacet
facet normal -0.707106781186547 0.707106781186547 8.32480636204823e-016
outer loop
vertex 20.9279231636793 -23.4679231636793 2.413
vertex 21.717 -22.8624432115813 0.0
vertex 20.9279231636792 -23.4679231636793 0.0
endloop
endfacet
facet normal -0.499999999999999 0.866025403784439 1.44770479162068e-016
outer loop
vertex 21.717 -22.8624432115813 0.0
vertex 20.9279231636793 -23.4679231636793 2.413
vertex 21.717 -22.8624432115813 2.413
endloop
endfacet
facet normal -0.499999999999999 0.866025403784439 1.44770479162068e-016
outer loop
vertex 21.717 -22.8624432115813 2.413
vertex 22.6358994381594 -22.4818226018387 0.0
vertex 21.717 -22.8624432115813 0.0
endloop
endfacet
facet normal -0.258819045102522 0.965925826289068 2.06040150048506e-017
outer loop
vertex 22.6358994381594 -22.4818226018387 0.0
vertex 21.717 -22.8624432115813 2.413
vertex 22.6358994381594 -22.4818226018387 2.413
endloop
endfacet
facet normal -0.258819045102522 0.965925826289068 2.06040150048508e-017
outer loop
vertex 22.6358994381594 -22.4818226018387 2.413
vertex 23.622 -22.352 0.0
vertex 22.6358994381594 -22.4818226018387 0.0
endloop
endfacet
facet normal 0.0 1.0 5.84147707890389e-016
outer loop
vertex 23.622 -22.352 0.0
vertex 22.6358994381594 -22.4818226018387 2.413
vertex 23.622 -22.352 2.413
endloop
endfacet
facet normal 0.0 1.0 5.84147707890389e-016
outer loop
vertex 23.622 -22.352 2.413
vertex 24.6081005618406 -22.4818226018387 0.0
vertex 23.622 -22.352 0.0
endloop
endfacet
facet normal 0.258819045102522 0.965925826289068 2.06040150048506e-017
outer loop
vertex 24.6081005618406 -22.4818226018387 0.0
vertex 23.622 -22.352 2.413
vertex 24.6081005618406 -22.4818226018387 2.413
endloop
endfacet
facet normal 0.258819045102522 0.965925826289068 2.06040150048508e-017
outer loop
vertex 24.6081005618406 -22.4818226018387 2.413
vertex 25.527 -22.8624432115813 0.0
vertex 24.6081005618406 -22.4818226018387 0.0
endloop
endfacet
facet normal 0.499999999999999 0.866025403784439 -3.59501411517605e-017
outer loop
vertex 25.527 -22.8624432115813 0.0
vertex 24.6081005618406 -22.4818226018387 2.413
vertex 25.527 -22.8624432115813 2.413
endloop
endfacet
facet normal 0.499999999999999 0.866025403784439 -3.59501411517605e-017
outer loop
vertex 25.527 -22.8624432115813 2.413
vertex 26.3160768363207 -23.4679231636793 0.0
vertex 25.527 -22.8624432115813 0.0
endloop
endfacet
facet normal 0.707106781186548 0.707106781186547 4.16240318102412e-016
outer loop
vertex 26.3160768363207 -23.4679231636793 0.0
vertex 25.527 -22.8624432115813 2.413
vertex 26.3160768363207 -23.4679231636793 2.413
endloop
endfacet
facet normal -1.0 0.0 0.0
outer loop
vertex 55.88 -0.762000000000001 2.413
vertex 55.88 -51.562 0.0
vertex 55.88 -51.562 2.413
endloop
endfacet
facet normal -1.0 0.0 0.0
outer loop
vertex 55.88 -51.562 0.0
vertex 55.88 -0.762000000000001 2.413
vertex 55.88 -0.762000000000001 0.0
endloop
endfacet
facet normal 0.86602540378444 -0.499999999999998 0.0
outer loop
vertex 26.9215567884187 -28.067 0.0
vertex 26.3160768363207 -28.8560768363207 2.413
vertex 26.3160768363207 -28.8560768363207 0.0
endloop
endfacet
facet normal 0.707106781186547 -0.707106781186547 0.0
outer loop
vertex 26.3160768363207 -28.8560768363207 2.413
vertex 26.9215567884187 -28.067 0.0
vertex 26.9215567884187 -28.067 2.413
endloop
endfacet
facet normal 0.707106781186547 -0.707106781186547 0.0
outer loop
vertex 26.3160768363207 -28.8560768363207 2.413
vertex 25.527 -29.4615567884187 0.0
vertex 26.3160768363207 -28.8560768363207 0.0
endloop
endfacet
facet normal 0.5 -0.866025403784439 4.31652430971658e-016
outer loop
vertex 25.527 -29.4615567884187 0.0
vertex 26.3160768363207 -28.8560768363207 2.413
vertex 25.527 -29.4615567884187 2.413
endloop
endfacet
facet normal 0.965925826289068 -0.258819045102521 7.67068067481878e-017
outer loop
vertex 27.3021773981613 -27.1481005618406 0.0
vertex 26.9215567884187 -28.067 2.413
vertex 26.9215567884187 -28.067 0.0
endloop
endfacet
facet normal 0.86602540378444 -0.499999999999998 0.0
outer loop
vertex 26.9215567884187 -28.067 2.413
vertex 27.3021773981613 -27.1481005618406 0.0
vertex 27.3021773981613 -27.1481005618406 2.413
endloop
endfacet
facet normal 0.707106781186548 0.707106781186547 4.16240318102412e-016
outer loop
vertex 26.3160768363207 -23.4679231636793 0.0
vertex 26.9215567884187 -24.257 2.413
vertex 26.9215567884187 -24.257 0.0
endloop
endfacet
facet normal 0.866025403784439 0.5 1.80720620313828e-016
outer loop
vertex 26.9215567884187 -24.257 2.413
vertex 26.3160768363207 -23.4679231636793 0.0
vertex 26.3160768363207 -23.4679231636793 2.413
endloop
endfacet
facet normal 1.0 -3.37731065045018e-015 3.95732775244491e-030
outer loop
vertex 27.432 -26.162 0.0
vertex 27.3021773981613 -27.1481005618406 2.413
vertex 27.3021773981613 -27.1481005618406 0.0
endloop
endfacet
facet normal 0.965925826289068 -0.258819045102521 7.67068067481878e-017
outer loop
vertex 27.3021773981613 -27.1481005618406 2.413
vertex 27.432 -26.162 0.0
vertex 27.432 -26.162 2.413
endloop
endfacet
facet normal 0.866025403784439 0.5 1.80720620313828e-016
outer loop
vertex 26.9215567884187 -24.257 0.0
vertex 27.3021773981613 -25.1758994381594 2.413
vertex 27.3021773981613 -25.1758994381594 0.0
endloop
endfacet
facet normal 0.965925826289068 0.25881904510252 -7.67068067481841e-017
outer loop
vertex 27.3021773981613 -25.1758994381594 2.413
vertex 26.9215567884187 -24.257 0.0
vertex 26.9215567884187 -24.257 2.413
endloop
endfacet
facet normal 0.965925826289068 0.25881904510252 -7.67068067481841e-017
outer loop
vertex 27.3021773981613 -25.1758994381594 0.0
vertex 27.432 -26.162 2.413
vertex 27.432 -26.162 0.0
endloop
endfacet
facet normal 1.0 -2.98522181504171e-015 3.48244842215152e-030
outer loop
vertex 27.432 -26.162 2.413
vertex 27.3021773981613 -25.1758994381594 0.0
vertex 27.3021773981613 -25.1758994381594 2.413
endloop
endfacet
facet normal 0.0 0.0 -1.0
outer loop
vertex 0.0 -0.762000000000001 0.0
vertex 20.3224432115813 -24.257 0.0
vertex 0.0 -51.562 0.0
endloop
endfacet
facet normal 0.0 0.0 -1.0
outer loop
vertex 20.3224432115813 -24.257 0.0
vertex 0.0 -0.762000000000001 0.0
vertex 20.9279231636792 -23.4679231636793 0.0
endloop
endfacet
facet normal 0.0 0.0 -1.0
outer loop
vertex 20.9279231636792 -23.4679231636793 0.0
vertex 0.0 -0.762000000000001 0.0
vertex 21.717 -22.8624432115813 0.0
endloop
endfacet
facet normal 0.0 0.0 -1.0
outer loop
vertex 21.717 -22.8624432115813 0.0
vertex 0.0 -0.762000000000001 0.0
vertex 55.88 -0.762000000000001 0.0
endloop
endfacet
facet normal 0.0 0.0 -1.0
outer loop
vertex 0.0 -51.562 0.0
vertex 20.3224432115813 -24.257 0.0
vertex 19.9418226018386 -25.1758994381594 0.0
endloop
endfacet
facet normal 0.0 0.0 -1.0
outer loop
vertex 0.0 -51.562 0.0
vertex 19.9418226018386 -25.1758994381594 0.0
vertex 19.812 -26.162 0.0
endloop
endfacet
facet normal 0.0 0.0 -1.0
outer loop
vertex 21.717 -22.8624432115813 0.0
vertex 55.88 -0.762000000000001 0.0
vertex 22.6358994381594 -22.4818226018387 0.0
endloop
endfacet
facet normal 0.0 0.0 -1.0
outer loop
vertex 22.6358994381594 -22.4818226018387 0.0
vertex 55.88 -0.762000000000001 0.0
vertex 23.622 -22.352 0.0
endloop
endfacet
facet normal 0.0 0.0 -1.0
outer loop
vertex 23.622 -22.352 0.0
vertex 55.88 -0.762000000000001 0.0
vertex 24.6081005618406 -22.4818226018387 0.0
endloop
endfacet
facet normal 0.0 0.0 -1.0
outer loop
vertex 24.6081005618406 -22.4818226018387 0.0
vertex 55.88 -0.762000000000001 0.0
vertex 25.527 -22.8624432115813 0.0
endloop
endfacet
facet normal 0.0 0.0 -1.0
outer loop
vertex 25.527 -22.8624432115813 0.0
vertex 55.88 -0.762000000000001 0.0
vertex 26.3160768363207 -23.4679231636793 0.0
endloop
endfacet
facet normal 0.0 0.0 -1.0
outer loop
vertex 26.3160768363207 -23.4679231636793 0.0
vertex 55.88 -0.762000000000001 0.0
vertex 26.9215567884187 -24.257 0.0
endloop
endfacet
facet normal 0.0 0.0 -1.0
outer loop
vertex 26.9215567884187 -24.257 0.0
vertex 55.88 -0.762000000000001 0.0
vertex 27.3021773981613 -25.1758994381594 0.0
endloop
endfacet
facet normal 0.0 0.0 -1.0
outer loop
vertex 27.3021773981613 -25.1758994381594 0.0
vertex 55.88 -0.762000000000001 0.0
vertex 27.432 -26.162 0.0
endloop
endfacet
facet normal 0.0 0.0 -1.0
outer loop
vertex 0.0 -51.562 0.0
vertex 21.717 -29.4615567884187 0.0
vertex 55.88 -51.562 0.0
endloop
endfacet
facet normal 0.0 0.0 -1.0
outer loop
vertex 21.717 -29.4615567884187 0.0
vertex 0.0 -51.562 0.0
vertex 20.9279231636792 -28.8560768363207 0.0
endloop
endfacet
facet normal 0.0 0.0 -1.0
outer loop
vertex 20.9279231636792 -28.8560768363207 0.0
vertex 0.0 -51.562 0.0
vertex 20.3224432115813 -28.067 0.0
endloop
endfacet
facet normal 0.0 0.0 -1.0
outer loop
vertex 20.3224432115813 -28.067 0.0
vertex 0.0 -51.562 0.0
vertex 19.9418226018386 -27.1481005618406 0.0
endloop
endfacet
facet normal 0.0 0.0 -1.0
outer loop
vertex 19.9418226018386 -27.1481005618406 0.0
vertex 0.0 -51.562 0.0
vertex 19.812 -26.162 0.0
endloop
endfacet
facet normal 0.0 0.0 -1.0
outer loop
vertex 55.88 -51.562 0.0
vertex 21.717 -29.4615567884187 0.0
vertex 22.6358994381594 -29.8421773981613 0.0
endloop
endfacet
facet normal 0.0 0.0 -1.0
outer loop
vertex 55.88 -51.562 0.0
vertex 22.6358994381594 -29.8421773981613 0.0
vertex 23.622 -29.972 0.0
endloop
endfacet
facet normal 0.0 0.0 -1.0
outer loop
vertex 55.88 -51.562 0.0
vertex 23.622 -29.972 0.0
vertex 24.6081005618406 -29.8421773981614 0.0
endloop
endfacet
facet normal 0.0 0.0 -1.0
outer loop
vertex 55.88 -51.562 0.0
vertex 24.6081005618406 -29.8421773981614 0.0
vertex 25.527 -29.4615567884187 0.0
endloop
endfacet
facet normal 0.0 0.0 -1.0
outer loop
vertex 55.88 -51.562 0.0
vertex 25.527 -29.4615567884187 0.0
vertex 26.3160768363207 -28.8560768363207 0.0
endloop
endfacet
facet normal 0.0 0.0 -1.0
outer loop
vertex 55.88 -51.562 0.0
vertex 26.3160768363207 -28.8560768363207 0.0
vertex 26.9215567884187 -28.067 0.0
endloop
endfacet
facet normal 0.0 0.0 -1.0
outer loop
vertex 55.88 -51.562 0.0
vertex 26.9215567884187 -28.067 0.0
vertex 27.3021773981613 -27.1481005618406 0.0
endloop
endfacet
facet normal 0.0 0.0 -1.0
outer loop
vertex 55.88 -51.562 0.0
vertex 27.3021773981613 -27.1481005618406 0.0
vertex 27.432 -26.162 0.0
endloop
endfacet
facet normal 0.0 0.0 -1.0
outer loop
vertex 55.88 -51.562 0.0
vertex 27.432 -26.162 0.0
vertex 55.88 -0.762000000000001 0.0
endloop
endfacet
facet normal 0.0 0.0 -1.0
outer loop
vertex 5.08 -0.762000000000001 2.413
vertex 20.3224432115813 -24.257 2.413
vertex 5.08 -51.562 2.413
endloop
endfacet
facet normal 0.0 0.0 -1.0
outer loop
vertex 20.3224432115813 -24.257 2.413
vertex 5.08 -0.762000000000001 2.413
vertex 20.9279231636793 -23.4679231636793 2.413
endloop
endfacet
facet normal 0.0 0.0 -1.0
outer loop
vertex 20.9279231636793 -23.4679231636793 2.413
vertex 5.08 -0.762000000000001 2.413
vertex 21.717 -22.8624432115813 2.413
endloop
endfacet
facet normal 0.0 0.0 -1.0
outer loop
vertex 21.717 -22.8624432115813 2.413
vertex 5.08 -0.762000000000001 2.413
vertex 55.88 -0.762000000000001 2.413
endloop
endfacet
facet normal 0.0 0.0 -1.0
outer loop
vertex 5.08 -51.562 2.413
vertex 20.3224432115813 -24.257 2.413
vertex 19.9418226018386 -25.1758994381594 2.413
endloop
endfacet
facet normal 0.0 0.0 -1.0
outer loop
vertex 5.08 -51.562 2.413
vertex 19.9418226018386 -25.1758994381594 2.413
vertex 19.812 -26.162 2.413
endloop
endfacet
facet normal 0.0 0.0 -1.0
outer loop
vertex 21.717 -22.8624432115813 2.413
vertex 55.88 -0.762000000000001 2.413
vertex 22.6358994381594 -22.4818226018387 2.413
endloop
endfacet
facet normal 0.0 0.0 -1.0
outer loop
vertex 22.6358994381594 -22.4818226018387 2.413
vertex 55.88 -0.762000000000001 2.413
vertex 23.622 -22.352 2.413
endloop
endfacet
facet normal 0.0 0.0 -1.0
outer loop
vertex 23.622 -22.352 2.413
vertex 55.88 -0.762000000000001 2.413
vertex 24.6081005618406 -22.4818226018387 2.413
endloop
endfacet
facet normal 0.0 0.0 -1.0
outer loop
vertex 24.6081005618406 -22.4818226018387 2.413
vertex 55.88 -0.762000000000001 2.413
vertex 25.527 -22.8624432115813 2.413
endloop
endfacet
facet normal 0.0 0.0 -1.0
outer loop
vertex 25.527 -22.8624432115813 2.413
vertex 55.88 -0.762000000000001 2.413
vertex 26.3160768363207 -23.4679231636793 2.413
endloop
endfacet
facet normal 0.0 0.0 -1.0
outer loop
vertex 26.3160768363207 -23.4679231636793 2.413
vertex 55.88 -0.762000000000001 2.413
vertex 26.9215567884187 -24.257 2.413
endloop
endfacet
facet normal 0.0 0.0 -1.0
outer loop
vertex 26.9215567884187 -24.257 2.413
vertex 55.88 -0.762000000000001 2.413
vertex 27.3021773981613 -25.1758994381594 2.413
endloop
endfacet
facet normal 0.0 0.0 -1.0
outer loop
vertex 27.3021773981613 -25.1758994381594 2.413
vertex 55.88 -0.762000000000001 2.413
vertex 27.432 -26.162 2.413
endloop
endfacet
facet normal 0.0 0.0 -1.0
outer loop
vertex 5.08 -51.562 2.413
vertex 21.717 -29.4615567884187 2.413
vertex 55.88 -51.562 2.413
endloop
endfacet
facet normal 0.0 0.0 -1.0
outer loop
vertex 21.717 -29.4615567884187 2.413
vertex 5.08 -51.562 2.413
vertex 20.9279231636792 -28.8560768363207 2.413
endloop
endfacet
facet normal 0.0 0.0 -1.0
outer loop
vertex 20.9279231636792 -28.8560768363207 2.413
vertex 5.08 -51.562 2.413
vertex 20.3224432115813 -28.067 2.413
endloop
endfacet
facet normal 0.0 0.0 -1.0
outer loop
vertex 20.3224432115813 -28.067 2.413
vertex 5.08 -51.562 2.413
vertex 19.9418226018386 -27.1481005618406 2.413
endloop
endfacet
facet normal 0.0 0.0 -1.0
outer loop
vertex 19.9418226018386 -27.1481005618406 2.413
vertex 5.08 -51.562 2.413
vertex 19.812 -26.162 2.413
endloop
endfacet
facet normal 0.0 0.0 -1.0
outer loop
vertex 55.88 -51.562 2.413
vertex 21.717 -29.4615567884187 2.413
vertex 22.6358994381594 -29.8421773981613 2.413
endloop
endfacet
facet normal 0.0 0.0 -1.0
outer loop
vertex 55.88 -51.562 2.413
vertex 22.6358994381594 -29.8421773981613 2.413
vertex 23.622 -29.972 2.413
endloop
endfacet
facet normal 0.0 0.0 -1.0
outer loop
vertex 55.88 -51.562 2.413
vertex 23.622 -29.972 2.413
vertex 24.6081005618406 -29.8421773981614 2.413
endloop
endfacet
facet normal 0.0 0.0 -1.0
outer loop
vertex 55.88 -51.562 2.413
vertex 24.6081005618406 -29.8421773981614 2.413
vertex 25.527 -29.4615567884187 2.413
endloop
endfacet
facet normal 0.0 0.0 -1.0
outer loop
vertex 55.88 -51.562 2.413
vertex 25.527 -29.4615567884187 2.413
vertex 26.3160768363207 -28.8560768363207 2.413
endloop
endfacet
facet normal 0.0 0.0 -1.0
outer loop
vertex 55.88 -51.562 2.413
vertex 26.3160768363207 -28.8560768363207 2.413
vertex 26.9215567884187 -28.067 2.413
endloop
endfacet
facet normal 0.0 0.0 -1.0
outer loop
vertex 55.88 -51.562 2.413
vertex 26.9215567884187 -28.067 2.413
vertex 27.3021773981613 -27.1481005618406 2.413
endloop
endfacet
facet normal 0.0 0.0 -1.0
outer loop
vertex 55.88 -51.562 2.413
vertex 27.3021773981613 -27.1481005618406 2.413
vertex 27.432 -26.162 2.413
endloop
endfacet
facet normal 0.0 0.0 -1.0
outer loop
vertex 55.88 -51.562 2.413
vertex 27.432 -26.162 2.413
vertex 55.88 -0.762000000000001 2.413
endloop
endfacet
endsolid tvstandspacer
