  0
SECTION
  2
BLOCKS
  0
ENDSEC
  0
SECTION
  2
ENTITIES
  0
LINE
  8
0
 10
-48.055
 11
-45.514
 20
-4.066
 21
-2.487
  0
LINE
  8
0
 10
-45.514
 11
-43.022
 20
-2.487
 21
-0.401
  0
LINE
  8
0
 10
-43.022
 11
-41.082
 20
-0.401
 21
1.823
  0
LINE
  8
0
 10
-41.082
 11
-39.404
 20
1.823
 21
4.467
  0
LINE
  8
0
 10
-39.404
 11
-38.134
 20
4.467
 21
7.265
  0
LINE
  8
0
 10
-38.134
 11
-37.216
 20
7.265
 21
10.275
  0
LINE
  8
0
 10
-37.216
 11
-34.361
 20
10.275
 21
10.073
  0
LINE
  8
0
 10
-34.361
 11
-31.332
 20
10.073
 21
10.478
  0
LINE
  8
0
 10
-31.332
 11
-28.631
 20
10.478
 21
11.592
  0
LINE
  8
0
 10
-28.631
 11
-26.101
 20
11.592
 21
13.318
  0
LINE
  8
0
 10
-26.101
 11
-23.848
 20
13.318
 21
15.276
  0
LINE
  8
0
 10
-23.848
 11
-21.707
 20
15.276
 21
17.446
  0
LINE
  8
0
 10
-21.707
 11
-16.361
 20
17.446
 21
14.746
  0
LINE
  8
0
 10
-16.361
 11
-11.202
 20
14.746
 21
11.276
  0
LINE
  8
0
 10
-11.202
 11
-9.073
 20
11.276
 21
14.032
  0
LINE
  8
0
 10
-9.073
 11
-6.627
 20
14.032
 21
16.424
  0
LINE
  8
0
 10
-6.627
 11
-3.875
 20
16.424
 21
18.432
  0
LINE
  8
0
 10
-3.875
 11
-0.696
 20
18.432
 21
20.114
  0
LINE
  8
0
 10
-0.696
 11
2.153
 20
20.114
 21
18.32
  0
LINE
  8
0
 10
2.153
 11
4.974
 20
18.32
 21
16.112
  0
LINE
  8
0
 10
4.974
 11
7.365
 20
16.112
 21
13.803
  0
LINE
  8
0
 10
7.365
 11
9.643
 20
13.803
 21
11.109
  0
LINE
  8
0
 10
9.643
 11
15.378
 20
11.109
 21
14.418
  0
LINE
  8
0
 10
15.378
 11
21.15
 20
14.418
 21
17.112
  0
LINE
  8
0
 10
21.15
 11
23.155
 20
17.112
 21
15.261
  0
LINE
  8
0
 10
23.155
 11
25.486
 20
15.261
 21
13.557
  0
LINE
  8
0
 10
25.486
 11
27.953
 20
13.557
 21
12.161
  0
LINE
  8
0
 10
27.953
 11
30.68
 20
12.161
 21
11.081
  0
LINE
  8
0
 10
30.68
 11
33.416
 20
11.081
 21
10.473
  0
LINE
  8
0
 10
33.416
 11
36.325
 20
10.473
 21
10.275
  0
LINE
  8
0
 10
36.325
 11
37.614
 20
10.275
 21
6.623
  0
LINE
  8
0
 10
37.614
 11
39.39
 20
6.623
 21
3.55
  0
LINE
  8
0
 10
39.39
 11
41.775
 20
3.55
 21
0.754
  0
LINE
  8
0
 10
41.775
 11
44.817
 20
0.754
 21
-1.739
  0
LINE
  8
0
 10
44.817
 11
48.055
 20
-1.739
 21
-3.566
  0
LINE
  8
0
 10
48.055
 11
45.188
 20
-3.566
 21
-6.55
  0
LINE
  8
0
 10
45.188
 11
41.891
 20
-6.55
 21
-9.181
  0
LINE
  8
0
 10
41.891
 11
38.085
 20
-9.181
 21
-11.38
  0
LINE
  8
0
 10
38.085
 11
34.197
 20
-11.38
 21
-12.95
  0
LINE
  8
0
 10
34.197
 11
30.073
 20
-12.95
 21
-14.093
  0
LINE
  8
0
 10
30.073
 11
27.964
 20
-14.093
 21
-14.455
  0
LINE
  8
0
 10
27.964
 11
25.88
 20
-14.455
 21
-14.509
  0
LINE
  8
0
 10
25.88
 11
23.769
 20
-14.509
 21
-14.076
  0
LINE
  8
0
 10
23.769
 11
21.749
 20
-14.076
 21
-13.196
  0
LINE
  8
0
 10
21.749
 11
18.078
 20
-13.196
 21
-11.07
  0
LINE
  8
0
 10
18.078
 11
14.37
 20
-11.07
 21
-8.735
  0
LINE
  8
0
 10
14.37
 11
12.839
 20
-8.735
 21
-8.47
  0
LINE
  8
0
 10
12.839
 11
12.123
 20
-8.47
 21
-8.838
  0
LINE
  8
0
 10
12.123
 11
11.687
 20
-8.838
 21
-9.619
  0
LINE
  8
0
 10
11.687
 11
11.127
 20
-9.619
 21
-11.105
  0
LINE
  8
0
 10
11.127
 11
10.165
 20
-11.105
 21
-12.476
  0
LINE
  8
0
 10
10.165
 11
9.477
 20
-12.476
 21
-13.905
  0
LINE
  8
0
 10
9.477
 11
9.871
 20
-13.905
 21
-15.455
  0
LINE
  8
0
 10
9.871
 11
10.224
 20
-15.455
 21
-17.072
  0
LINE
  8
0
 10
10.224
 11
9.754
 20
-17.072
 21
-18.643
  0
LINE
  8
0
 10
9.754
 11
8.573
 20
-18.643
 21
-19.832
  0
LINE
  8
0
 10
8.573
 11
7.824
 20
-19.832
 21
-20.074
  0
LINE
  8
0
 10
7.824
 11
7.061
 20
-20.074
 21
-19.954
  0
LINE
  8
0
 10
7.061
 11
5.657
 20
-19.954
 21
-18.912
  0
LINE
  8
0
 10
5.657
 11
4.563
 20
-18.912
 21
-17.735
  0
LINE
  8
0
 10
4.563
 11
3.886
 20
-17.735
 21
-17.426
  0
LINE
  8
0
 10
3.886
 11
3.084
 20
-17.426
 21
-17.359
  0
LINE
  8
0
 10
3.084
 11
1.434
 20
-17.359
 21
-17.402
  0
LINE
  8
0
 10
1.434
 11
-0.294
 20
-17.402
 21
-17.247
  0
LINE
  8
0
 10
-0.294
 11
-1.884
 20
-17.247
 21
-17.165
  0
LINE
  8
0
 10
-1.884
 11
-3.452
 20
-17.165
 21
-17.628
  0
LINE
  8
0
 10
-3.452
 11
-4.703
 20
-17.628
 21
-18.625
  0
LINE
  8
0
 10
-4.703
 11
-5.991
 20
-18.625
 21
-19.628
  0
LINE
  8
0
 10
-5.991
 11
-6.767
 20
-19.628
 21
-20.017
  0
LINE
  8
0
 10
-6.767
 11
-7.514
 20
-20.017
 21
-20.114
  0
LINE
  8
0
 10
-7.514
 11
-8.199
 20
-20.114
 21
-19.794
  0
LINE
  8
0
 10
-8.199
 11
-8.751
 20
-19.794
 21
-19.117
  0
LINE
  8
0
 10
-8.751
 11
-9.25
 20
-19.117
 21
-17.558
  0
LINE
  8
0
 10
-9.25
 11
-9.195
 20
-17.558
 21
-15.842
  0
LINE
  8
0
 10
-9.195
 11
-9.367
 20
-15.842
 21
-14.199
  0
LINE
  8
0
 10
-9.367
 11
-10.073
 20
-14.199
 21
-12.802
  0
LINE
  8
0
 10
-10.073
 11
-10.955
 20
-12.802
 21
-11.433
  0
LINE
  8
0
 10
-10.955
 11
-11.927
 20
-11.433
 21
-10.117
  0
LINE
  8
0
 10
-11.927
 11
-12.645
 20
-10.117
 21
-9.701
  0
LINE
  8
0
 10
-12.645
 11
-13.528
 20
-9.701
 21
-9.651
  0
LINE
  8
0
 10
-13.528
 11
-15.101
 20
-9.651
 21
-10.093
  0
LINE
  8
0
 10
-15.101
 11
-16.46
 20
-10.093
 21
-10.883
  0
LINE
  8
0
 10
-16.46
 11
-17.786
 20
-10.883
 21
-11.902
  0
LINE
  8
0
 10
-17.786
 11
-19.101
 20
-11.902
 21
-12.921
  0
LINE
  8
0
 10
-19.101
 11
-20.444
 20
-12.921
 21
-13.828
  0
LINE
  8
0
 10
-20.444
 11
-21.862
 20
-13.828
 21
-14.583
  0
LINE
  8
0
 10
-21.862
 11
-23.437
 20
-14.583
 21
-15.131
  0
LINE
  8
0
 10
-23.437
 11
-25.089
 20
-15.131
 21
-15.375
  0
LINE
  8
0
 10
-25.089
 11
-26.729
 20
-15.375
 21
-15.357
  0
LINE
  8
0
 10
-26.729
 11
-28.32
 20
-15.357
 21
-15.157
  0
LINE
  8
0
 10
-28.32
 11
-30.042
 20
-15.157
 21
-14.791
  0
LINE
  8
0
 10
-30.042
 11
-31.608
 20
-14.791
 21
-14.363
  0
LINE
  8
0
 10
-31.608
 11
-33.067
 20
-14.363
 21
-13.899
  0
LINE
  8
0
 10
-33.067
 11
-34.656
 20
-13.899
 21
-13.319
  0
LINE
  8
0
 10
-34.656
 11
-36.18
 20
-13.319
 21
-12.684
  0
LINE
  8
0
 10
-36.18
 11
-37.678
 20
-12.684
 21
-11.98
  0
LINE
  8
0
 10
-37.678
 11
-39.059
 20
-11.98
 21
-11.255
  0
LINE
  8
0
 10
-39.059
 11
-40.527
 20
-11.255
 21
-10.396
  0
LINE
  8
0
 10
-40.527
 11
-41.861
 20
-10.396
 21
-9.53
  0
LINE
  8
0
 10
-41.861
 11
-43.211
 20
-9.53
 21
-8.56
  0
LINE
  8
0
 10
-43.211
 11
-44.525
 20
-8.56
 21
-7.513
  0
LINE
  8
0
 10
-44.525
 11
-45.735
 20
-7.513
 21
-6.447
  0
LINE
  8
0
 10
-45.735
 11
-46.916
 20
-6.447
 21
-5.297
  0
LINE
  8
0
 10
-46.916
 11
-48.055
 20
-5.297
 21
-4.066
  0
ENDSEC
  0
SECTION
  2
OBJECTS
  0
DICTIONARY
  0
ENDSEC
  0
EOF
