  0
SECTION
  2
HEADER
  9
$ACADVER
  1
AC1015
  0
ENDSEC
  0
SECTION
  2
BLOCKS
  0
ENDSEC
  0
SECTION
  2
ENTITIES
  0
LWPOLYLINE
  8
0
  90
55
  70
1
 10
-24.444000
 20
-7.068000
 10
-24.444000
 20
-3.932000
 10
-23.792000
 20
-0.865000
 10
-22.516000
 20
2.000000
 10
-20.673000
 20
4.537000
 10
-18.343000
 20
6.635000
 10
-15.627000
 20
8.203000
 10
-14.719000
 20
8.498000
 10
-14.918000
 20
9.432000
 10
-14.918000
 20
12.568000
 10
-14.266000
 20
15.635000
 10
-12.990000
 20
18.500000
 10
-11.147000
 20
21.037000
 10
-8.817000
 20
23.135000
 10
-6.101000
 20
24.703000
 10
-3.119000
 20
25.672000
 10
0.000000
 20
26.000000
 10
3.119000
 20
25.672000
 10
6.101000
 20
24.703000
 10
8.817000
 20
23.135000
 10
11.147000
 20
21.037000
 10
12.990000
 20
18.500000
 10
14.266000
 20
15.635000
 10
14.918000
 20
12.568000
 10
14.918000
 20
9.432000
 10
14.719000
 20
8.498000
 10
15.627000
 20
8.203000
 10
18.343000
 20
6.635000
 10
20.673000
 20
4.537000
 10
22.516000
 20
2.000000
 10
23.792000
 20
-0.865000
 10
24.444000
 20
-3.932000
 10
24.444000
 20
-7.068000
 10
23.792000
 20
-10.135000
 10
22.517000
 20
-13.000000
 10
20.673000
 20
-15.537000
 10
18.343000
 20
-17.635000
 10
15.627000
 20
-19.203000
 10
12.645000
 20
-20.172000
 10
9.526000
 20
-20.500000
 10
6.407000
 20
-20.172000
 10
3.425000
 20
-19.203000
 10
0.709000
 20
-17.635000
 10
0.000000
 20
-16.997000
 10
-0.709000
 20
-17.635000
 10
-3.425000
 20
-19.203000
 10
-6.407000
 20
-20.172000
 10
-9.526000
 20
-20.500000
 10
-12.645000
 20
-20.172000
 10
-15.627000
 20
-19.203000
 10
-18.343000
 20
-17.635000
 10
-20.673000
 20
-15.537000
 10
-22.517000
 20
-13.000000
 10
-23.792000
 20
-10.135000
 10
-24.444000
 20
-7.068000
  0
LWPOLYLINE
  8
0
  90
108
  70
1
 10
-23.433000
 20
-8.597000
 10
-23.433000
 20
-6.402000
 10
-22.977000
 20
-4.255000
 10
-22.084000
 20
-2.250000
 10
-20.794000
 20
-0.474000
 10
-19.162000
 20
0.994000
 10
-17.260000
 20
2.092000
 10
-15.173000
 20
2.771000
 10
-12.990000
 20
3.000000
 10
-10.807000
 20
2.771000
 10
-8.719000
 20
2.093000
 10
-6.819000
 20
0.995000
 10
-5.187000
 20
-0.474000
 10
-4.192000
 20
-1.843000
 10
-2.684000
 20
-0.972000
 10
-3.000000
 20
0.000000
 10
-2.427000
 20
1.763000
 10
-0.927000
 20
2.853000
 10
-0.500000
 20
2.853000
 10
-0.500000
 20
4.552000
 10
-2.183000
 20
4.729000
 10
-4.271000
 20
5.408000
 10
-6.172000
 20
6.505000
 10
-7.803000
 20
7.974000
 10
-9.093000
 20
9.750000
 10
-9.986000
 20
11.755000
 10
-10.442000
 20
13.902000
 10
-10.442000
 20
16.098000
 10
-9.986000
 20
18.245000
 10
-9.093000
 20
20.250000
 10
-7.803000
 20
22.026000
 10
-6.172000
 20
23.495000
 10
-4.271000
 20
24.592000
 10
-2.183000
 20
25.271000
 10
0.000000
 20
25.500000
 10
2.183000
 20
25.271000
 10
4.271000
 20
24.592000
 10
6.172000
 20
23.495000
 10
7.803000
 20
22.026000
 10
9.093000
 20
20.250000
 10
9.986000
 20
18.245000
 10
10.442000
 20
16.098000
 10
10.442000
 20
13.902000
 10
9.986000
 20
11.755000
 10
9.093000
 20
9.750000
 10
7.803000
 20
7.974000
 10
6.172000
 20
6.505000
 10
4.271000
 20
5.408000
 10
2.183000
 20
4.729000
 10
0.500000
 20
4.552000
 10
0.500000
 20
2.853000
 10
0.927000
 20
2.853000
 10
2.427000
 20
1.763000
 10
3.000000
 20
0.000000
 10
2.684000
 20
-0.972000
 10
4.192000
 20
-1.843000
 10
5.187000
 20
-0.474000
 10
6.819000
 20
0.995000
 10
8.719000
 20
2.093000
 10
10.807000
 20
2.771000
 10
12.990000
 20
3.000000
 10
15.173000
 20
2.771000
 10
17.260000
 20
2.092000
 10
19.162000
 20
0.994000
 10
20.794000
 20
-0.474000
 10
22.084000
 20
-2.250000
 10
22.977000
 20
-4.255000
 10
23.433000
 20
-6.402000
 10
23.433000
 20
-8.597000
 10
22.977000
 20
-10.745000
 10
22.084000
 20
-12.750000
 10
20.794000
 20
-14.526000
 10
19.162000
 20
-15.995000
 10
17.261000
 20
-17.093000
 10
15.174000
 20
-17.771000
 10
12.991000
 20
-18.000000
 10
10.808000
 20
-17.771000
 10
8.720000
 20
-17.092000
 10
6.818000
 20
-15.994000
 10
5.187000
 20
-14.526000
 10
3.897000
 20
-12.750000
 10
3.004000
 20
-10.745000
 10
2.547000
 20
-8.598000
 10
2.548000
 20
-6.403000
 10
3.004000
 20
-4.255000
 10
3.692000
 20
-2.709000
 10
2.262000
 20
-1.883000
 10
0.927000
 20
-2.853000
 10
-0.927000
 20
-2.853000
 10
-2.262000
 20
-1.883000
 10
-3.692000
 20
-2.709000
 10
-3.004000
 20
-4.255000
 10
-2.548000
 20
-6.403000
 10
-2.547000
 20
-8.598000
 10
-3.004000
 20
-10.745000
 10
-3.897000
 20
-12.750000
 10
-5.187000
 20
-14.526000
 10
-6.818000
 20
-15.994000
 10
-8.720000
 20
-17.092000
 10
-10.808000
 20
-17.771000
 10
-12.991000
 20
-18.000000
 10
-15.174000
 20
-17.771000
 10
-17.261000
 20
-17.093000
 10
-19.162000
 20
-15.995000
 10
-20.794000
 20
-14.526000
 10
-22.084000
 20
-12.750000
 10
-22.977000
 20
-10.745000
 10
-23.433000
 20
-8.597000
  0
LWPOLYLINE
  8
0
  90
21
  70
1
 10
-14.500000
 20
0.000000
 10
-14.304000
 20
1.862000
 10
-12.990000
 20
2.000000
 10
-11.015000
 20
1.793000
 10
-9.851000
 20
1.415000
 10
-10.000000
 20
0.000000
 10
-9.781000
 20
-2.079000
 10
-9.135000
 20
-4.067000
 10
-8.090000
 20
-5.878000
 10
-6.691000
 20
-7.431000
 10
-5.000000
 20
-8.660000
 10
-3.701000
 20
-9.239000
 10
-3.955000
 20
-10.436000
 10
-4.763000
 20
-12.250000
 10
-5.539000
 20
-13.319000
 10
-7.250000
 20
-12.557000
 10
-9.702000
 20
-10.776000
 10
-11.731000
 20
-8.523000
 10
-13.246000
 20
-5.898000
 10
-14.183000
 20
-3.015000
 10
-14.500000
 20
0.000000
  0
LWPOLYLINE
  8
0
  90
21
  70
1
 10
-8.765000
 20
11.457000
 10
-7.250000
 20
12.557000
 10
-4.481000
 20
13.790000
 10
-1.516000
 20
14.421000
 10
1.516000
 20
14.421000
 10
4.481000
 20
13.790000
 10
7.250000
 20
12.557000
 10
8.765000
 20
11.457000
 10
8.227000
 20
10.250000
 10
7.060000
 20
8.643000
 10
6.150000
 20
7.824000
 10
5.000000
 20
8.660000
 10
3.090000
 20
9.511000
 10
1.045000
 20
9.945000
 10
-1.045000
 20
9.945000
 10
-3.090000
 20
9.511000
 10
-5.000000
 20
8.660000
 10
-6.150000
 20
7.824000
 10
-7.060000
 20
8.643000
 10
-8.227000
 20
10.250000
 10
-8.765000
 20
11.457000
  0
LWPOLYLINE
  8
0
  90
21
  70
1
 10
3.701000
 20
-9.239000
 10
5.000000
 20
-8.660000
 10
6.691000
 20
-7.431000
 10
8.090000
 20
-5.878000
 10
9.135000
 20
-4.067000
 10
9.781000
 20
-2.079000
 10
10.000000
 20
0.000000
 10
9.851000
 20
1.415000
 10
11.015000
 20
1.793000
 10
12.990000
 20
2.000000
 10
14.304000
 20
1.862000
 10
14.500000
 20
0.000000
 10
14.183000
 20
-3.015000
 10
13.246000
 20
-5.898000
 10
11.731000
 20
-8.523000
 10
9.702000
 20
-10.776000
 10
7.250000
 20
-12.557000
 10
5.539000
 20
-13.319000
 10
4.763000
 20
-12.250000
 10
3.955000
 20
-10.436000
 10
3.701000
 20
-9.239000
  0
ENDSEC
  0
SECTION
  2
OBJECTS
  0
DICTIONARY
  0
ENDSEC
  0
EOF
