  0
SECTION
  2
BLOCKS
  0
ENDSEC
  0
SECTION
  2
ENTITIES
  0
LINE
  8
0
 10
-43.925
 11
-43.679
 20
7.817
 21
10.197
  0
LINE
  8
0
 10
-43.679
 11
-42.915
 20
10.197
 21
12.547
  0
LINE
  8
0
 10
-42.915
 11
-41.658
 20
12.547
 21
14.669
  0
LINE
  8
0
 10
-41.658
 11
-40.006
 20
14.669
 21
16.431
  0
LINE
  8
0
 10
-40.006
 11
-37.957
 20
16.431
 21
17.85
  0
LINE
  8
0
 10
-37.957
 11
-35.701
 20
17.85
 21
18.807
  0
LINE
  8
0
 10
-35.701
 11
-33.214
 20
18.807
 21
19.34
  0
LINE
  8
0
 10
-33.214
 11
-30.725
 20
19.34
 21
19.398
  0
LINE
  8
0
 10
-30.725
 11
-28.397
 20
19.398
 21
19.003
  0
LINE
  8
0
 10
-28.397
 11
-26.209
 20
19.003
 21
18.132
  0
LINE
  8
0
 10
-26.209
 11
-24.193
 20
18.132
 21
16.729
  0
LINE
  8
0
 10
-24.193
 11
-22.479
 20
16.729
 21
14.944
  0
LINE
  8
0
 10
-22.479
 11
-21.045
 20
14.944
 21
12.866
  0
LINE
  8
0
 10
-21.045
 11
-0.847
 20
12.866
 21
12.477
  0
LINE
  8
0
 10
-0.847
 11
18.996
 20
12.477
 21
11.671
  0
LINE
  8
0
 10
18.996
 11
20.58
 20
11.671
 21
13.839
  0
LINE
  8
0
 10
20.58
 11
22.428
 20
13.839
 21
15.679
  0
LINE
  8
0
 10
22.428
 11
24.583
 20
15.679
 21
17.167
  0
LINE
  8
0
 10
24.583
 11
27.063
 20
17.167
 21
18.233
  0
LINE
  8
0
 10
27.063
 11
29.607
 20
18.233
 21
18.792
  0
LINE
  8
0
 10
29.607
 11
32.286
 20
18.792
 21
18.868
  0
LINE
  8
0
 10
32.286
 11
35.007
 20
18.868
 21
18.388
  0
LINE
  8
0
 10
35.007
 11
37.413
 20
18.388
 21
17.394
  0
LINE
  8
0
 10
37.413
 11
39.592
 20
17.394
 21
15.854
  0
LINE
  8
0
 10
39.592
 11
41.279
 20
15.854
 21
13.965
  0
LINE
  8
0
 10
41.279
 11
42.489
 20
13.965
 21
11.498
  0
LINE
  8
0
 10
42.489
 11
42.804
 20
11.498
 21
9.005
  0
LINE
  8
0
 10
42.804
 11
42.373
 20
9.005
 21
6.35
  0
LINE
  8
0
 10
42.373
 11
41.398
 20
6.35
 21
3.849
  0
LINE
  8
0
 10
41.398
 11
40.085
 20
3.849
 21
1.585
  0
LINE
  8
0
 10
40.085
 11
38.419
 20
1.585
 21
-0.581
  0
LINE
  8
0
 10
38.419
 11
40.368
 20
-0.581
 21
-1.882
  0
LINE
  8
0
 10
40.368
 11
42.042
 20
-1.882
 21
-3.497
  0
LINE
  8
0
 10
42.042
 11
43.292
 20
-3.497
 21
-5.45
  0
LINE
  8
0
 10
43.292
 11
43.907
 20
-5.45
 21
-7.856
  0
LINE
  8
0
 10
43.907
 11
43.8
 20
-7.856
 21
-10.092
  0
LINE
  8
0
 10
43.8
 11
43.133
 20
-10.092
 21
-12.332
  0
LINE
  8
0
 10
43.133
 11
42.005
 20
-12.332
 21
-14.326
  0
LINE
  8
0
 10
42.005
 11
40.412
 20
-14.326
 21
-16.07
  0
LINE
  8
0
 10
40.412
 11
38.352
 20
-16.07
 21
-17.52
  0
LINE
  8
0
 10
38.352
 11
36.394
 20
-17.52
 21
-18.404
  0
LINE
  8
0
 10
36.394
 11
34.077
 20
-18.404
 21
-18.984
  0
LINE
  8
0
 10
34.077
 11
31.691
 20
-18.984
 21
-19.101
  0
LINE
  8
0
 10
31.691
 11
29.39
 20
-19.101
 21
-18.709
  0
LINE
  8
0
 10
29.39
 11
27.228
 20
-18.709
 21
-17.79
  0
LINE
  8
0
 10
27.228
 11
25.297
 20
-17.79
 21
-16.466
  0
LINE
  8
0
 10
25.297
 11
23.57
 20
-16.466
 21
-14.827
  0
LINE
  8
0
 10
23.57
 11
22.089
 20
-14.827
 21
-13.015
  0
LINE
  8
0
 10
22.089
 11
20.789
 20
-13.015
 21
-11.039
  0
LINE
  8
0
 10
20.789
 11
0.68
 20
-11.039
 21
-11.055
  0
LINE
  8
0
 10
0.68
 11
-19.849
 20
-11.055
 21
-11.338
  0
LINE
  8
0
 10
-19.849
 11
-21.44
 20
-11.338
 21
-13.151
  0
LINE
  8
0
 10
-21.44
 11
-23.294
 20
-13.151
 21
-14.859
  0
LINE
  8
0
 10
-23.294
 11
-25.321
 20
-14.859
 21
-16.436
  0
LINE
  8
0
 10
-25.321
 11
-27.453
 20
-16.436
 21
-17.788
  0
LINE
  8
0
 10
-27.453
 11
-29.671
 20
-17.788
 21
-18.804
  0
LINE
  8
0
 10
-29.671
 11
-32.119
 20
-18.804
 21
-19.398
  0
LINE
  8
0
 10
-32.119
 11
-34.583
 20
-19.398
 21
-19.352
  0
LINE
  8
0
 10
-34.583
 11
-37.006
 20
-19.352
 21
-18.623
  0
LINE
  8
0
 10
-37.006
 11
-39.24
 20
-18.623
 21
-17.34
  0
LINE
  8
0
 10
-39.24
 11
-41.168
 20
-17.34
 21
-15.614
  0
LINE
  8
0
 10
-41.168
 11
-42.603
 20
-15.614
 21
-13.609
  0
LINE
  8
0
 10
-42.603
 11
-43.456
 20
-13.609
 21
-11.338
  0
LINE
  8
0
 10
-43.456
 11
-43.548
 20
-11.338
 21
-8.844
  0
LINE
  8
0
 10
-43.548
 11
-42.946
 20
-8.844
 21
-6.373
  0
LINE
  8
0
 10
-42.946
 11
-41.844
 20
-6.373
 21
-3.999
  0
LINE
  8
0
 10
-41.844
 11
-40.508
 20
-3.999
 21
-1.917
  0
LINE
  8
0
 10
-40.508
 11
-38.973
 20
-1.917
 21
0.017
  0
LINE
  8
0
 10
-38.973
 11
-41.044
 20
0.017
 21
1.367
  0
LINE
  8
0
 10
-41.044
 11
-42.652
 20
1.367
 21
3.144
  0
LINE
  8
0
 10
-42.652
 11
-43.606
 20
3.144
 21
5.331
  0
LINE
  8
0
 10
-43.606
 11
-43.925
 20
5.331
 21
7.817
  0
ENDSEC
  0
SECTION
  2
OBJECTS
  0
DICTIONARY
  0
ENDSEC
  0
EOF
