  0
SECTION
  2
BLOCKS
  0
ENDSEC
  0
SECTION
  2
ENTITIES
  0
LINE
  8
0
 10
-49.989
 11
-49.944
 20
-16.567
 21
-15.323
  0
LINE
  8
0
 10
-49.944
 11
-48.582
 20
-15.323
 21
-13.271
  0
LINE
  8
0
 10
-48.582
 11
-47.742
 20
-13.271
 21
-12.217
  0
LINE
  8
0
 10
-47.742
 11
-47.23
 20
-12.217
 21
-11.06
  0
LINE
  8
0
 10
-47.23
 11
-47.068
 20
-11.06
 21
-8.532
  0
LINE
  8
0
 10
-47.068
 11
-47.148
 20
-8.532
 21
-6.103
  0
LINE
  8
0
 10
-47.148
 11
-46.808
 20
-6.103
 21
-3.529
  0
LINE
  8
0
 10
-46.808
 11
-46.045
 20
-3.529
 21
-1.209
  0
LINE
  8
0
 10
-46.045
 11
-44.907
 20
-1.209
 21
1.126
  0
LINE
  8
0
 10
-44.907
 11
-43.446
 20
1.126
 21
3.401
  0
LINE
  8
0
 10
-43.446
 11
-41.955
 20
3.401
 21
5.24
  0
LINE
  8
0
 10
-41.955
 11
-40.096
 20
5.24
 21
7.088
  0
LINE
  8
0
 10
-40.096
 11
-38.216
 20
7.088
 21
8.707
  0
LINE
  8
0
 10
-38.216
 11
-36.172
 20
8.707
 21
10.524
  0
LINE
  8
0
 10
-36.172
 11
-34.606
 20
10.524
 21
12.341
  0
LINE
  8
0
 10
-34.606
 11
-33.265
 20
12.341
 21
14.651
  0
LINE
  8
0
 10
-33.265
 11
-32.405
 20
14.651
 21
16.874
  0
LINE
  8
0
 10
-32.405
 11
-31.797
 20
16.874
 21
19.456
  0
LINE
  8
0
 10
-31.797
 11
-31.56
 20
19.456
 21
21.965
  0
LINE
  8
0
 10
-31.56
 11
-31.684
 20
21.965
 21
24.553
  0
LINE
  8
0
 10
-31.684
 11
-32.206
 20
24.553
 21
27.021
  0
LINE
  8
0
 10
-32.206
 11
-33.199
 20
27.021
 21
29.372
  0
LINE
  8
0
 10
-33.199
 11
-34.558
 20
29.372
 21
31.6
  0
LINE
  8
0
 10
-34.558
 11
-35.867
 20
31.6
 21
33.769
  0
LINE
  8
0
 10
-35.867
 11
-36.936
 20
33.769
 21
35.966
  0
LINE
  8
0
 10
-36.936
 11
-37.58
 20
35.966
 21
38.432
  0
LINE
  8
0
 10
-37.58
 11
-37.366
 20
38.432
 21
39.667
  0
LINE
  8
0
 10
-37.366
 11
-36.571
 20
39.667
 21
40.538
  0
LINE
  8
0
 10
-36.571
 11
-34.182
 20
40.538
 21
41.457
  0
LINE
  8
0
 10
-34.182
 11
-31.467
 20
41.457
 21
42.005
  0
LINE
  8
0
 10
-31.467
 11
-29.004
 20
42.005
 21
42.389
  0
LINE
  8
0
 10
-29.004
 11
-26.469
 20
42.389
 21
42.581
  0
LINE
  8
0
 10
-26.469
 11
-23.922
 20
42.581
 21
42.417
  0
LINE
  8
0
 10
-23.922
 11
-21.478
 20
42.417
 21
41.649
  0
LINE
  8
0
 10
-21.478
 11
-19.561
 20
41.649
 21
40.191
  0
LINE
  8
0
 10
-19.561
 11
-18.176
 20
40.191
 21
38.048
  0
LINE
  8
0
 10
-18.176
 11
-17.335
 20
38.048
 21
35.632
  0
LINE
  8
0
 10
-17.335
 11
-16.938
 20
35.632
 21
33.013
  0
LINE
  8
0
 10
-16.938
 11
-16.908
 20
33.013
 21
30.423
  0
LINE
  8
0
 10
-16.908
 11
-16.998
 20
30.423
 21
27.996
  0
LINE
  8
0
 10
-16.998
 11
-16.96
 20
27.996
 21
25.34
  0
LINE
  8
0
 10
-16.96
 11
-16.477
 20
25.34
 21
22.875
  0
LINE
  8
0
 10
-16.477
 11
-15.246
 20
22.875
 21
20.609
  0
LINE
  8
0
 10
-15.246
 11
-13.378
 20
20.609
 21
18.865
  0
LINE
  8
0
 10
-13.378
 11
-11.099
 20
18.865
 21
17.852
  0
LINE
  8
0
 10
-11.099
 11
-8.729
 20
17.852
 21
17.839
  0
LINE
  8
0
 10
-8.729
 11
-6.34
 20
17.839
 21
18.761
  0
LINE
  8
0
 10
-6.34
 11
-4.185
 20
18.761
 21
20.426
  0
LINE
  8
0
 10
-4.185
 11
-2.656
 20
20.426
 21
22.382
  0
LINE
  8
0
 10
-2.656
 11
-1.709
 20
22.382
 21
24.797
  0
LINE
  8
0
 10
-1.709
 11
-1.731
 20
24.797
 21
27.225
  0
LINE
  8
0
 10
-1.731
 11
-2.554
 20
27.225
 21
29.513
  0
LINE
  8
0
 10
-2.554
 11
-4.04
 20
29.513
 21
31.76
  0
LINE
  8
0
 10
-4.04
 11
-5.754
 20
31.76
 21
33.645
  0
LINE
  8
0
 10
-5.754
 11
-7.605
 20
33.645
 21
35.386
  0
LINE
  8
0
 10
-7.605
 11
-9.383
 20
35.386
 21
37.163
  0
LINE
  8
0
 10
-9.383
 11
-10.237
 20
37.163
 21
38.374
  0
LINE
  8
0
 10
-10.237
 11
-10.484
 20
38.374
 21
39.5
  0
LINE
  8
0
 10
-10.484
 11
-10.001
 20
39.5
 21
40.489
  0
LINE
  8
0
 10
-10.001
 11
-8.912
 20
40.489
 21
41.383
  0
LINE
  8
0
 10
-8.912
 11
-6.621
 20
41.383
 21
42.503
  0
LINE
  8
0
 10
-6.621
 11
-4.285
 20
42.503
 21
43.308
  0
LINE
  8
0
 10
-4.285
 11
-1.771
 20
43.308
 21
43.977
  0
LINE
  8
0
 10
-1.771
 11
0.797
 20
43.977
 21
44.409
  0
LINE
  8
0
 10
0.797
 11
3.287
 20
44.409
 21
44.488
  0
LINE
  8
0
 10
3.287
 11
5.741
 20
44.488
 21
44.095
  0
LINE
  8
0
 10
5.741
 11
8.157
 20
44.095
 21
43.02
  0
LINE
  8
0
 10
8.157
 11
10.079
 20
43.02
 21
41.467
  0
LINE
  8
0
 10
10.079
 11
11.674
 20
41.467
 21
39.591
  0
LINE
  8
0
 10
11.674
 11
13.109
 20
39.591
 21
37.339
  0
LINE
  8
0
 10
13.109
 11
14.264
 20
37.339
 21
35.026
  0
LINE
  8
0
 10
14.264
 11
15.203
 20
35.026
 21
32.695
  0
LINE
  8
0
 10
15.203
 11
15.972
 20
32.695
 21
30.338
  0
LINE
  8
0
 10
15.972
 11
16.601
 20
30.338
 21
27.872
  0
LINE
  8
0
 10
16.601
 11
17.084
 20
27.872
 21
25.317
  0
LINE
  8
0
 10
17.084
 11
17.403
 20
25.317
 21
22.906
  0
LINE
  8
0
 10
17.403
 11
17.628
 20
22.906
 21
20.185
  0
LINE
  8
0
 10
17.628
 11
17.732
 20
20.185
 21
17.629
  0
LINE
  8
0
 10
17.732
 11
17.757
 20
17.629
 21
15.23
  0
LINE
  8
0
 10
17.757
 11
17.729
 20
15.23
 21
12.714
  0
LINE
  8
0
 10
17.729
 11
17.663
 20
12.714
 21
10.047
  0
LINE
  8
0
 10
17.663
 11
17.591
 20
10.047
 21
7.593
  0
LINE
  8
0
 10
17.591
 11
17.528
 20
7.593
 21
5.064
  0
LINE
  8
0
 10
17.528
 11
17.516
 20
5.064
 21
2.536
  0
LINE
  8
0
 10
17.516
 11
17.632
 20
2.536
 21
-0.223
  0
LINE
  8
0
 10
17.632
 11
17.908
 20
-0.223
 21
-2.653
  0
LINE
  8
0
 10
17.908
 11
18.471
 20
-2.653
 21
-5.263
  0
LINE
  8
0
 10
18.471
 11
19.32
 20
-5.263
 21
-7.648
  0
LINE
  8
0
 10
19.32
 11
20.429
 20
-7.648
 21
-9.83
  0
LINE
  8
0
 10
20.429
 11
21.806
 20
-9.83
 21
-12.078
  0
LINE
  8
0
 10
21.806
 11
23.109
 20
-12.078
 21
-14.098
  0
LINE
  8
0
 10
23.109
 11
24.438
 20
-14.098
 21
-16.306
  0
LINE
  8
0
 10
24.438
 11
25.545
 20
-16.306
 21
-18.62
  0
LINE
  8
0
 10
25.545
 11
26.271
 20
-18.62
 21
-21.108
  0
LINE
  8
0
 10
26.271
 11
26.776
 20
-21.108
 21
-23.685
  0
LINE
  8
0
 10
26.776
 11
27.382
 20
-23.685
 21
-26.122
  0
LINE
  8
0
 10
27.382
 11
28.29
 20
-26.122
 21
-28.395
  0
LINE
  8
0
 10
28.29
 11
29.052
 20
-28.395
 21
-29.591
  0
LINE
  8
0
 10
29.052
 11
29.995
 20
-29.591
 21
-30.473
  0
LINE
  8
0
 10
29.995
 11
31.084
 20
-30.473
 21
-30.887
  0
LINE
  8
0
 10
31.084
 11
32.334
 20
-30.887
 21
-30.78
  0
LINE
  8
0
 10
32.334
 11
33.552
 20
-30.78
 21
-30.232
  0
LINE
  8
0
 10
33.552
 11
34.537
 20
-30.232
 21
-29.364
  0
LINE
  8
0
 10
34.537
 11
35.082
 20
-29.364
 21
-28.276
  0
LINE
  8
0
 10
35.082
 11
35.172
 20
-28.276
 21
-27.065
  0
LINE
  8
0
 10
35.172
 11
34.888
 20
-27.065
 21
-24.588
  0
LINE
  8
0
 10
34.888
 11
34.95
 20
-24.588
 21
-23.269
  0
LINE
  8
0
 10
34.95
 11
35.346
 20
-23.269
 21
-22.025
  0
LINE
  8
0
 10
35.346
 11
36.864
 20
-22.025
 21
-19.97
  0
LINE
  8
0
 10
36.864
 11
39.001
 20
-19.97
 21
-18.53
  0
LINE
  8
0
 10
39.001
 11
41.385
 20
-18.53
 21
-17.779
  0
LINE
  8
0
 10
41.385
 11
43.945
 20
-17.779
 21
-17.66
  0
LINE
  8
0
 10
43.945
 11
46.292
 20
-17.66
 21
-18.194
  0
LINE
  8
0
 10
46.292
 11
47.476
 20
-18.194
 21
-18.813
  0
LINE
  8
0
 10
47.476
 11
48.431
 20
-18.813
 21
-19.648
  0
LINE
  8
0
 10
48.431
 11
49.649
 20
-19.648
 21
-21.863
  0
LINE
  8
0
 10
49.649
 11
50.043
 20
-21.863
 21
-24.268
  0
LINE
  8
0
 10
50.043
 11
49.876
 20
-24.268
 21
-27.038
  0
LINE
  8
0
 10
49.876
 11
49.344
 20
-27.038
 21
-29.485
  0
LINE
  8
0
 10
49.344
 11
48.551
 20
-29.485
 21
-31.827
  0
LINE
  8
0
 10
48.551
 11
47.434
 20
-31.827
 21
-34.257
  0
LINE
  8
0
 10
47.434
 11
46.133
 20
-34.257
 21
-36.443
  0
LINE
  8
0
 10
46.133
 11
44.584
 20
-36.443
 21
-38.492
  0
LINE
  8
0
 10
44.584
 11
42.818
 20
-38.492
 21
-40.328
  0
LINE
  8
0
 10
42.818
 11
40.834
 20
-40.328
 21
-41.912
  0
LINE
  8
0
 10
40.834
 11
38.688
 20
-41.912
 21
-43.166
  0
LINE
  8
0
 10
38.688
 11
36.262
 20
-43.166
 21
-44.08
  0
LINE
  8
0
 10
36.262
 11
33.744
 20
-44.08
 21
-44.499
  0
LINE
  8
0
 10
33.744
 11
31.179
 20
-44.499
 21
-44.367
  0
LINE
  8
0
 10
31.179
 11
28.757
 20
-44.367
 21
-43.734
  0
LINE
  8
0
 10
28.757
 11
26.432
 20
-43.734
 21
-42.696
  0
LINE
  8
0
 10
26.432
 11
24.331
 20
-42.696
 21
-41.406
  0
LINE
  8
0
 10
24.331
 11
22.272
 20
-41.406
 21
-39.814
  0
LINE
  8
0
 10
22.272
 11
20.404
 20
-39.814
 21
-38.069
  0
LINE
  8
0
 10
20.404
 11
18.77
 20
-38.069
 21
-36.276
  0
LINE
  8
0
 10
18.77
 11
17.152
 20
-36.276
 21
-34.195
  0
LINE
  8
0
 10
17.152
 11
15.755
 20
-34.195
 21
-32.065
  0
LINE
  8
0
 10
15.755
 11
14.524
 20
-32.065
 21
-29.83
  0
LINE
  8
0
 10
14.524
 11
13.475
 20
-29.83
 21
-27.586
  0
LINE
  8
0
 10
13.475
 11
12.458
 20
-27.586
 21
-25.062
  0
LINE
  8
0
 10
12.458
 11
11.592
 20
-25.062
 21
-22.662
  0
LINE
  8
0
 10
11.592
 11
10.783
 20
-22.662
 21
-20.283
  0
LINE
  8
0
 10
10.783
 11
10.023
 20
-20.283
 21
-18.02
  0
LINE
  8
0
 10
10.023
 11
9.155
 20
-18.02
 21
-15.513
  0
LINE
  8
0
 10
9.155
 11
8.286
 20
-15.513
 21
-13.221
  0
LINE
  8
0
 10
8.286
 11
7.641
 20
-13.221
 21
-11.991
  0
LINE
  8
0
 10
7.641
 11
6.845
 20
-11.991
 21
-11.109
  0
LINE
  8
0
 10
6.845
 11
5.672
 20
-11.109
 21
-10.684
  0
LINE
  8
0
 10
5.672
 11
4.276
 20
-10.684
 21
-10.827
  0
LINE
  8
0
 10
4.276
 11
1.94
 20
-10.827
 21
-11.756
  0
LINE
  8
0
 10
1.94
 11
-0.316
 20
-11.756
 21
-12.978
  0
LINE
  8
0
 10
-0.316
 11
-2.592
 20
-12.978
 21
-14.218
  0
LINE
  8
0
 10
-2.592
 11
-4.903
 20
-14.218
 21
-15.306
  0
LINE
  8
0
 10
-4.903
 11
-7.215
 20
-15.306
 21
-16.134
  0
LINE
  8
0
 10
-7.215
 11
-9.835
 20
-16.134
 21
-16.613
  0
LINE
  8
0
 10
-9.835
 11
-12.369
 20
-16.613
 21
-16.412
  0
LINE
  8
0
 10
-12.369
 11
-14.635
 20
-16.412
 21
-15.497
  0
LINE
  8
0
 10
-14.635
 11
-16.707
 20
-15.497
 21
-14.001
  0
LINE
  8
0
 10
-16.707
 11
-18.486
 20
-14.001
 21
-12.21
  0
LINE
  8
0
 10
-18.486
 11
-20.058
 20
-12.21
 21
-10.25
  0
LINE
  8
0
 10
-20.058
 11
-21.593
 20
-10.25
 21
-8.021
  0
LINE
  8
0
 10
-21.593
 11
-23.013
 20
-8.021
 21
-5.927
  0
LINE
  8
0
 10
-23.013
 11
-24.695
 20
-5.927
 21
-4.171
  0
LINE
  8
0
 10
-24.695
 11
-25.899
 20
-4.171
 21
-3.676
  0
LINE
  8
0
 10
-25.899
 11
-27.228
 20
-3.676
 21
-3.896
  0
LINE
  8
0
 10
-27.228
 11
-28.295
 20
-3.896
 21
-4.545
  0
LINE
  8
0
 10
-28.295
 11
-29.201
 20
-4.545
 21
-5.439
  0
LINE
  8
0
 10
-29.201
 11
-29.848
 20
-5.439
 21
-6.533
  0
LINE
  8
0
 10
-29.848
 11
-30.102
 20
-6.533
 21
-7.679
  0
LINE
  8
0
 10
-30.102
 11
-29.82
 20
-7.679
 21
-10.098
  0
LINE
  8
0
 10
-29.82
 11
-29.123
 20
-10.098
 21
-12.759
  0
LINE
  8
0
 10
-29.123
 11
-28.575
 20
-12.759
 21
-15.241
  0
LINE
  8
0
 10
-28.575
 11
-28.233
 20
-15.241
 21
-17.756
  0
LINE
  8
0
 10
-28.233
 11
-28.228
 20
-17.756
 21
-19.264
  0
LINE
  8
0
 10
-28.228
 11
-28.506
 20
-19.264
 21
-20.279
  0
LINE
  8
0
 10
-28.506
 11
-28.866
 20
-20.279
 21
-20.575
  0
LINE
  8
0
 10
-28.866
 11
-29.38
 20
-20.575
 21
-20.546
  0
LINE
  8
0
 10
-29.38
 11
-30.701
 20
-20.546
 21
-19.7
  0
LINE
  8
0
 10
-30.701
 11
-32.33
 20
-19.7
 21
-17.841
  0
LINE
  8
0
 10
-32.33
 11
-33.513
 20
-17.841
 21
-15.64
  0
LINE
  8
0
 10
-33.513
 11
-34.146
 20
-15.64
 21
-14.419
  0
LINE
  8
0
 10
-34.146
 11
-34.963
 20
-14.419
 21
-13.438
  0
LINE
  8
0
 10
-34.963
 11
-35.938
 20
-13.438
 21
-12.868
  0
LINE
  8
0
 10
-35.938
 11
-37.222
 20
-12.868
 21
-12.548
  0
LINE
  8
0
 10
-37.222
 11
-39.759
 20
-12.548
 21
-12.606
  0
LINE
  8
0
 10
-39.759
 11
-42.288
 20
-12.606
 21
-13.386
  0
LINE
  8
0
 10
-42.288
 11
-44.354
 20
-13.386
 21
-14.738
  0
LINE
  8
0
 10
-44.354
 11
-45.972
 20
-14.738
 21
-16.665
  0
LINE
  8
0
 10
-45.972
 11
-46.811
 20
-16.665
 21
-17.883
  0
LINE
  8
0
 10
-46.811
 11
-47.585
 20
-17.883
 21
-18.743
  0
LINE
  8
0
 10
-47.585
 11
-48.053
 20
-18.743
 21
-18.966
  0
LINE
  8
0
 10
-48.053
 11
-48.542
 20
-18.966
 21
-18.883
  0
LINE
  8
0
 10
-48.542
 11
-49.493
 20
-18.883
 21
-17.859
  0
LINE
  8
0
 10
-49.493
 11
-49.989
 20
-17.859
 21
-16.567
  0
ENDSEC
  0
SECTION
  2
OBJECTS
  0
DICTIONARY
  0
ENDSEC
  0
EOF
