  0
SECTION
  2
HEADER
  9
$ACADVER
  1
AC1014
  9
$HANDSEED
  5
FFFF
  9
$MEASUREMENT
 70
     1
  0
ENDSEC
  0
SECTION
  2
TABLES
  0
TABLE
  2
VPORT
  5
8
330
0
100
AcDbSymbolTable
 70
     4
  0
VPORT
  5
2E
330
8
100
AcDbSymbolTableRecord
100
AcDbViewportTableRecord
  2
*ACTIVE
 70
     0
 10
0.0
 20
0.0
 11
1.0
 21
1.0
 12
210.0
 22
148.5
 13
0.0
 23
0.0
 14
10.0
 24
10.0
 15
10.0
 25
10.0
 16
0.0
 26
0.0
 36
1.0
 17
0.0
 27
0.0
 37
0.0
 40
341.0
 41
1.24
 42
50.0
 43
0.0
 44
0.0
 50
0.0
 51
0.0
 71
     0
 72
   100
 73
     1
 74
     3
 75
     0
 76
     0
 77
     0
 78
     0
  0
ENDTAB
  0
TABLE
  2
LTYPE
  5
5
330
0
100
AcDbSymbolTable
 70
     1
  0
LTYPE
  5
14
330
5
100
AcDbSymbolTableRecord
100
AcDbLinetypeTableRecord
  2
BYBLOCK
 70
     0
  3

 72
    65
 73
     0
 40
0.0
  0
LTYPE
  5
15
330
5
100
AcDbSymbolTableRecord
100
AcDbLinetypeTableRecord
  2
BYLAYER
 70
     0
  3

 72
    65
 73
     0
 40
0.0
  0
LTYPE
  5
16
330
5
100
AcDbSymbolTableRecord
100
AcDbLinetypeTableRecord
  2
CONTINUOUS
 70
     0
  3
Solid line
 72
    65
 73
     0
 40
0.0
  0
ENDTAB
  0
TABLE
  2
LAYER
  5
2
100
AcDbSymbolTable
 70
2
  0
LAYER
  5
50
100
AcDbSymbolTableRecord
100
AcDbLayerTableRecord
  2
0
 70
0
  6
CONTINUOUS
  0
LAYER
  5
51
100
AcDbSymbolTableRecord
100
AcDbLayerTableRecord
  2
Layer_1
 70
0
  6
CONTINUOUS
  0
ENDTAB
  0
TABLE
  2
STYLE
  5
3
330
0
100
AcDbSymbolTable
 70
     1
  0
STYLE
  5
11
330
3
100
AcDbSymbolTableRecord
100
AcDbTextStyleTableRecord
  2
STANDARD
 70
     0
 40
0.0
 41
1.0
 50
0.0
 71
     0
 42
2.5
  3
txt
  4

  0
ENDTAB
  0
TABLE
  2
VIEW
  5
6
330
0
100
AcDbSymbolTable
 70
     0
  0
ENDTAB
  0
TABLE
  2
UCS
  5
7
330
0
100
AcDbSymbolTable
 70
     0
  0
ENDTAB
  0
TABLE
  2
APPID
  5
9
330
0
100
AcDbSymbolTable
 70
     2
  0
APPID
  5
12
330
9
100
AcDbSymbolTableRecord
100
AcDbRegAppTableRecord
  2
ACAD
 70
     0
  0
ENDTAB
  0
TABLE
  2
DIMSTYLE
  5
A
330
0
100
AcDbSymbolTable
 70
     1
  0
DIMSTYLE
105
27
330
A
100
AcDbSymbolTableRecord
100
AcDbDimStyleTableRecord
  2
ISO-25
 70
     0
  3

  4

  5

  6

  7

 40
1.0
 41
2.5
 42
0.625
 43
3.75
 44
1.25
 45
0.0
 46
0.0
 47
0.0
 48
0.0
140
2.5
141
2.5
142
0.0
143
0.03937007874016
144
1.0
145
0.0
146
1.0
147
0.625
 71
     0
 72
     0
 73
     0
 74
     0
 75
     0
 76
     0
 77
     1
 78
     8
170
     0
171
     3
172
     1
173
     0
174
     0
175
     0
176
     0
177
     0
178
     0
270
     2
271
     2
272
     2
273
     2
274
     3
340
11
275
     0
280
     0
281
     0
282
     0
283
     0
284
     8
285
     0
286
     0
287
     3
288
     0
  0
ENDTAB
  0
TABLE
  2
BLOCK_RECORD
  5
1
330
0
100
AcDbSymbolTable
 70
     1
  0
BLOCK_RECORD
  5
1F
330
1
100
AcDbSymbolTableRecord
100
AcDbBlockTableRecord
  2
*MODEL_SPACE
  0
BLOCK_RECORD
  5
1B
330
1
100
AcDbSymbolTableRecord
100
AcDbBlockTableRecord
  2
*PAPER_SPACE
  0
ENDTAB
  0
ENDSEC
  0
SECTION
  2
BLOCKS
  0
BLOCK
  5
20
330
1F
100
AcDbEntity
  8
0
100
AcDbBlockBegin
  2
*MODEL_SPACE
 70
     0
 10
0.0
 20
0.0
 30
0.0
  3
*MODEL_SPACE
  1

  0
ENDBLK
  5
21
330
1F
100
AcDbEntity
  8
0
100
AcDbBlockEnd
  0
BLOCK
  5
1C
330
1B
100
AcDbEntity
 67
     1
  8
0
100
AcDbBlockBegin
  2
*PAPER_SPACE
  1

  0
ENDBLK
  5
1D
330
1B
100
AcDbEntity
 67
     1
  8
0
100
AcDbBlockEnd
  0
ENDSEC
  0
SECTION
  2
ENTITIES
  0
LWPOLYLINE
  5
100
100
AcDbEntity
  8
Layer_1
 62
7
100
AcDbPolyline
 90
257
 70
0
 10
146.214272
 20
1.231384
 30
0.0
 10
152.620720
 20
2.963280
 30
0.0
 10
158.553880
 20
5.130400
 30
0.0
 10
164.031944
 20
7.797352
 30
0.0
 10
169.073112
 20
11.028768
 30
0.0
 10
173.695568
 20
14.889256
 30
0.0
 10
177.917520
 20
19.443448
 30
0.0
 10
181.757160
 20
24.755960
 30
0.0
 10
185.232680
 20
30.891408
 30
0.0
 10
186.683176
 20
34.110656
 30
0.0
 10
187.801392
 20
37.283472
 30
0.0
 10
188.637688
 20
40.437608
 30
0.0
 10
189.242424
 20
43.600824
 30
0.0
 10
189.665960
 20
46.800864
 30
0.0
 10
189.958664
 20
50.065496
 30
0.0
 10
190.170904
 20
53.422464
 30
0.0
 10
190.353040
 20
56.899528
 30
0.0
 10
190.419280
 20
61.790928
 30
0.0
 10
190.084424
 20
66.487504
 30
0.0
 10
189.327448
 20
71.055424
 30
0.0
 10
188.127304
 20
75.560832
 30
0.0
 10
186.462992
 20
80.069912
 30
0.0
 10
184.313472
 20
84.648824
 30
0.0
 10
181.657728
 20
89.363720
 30
0.0
 10
178.474728
 20
94.280776
 30
0.0
 10
176.086928
 20
97.544584
 30
0.0
 10
172.974072
 20
101.460808
 30
0.0
 10
169.307960
 20
105.832936
 30
0.0
 10
165.260384
 20
110.464472
 30
0.0
 10
161.003112
 20
115.158904
 30
0.0
 10
156.707952
 20
119.719736
 30
0.0
 10
152.546688
 20
123.950448
 30
0.0
 10
148.691096
 20
127.654552
 30
0.0
 10
144.165528
 20
132.015968
 30
0.0
 10
139.295568
 20
137.029504
 30
0.0
 10
134.159848
 20
142.608384
 30
0.0
 10
128.837000
 20
148.665848
 30
0.0
 10
123.405656
 20
155.115112
 30
0.0
 10
117.944472
 20
161.869408
 30
0.0
 10
112.532064
 20
168.841968
 30
0.0
 10
107.247072
 20
175.946016
 30
0.0
 10
105.934760
 20
177.721048
 30
0.0
 10
104.753672
 20
179.263664
 30
0.0
 10
103.616296
 20
180.702432
 30
0.0
 10
102.435136
 20
182.165944
 30
0.0
 10
101.122672
 20
183.782776
 30
0.0
 10
99.591408
 20
185.681520
 30
0.0
 10
97.753840
 20
187.990760
 30
0.0
 10
95.522456
 20
190.839072
 30
0.0
 10
93.519088
 20
188.143816
 30
0.0
 10
91.838888
 20
185.885096
 30
0.0
 10
90.407920
 20
183.964184
 30
0.0
 10
89.152264
 20
182.282344
 30
0.0
 10
87.997968
 20
180.740864
 30
0.0
 10
86.871104
 20
179.241008
 30
0.0
 10
85.697736
 20
177.684056
 30
0.0
 10
84.403928
 20
175.971272
 30
0.0
 10
79.196912
 20
169.147112
 30
0.0
 10
74.138784
 20
162.660584
 30
0.0
 10
69.206224
 20
156.502008
 30
0.0
 10
64.375912
 20
150.661688
 30
0.0
 10
59.624528
 20
145.129944
 30
0.0
 10
54.928768
 20
139.897104
 30
0.0
 10
50.265299
 20
134.953472
 30
0.0
 10
45.610810
 20
130.289360
 30
0.0
 10
41.669567
 20
126.405008
 30
0.0
 10
37.144679
 20
121.844352
 30
0.0
 10
32.297127
 20
116.857440
 30
0.0
 10
27.387894
 20
111.694320
 30
0.0
 10
22.677961
 20
106.605048
 30
0.0
 10
18.428310
 20
101.839664
 30
0.0
 10
14.899925
 20
97.648224
 30
0.0
 10
12.353786
 20
94.280776
 30
0.0
 10
9.170786
 20
89.363728
 30
0.0
 10
6.515039
 20
84.648824
 30
0.0
 10
4.365520
 20
80.069920
 30
0.0
 10
2.701204
 20
75.560840
 30
0.0
 10
1.501068
 20
71.055424
 30
0.0
 10
0.744086
 20
66.487512
 30
0.0
 10
0.409235
 20
61.790928
 30
0.0
 10
0.475491
 20
56.899528
 30
0.0
 10
0.666452
 20
53.394896
 30
0.0
 10
0.901835
 20
49.967984
 30
0.0
 10
1.227247
 20
46.605336
 30
0.0
 10
1.688297
 20
43.293504
 30
0.0
 10
2.330591
 20
40.019032
 30
0.0
 10
3.199738
 20
36.768480
 30
0.0
 10
4.341345
 20
33.528392
 30
0.0
 10
5.801019
 20
30.285312
 30
0.0
 10
8.897513
 20
24.751400
 30
0.0
 10
12.211398
 20
20.020304
 30
0.0
 10
15.784716
 20
15.990592
 30
0.0
 10
19.659510
 20
12.560800
 30
0.0
 10
23.877819
 20
9.629480
 30
0.0
 10
28.481686
 20
7.095192
 30
0.0
 10
33.513152
 20
4.856488
 30
0.0
 10
39.014259
 20
2.811904
 30
0.0
 10
43.718521
 20
1.520240
 30
0.0
 10
48.684929
 20
0.754824
 30
0.0
 10
53.770704
 20
0.501680
 30
0.0
 10
58.833048
 20
0.746824
 30
0.0
 10
63.729200
 20
1.476296
 30
0.0
 10
68.316352
 20
2.676112
 30
0.0
 10
72.451736
 20
4.332304
 30
0.0
 10
75.992560
 20
6.430896
 30
0.0
 10
78.467672
 20
8.497128
 30
0.0
 10
80.690032
 20
10.914960
 30
0.0
 10
82.646448
 20
13.657048
 30
0.0
 10
84.323736
 20
16.696064
 30
0.0
 10
85.708712
 20
20.004672
 30
0.0
 10
86.788184
 20
23.555536
 30
0.0
 10
87.548968
 20
27.321320
 30
0.0
 10
87.977872
 20
31.274696
 30
0.0
 10
88.165664
 20
35.070576
 30
0.0
 10
88.304208
 20
39.509656
 30
0.0
 10
88.400952
 20
44.237696
 30
0.0
 10
88.463352
 20
48.900448
 30
0.0
 10
88.498952
 20
53.143688
 30
0.0
 10
88.515112
 20
56.613152
 30
0.0
 10
88.519112
 20
58.954608
 30
0.0
 10
88.518856
 20
59.813816
 30
0.0
 10
88.136024
 20
59.082904
 30
0.0
 10
87.083224
 20
57.110704
 30
0.0
 10
85.504000
 20
54.228064
 30
0.0
 10
83.541872
 20
50.765792
 30
0.0
 10
81.340392
 20
47.054728
 30
0.0
 10
79.043088
 20
43.425704
 30
0.0
 10
76.793504
 20
40.209528
 30
0.0
 10
74.735176
 20
37.737048
 30
0.0
 10
72.354680
 20
35.360976
 30
0.0
 10
70.131920
 20
33.361688
 30
0.0
 10
68.014008
 20
31.708600
 30
0.0
 10
65.948088
 20
30.371136
 30
0.0
 10
63.881288
 20
29.318736
 30
0.0
 10
61.760736
 20
28.520816
 30
0.0
 10
59.533552
 20
27.946808
 30
0.0
 10
57.146880
 20
27.566136
 30
0.0
 10
54.040232
 20
27.475184
 30
0.0
 10
50.897074
 20
27.895992
 30
0.0
 10
47.794766
 20
28.780912
 30
0.0
 10
44.810681
 20
30.082304
 30
0.0
 10
42.022187
 20
31.752512
 30
0.0
 10
39.506655
 20
33.743880
 30
0.0
 10
37.341455
 20
36.008768
 30
0.0
 10
35.603955
 20
38.499528
 30
0.0
 10
34.056004
 20
41.345896
 30
0.0
 10
32.837499
 20
43.971928
 30
0.0
 10
31.915711
 20
46.441376
 30
0.0
 10
31.257910
 20
48.817976
 30
0.0
 10
30.831366
 20
51.165488
 30
0.0
 10
30.603348
 20
53.547656
 30
0.0
 10
30.541124
 20
56.028232
 30
0.0
 10
30.611972
 20
58.670960
 30
0.0
 10
31.176045
 20
62.872056
 30
0.0
 10
32.377343
 20
66.676328
 30
0.0
 10
34.090766
 20
70.153416
 30
0.0
 10
36.191212
 20
73.372968
 30
0.0
 10
38.553581
 20
76.404600
 30
0.0
 10
41.052770
 20
79.317976
 30
0.0
 10
43.563682
 20
82.182712
 30
0.0
 10
45.961212
 20
85.068464
 30
0.0
 10
47.168274
 20
86.551928
 30
0.0
 10
49.146035
 20
88.895120
 30
0.0
 10
51.905050
 20
92.080896
 30
0.0
 10
55.455872
 20
96.092096
 30
0.0
 10
59.809048
 20
100.911568
 30
0.0
 10
64.975144
 20
106.522168
 30
0.0
 10
70.964704
 20
112.906736
 30
0.0
 10
77.788280
 20
120.048120
 30
0.0
 10
78.480504
 20
120.787992
 30
0.0
 10
79.278296
 20
121.670176
 30
0.0
 10
80.345112
 20
122.847888
 30
0.0
 10
81.844408
 20
124.474336
 30
0.0
 10
83.939648
 20
126.702752
 30
0.0
 10
86.794280
 20
129.686336
 30
0.0
 10
90.571768
 20
133.578312
 30
0.0
 10
95.435560
 20
138.531888
 30
0.0
 10
99.990968
 20
133.402840
 30
0.0
 10
103.474040
 20
129.501896
 30
0.0
 10
106.097264
 20
126.586544
 30
0.0
 10
108.073104
 20
124.414272
 30
0.0
 10
109.614032
 20
122.742568
 30
0.0
 10
110.932520
 20
121.328920
 30
0.0
 10
112.241032
 20
119.930816
 30
0.0
 10
113.752040
 20
118.305736
 30
0.0
 10
120.708800
 20
110.819664
 30
0.0
 10
126.694560
 20
104.435544
 30
0.0
 10
131.756616
 20
99.078312
 30
0.0
 10
135.942280
 20
94.672912
 30
0.0
 10
139.298840
 20
91.144288
 30
0.0
 10
141.873600
 20
88.417376
 30
0.0
 10
143.713864
 20
86.417120
 30
0.0
 10
144.866928
 20
85.068464
 30
0.0
 10
147.270600
 20
82.182720
 30
0.0
 10
149.797696
 20
79.317976
 30
0.0
 10
152.319760
 20
76.404608
 30
0.0
 10
154.708360
 20
73.372968
 30
0.0
 10
156.835032
 20
70.153416
 30
0.0
 10
158.571336
 20
66.676320
 30
0.0
 10
159.788816
 20
62.872048
 30
0.0
 10
160.359024
 20
58.670952
 30
0.0
 10
160.448592
 20
56.028224
 30
0.0
 10
160.430592
 20
53.547648
 30
0.0
 10
160.254280
 20
51.165488
 30
0.0
 10
159.868992
 20
48.817976
 30
0.0
 10
159.224024
 20
46.441368
 30
0.0
 10
158.268704
 20
43.971928
 30
0.0
 10
156.952328
 20
41.345896
 30
0.0
 10
155.224208
 20
38.499528
 30
0.0
 10
153.378976
 20
36.075168
 30
0.0
 10
151.163200
 20
33.841448
 30
0.0
 10
148.641072
 20
31.854144
 30
0.0
 10
145.876768
 20
30.169032
 30
0.0
 10
142.934456
 20
28.841896
 30
0.0
 10
139.878320
 20
27.928512
 30
0.0
 10
136.772536
 20
27.484664
 30
0.0
 10
133.681280
 20
27.566136
 30
0.0
 10
131.294608
 20
27.946808
 30
0.0
 10
129.067424
 20
28.520824
 30
0.0
 10
126.946872
 20
29.318736
 30
0.0
 10
124.880072
 20
30.371144
 30
0.0
 10
122.814152
 20
31.708600
 30
0.0
 10
120.696248
 20
33.361688
 30
0.0
 10
118.473480
 20
35.360976
 30
0.0
 10
116.092984
 20
37.737048
 30
0.0
 10
114.020888
 20
40.223912
 30
0.0
 10
111.735008
 20
43.478000
 30
0.0
 10
109.386400
 20
47.160640
 30
0.0
 10
107.126096
 20
50.933160
 30
0.0
 10
105.105152
 20
54.456888
 30
0.0
 10
103.474616
 20
57.393144
 30
0.0
 10
102.385528
 20
59.403256
 30
0.0
 10
101.988928
 20
60.148552
 30
0.0
 10
102.002448
 20
59.274960
 30
0.0
 10
102.042928
 20
56.895584
 30
0.0
 10
102.110368
 20
53.372512
 30
0.0
 10
102.204736
 20
49.067824
 30
0.0
 10
102.325976
 20
44.343608
 30
0.0
 10
102.474032
 20
39.561960
 30
0.0
 10
102.648864
 20
35.084960
 30
0.0
 10
102.850424
 20
31.274696
 30
0.0
 10
103.279080
 20
27.324728
 30
0.0
 10
104.039512
 20
23.560704
 30
0.0
 10
105.118256
 20
20.010568
 30
0.0
 10
106.501848
 20
16.702232
 30
0.0
 10
108.176848
 20
13.663632
 30
0.0
 10
110.129792
 20
10.922680
 30
0.0
 10
112.347216
 20
8.507304
 30
0.0
 10
114.815672
 20
6.445432
 30
0.0
 10
117.743112
 20
4.699016
 30
0.0
 10
121.263440
 20
3.214224
 30
0.0
 10
125.222696
 20
2.016624
 30
0.0
 10
129.466904
 20
1.131784
 30
0.0
 10
133.842104
 20
0.585280
 30
0.0
 10
138.194344
 20
0.402664
 30
0.0
 10
142.369640
 20
0.609512
 30
0.0
 10
146.214272
 20
1.231384
 30
0.0
  0
ENDSEC
  0
SECTION
  2
OBJECTS
  0
DICTIONARY
  5
C
330
0
100
AcDbDictionary
  3
ACAD_GROUP
350
D
  3
ACAD_MLINESTYLE
350
17
  0
DICTIONARY
  5
D
330
C
100
AcDbDictionary
  0
DICTIONARY
  5
1A
330
C
100
AcDbDictionary
  0
DICTIONARY
  5
17
330
C
100
AcDbDictionary
  3
STANDARD
350
18
  0
DICTIONARY
  5
19
330
C
100
AcDbDictionary
  0
ENDSEC
  0
EOF
