999
Inkscape export via "Better Better DXF Output" (http://tim.cexx.org/?p=590)
  0
SECTION
  2
HEADER
  9
$ACADVER
  1
AC1014
  9
$HANDSEED
  5
FFFF
  0
ENDSEC
  0
SECTION
  2
TABLES
  0
TABLE
  2
VPORT
  5
8
330
0
100
AcDbSymbolTable
 70
     4
  0
VPORT
  5
2E
330
8
100
AcDbSymbolTableRecord
100
AcDbViewportTableRecord
  2
*ACTIVE
 70
     0
 10
0.0
 20
0.0
 11
1.0
 21
1.0
 12
4.25
 22
5.5
 13
0.0
 23
0.0
 14
10.0
 24
10.0
 15
10.0
 25
10.0
 16
0.0
 26
0.0
 36
1.0
 17
0.0
 27
0.0
 37
0.0
 40
11
 41
1.24
 42
50.0
 43
0.0
 44
0.0
 50
0.0
 51
0.0
 71
     0
 72
   100
 73
     1
 74
     3
 75
     0
 76
     0
 77
     0
 78
     0
  0
ENDTAB
  0
TABLE
  2
LTYPE
  5
5
330
0
100
AcDbSymbolTable
 70
     1
  0
LTYPE
  5
14
330
5
100
AcDbSymbolTableRecord
100
AcDbLinetypeTableRecord
  2
BYBLOCK
 70
     0
  3

 72
    65
 73
     0
 40
0.0
  0
LTYPE
  5
15
330
5
100
AcDbSymbolTableRecord
100
AcDbLinetypeTableRecord
  2
BYLAYER
 70
     0
  3

 72
    65
 73
     0
 40
0.0
  0
LTYPE
  5
16
330
5
100
AcDbSymbolTableRecord
100
AcDbLinetypeTableRecord
  2
CONTINUOUS
 70
     0
  3
Solid line
 72
    65
 73
     0
 40
0.0
  0
ENDTAB
  0
TABLE
  2
STYLE
  5
3
330
0
100
AcDbSymbolTable
 70
     1
  0
STYLE
  5
11
330
3
100
AcDbSymbolTableRecord
100
AcDbTextStyleTableRecord
  2
STANDARD
 70
     0
 40
0.0
 41
1.0
 50
0.0
 71
     0
 42
2.5
  3
txt
  4

  0
ENDTAB
  0
TABLE
  2
VIEW
  5
6
330
0
100
AcDbSymbolTable
 70
     0
  0
ENDTAB
  0
TABLE
  2
UCS
  5
7
330
0
100
AcDbSymbolTable
 70
     0
  0
ENDTAB
  0
TABLE
  2
APPID
  5
9
330
0
100
AcDbSymbolTable
 70
     2
  0
APPID
  5
12
330
9
100
AcDbSymbolTableRecord
100
AcDbRegAppTableRecord
  2
ACAD
 70
     0
  0
ENDTAB
  0
TABLE
  2
DIMSTYLE
  5
A
330
0
100
AcDbSymbolTable
 70
     1
  0
DIMSTYLE
105
27
330
A
100
AcDbSymbolTableRecord
100
AcDbDimStyleTableRecord
  2
ISO-25
 70
     0
  3

  4

  5

  6

  7

 40
1.0
 41
2.5
 42
0.625
 43
3.75
 44
1.25
 45
0.0
 46
0.0
 47
0.0
 48
0.0
140
2.5
141
2.5
142
0.0
143
0.03937007874016
144
1.0
145
0.0
146
1.0
147
0.625
 71
     0
 72
     0
 73
     0
 74
     0
 75
     0
 76
     0
 77
     1
 78
     8
170
     0
171
     3
172
     1
173
     0
174
     0
175
     0
176
     0
177
     0
178
     0
270
     2
271
     2
272
     2
273
     2
274
     3
340
11
275
     0
280
     0
281
     0
282
     0
283
     0
284
     8
285
     0
286
     0
287
     3
288
     0
  0
ENDTAB
  0
TABLE
  2
BLOCK_RECORD
  5
1
330
0
100
AcDbSymbolTable
 70
     1
  0
BLOCK_RECORD
  5
1F
330
1
100
AcDbSymbolTableRecord
100
AcDbBlockTableRecord
  2
*MODEL_SPACE
  0
BLOCK_RECORD
  5
1B
330
1
100
AcDbSymbolTableRecord
100
AcDbBlockTableRecord
  2
*PAPER_SPACE
  0
ENDTAB
0
TABLE
2
LAYER
5
2
330
0
100
AcDbSymbolTable
70
1
0
LAYER
5
10
330
2
100
AcDbSymbolTableRecord
100
AcDbLayerTableRecord
2
Layer 1
70
0
62
7
6
CONTINUOUS
0
ENDTAB
0
ENDSEC
  0
SECTION
  2
BLOCKS
  0
BLOCK
  5
20
330
1F
100
AcDbEntity
  8
0
100
AcDbBlockBegin
  2
*MODEL_SPACE
 70
     0
 10
0.0
 20
0.0
 30
0.0
  3
*MODEL_SPACE
  1

  0
ENDBLK
  5
21
330
1F
100
AcDbEntity
  8
0
100
AcDbBlockEnd
  0
BLOCK
  5
1C
330
1B
100
AcDbEntity
 67
     1
  8
0
100
AcDbBlockBegin
  2
*PAPER_SPACE
  1

  0
ENDBLK
  5
1D
330
1B
100
AcDbEntity
 67
     1
  8
0
100
AcDbBlockEnd
  0
ENDSEC
  0
SECTION
  2
ENTITIES
0
LINE
8
Layer 1
62
4
5
100
100
AcDbEntity
100
AcDbLine
10
90.358197
20
71.831212
30
0.0
11
89.281496
21
71.728401
31
0.0
0
LINE
8
Layer 1
62
4
5
101
100
AcDbEntity
100
AcDbLine
10
89.281496
20
71.728401
30
0.0
11
87.959308
21
71.328503
31
0.0
0
LINE
8
Layer 1
62
4
5
102
100
AcDbEntity
100
AcDbLine
10
87.959308
20
71.328503
30
0.0
11
84.851689
21
70.334505
31
0.0
0
LINE
8
Layer 1
62
4
5
103
100
AcDbEntity
100
AcDbLine
10
84.851689
20
70.334505
30
0.0
11
82.112103
21
69.803349
31
0.0
0
LINE
8
Layer 1
62
4
5
104
100
AcDbEntity
100
AcDbLine
10
82.112103
20
69.803349
30
0.0
11
78.532421
21
69.593798
31
0.0
0
LINE
8
Layer 1
62
4
5
105
100
AcDbEntity
100
AcDbLine
10
78.532421
20
69.593798
30
0.0
11
72.904516
21
69.564614
31
0.0
0
LINE
8
Layer 1
62
4
5
106
100
AcDbEntity
100
AcDbLine
10
72.904516
20
69.564614
30
0.0
11
66.125814
21
69.675422
31
0.0
0
LINE
8
Layer 1
62
4
5
107
100
AcDbEntity
100
AcDbLine
10
66.125814
20
69.675422
30
0.0
11
62.815072
21
69.935031
31
0.0
0
LINE
8
Layer 1
62
4
5
108
100
AcDbEntity
100
AcDbLine
10
62.815072
20
69.935031
30
0.0
11
61.626516
21
70.159154
31
0.0
0
LINE
8
Layer 1
62
4
5
109
100
AcDbEntity
100
AcDbLine
10
61.626516
20
70.159154
30
0.0
11
60.112297
21
70.278272
31
0.0
0
LINE
8
Layer 1
62
4
5
10a
100
AcDbEntity
100
AcDbLine
10
60.112297
20
70.278272
30
0.0
11
56.563615
21
70.229887
31
0.0
0
LINE
8
Layer 1
62
4
5
10b
100
AcDbEntity
100
AcDbLine
10
56.563615
20
70.229887
30
0.0
11
53.082520
21
69.846661
31
0.0
0
LINE
8
Layer 1
62
4
5
10c
100
AcDbEntity
100
AcDbLine
10
53.082520
20
69.846661
30
0.0
11
51.652783
21
69.547227
31
0.0
0
LINE
8
Layer 1
62
4
5
10d
100
AcDbEntity
100
AcDbLine
10
51.652783
20
69.547227
30
0.0
11
50.582502
21
69.185378
31
0.0
0
LINE
8
Layer 1
62
4
5
10e
100
AcDbEntity
100
AcDbLine
10
50.582502
20
69.185378
30
0.0
11
48.639875
21
68.447071
31
0.0
0
LINE
8
Layer 1
62
4
5
10f
100
AcDbEntity
100
AcDbLine
10
48.639875
20
68.447071
30
0.0
11
46.181687
21
67.738688
31
0.0
0
LINE
8
Layer 1
62
4
5
110
100
AcDbEntity
100
AcDbLine
10
46.181687
20
67.738688
30
0.0
11
43.483126
21
67.129674
31
0.0
0
LINE
8
Layer 1
62
4
5
111
100
AcDbEntity
100
AcDbLine
10
43.483126
20
67.129674
30
0.0
11
40.819377
21
66.689475
31
0.0
0
LINE
8
Layer 1
62
4
5
112
100
AcDbEntity
100
AcDbLine
10
40.819377
20
66.689475
30
0.0
11
38.214240
21
66.384522
31
0.0
0
LINE
8
Layer 1
62
4
5
113
100
AcDbEntity
100
AcDbLine
10
38.214240
20
66.384522
30
0.0
11
36.442832
21
66.334580
31
0.0
0
LINE
8
Layer 1
62
4
5
114
100
AcDbEntity
100
AcDbLine
10
36.442832
20
66.334580
30
0.0
11
35.921690
21
66.448523
31
0.0
0
LINE
8
Layer 1
62
4
5
115
100
AcDbEntity
100
AcDbLine
10
35.921690
20
66.448523
30
0.0
11
35.671276
21
66.678161
31
0.0
0
LINE
8
Layer 1
62
4
5
116
100
AcDbEntity
100
AcDbLine
10
35.671276
20
66.678161
30
0.0
11
35.712357
21
67.040809
31
0.0
0
LINE
8
Layer 1
62
4
5
117
100
AcDbEntity
100
AcDbLine
10
35.712357
20
67.040809
30
0.0
11
36.065697
21
67.553781
31
0.0
0
LINE
8
Layer 1
62
4
5
118
100
AcDbEntity
100
AcDbLine
10
36.065697
20
67.553781
30
0.0
11
36.237439
21
67.847351
31
0.0
0
LINE
8
Layer 1
62
4
5
119
100
AcDbEntity
100
AcDbLine
10
36.237439
20
67.847351
30
0.0
11
36.243838
21
68.123110
31
0.0
0
LINE
8
Layer 1
62
4
5
11a
100
AcDbEntity
100
AcDbLine
10
36.243838
20
68.123110
30
0.0
11
35.840703
21
68.594897
31
0.0
0
LINE
8
Layer 1
62
4
5
11b
100
AcDbEntity
100
AcDbLine
10
35.840703
20
68.594897
30
0.0
11
35.016488
21
68.916543
31
0.0
0
LINE
8
Layer 1
62
4
5
11c
100
AcDbEntity
100
AcDbLine
10
35.016488
20
68.916543
30
0.0
11
33.931391
21
69.035448
31
0.0
0
LINE
8
Layer 1
62
4
5
11d
100
AcDbEntity
100
AcDbLine
10
33.931391
20
69.035448
30
0.0
11
32.598279
21
68.849261
31
0.0
0
LINE
8
Layer 1
62
4
5
11e
100
AcDbEntity
100
AcDbLine
10
32.598279
20
68.849261
30
0.0
11
31.409030
21
68.241698
31
0.0
0
LINE
8
Layer 1
62
4
5
11f
100
AcDbEntity
100
AcDbLine
10
31.409030
20
68.241698
30
0.0
11
30.560229
21
67.686422
31
0.0
0
LINE
8
Layer 1
62
4
5
120
100
AcDbEntity
100
AcDbLine
10
30.560229
20
67.686422
30
0.0
11
29.927870
21
67.504649
31
0.0
0
LINE
8
Layer 1
62
4
5
121
100
AcDbEntity
100
AcDbLine
10
29.927870
20
67.504649
30
0.0
11
29.242341
21
67.700219
31
0.0
0
LINE
8
Layer 1
62
4
5
122
100
AcDbEntity
100
AcDbLine
10
29.242341
20
67.700219
30
0.0
11
28.234030
21
68.276975
31
0.0
0
LINE
8
Layer 1
62
4
5
123
100
AcDbEntity
100
AcDbLine
10
28.234030
20
68.276975
30
0.0
11
27.387860
21
68.751847
31
0.0
0
LINE
8
Layer 1
62
4
5
124
100
AcDbEntity
100
AcDbLine
10
27.387860
20
68.751847
30
0.0
11
26.586061
21
68.966276
31
0.0
0
LINE
8
Layer 1
62
4
5
125
100
AcDbEntity
100
AcDbLine
10
26.586061
20
68.966276
30
0.0
11
23.321599
21
68.806142
31
0.0
0
LINE
8
Layer 1
62
4
5
126
100
AcDbEntity
100
AcDbLine
10
23.321599
20
68.806142
30
0.0
11
19.975556
21
68.656814
31
0.0
0
LINE
8
Layer 1
62
4
5
127
100
AcDbEntity
100
AcDbLine
10
19.975556
20
68.656814
30
0.0
11
17.147988
21
68.938434
31
0.0
0
LINE
8
Layer 1
62
4
5
128
100
AcDbEntity
100
AcDbLine
10
17.147988
20
68.938434
30
0.0
11
15.084042
21
69.113560
31
0.0
0
LINE
8
Layer 1
62
4
5
129
100
AcDbEntity
100
AcDbLine
10
15.084042
20
69.113560
30
0.0
11
13.849516
21
69.211837
31
0.0
0
LINE
8
Layer 1
62
4
5
12a
100
AcDbEntity
100
AcDbLine
10
13.849516
20
69.211837
30
0.0
11
12.424360
21
69.605993
31
0.0
0
LINE
8
Layer 1
62
4
5
12b
100
AcDbEntity
100
AcDbLine
10
12.424360
20
69.605993
30
0.0
11
12.037915
21
69.555507
31
0.0
0
LINE
8
Layer 1
62
4
5
12c
100
AcDbEntity
100
AcDbLine
10
12.037915
20
69.555507
30
0.0
11
11.893500
21
69.349785
31
0.0
0
LINE
8
Layer 1
62
4
5
12d
100
AcDbEntity
100
AcDbLine
10
11.893500
20
69.349785
30
0.0
11
12.009572
21
68.996181
31
0.0
0
LINE
8
Layer 1
62
4
5
12e
100
AcDbEntity
100
AcDbLine
10
12.009572
20
68.996181
30
0.0
11
12.404588
21
68.502051
31
0.0
0
LINE
8
Layer 1
62
4
5
12f
100
AcDbEntity
100
AcDbLine
10
12.404588
20
68.502051
30
0.0
11
14.105280
21
67.121628
31
0.0
0
LINE
8
Layer 1
62
4
5
130
100
AcDbEntity
100
AcDbLine
10
14.105280
20
67.121628
30
0.0
11
15.011383
21
66.715983
31
0.0
0
LINE
8
Layer 1
62
4
5
131
100
AcDbEntity
100
AcDbLine
10
15.011383
20
66.715983
30
0.0
11
16.320874
21
66.305629
31
0.0
0
LINE
8
Layer 1
62
4
5
132
100
AcDbEntity
100
AcDbLine
10
16.320874
20
66.305629
30
0.0
11
18.109308
21
65.860448
31
0.0
0
LINE
8
Layer 1
62
4
5
133
100
AcDbEntity
100
AcDbLine
10
18.109308
20
65.860448
30
0.0
11
19.211738
21
65.331281
31
0.0
0
LINE
8
Layer 1
62
4
5
134
100
AcDbEntity
100
AcDbLine
10
19.211738
20
65.331281
30
0.0
11
19.294886
21
65.181947
31
0.0
0
LINE
8
Layer 1
62
4
5
135
100
AcDbEntity
100
AcDbLine
10
19.294886
20
65.181947
30
0.0
11
19.218185
21
65.156799
31
0.0
0
LINE
8
Layer 1
62
4
5
136
100
AcDbEntity
100
AcDbLine
10
19.218185
20
65.156799
30
0.0
11
18.744308
21
65.181350
31
0.0
0
LINE
8
Layer 1
62
4
5
137
100
AcDbEntity
100
AcDbLine
10
18.744308
20
65.181350
30
0.0
11
16.276949
21
65.237729
31
0.0
0
LINE
8
Layer 1
62
4
5
138
100
AcDbEntity
100
AcDbLine
10
16.276949
20
65.237729
30
0.0
11
14.988229
21
65.422832
31
0.0
0
LINE
8
Layer 1
62
4
5
139
100
AcDbEntity
100
AcDbLine
10
14.988229
20
65.422832
30
0.0
11
14.193474
21
65.684059
31
0.0
0
LINE
8
Layer 1
62
4
5
13a
100
AcDbEntity
100
AcDbLine
10
14.193474
20
65.684059
30
0.0
11
12.780141
21
66.519940
31
0.0
0
LINE
8
Layer 1
62
4
5
13b
100
AcDbEntity
100
AcDbLine
10
12.780141
20
66.519940
30
0.0
11
12.313616
21
66.657439
31
0.0
0
LINE
8
Layer 1
62
4
5
13c
100
AcDbEntity
100
AcDbLine
10
12.313616
20
66.657439
30
0.0
11
12.021695
21
66.604643
31
0.0
0
LINE
8
Layer 1
62
4
5
13d
100
AcDbEntity
100
AcDbLine
10
12.021695
20
66.604643
30
0.0
11
11.915256
21
66.359052
31
0.0
0
LINE
8
Layer 1
62
4
5
13e
100
AcDbEntity
100
AcDbLine
10
11.915256
20
66.359052
30
0.0
11
12.005180
21
65.918168
31
0.0
0
LINE
8
Layer 1
62
4
5
13f
100
AcDbEntity
100
AcDbLine
10
12.005180
20
65.918168
30
0.0
11
12.817641
21
64.440517
31
0.0
0
LINE
8
Layer 1
62
4
5
140
100
AcDbEntity
100
AcDbLine
10
12.817641
20
64.440517
30
0.0
11
15.333809
21
63.079972
31
0.0
0
LINE
8
Layer 1
62
4
5
141
100
AcDbEntity
100
AcDbLine
10
15.333809
20
63.079972
30
0.0
11
16.804542
21
62.557190
31
0.0
0
LINE
8
Layer 1
62
4
5
142
100
AcDbEntity
100
AcDbLine
10
16.804542
20
62.557190
30
0.0
11
18.479724
21
62.191559
31
0.0
0
LINE
8
Layer 1
62
4
5
143
100
AcDbEntity
100
AcDbLine
10
18.479724
20
62.191559
30
0.0
11
18.373891
21
59.845587
31
0.0
0
LINE
8
Layer 1
62
4
5
144
100
AcDbEntity
100
AcDbLine
10
18.373891
20
59.845587
30
0.0
11
18.156274
21
57.988515
31
0.0
0
LINE
8
Layer 1
62
4
5
145
100
AcDbEntity
100
AcDbLine
10
18.156274
20
57.988515
30
0.0
11
17.699232
21
55.927098
31
0.0
0
LINE
8
Layer 1
62
4
5
146
100
AcDbEntity
100
AcDbLine
10
17.699232
20
55.927098
30
0.0
11
17.061378
21
53.882442
31
0.0
0
LINE
8
Layer 1
62
4
5
147
100
AcDbEntity
100
AcDbLine
10
17.061378
20
53.882442
30
0.0
11
16.301322
21
52.075656
31
0.0
0
LINE
8
Layer 1
62
4
5
148
100
AcDbEntity
100
AcDbLine
10
16.301322
20
52.075656
30
0.0
11
15.773990
21
50.660764
31
0.0
0
LINE
8
Layer 1
62
4
5
149
100
AcDbEntity
100
AcDbLine
10
15.773990
20
50.660764
30
0.0
11
15.282716
21
48.809084
31
0.0
0
LINE
8
Layer 1
62
4
5
14a
100
AcDbEntity
100
AcDbLine
10
15.282716
20
48.809084
30
0.0
11
14.952376
21
47.067131
31
0.0
0
LINE
8
Layer 1
62
4
5
14b
100
AcDbEntity
100
AcDbLine
10
14.952376
20
47.067131
30
0.0
11
14.907849
21
45.981420
31
0.0
0
LINE
8
Layer 1
62
4
5
14c
100
AcDbEntity
100
AcDbLine
10
14.907849
20
45.981420
30
0.0
11
15.199136
21
45.186668
31
0.0
0
LINE
8
Layer 1
62
4
5
14d
100
AcDbEntity
100
AcDbLine
10
15.199136
20
45.186668
30
0.0
11
15.659834
21
44.463710
31
0.0
0
LINE
8
Layer 1
62
4
5
14e
100
AcDbEntity
100
AcDbLine
10
15.659834
20
44.463710
30
0.0
11
16.274182
21
43.822149
31
0.0
0
LINE
8
Layer 1
62
4
5
14f
100
AcDbEntity
100
AcDbLine
10
16.274182
20
43.822149
30
0.0
11
17.026423
21
43.271588
31
0.0
0
LINE
8
Layer 1
62
4
5
150
100
AcDbEntity
100
AcDbLine
10
17.026423
20
43.271588
30
0.0
11
18.881538
21
42.481882
31
0.0
0
LINE
8
Layer 1
62
4
5
151
100
AcDbEntity
100
AcDbLine
10
18.881538
20
42.481882
30
0.0
11
21.099099
21
42.171420
31
0.0
0
LINE
8
Layer 1
62
4
5
152
100
AcDbEntity
100
AcDbLine
10
21.099099
20
42.171420
30
0.0
11
22.349269
21
42.243441
31
0.0
0
LINE
8
Layer 1
62
4
5
153
100
AcDbEntity
100
AcDbLine
10
22.349269
20
42.243441
30
0.0
11
23.283388
21
42.595288
31
0.0
0
LINE
8
Layer 1
62
4
5
154
100
AcDbEntity
100
AcDbLine
10
23.283388
20
42.595288
30
0.0
11
24.088888
21
43.345948
31
0.0
0
LINE
8
Layer 1
62
4
5
155
100
AcDbEntity
100
AcDbLine
10
24.088888
20
43.345948
30
0.0
11
24.953197
21
44.614406
31
0.0
0
LINE
8
Layer 1
62
4
5
156
100
AcDbEntity
100
AcDbLine
10
24.953197
20
44.614406
30
0.0
11
25.733722
21
45.632379
31
0.0
0
LINE
8
Layer 1
62
4
5
157
100
AcDbEntity
100
AcDbLine
10
25.733722
20
45.632379
30
0.0
11
26.660209
21
46.404258
31
0.0
0
LINE
8
Layer 1
62
4
5
158
100
AcDbEntity
100
AcDbLine
10
26.660209
20
46.404258
30
0.0
11
27.676870
21
46.894162
31
0.0
0
LINE
8
Layer 1
62
4
5
159
100
AcDbEntity
100
AcDbLine
10
27.676870
20
46.894162
30
0.0
11
28.727919
21
47.066212
31
0.0
0
LINE
8
Layer 1
62
4
5
15a
100
AcDbEntity
100
AcDbLine
10
28.727919
20
47.066212
30
0.0
11
29.819430
21
47.254138
31
0.0
0
LINE
8
Layer 1
62
4
5
15b
100
AcDbEntity
100
AcDbLine
10
29.819430
20
47.254138
30
0.0
11
30.932780
21
47.701212
31
0.0
0
LINE
8
Layer 1
62
4
5
15c
100
AcDbEntity
100
AcDbLine
10
30.932780
20
47.701212
30
0.0
11
32.061669
21
48.327392
31
0.0
0
LINE
8
Layer 1
62
4
5
15d
100
AcDbEntity
100
AcDbLine
10
32.061669
20
48.327392
30
0.0
11
33.675627
21
47.507184
31
0.0
0
LINE
8
Layer 1
62
4
5
15e
100
AcDbEntity
100
AcDbLine
10
33.675627
20
47.507184
30
0.0
11
36.250905
21
46.157809
31
0.0
0
LINE
8
Layer 1
62
4
5
15f
100
AcDbEntity
100
AcDbLine
10
36.250905
20
46.157809
30
0.0
11
37.472963
21
45.087532
31
0.0
0
LINE
8
Layer 1
62
4
5
160
100
AcDbEntity
100
AcDbLine
10
37.472963
20
45.087532
30
0.0
11
39.064308
21
43.247392
31
0.0
0
LINE
8
Layer 1
62
4
5
161
100
AcDbEntity
100
AcDbLine
10
39.064308
20
43.247392
30
0.0
11
42.345141
21
39.111073
31
0.0
0
LINE
8
Layer 1
62
4
5
162
100
AcDbEntity
100
AcDbLine
10
42.345141
20
39.111073
30
0.0
11
43.738471
21
37.238935
31
0.0
0
LINE
8
Layer 1
62
4
5
163
100
AcDbEntity
100
AcDbLine
10
43.738471
20
37.238935
30
0.0
11
45.067086
21
35.190841
31
0.0
0
LINE
8
Layer 1
62
4
5
164
100
AcDbEntity
100
AcDbLine
10
45.067086
20
35.190841
30
0.0
11
46.062194
21
33.409529
31
0.0
0
LINE
8
Layer 1
62
4
5
165
100
AcDbEntity
100
AcDbLine
10
46.062194
20
33.409529
30
0.0
11
46.455002
21
32.337739
31
0.0
0
LINE
8
Layer 1
62
4
5
166
100
AcDbEntity
100
AcDbLine
10
46.455002
20
32.337739
30
0.0
11
46.650447
21
31.661656
31
0.0
0
LINE
8
Layer 1
62
4
5
167
100
AcDbEntity
100
AcDbLine
10
46.650447
20
31.661656
30
0.0
11
47.116460
21
30.838434
31
0.0
0
LINE
8
Layer 1
62
4
5
168
100
AcDbEntity
100
AcDbLine
10
47.116460
20
30.838434
30
0.0
11
47.479016
21
30.281061
31
0.0
0
LINE
8
Layer 1
62
4
5
169
100
AcDbEntity
100
AcDbLine
10
47.479016
20
30.281061
30
0.0
11
47.616736
21
29.810269
31
0.0
0
LINE
8
Layer 1
62
4
5
16a
100
AcDbEntity
100
AcDbLine
10
47.616736
20
29.810269
30
0.0
11
47.275210
21
28.227878
31
0.0
0
LINE
8
Layer 1
62
4
5
16b
100
AcDbEntity
100
AcDbLine
10
47.275210
20
28.227878
30
0.0
11
46.587294
21
24.788295
31
0.0
0
LINE
8
Layer 1
62
4
5
16c
100
AcDbEntity
100
AcDbLine
10
46.587294
20
24.788295
30
0.0
11
46.381746
21
23.519500
31
0.0
0
LINE
8
Layer 1
62
4
5
16d
100
AcDbEntity
100
AcDbLine
10
46.381746
20
23.519500
30
0.0
11
46.022157
21
22.517138
31
0.0
0
LINE
8
Layer 1
62
4
5
16e
100
AcDbEntity
100
AcDbLine
10
46.022157
20
22.517138
30
0.0
11
45.396127
21
21.552334
31
0.0
0
LINE
8
Layer 1
62
4
5
16f
100
AcDbEntity
100
AcDbLine
10
45.396127
20
21.552334
30
0.0
11
44.391252
21
20.396212
31
0.0
0
LINE
8
Layer 1
62
4
5
170
100
AcDbEntity
100
AcDbLine
10
44.391252
20
20.396212
30
0.0
11
41.583677
21
17.103066
31
0.0
0
LINE
8
Layer 1
62
4
5
171
100
AcDbEntity
100
AcDbLine
10
41.583677
20
17.103066
30
0.0
11
40.681829
21
15.854088
31
0.0
0
LINE
8
Layer 1
62
4
5
172
100
AcDbEntity
100
AcDbLine
10
40.681829
20
15.854088
30
0.0
11
40.343127
21
15.166281
31
0.0
0
LINE
8
Layer 1
62
4
5
173
100
AcDbEntity
100
AcDbLine
10
40.343127
20
15.166281
30
0.0
11
40.535424
21
14.488856
31
0.0
0
LINE
8
Layer 1
62
4
5
174
100
AcDbEntity
100
AcDbLine
10
40.535424
20
14.488856
30
0.0
11
41.163335
21
13.552323
31
0.0
0
LINE
8
Layer 1
62
4
5
175
100
AcDbEntity
100
AcDbLine
10
41.163335
20
13.552323
30
0.0
11
42.450974
21
12.591003
31
0.0
0
LINE
8
Layer 1
62
4
5
176
100
AcDbEntity
100
AcDbLine
10
42.450974
20
12.591003
30
0.0
11
44.902780
21
12.793850
31
0.0
0
LINE
8
Layer 1
62
4
5
177
100
AcDbEntity
100
AcDbLine
10
44.902780
20
12.793850
30
0.0
11
46.789407
21
13.010862
31
0.0
0
LINE
8
Layer 1
62
4
5
178
100
AcDbEntity
100
AcDbLine
10
46.789407
20
13.010862
30
0.0
11
47.892572
21
13.261281
31
0.0
0
LINE
8
Layer 1
62
4
5
179
100
AcDbEntity
100
AcDbLine
10
47.892572
20
13.261281
30
0.0
11
49.656460
21
14.152045
31
0.0
0
LINE
8
Layer 1
62
4
5
17a
100
AcDbEntity
100
AcDbLine
10
49.656460
20
14.152045
30
0.0
11
50.611592
21
14.782983
31
0.0
0
LINE
8
Layer 1
62
4
5
17b
100
AcDbEntity
100
AcDbLine
10
50.611592
20
14.782983
30
0.0
11
51.234064
21
15.497250
31
0.0
0
LINE
8
Layer 1
62
4
5
17c
100
AcDbEntity
100
AcDbLine
10
51.234064
20
15.497250
30
0.0
11
51.451380
21
16.176119
31
0.0
0
LINE
8
Layer 1
62
4
5
17d
100
AcDbEntity
100
AcDbLine
10
51.451380
20
16.176119
30
0.0
11
51.191044
21
16.700864
31
0.0
0
LINE
8
Layer 1
62
4
5
17e
100
AcDbEntity
100
AcDbLine
10
51.191044
20
16.700864
30
0.0
11
50.858650
21
17.029308
31
0.0
0
LINE
8
Layer 1
62
4
5
17f
100
AcDbEntity
100
AcDbLine
10
50.858650
20
17.029308
30
0.0
11
50.768936
21
17.355793
31
0.0
0
LINE
8
Layer 1
62
4
5
180
100
AcDbEntity
100
AcDbLine
10
50.768936
20
17.355793
30
0.0
11
50.929963
21
17.747280
31
0.0
0
LINE
8
Layer 1
62
4
5
181
100
AcDbEntity
100
AcDbLine
10
50.929963
20
17.747280
30
0.0
11
51.349794
21
18.270725
31
0.0
0
LINE
8
Layer 1
62
4
5
182
100
AcDbEntity
100
AcDbLine
10
51.349794
20
18.270725
30
0.0
11
51.675775
21
18.757457
31
0.0
0
LINE
8
Layer 1
62
4
5
183
100
AcDbEntity
100
AcDbLine
10
51.675775
20
18.757457
30
0.0
11
51.879253
21
19.497845
31
0.0
0
LINE
8
Layer 1
62
4
5
184
100
AcDbEntity
100
AcDbLine
10
51.879253
20
19.497845
30
0.0
11
52.072988
21
22.742184
31
0.0
0
LINE
8
Layer 1
62
4
5
185
100
AcDbEntity
100
AcDbLine
10
52.072988
20
22.742184
30
0.0
11
52.201046
21
25.267161
31
0.0
0
LINE
8
Layer 1
62
4
5
186
100
AcDbEntity
100
AcDbLine
10
52.201046
20
25.267161
30
0.0
11
52.488440
21
26.970162
31
0.0
0
LINE
8
Layer 1
62
4
5
187
100
AcDbEntity
100
AcDbLine
10
52.488440
20
26.970162
30
0.0
11
53.028924
21
28.177542
31
0.0
0
LINE
8
Layer 1
62
4
5
188
100
AcDbEntity
100
AcDbLine
10
53.028924
20
28.177542
30
0.0
11
53.916252
21
29.215656
31
0.0
0
LINE
8
Layer 1
62
4
5
189
100
AcDbEntity
100
AcDbLine
10
53.916252
20
29.215656
30
0.0
11
54.798197
21
29.859475
31
0.0
0
LINE
8
Layer 1
62
4
5
18a
100
AcDbEntity
100
AcDbLine
10
54.798197
20
29.859475
30
0.0
11
55.824880
21
28.026527
31
0.0
0
LINE
8
Layer 1
62
4
5
18b
100
AcDbEntity
100
AcDbLine
10
55.824880
20
28.026527
30
0.0
11
56.580020
21
25.911561
31
0.0
0
LINE
8
Layer 1
62
4
5
18c
100
AcDbEntity
100
AcDbLine
10
56.580020
20
25.911561
30
0.0
11
57.019717
21
23.671524
31
0.0
0
LINE
8
Layer 1
62
4
5
18d
100
AcDbEntity
100
AcDbLine
10
57.019717
20
23.671524
30
0.0
11
57.100072
21
21.463364
31
0.0
0
LINE
8
Layer 1
62
4
5
18e
100
AcDbEntity
100
AcDbLine
10
57.100072
20
21.463364
30
0.0
11
56.875150
21
19.567181
31
0.0
0
LINE
8
Layer 1
62
4
5
18f
100
AcDbEntity
100
AcDbLine
10
56.875150
20
19.567181
30
0.0
11
56.370225
21
17.979769
31
0.0
0
LINE
8
Layer 1
62
4
5
190
100
AcDbEntity
100
AcDbLine
10
56.370225
20
17.979769
30
0.0
11
55.502619
21
16.515786
31
0.0
0
LINE
8
Layer 1
62
4
5
191
100
AcDbEntity
100
AcDbLine
10
55.502619
20
16.515786
30
0.0
11
54.189655
21
14.989892
31
0.0
0
LINE
8
Layer 1
62
4
5
192
100
AcDbEntity
100
AcDbLine
10
54.189655
20
14.989892
30
0.0
11
52.846228
21
13.380167
31
0.0
0
LINE
8
Layer 1
62
4
5
193
100
AcDbEntity
100
AcDbLine
10
52.846228
20
13.380167
30
0.0
11
52.620922
21
12.761170
31
0.0
0
LINE
8
Layer 1
62
4
5
194
100
AcDbEntity
100
AcDbLine
10
52.620922
20
12.761170
30
0.0
11
52.566877
21
12.035378
31
0.0
0
LINE
8
Layer 1
62
4
5
195
100
AcDbEntity
100
AcDbLine
10
52.566877
20
12.035378
30
0.0
11
52.711250
21
10.941047
31
0.0
0
LINE
8
Layer 1
62
4
5
196
100
AcDbEntity
100
AcDbLine
10
52.711250
20
10.941047
30
0.0
11
52.950058
21
10.662658
31
0.0
0
LINE
8
Layer 1
62
4
5
197
100
AcDbEntity
100
AcDbLine
10
52.950058
20
10.662658
30
0.0
11
53.351808
21
10.456698
31
0.0
0
LINE
8
Layer 1
62
4
5
198
100
AcDbEntity
100
AcDbLine
10
53.351808
20
10.456698
30
0.0
11
54.710223
21
10.228686
31
0.0
0
LINE
8
Layer 1
62
4
5
199
100
AcDbEntity
100
AcDbLine
10
54.710223
20
10.228686
30
0.0
11
56.692942
21
10.185653
31
0.0
0
LINE
8
Layer 1
62
4
5
19a
100
AcDbEntity
100
AcDbLine
10
56.692942
20
10.185653
30
0.0
11
58.625666
21
10.313419
31
0.0
0
LINE
8
Layer 1
62
4
5
19b
100
AcDbEntity
100
AcDbLine
10
58.625666
20
10.313419
30
0.0
11
59.834099
21
10.597809
31
0.0
0
LINE
8
Layer 1
62
4
5
19c
100
AcDbEntity
100
AcDbLine
10
59.834099
20
10.597809
30
0.0
11
61.077641
21
11.523850
31
0.0
0
LINE
8
Layer 1
62
4
5
19d
100
AcDbEntity
100
AcDbLine
10
61.077641
20
11.523850
30
0.0
11
61.933127
21
12.053017
31
0.0
0
LINE
8
Layer 1
62
4
5
19e
100
AcDbEntity
100
AcDbLine
10
61.933127
20
12.053017
30
0.0
11
62.432483
21
12.361256
31
0.0
0
LINE
8
Layer 1
62
4
5
19f
100
AcDbEntity
100
AcDbLine
10
62.432483
20
12.361256
30
0.0
11
63.211947
21
13.102531
31
0.0
0
LINE
8
Layer 1
62
4
5
1a0
100
AcDbEntity
100
AcDbLine
10
63.211947
20
13.102531
30
0.0
11
63.975552
21
14.070644
31
0.0
0
LINE
8
Layer 1
62
4
5
1a1
100
AcDbEntity
100
AcDbLine
10
63.975552
20
14.070644
30
0.0
11
64.323180
21
15.038534
31
0.0
0
LINE
8
Layer 1
62
4
5
1a2
100
AcDbEntity
100
AcDbLine
10
64.323180
20
15.038534
30
0.0
11
64.212205
21
16.187155
31
0.0
0
LINE
8
Layer 1
62
4
5
1a3
100
AcDbEntity
100
AcDbLine
10
64.212205
20
16.187155
30
0.0
11
63.600002
21
17.697462
31
0.0
0
LINE
8
Layer 1
62
4
5
1a4
100
AcDbEntity
100
AcDbLine
10
63.600002
20
17.697462
30
0.0
11
62.488752
21
19.426073
31
0.0
0
LINE
8
Layer 1
62
4
5
1a5
100
AcDbEntity
100
AcDbLine
10
62.488752
20
19.426073
30
0.0
11
62.380265
21
20.147316
31
0.0
0
LINE
8
Layer 1
62
4
5
1a6
100
AcDbEntity
100
AcDbLine
10
62.380265
20
20.147316
30
0.0
11
62.411932
21
21.074091
31
0.0
0
LINE
8
Layer 1
62
4
5
1a7
100
AcDbEntity
100
AcDbLine
10
62.411932
20
21.074091
30
0.0
11
62.541669
21
23.835795
31
0.0
0
LINE
8
Layer 1
62
4
5
1a8
100
AcDbEntity
100
AcDbLine
10
62.541669
20
23.835795
30
0.0
11
62.772054
21
28.730892
31
0.0
0
LINE
8
Layer 1
62
4
5
1a9
100
AcDbEntity
100
AcDbLine
10
62.772054
20
28.730892
30
0.0
11
63.064766
21
30.313753
31
0.0
0
LINE
8
Layer 1
62
4
5
1aa
100
AcDbEntity
100
AcDbLine
10
63.064766
20
30.313753
30
0.0
11
63.476530
21
31.341142
31
0.0
0
LINE
8
Layer 1
62
4
5
1ab
100
AcDbEntity
100
AcDbLine
10
63.476530
20
31.341142
30
0.0
11
63.724699
21
32.080749
31
0.0
0
LINE
8
Layer 1
62
4
5
1ac
100
AcDbEntity
100
AcDbLine
10
63.724699
20
32.080749
30
0.0
11
63.705835
21
32.946281
31
0.0
0
LINE
8
Layer 1
62
4
5
1ad
100
AcDbEntity
100
AcDbLine
10
63.705835
20
32.946281
30
0.0
11
63.629416
21
33.505392
31
0.0
0
LINE
8
Layer 1
62
4
5
1ae
100
AcDbEntity
100
AcDbLine
10
63.629416
20
33.505392
30
0.0
11
63.704430
21
33.932375
31
0.0
0
LINE
8
Layer 1
62
4
5
1af
100
AcDbEntity
100
AcDbLine
10
63.704430
20
33.932375
30
0.0
11
64.023252
21
34.246964
31
0.0
0
LINE
8
Layer 1
62
4
5
1b0
100
AcDbEntity
100
AcDbLine
10
64.023252
20
34.246964
30
0.0
11
64.678258
21
34.468899
31
0.0
0
LINE
8
Layer 1
62
4
5
1b1
100
AcDbEntity
100
AcDbLine
10
64.678258
20
34.468899
30
0.0
11
67.366326
21
34.713750
31
0.0
0
LINE
8
Layer 1
62
4
5
1b2
100
AcDbEntity
100
AcDbLine
10
67.366326
20
34.713750
30
0.0
11
72.507641
21
34.824823
31
0.0
0
LINE
8
Layer 1
62
4
5
1b3
100
AcDbEntity
100
AcDbLine
10
72.507641
20
34.824823
30
0.0
11
78.720311
21
34.992649
31
0.0
0
LINE
8
Layer 1
62
4
5
1b4
100
AcDbEntity
100
AcDbLine
10
78.720311
20
34.992649
30
0.0
11
82.367780
21
35.230517
31
0.0
0
LINE
8
Layer 1
62
4
5
1b5
100
AcDbEntity
100
AcDbLine
10
82.367780
20
35.230517
30
0.0
11
84.184585
21
35.521559
31
0.0
0
LINE
8
Layer 1
62
4
5
1b6
100
AcDbEntity
100
AcDbLine
10
84.184585
20
35.521559
30
0.0
11
85.727988
21
33.775309
31
0.0
0
LINE
8
Layer 1
62
4
5
1b7
100
AcDbEntity
100
AcDbLine
10
85.727988
20
33.775309
30
0.0
11
86.913919
21
32.251838
31
0.0
0
LINE
8
Layer 1
62
4
5
1b8
100
AcDbEntity
100
AcDbLine
10
86.913919
20
32.251838
30
0.0
11
87.597710
21
31.050100
31
0.0
0
LINE
8
Layer 1
62
4
5
1b9
100
AcDbEntity
100
AcDbLine
10
87.597710
20
31.050100
30
0.0
11
87.840833
21
30.448472
31
0.0
0
LINE
8
Layer 1
62
4
5
1ba
100
AcDbEntity
100
AcDbLine
10
87.840833
20
30.448472
30
0.0
11
88.171182
21
30.033563
31
0.0
0
LINE
8
Layer 1
62
4
5
1bb
100
AcDbEntity
100
AcDbLine
10
88.171182
20
30.033563
30
0.0
11
89.670280
21
29.268573
31
0.0
0
LINE
8
Layer 1
62
4
5
1bc
100
AcDbEntity
100
AcDbLine
10
89.670280
20
29.268573
30
0.0
11
90.304129
21
28.868380
31
0.0
0
LINE
8
Layer 1
62
4
5
1bd
100
AcDbEntity
100
AcDbLine
10
90.304129
20
28.868380
30
0.0
11
90.314099
21
28.360170
31
0.0
0
LINE
8
Layer 1
62
4
5
1be
100
AcDbEntity
100
AcDbLine
10
90.314099
20
28.360170
30
0.0
11
89.793752
21
25.837809
31
0.0
0
LINE
8
Layer 1
62
4
5
1bf
100
AcDbEntity
100
AcDbLine
10
89.793752
20
25.837809
30
0.0
11
89.586875
21
24.729906
31
0.0
0
LINE
8
Layer 1
62
4
5
1c0
100
AcDbEntity
100
AcDbLine
10
89.586875
20
24.729906
30
0.0
11
89.277609
21
23.885528
31
0.0
0
LINE
8
Layer 1
62
4
5
1c1
100
AcDbEntity
100
AcDbLine
10
89.277609
20
23.885528
30
0.0
11
88.743550
21
23.062586
31
0.0
0
LINE
8
Layer 1
62
4
5
1c2
100
AcDbEntity
100
AcDbLine
10
88.743550
20
23.062586
30
0.0
11
87.862294
21
22.018989
31
0.0
0
LINE
8
Layer 1
62
4
5
1c3
100
AcDbEntity
100
AcDbLine
10
87.862294
20
22.018989
30
0.0
11
86.595696
21
20.479485
31
0.0
0
LINE
8
Layer 1
62
4
5
1c4
100
AcDbEntity
100
AcDbLine
10
86.595696
20
20.479485
30
0.0
11
85.851460
21
19.373156
31
0.0
0
LINE
8
Layer 1
62
4
5
1c5
100
AcDbEntity
100
AcDbLine
10
85.851460
20
19.373156
30
0.0
11
85.234076
21
18.481367
31
0.0
0
LINE
8
Layer 1
62
4
5
1c6
100
AcDbEntity
100
AcDbLine
10
85.234076
20
18.481367
30
0.0
11
84.272780
21
17.450517
31
0.0
0
LINE
8
Layer 1
62
4
5
1c7
100
AcDbEntity
100
AcDbLine
10
84.272780
20
17.450517
30
0.0
11
83.305595
21
16.341201
31
0.0
0
LINE
8
Layer 1
62
4
5
1c8
100
AcDbEntity
100
AcDbLine
10
83.305595
20
16.341201
30
0.0
11
83.204040
21
15.886334
31
0.0
0
LINE
8
Layer 1
62
4
5
1c9
100
AcDbEntity
100
AcDbLine
10
83.204040
20
15.886334
30
0.0
11
83.276183
21
15.325031
31
0.0
0
LINE
8
Layer 1
62
4
5
1ca
100
AcDbEntity
100
AcDbLine
10
83.276183
20
15.325031
30
0.0
11
83.680053
21
14.348969
31
0.0
0
LINE
8
Layer 1
62
4
5
1cb
100
AcDbEntity
100
AcDbLine
10
83.680053
20
14.348969
30
0.0
11
84.435119
21
13.683461
31
0.0
0
LINE
8
Layer 1
62
4
5
1cc
100
AcDbEntity
100
AcDbLine
10
84.435119
20
13.683461
30
0.0
11
85.576446
21
13.309571
31
0.0
0
LINE
8
Layer 1
62
4
5
1cd
100
AcDbEntity
100
AcDbLine
10
85.576446
20
13.309571
30
0.0
11
87.139099
21
13.208364
31
0.0
0
LINE
8
Layer 1
62
4
5
1ce
100
AcDbEntity
100
AcDbLine
10
87.139099
20
13.208364
30
0.0
11
88.866438
21
13.377463
31
0.0
0
LINE
8
Layer 1
62
4
5
1cf
100
AcDbEntity
100
AcDbLine
10
88.866438
20
13.377463
30
0.0
11
90.199447
21
13.737531
31
0.0
0
LINE
8
Layer 1
62
4
5
1d0
100
AcDbEntity
100
AcDbLine
10
90.199447
20
13.737531
30
0.0
11
91.954516
21
14.443087
31
0.0
0
LINE
8
Layer 1
62
4
5
1d1
100
AcDbEntity
100
AcDbLine
10
91.954516
20
14.443087
30
0.0
11
92.767688
21
14.877429
31
0.0
0
LINE
8
Layer 1
62
4
5
1d2
100
AcDbEntity
100
AcDbLine
10
92.767688
20
14.877429
30
0.0
11
93.727224
21
15.624892
31
0.0
0
LINE
8
Layer 1
62
4
5
1d3
100
AcDbEntity
100
AcDbLine
10
93.727224
20
15.624892
30
0.0
11
94.288863
21
16.187251
31
0.0
0
LINE
8
Layer 1
62
4
5
1d4
100
AcDbEntity
100
AcDbLine
10
94.288863
20
16.187251
30
0.0
11
94.602086
21
16.681390
31
0.0
0
LINE
8
Layer 1
62
4
5
1d5
100
AcDbEntity
100
AcDbLine
10
94.602086
20
16.681390
30
0.0
11
94.731437
21
17.258027
31
0.0
0
LINE
8
Layer 1
62
4
5
1d6
100
AcDbEntity
100
AcDbLine
10
94.731437
20
17.258027
30
0.0
11
94.741460
21
18.067878
31
0.0
0
LINE
8
Layer 1
62
4
5
1d7
100
AcDbEntity
100
AcDbLine
10
94.741460
20
18.067878
30
0.0
11
94.501820
21
19.156667
31
0.0
0
LINE
8
Layer 1
62
4
5
1d8
100
AcDbEntity
100
AcDbLine
10
94.501820
20
19.156667
30
0.0
11
94.510921
21
19.827760
31
0.0
0
LINE
8
Layer 1
62
4
5
1d9
100
AcDbEntity
100
AcDbLine
10
94.510921
20
19.827760
30
0.0
11
94.856113
21
20.810725
31
0.0
0
LINE
8
Layer 1
62
4
5
1da
100
AcDbEntity
100
AcDbLine
10
94.856113
20
20.810725
30
0.0
11
95.217538
21
21.919230
31
0.0
0
LINE
8
Layer 1
62
4
5
1db
100
AcDbEntity
100
AcDbLine
10
95.217538
20
21.919230
30
0.0
11
95.387607
21
23.103713
31
0.0
0
LINE
8
Layer 1
62
4
5
1dc
100
AcDbEntity
100
AcDbLine
10
95.387607
20
23.103713
30
0.0
11
95.508006
21
24.294845
31
0.0
0
LINE
8
Layer 1
62
4
5
1dd
100
AcDbEntity
100
AcDbLine
10
95.508006
20
24.294845
30
0.0
11
95.720419
21
25.423295
31
0.0
0
LINE
8
Layer 1
62
4
5
1de
100
AcDbEntity
100
AcDbLine
10
95.720419
20
25.423295
30
0.0
11
96.344681
21
27.289833
31
0.0
0
LINE
8
Layer 1
62
4
5
1df
100
AcDbEntity
100
AcDbLine
10
96.344681
20
27.289833
30
0.0
11
97.092550
21
29.076056
31
0.0
0
LINE
8
Layer 1
62
4
5
1e0
100
AcDbEntity
100
AcDbLine
10
97.092550
20
29.076056
30
0.0
11
97.809197
21
30.447010
31
0.0
0
LINE
8
Layer 1
62
4
5
1e1
100
AcDbEntity
100
AcDbLine
10
97.809197
20
30.447010
30
0.0
11
98.339794
21
31.067739
31
0.0
0
LINE
8
Layer 1
62
4
5
1e2
100
AcDbEntity
100
AcDbLine
10
98.339794
20
31.067739
30
0.0
11
98.813358
21
30.906970
31
0.0
0
LINE
8
Layer 1
62
4
5
1e3
100
AcDbEntity
100
AcDbLine
10
98.813358
20
30.906970
30
0.0
11
99.270065
21
30.202379
31
0.0
0
LINE
8
Layer 1
62
4
5
1e4
100
AcDbEntity
100
AcDbLine
10
99.270065
20
30.202379
30
0.0
11
99.643077
21
29.099235
31
0.0
0
LINE
8
Layer 1
62
4
5
1e5
100
AcDbEntity
100
AcDbLine
10
99.643077
20
29.099235
30
0.0
11
99.865558
21
27.742809
31
0.0
0
LINE
8
Layer 1
62
4
5
1e6
100
AcDbEntity
100
AcDbLine
10
99.865558
20
27.742809
30
0.0
11
99.837381
21
25.685561
31
0.0
0
LINE
8
Layer 1
62
4
5
1e7
100
AcDbEntity
100
AcDbLine
10
99.837381
20
25.685561
30
0.0
11
99.520766
21
23.284664
31
0.0
0
LINE
8
Layer 1
62
4
5
1e8
100
AcDbEntity
100
AcDbLine
10
99.520766
20
23.284664
30
0.0
11
99.012745
21
21.084367
31
0.0
0
LINE
8
Layer 1
62
4
5
1e9
100
AcDbEntity
100
AcDbLine
10
99.012745
20
21.084367
30
0.0
11
98.410349
21
19.628920
31
0.0
0
LINE
8
Layer 1
62
4
5
1ea
100
AcDbEntity
100
AcDbLine
10
98.410349
20
19.628920
30
0.0
11
97.819447
21
18.455934
31
0.0
0
LINE
8
Layer 1
62
4
5
1eb
100
AcDbEntity
100
AcDbLine
10
97.819447
20
18.455934
30
0.0
11
96.593544
21
16.665587
31
0.0
0
LINE
8
Layer 1
62
4
5
1ec
100
AcDbEntity
100
AcDbLine
10
96.593544
20
16.665587
30
0.0
11
95.732777
21
15.442929
31
0.0
0
LINE
8
Layer 1
62
4
5
1ed
100
AcDbEntity
100
AcDbLine
10
95.732777
20
15.442929
30
0.0
11
95.376460
21
14.566559
31
0.0
0
LINE
8
Layer 1
62
4
5
1ee
100
AcDbEntity
100
AcDbLine
10
95.376460
20
14.566559
30
0.0
11
95.598539
21
13.865766
31
0.0
0
LINE
8
Layer 1
62
4
5
1ef
100
AcDbEntity
100
AcDbLine
10
95.598539
20
13.865766
30
0.0
11
96.150204
21
13.150617
31
0.0
0
LINE
8
Layer 1
62
4
5
1f0
100
AcDbEntity
100
AcDbLine
10
96.150204
20
13.150617
30
0.0
11
96.859598
21
12.594428
31
0.0
0
LINE
8
Layer 1
62
4
5
1f1
100
AcDbEntity
100
AcDbLine
10
96.859598
20
12.594428
30
0.0
11
97.554863
21
12.370517
31
0.0
0
LINE
8
Layer 1
62
4
5
1f2
100
AcDbEntity
100
AcDbLine
10
97.554863
20
12.370517
30
0.0
11
98.887936
21
12.490176
31
0.0
0
LINE
8
Layer 1
62
4
5
1f3
100
AcDbEntity
100
AcDbLine
10
98.887936
20
12.490176
30
0.0
11
100.416723
21
12.785151
31
0.0
0
LINE
8
Layer 1
62
4
5
1f4
100
AcDbEntity
100
AcDbLine
10
100.416723
20
12.785151
30
0.0
11
101.733868
21
13.159441
31
0.0
0
LINE
8
Layer 1
62
4
5
1f5
100
AcDbEntity
100
AcDbLine
10
101.733868
20
13.159441
30
0.0
11
102.432016
21
13.517045
31
0.0
0
LINE
8
Layer 1
62
4
5
1f6
100
AcDbEntity
100
AcDbLine
10
102.432016
20
13.517045
30
0.0
11
102.796575
21
13.834186
31
0.0
0
LINE
8
Layer 1
62
4
5
1f7
100
AcDbEntity
100
AcDbLine
10
102.796575
20
13.834186
30
0.0
11
103.172849
21
13.966837
31
0.0
0
LINE
8
Layer 1
62
4
5
1f8
100
AcDbEntity
100
AcDbLine
10
103.172849
20
13.966837
30
0.0
11
103.608023
21
14.152985
31
0.0
0
LINE
8
Layer 1
62
4
5
1f9
100
AcDbEntity
100
AcDbLine
10
103.608023
20
14.152985
30
0.0
11
104.098177
21
14.653095
31
0.0
0
LINE
8
Layer 1
62
4
5
1fa
100
AcDbEntity
100
AcDbLine
10
104.098177
20
14.653095
30
0.0
11
105.072522
21
16.245180
31
0.0
0
LINE
8
Layer 1
62
4
5
1fb
100
AcDbEntity
100
AcDbLine
10
105.072522
20
16.245180
30
0.0
11
105.754080
21
18.043059
31
0.0
0
LINE
8
Layer 1
62
4
5
1fc
100
AcDbEntity
100
AcDbLine
10
105.754080
20
18.043059
30
0.0
11
105.878249
21
18.800411
31
0.0
0
LINE
8
Layer 1
62
4
5
1fd
100
AcDbEntity
100
AcDbLine
10
105.878249
20
18.800411
30
0.0
11
105.801044
21
19.346698
31
0.0
0
LINE
8
Layer 1
62
4
5
1fe
100
AcDbEntity
100
AcDbLine
10
105.801044
20
19.346698
30
0.0
11
105.522807
21
19.876512
31
0.0
0
LINE
8
Layer 1
62
4
5
1ff
100
AcDbEntity
100
AcDbLine
10
105.522807
20
19.876512
30
0.0
11
105.463655
21
20.309653
31
0.0
0
LINE
8
Layer 1
62
4
5
200
100
AcDbEntity
100
AcDbLine
10
105.463655
20
20.309653
30
0.0
11
105.607016
21
20.881281
31
0.0
0
LINE
8
Layer 1
62
4
5
201
100
AcDbEntity
100
AcDbLine
10
105.607016
20
20.881281
30
0.0
11
105.934479
21
22.313005
31
0.0
0
LINE
8
Layer 1
62
4
5
202
100
AcDbEntity
100
AcDbLine
10
105.934479
20
22.313005
30
0.0
11
105.966142
21
23.852669
31
0.0
0
LINE
8
Layer 1
62
4
5
203
100
AcDbEntity
100
AcDbLine
10
105.966142
20
23.852669
30
0.0
11
105.917461
21
25.136952
31
0.0
0
LINE
8
Layer 1
62
4
5
204
100
AcDbEntity
100
AcDbLine
10
105.917461
20
25.136952
30
0.0
11
106.003891
21
25.802531
31
0.0
0
LINE
8
Layer 1
62
4
5
205
100
AcDbEntity
100
AcDbLine
10
106.003891
20
25.802531
30
0.0
11
105.604005
21
27.382872
31
0.0
0
LINE
8
Layer 1
62
4
5
206
100
AcDbEntity
100
AcDbLine
10
105.604005
20
27.382872
30
0.0
11
104.605924
21
31.148444
31
0.0
0
LINE
8
Layer 1
62
4
5
207
100
AcDbEntity
100
AcDbLine
10
104.605924
20
31.148444
30
0.0
11
103.687261
21
36.026807
31
0.0
0
LINE
8
Layer 1
62
4
5
208
100
AcDbEntity
100
AcDbLine
10
103.687261
20
36.026807
30
0.0
11
103.469465
21
38.548146
31
0.0
0
LINE
8
Layer 1
62
4
5
209
100
AcDbEntity
100
AcDbLine
10
103.469465
20
38.548146
30
0.0
11
103.525627
21
40.945517
31
0.0
0
LINE
8
Layer 1
62
4
5
20a
100
AcDbEntity
100
AcDbLine
10
103.525627
20
40.945517
30
0.0
11
103.816354
21
42.526996
31
0.0
0
LINE
8
Layer 1
62
4
5
20b
100
AcDbEntity
100
AcDbLine
10
103.816354
20
42.526996
30
0.0
11
104.304368
21
44.353660
31
0.0
0
LINE
8
Layer 1
62
4
5
20c
100
AcDbEntity
100
AcDbLine
10
104.304368
20
44.353660
30
0.0
11
104.832959
21
46.390072
31
0.0
0
LINE
8
Layer 1
62
4
5
20d
100
AcDbEntity
100
AcDbLine
10
104.832959
20
46.390072
30
0.0
11
105.245419
21
48.600795
31
0.0
0
LINE
8
Layer 1
62
4
5
20e
100
AcDbEntity
100
AcDbLine
10
105.245419
20
48.600795
30
0.0
11
105.624839
21
52.338594
31
0.0
0
LINE
8
Layer 1
62
4
5
20f
100
AcDbEntity
100
AcDbLine
10
105.624839
20
52.338594
30
0.0
11
105.811987
21
55.641731
31
0.0
0
LINE
8
Layer 1
62
4
5
210
100
AcDbEntity
100
AcDbLine
10
105.811987
20
55.641731
30
0.0
11
105.874601
21
57.951171
31
0.0
0
LINE
8
Layer 1
62
4
5
211
100
AcDbEntity
100
AcDbLine
10
105.874601
20
57.951171
30
0.0
11
105.880419
21
58.707878
31
0.0
0
LINE
8
Layer 1
62
4
5
212
100
AcDbEntity
100
AcDbLine
10
105.880419
20
58.707878
30
0.0
11
106.025322
21
58.265358
31
0.0
0
LINE
8
Layer 1
62
4
5
213
100
AcDbEntity
100
AcDbLine
10
106.025322
20
58.265358
30
0.0
11
106.388094
21
57.975230
31
0.0
0
LINE
8
Layer 1
62
4
5
214
100
AcDbEntity
100
AcDbLine
10
106.388094
20
57.975230
30
0.0
11
106.860831
21
57.224603
31
0.0
0
LINE
8
Layer 1
62
4
5
215
100
AcDbEntity
100
AcDbLine
10
106.860831
20
57.224603
30
0.0
11
107.335627
21
55.400587
31
0.0
0
LINE
8
Layer 1
62
4
5
216
100
AcDbEntity
100
AcDbLine
10
107.335627
20
55.400587
30
0.0
11
107.635209
21
52.741071
31
0.0
0
LINE
8
Layer 1
62
4
5
217
100
AcDbEntity
100
AcDbLine
10
107.635209
20
52.741071
30
0.0
11
107.848898
21
49.033109
31
0.0
0
LINE
8
Layer 1
62
4
5
218
100
AcDbEntity
100
AcDbLine
10
107.848898
20
49.033109
30
0.0
11
108.085280
21
39.737253
31
0.0
0
LINE
8
Layer 1
62
4
5
219
100
AcDbEntity
100
AcDbLine
10
108.085280
20
39.737253
30
0.0
11
106.585974
21
27.090170
31
0.0
0
LINE
8
Layer 1
62
4
5
21a
100
AcDbEntity
100
AcDbLine
10
106.585974
20
27.090170
30
0.0
11
106.873726
21
24.994994
31
0.0
0
LINE
8
Layer 1
62
4
5
21b
100
AcDbEntity
100
AcDbLine
10
106.873726
20
24.994994
30
0.0
11
107.048405
21
23.728926
31
0.0
0
LINE
8
Layer 1
62
4
5
21c
100
AcDbEntity
100
AcDbLine
10
107.048405
20
23.728926
30
0.0
11
107.229794
21
23.165517
31
0.0
0
LINE
8
Layer 1
62
4
5
21d
100
AcDbEntity
100
AcDbLine
10
107.229794
20
23.165517
30
0.0
11
107.591457
21
22.802819
31
0.0
0
LINE
8
Layer 1
62
4
5
21e
100
AcDbEntity
100
AcDbLine
10
107.591457
20
22.802819
30
0.0
11
108.076764
21
21.985186
31
0.0
0
LINE
8
Layer 1
62
4
5
21f
100
AcDbEntity
100
AcDbLine
10
108.076764
20
21.985186
30
0.0
11
108.685002
21
20.607878
31
0.0
0
LINE
8
Layer 1
62
4
5
220
100
AcDbEntity
100
AcDbLine
10
108.685002
20
20.607878
30
0.0
11
108.757191
21
20.318541
31
0.0
0
LINE
8
Layer 1
62
4
5
221
100
AcDbEntity
100
AcDbLine
10
108.757191
20
20.318541
30
0.0
11
108.956523
21
20.266964
31
0.0
0
LINE
8
Layer 1
62
4
5
222
100
AcDbEntity
100
AcDbLine
10
108.956523
20
20.266964
30
0.0
11
109.633218
21
20.741401
31
0.0
0
LINE
8
Layer 1
62
4
5
223
100
AcDbEntity
100
AcDbLine
10
109.633218
20
20.741401
30
0.0
11
110.508288
21
21.759824
31
0.0
0
LINE
8
Layer 1
62
4
5
224
100
AcDbEntity
100
AcDbLine
10
110.508288
20
21.759824
30
0.0
11
111.374933
21
23.050864
31
0.0
0
LINE
8
Layer 1
62
4
5
225
100
AcDbEntity
100
AcDbLine
10
111.374933
20
23.050864
30
0.0
11
111.754296
21
23.880199
31
0.0
0
LINE
8
Layer 1
62
4
5
226
100
AcDbEntity
100
AcDbLine
10
111.754296
20
23.880199
30
0.0
11
111.893999
21
24.908380
31
0.0
0
LINE
8
Layer 1
62
4
5
227
100
AcDbEntity
100
AcDbLine
10
111.893999
20
24.908380
30
0.0
11
111.798422
21
26.476241
31
0.0
0
LINE
8
Layer 1
62
4
5
228
100
AcDbEntity
100
AcDbLine
10
111.798422
20
26.476241
30
0.0
11
111.471947
21
28.924614
31
0.0
0
LINE
8
Layer 1
62
4
5
229
100
AcDbEntity
100
AcDbLine
10
111.471947
20
28.924614
30
0.0
11
111.251460
21
32.267184
31
0.0
0
LINE
8
Layer 1
62
4
5
22a
100
AcDbEntity
100
AcDbLine
10
111.251460
20
32.267184
30
0.0
11
110.988551
21
34.689834
31
0.0
0
LINE
8
Layer 1
62
4
5
22b
100
AcDbEntity
100
AcDbLine
10
110.988551
20
34.689834
30
0.0
11
110.422433
21
36.879753
31
0.0
0
LINE
8
Layer 1
62
4
5
22c
100
AcDbEntity
100
AcDbLine
10
110.422433
20
36.879753
30
0.0
11
110.210261
21
38.141746
31
0.0
0
LINE
8
Layer 1
62
4
5
22d
100
AcDbEntity
100
AcDbLine
10
110.210261
20
38.141746
30
0.0
11
110.383802
21
39.439584
31
0.0
0
LINE
8
Layer 1
62
4
5
22e
100
AcDbEntity
100
AcDbLine
10
110.383802
20
39.439584
30
0.0
11
110.684696
21
41.250059
31
0.0
0
LINE
8
Layer 1
62
4
5
22f
100
AcDbEntity
100
AcDbLine
10
110.684696
20
41.250059
30
0.0
11
110.854585
21
44.049962
31
0.0
0
LINE
8
Layer 1
62
4
5
230
100
AcDbEntity
100
AcDbLine
10
110.854585
20
44.049962
30
0.0
11
111.110349
21
54.033573
31
0.0
0
LINE
8
Layer 1
62
4
5
231
100
AcDbEntity
100
AcDbLine
10
111.110349
20
54.033573
30
0.0
11
111.185022
21
57.729575
31
0.0
0
LINE
8
Layer 1
62
4
5
232
100
AcDbEntity
100
AcDbLine
10
111.185022
20
57.729575
30
0.0
11
111.047155
21
61.018740
31
0.0
0
LINE
8
Layer 1
62
4
5
233
100
AcDbEntity
100
AcDbLine
10
111.047155
20
61.018740
30
0.0
11
110.709375
21
63.730148
31
0.0
0
LINE
8
Layer 1
62
4
5
234
100
AcDbEntity
100
AcDbLine
10
110.709375
20
63.730148
30
0.0
11
110.184308
21
65.692878
31
0.0
0
LINE
8
Layer 1
62
4
5
235
100
AcDbEntity
100
AcDbLine
10
110.184308
20
65.692878
30
0.0
11
109.422704
21
66.883939
31
0.0
0
LINE
8
Layer 1
62
4
5
236
100
AcDbEntity
100
AcDbLine
10
109.422704
20
66.883939
30
0.0
11
108.196338
21
68.172884
31
0.0
0
LINE
8
Layer 1
62
4
5
237
100
AcDbEntity
100
AcDbLine
10
108.196338
20
68.172884
30
0.0
11
106.841682
21
69.251496
31
0.0
0
LINE
8
Layer 1
62
4
5
238
100
AcDbEntity
100
AcDbLine
10
106.841682
20
69.251496
30
0.0
11
105.695210
21
69.811559
31
0.0
0
LINE
8
Layer 1
62
4
5
239
100
AcDbEntity
100
AcDbLine
10
105.695210
20
69.811559
30
0.0
11
97.210905
21
70.931628
31
0.0
0
LINE
8
Layer 1
62
4
5
23a
100
AcDbEntity
100
AcDbLine
10
97.210905
20
70.931628
30
0.0
11
92.086808
21
71.610725
31
0.0
0
LINE
8
Layer 1
62
4
5
23b
100
AcDbEntity
100
AcDbLine
10
92.086808
20
71.610725
30
0.0
11
90.358197
21
71.831212
31
0.0
0
LINE
8
Layer 1
62
4
5
23c
100
AcDbEntity
100
AcDbLine
10
90.358197
20
71.831212
30
0.0
11
90.358197
21
71.831212
31
0.0
0
LINE
8
Layer 1
62
4
5
23d
100
AcDbEntity
100
AcDbLine
10
106.585974
20
27.090170
30
0.0
11
106.523892
21
26.990531
31
0.0
0
LINE
8
Layer 1
62
4
5
23e
100
AcDbEntity
100
AcDbLine
10
106.523892
20
26.990531
30
0.0
11
106.480141
21
26.243503
31
0.0
0
LINE
8
Layer 1
62
4
5
23f
100
AcDbEntity
100
AcDbLine
10
106.480141
20
26.243503
30
0.0
11
106.585974
21
27.090170
31
0.0
0
LINE
8
Layer 1
62
4
5
240
100
AcDbEntity
100
AcDbLine
10
106.585974
20
27.090170
30
0.0
11
106.585974
21
27.090170
31
0.0
  0
ENDSEC
  0
SECTION
  2
OBJECTS
  0
DICTIONARY
  5
C
330
0
100
AcDbDictionary
  3
ACAD_GROUP
350
D
  3
ACAD_MLINESTYLE
350
17
  0
DICTIONARY
  5
D
330
C
100
AcDbDictionary
  0
DICTIONARY
  5
1A
330
C
100
AcDbDictionary
  0
DICTIONARY
  5
17
330
C
100
AcDbDictionary
  3
STANDARD
350
18
  0
DICTIONARY
  5
19
330
C
100
AcDbDictionary
  0
ENDSEC
  0
EOF
