  0
SECTION
  2
BLOCKS
  0
ENDSEC
  0
SECTION
  2
ENTITIES
  0
LINE
  8
0
 10
-42.695
 11
-42.507
 20
11.514
 21
12.386
  0
LINE
  8
0
 10
-42.507
 11
-42.006
 20
12.386
 21
13.047
  0
LINE
  8
0
 10
-42.006
 11
-41.271
 20
13.047
 21
13.417
  0
LINE
  8
0
 10
-41.271
 11
-39.627
 20
13.417
 21
13.676
  0
LINE
  8
0
 10
-39.627
 11
-37.945
 20
13.676
 21
13.872
  0
LINE
  8
0
 10
-37.945
 11
-36.179
 20
13.872
 21
13.844
  0
LINE
  8
0
 10
-36.179
 11
-34.53
 20
13.844
 21
13.449
  0
LINE
  8
0
 10
-34.53
 11
-33.671
 20
13.449
 21
13.414
  0
LINE
  8
0
 10
-33.671
 11
-32.855
 20
13.414
 21
13.673
  0
LINE
  8
0
 10
-32.855
 11
-31.444
 20
13.673
 21
14.596
  0
LINE
  8
0
 10
-31.444
 11
-30.066
 20
14.596
 21
15.524
  0
LINE
  8
0
 10
-30.066
 11
-28.547
 20
15.524
 21
16.33
  0
LINE
  8
0
 10
-28.547
 11
-27.83
 20
16.33
 21
16.755
  0
LINE
  8
0
 10
-27.83
 11
-27.27
 20
16.755
 21
17.327
  0
LINE
  8
0
 10
-27.27
 11
-26.473
 20
17.327
 21
18.865
  0
LINE
  8
0
 10
-26.473
 11
-25.249
 20
18.865
 21
20.097
  0
LINE
  8
0
 10
-25.249
 11
-23.831
 20
20.097
 21
20.994
  0
LINE
  8
0
 10
-23.831
 11
-23.375
 20
20.994
 21
21.675
  0
LINE
  8
0
 10
-23.375
 11
-23.248
 20
21.675
 21
22.556
  0
LINE
  8
0
 10
-23.248
 11
-23.301
 20
22.556
 21
24.265
  0
LINE
  8
0
 10
-23.301
 11
-23.061
 20
24.265
 21
25.912
  0
LINE
  8
0
 10
-23.061
 11
-22.212
 20
25.912
 21
27.274
  0
LINE
  8
0
 10
-22.212
 11
-21.47
 20
27.274
 21
27.743
  0
LINE
  8
0
 10
-21.47
 11
-20.696
 20
27.743
 21
27.633
  0
LINE
  8
0
 10
-20.696
 11
-19.446
 20
27.633
 21
26.431
  0
LINE
  8
0
 10
-19.446
 11
-18.563
 20
26.431
 21
24.992
  0
LINE
  8
0
 10
-18.563
 11
-17.948
 20
24.992
 21
23.379
  0
LINE
  8
0
 10
-17.948
 11
-17.596
 20
23.379
 21
21.65
  0
LINE
  8
0
 10
-17.596
 11
-17.436
 20
21.65
 21
19.99
  0
LINE
  8
0
 10
-17.436
 11
-17.341
 20
19.99
 21
18.261
  0
LINE
  8
0
 10
-17.341
 11
-17.326
 20
18.261
 21
16.571
  0
LINE
  8
0
 10
-17.326
 11
-17.48
 20
16.571
 21
14.885
  0
LINE
  8
0
 10
-17.48
 11
-17.441
 20
14.885
 21
14.085
  0
LINE
  8
0
 10
-17.441
 11
-17.126
 20
14.085
 21
13.401
  0
LINE
  8
0
 10
-17.126
 11
-15.815
 20
13.401
 21
12.345
  0
LINE
  8
0
 10
-15.815
 11
-14.195
 20
12.345
 21
11.445
  0
LINE
  8
0
 10
-14.195
 11
-12.673
 20
11.445
 21
10.707
  0
LINE
  8
0
 10
-12.673
 11
-11.156
 20
10.707
 21
10.063
  0
LINE
  8
0
 10
-11.156
 11
-9.506
 20
10.063
 21
9.451
  0
LINE
  8
0
 10
-9.506
 11
-7.908
 20
9.451
 21
8.931
  0
LINE
  8
0
 10
-7.908
 11
-6.253
 20
8.931
 21
8.454
  0
LINE
  8
0
 10
-6.253
 11
-4.674
 20
8.454
 21
8.045
  0
LINE
  8
0
 10
-4.674
 11
-2.948
 20
8.045
 21
7.634
  0
LINE
  8
0
 10
-2.948
 11
-1.291
 20
7.634
 21
7.261
  0
LINE
  8
0
 10
-1.291
 11
0.309
 20
7.261
 21
6.904
  0
LINE
  8
0
 10
0.309
 11
2.041
 20
6.904
 21
6.526
  0
LINE
  8
0
 10
2.041
 11
3.634
 20
6.526
 21
6.264
  0
LINE
  8
0
 10
3.634
 11
5.338
 20
6.264
 21
6.14
  0
LINE
  8
0
 10
5.338
 11
7.035
 20
6.14
 21
6.209
  0
LINE
  8
0
 10
7.035
 11
7.873
 20
6.209
 21
6.493
  0
LINE
  8
0
 10
7.873
 11
8.208
 20
6.493
 21
7.152
  0
LINE
  8
0
 10
8.208
 11
7.982
 20
7.152
 21
8.937
  0
LINE
  8
0
 10
7.982
 11
7.686
 20
8.937
 21
10.631
  0
LINE
  8
0
 10
7.686
 11
7.187
 20
10.631
 21
12.234
  0
LINE
  8
0
 10
7.187
 11
6.633
 20
12.234
 21
13.748
  0
LINE
  8
0
 10
6.633
 11
6.322
 20
13.748
 21
15.527
  0
LINE
  8
0
 10
6.322
 11
6.382
 20
15.527
 21
16.416
  0
LINE
  8
0
 10
6.382
 11
6.662
 20
16.416
 21
17.16
  0
LINE
  8
0
 10
6.662
 11
7.327
 20
17.16
 21
17.529
  0
LINE
  8
0
 10
7.327
 11
8.241
 20
17.529
 21
17.438
  0
LINE
  8
0
 10
8.241
 11
9.774
 20
17.438
 21
16.83
  0
LINE
  8
0
 10
9.774
 11
11.145
 20
16.83
 21
15.938
  0
LINE
  8
0
 10
11.145
 11
12.558
 20
15.938
 21
14.965
  0
LINE
  8
0
 10
12.558
 11
13.974
 20
14.965
 21
14.004
  0
LINE
  8
0
 10
13.974
 11
15.323
 20
14.004
 21
12.833
  0
LINE
  8
0
 10
15.323
 11
16.362
 20
12.833
 21
11.499
  0
LINE
  8
0
 10
16.362
 11
17.226
 20
11.499
 21
10.036
  0
LINE
  8
0
 10
17.226
 11
17.972
 20
10.036
 21
8.604
  0
LINE
  8
0
 10
17.972
 11
18.746
 20
8.604
 21
7.109
  0
LINE
  8
0
 10
18.746
 11
19.5
 20
7.109
 21
5.551
  0
LINE
  8
0
 10
19.5
 11
21.656
 20
5.551
 21
6.044
  0
LINE
  8
0
 10
21.656
 11
24.063
 20
6.044
 21
6.421
  0
LINE
  8
0
 10
24.063
 11
26.411
 20
6.421
 21
6.66
  0
LINE
  8
0
 10
26.411
 11
28.595
 20
6.66
 21
6.806
  0
LINE
  8
0
 10
28.595
 11
30.872
 20
6.806
 21
6.914
  0
LINE
  8
0
 10
30.872
 11
33.21
 20
6.914
 21
7.015
  0
LINE
  8
0
 10
33.21
 11
35.578
 20
7.015
 21
7.103
  0
LINE
  8
0
 10
35.578
 11
37.785
 20
7.103
 21
6.928
  0
LINE
  8
0
 10
37.785
 11
40.084
 20
6.928
 21
6.144
  0
LINE
  8
0
 10
40.084
 11
41.909
 20
6.144
 21
4.823
  0
LINE
  8
0
 10
41.909
 11
42.616
 20
4.823
 21
3.8
  0
LINE
  8
0
 10
42.616
 11
42.695
 20
3.8
 21
2.729
  0
LINE
  8
0
 10
42.695
 11
42.194
 20
2.729
 21
1.82
  0
LINE
  8
0
 10
42.194
 11
41.348
 20
1.82
 21
0.999
  0
LINE
  8
0
 10
41.348
 11
39.466
 20
0.999
 21
-0.162
  0
LINE
  8
0
 10
39.466
 11
37.321
 20
-0.162
 21
-1.277
  0
LINE
  8
0
 10
37.321
 11
36.385
 20
-1.277
 21
-1.998
  0
LINE
  8
0
 10
36.385
 11
35.592
 20
-1.998
 21
-2.895
  0
LINE
  8
0
 10
35.592
 11
34.605
 20
-2.895
 21
-4.963
  0
LINE
  8
0
 10
34.605
 11
33.866
 20
-4.963
 21
-7.162
  0
LINE
  8
0
 10
33.866
 11
33.089
 20
-7.162
 21
-9.287
  0
LINE
  8
0
 10
33.089
 11
32.07
 20
-9.287
 21
-11.367
  0
LINE
  8
0
 10
32.07
 11
30.845
 20
-11.367
 21
-13.263
  0
LINE
  8
0
 10
30.845
 11
29.351
 20
-13.263
 21
-15.076
  0
LINE
  8
0
 10
29.351
 11
27.711
 20
-15.076
 21
-16.65
  0
LINE
  8
0
 10
27.711
 11
25.865
 20
-16.65
 21
-18.035
  0
LINE
  8
0
 10
25.865
 11
23.863
 20
-18.035
 21
-19.16
  0
LINE
  8
0
 10
23.863
 11
21.709
 20
-19.16
 21
-19.998
  0
LINE
  8
0
 10
21.709
 11
19.415
 20
-19.998
 21
-20.595
  0
LINE
  8
0
 10
19.415
 11
17.223
 20
-20.595
 21
-20.997
  0
LINE
  8
0
 10
17.223
 11
15.047
 20
-20.997
 21
-21.317
  0
LINE
  8
0
 10
15.047
 11
12.621
 20
-21.317
 21
-21.557
  0
LINE
  8
0
 10
12.621
 11
10.337
 20
-21.557
 21
-21.585
  0
LINE
  8
0
 10
10.337
 11
7.983
 20
-21.585
 21
-21.333
  0
LINE
  8
0
 10
7.983
 11
5.788
 20
-21.333
 21
-20.822
  0
LINE
  8
0
 10
5.788
 11
4.678
 20
-20.822
 21
-20.725
  0
LINE
  8
0
 10
4.678
 11
3.656
 20
-20.725
 21
-21.088
  0
LINE
  8
0
 10
3.656
 11
2.043
 20
-21.088
 21
-22.668
  0
LINE
  8
0
 10
2.043
 11
0.465
 20
-22.668
 21
-24.411
  0
LINE
  8
0
 10
0.465
 11
-1.419
 20
-24.411
 21
-25.731
  0
LINE
  8
0
 10
-1.419
 11
-3.531
 20
-25.731
 21
-26.981
  0
LINE
  8
0
 10
-3.531
 11
-4.541
 20
-26.981
 21
-27.486
  0
LINE
  8
0
 10
-4.541
 11
-5.639
 20
-27.486
 21
-27.763
  0
LINE
  8
0
 10
-5.639
 11
-6.744
 20
-27.763
 21
-27.699
  0
LINE
  8
0
 10
-6.744
 11
-7.858
 20
-27.699
 21
-27.311
  0
LINE
  8
0
 10
-7.858
 11
-8.8
 20
-27.311
 21
-26.51
  0
LINE
  8
0
 10
-8.8
 11
-8.94
 20
-26.51
 21
-26.016
  0
LINE
  8
0
 10
-8.94
 11
-8.816
 20
-26.016
 21
-25.484
  0
LINE
  8
0
 10
-8.816
 11
-8.248
 20
-25.484
 21
-24.551
  0
LINE
  8
0
 10
-8.248
 11
-7.592
 20
-24.551
 21
-23.623
  0
LINE
  8
0
 10
-7.592
 11
-6.484
 20
-23.623
 21
-21.485
  0
LINE
  8
0
 10
-6.484
 11
-5.829
 20
-21.485
 21
-19.369
  0
LINE
  8
0
 10
-5.829
 11
-5.695
 20
-19.369
 21
-18.2
  0
LINE
  8
0
 10
-5.695
 11
-6.021
 20
-18.2
 21
-17.168
  0
LINE
  8
0
 10
-6.021
 11
-7.685
 20
-17.168
 21
-15.673
  0
LINE
  8
0
 10
-7.685
 11
-9.708
 20
-15.673
 21
-14.328
  0
LINE
  8
0
 10
-9.708
 11
-11.645
 20
-14.328
 21
-13.158
  0
LINE
  8
0
 10
-11.645
 11
-13.606
 20
-13.158
 21
-11.93
  0
LINE
  8
0
 10
-13.606
 11
-15.497
 20
-11.93
 21
-10.54
  0
LINE
  8
0
 10
-15.497
 11
-17.265
 20
-10.54
 21
-8.988
  0
LINE
  8
0
 10
-17.265
 11
-18.866
 20
-8.988
 21
-7.374
  0
LINE
  8
0
 10
-18.866
 11
-20.397
 20
-7.374
 21
-5.656
  0
LINE
  8
0
 10
-20.397
 11
-21.815
 20
-5.656
 21
-3.926
  0
LINE
  8
0
 10
-21.815
 11
-22.465
 20
-3.926
 21
-2.339
  0
LINE
  8
0
 10
-22.465
 11
-23.222
 20
-2.339
 21
-0.857
  0
LINE
  8
0
 10
-23.222
 11
-24.116
 20
-0.857
 21
0.645
  0
LINE
  8
0
 10
-24.116
 11
-25.082
 20
0.645
 21
2.108
  0
LINE
  8
0
 10
-25.082
 11
-26.068
 20
2.108
 21
3.46
  0
LINE
  8
0
 10
-26.068
 11
-26.75
 20
3.46
 21
3.981
  0
LINE
  8
0
 10
-26.75
 11
-27.576
 20
3.981
 21
4.198
  0
LINE
  8
0
 10
-27.576
 11
-29.164
 20
4.198
 21
4.161
  0
LINE
  8
0
 10
-29.164
 11
-30.848
 20
4.161
 21
4.07
  0
LINE
  8
0
 10
-30.848
 11
-32.57
 20
4.07
 21
4.399
  0
LINE
  8
0
 10
-32.57
 11
-34.195
 20
4.399
 21
5.117
  0
LINE
  8
0
 10
-34.195
 11
-35.667
 20
5.117
 21
5.941
  0
LINE
  8
0
 10
-35.667
 11
-37.104
 20
5.941
 21
6.708
  0
LINE
  8
0
 10
-37.104
 11
-38.676
 20
6.708
 21
7.518
  0
LINE
  8
0
 10
-38.676
 11
-40.119
 20
7.518
 21
8.362
  0
LINE
  8
0
 10
-40.119
 11
-41.408
 20
8.362
 21
9.309
  0
LINE
  8
0
 10
-41.408
 11
-42.517
 20
9.309
 21
10.682
  0
LINE
  8
0
 10
-42.517
 11
-42.695
 20
10.682
 21
11.514
  0
ENDSEC
  0
SECTION
  2
OBJECTS
  0
DICTIONARY
  0
ENDSEC
  0
EOF
