  0
SECTION
  2
BLOCKS
  0
ENDSEC
  0
SECTION
  2
ENTITIES
  0
LINE
  8
0
 10
-34.517
 11
-33.885
 20
-6.042
 21
-4.088
  0
LINE
  8
0
 10
-33.885
 11
-33.066
 20
-4.088
 21
-2.243
  0
LINE
  8
0
 10
-33.066
 11
-32.223
 20
-2.243
 21
-0.353
  0
LINE
  8
0
 10
-32.223
 11
-31.194
 20
-0.353
 21
1.303
  0
LINE
  8
0
 10
-31.194
 11
-29.771
 20
1.303
 21
2.855
  0
LINE
  8
0
 10
-29.771
 11
-29.029
 20
2.855
 21
3.568
  0
LINE
  8
0
 10
-29.029
 11
-28.248
 20
3.568
 21
4.319
  0
LINE
  8
0
 10
-28.248
 11
-27.924
 20
4.319
 21
4.703
  0
LINE
  8
0
 10
-27.924
 11
-27.931
 20
4.703
 21
5.105
  0
LINE
  8
0
 10
-27.931
 11
-28.653
 20
5.105
 21
5.928
  0
LINE
  8
0
 10
-28.653
 11
-30.024
 20
5.928
 21
7.486
  0
LINE
  8
0
 10
-30.024
 11
-31.095
 20
7.486
 21
9.13
  0
LINE
  8
0
 10
-31.095
 11
-31.954
 20
9.13
 21
11.069
  0
LINE
  8
0
 10
-31.954
 11
-32.502
 20
11.069
 21
12.926
  0
LINE
  8
0
 10
-32.502
 11
-32.892
 20
12.926
 21
15.005
  0
LINE
  8
0
 10
-32.892
 11
-32.857
 20
15.005
 21
16.034
  0
LINE
  8
0
 10
-32.857
 11
-32.268
 20
16.034
 21
16.793
  0
LINE
  8
0
 10
-32.268
 11
-31.235
 20
16.793
 21
17.185
  0
LINE
  8
0
 10
-31.235
 11
-30.179
 20
17.185
 21
17.178
  0
LINE
  8
0
 10
-30.179
 11
-28.307
 20
17.178
 21
16.523
  0
LINE
  8
0
 10
-28.307
 11
-26.533
 20
16.523
 21
15.635
  0
LINE
  8
0
 10
-26.533
 11
-24.64
 20
15.635
 21
14.743
  0
LINE
  8
0
 10
-24.64
 11
-22.71
 20
14.743
 21
13.834
  0
LINE
  8
0
 10
-22.71
 11
-20.923
 20
13.834
 21
12.906
  0
LINE
  8
0
 10
-20.923
 11
-19.182
 20
12.906
 21
11.828
  0
LINE
  8
0
 10
-19.182
 11
-17.616
 20
11.828
 21
10.656
  0
LINE
  8
0
 10
-17.616
 11
-16.036
 20
10.656
 21
9.229
  0
LINE
  8
0
 10
-16.036
 11
-15.168
 20
9.229
 21
8.598
  0
LINE
  8
0
 10
-15.168
 11
-14.133
 20
8.598
 21
8.53
  0
LINE
  8
0
 10
-14.133
 11
-13.239
 20
8.53
 21
8.869
  0
LINE
  8
0
 10
-13.239
 11
-12.476
 20
8.869
 21
9.4
  0
LINE
  8
0
 10
-12.476
 11
-11.05
 20
9.4
 21
10.969
  0
LINE
  8
0
 10
-11.05
 11
-9.546
 20
10.969
 21
12.427
  0
LINE
  8
0
 10
-9.546
 11
-7.813
 20
12.427
 21
13.601
  0
LINE
  8
0
 10
-7.813
 11
-6.218
 20
13.601
 21
14.597
  0
LINE
  8
0
 10
-6.218
 11
-4.328
 20
14.597
 21
15.746
  0
LINE
  8
0
 10
-4.328
 11
-2.558
 20
15.746
 21
16.625
  0
LINE
  8
0
 10
-2.558
 11
-0.532
 20
16.625
 21
17.271
  0
LINE
  8
0
 10
-0.532
 11
1.469
 20
17.271
 21
17.78
  0
LINE
  8
0
 10
1.469
 11
3.256
 20
17.78
 21
18.577
  0
LINE
  8
0
 10
3.256
 11
4.052
 20
18.577
 21
19.25
  0
LINE
  8
0
 10
4.052
 11
4.695
 20
19.25
 21
20.097
  0
LINE
  8
0
 10
4.695
 11
5.135
 20
20.097
 21
21.03
  0
LINE
  8
0
 10
5.135
 11
5.364
 20
21.03
 21
22.001
  0
LINE
  8
0
 10
5.364
 11
5.501
 20
22.001
 21
24.057
  0
LINE
  8
0
 10
5.501
 11
5.686
 20
24.057
 21
25.194
  0
LINE
  8
0
 10
5.686
 11
5.971
 20
25.194
 21
25.526
  0
LINE
  8
0
 10
5.971
 11
6.438
 20
25.526
 21
25.603
  0
LINE
  8
0
 10
6.438
 11
7.456
 20
25.603
 21
25.472
  0
LINE
  8
0
 10
7.456
 11
8.44
 20
25.472
 21
25.357
  0
LINE
  8
0
 10
8.44
 11
10.455
 20
25.357
 21
25.048
  0
LINE
  8
0
 10
10.455
 11
12.353
 20
25.048
 21
24.212
  0
LINE
  8
0
 10
12.353
 11
13.829
 20
24.212
 21
22.978
  0
LINE
  8
0
 10
13.829
 11
15.251
 20
22.978
 21
21.369
  0
LINE
  8
0
 10
15.251
 11
16.399
 20
21.369
 21
19.64
  0
LINE
  8
0
 10
16.399
 11
17.029
 20
19.64
 21
17.697
  0
LINE
  8
0
 10
17.029
 11
17.466
 20
17.697
 21
16.846
  0
LINE
  8
0
 10
17.466
 11
18.357
 20
16.846
 21
16.305
  0
LINE
  8
0
 10
18.357
 11
20.268
 20
16.305
 21
15.374
  0
LINE
  8
0
 10
20.268
 11
21.906
 20
15.374
 21
14.43
  0
LINE
  8
0
 10
21.906
 11
23.643
 20
14.43
 21
13.367
  0
LINE
  8
0
 10
23.643
 11
25.426
 20
13.367
 21
12.191
  0
LINE
  8
0
 10
25.426
 11
27.081
 20
12.191
 21
10.914
  0
LINE
  8
0
 10
27.081
 11
28.639
 20
10.914
 21
9.491
  0
LINE
  8
0
 10
28.639
 11
30.036
 20
9.491
 21
8.031
  0
LINE
  8
0
 10
30.036
 11
31.367
 20
8.031
 21
6.483
  0
LINE
  8
0
 10
31.367
 11
32.607
 20
6.483
 21
4.921
  0
LINE
  8
0
 10
32.607
 11
33.803
 20
4.921
 21
3.192
  0
LINE
  8
0
 10
33.803
 11
34.506
 20
3.192
 21
1.404
  0
LINE
  8
0
 10
34.506
 11
34.488
 20
1.404
 21
0.359
  0
LINE
  8
0
 10
34.488
 11
34.032
 20
0.359
 21
-0.6
  0
LINE
  8
0
 10
34.032
 11
32.856
 20
-0.6
 21
-2.29
  0
LINE
  8
0
 10
32.856
 11
31.664
 20
-2.29
 21
-3.949
  0
LINE
  8
0
 10
31.664
 11
30.402
 20
-3.949
 21
-5.652
  0
LINE
  8
0
 10
30.402
 11
29.173
 20
-5.652
 21
-7.253
  0
LINE
  8
0
 10
29.173
 11
27.916
 20
-7.253
 21
-8.823
  0
LINE
  8
0
 10
27.916
 11
26.568
 20
-8.823
 21
-10.432
  0
LINE
  8
0
 10
26.568
 11
25.278
 20
-10.432
 21
-11.896
  0
LINE
  8
0
 10
25.278
 11
23.795
 20
-11.896
 21
-13.481
  0
LINE
  8
0
 10
23.795
 11
22.43
 20
-13.481
 21
-14.843
  0
LINE
  8
0
 10
22.43
 11
20.807
 20
-14.843
 21
-16.341
  0
LINE
  8
0
 10
20.807
 11
19.349
 20
-16.341
 21
-17.572
  0
LINE
  8
0
 10
19.349
 11
17.587
 20
-17.572
 21
-18.917
  0
LINE
  8
0
 10
17.587
 11
15.92
 20
-18.917
 21
-20.05
  0
LINE
  8
0
 10
15.92
 11
14.224
 20
-20.05
 21
-21.065
  0
LINE
  8
0
 10
14.224
 11
12.34
 20
-21.065
 21
-22.036
  0
LINE
  8
0
 10
12.34
 11
10.545
 20
-22.036
 21
-22.822
  0
LINE
  8
0
 10
10.545
 11
8.519
 20
-22.822
 21
-23.555
  0
LINE
  8
0
 10
8.519
 11
6.678
 20
-23.555
 21
-24.087
  0
LINE
  8
0
 10
6.678
 11
4.523
 20
-24.087
 21
-24.548
  0
LINE
  8
0
 10
4.523
 11
2.525
 20
-24.548
 21
-24.866
  0
LINE
  8
0
 10
2.525
 11
0.624
 20
-24.866
 21
-25.163
  0
LINE
  8
0
 10
0.624
 11
-1.559
 20
-25.163
 21
-25.576
  0
LINE
  8
0
 10
-1.559
 11
-2.516
 20
-25.576
 21
-25.597
  0
LINE
  8
0
 10
-2.516
 11
-3.332
 20
-25.597
 21
-25.14
  0
LINE
  8
0
 10
-3.332
 11
-3.793
 20
-25.14
 21
-24.17
  0
LINE
  8
0
 10
-3.793
 11
-3.541
 20
-24.17
 21
-23.162
  0
LINE
  8
0
 10
-3.541
 11
-2.806
 20
-23.162
 21
-21.321
  0
LINE
  8
0
 10
-2.806
 11
-2.29
 20
-21.321
 21
-19.255
  0
LINE
  8
0
 10
-2.29
 11
-1.911
 20
-19.255
 21
-18.308
  0
LINE
  8
0
 10
-1.911
 11
-1.732
 20
-18.308
 21
-17.288
  0
LINE
  8
0
 10
-1.732
 11
-2.042
 20
-17.288
 21
-16.358
  0
LINE
  8
0
 10
-2.042
 11
-2.813
 20
-16.358
 21
-15.845
  0
LINE
  8
0
 10
-2.813
 11
-4.81
 20
-15.845
 21
-15.145
  0
LINE
  8
0
 10
-4.81
 11
-6.449
 20
-15.145
 21
-14.003
  0
LINE
  8
0
 10
-6.449
 11
-8.004
 20
-14.003
 21
-12.541
  0
LINE
  8
0
 10
-8.004
 11
-9.459
 20
-12.541
 21
-11.191
  0
LINE
  8
0
 10
-9.459
 11
-10.99
 20
-11.191
 21
-9.701
  0
LINE
  8
0
 10
-10.99
 11
-12.194
 20
-9.701
 21
-8.17
  0
LINE
  8
0
 10
-12.194
 11
-13.262
 20
-8.17
 21
-6.416
  0
LINE
  8
0
 10
-13.262
 11
-14.477
 20
-6.416
 21
-4.66
  0
LINE
  8
0
 10
-14.477
 11
-15.165
 20
-4.66
 21
-3.935
  0
LINE
  8
0
 10
-15.165
 11
-15.957
 20
-3.935
 21
-3.514
  0
LINE
  8
0
 10
-15.957
 11
-16.98
 20
-3.514
 21
-3.689
  0
LINE
  8
0
 10
-16.98
 11
-18.039
 20
-3.689
 21
-4.186
  0
LINE
  8
0
 10
-18.039
 11
-19.789
 20
-4.186
 21
-4.977
  0
LINE
  8
0
 10
-19.789
 11
-21.809
 20
-4.977
 21
-5.776
  0
LINE
  8
0
 10
-21.809
 11
-23.764
 20
-5.776
 21
-6.424
  0
LINE
  8
0
 10
-23.764
 11
-25.708
 20
-6.424
 21
-6.944
  0
LINE
  8
0
 10
-25.708
 11
-27.744
 20
-6.944
 21
-7.364
  0
LINE
  8
0
 10
-27.744
 11
-29.722
 20
-7.364
 21
-7.677
  0
LINE
  8
0
 10
-29.722
 11
-31.762
 20
-7.677
 21
-7.934
  0
LINE
  8
0
 10
-31.762
 11
-32.843
 20
-7.934
 21
-8.036
  0
LINE
  8
0
 10
-32.843
 11
-33.795
 20
-8.036
 21
-7.891
  0
LINE
  8
0
 10
-33.795
 11
-34.161
 20
-7.891
 21
-7.589
  0
LINE
  8
0
 10
-34.161
 11
-34.396
 20
-7.589
 21
-7.122
  0
LINE
  8
0
 10
-34.396
 11
-34.517
 20
-7.122
 21
-6.042
  0
ENDSEC
  0
SECTION
  2
OBJECTS
  0
DICTIONARY
  0
ENDSEC
  0
EOF
