<?xml version="1.0" encoding="UTF-8" standalone="no"?>
<!-- Created with Inkscape (http://www.inkscape.org/) -->

<svg
   xmlns:dc="http://purl.org/dc/elements/1.1/"
   xmlns:cc="http://creativecommons.org/ns#"
   xmlns:rdf="http://www.w3.org/1999/02/22-rdf-syntax-ns#"
   xmlns:svg="http://www.w3.org/2000/svg"
   xmlns="http://www.w3.org/2000/svg"
   xmlns:sodipodi="http://sodipodi.sourceforge.net/DTD/sodipodi-0.dtd"
   xmlns:inkscape="http://www.inkscape.org/namespaces/inkscape"
   width="8640"
   height="1440"
   id="svg2"
   version="1.1"
   inkscape:version="0.48.3.1 r9886"
   sodipodi:docname="flames.svg">
  <defs
     id="defs4">
    <inkscape:path-effect
       bendpath3-nodetypes="cc"
       bendpath1-nodetypes="cc"
       bendpath4-nodetypes="cc"
       bendpath2-nodetypes="cc"
       bendpath4="m 1069.3106,165.77666 c 127.8713,158.1149 196.7727,394.85669 -36.2466,379.86658"
       bendpath3="m 1071.0156,512.92585 c 590.7169,313.68065 850.6344,141.71219 1131.161,0"
       bendpath2="M 2195.9665,20.978172 C 1998.7223,130.5552 2274.2049,402.07931 2279.8226,519.3549"
       bendpath1="m 1071.0156,161.73864 c 362.3705,-379.49755 745.2209,-295.77603 1131.161,0"
       xx="true"
       yy="false"
       is_visible="true"
       id="path-effect3019"
       effect="envelope" />
    <inkscape:path-effect
       effect="envelope"
       id="path-effect3071"
       is_visible="true"
       yy="false"
       xx="true"
       bendpath1="m 2032.3231,1272.2357 c 569.3571,-362.77672 1481.7915,-536.36636 1643.7857,0"
       bendpath2="m 3629.9494,1152.2357 c 135.8664,280.526 -127.0856,938.0671 10.2577,1095.1011"
       bendpath3="m 2032.3231,2104.4797 c 547.9286,648.0448 1095.8571,91.1049 1643.7857,0"
       bendpath4="m 2032.3231,1272.2357 c 316.3493,416.2631 -70.7834,741.9437 -82.0611,923.6725"
       bendpath2-nodetypes="cc"
       bendpath4-nodetypes="cc"
       bendpath1-nodetypes="cc"
       bendpath3-nodetypes="cc" />
    <inkscape:path-effect
       effect="envelope"
       id="path-effect3069"
       is_visible="true"
       yy="true"
       xx="true"
       bendpath1="m 2125.7143,-125.76431 1831.4286,0"
       bendpath2="m 3957.1429,-125.76431 0,832.24398"
       bendpath3="m 2125.7143,706.47967 1831.4286,0"
       bendpath4="m 2125.7143,-125.76431 0,832.24398" />
    <inkscape:path-effect
       bendpath3-nodetypes="cc"
       bendpath1-nodetypes="cc"
       bendpath4-nodetypes="cc"
       bendpath2-nodetypes="cc"
       bendpath4="m 2068.5715,-76.595856 c 513.9034,624.946726 227.549,571.804906 45.7142,919.640236"
       bendpath3="m 2125.7143,671.61581 c 956.4119,712.22059 1377.2365,321.76132 1831.4286,0"
       bendpath2="m 3968.5715,-23.58288 c 273.0894,305.94046 112.3113,534.94718 80,801.22458"
       bendpath1="m 2125.7143,-125.76431 c 626.7401,-357.80544 1235.135,-312.01803 1831.4286,0"
       xx="true"
       yy="true"
       is_visible="true"
       id="path-effect3049"
       effect="envelope" />
    <inkscape:path-effect
       effect="envelope"
       id="path-effect3023"
       is_visible="true"
       yy="false"
       xx="true"
       bendpath1="m -28.384456,180.77684 c 362.370416,-379.49755 745.220856,-295.77603 1131.160956,0"
       bendpath2="m 1096.5664,40.01637 c -197.24418,109.57703 78.2384,381.10114 83.8561,498.37673"
       bendpath3="m -28.384456,531.96405 c 590.716886,313.68065 850.634376,141.71219 1131.160956,0"
       bendpath4="M -30.089505,184.81486 C 97.781827,342.92976 166.68324,579.67155 -66.336065,564.68144"
       bendpath2-nodetypes="cc"
       bendpath4-nodetypes="cc"
       bendpath1-nodetypes="cc"
       bendpath3-nodetypes="cc" />
    <inkscape:path-effect
       effect="skeletal"
       id="path-effect2987"
       is_visible="true"
       pattern="M 0,0 1,0"
       copytype="repeated"
       prop_scale="1"
       scale_y_rel="false"
       spacing="0"
       normal_offset="0"
       tang_offset="0"
       prop_units="false"
       vertical_pattern="false"
       fuse_tolerance="0" />
  </defs>
  <sodipodi:namedview
     id="base"
     pagecolor="#ffffff"
     bordercolor="#666666"
     borderopacity="1.0"
     inkscape:pageopacity="0.0"
     inkscape:pageshadow="2"
     inkscape:zoom="0.12649826"
     inkscape:cx="2974.966"
     inkscape:cy="-268.66016"
     inkscape:document-units="px"
     inkscape:current-layer="layer1"
     showgrid="false"
     units="in"
     inkscape:window-width="1280"
     inkscape:window-height="776"
     inkscape:window-x="0"
     inkscape:window-y="24"
     inkscape:window-maximized="1" />
  <metadata
     id="metadata7">
    <rdf:RDF>
      <cc:Work
         rdf:about="">
        <dc:format>image/svg+xml</dc:format>
        <dc:type
           rdf:resource="http://purl.org/dc/dcmitype/StillImage" />
        <dc:title />
      </cc:Work>
    </rdf:RDF>
  </metadata>
  <g
     inkscape:label="Layer 1"
     inkscape:groupmode="layer"
     id="layer1"
     transform="translate(0,387.64025)">
    <path
       style="fill:none;stroke:#000000;stroke-width:0.41680205px;stroke-linecap:butt;stroke-linejoin:miter;stroke-opacity:1"
       d="m 0.11862595,560.93499 c 2.71058115,0.79135 5.45310945,1.52803 8.22826285,2.20223 10.8219572,2.61944 22.1416982,4.18881 33.8062882,3.88786 3.259962,-0.0884 6.536782,-0.33031 9.817725,-0.74134 7.177433,-0.88061 14.382076,-2.54121 21.490547,-5.11762 8e-6,0 1.6e-5,-10e-6 2.4e-5,-10e-6 19.656472,-7.41691 37.187257,-21.06424 49.587257,-39.28982 1.31247,-1.92265 2.57862,-3.87634 3.7986,-5.85798 11.10234,-17.97151 18.416,-38.21914 22.09546,-58.49963 2.10255,-10.88784 3.50667,-22.0453 4.29038,-33.37176 1.07371,-15.67235 0.96146,-31.87813 -0.10995,-48.4735 0,0 0,0 0,-1e-5 -0.95493,-15.80154 -2.65282,-32.33494 -4.97951,-49.67499 -2.20097,-16.49653 -4.7821,-34.17242 -7.56389,-53.22608 0,0 0,-10e-6 0,-2e-5 -0.28849,-1.94445 -0.57387,-3.90709 -0.85579,-5.88822 -2.27042,-16.1976 -4.3114,-33.78185 -5.95447,-52.9416 0,-1e-5 0,-3e-5 0,-4e-5 -1.7593,-20.60451 -2.32791,-42.77563 -1.3346,-66.64364 1e-5,0 1e-5,-1e-5 1e-5,-2e-5 1.17208,-23.94685 4.09648,-48.135911 9.12367,-72.365582 4.57569,-21.274151 9.82743,-41.559571 15.79002,-60.571644 0.29948,12.197478 0.53179,26.488097 0.80353,43.062896 0.46412,18.940826 2.3666,39.385149 6.0191,61.34189 0,2e-5 0,3e-5 0,4e-5 3.88361,21.84442 9.3084,43.38941 16.48607,64.3945 6.71332,19.48492 14.06303,38.19278 22.09316,55.91846 0.98722,2.17066 1.98478,4.33012 2.99271,6.47806 0,1e-5 10e-6,3e-5 10e-6,4e-5 9.81364,21.03304 19.82387,41.54414 29.95646,61.34285 10.71699,20.73822 21.19486,41.5879 31.32375,62.46508 10e-6,1e-5 10e-6,1e-5 10e-6,2e-5 10.82249,21.86627 20.97428,44.64111 30.14993,68.29341 0,2e-5 0,3e-5 1e-5,4e-5 6.57015,17.15455 12.61236,35.07055 18.02299,53.76264 10.7368,34.9285 15.72282,75.19915 13.32963,120.59252 -0.25758,5.01524 -0.60561,10.09239 -1.0462,15.23117 0,10e-6 0,10e-6 0,2e-5 -5.59009,49.84319 -24.3054,97.35785 -57.00609,140.478 -11.69037,14.6395 -23.8945,27.51819 -36.52193,38.57136 -5.75661,5.15812 -11.6183,9.87825 -17.57749,14.15346 -7.86081,5.61735 -15.62529,10.59799 -23.27462,14.93959 9.59419,-2.65809 19.38986,-6.00436 29.38034,-10.06371 7.55576,-3.10948 15.06745,-6.7093 22.52658,-10.80757 16.35155,-8.72813 32.53435,-19.55482 48.45999,-32.54639 44.41112,-38.75484 76.18512,-84.60582 93.795,-136.08543 1.71998,-5.27289 3.34278,-10.50679 4.86907,-15.69974 13.93601,-46.9749 20.02356,-90.52461 18.80017,-129.26229 -0.18229,-20.70942 -1.15367,-40.99455 -2.82828,-60.80078 -2.38383,-27.27458 -6.0728,-54.39599 -10.79414,-81.28046 -4.28883,-25.69494 -9.13034,-52.30015 -14.36309,-79.84615 -4.95102,-26.33272 -9.74693,-54.74429 -14.16221,-85.29212 -10e-6,-2e-5 -10e-6,-4e-5 -10e-6,-5e-5 -0.46264,-3.12028 -0.90811,-6.27253 -1.33607,-9.45678 -3.4058,-25.99285 -5.65828,-54.49583 -6.58509,-85.532387 -0.99936,-33.475947 1.24854,-69.277184 6.99701,-107.3158217 6.13693,-38.2410283 16.17174,-75.4917433 30.22084,-111.5159813 0,-1e-5 1e-5,-2e-5 1e-5,-4e-5 15.40762,-38.25155 32.43631,-71.97291 50.95453,-100.90711 12.06907,-18.87786 23.68973,-36.02914 34.80753,-51.42711 -5.25137,12.87429 -11.27228,27.60551 -18.0144,44.24409 -10.48406,25.56106 -20.07537,56.34273 -28.4763,92.3983 -7.51517,33.99292 -11.29458,69.777147 -11.16366,107.184582 0,1.3e-5 0,2.7e-5 0,4e-5 0.55215,37.1891493 4.60566,72.601987 12.14777,106.010538 7.05032,30.95228 15.52865,59.61006 25.35568,85.85349 1.21224,3.21609 2.44495,6.40209 3.69795,9.55781 12.16064,30.88838 24.8835,59.88797 38.01014,86.90904 13.88229,28.23805 27.58324,55.7986 40.98665,82.64206 10e-6,1e-5 10e-6,2e-5 2e-5,3e-5 14.36172,28.06572 27.9165,56.7484 40.43605,85.98669 8.95892,21.25009 17.3499,43.25863 25.11423,66.00463 15.45881,42.57522 23.33338,91.64186 23.03432,146.60401 -0.0248,6.07743 -0.15007,12.22588 -0.37659,18.44457 0,2e-5 0,4e-5 0,7e-5 -4.27823,60.87432 -24.392,116.84786 -59.80219,166.94988 -12.61229,16.80975 -25.45669,31.25425 -38.47199,43.35473 -5.9278,5.67218 -11.91325,10.7777 -17.95189,15.31955 -7.93556,5.94357 -15.60924,11.09026 -23.01611,15.45266 11.26723,-5.27407 22.719,-11.35247 34.34704,-18.2334 8.80407,-5.2436 17.50747,-11.05322 26.10667,-17.42447 18.85632,-13.6313 37.31733,-29.5875 55.33513,-47.81718 50.30878,-53.96352 83.88469,-113.16754 101.5165,-176.05394 10e-6,-2e-5 10e-6,-5e-5 2e-5,-7e-5 1.68578,-6.45149 3.2667,-12.82442 4.74449,-19.11837 13.50604,-56.94183 18.62203,-107.31386 16.68702,-150.9643 -0.51132,-23.33791 -1.60274,-45.80673 -3.15911,-67.4165 0,-10e-6 0,-2e-5 0,-3e-5 -2.22383,-29.76148 -5.29171,-58.7099 -8.81739,-86.83119 0,-2e-5 0,-3e-5 0,-5e-5 -3.14963,-26.87359 -6.3283,-54.14674 -9.27661,-81.73947 -2.79181,-26.37179 -4.87476,-54.23426 -5.94695,-83.35544 -0.12124,-2.97447 -0.21949,-5.97117 -0.29446,-8.98965 -0.51835,-24.64103 0.50023,-51.08473 3.21349,-79.026341 2.89045,-30.13706 9.28122,-61.4630874 19.16778,-93.469998 10.21073,-32.182011 24.24832,-62.255471 41.77537,-89.933561 10e-6,-2e-5 3e-5,-3e-5 4e-5,-5e-5 19.08522,-29.36699 39.70358,-53.42513 61.40412,-72.41364 11.72152,-10.18023 23.1838,-19.0555 34.3643,-26.69404 -7.3156,10.63057 -14.82109,22.23276 -22.45273,34.80749 -14.20374,23.36106 -26.93441,50.63143 -37.81075,81.55012 -9.90563,29.092729 -16.24817,59.327119 -19.04699,90.35824 0,1.1e-5 0,2.2e-5 0,3.2e-5 -2.50762,30.88631 -1.77131,60.168025 1.9134,87.651165 3.44259,25.505433 8.3408,49.069833 14.4591,70.679253 0.75542,2.64588 1.52927,5.26655 2.32109,7.86197 1e-5,1e-5 1e-5,3e-5 2e-5,4e-5 7.67949,25.4169 16.15585,49.09772 25.15606,71.08589 9.51852,23.03455 19.19855,45.1862 28.89391,66.50165 0,0 0,10e-6 1e-5,10e-6 10.369,22.32444 20.44605,44.62183 30.04916,66.86829 6.87886,16.13764 13.49829,32.5389 19.8296,49.18108 12.38621,31.10415 20.47093,65.41577 24.3554,102.36642 0.43204,4.08303 0.81239,8.19773 1.14122,12.34339 1.75004,40.27501 -5.0059,76.79617 -19.26932,109.61584 -5.0444,11.13939 -10.08464,20.90831 -15.10413,29.37263 -2.28203,3.94745 -4.57082,7.57908 -6.86652,10.90279 -1.2896,1.88195 -2.54529,3.6834 -3.7677,5.40577 2.27212,-2.58342 4.55088,-5.24056 6.83606,-7.97028 4.02731,-4.79818 7.96472,-9.87872 11.81421,-15.23253 8.44611,-11.54435 16.52167,-24.20245 24.225,-37.88599 21.57254,-39.69372 33.24184,-80.68153 36.87823,-122.13092 0,-2e-5 0,-4e-5 10e-6,-5e-5 0.27996,-4.31236 0.50727,-8.5704 0.6837,-12.77492 1.63938,-38.08582 -0.87223,-71.73513 -6.22877,-101.59118 -2.63752,-16.00284 -5.4227,-31.4129 -8.26339,-46.28635 -3.97631,-20.54974 -8.04565,-40.45507 -11.86181,-59.78491 0,-1e-5 -10e-6,-2e-5 -10e-6,-4e-5 -3.53507,-18.41857 -6.68139,-36.80737 -9.19437,-55.12152 -2.37727,-17.42929 -3.97054,-35.27927 -4.46657,-53.33059 0,-1e-5 0,-2e-5 0,-3e-5 -0.0552,-1.84207 -0.0941,-3.68984 -0.11635,-5.54281 -0.14538,-15.15123 0.81393,-30.78463 3.05915,-46.59509 2.39565,-16.996046 6.84623,-33.997658 13.36759,-50.484391 6.62774,-16.537061 15.44108,-31.575825 26.07674,-44.818284 1e-5,-10e-6 2e-5,-1.9e-5 3e-5,-2.9e-5 11.50724,-14.1057668 24.28432,-25.3094843 37.79062,-33.866701 15.5785,-9.801722 31.3371,-16.351531 46.9201,-20.387337 -12.0226,10.469262 -23.8299,22.76518 -34.7223,36.97514201 -9.4498,12.33680099 -17.7346,26.26557899 -24.38657,41.52891899 -6.14234,14.282615 -10.39912,29.236647 -12.76194,44.457134 -2.30159,15.204337 -2.78681,30.127287 -1.78787,44.506457 0,10e-6 0,2e-5 0,3e-5 0.93369,13.41297 2.91739,26.27511 5.67062,38.54222 0.33764,1.49821 0.68676,2.98832 1.04686,4.47024 3.51592,14.53318 7.90039,28.42303 12.8309,41.69925 0,1e-5 0,2e-5 0,3e-5 5.216,14.00424 10.9463,27.5127 17.0168,40.58053 0,10e-6 0,2e-5 0,3e-5 6.4268,13.75532 13.1769,27.17686 20.0599,40.27367 4.9468,9.44183 9.9694,18.76053 15.0422,27.94996 9.503,17.08284 18.6945,34.05037 27.6971,50.64476 0.9908,1.8275 1.9795,3.65035 2.9663,5.46824 8.9379,16.97482 17.2757,32.74548 25.5824,47.6695 0,1e-5 10e-5,2e-5 10e-5,2e-5 3.023,5.34558 6.1263,10.51172 9.3028,15.54986 0,10e-6 0,10e-6 0,10e-6 1.4537,2.30987 2.9236,4.589 4.4071,6.8437 5.3289,8.06665 10.9281,15.88138 16.5796,23.68886 5.0186,6.88576 10.0581,13.83191 14.976,20.94507 5.0087,7.24397 9.8755,14.61794 14.1588,22.34304 3.5886,6.48233 6.8002,13.18676 8.9512,20.24437"
       id="path2985"
       inkscape:connector-curvature="0"
       inkscape:path-effect="#path-effect3023"
       inkscape:original-d="M -28.384455,531.96405 135.73093,213.17674 269.84673,511.87321 444.5502,192.8313 628.07705,511.87321 880.42647,195.65957 l 88.23413,311.39189 134.1158,-326.27461 58.2345,403.10764"
       sodipodi:nodetypes="ccccccccc" />
    <path
       sodipodi:nodetypes="cccccccc"
       inkscape:connector-curvature="0"
       id="path3047"
       d="m 1947.4406,2192.4567 c 2.9153,-10.4127 6.8073,-20.7381 11.3016,-30.9727 0.057,-0.1301 0.1145,-0.2601 0.1718,-0.3902 5.3418,-12.1087 11.5054,-24.0691 18.1609,-35.91 0.2411,-0.429 0.4828,-0.8578 0.7252,-1.2864 8.0368,-14.2342 16.6472,-28.3168 25.6339,-42.2732 0,0 0,0 0,0 8.5353,-13.2729 17.3664,-26.5124 26.2705,-39.8389 1.7424,-2.6028 3.4881,-5.2059 5.2365,-7.8093 19.8001,-29.4572 39.8674,-59.2563 59.2728,-89.9982 0,0 0,0 0,0 4.7125,-7.46 9.3823,-14.9698 13.998,-22.5318 0,0 10e-5,0 10e-5,0 17.7704,-29.1736 34.7207,-59.3192 50.2001,-90.7378 7.5146,-15.2406 14.6462,-30.7852 21.3079,-46.6307 11.388,-27.1123 21.4068,-55.1313 29.6308,-84.0547 7.0248,-24.7723 12.5795,-50.1005 16.4728,-75.7984 3.6604,-24.2303 5.8616,-48.735 6.4466,-73.3436 0,0 0,0 0,0 0.6291,-30.2587 -1.1844,-60.2271 -5.3185,-89.4751 0,0 0,0 0,0 -3.5729,-24.9772 -8.7123,-49.1735 -15.3342,-72.2536 -6.1791,-21.3797 -13.4238,-41.6863 -21.5742,-60.7551 -7.5368,-17.6218 -15.5139,-33.8018 -23.7673,-48.3226 -7.9116,-13.8208 -15.5259,-25.9603 -22.6293,-36.1727 11.9975,9.1149 24.2594,19.5582 36.9016,31.5208 13.2051,12.5793 26.1449,26.6215 38.8242,42.3204 13.6936,17.0322 26.5901,35.4524 38.5861,55.4124 12.8637,21.606 24.3375,44.8369 34.3255,69.6967 0,0 0,0 0,0 11.6245,29.0581 20.9134,59.7412 27.6365,91.9449 0,0 0,10e-5 0,10e-5 5.3241,26.1799 8.9273,52.8049 10.8983,79.7316 2.0764,28.5245 2.2723,57.2384 0.6824,85.9551 -1.8749,33.4358 -5.6691,66.4568 -10.9734,98.918 -3.1051,18.9432 -6.7332,37.7207 -10.8027,56.3071 -8.334,38.302 -17.9263,75.8167 -27.9684,112.6174 0,0 0,0 0,0 -2.6195,9.4891 -5.2647,18.9968 -7.9199,28.5273 0,0 0,0 0,0 -10.9519,39.4101 -21.4713,78.7308 -30.1262,118.4485 0,10e-5 0,10e-5 0,10e-5 -0.765,3.5311 -1.5086,7.0918 -2.2294,10.6827 0,0 0,0 0,10e-5 -3.7144,18.6664 -6.6116,37.375 -8.3536,56.2056 -1.9523,19.6987 -1.9026,40.9198 0.6576,63.818 0.067,0.689 0.1383,1.3817 0.2147,2.0783 0,0 0,0 0,0 2.2542,18.9571 8.2482,38.9813 18.7491,60.078 0.1114,0.2346 0.2239,0.4694 0.3374,0.7043 9.1615,18.5263 23.9949,35.6227 45.3302,50.9443 -13.3531,-12.1916 -21.3524,-26.35 -24.0031,-42.4384 -0.031,-0.2038 -0.06,-0.4076 -0.089,-0.6114 -2.7907,-18.1743 -1.6962,-35.7429 3.1619,-52.5568 0.1817,-0.6202 0.3683,-1.2368 0.5598,-1.8496 5.9725,-20.3737 14.1478,-39.5065 24.4074,-57.2344 0,0 0,0 0,-1e-4 9.6147,-16.9795 20.31,-34.2153 31.9261,-51.7928 2.2657,-3.3594 4.5551,-6.694 6.8677,-10.0033 26.1781,-37.1207 54.167,-75.379 83.2762,-115.1495 7.0631,-9.5973 14.137,-19.2396 21.2112,-28.9259 0,0 0,0 0,-10e-5 27.175,-37.6957 54.2378,-77.6225 80.7026,-119.9955 12.8831,-20.5682 25.3777,-41.7189 37.4102,-63.4455 20.5634,-37.2818 39.8081,-76.3981 57.4059,-117.3186 15.016,-35.2529 28.089,-71.2319 39.0542,-107.7597 10.2946,-34.535 18.7975,-69.2766 25.3696,-104.0619 0,0 0,0 0,0 7.6579,-42.8168 12.4569,-83.7882 14.4305,-122.5212 0,-10e-5 0,-10e-5 0,-10e-5 1.4589,-33.2712 1.3902,-63.7928 -0.2669,-91.2612 -1.602,-25.1469 -3.8127,-47.2628 -6.6424,-66.204 -2.474,-17.2014 -4.1937,-30.2632 -5.2723,-38.952 -1.1506,-8.1503 0.2727,-11.7114 4.1178,-10.3358 6.9229,-2.4083 16.1403,-0.01 27.8441,6.9713 12.1332,7.4642 24.7873,19.2842 38.1245,35.3474 14.5177,17.7279 28.3035,38.7156 41.4218,62.9282 14.0259,26.4838 26.3621,56.234 37.144,89.1074 0,0 0,0 0,10e-5 12.3812,38.2451 21.8479,79.1377 28.4534,122.5145 0,0 0,0 0,10e-5 5.0017,35.236 8.0606,70.7418 9.3369,106.4214 1.3153,37.7265 0.5205,75.2911 -2.2251,112.5924 -3.2469,43.2672 -8.0069,85.2297 -13.9198,125.8568 -3.4643,23.6673 -7.3379,46.9372 -11.5456,69.8056 -8.5549,47.1075 -17.227,92.5426 -25.3702,136.4403 0,0 0,0 0,0 -2.1391,11.2658 -4.2339,22.5646 -6.2681,33.8982 0,0 0,0 -1e-4,0 -8.4149,47.0034 -14.5487,93.6401 -17.1374,140.2015 0,0 0,0 0,0 -0.2301,4.1566 -0.4194,8.362 -0.5664,12.6162 0,0 0,0 0,10e-5 -0.8105,22.3341 -0.057,44.5392 2.5527,66.6433 2.5273,23.0508 8.429,48.5259 18.2375,76.3401 0.2769,0.8365 0.5619,1.6793 0.8551,2.5281 0,1e-4 0,1e-4 0,1e-4 8.352,22.9458 22.9318,47.3323 44.4021,72.878 0.2282,0.2886 0.4581,0.5772 0.6898,0.8659 18.6254,22.7964 46.4484,42.5596 83.9756,58.722 -32.0456,-16.2737 -54.3811,-36.1277 -67.5669,-58.9949 -0.1626,-0.2896 -0.3233,-0.5791 -0.4824,-0.8685 -15.0315,-25.6339 -23.2212,-50.1019 -25.271,-73.1506 -0.065,-0.8525 -0.1221,-1.6988 -0.1711,-2.5391 -2.2365,-27.9369 -0.6555,-53.565 4.1895,-76.8361 0,0 0,0 0,0 4.4008,-22.311 10.5728,-44.7533 18.223,-67.3452 1.486,-4.3069 3.0113,-8.5669 4.5744,-12.78 17.6851,-47.2118 38.5524,-94.6434 61.4003,-142.4755 5.5402,-11.5377 11.1253,-23.0443 16.7402,-34.5208 0,0 1e-4,-1e-4 1e-4,-1e-4 21.5352,-44.6904 43.3949,-90.8805 65.0655,-138.5414 10.5659,-23.1357 20.7968,-46.6239 30.6428,-70.4444 16.824,-40.879 32.5657,-82.8906 47.0138,-125.9158 12.3222,-37.0705 22.922,-74.2383 31.7594,-111.4053 8.2898,-35.1397 15.1014,-69.9885 20.3644,-104.4758 0,-10e-5 0,-10e-5 0,-10e-5 6.057,-42.4494 9.8528,-82.4926 11.3954,-120.1523 0,0 0,0 0,-10e-5 1.1062,-32.3388 1.0835,-61.8934 -0.2752,-88.6924 -1.3181,-24.5664 -3.1108,-46.4131 -5.5907,-65.6436 -2.1693,-17.5244 -3.8312,-31.5827 -5.434,-42.1783 -1.6317,-9.9934 -1.5388,-16.3306 -0.3323,-18.8073 10.5851,2.4012 22.4858,9.4668 35.8309,20.528 13.8792,11.7085 27.6003,27.2698 41.3838,46.1979 14.9577,20.7048 28.8301,44.0173 41.7973,69.6328 13.8808,27.8686 26.0434,58.0439 36.8384,90.1189 0,0 0,0 0,0 12.4763,37.4085 22.509,76.281 30.4854,116.2471 0,0 0,0 0,10e-5 6.238,32.4795 11.0936,64.7594 14.8488,96.7586 3.9612,33.8739 6.6107,67.2074 8.2459,99.9645 1.8918,38.0955 3.1007,74.8396 4.0084,110.3525 0.5275,20.7172 0.9399,41.05 1.3196,61.0227 0.8491,41.1569 2.2667,80.8022 4.7563,119.2144 0,0 0,0 0,0 0.634,9.9078 1.3417,19.8024 2.1398,29.6823 0,0 0,0 0,0 3.2671,40.8407 8.6788,80.9568 17.2006,120.4358 0,0 0,0 0,0 0.7519,3.505 1.5338,7.0255 2.3476,10.5604 0,0 0,0 0,10e-5 4.1327,18.3082 9.2909,36.3959 15.6723,54.2399 6.629,18.6936 15.1183,38.1169 25.9074,57.8241 0.3183,0.5931 0.6404,1.1879 0.9661,1.7843 0,1e-4 10e-5,1e-4 10e-5,1e-4 9.0889,16.2973 21.0352,32.7377 36.1912,48.6778 0.1619,0.1758 0.3246,0.3516 0.4879,0.5273 12.9801,13.8483 29.698,26.0365 50.0574,35.8465 -15.8832,-12.5235 -27.1962,-27.2182 -34.6117,-43.1266 -0.093,-0.2018 -0.1848,-0.4038 -0.2761,-0.6057 -8.5722,-18.4159 -13.541,-36.9351 -15.849,-55.0965 -0.081,-0.6627 -0.1583,-1.3237 -0.2323,-1.983 -2.6327,-21.9042 -2.905,-43.2256 -1.6048,-63.8446 0,-1e-4 0,-1e-4 0,-1e-4 1.1798,-19.6519 3.4695,-39.299 6.5319,-58.9007 0.5965,-3.8066 1.218,-7.5979 1.8621,-11.374 7.2912,-42.6347 17.0042,-84.9545 27.7515,-126.968 2.6082,-10.1859 5.2607,-20.3416 7.9394,-30.4679 0,0 0,0 0,0 10.2969,-39.1149 21.0162,-78.233 31.6908,-117.2745 5.1883,-18.9393 10.3075,-37.8615 15.318,-56.7548 8.5645,-32.3298 16.8355,-64.6028 24.6571,-96.74 6.6811,-27.5174 12.9084,-54.8248 18.6452,-81.9122 5.3986,-25.5323 10.3873,-50.8287 14.8721,-75.8885 0,0 0,0 0,0 5.4616,-30.8073 10.1828,-61.0279 13.9908,-90.824 0,0 0,0 0,0 3.2232,-25.4043 5.8655,-50.4145 7.5349,-75.1078 1.5502,-22.9583 2.3087,-45.626 1.9024,-68.0948 -0.3709,-20.8723 -1.7301,-41.5051 -4.7147,-61.8206 -2.8519,-19.388 -7.1452,-38.4852 -13.6642,-56.9158"
       style="fill:none;stroke:#000000;stroke-width:0.75710064px;stroke-linecap:butt;stroke-linejoin:miter;stroke-opacity:1"
       inkscape:path-effect="#path-effect3071"
       inkscape:original-d="m 2173.115,2046.017 118.2134,-722.9535 148.7356,722.9535 392.3545,-722.9535 153.8644,722.9535 274.3917,-722.9535 292.3426,722.9535 123.0916,-722.9535" />
    <path
       style="fill:none;stroke:#000000;stroke-width:1px;stroke-linecap:butt;stroke-linejoin:miter;stroke-opacity:1"
       d="m 3922.8234,870.53905 268.7784,-924.91393 458.5043,774.71423 79.0525,-600.79879 371.5466,608.70409 110.6735,-1027.6822 324.1151,877.48246 55.3368,-537.55682 166.0102,276.68366 0,0"
       id="path3073"
       inkscape:connector-curvature="0"
       sodipodi:nodetypes="cccccccccc" />
    <path
       sodipodi:nodetypes="ccccccccc"
       inkscape:original-d="m 1071.0156,512.92585 164.1154,-318.78731 134.1158,298.69647 174.7035,-319.04191 183.5268,319.04191 252.3495,-316.21364 88.2341,311.39189 134.1158,-326.27461 58.2345,403.10764"
       inkscape:path-effect="#path-effect3019"
       inkscape:connector-curvature="0"
       id="path3017"
       d="m 1099.188,540.45026 c 2.7032,0.79613 5.4383,1.53782 8.206,2.21718 10.7546,2.63362 22.0015,4.23545 33.5876,3.9839 3.2377,-0.0743 6.4926,-0.30034 9.7518,-0.69382 7.1298,-0.84331 14.2877,-2.45976 21.3501,-4.98542 19.5274,-7.26375 36.9818,-20.75138 49.3523,-38.81003 1.3101,-1.90584 2.5741,-3.84307 3.7922,-5.80858 11.0852,-17.8259 18.4032,-37.95549 22.1069,-58.14212 2.1138,-10.83789 3.5298,-21.94874 4.3262,-33.23174 0,-10e-6 0,-10e-6 0,-2e-5 1.0915,-15.61291 0.9982,-31.76242 -0.053,-48.30442 0,-10e-6 0,-10e-6 0,-2e-5 -0.9367,-15.75021 -2.6169,-32.231 -4.9265,-49.51731 -2.1848,-16.44474 -4.7521,-34.06369 -7.5225,-53.05579 0,0 0,-1e-5 0,-2e-5 -0.2873,-1.93816 -0.5715,-3.89443 -0.8524,-5.86911 -2.262,-16.14504 -4.299,-33.67029 -5.9426,-52.76523 -1.7598,-20.5343 -2.3394,-42.63037 -1.3672,-66.41932 0,-1e-5 0,-2e-5 0,-2e-5 1.1499,-23.8671 4.0409,-47.982069 9.0244,-72.143412 4.5319,-21.194517 9.7365,-41.412751 15.6488,-60.3703536 0.3444,12.1349846 0.6185,26.3512666 0.9285,42.8399206 0.5069,18.860109 2.4405,39.221771 6.1129,61.094485 0,2e-5 0,3e-5 0,5e-5 3.9024,21.76099 9.3361,43.23013 16.5134,64.16683 6.713,19.42171 14.0585,38.07422 22.081,55.7521 0.9862,2.16481 1.9828,4.3185 2.9896,6.46077 0,2e-5 0,3e-5 0,4e-5 9.8035,20.97757 19.802,41.44004 29.9216,61.19652 10.7033,20.69439 21.1676,41.50371 31.2831,62.3438 0,1e-5 0,1e-5 0,2e-5 10.8078,21.82774 20.9462,44.56443 30.1095,68.17901 6.5614,17.12692 12.5955,35.01449 17.9985,53.67743 10.7204,34.8736 15.7034,75.07852 13.3176,120.39634 -0.2568,5.00685 -0.6039,10.07549 -1.0435,15.20564 0,2e-5 0,4e-5 0,6e-5 -5.576,49.75647 -24.2526,97.19681 -56.8941,140.25148 -11.6693,14.61841 -23.8531,27.48025 -36.4607,38.52056 -5.7476,5.15197 -11.6004,9.86693 -17.5507,14.13793 -7.8669,5.62457 -15.6378,10.61087 -23.2938,14.95653 9.6024,-2.65104 19.4069,-5.99217 29.4067,-10.04853 7.5458,-3.10026 15.0478,-6.69007 22.4974,-10.77755 16.3305,-8.70511 32.493,-19.50574 48.3989,-32.46853 44.3557,-38.66894 76.1016,-84.43503 93.7046,-135.83016 0,-2e-5 0,-4e-5 0,-6e-5 1.7196,-5.26432 3.3422,-10.48985 4.8683,-15.67462 13.9347,-46.9013 20.03,-90.3936 18.8219,-129.08653 -0.175,-20.68558 -1.1391,-40.94889 -2.8065,-60.73515 -2.3738,-27.24725 -6.053,-54.34355 -10.7652,-81.20493 0,-10e-6 0,-3e-5 0,-4e-5 -4.2804,-25.6727 -9.1144,-52.25585 -14.3409,-79.78013 -4.9451,-26.31183 -9.7368,-54.70116 -14.1498,-85.226 -0.4624,-3.11795 -0.9077,-6.26785 -1.3355,-9.44974 -3.4045,-25.97337 -5.658,-54.45516 -6.5883,-85.469465 -1.003,-33.451821 1.2366,-69.228393 6.9726,-107.242661 0,-2.7e-5 0,-5.4e-5 0,-8.1e-5 6.1241,-38.216392 16.1415,-75.446143 30.1695,-111.453163 0,-1e-5 0,-2e-5 0,-4e-5 15.3848,-38.23351 32.3894,-71.94405 50.8829,-100.87364 12.0386,-18.8527 23.6306,-35.98529 34.7216,-51.37081 -5.2293,12.84894 -11.2265,27.54947 -17.9438,44.15207 -10.4584,25.53613 -20.0271,56.29049 -28.4088,92.3177 0,3e-5 0,5e-5 0,7e-5 -7.4975,33.96624 -11.2638,69.724689 -11.1236,107.107906 0.5612,37.165056 4.6202,72.557232 12.1653,105.948306 7.053,30.936062 15.5326,59.580628 25.3599,85.813398 1.2123,3.21477 2.445,6.3995 3.698,9.55396 0,2e-5 0,4e-5 10e-5,6e-5 12.1607,30.8763 24.8828,59.86676 38.0082,86.88115 13.8811,28.23108 27.5804,55.78692 40.9819,82.62767 0,1e-5 0,2e-5 0,2e-5 14.3596,28.06294 27.912,56.74478 40.4287,85.98427 0,2e-5 0,3e-5 10e-5,5e-5 8.9568,21.25091 17.3454,43.26131 25.107,66.01032 15.4536,42.58085 23.3216,91.65723 23.0108,146.63481 -0.026,6.07913 -0.1527,12.22936 -0.3806,18.44989 0,2e-5 0,3e-5 0,4e-5 -4.2917,60.8918 -24.4262,116.88769 -59.8699,167.013 -12.6243,16.81782 -25.4819,31.26999 -38.5115,43.37743 -5.9342,5.6754 -11.9264,10.78397 -17.972,15.32866 -7.9626,5.9607 -15.6624,11.12063 -23.0944,15.49241 11.2976,-5.27553 22.781,-11.35952 34.4419,-18.25027 8.8091,-5.23941 17.5177,-11.04525 26.1223,-17.41314 18.8681,-13.62384 37.3416,-29.57451 55.3725,-47.80102 50.3452,-53.95672 83.955,-113.16632 101.6095,-176.0708 1.6881,-6.4532 3.2712,-12.82788 4.7512,-19.12363 13.5255,-56.95779 18.6546,-107.3492 16.7233,-151.01777 -0.5088,-23.34749 -1.5988,-45.82657 -3.1552,-67.44701 0,-10e-6 0,-2e-5 0,-3e-5 -2.2238,-29.77602 -5.2941,-58.74064 -8.8249,-86.87946 -3.1543,-26.89049 -6.3395,-54.18322 -9.2964,-81.7985 -2.8,-26.39353 -4.8923,-54.28219 -5.9752,-83.4348 -0.1223,-2.97769 -0.2217,-5.97769 -0.2978,-8.99953 -0.5271,-24.668357 0.4831,-51.14471 3.1885,-79.125193 2.8821,-30.179123 9.268,-61.55341 19.1541,-93.615847 10.2109,-32.237923 24.2536,-62.36897 41.7922,-90.10627 0,-10e-6 10e-5,-2e-5 10e-5,-3e-5 19.0982,-29.42976 39.7314,-53.5468 61.4494,-72.58878 11.7139,-10.19428 23.1686,-19.08622 34.3417,-26.74349 -7.3117,10.63213 -14.8141,22.23527 -22.4437,34.81036 -14.2207,23.39578 -26.9682,50.71009 -37.8614,81.68265 -9.9207,29.143762 -16.2728,59.432039 -19.0754,90.520397 0,1.1e-5 0,2.1e-5 0,3.2e-5 -2.5105,30.94304311 -1.772,60.277708 1.9204,87.810052 3.4498,25.550802 8.3566,49.156129 14.4854,70.801849 0.7567,2.65036 1.5319,5.27545 2.3251,7.87523 0,1e-5 0,2e-5 0,3e-5 7.6926,25.4594 16.1818,49.17952 25.1948,71.20354 9.5321,23.07168 19.2245,45.25998 28.9308,66.61143 0,1e-5 0,1e-5 0,2e-5 10.3811,22.36188 20.4678,44.69916 30.0779,66.98795 0,2e-5 0,3e-5 0,4e-5 6.8838,16.16857 13.5067,32.60311 19.8399,49.28096 12.3922,31.17123 20.4649,65.56736 24.3172,102.6202 0.4285,4.09434 0.8051,8.22055 1.1299,12.37794 0,1e-5 0,1e-5 0,2e-5 1.7076,40.39184 -5.1297,77.02224 -19.5157,109.9405 -5.0884,11.17176 -10.1735,20.96767 -15.2388,29.4534 -2.303,3.95758 -4.6129,7.598 -6.93,10.92912 -1.3085,1.89593 -2.5828,3.71016 -3.8232,5.44412 2.2951,-2.5974 4.597,-5.26967 6.9056,-8.01566 4.0475,-4.8019 8.0049,-9.8876 11.8744,-15.24804 8.49,-11.55807 16.6095,-24.23598 24.3566,-37.94563 21.6947,-39.77529 33.4508,-80.8619 37.1337,-122.42628 0,-2e-5 0,-3e-5 0,-5e-5 0.2844,-4.3238 0.5158,-8.59314 0.6962,-12.8088 1.6751,-38.1864 -0.8213,-71.92354 -6.1843,-101.85173 -2.6394,-16.04115 -5.4285,-31.4881 -8.275,-46.39685 0,-2e-5 0,-3e-5 0,-4e-5 -3.9846,-20.598 -8.0657,-40.55105 -11.8974,-59.92785 0,-1e-5 0,-3e-5 0,-4e-5 -3.5491,-18.46375 -6.7116,-36.90072 -9.2429,-55.26614 -2.3946,-17.47874 -4.0056,-35.38502 -4.5198,-53.49991 -0.057,-1.84859 -0.098,-3.70299 -0.122,-5.56269 -0.1599,-15.20595 0.7873,-30.90255 3.0228,-46.785205 2.3853,-17.074248 6.834,-34.16245 13.3623,-50.74487 6.636,-16.633492 15.4678,-31.767028 26.1328,-45.1027475 0,-4.8e-6 0,-9.7e-6 0,-1.45e-5 11.5398,-14.204448 24.3519,-25.494638 37.8964,-34.125365 15.611,-9.878504 31.3946,-16.495928 46.9961,-20.587332 -12.0404,10.505605 -23.8737,22.851731 -34.8027,37.125703 -9.4887,12.4019257 -17.8104,26.4110443 -24.4979,41.77035 -6.1743,14.373424 -10.4523,29.422163 -12.8256,44.741682 0,1.4e-5 0,2.7e-5 0,4.1e-5 -2.3106,15.302566 -2.7955,30.3163 -1.7864,44.778978 0,1e-5 0,1e-5 0,2e-5 0.9432,13.49001 2.9393,26.42096 5.7083,38.74858 0.3396,1.50564 0.6907,3.0031 1.0529,4.49225 3.5357,14.60384 7.94,28.558 12.8906,41.89204 5.2373,14.06419 10.987,27.63071 17.0753,40.75464 0,1e-5 0,2e-5 0,3e-5 6.4462,13.81362 13.2122,27.29622 20.1074,40.45678 4.9553,9.48845 9.9844,18.85683 15.0615,28.09899 9.5148,17.18201 18.6916,34.27315 27.6513,51.01523 0.9861,1.84386 1.9698,3.68335 2.9512,5.51818 8.8804,17.14376 17.1053,33.06941 25.2426,48.13185 0,0 0,1e-5 0,1e-5 2.9625,5.39084 6.0042,10.59423 9.1182,15.66152 0,0 0,10e-6 0,10e-6 1.4253,2.32371 2.8665,4.6147 4.321,6.87928 5.2263,8.1009 10.729,15.9299 16.2907,23.73152 4.9421,6.87819 9.9087,13.80888 14.7576,20.89865 4.9376,7.21904 9.7367,14.54855 13.9563,22.20948 3.5373,6.43723 6.705,13.06553 8.818,20.01617"
       style="fill:none;stroke:#000000;stroke-width:0.41680205px;stroke-linecap:butt;stroke-linejoin:miter;stroke-opacity:1" />
  </g>
</svg>
