<?xml version="1.0" encoding="UTF-8" standalone="no"?>
<!-- Created with Inkscape (http://www.inkscape.org/) -->

<svg
   xmlns:dc="http://purl.org/dc/elements/1.1/"
   xmlns:cc="http://creativecommons.org/ns#"
   xmlns:rdf="http://www.w3.org/1999/02/22-rdf-syntax-ns#"
   xmlns:svg="http://www.w3.org/2000/svg"
   xmlns="http://www.w3.org/2000/svg"
   xmlns:sodipodi="http://sodipodi.sourceforge.net/DTD/sodipodi-0.dtd"
   xmlns:inkscape="http://www.inkscape.org/namespaces/inkscape"
   width="8640"
   height="1440"
   id="svg2"
   version="1.1"
   inkscape:version="0.48.3.1 r9886"
   sodipodi:docname="flames.svg">
  <defs
     id="defs4">
    <inkscape:path-effect
       bendpath3-nodetypes="cc"
       bendpath1-nodetypes="cc"
       bendpath4-nodetypes="cc"
       bendpath2-nodetypes="cc"
       bendpath4="m 7433.3106,351.77666 c 127.8713,158.1149 172.6155,307.89092 84.5392,365.37229"
       bendpath3="m 7435.0156,698.92585 c 590.7169,313.68065 850.6344,141.71219 1131.161,0"
       bendpath2="M 8559.9665,206.97817 C 8362.7223,316.5552 8716.1821,617.0679 8668.654,748.83778"
       bendpath1="m 7435.0156,347.73864 c 362.3705,-379.49755 745.2209,-295.77603 1131.161,0"
       xx="true"
       yy="false"
       is_visible="true"
       id="path-effect7231"
       effect="envelope" />
    <inkscape:path-effect
       effect="envelope"
       id="path-effect7227"
       is_visible="true"
       yy="false"
       xx="true"
       bendpath1="m 6355.0156,307.73864 c 362.3705,-379.49755 745.2209,-295.77603 1131.161,0"
       bendpath2="M 7479.9665,166.97817 C 7282.7223,276.5552 7616.1821,577.0679 7568.654,708.83778"
       bendpath3="m 6355.0156,658.92585 c 590.7169,313.68065 850.6344,141.71219 1131.161,0"
       bendpath4="m 6353.3106,311.77666 c 127.8713,158.1149 142.3954,293.94316 54.3191,351.42453"
       bendpath2-nodetypes="cc"
       bendpath4-nodetypes="cc"
       bendpath1-nodetypes="cc"
       bendpath3-nodetypes="cc" />
    <inkscape:path-effect
       bendpath3-nodetypes="cc"
       bendpath1-nodetypes="cc"
       bendpath4-nodetypes="cc"
       bendpath2-nodetypes="cc"
       bendpath4="m 5313.3106,251.77666 c 127.8713,158.1149 177.447,443.171 -12.0894,428.18089"
       bendpath3="m 5255.0156,598.92585 c 590.7169,313.68065 850.6344,141.71219 1131.161,0"
       bendpath2="m 6379.9665,106.97817 c -197.2442,109.57703 109.1918,408.26345 61.343,526.70136"
       bendpath1="m 5255.0156,247.73864 c 362.3705,-379.49755 745.2209,-295.77603 1131.161,0"
       xx="true"
       yy="false"
       is_visible="true"
       id="path-effect7223"
       effect="envelope" />
    <inkscape:path-effect
       effect="envelope"
       id="path-effect7221"
       is_visible="true"
       yy="false"
       xx="true"
       bendpath1="m 4155.0156,267.73864 c 362.3705,-379.49755 745.2209,-295.77603 1131.161,0"
       bendpath2="M 5279.9665,126.97817 C 5082.7223,236.5552 5416.1821,537.0679 5368.654,668.83778"
       bendpath3="m 4155.0156,618.92585 c 590.7169,313.68065 850.6344,141.71219 1131.161,0"
       bendpath4="m 4153.3106,271.77666 c 127.8713,158.1149 172.6155,307.89092 84.5392,365.37229"
       bendpath2-nodetypes="cc"
       bendpath4-nodetypes="cc"
       bendpath1-nodetypes="cc"
       bendpath3-nodetypes="cc" />
    <inkscape:path-effect
       bendpath3-nodetypes="cc"
       bendpath1-nodetypes="cc"
       bendpath4-nodetypes="cc"
       bendpath2-nodetypes="cc"
       bendpath4="m 3053.9105,270.81486 c 127.8713,158.1149 196.7727,394.85669 -36.2466,379.86658"
       bendpath3="m 3055.6155,617.96405 c 590.7169,313.68065 850.6344,141.71219 1131.161,0"
       bendpath2="m 4180.5664,126.01637 c -197.2442,109.57703 134.8302,361.84178 83.8561,498.37673"
       bendpath1="m 3055.6155,266.77684 c 362.3705,-379.49755 745.2209,-295.77603 1131.161,0"
       xx="true"
       yy="false"
       is_visible="true"
       id="path-effect7219"
       effect="envelope" />
    <inkscape:path-effect
       effect="envelope"
       id="path-effect7181"
       is_visible="true"
       yy="false"
       xx="true"
       bendpath1="m 2015.0156,227.73864 c 362.3705,-379.49755 745.2209,-295.77603 1131.161,0"
       bendpath2="m 3090.2428,103.55275 c -130.9459,209.02449 127.9621,364.52656 133.5798,481.80215"
       bendpath3="m 2015.0156,578.92585 c 590.7169,313.68065 850.6344,141.71219 1131.161,0"
       bendpath4="m 2013.3106,231.77666 c 129.8758,152.10155 217.3847,401.07755 55.9106,428.18089"
       bendpath2-nodetypes="cc"
       bendpath4-nodetypes="cc"
       bendpath1-nodetypes="cc"
       bendpath3-nodetypes="cc" />
    <inkscape:path-effect
       bendpath3-nodetypes="cc"
       bendpath1-nodetypes="cc"
       bendpath4-nodetypes="cc"
       bendpath2-nodetypes="cc"
       bendpath4="m 913.3106,251.77666 c 127.8713,158.1149 172.6155,307.89092 84.5392,365.37229"
       bendpath3="m 915.0156,598.92585 c 590.7169,313.68065 850.6344,141.71219 1131.161,0"
       bendpath2="M 2039.9665,106.97817 C 1842.7223,216.5552 2176.1821,517.0679 2128.654,648.83778"
       bendpath1="m 915.0156,247.73864 c 362.3705,-379.49755 745.2209,-295.77603 1131.161,0"
       xx="true"
       yy="false"
       is_visible="true"
       id="path-effect3019"
       effect="envelope" />
    <inkscape:path-effect
       effect="envelope"
       id="path-effect3071"
       is_visible="true"
       yy="false"
       xx="true"
       bendpath1="m 2032.3231,1312.2357 c 569.3571,-362.7767 1481.7915,-536.36636 1643.7857,0"
       bendpath2="m 3629.9494,1192.2357 c 135.8664,280.526 -127.0856,938.0671 10.2577,1095.1011"
       bendpath3="m 2032.3231,2144.4797 c 547.9286,648.0448 1095.8571,91.1049 1643.7857,0"
       bendpath4="m 2032.3231,1312.2357 c 316.3493,416.2631 -70.7834,741.9437 -82.0611,923.6725"
       bendpath2-nodetypes="cc"
       bendpath4-nodetypes="cc"
       bendpath1-nodetypes="cc"
       bendpath3-nodetypes="cc" />
    <inkscape:path-effect
       effect="envelope"
       id="path-effect3069"
       is_visible="true"
       yy="true"
       xx="true"
       bendpath1="m 2125.7143,-125.76431 1831.4286,0"
       bendpath2="m 3957.1429,-125.76431 0,832.24398"
       bendpath3="m 2125.7143,706.47967 1831.4286,0"
       bendpath4="m 2125.7143,-125.76431 0,832.24398" />
    <inkscape:path-effect
       bendpath3-nodetypes="cc"
       bendpath1-nodetypes="cc"
       bendpath4-nodetypes="cc"
       bendpath2-nodetypes="cc"
       bendpath4="m 2068.5715,-76.595856 c 513.9034,624.946726 227.549,571.804906 45.7142,919.640236"
       bendpath3="m 2125.7143,671.61581 c 956.4119,712.22059 1377.2365,321.76132 1831.4286,0"
       bendpath2="m 3968.5715,-23.58288 c 273.0894,305.94046 112.3113,534.94718 80,801.22458"
       bendpath1="m 2125.7143,-125.76431 c 626.7401,-357.80544 1235.135,-312.01803 1831.4286,0"
       xx="true"
       yy="true"
       is_visible="true"
       id="path-effect3049"
       effect="envelope" />
    <inkscape:path-effect
       effect="envelope"
       id="path-effect3023"
       is_visible="true"
       yy="false"
       xx="true"
       bendpath1="m -184.38446,246.77684 c 362.37042,-379.49755 745.22086,-295.77603 1131.16096,0"
       bendpath2="M 940.5664,106.01637 C 743.32222,215.5934 1075.3966,467.85815 1024.4225,604.3931"
       bendpath3="m -184.38446,597.96405 c 590.71689,313.68065 850.63438,141.71219 1131.16096,0"
       bendpath4="M -46.08951,250.81486 C 81.78183,408.92976 150.68324,645.67155 -82.33607,630.68144"
       bendpath2-nodetypes="cc"
       bendpath4-nodetypes="cc"
       bendpath1-nodetypes="cc"
       bendpath3-nodetypes="cc" />
    <inkscape:path-effect
       effect="skeletal"
       id="path-effect2987"
       is_visible="true"
       pattern="M 0,0 1,0"
       copytype="repeated"
       prop_scale="1"
       scale_y_rel="false"
       spacing="0"
       normal_offset="0"
       tang_offset="0"
       prop_units="false"
       vertical_pattern="false"
       fuse_tolerance="0" />
  </defs>
  <sodipodi:namedview
     id="base"
     pagecolor="#ffffff"
     bordercolor="#666666"
     borderopacity="1.0"
     inkscape:pageopacity="0.0"
     inkscape:pageshadow="2"
     inkscape:zoom="0.088192115"
     inkscape:cx="4152.3629"
     inkscape:cy="-972.64464"
     inkscape:document-units="px"
     inkscape:current-layer="layer1"
     showgrid="false"
     units="in"
     inkscape:window-width="1280"
     inkscape:window-height="776"
     inkscape:window-x="0"
     inkscape:window-y="24"
     inkscape:window-maximized="1"
     showguides="true"
     inkscape:guide-bbox="true" />
  <metadata
     id="metadata7">
    <rdf:RDF>
      <cc:Work
         rdf:about="">
        <dc:format>image/svg+xml</dc:format>
        <dc:type
           rdf:resource="http://purl.org/dc/dcmitype/StillImage" />
        <dc:title></dc:title>
      </cc:Work>
    </rdf:RDF>
  </metadata>
  <g
     inkscape:label="Layer 1"
     inkscape:groupmode="layer"
     id="layer1"
     transform="translate(0,387.64025)">
    <path
       style="fill:none;stroke:#000000;stroke-width:0.41680205px;stroke-linecap:butt;stroke-linejoin:miter;stroke-opacity:1"
       d="m -25.047335,278.15338 c 0.284099,0.0522 0.567404,0.10523 0.849911,0.15904 10.26801,1.95685 19.4592751,5.0096 27.7811657,9.90441 4.5e-6,0 9e-6,0 1.35e-5,10e-6 7.6859658,4.53903 14.8235608,10.48539 22.0065528,17.90316 2e-6,0 4e-6,0 6e-6,0 7.332162,7.46985 14.626349,16.04239 22.304742,25.23956 5e-6,1e-5 9e-6,1e-5 1.4e-5,2e-5 8.213881,9.80212 16.500883,20.31291 24.981614,30.98144 0.53896,0.68036 1.077887,1.36245 1.616773,2.04617 8.654391,10.97755 17.303761,22.46403 25.870863,34.1676 11.15789,15.19266 22.08502,31.26106 32.55691,47.98389 1e-5,10e-6 1e-5,10e-6 2e-5,2e-5 8.36316,13.22703 16.36711,27.1288 23.75648,41.68422 1e-5,0 1e-5,1e-5 1e-5,1e-5 7.21508,14.30289 13.86245,29.40834 19.72625,45.3587 0,0 0,10e-6 1e-5,2e-5 8.76937,23.13422 14.4881,49.14767 15.47925,78.03497 0.21245,6.05559 0.2176,12.22541 7.1e-4,18.50847 -0.67367,11.85772 -2.43309,23.62023 -5.34478,35.17585 7.85265,-8.69533 14.79117,-18.1231 20.70104,-28.22929 3.08861,-5.29098 5.97346,-10.61724 8.65478,-15.96403 12.89544,-25.46059 21.17414,-51.04513 24.90279,-75.1255 2.89945,-16.56839 4.68513,-33.19092 5.47835,-49.71699 0,-10e-6 0,-10e-6 1e-5,-2e-5 0.81902,-16.75231 0.56241,-33.71005 -0.6283,-50.79007 -1.3656,-21.65482 -3.90426,-44.4439 -7.42256,-68.47085 -2.74188,-18.59117 -5.91419,-38.8339 -9.35312,-60.89155 -0.20981,-1.37125 -0.42071,-2.75074 -0.63268,-4.1385 -3.44461,-21.76458 -6.40284,-46.61249 -8.59802,-74.79961 0,-1e-5 0,-2e-5 0,-2e-5 -2.14304,-26.58896 -1.91224,-56.15036 1.1111,-88.78137 3.39165,-32.59381 10.39628,-65.110568 21.3488,-97.26972 0,-2e-5 1e-5,-4e-5 2e-5,-6e-5 12.27935,-34.378975 26.11923,-64.902897 41.43636,-91.039227 11.34466,-19.529058 22.19998,-37.247822 32.45465,-53.03937 -1.78684,10.340202 -4.75177,22.896264 -8.85396,37.807885 -5.81664,20.088277 -11.20336,45.5895475 -15.77989,76.758537 -3.82306,29.253602 -4.04318,60.138552 -0.33324,92.472855 0,1e-5 0,2e-5 1e-5,3e-5 4.24169,32.30276 11.48462,62.41984 21.78747,89.99212 0,1e-5 10e-6,3e-5 10e-6,5e-5 10.92142,29.17045 22.95259,55.48557 35.98678,78.66035 0.82135,1.47758 1.64279,2.94789 2.46429,4.41089 13.26288,23.55357 26.57214,45.62347 39.78454,66.08213 17.15714,26.37631 33.79694,52.15422 49.72457,77.22896 0,10e-6 0,2e-5 10e-6,2e-5 12.80706,19.73798 24.875,39.90345 36.03722,60.45638 1e-5,0 1e-5,1e-5 1e-5,1e-5 10.90369,20.3434 20.99891,41.54725 30.17552,63.57964 0,10e-6 10e-6,2e-5 10e-6,4e-5 14.04299,32.08735 22.40243,68.65663 24.52576,109.27348 0.45594,8.54407 0.6362,17.23756 0.53644,26.07642 -0.80382,17.05946 -3.23927,33.54073 -7.29213,49.39586 10.77907,-16.83763 19.81882,-34.33088 27.12771,-52.40878 3.68714,-9.40071 7.06413,-18.65861 10.13899,-27.76726 14.81458,-43.32555 22.78693,-82.58236 24.84088,-117.27333 1.97006,-23.83695 2.89334,-46.80658 2.97708,-68.87876 0.0958,-22.32774 -0.75002,-44.2255 -2.26014,-65.66801 0,-2e-5 -10e-6,-3e-5 -10e-6,-4e-5 -1.70482,-27.21692 -4.01548,-55.06187 -6.46412,-83.41485 -1.93711,-21.96525 -3.75168,-45.44488 -5.11172,-70.24392 -0.0789,-1.54108 -0.1562,-3.08874 -0.23173,-4.64293 -1.33342,-24.37542 -1.30898,-51.6499 0.43182,-81.32863 1.51445,-28.02229 6.49124,-58.19213 15.02348,-89.827936 0,-2e-5 10e-6,-3.9e-5 10e-6,-5.9e-5 8.85115,-31.637174 22.09623,-61.400604 39.3305,-88.862716 0,-8e-6 10e-6,-1.7e-5 10e-6,-2.5e-5 19.09563,-29.285585 39.78918,-52.49341 61.51527,-69.968343 14.07278,-11.233342 27.68323,-20.498561 40.80161,-27.941931 -7.436,11.309626 -15.24003,23.98873 -23.27902,38.039131 -12.55024,21.727132 -23.63231,47.715008 -32.75121,77.6127599 0,1.7e-5 -10e-6,3.41e-5 -10e-6,5.11e-5 -8.08976,27.965369 -12.21898,56.719457 -12.47735,85.841999 0.10029,29.164239 3.36509,55.939219 9.36482,80.181699 0,2e-5 0,3e-5 10e-6,5e-5 6.34241,25.70921 14.08048,48.5755 22.81169,68.6839 0.54999,1.28217 1.10128,2.55695 1.65382,3.82437 8.92221,20.3848 18.18438,39.14509 27.5497,56.38554 12.16551,22.28535 24.26257,43.41262 36.09245,63.50442 0,1e-5 10e-6,1e-5 10e-6,1e-5 9.49303,15.84639 18.63068,31.58491 27.31179,47.2169 0,1e-5 10e-6,1e-5 10e-6,2e-5 8.47825,15.42572 16.56453,31.0348 24.22148,46.7926 11.50767,22.90879 19.94938,47.67705 25.52635,73.83132 1.16968,5.49338 2.21302,11.03223 3.13148,16.61306 0.92479,7.38106 1.4787,14.55583 1.67725,21.52819 2.07197,-8.88133 3.66983,-17.80129 4.82589,-26.74549 0.74691,-6.83848 1.32523,-13.53586 1.74686,-20.09607 2.05445,-31.28625 0.53896,-59.11818 -3.34184,-84.07275 0,0 0,-10e-6 -1e-5,-10e-6 -2.44078,-17.1983 -5.22647,-33.61636 -8.16946,-49.3598 -3.0113,-16.01016 -6.2265,-31.53606 -9.37366,-46.64758 -3.88701,-19.11346 -7.49994,-38.08314 -10.37727,-56.85437 -2.22616,-14.46803 -3.93637,-29.23514 -4.77628,-44.09199 -0.0506,-0.92516 -0.0978,-1.85113 -0.14158,-2.77785 -0.73278,-14.53197 -0.32928,-29.65731 1.60815,-44.82213 0,0 0,-1e-5 0,-1e-5 1.77699,-14.2377 5.45119,-28.51979 11.10895,-42.1059 5.68524,-13.50507 13.53397,-25.50184 23.04972,-35.57094 10e-6,0 10e-6,-1e-5 10e-6,-1e-5 10.4102,-10.82567 22.10719,-18.693963 34.37852,-24.074028 14.6005,-6.351267 29.53029,-9.480261 44.46097,-10.506009 -11.3774,7.46401 -22.36928,16.293588 -32.17178,26.813817 -8.23012,8.83525 -15.41851,18.9771 -20.93052,30.24821 -5.05026,10.4157 -8.45404,21.55248 -10.1672,32.92724 0,1e-5 0,2e-5 -1e-5,2e-5 -1.70759,11.50232 -1.77352,22.99835 -0.61908,34.16212 0,1e-5 0,2e-5 0,3e-5 1.23082,11.94789 3.70477,23.5282 6.94077,34.66826 0.2059,0.71052 0.41469,1.41958 0.62631,2.12717 3.39574,11.34316 7.51773,22.33104 12.05848,33.00533 0,1e-5 0,1e-5 10e-6,2e-5 5.92078,13.91275 12.51107,27.39838 19.47578,40.57592 0,1e-5 10e-6,2e-5 10e-6,3e-5 5.53669,10.45685 11.29707,20.75452 17.13591,30.9416 5.69879,9.95213 11.49317,19.81424 17.31432,29.61961 8.4284,14.16456 16.79212,28.29286 24.94953,42.43466 1.70078,2.94984 3.394,5.89927 5.07739,8.84911 8.85923,15.67 17.31495,31.12055 25.15245,46.64915 2.21713,4.37286 4.39987,8.73989 6.53853,13.11266 0,10e-6 0,10e-6 0,2e-5 1.8604,3.80371 3.6858,7.60998 5.4609,11.42759 3.0631,6.57932 5.9911,13.20154 8.6959,19.90669 1.0865,2.69447 2.1379,5.40151 3.1437,8.1228 2.609,7.0406 4.9083,14.19031 6.7166,21.4676 2.2724,9.1512 3.7741,18.50908 3.9266,27.91132 0.1417,8.71148 -0.9088,17.46416 -3.467,25.79589"
       id="path2985"
       inkscape:connector-curvature="0"
       inkscape:path-effect="#path-effect3023"
       inkscape:original-d="M -20.26907,279.17674 113.84673,577.87321 288.5502,258.8313 472.07705,577.87321 724.42647,261.65957 812.6606,573.05146 946.7764,246.77685 963.727,728.06218"
       sodipodi:nodetypes="cccccccc" />
    <path
       sodipodi:nodetypes="ccccccccc"
       inkscape:original-d="m 960.9143,567.32917 118.2167,-366.2431 126.2106,322.41221 237.9454,-303.23142 128.1901,281.26525 197.0128,-339.02907 143.5708,353.53304 228.9788,-307.82367 35.843,379.82527"
       inkscape:path-effect="#path-effect3019"
       inkscape:connector-curvature="0"
       id="path3017"
       d="m 1013.1192,603.71819 c 5.1886,-2.65333 10.2463,-5.47747 15.1154,-8.76275 0.6529,-0.44213 1.3018,-0.89188 1.9466,-1.34956 6.655,-4.72809 12.8118,-10.22899 18.2358,-16.54029 2.4743,-2.8778 4.7925,-5.90352 6.9308,-9.06486 3.054,-4.50726 5.7833,-9.2392 8.1887,-14.15825 3.8461,-7.88785 6.8694,-16.16663 9.0851,-24.58566 0,-10e-6 0,-10e-6 0,-10e-6 3.0341,-11.37706 4.8612,-23.14563 5.6501,-35.11026 0.3012,-4.49271 0.4584,-9.00034 0.4816,-13.50955 0.1035,-17.25727 -1.4724,-35.04868 -4.4844,-53.44422 -3.6219,-22.00877 -9.36,-45.39046 -16.7107,-70.75694 0,0 0,-10e-6 0,-10e-6 -0.7436,-2.57035 -1.5006,-5.18016 -2.2701,-7.83129 -2.7003,-9.43338 -5.5621,-19.4615 -8.56,-30.182 0,0 0,-1e-5 0,-2e-5 -3.5891,-12.66421 -7.1,-26.75329 -10.3991,-42.52708 0,-1e-5 0,-2e-5 0,-4e-5 -3.1105,-14.67444 -5.3325,-31.03478 -6.3961,-49.30295 -0.9053,-17.80967 -0.028,-36.37161 2.972,-55.65665 1.8242,-10.70616 4.0168,-21.0701 6.5977,-31.03567 0.06,6.68995 0.2396,14.13905 0.5798,22.40108 0.8942,14.91651 3.3497,30.50713 7.7445,46.66371 0,1e-5 0,2e-5 10e-5,4e-5 4.7145,16.50175 10.6174,32.25173 17.9021,46.90104 7.7898,15.70983 16.0474,30.50682 24.796,44.06411 0,10e-6 0,10e-6 0,2e-5 7.3403,11.48066 14.7206,22.59146 22.1176,33.22267 0,10e-6 0,10e-6 0,2e-5 2.1027,2.97575 4.2074,5.92302 6.3129,8.83976 20.8435,28.67938 41.2324,57.75513 60.237,86.61643 15.796,24.27552 30.6923,49.42102 44.2216,75.37921 0,10e-6 0,2e-5 10e-5,3e-5 3.5253,6.85587 6.8915,13.91149 10.0778,21.17051 8.4921,19.47029 15.6239,40.04055 20.9869,61.73187 4.1049,16.14493 6.4105,33.33916 6.625,51.54389 0.105,11.30658 -0.639,22.69151 -2.3108,34.1277 -1.2723,8.19473 -3.2079,16.19068 -5.8314,23.9606 -0.069,0.20288 -0.1382,0.40541 -0.2079,0.60758 0.1699,-0.15782 0.3394,-0.3161 0.5086,-0.47485 6.4935,-6.06728 12.3984,-12.52811 17.6806,-19.3776 7.4176,-9.49325 13.9996,-19.28834 19.7299,-29.34715 9.1242,-16.21701 16.1549,-32.22675 21.031,-47.74284 6.8446,-20.803 11.5969,-41.63711 14.4013,-62.25047 0,0 0,-10e-6 0,-10e-6 1.0791,-7.66189 1.9005,-15.22543 2.4727,-22.67434 0,-10e-6 0,-2e-5 0,-3e-5 2.2827,-28.06208 2.2326,-57.31757 0.255,-87.77349 -2.3644,-36.07665 -7.6782,-76.18647 -14.8104,-120.82595 0,0 0,-1e-5 0,-1e-5 -0.7297,-4.55062 -1.467,-9.21537 -2.2096,-13.99569 0,-1e-5 0,-1e-5 0,-2e-5 -2.5577,-17.12133 -5.1826,-35.94375 -7.7813,-56.53607 -3.2217,-24.31216 -5.5023,-52.62567 -6.5424,-85.0678 0,-1e-5 0,-2e-5 0,-3e-5 -1.1512,-30.27972 0.991,-64.845804 6.8135,-103.68357 4.229,-27.013312 11.2335,-54.4770033 21.1149,-82.291983 -4.3757,25.7700869 -6.076,51.509097 -5.0601,77.130745 1.859,36.79077 7.2486,69.961848 16.0725,99.269558 9.3315,31.37906 19.9648,59.14763 31.7373,83.1612 0,2e-5 0,3e-5 0,4e-5 9.8233,20.34153 19.768,39.15983 29.7652,56.42242 0,1e-5 0,2e-5 0,3e-5 2.8497,4.8144 5.7036,9.52616 8.5598,14.13471 28.2309,45.16194 55.5345,87.49617 80.8743,126.94386 21.0666,33.34682 40.8971,66.61184 59.0874,99.83893 0,10e-6 0,10e-6 0,2e-5 4.7463,8.83588 9.2661,17.92323 13.5467,27.26128 11.4261,25.14922 21.0045,51.46341 28.4607,78.93669 5.7481,20.50289 8.9441,42.35333 9.4536,65.49348 0.091,4.7931 0.059,9.5857 -0.098,14.37735 1.7695,-4.82015 3.4085,-9.64433 4.9189,-14.47185 7.1662,-23.30518 11.5175,-45.38449 13.2175,-66.16768 2.6347,-27.85325 2.9623,-54.64155 1.3256,-80.35548 -0.5891,-9.55131 -1.4342,-18.86534 -2.5193,-27.94228 0,-1e-5 0,-3e-5 0,-4e-5 -4.0827,-34.15841 -10.0219,-68.55705 -17.1933,-103.28008 0,-1e-5 0,-1e-5 0,-2e-5 -8.6136,-41.10917 -19.2118,-85.44159 -30.1218,-133.02841 -1.1112,-4.85196 -2.2136,-9.81041 -3.3042,-14.87463 0,-10e-6 0,-2e-5 0,-2e-5 -3.7824,-18.14152 -7.417,-37.87264 -10.773,-59.15028 -4.1237,-25.12089 -6.9083,-54.00195 -8.0349,-86.42777 -1.2337,-30.268499 1.2214,-64.328638 7.6041,-101.791148 6.4918,-36.722201 18.693,-73.556152 36.5195,-110.084583 0,-1.3e-5 0,-2.7e-5 0,-4.1e-5 19.4525,-37.970698 42.1955,-70.143168 67.7994,-96.470388 29.3039,-29.60632 57.1327,-51.69804 83.0746,-66.72065 -18.4187,18.39171 -38.5773,43.43491 -59.7898,75.11528 -18.6223,28.08782 -34.1849,61.34414 -46.3512,99.415021 -10.9188,36.606056 -16.2805,72.9007936 -16.2711,108.531585 0,1.4e-5 0,2.8e-5 0,4.2e-5 0.3421,36.384414 4.4176,69.050171 11.8183,97.895312 7.8189,30.91905 17.1508,58.17417 27.6427,81.8346 8.7597,20.03859 17.7591,38.50151 26.885,55.444 2.5997,4.73525 5.2094,9.36743 7.8262,13.89762 25.8744,44.48155 51.4649,85.06756 75.6404,122.33888 0,10e-6 0,2e-5 0,3e-5 20.096,31.41694 39.334,62.03053 57.3696,92.01715 4.6997,7.94197 9.2317,16.03052 13.5905,24.26104 11.614,22.11248 21.8977,44.76738 30.6981,67.94252 6.6708,17.26665 11.5298,35.32436 14.5848,54.10025 1.8754,11.65527 3.0085,23.23829 3.3756,34.75302 0.049,2.91766 0.024,5.8004 -0.074,8.64859 1.4078,-3.39566 2.7258,-6.81128 3.9562,-10.24588 4.8373,-13.62049 8.6896,-27.06905 11.6795,-40.33661 4.7384,-21.35052 7.3633,-41.37847 8.2625,-60.19437 1.4233,-25.30428 1.2436,-49.21049 0.037,-71.89669 -0.4392,-8.47266 -1.014,-16.72671 -1.6984,-24.77742 0,0 0,-10e-6 0,-10e-6 -2.5836,-30.576 -5.8816,-60.24952 -8.891,-89.044 0,-1e-5 0,-1e-5 0,-2e-5 -3.6137,-34.34248 -6.9723,-68.76607 -7.4044,-102.39082 -0.048,-3.4078 -0.061,-6.83279 -0.035,-10.27091 0,0 0,-10e-6 0,-10e-6 0.1173,-12.23333 0.7218,-24.71266 2.013,-37.21368 0,-10e-6 0,-10e-6 10e-5,-2e-5 1.4799,-14.76878 4.2094,-30.0564 8.56,-45.08552 0,-1e-5 0,-2e-5 0,-3e-5 3.975,-13.96594 9.9173,-27.89302 17.8477,-40.75055 0,-1e-5 0,-1e-5 0,-2e-5 7.7008,-12.50439 17.66,-23.37764 29.2213,-31.91957 2.8362,-2.06643 5.7418,-3.95232 8.7054,-5.66344 -1.5719,3.15677 -3.042,6.38581 -4.4043,9.68253 -5.5109,13.59664 -8.8574,27.67571 -10.2095,41.73443 -1.3625,14.52502 -0.8724,28.63164 0.9564,42.07538 0,1e-5 0,2e-5 0,3e-5 1.9557,14.50732 5.1743,28.34986 9.1711,41.51642 0,0 0,1e-5 0,1e-5 3.3677,11.14005 7.227,21.9158 11.412,32.367 1.1862,2.95118 2.3983,5.87847 3.6328,8.78268 12.243,28.7779 26.4998,55.95675 41.1666,82.22229 12.1853,21.85965 24.7251,43.21057 37.1275,64.34397 0,0 0,1e-5 0,1e-5 3.2199,5.4957 6.4242,10.98956 9.6056,16.48365 8.4401,14.58844 16.7397,29.1388 24.6734,43.73802 0,1e-5 0,2e-5 0,3e-5 5.8653,10.78422 11.4746,21.62126 16.7699,32.52937 3.3056,6.80934 6.4837,13.63266 9.4835,20.48593 2.0868,4.78691 4.079,9.57773 5.9627,14.38152 0,10e-6 0,10e-6 0,2e-5 4.123,10.5256 7.7456,21.06691 10.4668,31.734 0.2626,1.03239 0.5173,2.0656 0.7632,3.09954 1.9881,8.40138 3.4168,16.82257 3.8163,25.26015 0.3967,8.42128 -0.233,16.87574 -2.463,24.94207"
       style="fill:none;stroke:#000000;stroke-width:0.41680205px;stroke-linecap:butt;stroke-linejoin:miter;stroke-opacity:1" />
    <path
       style="fill:none;stroke:#000000;stroke-width:0.41680205px;stroke-linecap:butt;stroke-linejoin:miter;stroke-opacity:1"
       d="m 2108.3262,643.69308 c 1.0249,-0.13662 2.0516,-0.28793 3.0796,-0.45543 2.6462,-0.43134 5.2982,-0.97027 7.9446,-1.63275 15.7053,-3.94775 30.8866,-12.49261 42.5441,-25.07161 0.035,-0.0376 0.07,-0.0752 0.1047,-0.11277 12.5904,-13.56545 21.5238,-30.36154 26.8295,-47.71685 1.141,-3.6316 2.1619,-7.3116 3.0671,-11.03399 0,-10e-6 0,-10e-6 0,-2e-5 4.1479,-16.98117 5.9493,-34.75669 5.8946,-52.68524 0,-6.13269 -0.1882,-12.34472 -0.5637,-18.63607 -1.1703,-19.29538 -3.9828,-39.47617 -8.0978,-60.65832 0,0 0,-10e-6 0,-10e-6 -1.1852,-6.13857 -2.4783,-12.38622 -3.8755,-18.75045 -5.6503,-25.40956 -12.357,-52.91006 -19.4256,-83.05335 -0.7478,-3.2168 -1.5005,-6.4672 -2.2576,-9.75195 0,-1e-5 0,-2e-5 0,-3e-5 -7.9374,-35.53901 -15.1461,-73.34545 -20.351,-113.1436 -5.6033,-45.75922 -10.2882,-90.86184 -13.5277,-133.202061 17.5589,24.876546 34.0835,56.992981 50.6962,97.584251 14.8267,35.49352 31.7067,74.03371 51.7841,114.99717 0,0 0,10e-6 0,10e-6 1.9039,3.76292 3.817,7.51847 5.7394,11.26546 18.1181,35.16007 37.2522,70.1419 57.3867,104.19089 5.0036,8.50401 9.9726,16.98286 14.9013,25.42846 0,0 0,1e-5 0,1e-5 17.0872,29.08862 33.6496,58.54648 49.2531,88.18342 5.0599,9.68357 9.9765,19.44235 14.7337,29.27404 0,10e-6 0,2e-5 0,3e-5 14.1993,28.6042 26.2239,59.78079 35.1706,93.60383 1.9691,7.44765 3.7715,15.0017 5.3972,22.66252 1.2856,5.53143 2.3628,11.18773 3.2236,16.96707 2.0307,-4.94077 3.8341,-9.83746 5.4066,-14.67919 2.3855,-6.69164 4.5618,-13.41397 6.5315,-20.15689 9.0653,-30.58731 14.2467,-61.10304 15.9375,-90.55746 0,-10e-6 0,-2e-5 0,-3e-5 0.6796,-10.13882 1.0732,-20.43593 1.1943,-30.88549 0.2946,-31.95992 -1.4972,-66.01909 -4.7588,-102.12159 0,-1e-5 0,-2e-5 0,-3e-5 -0.9239,-10.48881 -1.9637,-21.24304 -3.1062,-32.2655 0,-2e-5 0,-3e-5 0,-4e-5 -4.8828,-44.17613 -9.118,-93.47839 -11.3328,-147.83613 -0.2104,-5.79048 -0.4012,-11.64911 -0.5709,-17.57563 -1.2828,-64.63156 3.7087,-131.55227 16.5203,-199.008651 11.6873,-55.950895 26.1844,-107.475527 43.4766,-153.485519 -0.1252,42.57637 1.3389,90.412621 4.879,143.3369739 5.2715,63.8874921 17.4268,128.1347361 36.5455,191.9290361 1e-4,2e-5 1e-4,4e-5 1e-4,6e-5 1.8386,5.84146 3.7029,11.62718 5.5922,17.35683 17.9285,53.80408 38.3944,103.71089 60.8556,149.49401 5.5491,11.41616 11.0601,22.6311 16.5256,33.64552 0,1e-5 0,2e-5 0,2e-5 18.9738,37.89569 37.3137,74.68018 54.5966,110.37914 5.5954,11.6772 11.0142,23.32666 16.2445,34.95135 0,2e-5 0,3e-5 0,4e-5 15.7212,33.7382 28.5451,70.25856 37.9377,109.53145 2.0724,8.66299 3.952,17.42723 5.6326,26.29301 9.2213,42.85301 6.246,92.46793 -9.8863,148.25019 -0.053,0.16312 -0.1064,0.32617 -0.1599,0.48915 -7.1293,22.09689 -17.0765,42.26514 -29.8462,60.4619 16.7273,-18.88107 30.5199,-39.73604 41.4097,-62.48477 0.082,-0.16787 0.1631,-0.33582 0.2444,-0.50383 26.46,-57.58328 39.1232,-108.79907 39.465,-153.02716 0.3249,-9.15635 0.4409,-18.20032 0.3569,-27.13194 -0.302,-40.50623 -4.194,-78.03205 -10.8768,-112.60946 -2.1522,-11.9073 -4.4854,-23.81005 -6.9776,-35.70959 -1e-4,0 -1e-4,-10e-6 -1e-4,-2e-5 -7.7475,-36.38789 -16.4116,-73.54522 -25.2733,-111.40097 0,-10e-6 0,-2e-5 0,-4e-5 -2.5419,-10.9999 -5.0931,-22.15948 -7.6375,-33.47476 -10.4814,-45.35994 -18.4065,-94.07603 -22.8259,-145.39273 -0.4469,-5.46591 -0.8574,-10.97189 -1.2303,-16.51676 0,0 0,-1e-5 0,-2e-5 -3.4792,-60.50066 1.0281,-120.039779 13.4438,-177.084784 1.873,-7.8727821 3.8322,-15.5805151 5.8757,-23.123085 0.6663,8.21084461 1.4018,16.5226627 2.2095,24.93192 6.6692,60.854114 20.3957,120.781869 40.7617,178.501779 10e-5,2e-5 10e-5,3e-5 10e-5,4e-5 1.9453,5.29584 3.9192,10.53044 5.9208,15.70387 18.9285,48.559 40.561,92.5674 64.0546,132.00086 5.8301,9.84071 11.6507,19.44025 17.4543,28.80344 20.1248,32.23066 39.9743,62.62176 59.1963,91.25574 6.2351,9.36214 12.3577,18.60152 18.3619,27.72134 0,10e-6 0,2e-5 0,3e-5 17.8828,26.49242 33.8129,54.11241 47.6988,82.57222 3.0494,6.27454 5.9821,12.56775 8.7974,18.8782 14.2229,30.47602 20.5604,64.30238 19.82,100.52689 -0.01,0.10574 -0.016,0.21142 -0.023,0.31705 -0.7499,10.14731 -2.2962,19.57124 -4.6082,28.30092 5.9705,-11.90101 10.8944,-24.24368 14.8476,-36.97759 0.042,-0.13307 0.084,-0.26615 0.1251,-0.39926 13.2183,-46.34503 16.8926,-86.32017 13.9538,-120.91948 -0.4782,-7.19412 -1.0671,-14.26064 -1.7537,-21.20465 -3.0949,-31.57148 -7.9335,-60.25351 -13.44,-86.63093 -1.817,-9.05023 -3.6454,-17.99228 -5.4544,-26.82907 -5.5989,-27.06915 -10.7532,-53.52763 -14.5505,-79.18805 0,-1e-5 0,-2e-5 0,-3e-5 -1.0901,-7.44158 -2.064,-14.85477 -2.9001,-22.2277 -3.4584,-29.46213 -3.7761,-58.62326 -0.059,-85.91102 0.4048,-2.91227 0.8545,-5.80611 1.3503,-8.67912 0,0 0,-1e-5 0,-1e-5 5.4475,-31.06723 17.2479,-58.11728 34.1924,-79.12647 17.8218,-21.75933 40.4064,-35.93883 65.8529,-43.97107 -14.2994,19.84921 -25.8041,41.96341 -32.8482,66.09526 -6.728,23.16311 -9.1164,47.90961 -7.1144,72.78452 0,0 0,1e-5 0,2e-5 0.1891,2.31863 0.414,4.63557 0.6733,6.95017 2.4352,21.64965 7.9008,43.13911 15.4005,63.98273 1.8793,5.23303 3.8755,10.43067 5.974,15.59422 7.2602,17.84184 15.7393,35.35015 24.8358,52.6245 2.9591,5.62757 5.9805,11.23764 9.0476,16.83838 9.0239,16.39873 18.3498,32.93865 27.5062,49.92134 0,0 10e-5,10e-6 10e-5,10e-6 2.0042,3.72075 3.9991,7.45988 5.9785,11.22136 9.532,17.96469 18.0406,36.84265 24.5503,57.17641 0.017,0.0566 0.034,0.11329 0.05,0.16993 5.6134,18.99163 8.921,37.50457 8.3637,55.51933 -0.067,2.96322 -0.1933,5.87897 -0.3839,8.74588 -0.5169,6.26999 -1.248,12.1262 -2.3398,17.48919 -1.7429,8.76348 -4.1983,16.43962 -7.9697,22.7268"
       id="path7179"
       inkscape:connector-curvature="0"
       inkscape:path-effect="#path-effect7181"
       inkscape:original-d="m 2034.3413,593.42014 144.7897,-412.33407 126.2106,322.41221 295.9564,-303.23142 70.1791,358.56815 197.0128,-316.21364 143.5708,311.39189 228.9788,-365.80085 -36.6285,442.63388"
       sodipodi:nodetypes="ccccccccc" />
    <path
       sodipodi:nodetypes="ccccccccc"
       inkscape:original-d="m 3055.6155,617.96405 164.1154,-318.78731 134.1158,298.69647 174.7035,-319.04191 183.5268,319.04191 252.3495,-316.21364 88.2341,311.39189 134.1158,-326.27461 16.9506,481.28533"
       inkscape:path-effect="#path-effect7219"
       inkscape:connector-curvature="0"
       id="path7213"
       d="m 3144.4446,609.14163 c 13.0077,-3.3391 25.644,-10.2312 36.0835,-20.0398 2.5018,-2.33551 4.8935,-4.80558 7.1731,-7.39286 10.9406,-12.38235 19.315,-27.37072 24.9718,-42.99132 4.0075,-10.78852 7.0465,-22.11901 9.2163,-33.80304 1e-4,0 1e-4,-10e-6 1e-4,-10e-6 2.2255,-11.90809 3.5273,-24.28353 4.0099,-37.02152 0,-10e-6 0,-10e-6 0,-2e-5 0.6635,-16.10184 0.1542,-33.19042 -1.4173,-51.41793 -1.2264,-14.05518 -3.0095,-29.23408 -5.2425,-45.78969 -0.1368,-1.03041 -0.2753,-2.06679 -0.4157,-3.10921 -2.2641,-16.3471 -4.5645,-34.73723 -6.6697,-55.6227 0,-10e-6 0,-2e-5 0,-2e-5 -2.0181,-19.65004 -2.8958,-41.51979 -2.1528,-65.92129 0,-2e-5 0,-3e-5 0,-5e-5 0.98,-24.31528 4.0901,-49.25836 9.8537,-74.6075 0,-1e-5 0,-3e-5 0,-5e-5 6.5038,-27.18221 14.1876,-52.64734 23.1169,-75.644139 0.2444,-0.640384 0.4886,-1.279459 0.7325,-1.917214 0.015,0.365281 0.029,0.732906 0.041,1.102886 0.169,13.420267 0.1551,30.667547 0.2083,52.257817 0,2e-5 0,3e-5 0,4e-5 0.3096,20.24876 2.6234,42.08107 7.3852,65.46901 0,1e-5 0,1e-5 0,2e-5 5.158,23.38206 12.1316,45.82806 21.1691,66.9389 0,1e-5 0,2e-5 0,3e-5 9.601,22.35654 19.8665,43.21823 30.8147,62.1713 0.691,1.20845 1.3818,2.41317 2.0724,3.61408 11.1396,19.32437 22.2563,37.96582 33.2432,55.71633 14.2731,22.91991 28.0594,45.93559 41.1402,68.89739 0,0 0,10e-6 0,10e-6 10.5124,18.09699 20.3595,36.84445 29.3155,56.22469 0,10e-6 0,2e-5 0,3e-5 8.7487,19.14514 16.6901,39.29823 23.6414,60.48433 10.699,30.81947 16.2111,66.12339 15.2215,105.78641 -0.1947,8.3352 -0.6764,16.83751 -1.4568,25.50518 -1.9592,16.60164 -5.5393,32.82887 -10.7828,48.59325 10.0951,-13.99088 18.6689,-28.79705 25.6467,-44.36617 3.5408,-8.08009 6.7912,-16.09409 9.7536,-24.03084 14.2699,-37.73392 22.0326,-73.10477 23.5736,-104.90109 0,-10e-6 0,-10e-6 0,-2e-5 1.5978,-21.83787 1.9674,-43.23954 1.2406,-64.10316 0,-1e-5 0,-2e-5 0,-3e-5 -0.7347,-21.08713 -2.6745,-42.11323 -5.657,-63.02326 0,-10e-6 0,-2e-5 0,-3e-5 -3.5489,-26.55736 -8.2729,-54.36444 -13.9406,-83.49499 -4.4113,-22.58798 -9.1596,-47.31689 -14.056,-74.28204 -0.2986,-1.67513 -0.5979,-3.36066 -0.8979,-5.05661 -4.8777,-26.59961 -8.8313,-57.26908 -11.5775,-92.12085 -2.6958,-32.92669 -1.9342,-69.57717 2.6292,-109.90815 0,-2e-5 0,-5e-5 0,-7e-5 5.0655,-40.342484 15.0518,-80.035501 30.1411,-118.789353 0,-1.2e-5 0,-2.4e-5 0,-3.6e-5 16.9075,-41.34906 35.6374,-76.965396 56.0044,-106.504911 15.0998,-22.02203 29.3679,-41.49581 42.7009,-58.37569 -5.3643,13.78134 -12.049,30.28663 -19.9693,49.60796 -10.9492,26.00348 -20.9237,58.587573 -29.5305,97.817208 0,2.3e-5 0,4.6e-5 0,6.9e-5 -7.4278,36.826641 -9.9938,75.239044 -7.5041,114.994145 0,1.2e-5 0,2.5e-5 0,3.7e-5 3.1276,39.703891 10.1396,76.182591 20.9564,109.156291 0,2e-5 0,4e-5 0,6e-5 11.4425,34.86775 24.2766,65.80026 38.3211,92.63261 0.8835,1.71072 1.7671,3.41151 2.6507,5.10234 14.2805,27.22914 28.6029,52.37856 42.8047,75.39204 18.4309,29.64358 36.2328,58.24815 53.2171,85.77095 13.6767,21.64885 26.4884,43.65283 38.29,65.97601 0,0 0,10e-6 1e-4,2e-5 11.5294,22.12195 22.1606,45.12363 31.8049,68.96159 0,1e-5 0,3e-5 0,4e-5 14.8513,34.74082 23.2424,74.42409 24.8665,118.51819 0.3539,9.28071 0.4081,18.72239 0.1602,28.32038 -1.164,18.56662 -4.1254,36.43268 -8.8529,53.56581 11.342,-18.90319 20.729,-38.431 28.2008,-58.51332 3.735,-10.44193 7.1318,-20.69112 10.2003,-30.74414 14.793,-47.8062 22.1607,-90.39319 23.2114,-127.59543 0,-10e-6 0,-10e-6 0,-2e-5 1.3399,-25.55368 1.6451,-49.9984 1.1283,-73.34525 0,-10e-6 0,-2e-5 0,-3e-5 -0.5184,-23.60259 -1.9661,-46.62279 -4.0555,-69.05915 0,-1e-5 0,-3e-5 0,-4e-5 -2.4148,-28.48964 -5.3553,-57.53214 -8.345,-86.99572 -2.3572,-22.83724 -4.5214,-47.24311 -6.1573,-72.98402 -0.096,-1.59931 -0.1894,-3.20539 -0.2811,-4.81816 -1.5993,-25.2948 -1.6972,-53.63364 0.05,-84.4441 1.5124,-29.10324 6.7452,-60.41453 15.7318,-93.188743 0,-2e-5 0,-4.1e-5 0,-6.1e-5 9.3292,-32.789754 23.306,-63.474994 41.436,-91.6484378 10e-5,-8.7e-6 10e-5,-1.74e-5 10e-5,-2.61e-5 20.0926,-30.0238761 41.7773,-53.5127591 64.4449,-70.9337911 14.6948,-11.193452 28.8526,-20.299691 42.4487,-27.492121 -8.121,11.812954 -16.6146,25.060899 -25.3412,39.741216 -13.5985,22.680899 -25.6126,49.815152 -35.5388,81.017748 0,1.8e-5 -1e-4,3.6e-5 -1e-4,5.4e-5 -8.8168,29.190039 -13.4461,59.168193 -14.0013,89.497022 0,2e-5 0,4e-5 0,6e-5 -0.1818,30.36847 2.9671,58.18645 8.9863,83.31898 6.3587,26.64914 14.1803,50.28341 23.0414,71.00663 0.5579,1.32136 1.1172,2.6349 1.6777,3.94064 9.0546,21.00276 18.4634,40.28334 27.9816,57.95912 12.3622,22.84323 24.6552,44.45294 36.6757,64.96509 0,0 0,0 0,1e-5 9.6491,16.17513 18.9303,32.22849 27.7444,48.16423 0,10e-6 0,10e-6 0,10e-6 8.6082,15.72995 16.8162,31.64556 24.5889,47.71235 0,0 0,1e-5 0,2e-5 11.6951,23.36203 20.2154,48.65623 25.7976,75.4067 1.171,5.61948 2.2124,11.28682 3.1258,16.99854 0.9068,7.54788 1.4322,14.8823 1.5919,22.00815 2.0737,-9.06901 3.6626,-18.17352 4.8001,-27.29984 0.7263,-6.98451 1.2814,-13.81985 1.6775,-20.51056 1.9333,-31.90433 0.2441,-60.17173 -3.8547,-85.4389 -2.5813,-17.41109 -5.4953,-34.00717 -8.5576,-49.90073 0,-10e-6 0,-2e-5 0,-3e-5 -3.1333,-16.15873 -6.4622,-31.81349 -9.7169,-47.03817 0,-1e-5 0,-1e-5 0,-2e-5 -4.0192,-19.25963 -7.7466,-38.37294 -10.7266,-57.28555 -2.3058,-14.5802 -4.0853,-29.47754 -4.9873,-44.47979 -0.054,-0.93412 -0.1053,-1.86915 -0.1528,-2.805 -0.7936,-14.67531 -0.43,-29.98387 1.483,-45.36676 0,0 0,-1e-5 0,-1e-5 1.7525,-14.44636 5.4458,-28.9681 11.1571,-42.82293 0,0 0,-1e-5 0,-2e-5 5.7448,-13.77677 13.7005,-26.02316 23.3599,-36.32588 0,0 0,0 0,-1e-5 10.5722,-11.07099 22.4264,-19.1139 34.8435,-24.61084 14.7765,-6.48661 29.8185,-9.691557 44.7945,-10.749097 -11.5261,7.600587 -22.6957,16.631397 -32.7042,27.417497 -8.4034,9.05908 -15.7526,19.48685 -21.4137,31.10576 -5.1823,10.7435 -8.6689,22.21727 -10.4164,33.93838 0,1e-5 0,1e-5 0,2e-5 -1.736,11.84708 -1.7943,23.64873 -0.5965,35.07921 1.2757,12.22871 3.8041,24.04612 7.1042,35.37974 0.2099,0.72285 0.4226,1.44413 0.6382,2.16385 3.4601,11.5389 7.6436,22.70025 12.243,33.52586 0,1e-5 0,2e-5 1e-4,3e-5 5.9963,14.10613 12.6529,27.77477 19.6743,41.12507 0,10e-6 0,2e-5 0,2e-5 5.5837,10.59187 11.3812,21.02899 17.2471,31.35997 5.7253,10.0961 11.537,20.11251 17.3658,30.08251 8.4494,14.4057 16.7675,28.83047 24.8098,43.32273 1.6769,3.02385 3.3432,6.0493 4.9965,9.07718 8.6778,16.11983 16.7911,31.96623 24.1237,47.83001 2.0763,4.45667 4.1163,8.89263 6.1104,13.31935 0,10e-6 0,10e-6 0,2e-5 1.7343,3.84987 3.4322,7.68891 5.0783,11.5258 2.8435,6.61018 5.5612,13.23105 8.0659,19.90251 1.0056,2.68128 1.9782,5.36832 2.9073,8.06281 2.4171,6.96551 4.5354,14.01003 6.1743,21.15191 0,10e-6 0,2e-5 0,2e-5 2.056,8.97933 3.3822,18.09704 3.4021,27.1912 0.02,8.40928 -1.0781,16.82113 -3.607,24.776"
       style="fill:none;stroke:#000000;stroke-width:0.41680205px;stroke-linecap:butt;stroke-linejoin:miter;stroke-opacity:1" />
    <path
       style="fill:none;stroke:#000000;stroke-width:0.41680205px;stroke-linecap:butt;stroke-linejoin:miter;stroke-opacity:1"
       d="m 4252.5243,619.83759 c 4.29,-2.55746 8.4536,-5.22445 12.4496,-8.17853 0.612,-0.45254 1.2198,-0.91154 1.8231,-1.37727 6.2335,-4.81242 11.9832,-10.32878 17.0355,-16.56234 2.3053,-2.8438 4.4631,-5.82389 6.4517,-8.927 2.8435,-4.43262 5.3727,-9.07752 7.592,-13.89727 0,0 0,-10e-6 0,-2e-5 3.5495,-7.72578 6.3097,-15.83551 8.3093,-24.08684 2.7343,-11.15627 4.2936,-22.68 4.8571,-34.38523 0.2156,-4.39835 0.2925,-8.81173 0.2414,-13.22749 0,-1e-5 0,-2e-5 0,-2e-5 -0.1853,-16.91759 -2.0036,-34.29101 -5.2078,-52.18829 -3.8539,-21.42893 -9.7462,-44.03788 -17.1782,-68.40015 -0.7514,-2.46723 -1.5158,-4.96906 -2.2925,-7.50723 -2.7279,-9.02581 -5.6139,-18.57464 -8.635,-28.7378 0,-10e-6 0,-2e-5 0,-3e-5 -3.6109,-12.00653 -7.1761,-25.27151 -10.5734,-40.03873 -3.194,-13.73283 -5.6229,-28.96622 -7.0372,-45.91051 -1.2568,-16.50888 -0.9475,-33.70755 1.2464,-51.5735 0,-1e-5 0,-1e-5 0,-2e-5 2.5473,-18.62527 6.251,-36.2114 11.2344,-52.41491 5.6553,-18.52982 11.1677,-35.27943 16.327,-49.80991 1.8012,6.52071 2.1372,15.82516 0.9286,28.48402 -1.1829,11.20403 -1.9285,25.00456 -1.9806,41.71957 0.256,16.07387 2.2605,32.72404 6.3485,49.84553 0,1e-5 0,2e-5 0,4e-5 4.405,17.48677 10.0964,34.03887 17.2378,49.33986 7.63,16.40765 15.7489,31.74733 24.3676,45.72625 0,1e-5 0,1e-5 0,2e-5 7.228,11.83788 14.4895,23.24123 21.7602,34.1126 2.0674,3.04254 4.136,6.05281 6.2049,9.02899 20.4777,29.25991 40.4199,58.68795 58.9152,87.75505 15.3732,24.45235 29.8048,49.68966 42.8387,75.67068 3.3969,6.86304 6.6319,13.92239 9.6848,21.18118 8.1389,19.47147 14.9009,40.01114 19.8882,61.63566 3.8281,16.09607 5.8504,33.22266 5.7863,51.33532 -0.069,11.24907 -0.985,22.56704 -2.8244,33.92715 -0.6086,3.56764 -1.3442,7.09628 -2.2085,10.5837 2.4256,-2.83742 4.7362,-5.74692 6.9293,-8.72802 7.0233,-9.43491 13.2215,-19.15239 18.5829,-29.11606 8.5352,-16.06165 15.013,-31.89505 19.3874,-47.22805 6.1579,-20.56128 10.2635,-41.11511 12.4673,-61.42885 0.852,-7.55228 1.4521,-15.00548 1.8092,-22.34433 0,-1e-5 0,-2e-5 0,-3e-5 1.4513,-27.65763 0.6212,-56.4247 -2.1058,-86.33222 0,0 0,-10e-6 0,-10e-6 -3.267,-35.43452 -9.4323,-74.74189 -17.4415,-118.46319 -0.8178,-4.45655 -1.6437,-9.0241 -2.4757,-13.70419 0,-10e-6 0,-10e-6 0,-2e-5 -2.8754,-16.76052 -5.8277,-35.17689 -8.7705,-55.32409 0,-2e-5 0,-3e-5 0,-5e-5 -3.6243,-23.78684 -6.3563,-51.47722 -7.9117,-83.22127 -1.6226,-29.62678 -0.066,-63.45604 5.0508,-101.508016 5.2697,-37.282346 15.8866,-75.49243301 32.144,-114.378781 17.8199,-40.437411 38.9265,-76.067243 63.2328,-106.479163 6.5596,-8.10061 13.049,-15.82838 19.4627,-23.17941 -4.1493,6.34333 -8.4218,13.08636 -12.8132,20.23305 -16.3986,26.93663 -30.2355,59.519537 -41.1958,97.74456 0,2.5e-5 0,5e-5 -1e-4,7.5e-5 -9.6951,36.784462 -14.0343,73.529222 -12.9245,109.996106 0,1.3e-5 0,2.5e-5 0,3.8e-5 1.5278,37.172194 6.6309,70.652121 15.1944,100.212011 9.0485,31.64989 19.4135,59.62897 30.9233,83.80984 0,0 0,1e-5 0,2e-5 9.6005,20.48318 19.3234,39.41769 29.0982,56.77737 0,1e-5 0,2e-5 0,3e-5 2.7868,4.84161 5.5777,9.57913 8.3709,14.21212 27.6047,45.40249 54.2688,87.87669 78.9532,127.41565 20.5222,33.42362 39.7981,66.73347 57.4236,99.98951 0,10e-6 0,2e-5 0,3e-5 4.5997,8.84352 8.9722,17.93755 13.1047,27.28143 11.0336,25.16488 20.2145,51.48839 27.2676,78.96881 4.7242,17.77478 7.5291,36.56099 8.3262,56.32203 6.0896,-19.87916 10.0723,-38.84705 12.0536,-56.85229 3.4289,-27.84073 4.5282,-54.64337 3.6448,-80.38452 -0.3049,-9.56145 -0.8684,-18.88746 -1.674,-27.97769 -3.0055,-34.20899 -7.8982,-68.68112 -14.0274,-103.47386 0,0 0,-1e-5 0,-1e-5 -7.3591,-41.19331 -16.7105,-85.60739 -26.3068,-133.19763 -0.9788,-4.8521 -1.9482,-9.8096 -2.905,-14.87159 0,-1e-5 0,-2e-5 0,-3e-5 -3.3096,-18.1327 -6.462,-37.83774 -9.3213,-59.0609 0,-1e-5 0,-3e-5 0,-4e-5 -3.5357,-25.0567 -5.7169,-53.82568 -6.22,-86.05641 -0.6557,-30.08583 2.3778,-63.885968 9.3276,-100.968273 0,-1.2e-5 0,-2.4e-5 0,-3.5e-5 7.0342,-36.3493702 19.746,-72.728331 38.0177,-108.69554 17.4814,-32.827583 37.4708,-61.150132 59.66,-84.951772 -15.5493,26.10595 -28.691,56.222431 -39.1988,90.10455 -10.7157,37.104562 -15.809,73.872115 -15.4678,109.953165 0,2.5e-5 0,5e-5 0,7.5e-5 0.6929,36.840213 5.1494,69.88139 12.9637,99.02896 0,1e-5 0,2e-5 0,3e-5 8.2628,31.24107 18.0337,58.74739 28.964,82.59476 0,1e-5 0,3e-5 0,4e-5 9.1285,20.19713 18.486,38.79001 27.9616,55.83575 0,1e-5 0,2e-5 0,4e-5 2.699,4.76347 5.4073,9.42206 8.122,13.97689 26.8453,44.71828 53.3298,85.468 78.3538,122.82167 0,1e-5 0,2e-5 0,3e-5 20.8011,31.49142 40.7127,62.1426 59.4057,92.11591 0,1e-5 0,2e-5 0,3e-5 4.8704,7.94006 9.5712,16.02494 14.0974,24.24909 12.0585,22.09808 22.7753,44.71489 32.0119,67.81422 6.9937,17.21153 12.1715,35.19579 15.5569,53.86937 1.6435,9.15123 2.8272,18.25001 3.5416,27.29798 3.3355,-10.66875 6.0726,-21.23952 8.2684,-31.70878 4.4029,-21.34239 6.6788,-41.38589 7.1863,-60.22957 0.9001,-25.33507 0.1786,-49.32198 -1.6226,-72.12961 -0.6625,-8.51422 -1.4671,-16.81276 -2.3899,-24.90951 0,-1e-5 0,-2e-5 0,-3e-5 -3.4987,-30.72749 -7.7801,-60.68609 -11.9023,-89.93383 -4.9526,-34.85847 -9.8402,-70.14719 -12.1419,-105.17431 -0.2369,-3.55251 -0.4418,-7.13212 -0.6104,-10.73534 0,-10e-6 0,-2e-5 0,-3e-5 -0.5672,-12.83177 -0.6842,-26.05827 -0.1594,-39.48714 0,-10e-6 0,-2e-5 0,-3e-5 0.5634,-15.86341 2.3765,-32.60452 5.8134,-49.54205 3.1158,-15.75229 8.3703,-31.91358 15.8338,-47.55866 7.2808,-15.24317 17.198,-29.11993 29.1971,-40.96985 0,0 1e-4,-1e-5 1e-4,-1e-5 12.7581,-12.34752 27.0787,-21.167507 42.1007,-26.840988 12.4658,-4.602365 24.8931,-7.094331 37.1418,-7.958808 -8.7878,7.137102 -17.2523,15.314205 -25.0765,24.593926 -9.4351,11.24356 -17.3707,24.12269 -23.3085,38.28046 -5.5722,13.54298 -8.986,27.5864 -10.4034,41.62637 0,1e-5 0,1e-5 0,2e-5 -1.4299,14.50503 -1.0062,28.60704 0.7626,42.05389 1.8904,14.51024 5.0474,28.36576 8.9878,41.54754 3.3196,11.15298 7.133,21.94566 11.274,32.41508 1.1738,2.95613 2.3737,5.88854 3.596,8.79795 12.1228,28.82796 26.2708,56.08609 40.8298,82.44567 12.0959,21.94035 24.5475,43.39138 36.8571,64.64348 0,0 0,10e-6 0,10e-6 3.1959,5.52775 6.3753,11.05646 9.5306,16.58847 8.3714,14.69139 16.5928,29.36293 24.4336,44.10444 5.7985,10.89086 11.3234,21.85132 16.5112,32.90206 0,0 0,1e-5 0,2e-5 3.2381,6.89763 6.3392,13.81264 9.2516,20.76089 2.0243,4.85606 3.9459,9.71476 5.7505,14.58475 3.9485,10.67227 7.3577,21.333 9.82,32.08297 0,1e-5 0,2e-5 0,3e-5 0.2372,1.04048 0.4662,2.08108 0.6862,3.12169 1.7711,8.45241 2.9815,16.8577 3.1641,25.20068 0.1764,8.28169 -0.6162,16.51582 -2.9332,24.27555"
       id="path7215"
       inkscape:connector-curvature="0"
       inkscape:path-effect="#path-effect7221"
       inkscape:original-d="m 4200.9143,587.32917 118.2167,-366.2431 126.2106,322.41221 237.9454,-303.23142 128.1901,281.26525 197.0128,-272.73076 143.5708,287.23473 228.9788,-307.82367 35.843,379.82527"
       sodipodi:nodetypes="ccccccccc" />
    <path
       sodipodi:nodetypes="ccccccccc"
       inkscape:original-d="m 5274.3413,613.42014 144.7897,-412.33407 126.2106,322.41221 237.9454,-303.23142 128.1901,358.56815 197.0128,-316.21364 143.5708,311.39189 228.9788,-365.80085 8.7017,446.12082"
       inkscape:path-effect="#path-effect7223"
       inkscape:connector-curvature="0"
       id="path7217"
       d="m 5348.3511,670.77963 c 0.1243,0.006 0.2487,0.0118 0.3731,0.0175 4.0209,0.1826 8.1123,0.2044 12.2585,-0.0114 5.6975,-0.29531 11.4996,-1.04787 17.2817,-2.39675 0,0 0,0 0,0 2.9319,-0.6833 5.8581,-1.51693 8.7617,-2.51369 8.1577,-2.80879 16.0606,-6.85587 23.3271,-12.04608 0,-10e-6 0,-10e-6 1e-4,-2e-5 0.2014,-0.14407 0.4023,-0.289 0.6028,-0.43479 0,0 0,0 0,0 15.7716,-11.57717 28.4206,-27.65224 37.1386,-45.16807 0,-10e-6 0,-10e-6 0,-2e-5 3.2353,-6.37515 6.0926,-12.96807 8.5932,-19.72771 0,-1e-5 0,-2e-5 0,-3e-5 5.4303,-14.61435 9.2066,-29.9267 11.5642,-45.36439 2.0352,-12.96155 3.245,-26.26989 3.7058,-39.86734 0.4518,-13.3703 0.178,-27.12159 -0.7383,-41.25583 0,0 0,-10e-6 0,-10e-6 -1.0221,-16.16002 -2.844,-33.00917 -5.4158,-50.66093 -2.2331,-15.34943 -4.9342,-31.66224 -8.0166,-49.1291 -0.1707,-0.95387 -0.3415,-1.91245 -0.5124,-2.87579 -2.6778,-15.41768 -5.4011,-32.15289 -8.0593,-50.41773 -2.684,-18.27217 -4.6533,-38.15027 -5.631,-59.82889 0,-2e-5 0,-4e-5 0,-6e-5 -0.8312,-21.30485 -0.2045,-43.298 2.2121,-65.9058 0,-1e-5 1e-4,-2e-5 1e-4,-3e-5 2.7644,-23.67605 6.5025,-46.32499 11.319,-67.53439 5.4185,-24.142164 10.406,-46.457542 14.6947,-66.426707 4.0571,10.305262 6.247,23.820742 6.5031,41.065163 0.087,15.268424 0.3196,33.458104 0.9588,54.857034 0,2e-5 0,3e-5 0,4e-5 0.8806,20.47828 3.3498,41.86447 7.7541,64.04321 0,1e-5 0,2e-5 0,3e-5 4.7019,22.49161 10.6693,44.20659 18.0917,64.80282 7.3933,20.53805 15.1567,40.07736 23.3168,58.33016 0.5161,1.14247 1.0339,2.28063 1.5536,3.41442 9.4337,20.75985 18.8085,40.86069 28.0548,60.07552 10.6635,22.01873 20.87,43.89951 30.5018,65.48443 0,0 0,10e-6 0,10e-6 8.497,18.84003 16.4712,37.82761 23.7696,56.8953 0,0 0,10e-6 0,10e-6 7.3805,19.50009 14.0496,39.45905 19.863,59.8549 0,10e-6 0,2e-5 0,3e-5 7.2403,24.20027 12.2853,50.40313 14.5341,78.57651 1.0571,13.11191 1.4943,26.55969 1.2517,40.33613 0.01,8.2172 -0.5228,16.59943 -1.6083,25.13373 4.2899,-7.42867 8.0479,-14.85321 11.2593,-22.24476 5.7924,-12.34235 10.9087,-24.73207 15.3604,-37.10817 9.7014,-26.5554 16.4109,-52.58485 20.2773,-77.43998 0,-10e-6 0,-2e-5 0,-3e-5 3.5425,-20.97001 5.9444,-42.29685 7.3024,-63.89673 0,-10e-6 0,-3e-5 0,-4e-5 1.3272,-21.08232 1.6575,-42.89375 1.1203,-65.41839 0,-1e-5 0,-2e-5 0,-3e-5 -0.5221,-25.82627 -2.0119,-53.28486 -4.3057,-82.44474 -2.0094,-25.48245 -4.2899,-53.4786 -6.6248,-84.10498 -0.1351,-1.67268 -0.2671,-3.35726 -0.3959,-5.05375 -1.8587,-27.08668 -3.0013,-57.52346 -3.1906,-91.39875 0,-1e-5 0,-2e-5 0,-3e-5 -0.3034,-33.99523 2.2964,-71.65194 8.167,-112.930379 0,-2.5e-5 0,-4.9e-5 0,-7.4e-5 6.0665,-40.728325 16.6844,-81.9750555 32.1138,-123.438856 0,-1.2e-5 0,-2.5e-5 0,-3.7e-5 16.8322,-43.322349 36.2503,-82.311814 58.156,-116.531274 9.2732,-14.38891 18.3475,-27.9381 27.2023,-40.63029 -5.0304,11.13486 -10.3927,23.15824 -16.0701,36.08064 -13.5298,30.80776 -25.1863,66.720674 -34.6799,107.69307 -8.4411,39.239405 -12.3706,78.815187 -11.701,118.498158 0,1.5e-5 0,2.9e-5 0,4.3e-5 1.0575,40.181109 5.3728,77.237639 12.8486,110.950359 7.3872,33.57083 15.8396,64.03359 25.2317,91.27588 0.5995,1.70708 1.203,3.40285 1.8106,5.0873 0,10e-6 0,3e-5 0,5e-5 10.9742,30.84133 22.0986,59.38356 33.2188,85.56818 12.8147,29.93217 25.1155,58.58807 36.7716,85.9422 0,0 0,1e-5 0,2e-5 10.3098,23.84293 19.9768,47.32095 28.8708,70.41717 8.9895,23.69953 17.1604,47.60957 24.4161,71.72072 9.1334,28.55124 15.3993,59.54112 18.4881,92.85028 1.4548,15.54113 2.1962,31.44667 2.1915,47.7065 1.0038,45.82968 -13.4375,95.9156 -44.0302,149.23128 -0.4179,0.66579 -0.839,1.3298 -1.2633,1.99203 -14.0336,21.70896 -31.5761,40.8073 -52.6105,57.21548 26.4436,-17.28515 49.2203,-37.30665 68.3469,-59.92644 0.5788,-0.68986 1.1543,-1.38149 1.7266,-2.07489 42.827,-55.5021 68.7005,-107.70873 78.897,-155.45335 4.1112,-16.96899 7.4293,-33.55974 10.0039,-49.76068 5.6482,-34.74603 7.973,-67.06112 7.437,-96.87558 0,-10e-6 0,-2e-5 0,-2e-5 -0.064,-25.16446 -1.0688,-50.04619 -2.8425,-74.63527 -1.7679,-23.98523 -4.264,-48.25555 -7.2714,-72.78263 -3.3284,-28.12804 -7.1403,-57.37744 -11.1459,-87.66979 -3.493,-26.48014 -6.7698,-55.05761 -9.5321,-85.56768 0,0 0,-1e-5 0,-2e-5 -0.1586,-1.66635 -0.3123,-3.3426 -0.461,-5.02872 -2.1746,-26.91718 -3.1857,-56.66032 -2.7862,-88.95376 0.285,-32.41525 3.896,-67.59801 10.9942,-105.071344 5.9529,-30.400816 15.0596,-60.394919 27.2268,-89.750335 -6.0952,31.022889 -9.0519,61.98005 -8.9486,92.680914 0.4519,37.862349 4.2772,72.507045 11.1241,103.824705 6.7734,31.2088 14.7815,59.29483 23.7655,84.30686 0.5716,1.56651 1.1474,3.12206 1.7273,4.66666 10.4919,28.28127 21.3475,54.14416 32.3425,77.68339 12.676,26.93627 25.1185,52.29549 37.1978,76.1656 0,10e-6 0,10e-6 0,2e-5 10.6603,20.81766 20.9223,40.99167 30.687,60.54399 9.8754,20.03632 19.2292,39.88597 28.0219,59.538 10.8437,23.28929 19.7196,47.88375 26.6441,73.52999 3.2146,11.95429 5.99,24.03825 8.3258,36.23446 7.0681,34.2881 3.9782,70.46257 -8.0698,107.649 -0.1729,0.46467 -0.3475,0.92803 -0.524,1.39005 -4.3596,11.29244 -9.8277,21.54011 -16.3516,30.7851 11.6896,-13.05888 21.795,-26.88892 30.4303,-41.39549 0.3506,-0.59279 0.6988,-1.1863 1.0446,-1.78054 25.8329,-47.43568 39.146,-90.44125 43.2149,-129.24063 1.7028,-13.92537 2.9014,-27.42289 3.6722,-40.51372 1.707,-28.1771 1.477,-54.128 -0,-78.18389 0,-10e-6 0,-10e-6 0,-2e-5 -1.0485,-20.24571 -2.4576,-39.88874 -3.9897,-58.96231 0,-10e-6 0,-2e-5 0,-3e-5 -1.5203,-18.69927 -3.1619,-37.11761 -4.6281,-55.2064 -1.6303,-20.69878 -2.9621,-41.28731 -3.5801,-61.55229 -0.5441,-17.63555 -0.4101,-35.4937 0.7926,-53.16502 0,-1e-5 0,-2e-5 0,-3e-5 0.063,-0.96503 0.1307,-1.93082 0.2026,-2.89723 1.219,-15.46686 3.507,-31.19169 7.1437,-46.57751 3.5898,-15.38583 9.0441,-30.49281 16.3747,-44.43878 0,-10e-6 0,-2e-5 0,-3e-5 7.2153,-13.69375 16.5149,-25.64496 27.3653,-35.28431 0,0 0,-1e-5 0,-1e-5 11.5093,-10.09745 24.2741,-16.9278 37.5543,-20.859926 11.716,-3.418053 23.5507,-4.628064 35.3861,-4.163686 -8.7407,6.1392 -17.0754,13.150752 -24.6686,21.142682 -8.6023,9.07113 -16.0545,19.422 -21.8648,30.80391 -5.4954,10.82771 -9.3825,22.3721 -11.7029,34.16714 0,0 0,10e-6 0,10e-6 -2.3651,12.07916 -3.176,24.2689 -2.8228,36.25327 0.35,12.02895 1.7748,23.86841 3.9177,35.42811 0.134,0.72054 0.2708,1.44004 0.4104,2.15847 2.5501,13.15681 5.9653,26.02276 9.9071,38.60393 0,10e-6 0,10e-6 0,2e-5 4.5524,14.52222 9.767,28.73426 15.3928,42.70478 4.9335,12.23915 10.1776,24.31428 15.5633,36.26798 5.4535,12.11529 11.0707,24.12551 16.7526,36.07605 6.7969,14.25936 13.6385,28.49756 20.365,42.77594 3.1026,6.58903 6.1859,13.18186 9.2255,19.78786 8.3086,18.03919 16.0315,36.21338 22.7598,54.6905 0,10e-6 1e-4,10e-6 1e-4,2e-5 0.084,0.233 0.1681,0.466 0.2519,0.69899 0,1e-5 0,1e-5 0,2e-5 3.0214,8.39936 5.812,16.77704 8.2674,25.17102 0,10e-6 0,2e-5 0,3e-5 0.8707,2.98304 1.7069,5.96199 2.5031,8.93902 0,10e-6 0,2e-5 0,3e-5 1.5687,5.87294 2.9889,11.72346 4.1727,17.56357 0,10e-6 0,10e-6 0,10e-6 0.8641,4.245 1.6174,8.48828 2.2246,12.73425 0,0 0,10e-6 0,10e-6 0.772,5.43662 1.3229,10.85836 1.5002,16.23232 0.1131,3.34871 0.082,6.68438 -0.1307,9.99857 -0.4923,7.55439 -1.8769,15.00348 -4.6549,21.81876"
       style="fill:none;stroke:#000000;stroke-width:0.41680205px;stroke-linecap:butt;stroke-linejoin:miter;stroke-opacity:1" />
    <path
       style="fill:none;stroke:#000000;stroke-width:0.41680205px;stroke-linecap:butt;stroke-linejoin:miter;stroke-opacity:1"
       d="m 6427.4737,637.53865 c 1.9271,-0.83186 3.8466,-1.67127 5.7588,-2.53824 0.081,-0.0365 0.1614,-0.0731 0.242,-0.10969 6.928,-3.14417 13.7704,-6.72069 20.2723,-11.04576 0,0 0,0 0,-10e-6 3.9632,-2.63481 7.7964,-5.52849 11.4382,-8.70343 2.9898,-2.60859 5.8514,-5.38727 8.5687,-8.33235 6.5342,-7.09745 12.2385,-15.06869 16.9179,-23.67227 0,0 0,-10e-6 1e-4,-10e-6 4.8907,-8.96149 8.8131,-18.56584 11.7614,-28.63976 0,-10e-6 0,-10e-6 0,-2e-5 1.5007,-5.08951 2.7559,-10.28075 3.7674,-15.54503 0,-10e-6 0,-10e-6 0,-2e-5 3.0568,-15.96786 4.2458,-32.8693 3.7529,-50.62392 -0.6209,-22.3681 -3.9855,-46.63862 -9.6171,-73.26806 0,0 0,-1e-5 0,-1e-5 -0.4544,-2.14902 -0.9213,-4.32689 -1.4003,-6.53461 -2.1965,-10.42084 -4.6323,-21.61287 -7.269,-33.71174 0,-10e-6 0,-2e-5 0,-3e-5 -2.9976,-13.51236 -5.9448,-28.672 -8.6776,-45.78808 0,-10e-6 0,-2e-5 0,-4e-5 -2.5949,-15.92749 -4.2058,-33.80633 -4.5044,-53.90095 -0.1527,-19.59885 1.718,-40.09608 6.0268,-61.45177 2.5884,-11.90981 5.6058,-23.43491 9.0773,-34.50525 -0.559,7.54093 -0.952,15.93249 -1.1366,25.22729 -0,16.70401 1.839,34.07537 5.8928,52.00369 0,2e-5 0,3e-5 0,4e-5 4.3794,18.30611 10.1219,35.67914 17.4046,51.77941 0,0 0,1e-5 0,1e-5 7.7768,17.26316 16.0709,33.45805 24.8933,48.27108 7.823,13.26796 15.683,26.07182 23.5475,38.28918 1.6948,2.58114 3.3879,5.14392 5.0789,7.68735 21.0214,31.41062 41.107,63.56978 59.1465,95.89507 14.2348,25.80123 27.2521,52.69976 38.5765,80.6497 3.6504,9.31823 6.9576,18.88886 9.8868,28.70924 5.8125,19.56163 10.0755,39.81166 12.5042,60.70099 2.3226,20.18877 2.1045,40.74924 -0.9623,61.52432 -1.2981,8.58183 -3.109,17.00327 -5.4587,25.24574 -3.0005,10.10088 -6.8586,19.5529 -11.6031,28.30192 -0.074,0.13561 -0.1474,0.27091 -0.2214,0.40591 0.1508,-0.094 0.3014,-0.18845 0.4519,-0.28321 9.752,-6.08892 18.8078,-13.09533 27.1085,-21.05078 6.7056,-6.47346 12.939,-13.3135 18.6848,-20.51841 13.7648,-17.47292 24.8302,-35.82148 32.9906,-54.81351 8.5279,-19.59788 15.0026,-39.5986 19.4365,-59.82165 2.2772,-10.12368 4.0576,-20.20455 5.3452,-30.2142 0,-10e-6 0,-2e-5 0,-3e-5 3.732,-29.86188 4.8583,-60.74406 3.7293,-92.50451 -1.4149,-39.66646 -6.6193,-83.1272 -14.4506,-130.61301 -0.6373,-3.8526 -1.2844,-7.77573 -1.9401,-11.76997 0,-10e-6 0,-2e-5 0,-4e-5 -2.9091,-18.9358 -5.9209,-39.78052 -8.9194,-62.60684 -3.5055,-25.48035 -6.0618,-55.01045 -7.3641,-88.69981 0,-2e-5 0,-4e-5 0,-6e-5 -1.399,-31.4411 0.5716,-67.21607 6.2965,-107.29356 4.1847,-27.977667 11.2294,-56.380656 21.2329,-85.106343 -4.5587,26.80396 -6.3469,53.592748 -5.327,80.278304 1.8688,38.183919 7.3603,72.693049 16.3671,103.288489 9.5239,32.76379 20.3762,61.88146 32.3865,87.21494 0,2e-5 0,3e-5 0,4e-5 10.5994,22.69665 21.3307,43.69776 32.1097,62.96794 0,10e-6 0,2e-5 0,4e-5 2.3351,4.06218 4.6681,8.06233 6.9981,12.00014 28.9264,48.49907 56.1934,94.8269 80.6996,138.87836 19.3414,35.29898 37.0762,70.94154 52.8398,106.93332 5.0662,12.07485 9.6547,24.41999 13.7469,37.03015 8.1315,25.19852 14.2028,50.94399 18.0476,77.20627 3.6769,25.45104 3.9482,51.02215 0.6937,76.63343 -0.5986,4.55332 -1.3164,9.0515 -2.1546,13.49421 2.4379,-4.47383 4.7484,-9.00631 6.933,-13.5968 12.1085,-25.81875 20.4802,-51.68461 25.2877,-77.48766 5.023,-26.63087 7.6434,-52.80975 8.0888,-78.49801 0.2603,-12.85947 -0.01,-25.46949 -0.7712,-37.82615 0,-10e-6 0,-3e-5 0,-4e-5 -2.6019,-36.85985 -7.4037,-73.51922 -13.8214,-110.01506 0,-1e-5 0,-1e-5 0,-2e-5 -8.1185,-45.57726 -19.0378,-93.69257 -30.9747,-144.33323 -0.9672,-4.10856 -1.9333,-8.28075 -2.8965,-12.51618 0,-10e-6 0,-10e-6 0,-2e-5 -4.343,-20.07916 -8.5357,-41.90637 -12.4208,-65.4301 -1e-4,-2e-5 -1e-4,-3e-5 -1e-4,-5e-5 -4.5013,-26.25883 -7.6522,-56.2628 -9.1308,-89.79416 -1.5624,-31.29551 0.6144,-66.38051 6.7695,-104.863367 6.2785,-37.715456 18.3476,-75.487642 36.121,-112.899883 10e-5,-1.4e-5 10e-5,-2.8e-5 10e-5,-4.2e-5 19.4095,-38.89185 42.148,-71.834888 67.7843,-98.788508 29.3985,-30.38364 57.2766,-53.03066 83.2225,-68.40067 -18.5841,18.83017 -38.9441,44.51113 -60.3899,77.02216 -18.7888,28.755742 -34.4744,62.804964 -46.7224,101.788743 -10.9852,37.481716 -16.3343,74.683057 -16.2373,111.248613 0,1.4e-5 0,2.8e-5 0,4.2e-5 0.4387,37.344872 4.6575,70.951092 12.2447,100.715172 8.0174,31.90825 17.5582,60.14092 28.2665,84.76524 9.4567,22.05741 19.1763,42.3601 29.0234,60.97161 2.13,3.92904 4.2622,7.79517 6.395,11.59887 26.4899,46.92986 52.0858,90.41647 75.7042,130.92116 18.6379,32.38171 36.1544,64.27054 52.2874,95.75511 0,10e-6 0,2e-5 0,3e-5 5.208,10.52398 10.0694,21.17667 14.5812,31.95122 8.9405,21.49046 16.4326,43.08766 22.4169,64.78649 5.7243,20.99363 9.0875,41.81983 10.1373,62.47473 0.4108,8.52786 0.3991,16.8153 -0.044,24.87212 -0.353,5.05207 -0.8877,9.90958 -1.6049,14.57743 3.3478,-5.93215 6.4417,-12.01951 9.2936,-18.25295 4.4668,-9.95964 8.3499,-20.03333 11.7008,-30.20303 8.0058,-24.59788 13.059,-48.59003 15.7064,-71.93388 2.766,-24.1908 3.8204,-47.45261 3.632,-69.84019 -0.076,-11.26063 -0.4566,-22.22966 -1.0879,-32.9237 -2.0732,-32.20505 -5.1295,-63.09177 -8.1979,-92.7411 0,-10e-6 0,-2e-5 0,-3e-5 -3.8818,-37.26743 -7.9493,-73.93794 -9.2897,-109.31493 -0.1111,-2.85435 -0.2013,-5.71718 -0.2681,-8.58657 0,-1e-5 0,-2e-5 0,-3e-5 -0.2506,-13.53985 0.036,-27.34174 1.0945,-41.14832 0,-1e-5 0,-2e-5 0,-3e-5 1.1343,-15.42142 3.5394,-31.36294 7.5864,-47.0614 0,-1e-5 0,-2e-5 0,-3e-5 3.6911,-14.58967 9.4056,-29.16655 17.1661,-42.71439 0,-1e-5 0,-1e-5 0,-2e-5 7.5435,-13.18047 17.4349,-24.71475 29.0236,-33.91403 2.8772,-2.24919 5.8281,-4.30822 8.8412,-6.18312 -1.6406,3.31821 -3.1756,6.71523 -4.5984,10.18635 -5.6838,14.16533 -9.1253,28.80502 -10.4941,43.4171 -1.3732,15.08753 -0.8488,29.69029 1.0615,43.56319 0,1e-5 0,1e-5 0,2e-5 2.04,14.96593 5.351,29.20446 9.4501,42.70257 3.6509,12.07987 7.8462,23.72311 12.3901,34.97535 0.972,2.39238 1.9593,4.7688 2.96,7.12963 0,0 0,1e-5 0,2e-5 12.4646,29.37465 26.8188,57.12949 41.4953,83.90588 11.5755,21.16369 23.4172,41.85815 35.1219,62.31185 0,0 0,0 0,10e-6 3.8188,6.70579 7.6048,13.40086 11.3472,20.08986 7.3787,13.20349 14.6024,26.344 21.5284,39.49114 0,1e-5 0,2e-5 10e-5,2e-5 6.6264,12.59699 12.9033,25.1772 18.7418,37.81103 0,1e-5 0,1e-5 0,2e-5 2.4245,5.24631 4.7698,10.4886 7.0132,15.7371 2.7163,6.38357 5.2792,12.74989 7.6492,19.12517 0,0 0,10e-6 0,2e-5 3.8821,10.46332 7.2709,20.86541 9.7358,31.33609 0,0 0,0 0,1e-5 0.029,0.12199 0.057,0.24398 0.085,0.36597 2.1125,9.12143 3.6209,18.17987 3.8792,27.15316 0.2246,8.03841 -0.4759,16.02122 -2.6741,23.51998"
       id="path7225"
       inkscape:connector-curvature="0"
       inkscape:path-effect="#path-effect7227"
       inkscape:original-d="m 6376.5057,614.54372 142.6253,-353.45765 126.2106,322.41221 237.9454,-303.23142 128.1901,281.26525 197.0128,-339.02907 143.5708,353.53304 228.9788,-307.82367 35.843,379.82527"
       sodipodi:nodetypes="ccccccccc" />
    <path
       sodipodi:nodetypes="ccccccccc"
       inkscape:original-d="m 7480.9143,667.32917 118.2167,-366.2431 126.2106,322.41221 237.9454,-303.23142 128.1901,281.26525 197.0128,-272.73076 143.5708,287.23473 228.9788,-307.82367 35.843,379.82527"
       inkscape:path-effect="#path-effect7231"
       inkscape:connector-curvature="0"
       id="path7229"
       d="m 7530.3739,697.19115 c 4.1642,-2.60132 8.2045,-5.24282 12.0807,-8.11341 0.512,-0.37824 1.021,-0.76052 1.527,-1.14704 6.1056,-4.66141 11.7844,-9.97227 16.8115,-15.96332 0,0 0,-1e-5 0,-1e-5 2.3719,-2.82614 4.5972,-5.79435 6.6513,-8.89033 2.8,-4.21663 5.3065,-8.63972 7.5217,-13.23435 3.6398,-7.56351 6.4979,-15.537 8.6011,-23.66826 2.8611,-10.9574 4.5433,-22.29741 5.2233,-33.82656 0,0 0,-10e-6 0,-2e-5 0.2536,-4.22812 0.3746,-8.47186 0.3728,-12.71891 0,0 0,-10e-6 0,-2e-5 0,-16.86605 -1.6892,-34.18009 -4.8293,-51.99808 -3.7367,-21.14744 -9.5866,-43.40678 -17.0857,-67.34229 -0.5753,-1.83716 -1.1594,-3.69398 -1.7519,-5.57127 -2.9177,-9.35551 -6.0497,-19.28964 -9.3744,-29.91787 -3.7002,-11.68433 -7.4244,-24.65046 -11.0617,-39.16192 -3.4011,-13.37979 -6.0887,-28.37283 -7.812,-45.22303 0,-2e-5 0,-3e-5 0,-5e-5 -1.5464,-16.32062 -1.4642,-33.4569 0.5893,-51.40709 2.4383,-18.67909 6.1018,-36.27217 11.1275,-52.4143 5.7364,-18.59456 11.2818,-35.31021 16.4028,-49.67279 1.7812,6.38534 2.0122,15.68903 0.5971,28.52894 -1.3728,11.29778 -2.2246,25.30794 -2.2781,42.36858 0,2e-5 0,3e-5 0,4e-5 0.3086,16.43471 2.5023,33.31871 6.936,50.51817 0,2e-5 0,3e-5 0,5e-5 4.7955,17.65796 10.8649,34.20741 18.3641,49.29706 8.0594,16.32216 16.5396,31.50737 25.4355,45.24624 0,1e-5 0,2e-5 0,3e-5 8.0113,12.5076 16.0257,24.51811 24.0062,35.9106 0,10e-6 0,2e-5 0,2e-5 1.6188,2.27479 3.2365,4.53033 4.8526,6.76578 21.0859,28.99994 41.5698,58.24872 60.4812,87.24005 0,10e-6 0,2e-5 0,3e-5 15.8777,24.6119 30.7716,50.08381 44.1957,76.38897 3.3762,6.70533 6.5955,13.60231 9.6389,20.69421 8.3238,19.49956 15.2361,40.08883 20.3261,61.78918 3.9172,16.20917 5.9878,33.47172 5.9199,51.74375 -0.073,11.04772 -0.9815,22.15086 -2.799,33.28367 -0.5998,3.4897 -1.3229,6.94121 -2.1714,10.35239 2.4186,-2.73787 4.7256,-5.54598 6.9185,-8.42395 7.0393,-9.12186 13.268,-18.53038 18.6728,-28.19241 8.833,-16.00027 15.5618,-31.77322 20.1331,-47.03508 6.4021,-20.39165 10.6894,-40.76694 13.0052,-60.88495 0.8776,-7.29492 1.5089,-14.48995 1.9018,-21.57022 0,0 0,-10e-6 0,-10e-6 1.6449,-27.64115 0.8558,-56.33866 -1.9831,-86.11234 0,-10e-6 0,-2e-5 0,-2e-5 -3.3352,-34.94066 -9.8734,-73.62548 -18.5973,-116.6161 -0.6771,-3.32169 -1.3634,-6.70893 -2.0579,-10.16246 0,-1e-5 0,-1e-5 0,-2e-5 -3.3704,-17.34119 -6.9439,-36.59534 -10.6189,-57.86276 0,-1e-5 0,-3e-5 0,-4e-5 -4.1994,-23.35181 -7.7096,-50.83411 -10.2449,-82.62407 -2.5624,-29.41581 -1.9976,-63.56244 2.0982,-102.49172 4.246,-37.95455 14.2349,-77.256348 30.2959,-117.657826 0,-1.6e-5 0,-3.1e-5 0,-4.6e-5 17.7397,-41.9383232 39.071,-78.722486 63.9068,-109.914351 6.5227,-8.075212 12.9677,-15.774533 19.3295,-23.09423 -4.1976,6.341747 -8.5238,13.08644 -12.9745,20.238009 -17.0914,27.744048 -31.321,61.5353841 -42.3527,101.367172 0,2.7e-5 0,5.4e-5 0,8.1e-5 -9.6279,38.397338 -13.447,76.362051 -11.3718,113.632211 0,2e-5 0,3e-5 0,4e-5 2.5415,38.17301 8.6582,72.10018 18.212,101.54349 10.1423,31.79849 21.4214,59.66902 33.6498,83.4864 0,10e-6 0,2e-5 1e-4,2e-5 10.9542,21.69596 21.9478,41.585 32.891,59.63828 0,2e-5 0,3e-5 0,4e-5 2.2253,3.59102 4.4486,7.12007 6.669,10.58698 28.9128,44.82248 56.6268,86.83728 82.082,126.07042 0,10e-6 0,2e-5 0,3e-5 21.3879,33.48416 41.4308,66.96344 59.71,100.51022 0,10e-6 0,2e-5 0,3e-5 4.6033,8.6113 8.984,17.47193 13.1302,26.58149 11.3615,25.15476 20.7965,51.51382 28.0237,79.08096 4.7857,17.64276 7.6469,36.30314 8.4955,55.9465 6.1215,-19.73977 10.1266,-38.56421 12.1178,-56.42251 3.48,-27.90758 4.5291,-54.73537 3.4979,-80.46253 -0.345,-9.32028 -0.9454,-18.40614 -1.786,-27.25734 0,-10e-6 0,-2e-5 0,-3e-5 -3.2555,-34.50584 -8.5691,-69.17202 -15.2711,-104.07369 0,-10e-6 0,-2e-5 0,-3e-5 -7.9327,-40.92938 -18.2138,-84.95838 -29.0686,-132.11446 -0.8412,-3.6443 -1.6815,-7.35177 -2.5194,-11.12206 0,-10e-6 0,-10e-6 0,-2e-5 -4.0735,-18.9359 -8.0906,-39.72105 -11.8787,-62.29767 0,-1e-5 0,-2e-5 0,-2e-5 -4.3352,-24.78858 -7.5155,-53.56863 -9.1875,-86.09902 0,-2e-5 -1e-4,-4e-5 -1e-4,-6e-5 -1.7798,-30.10474 0.114,-64.50814 5.9525,-102.76447 0,-2e-5 0,-3e-5 0,-4e-5 5.9119,-37.316346 17.9591,-75.08755 36.042,-112.831438 17.1235,-33.813579 36.923,-62.975898 59.0846,-87.46603 -15.7362,26.636148 -28.9038,57.447232 -39.2758,92.182755 -10.6327,38.75617 -15.1726,76.785153 -13.8443,113.723173 0,3e-5 0,5e-5 0,8e-5 1.7262,37.90259 7.2379,71.44721 16.0933,100.55786 0,2e-5 0,4e-5 0,6e-5 9.4106,31.4699 20.165,58.93057 31.9015,82.4804 0,10e-6 0,3e-5 0,4e-5 10.527,21.44516 21.2191,41.00643 31.9409,58.76169 2.1783,3.53873 4.3578,7.01501 6.5371,10.42941 28.3996,44.2208 56.1666,84.54226 82.224,121.57525 0,10e-6 0,2e-5 0,3e-5 21.882,31.52206 42.7805,62.27664 62.368,92.43408 0,10e-6 10e-5,2e-5 10e-5,3e-5 4.925,7.71299 9.6827,15.57363 14.2686,23.57669 12.5335,22.04957 23.6618,44.65896 33.2481,67.79724 7.2803,17.3043 12.6761,35.42332 16.2127,54.27376 1.6494,8.88827 2.8485,17.72077 3.5884,26.50025 3.2314,-10.41577 5.8768,-20.74585 7.9901,-30.98718 4.3956,-21.69794 6.5677,-42.04709 6.886,-61.15186 0.6457,-25.59325 -0.4244,-49.7928 -2.654,-72.78039 -0.7997,-8.37073 -1.7434,-16.52817 -2.8083,-24.48599 0,-2e-5 0,-3e-5 0,-4e-5 -4.1931,-31.28646 -9.3015,-61.72493 -14.3448,-91.41932 0,-1e-5 0,-2e-5 0,-3e-5 -5.9848,-35.06471 -12.1382,-70.54919 -15.8462,-105.8884 -0.2883,-2.71679 -0.5601,-5.4513 -0.8133,-8.20206 -1.2226,-13.73179 -1.9933,-27.97984 -2.0597,-42.51775 -0.1349,-15.97987 0.9156,-33.00259 3.5851,-50.37825 2.366,-16.02265 6.909,-32.71954 13.7666,-49.10438 6.6446,-15.87108 16.1499,-30.53134 27.9608,-43.23167 0,-1e-5 0,-1e-5 0,-2e-5 12.5831,-13.20949 26.8963,-22.7219 42.0105,-28.92946 12.5993,-5.04684 25.1378,-7.86738 37.4678,-8.9797 -8.9059,7.25288 -17.511,15.62779 -25.4748,25.19577 -9.563,11.55363 -17.5195,24.87106 -23.3381,39.56143 -5.4397,14.08113 -8.5376,28.58693 -9.5015,42.98132 -0.9637,14.96828 0.01,29.36756 2.3451,42.95856 0,0 0,1e-5 0,1e-5 2.5182,14.78714 6.3023,28.79589 10.8416,42.03403 4.1065,12.03195 8.7586,23.60442 13.7498,34.77428 1.0094,2.24975 2.0326,4.48449 3.0679,6.70462 0,1e-5 0,2e-5 0,3e-5 13.5408,29.0146 29.0084,56.35729 44.8005,82.77688 13.24,22.19319 26.7952,43.88756 40.1654,65.39891 0,0 0,0 0,10e-6 3.3503,5.40219 6.6812,10.80932 9.9857,16.22376 8.9864,14.74053 17.7953,29.48162 26.1945,44.32329 6.2356,11.00646 12.1637,22.10787 17.7198,33.32879 0,0 0,10e-6 0,10e-6 3.3757,6.81756 6.607,13.65588 9.6428,20.53258 2.2142,5.04998 4.3084,10.10212 6.2661,15.16687 4.1426,10.73986 7.6978,21.43949 10.2308,32.21717 0,10e-6 0,10e-6 0,2e-5 0.2086,0.89408 0.4109,1.78778 0.6063,2.68104 1.8495,8.55742 3.1174,17.00241 3.2763,25.3215 0.1451,8.03771 -0.6495,15.97413 -2.9562,23.34902"
       style="fill:none;stroke:#000000;stroke-width:0.41680205px;stroke-linecap:butt;stroke-linejoin:miter;stroke-opacity:1" />
  </g>
</svg>
