  0
SECTION
  2
HEADER
  9
$ACADVER
  1
AC1014
  9
$HANDSEED
  5
FFFF
  9
$MEASUREMENT
 70
     1
  0
ENDSEC
  0
SECTION
  2
TABLES
  0
TABLE
  2
VPORT
  5
8
330
0
100
AcDbSymbolTable
 70
     4
  0
VPORT
  5
2E
330
8
100
AcDbSymbolTableRecord
100
AcDbViewportTableRecord
  2
*ACTIVE
 70
     0
 10
0.0
 20
0.0
 11
1.0
 21
1.0
 12
210.0
 22
148.5
 13
0.0
 23
0.0
 14
10.0
 24
10.0
 15
10.0
 25
10.0
 16
0.0
 26
0.0
 36
1.0
 17
0.0
 27
0.0
 37
0.0
 40
341.0
 41
1.24
 42
50.0
 43
0.0
 44
0.0
 50
0.0
 51
0.0
 71
     0
 72
   100
 73
     1
 74
     3
 75
     0
 76
     0
 77
     0
 78
     0
  0
ENDTAB
  0
TABLE
  2
LTYPE
  5
5
330
0
100
AcDbSymbolTable
 70
     1
  0
LTYPE
  5
14
330
5
100
AcDbSymbolTableRecord
100
AcDbLinetypeTableRecord
  2
BYBLOCK
 70
     0
  3

 72
    65
 73
     0
 40
0.0
  0
LTYPE
  5
15
330
5
100
AcDbSymbolTableRecord
100
AcDbLinetypeTableRecord
  2
BYLAYER
 70
     0
  3

 72
    65
 73
     0
 40
0.0
  0
LTYPE
  5
16
330
5
100
AcDbSymbolTableRecord
100
AcDbLinetypeTableRecord
  2
CONTINUOUS
 70
     0
  3
Solid line
 72
    65
 73
     0
 40
0.0
  0
ENDTAB
  0
TABLE
  2
LAYER
  5
2
100
AcDbSymbolTable
 70
2
  0
LAYER
  5
50
100
AcDbSymbolTableRecord
100
AcDbLayerTableRecord
  2
0
 70
0
  6
CONTINUOUS
  0
LAYER
  5
51
100
AcDbSymbolTableRecord
100
AcDbLayerTableRecord
  2
Layer_1
 70
0
  6
CONTINUOUS
  0
ENDTAB
  0
TABLE
  2
STYLE
  5
3
330
0
100
AcDbSymbolTable
 70
     1
  0
STYLE
  5
11
330
3
100
AcDbSymbolTableRecord
100
AcDbTextStyleTableRecord
  2
STANDARD
 70
     0
 40
0.0
 41
1.0
 50
0.0
 71
     0
 42
2.5
  3
txt
  4

  0
ENDTAB
  0
TABLE
  2
VIEW
  5
6
330
0
100
AcDbSymbolTable
 70
     0
  0
ENDTAB
  0
TABLE
  2
UCS
  5
7
330
0
100
AcDbSymbolTable
 70
     0
  0
ENDTAB
  0
TABLE
  2
APPID
  5
9
330
0
100
AcDbSymbolTable
 70
     2
  0
APPID
  5
12
330
9
100
AcDbSymbolTableRecord
100
AcDbRegAppTableRecord
  2
ACAD
 70
     0
  0
ENDTAB
  0
TABLE
  2
DIMSTYLE
  5
A
330
0
100
AcDbSymbolTable
 70
     1
  0
DIMSTYLE
105
27
330
A
100
AcDbSymbolTableRecord
100
AcDbDimStyleTableRecord
  2
ISO-25
 70
     0
  3

  4

  5

  6

  7

 40
1.0
 41
2.5
 42
0.625
 43
3.75
 44
1.25
 45
0.0
 46
0.0
 47
0.0
 48
0.0
140
2.5
141
2.5
142
0.0
143
0.03937007874016
144
1.0
145
0.0
146
1.0
147
0.625
 71
     0
 72
     0
 73
     0
 74
     0
 75
     0
 76
     0
 77
     1
 78
     8
170
     0
171
     3
172
     1
173
     0
174
     0
175
     0
176
     0
177
     0
178
     0
270
     2
271
     2
272
     2
273
     2
274
     3
340
11
275
     0
280
     0
281
     0
282
     0
283
     0
284
     8
285
     0
286
     0
287
     3
288
     0
  0
ENDTAB
  0
TABLE
  2
BLOCK_RECORD
  5
1
330
0
100
AcDbSymbolTable
 70
     1
  0
BLOCK_RECORD
  5
1F
330
1
100
AcDbSymbolTableRecord
100
AcDbBlockTableRecord
  2
*MODEL_SPACE
  0
BLOCK_RECORD
  5
1B
330
1
100
AcDbSymbolTableRecord
100
AcDbBlockTableRecord
  2
*PAPER_SPACE
  0
ENDTAB
  0
ENDSEC
  0
SECTION
  2
BLOCKS
  0
BLOCK
  5
20
330
1F
100
AcDbEntity
  8
0
100
AcDbBlockBegin
  2
*MODEL_SPACE
 70
     0
 10
0.0
 20
0.0
 30
0.0
  3
*MODEL_SPACE
  1

  0
ENDBLK
  5
21
330
1F
100
AcDbEntity
  8
0
100
AcDbBlockEnd
  0
BLOCK
  5
1C
330
1B
100
AcDbEntity
 67
     1
  8
0
100
AcDbBlockBegin
  2
*PAPER_SPACE
  1

  0
ENDBLK
  5
1D
330
1B
100
AcDbEntity
 67
     1
  8
0
100
AcDbBlockEnd
  0
ENDSEC
  0
SECTION
  2
ENTITIES
  0
LWPOLYLINE
  5
100
100
AcDbEntity
  8
Layer_1
 62
7
100
AcDbPolyline
 90
109
 70
0
 10
324.420848
 20
244.739578
 30
0.0
 10
311.754616
 20
242.551706
 30
0.0
 10
299.996130
 20
237.382626
 30
0.0
 10
289.476290
 20
229.847378
 30
0.0
 10
280.526000
 20
220.560986
 30
0.0
 10
273.239580
 20
209.102754
 30
0.0
 10
269.063216
 20
196.265466
 30
0.0
 10
267.743984
 20
182.743610
 30
0.0
 10
269.028992
 20
169.231658
 30
0.0
 10
274.291466
 20
149.758354
 30
0.0
 10
283.343082
 20
131.802754
 30
0.0
 10
294.902645
 20
115.127338
 30
0.0
 10
307.688960
 20
99.494578
 30
0.0
 10
328.120113
 20
74.715186
 30
0.0
 10
348.536854
 20
49.923282
 30
0.0
 10
368.950121
 20
25.128282
 30
0.0
 10
389.370848
 20
0.339578
 30
0.0
 10
415.062754
 20
30.949050
 30
0.0
 10
440.911688
 20
61.487546
 30
0.0
 10
466.582840
 20
92.113810
 30
0.0
 10
491.741384
 20
122.986570
 30
0.0
 10
498.732416
 20
134.440914
 30
0.0
 10
504.555488
 20
146.556418
 30
0.0
 10
508.878872
 20
159.231506
 30
0.0
 10
511.370848
 20
172.364578
 30
0.0
 10
512.202688
 20
182.586026
 30
0.0
 10
511.650888
 20
192.869290
 30
0.0
 10
509.362328
 20
202.828858
 30
0.0
 10
504.983880
 20
212.079234
 30
0.0
 10
498.587992
 20
221.104258
 30
0.0
 10
491.168368
 20
229.255194
 30
0.0
 10
482.574880
 20
236.003914
 30
0.0
 10
472.657384
 20
240.822274
 30
0.0
 10
465.172584
 20
243.158754
 30
0.0
 10
457.376552
 20
244.334162
 30
0.0
 10
449.468048
 20
244.426698
 30
0.0
 10
441.645848
 20
243.514578
 30
0.0
 10
428.733031
 20
238.582050
 30
0.0
 10
417.508482
 20
230.680554
 30
0.0
 10
408.264930
 20
220.447562
 30
0.0
 10
401.295109
 20
208.520562
 30
0.0
 10
398.841355
 20
202.261602
 30
0.0
 10
397.221846
 20
195.737946
 30
0.0
 10
396.226653
 20
189.066602
 30
0.0
 10
395.645848
 20
182.364578
 30
0.0
 10
404.197818
 20
191.469338
 30
0.0
 10
415.420417
 20
196.930050
 30
0.0
 10
427.811981
 20
198.289282
 30
0.0
 10
439.870848
 20
195.089578
 30
0.0
 10
449.150072
 20
188.148786
 30
0.0
 10
455.802056
 20
178.600138
 30
0.0
 10
459.050944
 20
167.489962
 30
0.0
 10
458.120848
 20
155.864578
 30
0.0
 10
453.243880
 20
144.614114
 30
0.0
 10
444.377072
 20
136.185162
 30
0.0
 10
433.063432
 20
130.992210
 30
0.0
 10
420.845985
 20
129.449762
 30
0.0
 10
418.926887
 20
129.419042
 30
0.0
 10
416.697316
 20
129.643658
 30
0.0
 10
414.848295
 20
129.737530
 30
0.0
 10
414.070848
 20
129.314562
 30
0.0
 10
419.713382
 20
120.081066
 30
0.0
 10
423.203222
 20
109.749922
 30
0.0
 10
423.876876
 20
99.019842
 30
0.0
 10
421.070848
 20
88.589562
 30
0.0
 10
416.302303
 20
81.190506
 30
0.0
 10
409.842671
 20
75.124546
 30
0.0
 10
402.153377
 20
70.709842
 30
0.0
 10
393.695848
 20
68.264562
 30
0.0
 10
384.440410
 20
68.421602
 30
0.0
 10
375.615603
 20
71.007618
 30
0.0
 10
367.799668
 20
75.797106
 30
0.0
 10
361.570848
 20
82.564562
 30
0.0
 10
357.462230
 20
89.292218
 30
0.0
 10
355.048408
 20
96.769146
 30
0.0
 10
354.527056
 20
104.593778
 30
0.0
 10
356.095848
 20
112.364562
 30
0.0
 10
357.829639
 20
117.014770
 30
0.0
 10
360.014502
 20
121.476138
 30
0.0
 10
362.571287
 20
125.750474
 30
0.0
 10
365.420848
 20
129.839562
 30
0.0
 10
354.534929
 20
129.592634
 30
0.0
 10
343.829986
 20
131.727274
 30
0.0
 10
334.201724
 20
136.499306
 30
0.0
 10
326.545848
 20
144.164562
 30
0.0
 10
321.109239
 20
155.273506
 30
0.0
 10
320.226803
 20
167.598818
 30
0.0
 10
323.691389
 20
179.469498
 30
0.0
 10
331.295848
 20
189.214562
 30
0.0
 10
337.264811
 20
193.667346
 30
0.0
 10
343.978611
 20
196.809514
 30
0.0
 10
351.188528
 20
198.341706
 30
0.0
 10
358.645848
 20
197.964562
 30
0.0
 10
366.049891
 20
196.408906
 30
0.0
 10
372.804008
 20
193.137890
 30
0.0
 10
378.741544
 20
188.511466
 30
0.0
 10
383.695848
 20
182.889562
 30
0.0
 10
382.982393
 20
191.402626
 30
0.0
 10
381.362249
 20
199.803522
 30
0.0
 10
378.490154
 20
207.784938
 30
0.0
 10
374.020848
 20
215.039578
 30
0.0
 10
367.646326
 20
224.274650
 30
0.0
 10
359.783269
 20
232.329674
 30
0.0
 10
350.564001
 20
238.702146
 30
0.0
 10
340.120848
 20
242.889578
 30
0.0
 10
336.202290
 20
243.509746
 30
0.0
 10
332.296564
 20
244.133362
 30
0.0
 10
328.377979
 20
244.597586
 30
0.0
 10
324.420848
 20
244.739578
 30
0.0
  0
LWPOLYLINE
  5
101
100
AcDbEntity
  8
Layer_1
 62
7
100
AcDbPolyline
 90
101
 70
0
 10
56.195848
 20
244.714618
 30
0.0
 10
43.919000
 20
242.423866
 30
0.0
 10
32.523632
 20
237.346986
 30
0.0
 10
22.314368
 20
230.072682
 30
0.0
 10
13.595848
 20
221.189618
 30
0.0
 10
6.260112
 20
210.001530
 30
0.0
 10
1.905360
 20
197.431418
 30
0.0
 10
0.339600
 20
184.146658
 30
0.0
 10
1.370848
 20
170.814618
 30
0.0
 10
6.396152
 20
151.013482
 30
0.0
 10
15.367512
 20
132.754338
 30
0.0
 10
26.966128
 20
115.810650
 30
0.0
 10
39.873208
 20
99.955890
 30
0.0
 10
60.404528
 20
75.063370
 30
0.0
 10
80.917392
 20
50.154850
 30
0.0
 10
101.426320
 20
25.242778
 30
0.0
 10
121.945848
 20
0.339618
 30
0.0
 10
147.764232
 20
31.096746
 30
0.0
 10
173.721776
 20
61.745346
 30
0.0
 10
199.510104
 20
92.528586
 30
0.0
 10
224.820848
 20
123.689618
 30
0.0
 10
231.715464
 20
135.170746
 30
0.0
 10
237.468896
 20
147.346818
 30
0.0
 10
241.698304
 20
160.100546
 30
0.0
 10
244.020848
 20
173.314618
 30
0.0
 10
244.827304
 20
184.825026
 30
0.0
 10
243.655392
 20
196.326738
 30
0.0
 10
240.188256
 20
207.260714
 30
0.0
 10
234.109056
 20
217.067882
 30
0.0
 10
228.034016
 20
224.911146
 30
0.0
 10
220.942432
 20
231.768610
 30
0.0
 10
212.852016
 20
237.368162
 30
0.0
 10
203.780464
 20
241.437698
 30
0.0
 10
196.114880
 20
243.466002
 30
0.0
 10
188.180136
 20
244.454202
 30
0.0
 10
180.180648
 20
244.328378
 30
0.0
 10
172.320848
 20
243.014618
 30
0.0
 10
157.171232
 20
236.159130
 30
0.0
 10
144.700352
 20
225.295442
 30
0.0
 10
135.639728
 20
211.422594
 30
0.0
 10
130.720848
 20
195.539618
 30
0.0
 10
129.608288
 20
188.994802
 30
0.0
 10
128.796544
 20
182.162194
 30
0.0
 10
128.371944
 20
175.518298
 30
0.0
 10
128.420824
 20
169.539618
 30
0.0
 10
133.472904
 20
178.841578
 30
0.0
 10
140.694952
 20
186.860618
 30
0.0
 10
149.742432
 20
192.481658
 30
0.0
 10
160.270824
 20
194.589618
 30
0.0
 10
168.681240
 20
193.572930
 30
0.0
 10
176.537056
 20
190.637538
 30
0.0
 10
183.416000
 20
185.896938
 30
0.0
 10
188.895824
 20
179.464618
 30
0.0
 10
192.783720
 20
172.521930
 30
0.0
 10
195.308656
 20
165.009938
 30
0.0
 10
196.377168
 20
157.150290
 30
0.0
 10
195.895824
 20
149.164618
 30
0.0
 10
192.794232
 20
135.094626
 30
0.0
 10
186.349400
 20
122.329138
 30
0.0
 10
177.862952
 20
110.558170
 30
0.0
 10
168.636536
 20
99.471746
 30
0.0
 10
156.780688
 20
84.717810
 30
0.0
 10
145.200768
 20
69.776290
 30
0.0
 10
134.141056
 20
54.461970
 30
0.0
 10
123.845824
 20
38.589618
 30
0.0
 10
120.482920
 20
38.980538
 30
0.0
 10
118.166296
 20
41.183946
 30
0.0
 10
116.439432
 20
44.221434
 30
0.0
 10
114.845824
 20
47.114618
 30
0.0
 10
102.271544
 20
65.828682
 30
0.0
 10
88.704080
 20
83.871610
 30
0.0
 10
74.607488
 20
101.548538
 30
0.0
 10
60.445824
 20
119.164618
 30
0.0
 10
53.822360
 20
130.162746
 30
0.0
 10
49.492888
 20
142.252498
 30
0.0
 10
47.864888
 20
154.929554
 30
0.0
 10
49.345824
 20
167.689618
 30
0.0
 10
53.098352
 20
176.386762
 30
0.0
 10
58.897008
 20
183.936738
 30
0.0
 10
66.332568
 20
189.863154
 30
0.0
 10
74.995824
 20
193.689618
 30
0.0
 10
83.529928
 20
194.591242
 30
0.0
 10
91.975128
 20
193.259298
 30
0.0
 10
99.711928
 20
189.748762
 30
0.0
 10
106.120824
 20
184.114618
 30
0.0
 10
109.030968
 20
180.681466
 30
0.0
 10
111.579952
 20
176.767738
 30
0.0
 10
113.849376
 20
172.871194
 30
0.0
 10
115.920824
 20
169.489618
 30
0.0
 10
115.380360
 20
180.943610
 30
0.0
 10
114.075056
 20
192.391594
 30
0.0
 10
111.536392
 20
203.557346
 30
0.0
 10
107.295824
 20
214.164618
 30
0.0
 10
101.000200
 20
223.112010
 30
0.0
 10
93.567784
 20
231.211434
 30
0.0
 10
84.893136
 20
237.812450
 30
0.0
 10
74.870824
 20
242.264618
 30
0.0
 10
70.308664
 20
243.378682
 30
0.0
 10
65.635456
 20
244.133138
 30
0.0
 10
60.911176
 20
244.565842
 30
0.0
 10
56.195848
 20
244.714618
 30
0.0
  0
LWPOLYLINE
  5
102
100
AcDbEntity
  8
Layer_1
 62
7
100
AcDbPolyline
 90
145
 70
0
 10
320.320848
 20
489.064578
 30
0.0
 10
311.877987
 20
487.317282
 30
0.0
 10
303.844634
 20
484.324922
 30
0.0
 10
296.362843
 20
480.145162
 30
0.0
 10
289.574671
 20
474.835658
 30
0.0
 10
284.857281
 20
470.976138
 30
0.0
 10
280.725310
 20
466.466578
 30
0.0
 10
277.010940
 20
461.580506
 30
0.0
 10
273.546356
 20
456.591482
 30
0.0
 10
271.037576
 20
450.936642
 30
0.0
 10
268.864336
 20
445.191586
 30
0.0
 10
267.315736
 20
439.278578
 30
0.0
 10
266.680888
 20
433.119890
 30
0.0
 10
266.133400
 20
426.651442
 30
0.0
 10
266.428680
 20
420.148714
 30
0.0
 10
267.212488
 20
413.659626
 30
0.0
 10
268.130608
 20
407.232058
 30
0.0
 10
270.313176
 20
399.557834
 30
0.0
 10
272.933775
 20
392.058194
 30
0.0
 10
276.061355
 20
384.760610
 30
0.0
 10
279.764855
 20
377.692562
 30
0.0
 10
287.980938
 20
364.876298
 30
0.0
 10
297.214925
 20
352.749954
 30
0.0
 10
306.937938
 20
340.969602
 30
0.0
 10
316.621102
 20
329.191282
 30
0.0
 10
334.808095
 20
307.115490
 30
0.0
 10
352.995569
 20
285.040098
 30
0.0
 10
371.183246
 20
262.964866
 30
0.0
 10
389.370848
 20
240.889578
 30
0.0
 10
414.173854
 20
270.435322
 30
0.0
 10
439.065136
 20
299.908626
 30
0.0
 10
463.871080
 20
329.451834
 30
0.0
 10
488.418088
 20
359.207282
 30
0.0
 10
493.545680
 20
365.830538
 30
0.0
 10
497.980856
 20
372.941674
 30
0.0
 10
501.972352
 20
380.330066
 30
0.0
 10
505.768856
 20
387.785098
 30
0.0
 10
508.287336
 20
395.260698
 30
0.0
 10
510.629064
 20
402.774106
 30
0.0
 10
512.374176
 20
410.415122
 30
0.0
 10
513.102816
 20
418.273562
 30
0.0
 10
513.879032
 20
427.576122
 30
0.0
 10
513.160448
 20
436.918554
 30
0.0
 10
510.965800
 20
446.008026
 30
0.0
 10
507.313840
 20
454.551730
 30
0.0
 10
503.260672
 20
460.439306
 30
0.0
 10
499.038880
 20
466.175850
 30
0.0
 10
494.357832
 20
471.501026
 30
0.0
 10
488.926880
 20
476.154514
 30
0.0
 10
484.451976
 20
479.853810
 30
0.0
 10
479.382336
 20
482.690314
 30
0.0
 10
474.022896
 20
485.045418
 30
0.0
 10
468.678576
 20
487.300519
 30
0.0
 10
460.274416
 20
488.596506
 30
0.0
 10
451.799944
 20
489.177388
 30
0.0
 10
443.400288
 20
488.537913
 30
0.0
 10
435.220592
 20
486.172826
 30
0.0
 10
424.545313
 20
481.064122
 30
0.0
 10
415.195990
 20
473.850522
 30
0.0
 10
407.402840
 20
464.933810
 30
0.0
 10
401.396082
 20
454.715786
 30
0.0
 10
398.815887
 20
447.800098
 30
0.0
 10
396.507760
 20
440.746722
 30
0.0
 10
394.937486
 20
433.546322
 30
0.0
 10
394.570848
 20
426.189578
 30
0.0
 10
401.712609
 20
439.248170
 30
0.0
 10
412.961737
 20
449.110466
 30
0.0
 10
426.791744
 20
454.556210
 30
0.0
 10
441.676144
 20
454.365146
 30
0.0
 10
446.366352
 20
453.551898
 30
0.0
 10
450.864640
 20
451.916746
 30
0.0
 10
455.148392
 20
449.728354
 30
0.0
 10
459.195032
 20
447.255354
 30
0.0
 10
464.105880
 20
443.121682
 30
0.0
 10
468.406488
 20
438.442402
 30
0.0
 10
472.270312
 20
433.371906
 30
0.0
 10
475.870848
 20
428.064578
 30
0.0
 10
478.464776
 20
420.431666
 30
0.0
 10
479.700936
 20
412.520658
 30
0.0
 10
479.739976
 20
404.486186
 30
0.0
 10
478.742472
 20
396.482866
 30
0.0
 10
477.629896
 20
391.207330
 30
0.0
 10
476.122072
 20
385.983482
 30
0.0
 10
474.242184
 20
380.880906
 30
0.0
 10
472.013424
 20
375.969162
 30
0.0
 10
465.778136
 20
365.194330
 30
0.0
 10
458.321896
 20
355.244338
 30
0.0
 10
450.279920
 20
345.700890
 30
0.0
 10
442.287456
 20
336.145714
 30
0.0
 10
429.377014
 20
320.794210
 30
0.0
 10
416.463626
 20
305.445178
 30
0.0
 10
403.551757
 20
290.094874
 30
0.0
 10
390.645872
 20
274.739578
 30
0.0
 10
387.729181
 20
275.642866
 30
0.0
 10
385.502791
 20
278.008106
 30
0.0
 10
383.520532
 20
280.890202
 30
0.0
 10
381.336233
 20
283.344066
 30
0.0
 10
365.360628
 20
302.797906
 30
0.0
 10
349.290341
 20
322.179138
 30
0.0
 10
333.301173
 20
341.622298
 30
0.0
 10
317.568928
 20
361.261898
 30
0.0
 10
311.745667
 20
369.608858
 30
0.0
 10
306.923538
 20
378.578058
 30
0.0
 10
303.265462
 20
388.061930
 30
0.0
 10
300.934359
 20
397.952898
 30
0.0
 10
300.232226
 20
404.333866
 30
0.0
 10
300.160034
 20
410.766986
 30
0.0
 10
300.854991
 20
417.136250
 30
0.0
 10
302.454307
 20
423.325618
 30
0.0
 10
304.649254
 20
428.773346
 30
0.0
 10
307.601572
 20
433.816042
 30
0.0
 10
311.177013
 20
438.447666
 30
0.0
 10
315.241327
 20
442.662178
 30
0.0
 10
321.835060
 20
447.854186
 30
0.0
 10
329.167145
 20
451.863826
 30
0.0
 10
337.084748
 20
454.447586
 30
0.0
 10
345.435037
 20
455.361922
 30
0.0
 10
350.641138
 20
454.783490
 30
0.0
 10
355.771533
 20
453.876938
 30
0.0
 10
360.703071
 20
452.325018
 30
0.0
 10
365.312600
 20
449.810514
 30
0.0
 10
369.197973
 20
447.424818
 30
0.0
 10
372.678042
 20
444.409618
 30
0.0
 10
375.851645
 20
441.031482
 30
0.0
 10
378.817623
 20
437.557002
 30
0.0
 10
380.535222
 20
434.807466
 30
0.0
 10
382.247198
 20
432.053810
 30
0.0
 10
383.963950
 20
429.303650
 30
0.0
 10
385.695873
 20
426.564578
 30
0.0
 10
385.339940
 20
436.050074
 30
0.0
 10
382.791110
 20
445.085658
 30
0.0
 10
378.669574
 20
453.625642
 30
0.0
 10
373.595527
 20
461.624354
 30
0.0
 10
369.994538
 20
467.048266
 30
0.0
 10
365.669416
 20
471.945738
 30
0.0
 10
360.895074
 20
476.430986
 30
0.0
 10
355.946428
 20
480.618250
 30
0.0
 10
350.848380
 20
483.309914
 30
0.0
 10
345.685858
 20
485.801746
 30
0.0
 10
340.316132
 20
487.651362
 30
0.0
 10
334.596470
 20
488.416374
 30
0.0
 10
331.036099
 20
489.035746
 30
0.0
 10
327.487464
 20
489.357994
 30
0.0
 10
323.924433
 20
489.371482
 30
0.0
 10
320.320848
 20
489.064578
 30
0.0
  0
LWPOLYLINE
  5
103
100
AcDbEntity
  8
Layer_1
 62
7
100
AcDbPolyline
 90
85
 70
0
 10
52.995848
 20
487.464578
 30
0.0
 10
41.424184
 20
484.648626
 30
0.0
 10
30.779784
 20
479.380266
 30
0.0
 10
21.267712
 20
472.187402
 30
0.0
 10
13.093032
 20
463.597946
 30
0.0
 10
5.802408
 20
452.140666
 30
0.0
 10
1.665336
 20
439.305258
 30
0.0
 10
0.366840
 20
425.792946
 30
0.0
 10
1.591960
 20
412.304930
 30
0.0
 10
6.919168
 20
392.709426
 30
0.0
 10
16.075880
 20
374.646306
 30
0.0
 10
27.735152
 20
357.879930
 30
0.0
 10
40.570032
 20
342.174634
 30
0.0
 10
60.922336
 20
317.499706
 30
0.0
 10
81.261880
 20
292.797362
 30
0.0
 10
101.599456
 20
268.087394
 30
0.0
 10
121.945848
 20
243.389578
 30
0.0
 10
147.547752
 20
273.880010
 30
0.0
 10
173.278896
 20
304.306194
 30
0.0
 10
198.856024
 20
334.824074
 30
0.0
 10
223.995848
 20
365.589578
 30
0.0
 10
231.221336
 20
377.315546
 30
0.0
 10
237.221624
 20
389.778426
 30
0.0
 10
241.615272
 20
402.840634
 30
0.0
 10
244.020848
 20
416.364578
 30
0.0
 10
244.826456
 20
427.899370
 30
0.0
 10
243.655992
 20
439.396122
 30
0.0
 10
240.190000
 20
450.315418
 30
0.0
 10
234.109056
 20
460.117842
 30
0.0
 10
228.034016
 20
467.961106
 30
0.0
 10
220.942432
 20
474.818570
 30
0.0
 10
212.852016
 20
480.418122
 30
0.0
 10
203.780464
 20
484.487658
 30
0.0
 10
196.100368
 20
486.512753
 30
0.0
 10
188.152608
 20
487.503813
 30
0.0
 10
180.147624
 20
487.381025
 30
0.0
 10
172.295848
 20
486.064578
 30
0.0
 10
159.752752
 20
480.776282
 30
0.0
 10
148.915280
 20
472.690882
 30
0.0
 10
140.093096
 20
462.379826
 30
0.0
 10
133.595848
 20
450.414578
 30
0.0
 10
132.239520
 20
447.368978
 30
0.0
 10
130.838040
 20
444.272850
 30
0.0
 10
130.528760
 20
441.301490
 30
0.0
 10
132.449040
 20
438.630170
 30
0.0
 10
146.075520
 20
421.081186
 30
0.0
 10
159.812976
 20
403.572410
 30
0.0
 10
173.461408
 20
385.988626
 30
0.0
 10
186.820848
 20
368.214578
 30
0.0
 10
186.918120
 20
364.612826
 30
0.0
 10
185.048480
 20
361.585266
 30
0.0
 10
182.442112
 20
358.795842
 30
0.0
 10
180.329184
 20
355.908490
 30
0.0
 10
165.899520
 20
337.389434
 30
0.0
 10
151.496728
 20
318.878010
 30
0.0
 10
137.095576
 20
300.364594
 30
0.0
 10
122.670848
 20
281.839578
 30
0.0
 10
106.067920
 20
302.664090
 30
0.0
 10
89.674040
 20
323.656154
 30
0.0
 10
73.372312
 20
344.708682
 30
0.0
 10
57.045848
 20
365.714578
 30
0.0
 10
63.730584
 20
376.007362
 30
0.0
 10
71.244568
 20
385.743826
 30
0.0
 10
79.026288
 20
395.311570
 30
0.0
 10
86.514232
 20
405.098202
 30
0.0
 10
93.616232
 20
414.262538
 30
0.0
 10
100.780048
 20
423.449474
 30
0.0
 10
107.906352
 20
432.652370
 30
0.0
 10
114.895848
 20
441.864578
 30
0.0
 10
111.413560
 20
449.775890
 30
0.0
 10
107.186680
 20
457.360946
 30
0.0
 10
102.264392
 20
464.507250
 30
0.0
 10
96.695888
 20
471.102322
 30
0.0
 10
89.398416
 20
477.842690
 30
0.0
 10
80.943824
 20
482.933906
 30
0.0
 10
71.630312
 20
486.198874
 30
0.0
 10
61.756040
 20
487.460485
 30
0.0
 10
59.565048
 20
487.707041
 30
0.0
 10
57.381136
 20
487.736169
 30
0.0
 10
55.194632
 20
487.628473
 30
0.0
 10
52.995848
 20
487.464569
 30
0.0
 10
52.995848
 20
487.464572
 30
0.0
 10
52.995848
 20
487.464575
 30
0.0
 10
52.995848
 20
487.464578
 30
0.0
 10
52.995848
 20
487.464578
 30
0.0
  0
ENDSEC
  0
SECTION
  2
OBJECTS
  0
DICTIONARY
  5
C
330
0
100
AcDbDictionary
  3
ACAD_GROUP
350
D
  3
ACAD_MLINESTYLE
350
17
  0
DICTIONARY
  5
D
330
C
100
AcDbDictionary
  0
DICTIONARY
  5
1A
330
C
100
AcDbDictionary
  0
DICTIONARY
  5
17
330
C
100
AcDbDictionary
  3
STANDARD
350
18
  0
DICTIONARY
  5
19
330
C
100
AcDbDictionary
  0
ENDSEC
  0
EOF
