  0
SECTION
  2
HEADER
  9
$ACADVER
  1
AC1014
  9
$HANDSEED
  5
FFFF
  9
$MEASUREMENT
 70
     1
  0
ENDSEC
  0
SECTION
  2
TABLES
  0
TABLE
  2
VPORT
  5
8
330
0
100
AcDbSymbolTable
 70
     4
  0
VPORT
  5
2E
330
8
100
AcDbSymbolTableRecord
100
AcDbViewportTableRecord
  2
*ACTIVE
 70
     0
 10
0.0
 20
0.0
 11
1.0
 21
1.0
 12
210.0
 22
148.5
 13
0.0
 23
0.0
 14
10.0
 24
10.0
 15
10.0
 25
10.0
 16
0.0
 26
0.0
 36
1.0
 17
0.0
 27
0.0
 37
0.0
 40
341.0
 41
1.24
 42
50.0
 43
0.0
 44
0.0
 50
0.0
 51
0.0
 71
     0
 72
   100
 73
     1
 74
     3
 75
     0
 76
     0
 77
     0
 78
     0
  0
ENDTAB
  0
TABLE
  2
LTYPE
  5
5
330
0
100
AcDbSymbolTable
 70
     1
  0
LTYPE
  5
14
330
5
100
AcDbSymbolTableRecord
100
AcDbLinetypeTableRecord
  2
BYBLOCK
 70
     0
  3

 72
    65
 73
     0
 40
0.0
  0
LTYPE
  5
15
330
5
100
AcDbSymbolTableRecord
100
AcDbLinetypeTableRecord
  2
BYLAYER
 70
     0
  3

 72
    65
 73
     0
 40
0.0
  0
LTYPE
  5
16
330
5
100
AcDbSymbolTableRecord
100
AcDbLinetypeTableRecord
  2
CONTINUOUS
 70
     0
  3
Solid line
 72
    65
 73
     0
 40
0.0
  0
ENDTAB
  0
TABLE
  2
LAYER
  5
2
100
AcDbSymbolTable
 70
2
  0
LAYER
  5
50
100
AcDbSymbolTableRecord
100
AcDbLayerTableRecord
  2
0
 70
0
  6
CONTINUOUS
  0
LAYER
  5
51
100
AcDbSymbolTableRecord
100
AcDbLayerTableRecord
  2
Layer_1
 70
0
  6
CONTINUOUS
  0
ENDTAB
  0
TABLE
  2
STYLE
  5
3
330
0
100
AcDbSymbolTable
 70
     1
  0
STYLE
  5
11
330
3
100
AcDbSymbolTableRecord
100
AcDbTextStyleTableRecord
  2
STANDARD
 70
     0
 40
0.0
 41
1.0
 50
0.0
 71
     0
 42
2.5
  3
txt
  4

  0
ENDTAB
  0
TABLE
  2
VIEW
  5
6
330
0
100
AcDbSymbolTable
 70
     0
  0
ENDTAB
  0
TABLE
  2
UCS
  5
7
330
0
100
AcDbSymbolTable
 70
     0
  0
ENDTAB
  0
TABLE
  2
APPID
  5
9
330
0
100
AcDbSymbolTable
 70
     2
  0
APPID
  5
12
330
9
100
AcDbSymbolTableRecord
100
AcDbRegAppTableRecord
  2
ACAD
 70
     0
  0
ENDTAB
  0
TABLE
  2
DIMSTYLE
  5
A
330
0
100
AcDbSymbolTable
 70
     1
  0
DIMSTYLE
105
27
330
A
100
AcDbSymbolTableRecord
100
AcDbDimStyleTableRecord
  2
ISO-25
 70
     0
  3

  4

  5

  6

  7

 40
1.0
 41
2.5
 42
0.625
 43
3.75
 44
1.25
 45
0.0
 46
0.0
 47
0.0
 48
0.0
140
2.5
141
2.5
142
0.0
143
0.03937007874016
144
1.0
145
0.0
146
1.0
147
0.625
 71
     0
 72
     0
 73
     0
 74
     0
 75
     0
 76
     0
 77
     1
 78
     8
170
     0
171
     3
172
     1
173
     0
174
     0
175
     0
176
     0
177
     0
178
     0
270
     2
271
     2
272
     2
273
     2
274
     3
340
11
275
     0
280
     0
281
     0
282
     0
283
     0
284
     8
285
     0
286
     0
287
     3
288
     0
  0
ENDTAB
  0
TABLE
  2
BLOCK_RECORD
  5
1
330
0
100
AcDbSymbolTable
 70
     1
  0
BLOCK_RECORD
  5
1F
330
1
100
AcDbSymbolTableRecord
100
AcDbBlockTableRecord
  2
*MODEL_SPACE
  0
BLOCK_RECORD
  5
1B
330
1
100
AcDbSymbolTableRecord
100
AcDbBlockTableRecord
  2
*PAPER_SPACE
  0
ENDTAB
  0
ENDSEC
  0
SECTION
  2
BLOCKS
  0
BLOCK
  5
20
330
1F
100
AcDbEntity
  8
0
100
AcDbBlockBegin
  2
*MODEL_SPACE
 70
     0
 10
0.0
 20
0.0
 30
0.0
  3
*MODEL_SPACE
  1

  0
ENDBLK
  5
21
330
1F
100
AcDbEntity
  8
0
100
AcDbBlockEnd
  0
BLOCK
  5
1C
330
1B
100
AcDbEntity
 67
     1
  8
0
100
AcDbBlockBegin
  2
*PAPER_SPACE
  1

  0
ENDBLK
  5
1D
330
1B
100
AcDbEntity
 67
     1
  8
0
100
AcDbBlockEnd
  0
ENDSEC
  0
SECTION
  2
ENTITIES
  0
LWPOLYLINE
  5
100
100
AcDbEntity
  8
Layer_1
 62
7
100
AcDbPolyline
 90
109
 70
0
 10
57.016464
 20
244.739600
 30
0.0
 10
44.350232
 20
242.551728
 30
0.0
 10
32.591746
 20
237.382648
 30
0.0
 10
22.071906
 20
229.847400
 30
0.0
 10
13.121616
 20
220.561008
 30
0.0
 10
5.835196
 20
209.102776
 30
0.0
 10
1.658832
 20
196.265488
 30
0.0
 10
0.339600
 20
182.743632
 30
0.0
 10
1.624608
 20
169.231680
 30
0.0
 10
6.887082
 20
149.758376
 30
0.0
 10
15.938698
 20
131.802776
 30
0.0
 10
27.498261
 20
115.127360
 30
0.0
 10
40.284576
 20
99.494600
 30
0.0
 10
60.715729
 20
74.715208
 30
0.0
 10
81.132470
 20
49.923304
 30
0.0
 10
101.545737
 20
25.128304
 30
0.0
 10
121.966464
 20
0.339600
 30
0.0
 10
147.658370
 20
30.949072
 30
0.0
 10
173.507304
 20
61.487568
 30
0.0
 10
199.178456
 20
92.113832
 30
0.0
 10
224.337000
 20
122.986592
 30
0.0
 10
231.328032
 20
134.440936
 30
0.0
 10
237.151104
 20
146.556440
 30
0.0
 10
241.474488
 20
159.231528
 30
0.0
 10
243.966464
 20
172.364600
 30
0.0
 10
244.798304
 20
182.586048
 30
0.0
 10
244.246504
 20
192.869312
 30
0.0
 10
241.957944
 20
202.828880
 30
0.0
 10
237.579496
 20
212.079256
 30
0.0
 10
231.183608
 20
221.104280
 30
0.0
 10
223.763984
 20
229.255216
 30
0.0
 10
215.170496
 20
236.003936
 30
0.0
 10
205.253000
 20
240.822296
 30
0.0
 10
197.768200
 20
243.158776
 30
0.0
 10
189.972168
 20
244.334184
 30
0.0
 10
182.063664
 20
244.426720
 30
0.0
 10
174.241464
 20
243.514600
 30
0.0
 10
161.328647
 20
238.582072
 30
0.0
 10
150.104098
 20
230.680576
 30
0.0
 10
140.860546
 20
220.447584
 30
0.0
 10
133.890725
 20
208.520584
 30
0.0
 10
131.436971
 20
202.261624
 30
0.0
 10
129.817462
 20
195.737968
 30
0.0
 10
128.822269
 20
189.066624
 30
0.0
 10
128.241464
 20
182.364600
 30
0.0
 10
136.793434
 20
191.469360
 30
0.0
 10
148.016033
 20
196.930072
 30
0.0
 10
160.407597
 20
198.289304
 30
0.0
 10
172.466464
 20
195.089600
 30
0.0
 10
181.745688
 20
188.148808
 30
0.0
 10
188.397672
 20
178.600160
 30
0.0
 10
191.646560
 20
167.489984
 30
0.0
 10
190.716464
 20
155.864600
 30
0.0
 10
185.839496
 20
144.614136
 30
0.0
 10
176.972688
 20
136.185184
 30
0.0
 10
165.659048
 20
130.992232
 30
0.0
 10
153.441601
 20
129.449784
 30
0.0
 10
151.522503
 20
129.419064
 30
0.0
 10
149.292932
 20
129.643680
 30
0.0
 10
147.443911
 20
129.737552
 30
0.0
 10
146.666464
 20
129.314584
 30
0.0
 10
152.308998
 20
120.081088
 30
0.0
 10
155.798838
 20
109.749944
 30
0.0
 10
156.472492
 20
99.019864
 30
0.0
 10
153.666464
 20
88.589584
 30
0.0
 10
148.897919
 20
81.190528
 30
0.0
 10
142.438287
 20
75.124568
 30
0.0
 10
134.748993
 20
70.709864
 30
0.0
 10
126.291464
 20
68.264584
 30
0.0
 10
117.036026
 20
68.421624
 30
0.0
 10
108.211219
 20
71.007640
 30
0.0
 10
100.395284
 20
75.797128
 30
0.0
 10
94.166464
 20
82.564584
 30
0.0
 10
90.057846
 20
89.292240
 30
0.0
 10
87.644024
 20
96.769168
 30
0.0
 10
87.122672
 20
104.593800
 30
0.0
 10
88.691464
 20
112.364584
 30
0.0
 10
90.425255
 20
117.014792
 30
0.0
 10
92.610118
 20
121.476160
 30
0.0
 10
95.166903
 20
125.750496
 30
0.0
 10
98.016464
 20
129.839584
 30
0.0
 10
87.130545
 20
129.592656
 30
0.0
 10
76.425602
 20
131.727296
 30
0.0
 10
66.797340
 20
136.499328
 30
0.0
 10
59.141464
 20
144.164584
 30
0.0
 10
53.704855
 20
155.273528
 30
0.0
 10
52.822419
 20
167.598840
 30
0.0
 10
56.287005
 20
179.469520
 30
0.0
 10
63.891464
 20
189.214584
 30
0.0
 10
69.860427
 20
193.667368
 30
0.0
 10
76.574227
 20
196.809536
 30
0.0
 10
83.784144
 20
198.341728
 30
0.0
 10
91.241464
 20
197.964584
 30
0.0
 10
98.645507
 20
196.408928
 30
0.0
 10
105.399624
 20
193.137912
 30
0.0
 10
111.337160
 20
188.511488
 30
0.0
 10
116.291464
 20
182.889584
 30
0.0
 10
115.578009
 20
191.402648
 30
0.0
 10
113.957865
 20
199.803544
 30
0.0
 10
111.085770
 20
207.784960
 30
0.0
 10
106.616464
 20
215.039600
 30
0.0
 10
100.241942
 20
224.274672
 30
0.0
 10
92.378885
 20
232.329696
 30
0.0
 10
83.159617
 20
238.702168
 30
0.0
 10
72.716464
 20
242.889600
 30
0.0
 10
68.797906
 20
243.509768
 30
0.0
 10
64.892180
 20
244.133384
 30
0.0
 10
60.973595
 20
244.597608
 30
0.0
 10
57.016464
 20
244.739600
 30
0.0
  0
ENDSEC
  0
SECTION
  2
OBJECTS
  0
DICTIONARY
  5
C
330
0
100
AcDbDictionary
  3
ACAD_GROUP
350
D
  3
ACAD_MLINESTYLE
350
17
  0
DICTIONARY
  5
D
330
C
100
AcDbDictionary
  0
DICTIONARY
  5
1A
330
C
100
AcDbDictionary
  0
DICTIONARY
  5
17
330
C
100
AcDbDictionary
  3
STANDARD
350
18
  0
DICTIONARY
  5
19
330
C
100
AcDbDictionary
  0
ENDSEC
  0
EOF
