  0
SECTION
  2
HEADER
  9
$ACADVER
  1
AC1014
  9
$HANDSEED
  5
FFFF
  9
$MEASUREMENT
 70
     1
  0
ENDSEC
  0
SECTION
  2
TABLES
  0
TABLE
  2
VPORT
  5
8
330
0
100
AcDbSymbolTable
 70
     4
  0
VPORT
  5
2E
330
8
100
AcDbSymbolTableRecord
100
AcDbViewportTableRecord
  2
*ACTIVE
 70
     0
 10
0.0
 20
0.0
 11
1.0
 21
1.0
 12
210.0
 22
148.5
 13
0.0
 23
0.0
 14
10.0
 24
10.0
 15
10.0
 25
10.0
 16
0.0
 26
0.0
 36
1.0
 17
0.0
 27
0.0
 37
0.0
 40
341.0
 41
1.24
 42
50.0
 43
0.0
 44
0.0
 50
0.0
 51
0.0
 71
     0
 72
   100
 73
     1
 74
     3
 75
     0
 76
     0
 77
     0
 78
     0
  0
ENDTAB
  0
TABLE
  2
LTYPE
  5
5
330
0
100
AcDbSymbolTable
 70
     1
  0
LTYPE
  5
14
330
5
100
AcDbSymbolTableRecord
100
AcDbLinetypeTableRecord
  2
BYBLOCK
 70
     0
  3

 72
    65
 73
     0
 40
0.0
  0
LTYPE
  5
15
330
5
100
AcDbSymbolTableRecord
100
AcDbLinetypeTableRecord
  2
BYLAYER
 70
     0
  3

 72
    65
 73
     0
 40
0.0
  0
LTYPE
  5
16
330
5
100
AcDbSymbolTableRecord
100
AcDbLinetypeTableRecord
  2
CONTINUOUS
 70
     0
  3
Solid line
 72
    65
 73
     0
 40
0.0
  0
ENDTAB
  0
TABLE
  2
LAYER
  5
2
100
AcDbSymbolTable
 70
2
  0
LAYER
  5
50
100
AcDbSymbolTableRecord
100
AcDbLayerTableRecord
  2
0
 70
0
  6
CONTINUOUS
  0
LAYER
  5
51
100
AcDbSymbolTableRecord
100
AcDbLayerTableRecord
  2
Layer_1
 70
0
  6
CONTINUOUS
  0
ENDTAB
  0
TABLE
  2
STYLE
  5
3
330
0
100
AcDbSymbolTable
 70
     1
  0
STYLE
  5
11
330
3
100
AcDbSymbolTableRecord
100
AcDbTextStyleTableRecord
  2
STANDARD
 70
     0
 40
0.0
 41
1.0
 50
0.0
 71
     0
 42
2.5
  3
txt
  4

  0
ENDTAB
  0
TABLE
  2
VIEW
  5
6
330
0
100
AcDbSymbolTable
 70
     0
  0
ENDTAB
  0
TABLE
  2
UCS
  5
7
330
0
100
AcDbSymbolTable
 70
     0
  0
ENDTAB
  0
TABLE
  2
APPID
  5
9
330
0
100
AcDbSymbolTable
 70
     2
  0
APPID
  5
12
330
9
100
AcDbSymbolTableRecord
100
AcDbRegAppTableRecord
  2
ACAD
 70
     0
  0
ENDTAB
  0
TABLE
  2
DIMSTYLE
  5
A
330
0
100
AcDbSymbolTable
 70
     1
  0
DIMSTYLE
105
27
330
A
100
AcDbSymbolTableRecord
100
AcDbDimStyleTableRecord
  2
ISO-25
 70
     0
  3

  4

  5

  6

  7

 40
1.0
 41
2.5
 42
0.625
 43
3.75
 44
1.25
 45
0.0
 46
0.0
 47
0.0
 48
0.0
140
2.5
141
2.5
142
0.0
143
0.03937007874016
144
1.0
145
0.0
146
1.0
147
0.625
 71
     0
 72
     0
 73
     0
 74
     0
 75
     0
 76
     0
 77
     1
 78
     8
170
     0
171
     3
172
     1
173
     0
174
     0
175
     0
176
     0
177
     0
178
     0
270
     2
271
     2
272
     2
273
     2
274
     3
340
11
275
     0
280
     0
281
     0
282
     0
283
     0
284
     8
285
     0
286
     0
287
     3
288
     0
  0
ENDTAB
  0
TABLE
  2
BLOCK_RECORD
  5
1
330
0
100
AcDbSymbolTable
 70
     1
  0
BLOCK_RECORD
  5
1F
330
1
100
AcDbSymbolTableRecord
100
AcDbBlockTableRecord
  2
*MODEL_SPACE
  0
BLOCK_RECORD
  5
1B
330
1
100
AcDbSymbolTableRecord
100
AcDbBlockTableRecord
  2
*PAPER_SPACE
  0
ENDTAB
  0
ENDSEC
  0
SECTION
  2
BLOCKS
  0
BLOCK
  5
20
330
1F
100
AcDbEntity
  8
0
100
AcDbBlockBegin
  2
*MODEL_SPACE
 70
     0
 10
0.0
 20
0.0
 30
0.0
  3
*MODEL_SPACE
  1

  0
ENDBLK
  5
21
330
1F
100
AcDbEntity
  8
0
100
AcDbBlockEnd
  0
BLOCK
  5
1C
330
1B
100
AcDbEntity
 67
     1
  8
0
100
AcDbBlockBegin
  2
*PAPER_SPACE
  1

  0
ENDBLK
  5
1D
330
1B
100
AcDbEntity
 67
     1
  8
0
100
AcDbBlockEnd
  0
ENDSEC
  0
SECTION
  2
ENTITIES
  0
LWPOLYLINE
  5
100
100
AcDbEntity
  8
Layer_1
 62
7
100
AcDbPolyline
 90
85
 70
0
 10
52.968608
 20
244.414594
 30
0.0
 10
41.396944
 20
241.598642
 30
0.0
 10
30.752544
 20
236.330282
 30
0.0
 10
21.240472
 20
229.137418
 30
0.0
 10
13.065792
 20
220.547962
 30
0.0
 10
5.775168
 20
209.090682
 30
0.0
 10
1.638096
 20
196.255274
 30
0.0
 10
0.339600
 20
182.742962
 30
0.0
 10
1.564720
 20
169.254946
 30
0.0
 10
6.891928
 20
149.659442
 30
0.0
 10
16.048640
 20
131.596322
 30
0.0
 10
27.707912
 20
114.829946
 30
0.0
 10
40.542792
 20
99.124650
 30
0.0
 10
60.895096
 20
74.449722
 30
0.0
 10
81.234640
 20
49.747378
 30
0.0
 10
101.572216
 20
25.037410
 30
0.0
 10
121.918608
 20
0.339594
 30
0.0
 10
147.520512
 20
30.830026
 30
0.0
 10
173.251656
 20
61.256210
 30
0.0
 10
198.828784
 20
91.774090
 30
0.0
 10
223.968608
 20
122.539594
 30
0.0
 10
231.194096
 20
134.265562
 30
0.0
 10
237.194384
 20
146.728442
 30
0.0
 10
241.588032
 20
159.790650
 30
0.0
 10
243.993608
 20
173.314594
 30
0.0
 10
244.799216
 20
184.849386
 30
0.0
 10
243.628752
 20
196.346138
 30
0.0
 10
240.162760
 20
207.265434
 30
0.0
 10
234.081816
 20
217.067858
 30
0.0
 10
228.006776
 20
224.911122
 30
0.0
 10
220.915192
 20
231.768586
 30
0.0
 10
212.824776
 20
237.368138
 30
0.0
 10
203.753224
 20
241.437674
 30
0.0
 10
196.073128
 20
243.462770
 30
0.0
 10
188.125368
 20
244.453830
 30
0.0
 10
180.120384
 20
244.331042
 30
0.0
 10
172.268608
 20
243.014594
 30
0.0
 10
159.725512
 20
237.726298
 30
0.0
 10
148.888040
 20
229.640898
 30
0.0
 10
140.065856
 20
219.329842
 30
0.0
 10
133.568608
 20
207.364594
 30
0.0
 10
132.212280
 20
204.318994
 30
0.0
 10
130.810800
 20
201.222866
 30
0.0
 10
130.501520
 20
198.251506
 30
0.0
 10
132.421800
 20
195.580186
 30
0.0
 10
146.048280
 20
178.031202
 30
0.0
 10
159.785736
 20
160.522426
 30
0.0
 10
173.434168
 20
142.938642
 30
0.0
 10
186.793608
 20
125.164594
 30
0.0
 10
186.890880
 20
121.562842
 30
0.0
 10
185.021240
 20
118.535282
 30
0.0
 10
182.414872
 20
115.745858
 30
0.0
 10
180.301944
 20
112.858506
 30
0.0
 10
165.872280
 20
94.339450
 30
0.0
 10
151.469488
 20
75.828026
 30
0.0
 10
137.068336
 20
57.314610
 30
0.0
 10
122.643608
 20
38.789594
 30
0.0
 10
106.040680
 20
59.614106
 30
0.0
 10
89.646800
 20
80.606170
 30
0.0
 10
73.345072
 20
101.658698
 30
0.0
 10
57.018608
 20
122.664594
 30
0.0
 10
63.703344
 20
132.957378
 30
0.0
 10
71.217328
 20
142.693842
 30
0.0
 10
78.999048
 20
152.261586
 30
0.0
 10
86.486992
 20
162.048218
 30
0.0
 10
93.588992
 20
171.212554
 30
0.0
 10
100.752808
 20
180.399490
 30
0.0
 10
107.879112
 20
189.602386
 30
0.0
 10
114.868608
 20
198.814594
 30
0.0
 10
111.386320
 20
206.725906
 30
0.0
 10
107.159440
 20
214.310962
 30
0.0
 10
102.237152
 20
221.457266
 30
0.0
 10
96.668648
 20
228.052338
 30
0.0
 10
89.371176
 20
234.792706
 30
0.0
 10
80.916584
 20
239.883922
 30
0.0
 10
71.603072
 20
243.148890
 30
0.0
 10
61.728800
 20
244.410502
 30
0.0
 10
59.537808
 20
244.657058
 30
0.0
 10
57.353896
 20
244.686186
 30
0.0
 10
55.167392
 20
244.578490
 30
0.0
 10
52.968608
 20
244.414586
 30
0.0
 10
52.968608
 20
244.414589
 30
0.0
 10
52.968608
 20
244.414592
 30
0.0
 10
52.968608
 20
244.414595
 30
0.0
 10
52.968608
 20
244.414594
 30
0.0
  0
ENDSEC
  0
SECTION
  2
OBJECTS
  0
DICTIONARY
  5
C
330
0
100
AcDbDictionary
  3
ACAD_GROUP
350
D
  3
ACAD_MLINESTYLE
350
17
  0
DICTIONARY
  5
D
330
C
100
AcDbDictionary
  0
DICTIONARY
  5
1A
330
C
100
AcDbDictionary
  0
DICTIONARY
  5
17
330
C
100
AcDbDictionary
  3
STANDARD
350
18
  0
DICTIONARY
  5
19
330
C
100
AcDbDictionary
  0
ENDSEC
  0
EOF
