  0
SECTION
  2
HEADER
  9
$ACADVER
  1
AC1012
  9
$DWGCODEPAGE
  3
ansi_1252
  9
$INSBASE
 10
0.0
 20
0.0
 30
0.0
  9
$EXTMIN
 10
1.000000000000000E+20
 20
1.000000000000000E+20
 30
1.000000000000000E+20
  9
$EXTMAX
 10
-1.000000000000000E+20
 20
-1.000000000000000E+20
 30
-1.000000000000000E+20
  9
$LIMMIN
 10
0.0
 20
0.0
  9
$LIMMAX
 10
12.0
 20
9.0
  9
$ORTHOMODE
 70
     0
  9
$REGENMODE
 70
     1
  9
$FILLMODE
 70
     1
  9
$QTEXTMODE
 70
     0
  9
$MIRRTEXT
 70
     1
  9
$DRAGMODE
 70
     2
  9
$LTSCALE
 40
1.0
  9
$OSMODE
 70
    37
  9
$ATTMODE
 70
     1
  9
$TEXTSIZE
 40
0.2
  9
$TRACEWID
 40
0.05
  9
$TEXTSTYLE
  7
STANDARD
  9
$CLAYER
  8
0
  9
$CELTYPE
  6
BYLAYER
  9
$CECOLOR
 62
   256
  9
$CELTSCALE
 40
1.0
  9
$DELOBJ
 70
     1
  9
$DISPSILH
 70
     0
  9
$DIMSCALE
 40
1.0
  9
$DIMASZ
 40
0.18
  9
$DIMEXO
 40
0.0625
  9
$DIMDLI
 40
0.38
  9
$DIMRND
 40
0.0
  9
$DIMDLE
 40
0.0
  9
$DIMEXE
 40
0.18
  9
$DIMTP
 40
0.0
  9
$DIMTM
 40
0.0
  9
$DIMTXT
 40
0.18
  9
$DIMCEN
 40
0.09
  9
$DIMTSZ
 40
0.0
  9
$DIMTOL
 70
     0
  9
$DIMLIM
 70
     0
  9
$DIMTIH
 70
     1
  9
$DIMTOH
 70
     1
  9
$DIMSE1
 70
     0
  9
$DIMSE2
 70
     0
  9
$DIMTAD
 70
     0
  9
$DIMZIN
 70
     0
  9
$DIMBLK
  1

  9
$DIMASO
 70
     1
  9
$DIMSHO
 70
     1
  9
$DIMPOST
  1

  9
$DIMAPOST
  1

  9
$DIMALT
 70
     0
  9
$DIMALTD
 70
     2
  9
$DIMALTF
 40
25.4
  9
$DIMLFAC
 40
1.0
  9
$DIMTOFL
 70
     0
  9
$DIMTVP
 40
0.0
  9
$DIMTIX
 70
     0
  9
$DIMSOXD
 70
     0
  9
$DIMSAH
 70
     0
  9
$DIMBLK1
  1

  9
$DIMBLK2
  1

  9
$DIMSTYLE
  2
STANDARD
  9
$DIMCLRD
 70
     0
  9
$DIMCLRE
 70
     0
  9
$DIMCLRT
 70
     0
  9
$DIMTFAC
 40
1.0
  9
$DIMGAP
 40
0.09
  9
$DIMJUST
 70
     0
  9
$DIMSD1
 70
     0
  9
$DIMSD2
 70
     0
  9
$DIMTOLJ
 70
     1
  9
$DIMTZIN
 70
     0
  9
$DIMALTZ
 70
     0
  9
$DIMALTTZ
 70
     0
  9
$DIMFIT
 70
     3
  9
$DIMUPT
 70
     0
  9
$DIMUNIT
 70
     2
  9
$DIMDEC
 70
     4
  9
$DIMTDEC
 70
     4
  9
$DIMALTU
 70
     2
  9
$DIMALTTD
 70
     2
  9
$DIMTXSTY
  7
STANDARD
  9
$DIMAUNIT
 70
     0
  9
$LUNITS
 70
     2
  9
$LUPREC
 70
     4
  9
$SKETCHINC
 40
0.1
  9
$FILLETRAD
 40
0.5
  9
$AUNITS
 70
     0
  9
$AUPREC
 70
     0
  9
$MENU
  1
.
  9
$ELEVATION
 40
0.0
  9
$PELEVATION
 40
0.0
  9
$THICKNESS
 40
0.0
  9
$LIMCHECK
 70
     0
  9
$CHAMFERA
 40
0.5
  9
$CHAMFERB
 40
0.5
  9
$CHAMFERC
 40
1.0
  9
$CHAMFERD
 40
0.0
  9
$SKPOLY
 70
     0
  9
$TDCREATE
 40
2455540.006120162
  9
$TDUPDATE
 40
2455540.006120174
  9
$TDINDWG
 40
0.0000000116
  9
$TDUSRTIMER
 40
0.0000000116
  9
$USRTIMER
 70
     1
  9
$ANGBASE
 50
0.0
  9
$ANGDIR
 70
     0
  9
$PDMODE
 70
     0
  9
$PDSIZE
 40
0.0
  9
$PLINEWID
 40
0.0
  9
$COORDS
 70
     1
  9
$SPLFRAME
 70
     0
  9
$SPLINETYPE
 70
     6
  9
$SPLINESEGS
 70
     8
  9
$ATTDIA
 70
     0
  9
$ATTREQ
 70
     1
  9
$HANDLING
 70
     1
  9
$HANDSEED
  5
26C
  9
$SURFTAB1
 70
     6
  9
$SURFTAB2
 70
     6
  9
$SURFTYPE
 70
     6
  9
$SURFU
 70
     6
  9
$SURFV
 70
     6
  9
$UCSNAME
  2

  9
$UCSORG
 10
0.0
 20
0.0
 30
0.0
  9
$UCSXDIR
 10
1.0
 20
0.0
 30
0.0
  9
$UCSYDIR
 10
0.0
 20
1.0
 30
0.0
  9
$PUCSNAME
  2

  9
$PUCSORG
 10
0.0
 20
0.0
 30
0.0
  9
$PUCSXDIR
 10
1.0
 20
0.0
 30
0.0
  9
$PUCSYDIR
 10
0.0
 20
1.0
 30
0.0
  9
$USERI1
 70
     0
  9
$USERI2
 70
     0
  9
$USERI3
 70
     0
  9
$USERI4
 70
     0
  9
$USERI5
 70
     0
  9
$USERR1
 40
0.0
  9
$USERR2
 40
0.0
  9
$USERR3
 40
0.0
  9
$USERR4
 40
0.0
  9
$USERR5
 40
0.0
  9
$WORLDVIEW
 70
     1
  9
$SHADEDGE
 70
     3
  9
$SHADEDIF
 70
    70
  9
$TILEMODE
 70
     1
  9
$MAXACTVP
 70
    64
  9
$PINSBASE
 10
0.0
 20
0.0
 30
0.0
  9
$PLIMCHECK
 70
     0
  9
$PEXTMIN
 10
1.000000000000000E+20
 20
1.000000000000000E+20
 30
1.000000000000000E+20
  9
$PEXTMAX
 10
-1.000000000000000E+20
 20
-1.000000000000000E+20
 30
-1.000000000000000E+20
  9
$PLIMMIN
 10
0.0
 20
0.0
  9
$PLIMMAX
 10
12.0
 20
9.0
  9
$UNITMODE
 70
     0
  9
$VISRETAIN
 70
     1
  9
$PLINEGEN
 70
     0
  9
$PSLTSCALE
 70
     1
  9
$TREEDEPTH
 70
  3020
  9
$PICKSTYLE
 70
     1
  9
$CMLSTYLE
  2
STANDARD
  9
$CMLJUST
 70
     0
  9
$CMLSCALE
 40
1.0
  9
$SAVEIMAGES
 70
     1
  0
ENDSEC
  0
SECTION
  2
CLASSES
  0
CLASS
  1
ACDBDICTIONARYWDFLT
  2
AcDbDictionaryWithDefault
  3
ObjectDBX Classes
 90
    32768
280
     0
281
     0
  0
CLASS
  1
VISUALSTYLE
  2
AcDbVisualStyle
  3
ObjectDBX Classes
 90
     4095
280
     0
281
     0
  0
CLASS
  1
XRECORD
  2
AcDbXrecord
  3
AutoCAD 2000
 90
    32768
280
     0
281
     0
  0
CLASS
  1
LWPOLYLINE
  2
AcDbPolyline
  3
AutoCAD 2000
 90
    32768
280
     0
281
     1
  0
CLASS
  1
HATCH
  2
AcDbHatch
  3
AutoCAD 2000
 90
    32768
280
     0
281
     1
  0
CLASS
  1
ACDBPLACEHOLDER
  2
AcDbPlaceHolder
  3
ObjectDBX Classes
 90
        0
280
     0
281
     0
  0
CLASS
  1
LAYOUT
  2
AcDbLayout
  3
ObjectDBX Classes
 90
        0
280
     0
281
     0
  0
ENDSEC
  0
SECTION
  2
TABLES
  0
TABLE
  2
VPORT
  5
8
330
0
100
AcDbSymbolTable
 70
     1
  0
VPORT
  5
29
330
8
100
AcDbSymbolTableRecord
100
AcDbViewportTableRecord
  2
*ACTIVE
 70
     0
 10
0.0
 20
0.0
 11
1.0
 21
1.0
 12
0.0
 22
0.0
 13
0.0
 23
0.0
 14
0.5
 24
0.5
 15
0.5
 25
0.5
 16
0.0
 26
0.0
 36
1.0
 17
99.00005172166605
 27
99.00005172166605
 37
0.0
 40
198.0001034433321
 41
1.0
 42
50.0
 43
0.0
 44
0.0
 50
0.0
 51
0.0
 71
     0
 72
   100
 73
     1
 74
     3
 75
     0
 76
     0
 77
     0
 78
     0
  0
ENDTAB
  0
TABLE
  2
LTYPE
  5
5
330
0
100
AcDbSymbolTable
 70
     1
  0
LTYPE
  5
14
330
5
100
AcDbSymbolTableRecord
100
AcDbLinetypeTableRecord
  2
BYBLOCK
 70
     0
  3

 72
    65
 73
     0
 40
0.0
  0
LTYPE
  5
15
330
5
100
AcDbSymbolTableRecord
100
AcDbLinetypeTableRecord
  2
BYLAYER
 70
     0
  3

 72
    65
 73
     0
 40
0.0
  0
LTYPE
  5
16
330
5
100
AcDbSymbolTableRecord
100
AcDbLinetypeTableRecord
  2
CONTINUOUS
 70
     0
  3
Solid line
 72
    65
 73
     0
 40
0.0
  0
ENDTAB
  0
TABLE
  2
LAYER
  5
2
330
0
100
AcDbSymbolTable
 70
     2
  0
LAYER
  5
10
330
2
100
AcDbSymbolTableRecord
100
AcDbLayerTableRecord
  2
0
 70
     0
 62
     7
  6
CONTINUOUS
  0
LAYER
  5
3B
330
2
100
AcDbSymbolTableRecord
100
AcDbLayerTableRecord
  2
LAYER_1
 70
     0
 62
     7
  6
CONTINUOUS
  0
ENDTAB
  0
TABLE
  2
STYLE
  5
3
330
0
100
AcDbSymbolTable
 70
     1
  0
STYLE
  5
11
330
3
100
AcDbSymbolTableRecord
100
AcDbTextStyleTableRecord
  2
STANDARD
 70
     0
 40
0.0
 41
1.0
 50
0.0
 71
     0
 42
0.2
  3
txt
  4

  0
ENDTAB
  0
TABLE
  2
VIEW
  5
6
330
0
100
AcDbSymbolTable
 70
     0
  0
ENDTAB
  0
TABLE
  2
UCS
  5
7
330
0
100
AcDbSymbolTable
 70
     0
  0
ENDTAB
  0
TABLE
  2
APPID
  5
9
330
0
100
AcDbSymbolTable
 70
     1
  0
APPID
  5
12
330
9
100
AcDbSymbolTableRecord
100
AcDbRegAppTableRecord
  2
ACAD
 70
     0
  0
ENDTAB
  0
TABLE
  2
DIMSTYLE
  5
A
330
0
100
AcDbSymbolTable
 70
     1
  0
DIMSTYLE
105
27
330
A
100
AcDbSymbolTableRecord
100
AcDbDimStyleTableRecord
  2
STANDARD
 70
     0
  3

  4

  5

  6

  7

 40
1.0
 41
0.18
 42
0.0625
 43
0.38
 44
0.18
 45
0.0
 46
0.0
 47
0.0
 48
0.0
140
0.18
141
0.09
142
0.0
143
25.4
144
1.0
145
0.0
146
1.0
147
0.09
 71
     0
 72
     0
 73
     1
 74
     1
 75
     0
 76
     0
 77
     0
 78
     0
170
     0
171
     2
172
     0
173
     0
174
     0
175
     0
176
     0
177
     0
178
     0
270
     2
271
     4
272
     4
273
     2
274
     2
340
11
275
     0
280
     0
281
     0
282
     0
283
     1
284
     0
285
     0
286
     0
287
     3
288
     0
  0
ENDTAB
  0
TABLE
  2
BLOCK_RECORD
  5
1
330
0
100
AcDbSymbolTable
 70
     6
  0
BLOCK_RECORD
  5
1F
330
1
100
AcDbSymbolTableRecord
100
AcDbBlockTableRecord
  2
*MODEL_SPACE
  0
BLOCK_RECORD
  5
1B
330
1
100
AcDbSymbolTableRecord
100
AcDbBlockTableRecord
  2
*PAPER_SPACE
  0
BLOCK_RECORD
  5
17A
330
1
100
AcDbSymbolTableRecord
100
AcDbBlockTableRecord
  2
*U1
  0
BLOCK_RECORD
  5
1A3
330
1
100
AcDbSymbolTableRecord
100
AcDbBlockTableRecord
  2
*U2
  0
BLOCK_RECORD
  5
1E2
330
1
100
AcDbSymbolTableRecord
100
AcDbBlockTableRecord
  2
*U3
  0
BLOCK_RECORD
  5
207
330
1
100
AcDbSymbolTableRecord
100
AcDbBlockTableRecord
  2
*U4
  0
BLOCK_RECORD
  5
243
330
1
100
AcDbSymbolTableRecord
100
AcDbBlockTableRecord
  2
*U5
  0
ENDTAB
  0
ENDSEC
  0
SECTION
  2
BLOCKS
  0
BLOCK
  5
20
330
1F
100
AcDbEntity
  8
0
100
AcDbBlockBegin
  2
*MODEL_SPACE
 70
     0
 71
     0
 10
0.0
 20
0.0
 30
0.0
  3
*MODEL_SPACE
  1

  0
ENDBLK
  5
21
330
1F
100
AcDbEntity
  8
0
100
AcDbBlockEnd
  0
BLOCK
  5
1C
330
1B
100
AcDbEntity
 67
     1
  8
0
100
AcDbBlockBegin
  2
*PAPER_SPACE
 70
     0
 71
     0
 10
0.0
 20
0.0
 30
0.0
  3
*PAPER_SPACE
  1

  0
ENDBLK
  5
1D
330
1B
100
AcDbEntity
 67
     1
  8
0
100
AcDbBlockEnd
  0
BLOCK
  5
1A1
330
17A
100
AcDbEntity
  8
0
100
AcDbBlockBegin
  2
*U1
 70
     1
 71
     0
 10
0.0
 20
0.0
 30
0.0
  3
*U1
  1

  0
SOLID
  5
17B
330
17A
100
AcDbEntity
  8
LAYER_1
 62
   250
100
AcDbTrace
 10
-28.50008796740176
 20
130.499958561813
 30
0.0
 11
-28.50008796740176
 21
139.4999319447121
 31
0.0
 12
-31.5000790950348
 22
130.499958561813
 32
0.0
 13
-31.5000790950348
 23
130.499958561813
 33
0.0
210
0.0
220
0.0
230
-1.0
  0
SOLID
  5
17C
330
17A
100
AcDbEntity
  8
LAYER_1
 62
   250
100
AcDbTrace
 10
-31.5000790950348
 20
130.499958561813
 30
0.0
 11
-28.50008796740176
 21
139.4999319447121
 31
0.0
 12
-31.5000790950348
 22
139.4999319447121
 32
0.0
 13
-31.5000790950348
 23
139.4999319447121
 33
0.0
210
0.0
220
0.0
230
-1.0
  0
SOLID
  5
17D
330
17A
100
AcDbEntity
  8
LAYER_1
 62
   250
100
AcDbTrace
 10
-31.5000790950348
 20
124.4999763065469
 30
0.0
 11
-31.5000790950348
 21
127.4999674341799
 31
0.0
 12
-34.50007022266784
 22
124.4999763065469
 32
0.0
 13
-34.50007022266784
 23
124.4999763065469
 33
0.0
210
0.0
220
0.0
230
-1.0
  0
SOLID
  5
17E
330
17A
100
AcDbEntity
  8
LAYER_1
 62
   250
100
AcDbTrace
 10
-34.50007022266784
 20
124.4999763065469
 30
0.0
 11
-31.5000790950348
 21
127.4999674341799
 31
0.0
 12
-34.50007022266784
 22
127.4999674341799
 32
0.0
 13
-34.50007022266784
 23
127.4999674341799
 33
0.0
210
0.0
220
0.0
230
-1.0
  0
SOLID
  5
17F
330
17A
100
AcDbEntity
  8
LAYER_1
 62
   250
100
AcDbTrace
 10
-31.5000790950348
 20
130.499958561813
 30
0.0
 11
-31.5000790950348
 21
142.4999230723451
 31
0.0
 12
-34.50007022266784
 22
130.499958561813
 32
0.0
 13
-34.50007022266784
 23
130.499958561813
 33
0.0
210
0.0
220
0.0
230
-1.0
  0
SOLID
  5
180
330
17A
100
AcDbEntity
  8
LAYER_1
 62
   250
100
AcDbTrace
 10
-34.50007022266784
 20
130.499958561813
 30
0.0
 11
-31.5000790950348
 21
142.4999230723451
 31
0.0
 12
-34.50007022266784
 22
142.4999230723451
 32
0.0
 13
-34.50007022266784
 23
142.4999230723451
 33
0.0
210
0.0
220
0.0
230
-1.0
  0
SOLID
  5
181
330
17A
100
AcDbEntity
  8
LAYER_1
 62
   250
100
AcDbTrace
 10
-34.50007022266784
 20
121.4999851789138
 30
0.0
 11
-34.50007022266784
 21
142.4999230723451
 31
0.0
 12
-37.50006135030088
 22
121.4999851789138
 32
0.0
 13
-37.50006135030088
 23
121.4999851789138
 33
0.0
210
0.0
220
0.0
230
-1.0
  0
SOLID
  5
182
330
17A
100
AcDbEntity
  8
LAYER_1
 62
   250
100
AcDbTrace
 10
-37.50006135030088
 20
121.4999851789138
 30
0.0
 11
-34.50007022266784
 21
142.4999230723451
 31
0.0
 12
-37.50006135030088
 22
142.4999230723451
 32
0.0
 13
-37.50006135030088
 23
142.4999230723451
 33
0.0
210
0.0
220
0.0
230
-1.0
  0
SOLID
  5
183
330
17A
100
AcDbEntity
  8
LAYER_1
 62
   250
100
AcDbTrace
 10
-37.50006135030088
 20
121.4999851789138
 30
0.0
 11
-37.50006135030088
 21
124.4999763065469
 31
0.0
 12
-40.50005247793391
 22
121.4999851789138
 32
0.0
 13
-40.50005247793391
 23
121.4999851789138
 33
0.0
210
0.0
220
0.0
230
-1.0
  0
SOLID
  5
184
330
17A
100
AcDbEntity
  8
LAYER_1
 62
   250
100
AcDbTrace
 10
-40.50005247793391
 20
121.4999851789138
 30
0.0
 11
-37.50006135030088
 21
124.4999763065469
 31
0.0
 12
-40.50005247793391
 22
124.4999763065469
 32
0.0
 13
-40.50005247793391
 23
124.4999763065469
 33
0.0
210
0.0
220
0.0
230
-1.0
  0
SOLID
  5
185
330
17A
100
AcDbEntity
  8
LAYER_1
 62
   250
100
AcDbTrace
 10
-37.50006135030088
 20
127.4999674341799
 30
0.0
 11
-37.50006135030088
 21
133.499949689446
 31
0.0
 12
-40.50005247793391
 22
127.4999674341799
 32
0.0
 13
-40.50005247793391
 23
127.4999674341799
 33
0.0
210
0.0
220
0.0
230
-1.0
  0
SOLID
  5
186
330
17A
100
AcDbEntity
  8
LAYER_1
 62
   250
100
AcDbTrace
 10
-40.50005247793391
 20
127.4999674341799
 30
0.0
 11
-37.50006135030088
 21
133.499949689446
 31
0.0
 12
-40.50005247793391
 22
133.499949689446
 32
0.0
 13
-40.50005247793391
 23
133.499949689446
 33
0.0
210
0.0
220
0.0
230
-1.0
  0
SOLID
  5
187
330
17A
100
AcDbEntity
  8
LAYER_1
 62
   250
100
AcDbTrace
 10
-37.50006135030088
 20
136.4999408170791
 30
0.0
 11
-37.50006135030088
 21
142.4999230723451
 31
0.0
 12
-40.50005247793391
 22
136.4999408170791
 32
0.0
 13
-40.50005247793391
 23
136.4999408170791
 33
0.0
210
0.0
220
0.0
230
-1.0
  0
SOLID
  5
188
330
17A
100
AcDbEntity
  8
LAYER_1
 62
   250
100
AcDbTrace
 10
-40.50005247793391
 20
136.4999408170791
 30
0.0
 11
-37.50006135030088
 21
142.4999230723451
 31
0.0
 12
-40.50005247793391
 22
142.4999230723451
 32
0.0
 13
-40.50005247793391
 23
142.4999230723451
 33
0.0
210
0.0
220
0.0
230
-1.0
  0
SOLID
  5
189
330
17A
100
AcDbEntity
  8
LAYER_1
 62
   250
100
AcDbTrace
 10
-40.50005247793391
 20
127.4999674341799
 30
0.0
 11
-40.50005247793391
 21
133.499949689446
 31
0.0
 12
-43.50004360556695
 22
127.4999674341799
 32
0.0
 13
-43.50004360556695
 23
127.4999674341799
 33
0.0
210
0.0
220
0.0
230
-1.0
  0
SOLID
  5
18A
330
17A
100
AcDbEntity
  8
LAYER_1
 62
   250
100
AcDbTrace
 10
-43.50004360556695
 20
127.4999674341799
 30
0.0
 11
-40.50005247793391
 21
133.499949689446
 31
0.0
 12
-43.50004360556695
 22
133.499949689446
 32
0.0
 13
-43.50004360556695
 23
133.499949689446
 33
0.0
210
0.0
220
0.0
230
-1.0
  0
SOLID
  5
18B
330
17A
100
AcDbEntity
  8
LAYER_1
 62
   250
100
AcDbTrace
 10
-40.50005247793391
 20
136.4999408170791
 30
0.0
 11
-40.50005247793391
 21
145.5000864548661
 31
0.0
 12
-43.50004360556695
 22
136.4999408170791
 32
0.0
 13
-43.50004360556695
 23
136.4999408170791
 33
0.0
210
0.0
220
0.0
230
-1.0
  0
SOLID
  5
18C
330
17A
100
AcDbEntity
  8
LAYER_1
 62
   250
100
AcDbTrace
 10
-43.50004360556695
 20
136.4999408170791
 30
0.0
 11
-40.50005247793391
 21
145.5000864548661
 31
0.0
 12
-43.50004360556695
 22
145.5000864548661
 32
0.0
 13
-43.50004360556695
 23
145.5000864548661
 33
0.0
210
0.0
220
0.0
230
-1.0
  0
SOLID
  5
18D
330
17A
100
AcDbEntity
  8
LAYER_1
 62
   250
100
AcDbTrace
 10
-43.50004360556695
 20
130.499958561813
 30
0.0
 11
-43.50004360556695
 21
145.5000864548661
 31
0.0
 12
-49.50002586083303
 22
130.499958561813
 32
0.0
 13
-49.50002586083303
 23
130.499958561813
 33
0.0
210
0.0
220
0.0
230
-1.0
  0
SOLID
  5
18E
330
17A
100
AcDbEntity
  8
LAYER_1
 62
   250
100
AcDbTrace
 10
-49.50002586083303
 20
130.499958561813
 30
0.0
 11
-43.50004360556695
 21
145.5000864548661
 31
0.0
 12
-49.50002586083303
 22
145.5000864548661
 32
0.0
 13
-49.50002586083303
 23
145.5000864548661
 33
0.0
210
0.0
220
0.0
230
-1.0
  0
SOLID
  5
18F
330
17A
100
AcDbEntity
  8
LAYER_1
 62
   250
100
AcDbTrace
 10
-49.50002586083303
 20
127.4999674341799
 30
0.0
 11
-49.50002586083303
 21
133.499949689446
 31
0.0
 12
-52.50001698846607
 22
127.4999674341799
 32
0.0
 13
-52.50001698846607
 23
127.4999674341799
 33
0.0
210
0.0
220
0.0
230
-1.0
  0
SOLID
  5
190
330
17A
100
AcDbEntity
  8
LAYER_1
 62
   250
100
AcDbTrace
 10
-52.50001698846607
 20
127.4999674341799
 30
0.0
 11
-49.50002586083303
 21
133.499949689446
 31
0.0
 12
-52.50001698846607
 22
133.499949689446
 32
0.0
 13
-52.50001698846607
 23
133.499949689446
 33
0.0
210
0.0
220
0.0
230
-1.0
  0
SOLID
  5
191
330
17A
100
AcDbEntity
  8
LAYER_1
 62
   250
100
AcDbTrace
 10
-49.50002586083303
 20
136.4999408170791
 30
0.0
 11
-49.50002586083303
 21
145.5000864548661
 31
0.0
 12
-52.50001698846607
 22
136.4999408170791
 32
0.0
 13
-52.50001698846607
 23
136.4999408170791
 33
0.0
210
0.0
220
0.0
230
-1.0
  0
SOLID
  5
192
330
17A
100
AcDbEntity
  8
LAYER_1
 62
   250
100
AcDbTrace
 10
-52.50001698846607
 20
136.4999408170791
 30
0.0
 11
-49.50002586083303
 21
145.5000864548661
 31
0.0
 12
-52.50001698846607
 22
145.5000864548661
 32
0.0
 13
-52.50001698846607
 23
145.5000864548661
 33
0.0
210
0.0
220
0.0
230
-1.0
  0
SOLID
  5
193
330
17A
100
AcDbEntity
  8
LAYER_1
 62
   250
100
AcDbTrace
 10
-52.50001698846607
 20
121.4999851789138
 30
0.0
 11
-52.50001698846607
 21
124.4999763065469
 31
0.0
 12
-55.50000811609911
 22
121.4999851789138
 32
0.0
 13
-55.50000811609911
 23
121.4999851789138
 33
0.0
210
0.0
220
0.0
230
-1.0
  0
SOLID
  5
194
330
17A
100
AcDbEntity
  8
LAYER_1
 62
   250
100
AcDbTrace
 10
-55.50000811609911
 20
121.4999851789138
 30
0.0
 11
-52.50001698846607
 21
124.4999763065469
 31
0.0
 12
-55.50000811609911
 22
124.4999763065469
 32
0.0
 13
-55.50000811609911
 23
124.4999763065469
 33
0.0
210
0.0
220
0.0
230
-1.0
  0
SOLID
  5
195
330
17A
100
AcDbEntity
  8
LAYER_1
 62
   250
100
AcDbTrace
 10
-52.50001698846607
 20
127.4999674341799
 30
0.0
 11
-52.50001698846607
 21
133.499949689446
 31
0.0
 12
-55.50000811609911
 22
127.4999674341799
 32
0.0
 13
-55.50000811609911
 23
127.4999674341799
 33
0.0
210
0.0
220
0.0
230
-1.0
  0
SOLID
  5
196
330
17A
100
AcDbEntity
  8
LAYER_1
 62
   250
100
AcDbTrace
 10
-55.50000811609911
 20
127.4999674341799
 30
0.0
 11
-52.50001698846607
 21
133.499949689446
 31
0.0
 12
-55.50000811609911
 22
133.499949689446
 32
0.0
 13
-55.50000811609911
 23
133.499949689446
 33
0.0
210
0.0
220
0.0
230
-1.0
  0
SOLID
  5
197
330
17A
100
AcDbEntity
  8
LAYER_1
 62
   250
100
AcDbTrace
 10
-52.50001698846607
 20
136.4999408170791
 30
0.0
 11
-52.50001698846607
 21
142.4999230723451
 31
0.0
 12
-55.50000811609911
 22
136.4999408170791
 32
0.0
 13
-55.50000811609911
 23
136.4999408170791
 33
0.0
210
0.0
220
0.0
230
-1.0
  0
SOLID
  5
198
330
17A
100
AcDbEntity
  8
LAYER_1
 62
   250
100
AcDbTrace
 10
-55.50000811609911
 20
136.4999408170791
 30
0.0
 11
-52.50001698846607
 21
142.4999230723451
 31
0.0
 12
-55.50000811609911
 22
142.4999230723451
 32
0.0
 13
-55.50000811609911
 23
142.4999230723451
 33
0.0
210
0.0
220
0.0
230
-1.0
  0
SOLID
  5
199
330
17A
100
AcDbEntity
  8
LAYER_1
 62
   250
100
AcDbTrace
 10
-55.50000811609911
 20
121.4999851789138
 30
0.0
 11
-55.50000811609911
 21
142.4999230723451
 31
0.0
 12
-58.49999924373215
 22
121.4999851789138
 32
0.0
 13
-58.49999924373215
 23
121.4999851789138
 33
0.0
210
0.0
220
0.0
230
-1.0
  0
SOLID
  5
19A
330
17A
100
AcDbEntity
  8
LAYER_1
 62
   250
100
AcDbTrace
 10
-58.49999924373215
 20
121.4999851789138
 30
0.0
 11
-55.50000811609911
 21
142.4999230723451
 31
0.0
 12
-58.49999924373215
 22
142.4999230723451
 32
0.0
 13
-58.49999924373215
 23
142.4999230723451
 33
0.0
210
0.0
220
0.0
230
-1.0
  0
SOLID
  5
19B
330
17A
100
AcDbEntity
  8
LAYER_1
 62
   250
100
AcDbTrace
 10
-58.49999924373215
 20
124.4999763065469
 30
0.0
 11
-58.49999924373215
 21
127.4999674341799
 31
0.0
 12
-61.49999037136519
 22
124.4999763065469
 32
0.0
 13
-61.49999037136519
 23
124.4999763065469
 33
0.0
210
0.0
220
0.0
230
-1.0
  0
SOLID
  5
19C
330
17A
100
AcDbEntity
  8
LAYER_1
 62
   250
100
AcDbTrace
 10
-61.49999037136519
 20
124.4999763065469
 30
0.0
 11
-58.49999924373215
 21
127.4999674341799
 31
0.0
 12
-61.49999037136519
 22
127.4999674341799
 32
0.0
 13
-61.49999037136519
 23
127.4999674341799
 33
0.0
210
0.0
220
0.0
230
-1.0
  0
SOLID
  5
19D
330
17A
100
AcDbEntity
  8
LAYER_1
 62
   250
100
AcDbTrace
 10
-58.49999924373215
 20
130.499958561813
 30
0.0
 11
-58.49999924373215
 21
142.4999230723451
 31
0.0
 12
-61.49999037136519
 22
130.499958561813
 32
0.0
 13
-61.49999037136519
 23
130.499958561813
 33
0.0
210
0.0
220
0.0
230
-1.0
  0
SOLID
  5
19E
330
17A
100
AcDbEntity
  8
LAYER_1
 62
   250
100
AcDbTrace
 10
-61.49999037136519
 20
130.499958561813
 30
0.0
 11
-58.49999924373215
 21
142.4999230723451
 31
0.0
 12
-61.49999037136519
 22
142.4999230723451
 32
0.0
 13
-61.49999037136519
 23
142.4999230723451
 33
0.0
210
0.0
220
0.0
230
-1.0
  0
SOLID
  5
19F
330
17A
100
AcDbEntity
  8
LAYER_1
 62
   250
100
AcDbTrace
 10
-61.49999037136519
 20
130.499958561813
 30
0.0
 11
-61.49999037136519
 21
139.4999319447121
 31
0.0
 12
-64.49998149899822
 22
130.499958561813
 32
0.0
 13
-64.49998149899822
 23
130.499958561813
 33
0.0
210
0.0
220
0.0
230
-1.0
  0
SOLID
  5
1A0
330
17A
100
AcDbEntity
  8
LAYER_1
 62
   250
100
AcDbTrace
 10
-64.49998149899822
 20
130.499958561813
 30
0.0
 11
-61.49999037136519
 21
139.4999319447121
 31
0.0
 12
-64.49998149899822
 22
139.4999319447121
 32
0.0
 13
-64.49998149899822
 23
139.4999319447121
 33
0.0
210
0.0
220
0.0
230
-1.0
  0
ENDBLK
  5
1A2
330
17A
100
AcDbEntity
  8
0
100
AcDbBlockEnd
  0
BLOCK
  5
1E0
330
1A3
100
AcDbEntity
  8
0
100
AcDbBlockBegin
  2
*U2
 70
     1
 71
     0
 10
0.0
 20
0.0
 30
0.0
  3
*U2
  1

  0
SOLID
  5
1A4
330
1A3
100
AcDbEntity
  8
LAYER_1
 62
   250
100
AcDbTrace
 10
-75.00012270060175
 20
153.0000642739487
 30
0.0
 11
-75.00012270060175
 21
162.0000376568478
 31
0.0
 12
-78.00011382823479
 22
153.0000642739487
 32
0.0
 13
-78.00011382823479
 23
153.0000642739487
 33
0.0
210
0.0
220
0.0
230
-1.0
  0
SOLID
  5
1A5
330
1A3
100
AcDbEntity
  8
LAYER_1
 62
   250
100
AcDbTrace
 10
-78.00011382823479
 20
153.0000642739487
 30
0.0
 11
-75.00012270060175
 21
162.0000376568478
 31
0.0
 12
-78.00011382823479
 22
162.0000376568478
 32
0.0
 13
-78.00011382823479
 23
162.0000376568478
 33
0.0
210
0.0
220
0.0
230
-1.0
  0
SOLID
  5
1A6
330
1A3
100
AcDbEntity
  8
LAYER_1
 62
   250
100
AcDbTrace
 10
-78.00011382823479
 20
159.0000465292147
 30
0.0
 11
-78.00011382823479
 21
165.0000287844808
 31
0.0
 12
-81.00010495586783
 22
159.0000465292147
 32
0.0
 13
-81.00010495586783
 23
159.0000465292147
 33
0.0
210
0.0
220
0.0
230
-1.0
  0
SOLID
  5
1A7
330
1A3
100
AcDbEntity
  8
LAYER_1
 62
   250
100
AcDbTrace
 10
-81.00010495586783
 20
159.0000465292147
 30
0.0
 11
-78.00011382823479
 21
165.0000287844808
 31
0.0
 12
-81.00010495586783
 22
165.0000287844808
 32
0.0
 13
-81.00010495586783
 23
165.0000287844808
 33
0.0
210
0.0
220
0.0
230
-1.0
  0
SOLID
  5
1A8
330
1A3
100
AcDbEntity
  8
LAYER_1
 62
   250
100
AcDbTrace
 10
-81.00010495586783
 20
153.0000642739487
 30
0.0
 11
-81.00010495586783
 21
168.0000199121138
 31
0.0
 12
-84.00009608350086
 22
153.0000642739487
 32
0.0
 13
-84.00009608350086
 23
153.0000642739487
 33
0.0
210
0.0
220
0.0
230
-1.0
  0
SOLID
  5
1A9
330
1A3
100
AcDbEntity
  8
LAYER_1
 62
   250
100
AcDbTrace
 10
-84.00009608350086
 20
153.0000642739487
 30
0.0
 11
-81.00010495586783
 21
168.0000199121138
 31
0.0
 12
-84.00009608350086
 22
168.0000199121138
 32
0.0
 13
-84.00009608350086
 23
168.0000199121138
 33
0.0
210
0.0
220
0.0
230
-1.0
  0
SOLID
  5
1AA
330
1A3
100
AcDbEntity
  8
LAYER_1
 62
   250
100
AcDbTrace
 10
-81.00010495586783
 20
174.0001744222678
 30
0.0
 11
-81.00010495586783
 21
177.0001655499009
 31
0.0
 12
-84.00009608350086
 22
174.0001744222678
 32
0.0
 13
-84.00009608350086
 23
174.0001744222678
 33
0.0
210
0.0
220
0.0
230
-1.0
  0
SOLID
  5
1AB
330
1A3
100
AcDbEntity
  8
LAYER_1
 62
   250
100
AcDbTrace
 10
-84.00009608350086
 20
174.0001744222678
 30
0.0
 11
-81.00010495586783
 21
177.0001655499009
 31
0.0
 12
-84.00009608350086
 22
177.0001655499009
 32
0.0
 13
-84.00009608350086
 23
177.0001655499009
 33
0.0
210
0.0
220
0.0
230
-1.0
  0
SOLID
  5
1AC
330
1A3
100
AcDbEntity
  8
LAYER_1
 62
   250
100
AcDbTrace
 10
-84.00009608350086
 20
150.0000731463156
 30
0.0
 11
-84.00009608350086
 21
168.0000199121138
 31
0.0
 12
-85.50009164731739
 22
150.0000731463156
 32
0.0
 13
-85.50009164731739
 23
150.0000731463156
 33
0.0
210
0.0
220
0.0
230
-1.0
  0
SOLID
  5
1AD
330
1A3
100
AcDbEntity
  8
LAYER_1
 62
   250
100
AcDbTrace
 10
-85.50009164731739
 20
150.0000731463156
 30
0.0
 11
-84.00009608350086
 21
168.0000199121138
 31
0.0
 12
-85.50009164731739
 22
168.0000199121138
 32
0.0
 13
-85.50009164731739
 23
168.0000199121138
 33
0.0
210
0.0
220
0.0
230
-1.0
  0
SOLID
  5
1AE
330
1A3
100
AcDbEntity
  8
LAYER_1
 62
   250
100
AcDbTrace
 10
-84.00009608350086
 20
171.0001832946348
 30
0.0
 11
-84.00009608350086
 21
177.0001655499009
 31
0.0
 12
-85.50009164731739
 22
171.0001832946348
 32
0.0
 13
-85.50009164731739
 23
171.0001832946348
 33
0.0
210
0.0
220
0.0
230
-1.0
  0
SOLID
  5
1AF
330
1A3
100
AcDbEntity
  8
LAYER_1
 62
   250
100
AcDbTrace
 10
-85.50009164731739
 20
171.0001832946348
 30
0.0
 11
-84.00009608350086
 21
177.0001655499009
 31
0.0
 12
-85.50009164731739
 22
177.0001655499009
 32
0.0
 13
-85.50009164731739
 23
177.0001655499009
 33
0.0
210
0.0
220
0.0
230
-1.0
  0
SOLID
  5
1B0
330
1A3
100
AcDbEntity
  8
LAYER_1
 62
   250
100
AcDbTrace
 10
-85.50009164731739
 20
150.0000731463156
 30
0.0
 11
-85.50009164731739
 21
168.0000199121138
 31
0.0
 12
-87.0000872111339
 22
150.0000731463156
 32
0.0
 13
-87.0000872111339
 23
150.0000731463156
 33
0.0
210
0.0
220
0.0
230
-1.0
  0
SOLID
  5
1B1
330
1A3
100
AcDbEntity
  8
LAYER_1
 62
   250
100
AcDbTrace
 10
-87.0000872111339
 20
150.0000731463156
 30
0.0
 11
-85.50009164731739
 21
168.0000199121138
 31
0.0
 12
-87.0000872111339
 22
168.0000199121138
 32
0.0
 13
-87.0000872111339
 23
168.0000199121138
 33
0.0
210
0.0
220
0.0
230
-1.0
  0
SOLID
  5
1B2
330
1A3
100
AcDbEntity
  8
LAYER_1
 62
   250
100
AcDbTrace
 10
-85.50009164731739
 20
171.0001832946348
 30
0.0
 11
-85.50009164731739
 21
174.0001744222678
 31
0.0
 12
-87.0000872111339
 22
171.0001832946348
 32
0.0
 13
-87.0000872111339
 23
171.0001832946348
 33
0.0
210
0.0
220
0.0
230
-1.0
  0
SOLID
  5
1B3
330
1A3
100
AcDbEntity
  8
LAYER_1
 62
   250
100
AcDbTrace
 10
-87.0000872111339
 20
171.0001832946348
 30
0.0
 11
-85.50009164731739
 21
174.0001744222678
 31
0.0
 12
-87.0000872111339
 22
174.0001744222678
 32
0.0
 13
-87.0000872111339
 23
174.0001744222678
 33
0.0
210
0.0
220
0.0
230
-1.0
  0
SOLID
  5
1B4
330
1A3
100
AcDbEntity
  8
LAYER_1
 62
   250
100
AcDbTrace
 10
-87.0000872111339
 20
150.0000731463156
 30
0.0
 11
-87.0000872111339
 21
153.0000642739487
 31
0.0
 12
-90.00007833876694
 22
150.0000731463156
 32
0.0
 13
-90.00007833876694
 23
150.0000731463156
 33
0.0
210
0.0
220
0.0
230
-1.0
  0
SOLID
  5
1B5
330
1A3
100
AcDbEntity
  8
LAYER_1
 62
   250
100
AcDbTrace
 10
-90.00007833876694
 20
150.0000731463156
 30
0.0
 11
-87.0000872111339
 21
153.0000642739487
 31
0.0
 12
-90.00007833876694
 22
153.0000642739487
 32
0.0
 13
-90.00007833876694
 23
153.0000642739487
 33
0.0
210
0.0
220
0.0
230
-1.0
  0
SOLID
  5
1B6
330
1A3
100
AcDbEntity
  8
LAYER_1
 62
   250
100
AcDbTrace
 10
-87.0000872111339
 20
156.0000554015817
 30
0.0
 11
-87.0000872111339
 21
162.0000376568478
 31
0.0
 12
-90.00007833876694
 22
156.0000554015817
 32
0.0
 13
-90.00007833876694
 23
156.0000554015817
 33
0.0
210
0.0
220
0.0
230
-1.0
  0
SOLID
  5
1B7
330
1A3
100
AcDbEntity
  8
LAYER_1
 62
   250
100
AcDbTrace
 10
-90.00007833876694
 20
156.0000554015817
 30
0.0
 11
-87.0000872111339
 21
162.0000376568478
 31
0.0
 12
-90.00007833876694
 22
162.0000376568478
 32
0.0
 13
-90.00007833876694
 23
162.0000376568478
 33
0.0
210
0.0
220
0.0
230
-1.0
  0
SOLID
  5
1B8
330
1A3
100
AcDbEntity
  8
LAYER_1
 62
   250
100
AcDbTrace
 10
-87.0000872111339
 20
165.0000287844808
 30
0.0
 11
-87.0000872111339
 21
174.0001744222678
 31
0.0
 12
-90.00007833876694
 22
165.0000287844808
 32
0.0
 13
-90.00007833876694
 23
165.0000287844808
 33
0.0
210
0.0
220
0.0
230
-1.0
  0
SOLID
  5
1B9
330
1A3
100
AcDbEntity
  8
LAYER_1
 62
   250
100
AcDbTrace
 10
-90.00007833876694
 20
165.0000287844808
 30
0.0
 11
-87.0000872111339
 21
174.0001744222678
 31
0.0
 12
-90.00007833876694
 22
174.0001744222678
 32
0.0
 13
-90.00007833876694
 23
174.0001744222678
 33
0.0
210
0.0
220
0.0
230
-1.0
  0
SOLID
  5
1BA
330
1A3
100
AcDbEntity
  8
LAYER_1
 62
   250
100
AcDbTrace
 10
-90.00007833876694
 20
150.0000731463156
 30
0.0
 11
-90.00007833876694
 21
153.0000642739487
 31
0.0
 12
-93.00006946639998
 22
150.0000731463156
 32
0.0
 13
-93.00006946639998
 23
150.0000731463156
 33
0.0
210
0.0
220
0.0
230
-1.0
  0
SOLID
  5
1BB
330
1A3
100
AcDbEntity
  8
LAYER_1
 62
   250
100
AcDbTrace
 10
-93.00006946639998
 20
150.0000731463156
 30
0.0
 11
-90.00007833876694
 21
153.0000642739487
 31
0.0
 12
-93.00006946639998
 22
153.0000642739487
 32
0.0
 13
-93.00006946639998
 23
153.0000642739487
 33
0.0
210
0.0
220
0.0
230
-1.0
  0
SOLID
  5
1BC
330
1A3
100
AcDbEntity
  8
LAYER_1
 62
   250
100
AcDbTrace
 10
-90.00007833876694
 20
156.0000554015817
 30
0.0
 11
-90.00007833876694
 21
168.0000199121138
 31
0.0
 12
-93.00006946639998
 22
156.0000554015817
 32
0.0
 13
-93.00006946639998
 23
156.0000554015817
 33
0.0
210
0.0
220
0.0
230
-1.0
  0
SOLID
  5
1BD
330
1A3
100
AcDbEntity
  8
LAYER_1
 62
   250
100
AcDbTrace
 10
-93.00006946639998
 20
156.0000554015817
 30
0.0
 11
-90.00007833876694
 21
168.0000199121138
 31
0.0
 12
-93.00006946639998
 22
168.0000199121138
 32
0.0
 13
-93.00006946639998
 23
168.0000199121138
 33
0.0
210
0.0
220
0.0
230
-1.0
  0
SOLID
  5
1BE
330
1A3
100
AcDbEntity
  8
LAYER_1
 62
   250
100
AcDbTrace
 10
-93.00006946639998
 20
156.0000554015817
 30
0.0
 11
-93.00006946639998
 21
168.0000199121138
 31
0.0
 12
-96.00006059403302
 22
156.0000554015817
 32
0.0
 13
-96.00006059403302
 23
156.0000554015817
 33
0.0
210
0.0
220
0.0
230
-1.0
  0
SOLID
  5
1BF
330
1A3
100
AcDbEntity
  8
LAYER_1
 62
   250
100
AcDbTrace
 10
-96.00006059403302
 20
156.0000554015817
 30
0.0
 11
-93.00006946639998
 21
168.0000199121138
 31
0.0
 12
-96.00006059403302
 22
168.0000199121138
 32
0.0
 13
-96.00006059403302
 23
168.0000199121138
 33
0.0
210
0.0
220
0.0
230
-1.0
  0
SOLID
  5
1C0
330
1A3
100
AcDbEntity
  8
LAYER_1
 62
   250
100
AcDbTrace
 10
-96.00006059403302
 20
150.0000731463156
 30
0.0
 11
-96.00006059403302
 21
153.0000642739487
 31
0.0
 12
-99.00005172166605
 22
150.0000731463156
 32
0.0
 13
-99.00005172166605
 23
150.0000731463156
 33
0.0
210
0.0
220
0.0
230
-1.0
  0
SOLID
  5
1C1
330
1A3
100
AcDbEntity
  8
LAYER_1
 62
   250
100
AcDbTrace
 10
-99.00005172166605
 20
150.0000731463156
 30
0.0
 11
-96.00006059403302
 21
153.0000642739487
 31
0.0
 12
-99.00005172166605
 22
153.0000642739487
 32
0.0
 13
-99.00005172166605
 23
153.0000642739487
 33
0.0
210
0.0
220
0.0
230
-1.0
  0
SOLID
  5
1C2
330
1A3
100
AcDbEntity
  8
LAYER_1
 62
   250
100
AcDbTrace
 10
-96.00006059403302
 20
156.0000554015817
 30
0.0
 11
-96.00006059403302
 21
168.0000199121138
 31
0.0
 12
-99.00005172166605
 22
156.0000554015817
 32
0.0
 13
-99.00005172166605
 23
156.0000554015817
 33
0.0
210
0.0
220
0.0
230
-1.0
  0
SOLID
  5
1C3
330
1A3
100
AcDbEntity
  8
LAYER_1
 62
   250
100
AcDbTrace
 10
-99.00005172166605
 20
156.0000554015817
 30
0.0
 11
-96.00006059403302
 21
168.0000199121138
 31
0.0
 12
-99.00005172166605
 22
168.0000199121138
 32
0.0
 13
-99.00005172166605
 23
168.0000199121138
 33
0.0
210
0.0
220
0.0
230
-1.0
  0
SOLID
  5
1C4
330
1A3
100
AcDbEntity
  8
LAYER_1
 62
   250
100
AcDbTrace
 10
-99.00005172166605
 20
150.0000731463156
 30
0.0
 11
-99.00005172166605
 21
153.0000642739487
 31
0.0
 12
-100.5000472854826
 22
150.0000731463156
 32
0.0
 13
-100.5000472854826
 23
150.0000731463156
 33
0.0
210
0.0
220
0.0
230
-1.0
  0
SOLID
  5
1C5
330
1A3
100
AcDbEntity
  8
LAYER_1
 62
   250
100
AcDbTrace
 10
-100.5000472854826
 20
150.0000731463156
 30
0.0
 11
-99.00005172166605
 21
153.0000642739487
 31
0.0
 12
-100.5000472854826
 22
153.0000642739487
 32
0.0
 13
-100.5000472854826
 23
153.0000642739487
 33
0.0
210
0.0
220
0.0
230
-1.0
  0
SOLID
  5
1C6
330
1A3
100
AcDbEntity
  8
LAYER_1
 62
   250
100
AcDbTrace
 10
-99.00005172166605
 20
156.0000554015817
 30
0.0
 11
-99.00005172166605
 21
162.0000376568478
 31
0.0
 12
-100.5000472854826
 22
156.0000554015817
 32
0.0
 13
-100.5000472854826
 23
156.0000554015817
 33
0.0
210
0.0
220
0.0
230
-1.0
  0
SOLID
  5
1C7
330
1A3
100
AcDbEntity
  8
LAYER_1
 62
   250
100
AcDbTrace
 10
-100.5000472854826
 20
156.0000554015817
 30
0.0
 11
-99.00005172166605
 21
162.0000376568478
 31
0.0
 12
-100.5000472854826
 22
162.0000376568478
 32
0.0
 13
-100.5000472854826
 23
162.0000376568478
 33
0.0
210
0.0
220
0.0
230
-1.0
  0
SOLID
  5
1C8
330
1A3
100
AcDbEntity
  8
LAYER_1
 62
   250
100
AcDbTrace
 10
-99.00005172166605
 20
165.0000287844808
 30
0.0
 11
-99.00005172166605
 21
174.0001744222678
 31
0.0
 12
-100.5000472854826
 22
165.0000287844808
 32
0.0
 13
-100.5000472854826
 23
165.0000287844808
 33
0.0
210
0.0
220
0.0
230
-1.0
  0
SOLID
  5
1C9
330
1A3
100
AcDbEntity
  8
LAYER_1
 62
   250
100
AcDbTrace
 10
-100.5000472854826
 20
165.0000287844808
 30
0.0
 11
-99.00005172166605
 21
174.0001744222678
 31
0.0
 12
-100.5000472854826
 22
174.0001744222678
 32
0.0
 13
-100.5000472854826
 23
174.0001744222678
 33
0.0
210
0.0
220
0.0
230
-1.0
  0
SOLID
  5
1CA
330
1A3
100
AcDbEntity
  8
LAYER_1
 62
   250
100
AcDbTrace
 10
-100.5000472854826
 20
150.0000731463156
 30
0.0
 11
-100.5000472854826
 21
153.0000642739487
 31
0.0
 12
-102.0000428492991
 22
150.0000731463156
 32
0.0
 13
-102.0000428492991
 23
150.0000731463156
 33
0.0
210
0.0
220
0.0
230
-1.0
  0
SOLID
  5
1CB
330
1A3
100
AcDbEntity
  8
LAYER_1
 62
   250
100
AcDbTrace
 10
-102.0000428492991
 20
150.0000731463156
 30
0.0
 11
-100.5000472854826
 21
153.0000642739487
 31
0.0
 12
-102.0000428492991
 22
153.0000642739487
 32
0.0
 13
-102.0000428492991
 23
153.0000642739487
 33
0.0
210
0.0
220
0.0
230
-1.0
  0
SOLID
  5
1CC
330
1A3
100
AcDbEntity
  8
LAYER_1
 62
   250
100
AcDbTrace
 10
-100.5000472854826
 20
156.0000554015817
 30
0.0
 11
-100.5000472854826
 21
162.0000376568478
 31
0.0
 12
-102.0000428492991
 22
156.0000554015817
 32
0.0
 13
-102.0000428492991
 23
156.0000554015817
 33
0.0
210
0.0
220
0.0
230
-1.0
  0
SOLID
  5
1CD
330
1A3
100
AcDbEntity
  8
LAYER_1
 62
   250
100
AcDbTrace
 10
-102.0000428492991
 20
156.0000554015817
 30
0.0
 11
-100.5000472854826
 21
162.0000376568478
 31
0.0
 12
-102.0000428492991
 22
162.0000376568478
 32
0.0
 13
-102.0000428492991
 23
162.0000376568478
 33
0.0
210
0.0
220
0.0
230
-1.0
  0
SOLID
  5
1CE
330
1A3
100
AcDbEntity
  8
LAYER_1
 62
   250
100
AcDbTrace
 10
-100.5000472854826
 20
165.0000287844808
 30
0.0
 11
-100.5000472854826
 21
174.0001744222678
 31
0.0
 12
-102.0000428492991
 22
165.0000287844808
 32
0.0
 13
-102.0000428492991
 23
165.0000287844808
 33
0.0
210
0.0
220
0.0
230
-1.0
  0
SOLID
  5
1CF
330
1A3
100
AcDbEntity
  8
LAYER_1
 62
   250
100
AcDbTrace
 10
-102.0000428492991
 20
165.0000287844808
 30
0.0
 11
-100.5000472854826
 21
174.0001744222678
 31
0.0
 12
-102.0000428492991
 22
174.0001744222678
 32
0.0
 13
-102.0000428492991
 23
174.0001744222678
 33
0.0
210
0.0
220
0.0
230
-1.0
  0
SOLID
  5
1D0
330
1A3
100
AcDbEntity
  8
LAYER_1
 62
   250
100
AcDbTrace
 10
-102.0000428492991
 20
150.0000731463156
 30
0.0
 11
-102.0000428492991
 21
168.0000199121138
 31
0.0
 12
-103.5000384131156
 22
150.0000731463156
 32
0.0
 13
-103.5000384131156
 23
150.0000731463156
 33
0.0
210
0.0
220
0.0
230
-1.0
  0
SOLID
  5
1D1
330
1A3
100
AcDbEntity
  8
LAYER_1
 62
   250
100
AcDbTrace
 10
-103.5000384131156
 20
150.0000731463156
 30
0.0
 11
-102.0000428492991
 21
168.0000199121138
 31
0.0
 12
-103.5000384131156
 22
168.0000199121138
 32
0.0
 13
-103.5000384131156
 23
168.0000199121138
 33
0.0
210
0.0
220
0.0
230
-1.0
  0
SOLID
  5
1D2
330
1A3
100
AcDbEntity
  8
LAYER_1
 62
   250
100
AcDbTrace
 10
-102.0000428492991
 20
171.0001832946348
 30
0.0
 11
-102.0000428492991
 21
174.0001744222678
 31
0.0
 12
-103.5000384131156
 22
171.0001832946348
 32
0.0
 13
-103.5000384131156
 23
171.0001832946348
 33
0.0
210
0.0
220
0.0
230
-1.0
  0
SOLID
  5
1D3
330
1A3
100
AcDbEntity
  8
LAYER_1
 62
   250
100
AcDbTrace
 10
-103.5000384131156
 20
171.0001832946348
 30
0.0
 11
-102.0000428492991
 21
174.0001744222678
 31
0.0
 12
-103.5000384131156
 22
174.0001744222678
 32
0.0
 13
-103.5000384131156
 23
174.0001744222678
 33
0.0
210
0.0
220
0.0
230
-1.0
  0
SOLID
  5
1D4
330
1A3
100
AcDbEntity
  8
LAYER_1
 62
   250
100
AcDbTrace
 10
-103.5000384131156
 20
150.0000731463156
 30
0.0
 11
-103.5000384131156
 21
168.0000199121138
 31
0.0
 12
-105.0000339769321
 22
150.0000731463156
 32
0.0
 13
-105.0000339769321
 23
150.0000731463156
 33
0.0
210
0.0
220
0.0
230
-1.0
  0
SOLID
  5
1D5
330
1A3
100
AcDbEntity
  8
LAYER_1
 62
   250
100
AcDbTrace
 10
-105.0000339769321
 20
150.0000731463156
 30
0.0
 11
-103.5000384131156
 21
168.0000199121138
 31
0.0
 12
-105.0000339769321
 22
168.0000199121138
 32
0.0
 13
-105.0000339769321
 23
168.0000199121138
 33
0.0
210
0.0
220
0.0
230
-1.0
  0
SOLID
  5
1D6
330
1A3
100
AcDbEntity
  8
LAYER_1
 62
   250
100
AcDbTrace
 10
-103.5000384131156
 20
171.0001832946348
 30
0.0
 11
-103.5000384131156
 21
177.0001655499009
 31
0.0
 12
-105.0000339769321
 22
171.0001832946348
 32
0.0
 13
-105.0000339769321
 23
171.0001832946348
 33
0.0
210
0.0
220
0.0
230
-1.0
  0
SOLID
  5
1D7
330
1A3
100
AcDbEntity
  8
LAYER_1
 62
   250
100
AcDbTrace
 10
-105.0000339769321
 20
171.0001832946348
 30
0.0
 11
-103.5000384131156
 21
177.0001655499009
 31
0.0
 12
-105.0000339769321
 22
177.0001655499009
 32
0.0
 13
-105.0000339769321
 23
177.0001655499009
 33
0.0
210
0.0
220
0.0
230
-1.0
  0
SOLID
  5
1D8
330
1A3
100
AcDbEntity
  8
LAYER_1
 62
   250
100
AcDbTrace
 10
-105.0000339769321
 20
153.0000642739487
 30
0.0
 11
-105.0000339769321
 21
168.0000199121138
 31
0.0
 12
-108.0000251045652
 22
153.0000642739487
 32
0.0
 13
-108.0000251045652
 23
153.0000642739487
 33
0.0
210
0.0
220
0.0
230
-1.0
  0
SOLID
  5
1D9
330
1A3
100
AcDbEntity
  8
LAYER_1
 62
   250
100
AcDbTrace
 10
-108.0000251045652
 20
153.0000642739487
 30
0.0
 11
-105.0000339769321
 21
168.0000199121138
 31
0.0
 12
-108.0000251045652
 22
168.0000199121138
 32
0.0
 13
-108.0000251045652
 23
168.0000199121138
 33
0.0
210
0.0
220
0.0
230
-1.0
  0
SOLID
  5
1DA
330
1A3
100
AcDbEntity
  8
LAYER_1
 62
   250
100
AcDbTrace
 10
-105.0000339769321
 20
174.0001744222678
 30
0.0
 11
-105.0000339769321
 21
177.0001655499009
 31
0.0
 12
-108.0000251045652
 22
174.0001744222678
 32
0.0
 13
-108.0000251045652
 23
174.0001744222678
 33
0.0
210
0.0
220
0.0
230
-1.0
  0
SOLID
  5
1DB
330
1A3
100
AcDbEntity
  8
LAYER_1
 62
   250
100
AcDbTrace
 10
-108.0000251045652
 20
174.0001744222678
 30
0.0
 11
-105.0000339769321
 21
177.0001655499009
 31
0.0
 12
-108.0000251045652
 22
177.0001655499009
 32
0.0
 13
-108.0000251045652
 23
177.0001655499009
 33
0.0
210
0.0
220
0.0
230
-1.0
  0
SOLID
  5
1DC
330
1A3
100
AcDbEntity
  8
LAYER_1
 62
   250
100
AcDbTrace
 10
-108.0000251045652
 20
159.0000465292147
 30
0.0
 11
-108.0000251045652
 21
165.0000287844808
 31
0.0
 12
-111.0000162321982
 22
159.0000465292147
 32
0.0
 13
-111.0000162321982
 23
159.0000465292147
 33
0.0
210
0.0
220
0.0
230
-1.0
  0
SOLID
  5
1DD
330
1A3
100
AcDbEntity
  8
LAYER_1
 62
   250
100
AcDbTrace
 10
-111.0000162321982
 20
159.0000465292147
 30
0.0
 11
-108.0000251045652
 21
165.0000287844808
 31
0.0
 12
-111.0000162321982
 22
165.0000287844808
 32
0.0
 13
-111.0000162321982
 23
165.0000287844808
 33
0.0
210
0.0
220
0.0
230
-1.0
  0
SOLID
  5
1DE
330
1A3
100
AcDbEntity
  8
LAYER_1
 62
   250
100
AcDbTrace
 10
-111.0000162321982
 20
153.0000642739487
 30
0.0
 11
-111.0000162321982
 21
162.0000376568478
 31
0.0
 12
-114.0000073598313
 22
153.0000642739487
 32
0.0
 13
-114.0000073598313
 23
153.0000642739487
 33
0.0
210
0.0
220
0.0
230
-1.0
  0
SOLID
  5
1DF
330
1A3
100
AcDbEntity
  8
LAYER_1
 62
   250
100
AcDbTrace
 10
-114.0000073598313
 20
153.0000642739487
 30
0.0
 11
-111.0000162321982
 21
162.0000376568478
 31
0.0
 12
-114.0000073598313
 22
162.0000376568478
 32
0.0
 13
-114.0000073598313
 23
162.0000376568478
 33
0.0
210
0.0
220
0.0
230
-1.0
  0
ENDBLK
  5
1E1
330
1A3
100
AcDbEntity
  8
0
100
AcDbBlockEnd
  0
BLOCK
  5
205
330
1E2
100
AcDbEntity
  8
0
100
AcDbBlockBegin
  2
*U3
 70
     1
 71
     0
 10
0.0
 20
0.0
 30
0.0
  3
*U3
  1

  0
SOLID
  5
1E3
330
1E2
100
AcDbEntity
  8
LAYER_1
 62
   250
100
AcDbTrace
 10
-144.0002631459374
 20
160.5002143479192
 30
0.0
 11
-144.0002631459374
 21
163.5002054755522
 31
0.0
 12
-145.500258709754
 22
160.5002143479192
 32
0.0
 13
-145.500258709754
 23
160.5002143479192
 33
0.0
210
0.0
220
0.0
230
-1.0
  0
SOLID
  5
1E4
330
1E2
100
AcDbEntity
  8
LAYER_1
 62
   250
100
AcDbTrace
 10
-145.500258709754
 20
160.5002143479192
 30
0.0
 11
-144.0002631459374
 21
163.5002054755522
 31
0.0
 12
-145.500258709754
 22
163.5002054755522
 32
0.0
 13
-145.500258709754
 23
163.5002054755522
 33
0.0
210
0.0
220
0.0
230
-1.0
  0
SOLID
  5
1E5
330
1E2
100
AcDbEntity
  8
LAYER_1
 62
   250
100
AcDbTrace
 10
-144.0002631459374
 20
166.5001966031852
 30
0.0
 11
-144.0002631459374
 21
172.5001788584513
 31
0.0
 12
-145.500258709754
 22
166.5001966031852
 32
0.0
 13
-145.500258709754
 23
166.5001966031852
 33
0.0
210
0.0
220
0.0
230
-1.0
  0
SOLID
  5
1E6
330
1E2
100
AcDbEntity
  8
LAYER_1
 62
   250
100
AcDbTrace
 10
-145.500258709754
 20
166.5001966031852
 30
0.0
 11
-144.0002631459374
 21
172.5001788584513
 31
0.0
 12
-145.500258709754
 22
172.5001788584513
 32
0.0
 13
-145.500258709754
 23
172.5001788584513
 33
0.0
210
0.0
220
0.0
230
-1.0
  0
SOLID
  5
1E7
330
1E2
100
AcDbEntity
  8
LAYER_1
 62
   250
100
AcDbTrace
 10
-145.500258709754
 20
157.5000509653982
 30
0.0
 11
-145.500258709754
 21
172.5001788584513
 31
0.0
 12
-147.0002542735705
 22
157.5000509653982
 32
0.0
 13
-147.0002542735705
 23
157.5000509653982
 33
0.0
210
0.0
220
0.0
230
-1.0
  0
SOLID
  5
1E8
330
1E2
100
AcDbEntity
  8
LAYER_1
 62
   250
100
AcDbTrace
 10
-147.0002542735705
 20
157.5000509653982
 30
0.0
 11
-145.500258709754
 21
172.5001788584513
 31
0.0
 12
-147.0002542735705
 22
172.5001788584513
 32
0.0
 13
-147.0002542735705
 23
172.5001788584513
 33
0.0
210
0.0
220
0.0
230
-1.0
  0
SOLID
  5
1E9
330
1E2
100
AcDbEntity
  8
LAYER_1
 62
   250
100
AcDbTrace
 10
-147.0002542735705
 20
157.5000509653982
 30
0.0
 11
-147.0002542735705
 21
175.5001699860843
 31
0.0
 12
-148.500249837387
 22
157.5000509653982
 32
0.0
 13
-148.500249837387
 23
157.5000509653982
 33
0.0
210
0.0
220
0.0
230
-1.0
  0
SOLID
  5
1EA
330
1E2
100
AcDbEntity
  8
LAYER_1
 62
   250
100
AcDbTrace
 10
-148.500249837387
 20
157.5000509653982
 30
0.0
 11
-147.0002542735705
 21
175.5001699860843
 31
0.0
 12
-148.500249837387
 22
175.5001699860843
 32
0.0
 13
-148.500249837387
 23
175.5001699860843
 33
0.0
210
0.0
220
0.0
230
-1.0
  0
SOLID
  5
1EB
330
1E2
100
AcDbEntity
  8
LAYER_1
 62
   250
100
AcDbTrace
 10
-148.500249837387
 20
157.5000509653982
 30
0.0
 11
-148.500249837387
 21
160.5002143479192
 31
0.0
 12
-150.0002454012035
 22
157.5000509653982
 32
0.0
 13
-150.0002454012035
 23
157.5000509653982
 33
0.0
210
0.0
220
0.0
230
-1.0
  0
SOLID
  5
1EC
330
1E2
100
AcDbEntity
  8
LAYER_1
 62
   250
100
AcDbTrace
 10
-150.0002454012035
 20
157.5000509653982
 30
0.0
 11
-148.500249837387
 21
160.5002143479192
 31
0.0
 12
-150.0002454012035
 22
160.5002143479192
 32
0.0
 13
-150.0002454012035
 23
160.5002143479192
 33
0.0
210
0.0
220
0.0
230
-1.0
  0
SOLID
  5
1ED
330
1E2
100
AcDbEntity
  8
LAYER_1
 62
   250
100
AcDbTrace
 10
-148.500249837387
 20
163.5002054755522
 30
0.0
 11
-148.500249837387
 21
175.5001699860843
 31
0.0
 12
-150.0002454012035
 22
163.5002054755522
 32
0.0
 13
-150.0002454012035
 23
163.5002054755522
 33
0.0
210
0.0
220
0.0
230
-1.0
  0
SOLID
  5
1EE
330
1E2
100
AcDbEntity
  8
LAYER_1
 62
   250
100
AcDbTrace
 10
-150.0002454012035
 20
163.5002054755522
 30
0.0
 11
-148.500249837387
 21
175.5001699860843
 31
0.0
 12
-150.0002454012035
 22
175.5001699860843
 32
0.0
 13
-150.0002454012035
 23
175.5001699860843
 33
0.0
210
0.0
220
0.0
230
-1.0
  0
SOLID
  5
1EF
330
1E2
100
AcDbEntity
  8
LAYER_1
 62
   250
100
AcDbTrace
 10
150.0002454012035
 20
166.5001966031852
 30
0.0
 11
150.0002454012035
 21
169.5001877308183
 31
0.0
 12
153.0002365288366
 22
166.5001966031852
 32
0.0
 13
153.0002365288366
 23
166.5001966031852
 33
0.0
  0
SOLID
  5
1F0
330
1E2
100
AcDbEntity
  8
LAYER_1
 62
   250
100
AcDbTrace
 10
153.0002365288366
 20
166.5001966031852
 30
0.0
 11
150.0002454012035
 21
169.5001877308183
 31
0.0
 12
153.0002365288366
 22
169.5001877308183
 32
0.0
 13
153.0002365288366
 23
169.5001877308183
 33
0.0
  0
SOLID
  5
1F1
330
1E2
100
AcDbEntity
  8
LAYER_1
 62
   250
100
AcDbTrace
 10
-150.0002454012035
 20
172.5001788584513
 30
0.0
 11
-150.0002454012035
 21
178.5001611137174
 31
0.0
 12
-153.0002365288366
 22
172.5001788584513
 32
0.0
 13
-153.0002365288366
 23
172.5001788584513
 33
0.0
210
0.0
220
0.0
230
-1.0
  0
SOLID
  5
1F2
330
1E2
100
AcDbEntity
  8
LAYER_1
 62
   250
100
AcDbTrace
 10
-153.0002365288366
 20
172.5001788584513
 30
0.0
 11
-150.0002454012035
 21
178.5001611137174
 31
0.0
 12
-153.0002365288366
 22
178.5001611137174
 32
0.0
 13
-153.0002365288366
 23
178.5001611137174
 33
0.0
210
0.0
220
0.0
230
-1.0
  0
SOLID
  5
1F3
330
1E2
100
AcDbEntity
  8
LAYER_1
 62
   250
100
AcDbTrace
 10
-153.0002365288366
 20
163.5002054755522
 30
0.0
 11
-153.0002365288366
 21
181.5001522413504
 31
0.0
 12
-159.0002187841026
 22
163.5002054755522
 32
0.0
 13
-159.0002187841026
 23
163.5002054755522
 33
0.0
210
0.0
220
0.0
230
-1.0
  0
SOLID
  5
1F4
330
1E2
100
AcDbEntity
  8
LAYER_1
 62
   250
100
AcDbTrace
 10
-159.0002187841026
 20
163.5002054755522
 30
0.0
 11
-153.0002365288366
 21
181.5001522413504
 31
0.0
 12
-159.0002187841026
 22
181.5001522413504
 32
0.0
 13
-159.0002187841026
 23
181.5001522413504
 33
0.0
210
0.0
220
0.0
230
-1.0
  0
SOLID
  5
1F5
330
1E2
100
AcDbEntity
  8
LAYER_1
 62
   250
100
AcDbTrace
 10
-159.0002187841026
 20
166.5001966031852
 30
0.0
 11
-159.0002187841026
 21
169.5001877308183
 31
0.0
 12
-162.0002099117357
 22
166.5001966031852
 32
0.0
 13
-162.0002099117357
 23
166.5001966031852
 33
0.0
210
0.0
220
0.0
230
-1.0
  0
SOLID
  5
1F6
330
1E2
100
AcDbEntity
  8
LAYER_1
 62
   250
100
AcDbTrace
 10
-162.0002099117357
 20
166.5001966031852
 30
0.0
 11
-159.0002187841026
 21
169.5001877308183
 31
0.0
 12
-162.0002099117357
 22
169.5001877308183
 32
0.0
 13
-162.0002099117357
 23
169.5001877308183
 33
0.0
210
0.0
220
0.0
230
-1.0
  0
SOLID
  5
1F7
330
1E2
100
AcDbEntity
  8
LAYER_1
 62
   250
100
AcDbTrace
 10
-159.0002187841026
 20
172.5001788584513
 30
0.0
 11
-159.0002187841026
 21
178.5001611137174
 31
0.0
 12
-162.0002099117357
 22
172.5001788584513
 32
0.0
 13
-162.0002099117357
 23
172.5001788584513
 33
0.0
210
0.0
220
0.0
230
-1.0
  0
SOLID
  5
1F8
330
1E2
100
AcDbEntity
  8
LAYER_1
 62
   250
100
AcDbTrace
 10
-162.0002099117357
 20
172.5001788584513
 30
0.0
 11
-159.0002187841026
 21
178.5001611137174
 31
0.0
 12
-162.0002099117357
 22
178.5001611137174
 32
0.0
 13
-162.0002099117357
 23
178.5001611137174
 33
0.0
210
0.0
220
0.0
230
-1.0
  0
SOLID
  5
1F9
330
1E2
100
AcDbEntity
  8
LAYER_1
 62
   250
100
AcDbTrace
 10
-162.0002099117357
 20
157.5000509653982
 30
0.0
 11
-162.0002099117357
 21
160.5002143479192
 31
0.0
 12
-163.5002054755522
 22
157.5000509653982
 32
0.0
 13
-163.5002054755522
 23
157.5000509653982
 33
0.0
210
0.0
220
0.0
230
-1.0
  0
SOLID
  5
1FA
330
1E2
100
AcDbEntity
  8
LAYER_1
 62
   250
100
AcDbTrace
 10
-163.5002054755522
 20
157.5000509653982
 30
0.0
 11
-162.0002099117357
 21
160.5002143479192
 31
0.0
 12
-163.5002054755522
 22
160.5002143479192
 32
0.0
 13
-163.5002054755522
 23
160.5002143479192
 33
0.0
210
0.0
220
0.0
230
-1.0
  0
SOLID
  5
1FB
330
1E2
100
AcDbEntity
  8
LAYER_1
 62
   250
100
AcDbTrace
 10
-162.0002099117357
 20
163.5002054755522
 30
0.0
 11
-162.0002099117357
 21
175.5001699860843
 31
0.0
 12
-163.5002054755522
 22
163.5002054755522
 32
0.0
 13
-163.5002054755522
 23
163.5002054755522
 33
0.0
210
0.0
220
0.0
230
-1.0
  0
SOLID
  5
1FC
330
1E2
100
AcDbEntity
  8
LAYER_1
 62
   250
100
AcDbTrace
 10
-163.5002054755522
 20
163.5002054755522
 30
0.0
 11
-162.0002099117357
 21
175.5001699860843
 31
0.0
 12
-163.5002054755522
 22
175.5001699860843
 32
0.0
 13
-163.5002054755522
 23
175.5001699860843
 33
0.0
210
0.0
220
0.0
230
-1.0
  0
SOLID
  5
1FD
330
1E2
100
AcDbEntity
  8
LAYER_1
 62
   250
100
AcDbTrace
 10
-163.5002054755522
 20
157.5000509653982
 30
0.0
 11
-163.5002054755522
 21
175.5001699860843
 31
0.0
 12
-165.0002010393687
 22
157.5000509653982
 32
0.0
 13
-165.0002010393687
 23
157.5000509653982
 33
0.0
210
0.0
220
0.0
230
-1.0
  0
SOLID
  5
1FE
330
1E2
100
AcDbEntity
  8
LAYER_1
 62
   250
100
AcDbTrace
 10
-165.0002010393687
 20
157.5000509653982
 30
0.0
 11
-163.5002054755522
 21
175.5001699860843
 31
0.0
 12
-165.0002010393687
 22
175.5001699860843
 32
0.0
 13
-165.0002010393687
 23
175.5001699860843
 33
0.0
210
0.0
220
0.0
230
-1.0
  0
SOLID
  5
1FF
330
1E2
100
AcDbEntity
  8
LAYER_1
 62
   250
100
AcDbTrace
 10
-165.0002010393687
 20
157.5000509653982
 30
0.0
 11
-165.0002010393687
 21
172.5001788584513
 31
0.0
 12
-166.5001966031852
 22
157.5000509653982
 32
0.0
 13
-166.5001966031852
 23
157.5000509653982
 33
0.0
210
0.0
220
0.0
230
-1.0
  0
SOLID
  5
200
330
1E2
100
AcDbEntity
  8
LAYER_1
 62
   250
100
AcDbTrace
 10
-166.5001966031852
 20
157.5000509653982
 30
0.0
 11
-165.0002010393687
 21
172.5001788584513
 31
0.0
 12
-166.5001966031852
 22
172.5001788584513
 32
0.0
 13
-166.5001966031852
 23
172.5001788584513
 33
0.0
210
0.0
220
0.0
230
-1.0
  0
SOLID
  5
201
330
1E2
100
AcDbEntity
  8
LAYER_1
 62
   250
100
AcDbTrace
 10
-166.5001966031852
 20
160.5002143479192
 30
0.0
 11
-166.5001966031852
 21
163.5002054755522
 31
0.0
 12
-168.0001921670017
 22
160.5002143479192
 32
0.0
 13
-168.0001921670017
 23
160.5002143479192
 33
0.0
210
0.0
220
0.0
230
-1.0
  0
SOLID
  5
202
330
1E2
100
AcDbEntity
  8
LAYER_1
 62
   250
100
AcDbTrace
 10
-168.0001921670017
 20
160.5002143479192
 30
0.0
 11
-166.5001966031852
 21
163.5002054755522
 31
0.0
 12
-168.0001921670017
 22
163.5002054755522
 32
0.0
 13
-168.0001921670017
 23
163.5002054755522
 33
0.0
210
0.0
220
0.0
230
-1.0
  0
SOLID
  5
203
330
1E2
100
AcDbEntity
  8
LAYER_1
 62
   250
100
AcDbTrace
 10
-166.5001966031852
 20
166.5001966031852
 30
0.0
 11
-166.5001966031852
 21
172.5001788584513
 31
0.0
 12
-168.0001921670017
 22
166.5001966031852
 32
0.0
 13
-168.0001921670017
 23
166.5001966031852
 33
0.0
210
0.0
220
0.0
230
-1.0
  0
SOLID
  5
204
330
1E2
100
AcDbEntity
  8
LAYER_1
 62
   250
100
AcDbTrace
 10
-168.0001921670017
 20
166.5001966031852
 30
0.0
 11
-166.5001966031852
 21
172.5001788584513
 31
0.0
 12
-168.0001921670017
 22
172.5001788584513
 32
0.0
 13
-168.0001921670017
 23
172.5001788584513
 33
0.0
210
0.0
220
0.0
230
-1.0
  0
ENDBLK
  5
206
330
1E2
100
AcDbEntity
  8
0
100
AcDbBlockEnd
  0
BLOCK
  5
241
330
207
100
AcDbEntity
  8
0
100
AcDbBlockBegin
  2
*U4
 70
     1
 71
     0
 10
0.0
 20
0.0
 30
0.0
  3
*U4
  1

  0
SOLID
  5
208
330
207
100
AcDbEntity
  8
LAYER_1
 62
   250
100
AcDbTrace
 10
-88.50008277495043
 20
106.5000295407487
 30
0.0
 11
-88.50008277495043
 21
109.5003651781575
 31
0.0
 12
-91.50007390258347
 22
106.5000295407487
 32
0.0
 13
-91.50007390258347
 23
106.5000295407487
 33
0.0
210
0.0
220
0.0
230
-1.0
  0
SOLID
  5
209
330
207
100
AcDbEntity
  8
LAYER_1
 62
   250
100
AcDbTrace
 10
-91.50007390258347
 20
106.5000295407487
 30
0.0
 11
-88.50008277495043
 21
109.5003651781575
 31
0.0
 12
-91.50007390258347
 22
109.5003651781575
 32
0.0
 13
-91.50007390258347
 23
109.5003651781575
 33
0.0
210
0.0
220
0.0
230
-1.0
  0
SOLID
  5
20A
330
207
100
AcDbEntity
  8
LAYER_1
 62
   250
100
AcDbTrace
 10
-88.50008277495043
 20
115.5003474334236
 30
0.0
 11
-88.50008277495043
 21
124.5003208163227
 31
0.0
 12
-91.50007390258347
 22
115.5003474334236
 32
0.0
 13
-91.50007390258347
 23
115.5003474334236
 33
0.0
210
0.0
220
0.0
230
-1.0
  0
SOLID
  5
20B
330
207
100
AcDbEntity
  8
LAYER_1
 62
   250
100
AcDbTrace
 10
-91.50007390258347
 20
115.5003474334236
 30
0.0
 11
-88.50008277495043
 21
124.5003208163227
 31
0.0
 12
-91.50007390258347
 22
124.5003208163227
 32
0.0
 13
-91.50007390258347
 23
124.5003208163227
 33
0.0
210
0.0
220
0.0
230
-1.0
  0
SOLID
  5
20C
330
207
100
AcDbEntity
  8
LAYER_1
 62
   250
100
AcDbTrace
 10
-91.50007390258347
 20
106.5000295407487
 30
0.0
 11
-91.50007390258347
 21
109.5003651781575
 31
0.0
 12
-93.00006946639998
 22
106.5000295407487
 32
0.0
 13
-93.00006946639998
 23
106.5000295407487
 33
0.0
210
0.0
220
0.0
230
-1.0
  0
SOLID
  5
20D
330
207
100
AcDbEntity
  8
LAYER_1
 62
   250
100
AcDbTrace
 10
-93.00006946639998
 20
106.5000295407487
 30
0.0
 11
-91.50007390258347
 21
109.5003651781575
 31
0.0
 12
-93.00006946639998
 22
109.5003651781575
 32
0.0
 13
-93.00006946639998
 23
109.5003651781575
 33
0.0
210
0.0
220
0.0
230
-1.0
  0
SOLID
  5
20E
330
207
100
AcDbEntity
  8
LAYER_1
 62
   250
100
AcDbTrace
 10
-91.50007390258347
 20
115.5003474334236
 30
0.0
 11
-91.50007390258347
 21
127.5003119439557
 31
0.0
 12
-93.00006946639998
 22
115.5003474334236
 32
0.0
 13
-93.00006946639998
 23
115.5003474334236
 33
0.0
210
0.0
220
0.0
230
-1.0
  0
SOLID
  5
20F
330
207
100
AcDbEntity
  8
LAYER_1
 62
   250
100
AcDbTrace
 10
-93.00006946639998
 20
115.5003474334236
 30
0.0
 11
-91.50007390258347
 21
127.5003119439557
 31
0.0
 12
-93.00006946639998
 22
127.5003119439557
 32
0.0
 13
-93.00006946639998
 23
127.5003119439557
 33
0.0
210
0.0
220
0.0
230
-1.0
  0
SOLID
  5
210
330
207
100
AcDbEntity
  8
LAYER_1
 62
   250
100
AcDbTrace
 10
-93.00006946639998
 20
106.5000295407487
 30
0.0
 11
-93.00006946639998
 21
112.5003563057905
 31
0.0
 12
-96.00006059403302
 22
106.5000295407487
 32
0.0
 13
-96.00006059403302
 23
106.5000295407487
 33
0.0
210
0.0
220
0.0
230
-1.0
  0
SOLID
  5
211
330
207
100
AcDbEntity
  8
LAYER_1
 62
   250
100
AcDbTrace
 10
-96.00006059403302
 20
106.5000295407487
 30
0.0
 11
-93.00006946639998
 21
112.5003563057905
 31
0.0
 12
-96.00006059403302
 22
112.5003563057905
 32
0.0
 13
-96.00006059403302
 23
112.5003563057905
 33
0.0
210
0.0
220
0.0
230
-1.0
  0
SOLID
  5
212
330
207
100
AcDbEntity
  8
LAYER_1
 62
   250
100
AcDbTrace
 10
-93.00006946639998
 20
115.5003474334236
 30
0.0
 11
-93.00006946639998
 21
127.5003119439557
 31
0.0
 12
-96.00006059403302
 22
115.5003474334236
 32
0.0
 13
-96.00006059403302
 23
115.5003474334236
 33
0.0
210
0.0
220
0.0
230
-1.0
  0
SOLID
  5
213
330
207
100
AcDbEntity
  8
LAYER_1
 62
   250
100
AcDbTrace
 10
-96.00006059403302
 20
115.5003474334236
 30
0.0
 11
-93.00006946639998
 21
127.5003119439557
 31
0.0
 12
-96.00006059403302
 22
127.5003119439557
 32
0.0
 13
-96.00006059403302
 23
127.5003119439557
 33
0.0
210
0.0
220
0.0
230
-1.0
  0
SOLID
  5
214
330
207
100
AcDbEntity
  8
LAYER_1
 62
   250
100
AcDbTrace
 10
-96.00006059403302
 20
109.5003651781575
 30
0.0
 11
-96.00006059403302
 21
127.5003119439557
 31
0.0
 12
-97.50005615784954
 22
109.5003651781575
 32
0.0
 13
-97.50005615784954
 23
109.5003651781575
 33
0.0
210
0.0
220
0.0
230
-1.0
  0
SOLID
  5
215
330
207
100
AcDbEntity
  8
LAYER_1
 62
   250
100
AcDbTrace
 10
-97.50005615784954
 20
109.5003651781575
 30
0.0
 11
-96.00006059403302
 21
127.5003119439557
 31
0.0
 12
-97.50005615784954
 22
127.5003119439557
 32
0.0
 13
-97.50005615784954
 23
127.5003119439557
 33
0.0
210
0.0
220
0.0
230
-1.0
  0
SOLID
  5
216
330
207
100
AcDbEntity
  8
LAYER_1
 62
   250
100
AcDbTrace
 10
-97.50005615784954
 20
109.5003651781575
 30
0.0
 11
-97.50005615784954
 21
118.5003385610566
 31
0.0
 12
-99.00005172166605
 22
109.5003651781575
 32
0.0
 13
-99.00005172166605
 23
109.5003651781575
 33
0.0
210
0.0
220
0.0
230
-1.0
  0
SOLID
  5
217
330
207
100
AcDbEntity
  8
LAYER_1
 62
   250
100
AcDbTrace
 10
-99.00005172166605
 20
109.5003651781575
 30
0.0
 11
-97.50005615784954
 21
118.5003385610566
 31
0.0
 12
-99.00005172166605
 22
118.5003385610566
 32
0.0
 13
-99.00005172166605
 23
118.5003385610566
 33
0.0
210
0.0
220
0.0
230
-1.0
  0
SOLID
  5
218
330
207
100
AcDbEntity
  8
LAYER_1
 62
   250
100
AcDbTrace
 10
-97.50005615784954
 20
121.5003296886896
 30
0.0
 11
-97.50005615784954
 21
130.5003030715887
 31
0.0
 12
-99.00005172166605
 22
121.5003296886896
 32
0.0
 13
-99.00005172166605
 23
121.5003296886896
 33
0.0
210
0.0
220
0.0
230
-1.0
  0
SOLID
  5
219
330
207
100
AcDbEntity
  8
LAYER_1
 62
   250
100
AcDbTrace
 10
-99.00005172166605
 20
121.5003296886896
 30
0.0
 11
-97.50005615784954
 21
130.5003030715887
 31
0.0
 12
-99.00005172166605
 22
130.5003030715887
 32
0.0
 13
-99.00005172166605
 23
130.5003030715887
 33
0.0
210
0.0
220
0.0
230
-1.0
  0
SOLID
  5
21A
330
207
100
AcDbEntity
  8
LAYER_1
 62
   250
100
AcDbTrace
 10
-99.00005172166605
 20
112.5003563057905
 30
0.0
 11
-99.00005172166605
 21
118.5003385610566
 31
0.0
 12
-102.0000428492991
 22
112.5003563057905
 32
0.0
 13
-102.0000428492991
 23
112.5003563057905
 33
0.0
210
0.0
220
0.0
230
-1.0
  0
SOLID
  5
21B
330
207
100
AcDbEntity
  8
LAYER_1
 62
   250
100
AcDbTrace
 10
-102.0000428492991
 20
112.5003563057905
 30
0.0
 11
-99.00005172166605
 21
118.5003385610566
 31
0.0
 12
-102.0000428492991
 22
118.5003385610566
 32
0.0
 13
-102.0000428492991
 23
118.5003385610566
 33
0.0
210
0.0
220
0.0
230
-1.0
  0
SOLID
  5
21C
330
207
100
AcDbEntity
  8
LAYER_1
 62
   250
100
AcDbTrace
 10
-99.00005172166605
 20
121.5003296886896
 30
0.0
 11
-99.00005172166605
 21
130.5003030715887
 31
0.0
 12
-102.0000428492991
 22
121.5003296886896
 32
0.0
 13
-102.0000428492991
 23
121.5003296886896
 33
0.0
210
0.0
220
0.0
230
-1.0
  0
SOLID
  5
21D
330
207
100
AcDbEntity
  8
LAYER_1
 62
   250
100
AcDbTrace
 10
-102.0000428492991
 20
121.5003296886896
 30
0.0
 11
-99.00005172166605
 21
130.5003030715887
 31
0.0
 12
-102.0000428492991
 22
130.5003030715887
 32
0.0
 13
-102.0000428492991
 23
130.5003030715887
 33
0.0
210
0.0
220
0.0
230
-1.0
  0
SOLID
  5
21E
330
207
100
AcDbEntity
  8
LAYER_1
 62
   250
100
AcDbTrace
 10
-102.0000428492991
 20
109.5003651781575
 30
0.0
 11
-102.0000428492991
 21
130.5003030715887
 31
0.0
 12
-103.5000384131156
 22
109.5003651781575
 32
0.0
 13
-103.5000384131156
 23
109.5003651781575
 33
0.0
210
0.0
220
0.0
230
-1.0
  0
SOLID
  5
21F
330
207
100
AcDbEntity
  8
LAYER_1
 62
   250
100
AcDbTrace
 10
-103.5000384131156
 20
109.5003651781575
 30
0.0
 11
-102.0000428492991
 21
130.5003030715887
 31
0.0
 12
-103.5000384131156
 22
130.5003030715887
 32
0.0
 13
-103.5000384131156
 23
130.5003030715887
 33
0.0
210
0.0
220
0.0
230
-1.0
  0
SOLID
  5
220
330
207
100
AcDbEntity
  8
LAYER_1
 62
   250
100
AcDbTrace
 10
-103.5000384131156
 20
109.5003651781575
 30
0.0
 11
-103.5000384131156
 21
130.5003030715887
 31
0.0
 12
-108.0000251045652
 22
109.5003651781575
 32
0.0
 13
-108.0000251045652
 23
109.5003651781575
 33
0.0
210
0.0
220
0.0
230
-1.0
  0
SOLID
  5
221
330
207
100
AcDbEntity
  8
LAYER_1
 62
   250
100
AcDbTrace
 10
-108.0000251045652
 20
109.5003651781575
 30
0.0
 11
-103.5000384131156
 21
130.5003030715887
 31
0.0
 12
-108.0000251045652
 22
130.5003030715887
 32
0.0
 13
-108.0000251045652
 23
130.5003030715887
 33
0.0
210
0.0
220
0.0
230
-1.0
  0
SOLID
  5
222
330
207
100
AcDbEntity
  8
LAYER_1
 62
   250
100
AcDbTrace
 10
-108.0000251045652
 20
109.5003651781575
 30
0.0
 11
-108.0000251045652
 21
112.5003563057905
 31
0.0
 12
-108.000369614341
 22
109.5003651781575
 32
0.0
 13
-108.000369614341
 23
109.5003651781575
 33
0.0
210
0.0
220
0.0
230
-1.0
  0
SOLID
  5
223
330
207
100
AcDbEntity
  8
LAYER_1
 62
   250
100
AcDbTrace
 10
-108.0000251045652
 20
112.5003563057905
 30
0.0
 11
-108.0000251045652
 21
118.5003385610566
 31
0.0
 12
-108.000369614341
 22
112.5003563057905
 32
0.0
 13
-108.000369614341
 23
112.5003563057905
 33
0.0
210
0.0
220
0.0
230
-1.0
  0
SOLID
  5
224
330
207
100
AcDbEntity
  8
LAYER_1
 62
   250
100
AcDbTrace
 10
-108.000369614341
 20
112.5003563057905
 30
0.0
 11
-108.0000251045652
 21
118.5003385610566
 31
0.0
 12
-108.000369614341
 22
118.5003385610566
 32
0.0
 13
-108.000369614341
 23
118.5003385610566
 33
0.0
210
0.0
220
0.0
230
-1.0
  0
SOLID
  5
225
330
207
100
AcDbEntity
  8
LAYER_1
 62
   250
100
AcDbTrace
 10
-108.0000251045652
 20
121.5003296886896
 30
0.0
 11
-108.0000251045652
 21
130.5003030715887
 31
0.0
 12
-108.000369614341
 22
121.5003296886896
 32
0.0
 13
-108.000369614341
 23
121.5003296886896
 33
0.0
210
0.0
220
0.0
230
-1.0
  0
SOLID
  5
226
330
207
100
AcDbEntity
  8
LAYER_1
 62
   250
100
AcDbTrace
 10
-108.000369614341
 20
121.5003296886896
 30
0.0
 11
-108.0000251045652
 21
130.5003030715887
 31
0.0
 12
-108.000369614341
 22
130.5003030715887
 32
0.0
 13
-108.000369614341
 23
130.5003030715887
 33
0.0
210
0.0
220
0.0
230
-1.0
  0
SOLID
  5
227
330
207
100
AcDbEntity
  8
LAYER_1
 62
   250
100
AcDbTrace
 10
-108.000369614341
 20
112.5003563057905
 30
0.0
 11
-108.000369614341
 21
118.5003385610566
 31
0.0
 12
-111.000360741974
 22
112.5003563057905
 32
0.0
 13
-111.000360741974
 23
112.5003563057905
 33
0.0
210
0.0
220
0.0
230
-1.0
  0
SOLID
  5
228
330
207
100
AcDbEntity
  8
LAYER_1
 62
   250
100
AcDbTrace
 10
-111.000360741974
 20
112.5003563057905
 30
0.0
 11
-108.000369614341
 21
118.5003385610566
 31
0.0
 12
-111.000360741974
 22
118.5003385610566
 32
0.0
 13
-111.000360741974
 23
118.5003385610566
 33
0.0
210
0.0
220
0.0
230
-1.0
  0
SOLID
  5
229
330
207
100
AcDbEntity
  8
LAYER_1
 62
   250
100
AcDbTrace
 10
-108.000369614341
 20
121.5003296886896
 30
0.0
 11
-108.000369614341
 21
130.5003030715887
 31
0.0
 12
-111.000360741974
 22
121.5003296886896
 32
0.0
 13
-111.000360741974
 23
121.5003296886896
 33
0.0
210
0.0
220
0.0
230
-1.0
  0
SOLID
  5
22A
330
207
100
AcDbEntity
  8
LAYER_1
 62
   250
100
AcDbTrace
 10
-111.000360741974
 20
121.5003296886896
 30
0.0
 11
-108.000369614341
 21
130.5003030715887
 31
0.0
 12
-111.000360741974
 22
130.5003030715887
 32
0.0
 13
-111.000360741974
 23
130.5003030715887
 33
0.0
210
0.0
220
0.0
230
-1.0
  0
SOLID
  5
22B
330
207
100
AcDbEntity
  8
LAYER_1
 62
   250
100
AcDbTrace
 10
-111.000360741974
 20
109.5003651781575
 30
0.0
 11
-111.000360741974
 21
118.5003385610566
 31
0.0
 12
-112.5000117960147
 22
109.5003651781575
 32
0.0
 13
-112.5000117960147
 23
109.5003651781575
 33
0.0
210
0.0
220
0.0
230
-1.0
  0
SOLID
  5
22C
330
207
100
AcDbEntity
  8
LAYER_1
 62
   250
100
AcDbTrace
 10
-112.5000117960147
 20
109.5003651781575
 30
0.0
 11
-111.000360741974
 21
118.5003385610566
 31
0.0
 12
-112.5000117960147
 22
118.5003385610566
 32
0.0
 13
-112.5000117960147
 23
118.5003385610566
 33
0.0
210
0.0
220
0.0
230
-1.0
  0
SOLID
  5
22D
330
207
100
AcDbEntity
  8
LAYER_1
 62
   250
100
AcDbTrace
 10
-111.000360741974
 20
121.5003296886896
 30
0.0
 11
-111.000360741974
 21
130.5003030715887
 31
0.0
 12
-112.5000117960147
 22
121.5003296886896
 32
0.0
 13
-112.5000117960147
 23
121.5003296886896
 33
0.0
210
0.0
220
0.0
230
-1.0
  0
SOLID
  5
22E
330
207
100
AcDbEntity
  8
LAYER_1
 62
   250
100
AcDbTrace
 10
-112.5000117960147
 20
121.5003296886896
 30
0.0
 11
-111.000360741974
 21
130.5003030715887
 31
0.0
 12
-112.5000117960147
 22
130.5003030715887
 32
0.0
 13
-112.5000117960147
 23
130.5003030715887
 33
0.0
210
0.0
220
0.0
230
-1.0
  0
SOLID
  5
22F
330
207
100
AcDbEntity
  8
LAYER_1
 62
   250
100
AcDbTrace
 10
-112.5000117960147
 20
109.5003651781575
 30
0.0
 11
-112.5000117960147
 21
127.5003119439557
 31
0.0
 12
-114.0000073598313
 22
109.5003651781575
 32
0.0
 13
-114.0000073598313
 23
109.5003651781575
 33
0.0
210
0.0
220
0.0
230
-1.0
  0
SOLID
  5
230
330
207
100
AcDbEntity
  8
LAYER_1
 62
   250
100
AcDbTrace
 10
-114.0000073598313
 20
109.5003651781575
 30
0.0
 11
-112.5000117960147
 21
127.5003119439557
 31
0.0
 12
-114.0000073598313
 22
127.5003119439557
 32
0.0
 13
-114.0000073598313
 23
127.5003119439557
 33
0.0
210
0.0
220
0.0
230
-1.0
  0
SOLID
  5
231
330
207
100
AcDbEntity
  8
LAYER_1
 62
   250
100
AcDbTrace
 10
-114.0000073598313
 20
106.5000295407487
 30
0.0
 11
-114.0000073598313
 21
127.5003119439557
 31
0.0
 12
-114.000351869607
 22
106.5000295407487
 32
0.0
 13
-114.000351869607
 23
106.5000295407487
 33
0.0
210
0.0
220
0.0
230
-1.0
  0
SOLID
  5
232
330
207
100
AcDbEntity
  8
LAYER_1
 62
   250
100
AcDbTrace
 10
-114.000351869607
 20
106.5000295407487
 30
0.0
 11
-114.0000073598313
 21
127.5003119439557
 31
0.0
 12
-114.000351869607
 22
127.5003119439557
 32
0.0
 13
-114.000351869607
 23
127.5003119439557
 33
0.0
210
0.0
220
0.0
230
-1.0
  0
SOLID
  5
233
330
207
100
AcDbEntity
  8
LAYER_1
 62
   250
100
AcDbTrace
 10
-114.000351869607
 20
106.5000295407487
 30
0.0
 11
-114.000351869607
 21
112.5003563057905
 31
0.0
 12
-117.0003429972401
 22
106.5000295407487
 32
0.0
 13
-117.0003429972401
 23
106.5000295407487
 33
0.0
210
0.0
220
0.0
230
-1.0
  0
SOLID
  5
234
330
207
100
AcDbEntity
  8
LAYER_1
 62
   250
100
AcDbTrace
 10
-117.0003429972401
 20
106.5000295407487
 30
0.0
 11
-114.000351869607
 21
112.5003563057905
 31
0.0
 12
-117.0003429972401
 22
112.5003563057905
 32
0.0
 13
-117.0003429972401
 23
112.5003563057905
 33
0.0
210
0.0
220
0.0
230
-1.0
  0
SOLID
  5
235
330
207
100
AcDbEntity
  8
LAYER_1
 62
   250
100
AcDbTrace
 10
-114.000351869607
 20
115.5003474334236
 30
0.0
 11
-114.000351869607
 21
127.5003119439557
 31
0.0
 12
-117.0003429972401
 22
115.5003474334236
 32
0.0
 13
-117.0003429972401
 23
115.5003474334236
 33
0.0
210
0.0
220
0.0
230
-1.0
  0
SOLID
  5
236
330
207
100
AcDbEntity
  8
LAYER_1
 62
   250
100
AcDbTrace
 10
-117.0003429972401
 20
115.5003474334236
 30
0.0
 11
-114.000351869607
 21
127.5003119439557
 31
0.0
 12
-117.0003429972401
 22
127.5003119439557
 32
0.0
 13
-117.0003429972401
 23
127.5003119439557
 33
0.0
210
0.0
220
0.0
230
-1.0
  0
SOLID
  5
237
330
207
100
AcDbEntity
  8
LAYER_1
 62
   250
100
AcDbTrace
 10
-117.0003429972401
 20
106.5000295407487
 30
0.0
 11
-117.0003429972401
 21
109.5003651781575
 31
0.0
 12
-118.4999940512808
 22
106.5000295407487
 32
0.0
 13
-118.4999940512808
 23
106.5000295407487
 33
0.0
210
0.0
220
0.0
230
-1.0
  0
SOLID
  5
238
330
207
100
AcDbEntity
  8
LAYER_1
 62
   250
100
AcDbTrace
 10
-118.4999940512808
 20
106.5000295407487
 30
0.0
 11
-117.0003429972401
 21
109.5003651781575
 31
0.0
 12
-118.4999940512808
 22
109.5003651781575
 32
0.0
 13
-118.4999940512808
 23
109.5003651781575
 33
0.0
210
0.0
220
0.0
230
-1.0
  0
SOLID
  5
239
330
207
100
AcDbEntity
  8
LAYER_1
 62
   250
100
AcDbTrace
 10
-117.0003429972401
 20
115.5003474334236
 30
0.0
 11
-117.0003429972401
 21
127.5003119439557
 31
0.0
 12
-118.4999940512808
 22
115.5003474334236
 32
0.0
 13
-118.4999940512808
 23
115.5003474334236
 33
0.0
210
0.0
220
0.0
230
-1.0
  0
SOLID
  5
23A
330
207
100
AcDbEntity
  8
LAYER_1
 62
   250
100
AcDbTrace
 10
-118.4999940512808
 20
115.5003474334236
 30
0.0
 11
-117.0003429972401
 21
127.5003119439557
 31
0.0
 12
-118.4999940512808
 22
127.5003119439557
 32
0.0
 13
-118.4999940512808
 23
127.5003119439557
 33
0.0
210
0.0
220
0.0
230
-1.0
  0
SOLID
  5
23B
330
207
100
AcDbEntity
  8
LAYER_1
 62
   250
100
AcDbTrace
 10
-118.4999940512808
 20
106.5000295407487
 30
0.0
 11
-118.4999940512808
 21
109.5003651781575
 31
0.0
 12
-121.4999851789138
 22
106.5000295407487
 32
0.0
 13
-121.4999851789138
 23
106.5000295407487
 33
0.0
210
0.0
220
0.0
230
-1.0
  0
SOLID
  5
23C
330
207
100
AcDbEntity
  8
LAYER_1
 62
   250
100
AcDbTrace
 10
-121.4999851789138
 20
106.5000295407487
 30
0.0
 11
-118.4999940512808
 21
109.5003651781575
 31
0.0
 12
-121.4999851789138
 22
109.5003651781575
 32
0.0
 13
-121.4999851789138
 23
109.5003651781575
 33
0.0
210
0.0
220
0.0
230
-1.0
  0
SOLID
  5
23D
330
207
100
AcDbEntity
  8
LAYER_1
 62
   250
100
AcDbTrace
 10
-118.4999940512808
 20
115.5003474334236
 30
0.0
 11
-118.4999940512808
 21
124.5003208163227
 31
0.0
 12
-121.4999851789138
 22
115.5003474334236
 32
0.0
 13
-121.4999851789138
 23
115.5003474334236
 33
0.0
210
0.0
220
0.0
230
-1.0
  0
SOLID
  5
23E
330
207
100
AcDbEntity
  8
LAYER_1
 62
   250
100
AcDbTrace
 10
-121.4999851789138
 20
115.5003474334236
 30
0.0
 11
-118.4999940512808
 21
124.5003208163227
 31
0.0
 12
-121.4999851789138
 22
124.5003208163227
 32
0.0
 13
-121.4999851789138
 23
124.5003208163227
 33
0.0
210
0.0
220
0.0
230
-1.0
  0
SOLID
  5
23F
330
207
100
AcDbEntity
  8
LAYER_1
 62
   250
100
AcDbTrace
 10
-121.4999851789138
 20
106.5000295407487
 30
0.0
 11
-121.4999851789138
 21
109.5003651781575
 31
0.0
 12
-121.5003296886896
 22
106.5000295407487
 32
0.0
 13
-121.5003296886896
 23
106.5000295407487
 33
0.0
210
0.0
220
0.0
230
-1.0
  0
SOLID
  5
240
330
207
100
AcDbEntity
  8
LAYER_1
 62
   250
100
AcDbTrace
 10
-121.5003296886896
 20
106.5000295407487
 30
0.0
 11
-121.4999851789138
 21
109.5003651781575
 31
0.0
 12
-121.5003296886896
 22
109.5003651781575
 32
0.0
 13
-121.5003296886896
 23
109.5003651781575
 33
0.0
210
0.0
220
0.0
230
-1.0
  0
ENDBLK
  5
242
330
207
100
AcDbEntity
  8
0
100
AcDbBlockEnd
  0
BLOCK
  5
26A
330
243
100
AcDbEntity
  8
0
100
AcDbBlockBegin
  2
*U5
 70
     1
 71
     0
 10
0.0
 20
0.0
 30
0.0
  3
*U5
  1

  0
SOLID
  5
244
330
243
100
AcDbEntity
  8
LAYER_1
 62
   250
100
AcDbTrace
 10
-58.50017149862004
 20
63.0001581900696
 30
0.0
 11
-58.50017149862004
 21
66.00014931770264
 31
0.0
 12
-61.50016262625308
 22
63.0001581900696
 32
0.0
 13
-61.50016262625308
 23
63.0001581900696
 33
0.0
210
0.0
220
0.0
230
-1.0
  0
SOLID
  5
245
330
243
100
AcDbEntity
  8
LAYER_1
 62
   250
100
AcDbTrace
 10
-61.50016262625308
 20
63.0001581900696
 30
0.0
 11
-58.50017149862004
 21
66.00014931770264
 31
0.0
 12
-61.50016262625308
 22
66.00014931770264
 32
0.0
 13
-61.50016262625308
 23
66.00014931770264
 33
0.0
210
0.0
220
0.0
230
-1.0
  0
SOLID
  5
246
330
243
100
AcDbEntity
  8
LAYER_1
 62
   250
100
AcDbTrace
 10
-61.50016262625308
 20
63.0001581900696
 30
0.0
 11
-61.50016262625308
 21
69.00014044533567
 31
0.0
 12
-64.50015375388612
 22
63.0001581900696
 32
0.0
 13
-64.50015375388612
 23
63.0001581900696
 33
0.0
210
0.0
220
0.0
230
-1.0
  0
SOLID
  5
247
330
243
100
AcDbEntity
  8
LAYER_1
 62
   250
100
AcDbTrace
 10
-64.50015375388612
 20
63.0001581900696
 30
0.0
 11
-61.50016262625308
 21
69.00014044533567
 31
0.0
 12
-64.50015375388612
 22
69.00014044533567
 32
0.0
 13
-64.50015375388612
 23
69.00014044533567
 33
0.0
210
0.0
220
0.0
230
-1.0
  0
SOLID
  5
248
330
243
100
AcDbEntity
  8
LAYER_1
 62
   250
100
AcDbTrace
 10
-64.50015375388612
 20
60.00016706243656
 30
0.0
 11
-64.50015375388612
 21
72.00013157296871
 31
0.0
 12
-67.50014488151916
 22
60.00016706243656
 32
0.0
 13
-67.50014488151916
 23
60.00016706243656
 33
0.0
210
0.0
220
0.0
230
-1.0
  0
SOLID
  5
249
330
243
100
AcDbEntity
  8
LAYER_1
 62
   250
100
AcDbTrace
 10
-67.50014488151916
 20
60.00016706243656
 30
0.0
 11
-64.50015375388612
 21
72.00013157296871
 31
0.0
 12
-67.50014488151916
 22
72.00013157296871
 32
0.0
 13
-67.50014488151916
 23
72.00013157296871
 33
0.0
210
0.0
220
0.0
230
-1.0
  0
SOLID
  5
24A
330
243
100
AcDbEntity
  8
LAYER_1
 62
   250
100
AcDbTrace
 10
-67.50014488151916
 20
56.99983142502773
 30
0.0
 11
-67.50014488151916
 21
66.00014931770264
 31
0.0
 12
-70.5001360091522
 22
56.99983142502773
 32
0.0
 13
-70.5001360091522
 23
56.99983142502773
 33
0.0
210
0.0
220
0.0
230
-1.0
  0
SOLID
  5
24B
330
243
100
AcDbEntity
  8
LAYER_1
 62
   250
100
AcDbTrace
 10
-70.5001360091522
 20
56.99983142502773
 30
0.0
 11
-67.50014488151916
 21
66.00014931770264
 31
0.0
 12
-70.5001360091522
 22
66.00014931770264
 32
0.0
 13
-70.5001360091522
 23
66.00014931770264
 33
0.0
210
0.0
220
0.0
230
-1.0
  0
SOLID
  5
24C
330
243
100
AcDbEntity
  8
LAYER_1
 62
   250
100
AcDbTrace
 10
-67.50014488151916
 20
69.00014044533567
 30
0.0
 11
-67.50014488151916
 21
75.00012270060175
 31
0.0
 12
-70.5001360091522
 22
69.00014044533567
 32
0.0
 13
-70.5001360091522
 23
69.00014044533567
 33
0.0
210
0.0
220
0.0
230
-1.0
  0
SOLID
  5
24D
330
243
100
AcDbEntity
  8
LAYER_1
 62
   250
100
AcDbTrace
 10
-70.5001360091522
 20
69.00014044533567
 30
0.0
 11
-67.50014488151916
 21
75.00012270060175
 31
0.0
 12
-70.5001360091522
 22
75.00012270060175
 32
0.0
 13
-70.5001360091522
 23
75.00012270060175
 33
0.0
210
0.0
220
0.0
230
-1.0
  0
SOLID
  5
24E
330
243
100
AcDbEntity
  8
LAYER_1
 62
   250
100
AcDbTrace
 10
-70.5001360091522
 20
60.00016706243656
 30
0.0
 11
-70.5001360091522
 21
75.00012270060175
 31
0.0
 12
-73.50012713678524
 22
60.00016706243656
 32
0.0
 13
-73.50012713678524
 23
60.00016706243656
 33
0.0
210
0.0
220
0.0
230
-1.0
  0
SOLID
  5
24F
330
243
100
AcDbEntity
  8
LAYER_1
 62
   250
100
AcDbTrace
 10
-73.50012713678524
 20
60.00016706243656
 30
0.0
 11
-70.5001360091522
 21
75.00012270060175
 31
0.0
 12
-73.50012713678524
 22
75.00012270060175
 32
0.0
 13
-73.50012713678524
 23
75.00012270060175
 33
0.0
210
0.0
220
0.0
230
-1.0
  0
SOLID
  5
250
330
243
100
AcDbEntity
  8
LAYER_1
 62
   250
100
AcDbTrace
 10
-73.50012713678524
 20
63.0001581900696
 30
0.0
 11
-73.50012713678524
 21
78.00011382823479
 31
0.0
 12
-76.50011826441828
 22
63.0001581900696
 32
0.0
 13
-76.50011826441828
 23
63.0001581900696
 33
0.0
210
0.0
220
0.0
230
-1.0
  0
SOLID
  5
251
330
243
100
AcDbEntity
  8
LAYER_1
 62
   250
100
AcDbTrace
 10
-76.50011826441828
 20
63.0001581900696
 30
0.0
 11
-73.50012713678524
 21
78.00011382823479
 31
0.0
 12
-76.50011826441828
 22
78.00011382823479
 32
0.0
 13
-76.50011826441828
 23
78.00011382823479
 33
0.0
210
0.0
220
0.0
230
-1.0
  0
SOLID
  5
252
330
243
100
AcDbEntity
  8
LAYER_1
 62
   250
100
AcDbTrace
 10
-76.50011826441828
 20
63.0001581900696
 30
0.0
 11
-76.50011826441828
 21
66.00014931770264
 31
0.0
 12
-79.50010939205131
 22
63.0001581900696
 32
0.0
 13
-79.50010939205131
 23
63.0001581900696
 33
0.0
210
0.0
220
0.0
230
-1.0
  0
SOLID
  5
253
330
243
100
AcDbEntity
  8
LAYER_1
 62
   250
100
AcDbTrace
 10
-79.50010939205131
 20
63.0001581900696
 30
0.0
 11
-76.50011826441828
 21
66.00014931770264
 31
0.0
 12
-79.50010939205131
 22
66.00014931770264
 32
0.0
 13
-79.50010939205131
 23
66.00014931770264
 33
0.0
210
0.0
220
0.0
230
-1.0
  0
SOLID
  5
254
330
243
100
AcDbEntity
  8
LAYER_1
 62
   250
100
AcDbTrace
 10
-76.50011826441828
 20
69.00014044533567
 30
0.0
 11
-76.50011826441828
 21
78.00011382823479
 31
0.0
 12
-79.50010939205131
 22
69.00014044533567
 32
0.0
 13
-79.50010939205131
 23
69.00014044533567
 33
0.0
210
0.0
220
0.0
230
-1.0
  0
SOLID
  5
255
330
243
100
AcDbEntity
  8
LAYER_1
 62
   250
100
AcDbTrace
 10
-79.50010939205131
 20
69.00014044533567
 30
0.0
 11
-76.50011826441828
 21
78.00011382823479
 31
0.0
 12
-79.50010939205131
 22
78.00011382823479
 32
0.0
 13
-79.50010939205131
 23
78.00011382823479
 33
0.0
210
0.0
220
0.0
230
-1.0
  0
SOLID
  5
256
330
243
100
AcDbEntity
  8
LAYER_1
 62
   250
100
AcDbTrace
 10
-79.50010939205131
 20
60.00016706243656
 30
0.0
 11
-79.50010939205131
 21
78.00011382823479
 31
0.0
 12
-85.50009164731739
 22
60.00016706243656
 32
0.0
 13
-85.50009164731739
 23
60.00016706243656
 33
0.0
210
0.0
220
0.0
230
-1.0
  0
SOLID
  5
257
330
243
100
AcDbEntity
  8
LAYER_1
 62
   250
100
AcDbTrace
 10
-85.50009164731739
 20
60.00016706243656
 30
0.0
 11
-79.50010939205131
 21
78.00011382823479
 31
0.0
 12
-85.50009164731739
 22
78.00011382823479
 32
0.0
 13
-85.50009164731739
 23
78.00011382823479
 33
0.0
210
0.0
220
0.0
230
-1.0
  0
SOLID
  5
258
330
243
100
AcDbEntity
  8
LAYER_1
 62
   250
100
AcDbTrace
 10
-85.50009164731739
 20
63.0001581900696
 30
0.0
 11
-85.50009164731739
 21
66.00014931770264
 31
0.0
 12
-88.50008277495043
 22
63.0001581900696
 32
0.0
 13
-88.50008277495043
 23
63.0001581900696
 33
0.0
210
0.0
220
0.0
230
-1.0
  0
SOLID
  5
259
330
243
100
AcDbEntity
  8
LAYER_1
 62
   250
100
AcDbTrace
 10
-88.50008277495043
 20
63.0001581900696
 30
0.0
 11
-85.50009164731739
 21
66.00014931770264
 31
0.0
 12
-88.50008277495043
 22
66.00014931770264
 32
0.0
 13
-88.50008277495043
 23
66.00014931770264
 33
0.0
210
0.0
220
0.0
230
-1.0
  0
SOLID
  5
25A
330
243
100
AcDbEntity
  8
LAYER_1
 62
   250
100
AcDbTrace
 10
-85.50009164731739
 20
69.00014044533567
 30
0.0
 11
-85.50009164731739
 21
78.00011382823479
 31
0.0
 12
-88.50008277495043
 22
69.00014044533567
 32
0.0
 13
-88.50008277495043
 23
69.00014044533567
 33
0.0
210
0.0
220
0.0
230
-1.0
  0
SOLID
  5
25B
330
243
100
AcDbEntity
  8
LAYER_1
 62
   250
100
AcDbTrace
 10
-88.50008277495043
 20
69.00014044533567
 30
0.0
 11
-85.50009164731739
 21
78.00011382823479
 31
0.0
 12
-88.50008277495043
 22
78.00011382823479
 32
0.0
 13
-88.50008277495043
 23
78.00011382823479
 33
0.0
210
0.0
220
0.0
230
-1.0
  0
SOLID
  5
25C
330
243
100
AcDbEntity
  8
LAYER_1
 62
   250
100
AcDbTrace
 10
-88.50008277495043
 20
63.0001581900696
 30
0.0
 11
-88.50008277495043
 21
78.00011382823479
 31
0.0
 12
-91.50007390258347
 22
63.0001581900696
 32
0.0
 13
-91.50007390258347
 23
63.0001581900696
 33
0.0
210
0.0
220
0.0
230
-1.0
  0
SOLID
  5
25D
330
243
100
AcDbEntity
  8
LAYER_1
 62
   250
100
AcDbTrace
 10
-91.50007390258347
 20
63.0001581900696
 30
0.0
 11
-88.50008277495043
 21
78.00011382823479
 31
0.0
 12
-91.50007390258347
 22
78.00011382823479
 32
0.0
 13
-91.50007390258347
 23
78.00011382823479
 33
0.0
210
0.0
220
0.0
230
-1.0
  0
SOLID
  5
25E
330
243
100
AcDbEntity
  8
LAYER_1
 62
   250
100
AcDbTrace
 10
-91.50007390258347
 20
60.00016706243656
 30
0.0
 11
-91.50007390258347
 21
75.00012270060175
 31
0.0
 12
-94.5000650302165
 22
60.00016706243656
 32
0.0
 13
-94.5000650302165
 23
60.00016706243656
 33
0.0
210
0.0
220
0.0
230
-1.0
  0
SOLID
  5
25F
330
243
100
AcDbEntity
  8
LAYER_1
 62
   250
100
AcDbTrace
 10
-94.5000650302165
 20
60.00016706243656
 30
0.0
 11
-91.50007390258347
 21
75.00012270060175
 31
0.0
 12
-94.5000650302165
 22
75.00012270060175
 32
0.0
 13
-94.5000650302165
 23
75.00012270060175
 33
0.0
210
0.0
220
0.0
230
-1.0
  0
SOLID
  5
260
330
243
100
AcDbEntity
  8
LAYER_1
 62
   250
100
AcDbTrace
 10
-94.5000650302165
 20
56.99983142502773
 30
0.0
 11
-94.5000650302165
 21
66.00014931770264
 31
0.0
 12
-97.50005615784954
 22
56.99983142502773
 32
0.0
 13
-97.50005615784954
 23
56.99983142502773
 33
0.0
210
0.0
220
0.0
230
-1.0
  0
SOLID
  5
261
330
243
100
AcDbEntity
  8
LAYER_1
 62
   250
100
AcDbTrace
 10
-97.50005615784954
 20
56.99983142502773
 30
0.0
 11
-94.5000650302165
 21
66.00014931770264
 31
0.0
 12
-97.50005615784954
 22
66.00014931770264
 32
0.0
 13
-97.50005615784954
 23
66.00014931770264
 33
0.0
210
0.0
220
0.0
230
-1.0
  0
SOLID
  5
262
330
243
100
AcDbEntity
  8
LAYER_1
 62
   250
100
AcDbTrace
 10
-94.5000650302165
 20
69.00014044533567
 30
0.0
 11
-94.5000650302165
 21
75.00012270060175
 31
0.0
 12
-97.50005615784954
 22
69.00014044533567
 32
0.0
 13
-97.50005615784954
 23
69.00014044533567
 33
0.0
210
0.0
220
0.0
230
-1.0
  0
SOLID
  5
263
330
243
100
AcDbEntity
  8
LAYER_1
 62
   250
100
AcDbTrace
 10
-97.50005615784954
 20
69.00014044533567
 30
0.0
 11
-94.5000650302165
 21
75.00012270060175
 31
0.0
 12
-97.50005615784954
 22
75.00012270060175
 32
0.0
 13
-97.50005615784954
 23
75.00012270060175
 33
0.0
210
0.0
220
0.0
230
-1.0
  0
SOLID
  5
264
330
243
100
AcDbEntity
  8
LAYER_1
 62
   250
100
AcDbTrace
 10
-97.50005615784954
 20
60.00016706243656
 30
0.0
 11
-97.50005615784954
 21
72.00013157296871
 31
0.0
 12
-100.5000472854826
 22
60.00016706243656
 32
0.0
 13
-100.5000472854826
 23
60.00016706243656
 33
0.0
210
0.0
220
0.0
230
-1.0
  0
SOLID
  5
265
330
243
100
AcDbEntity
  8
LAYER_1
 62
   250
100
AcDbTrace
 10
-100.5000472854826
 20
60.00016706243656
 30
0.0
 11
-97.50005615784954
 21
72.00013157296871
 31
0.0
 12
-100.5000472854826
 22
72.00013157296871
 32
0.0
 13
-100.5000472854826
 23
72.00013157296871
 33
0.0
210
0.0
220
0.0
230
-1.0
  0
SOLID
  5
266
330
243
100
AcDbEntity
  8
LAYER_1
 62
   250
100
AcDbTrace
 10
-100.5000472854826
 20
63.0001581900696
 30
0.0
 11
-100.5000472854826
 21
69.00014044533567
 31
0.0
 12
-103.5000384131156
 22
63.0001581900696
 32
0.0
 13
-103.5000384131156
 23
63.0001581900696
 33
0.0
210
0.0
220
0.0
230
-1.0
  0
SOLID
  5
267
330
243
100
AcDbEntity
  8
LAYER_1
 62
   250
100
AcDbTrace
 10
-103.5000384131156
 20
63.0001581900696
 30
0.0
 11
-100.5000472854826
 21
69.00014044533567
 31
0.0
 12
-103.5000384131156
 22
69.00014044533567
 32
0.0
 13
-103.5000384131156
 23
69.00014044533567
 33
0.0
210
0.0
220
0.0
230
-1.0
  0
SOLID
  5
268
330
243
100
AcDbEntity
  8
LAYER_1
 62
   250
100
AcDbTrace
 10
-103.5000384131156
 20
63.0001581900696
 30
0.0
 11
-103.5000384131156
 21
66.00014931770264
 31
0.0
 12
-106.5000295407487
 22
63.0001581900696
 32
0.0
 13
-106.5000295407487
 23
63.0001581900696
 33
0.0
210
0.0
220
0.0
230
-1.0
  0
SOLID
  5
269
330
243
100
AcDbEntity
  8
LAYER_1
 62
   250
100
AcDbTrace
 10
-106.5000295407487
 20
63.0001581900696
 30
0.0
 11
-103.5000384131156
 21
66.00014931770264
 31
0.0
 12
-106.5000295407487
 22
66.00014931770264
 32
0.0
 13
-106.5000295407487
 23
66.00014931770264
 33
0.0
210
0.0
220
0.0
230
-1.0
  0
ENDBLK
  5
26B
330
243
100
AcDbEntity
  8
0
100
AcDbBlockEnd
  0
ENDSEC
  0
SECTION
  2
ENTITIES
  0
POLYLINE
  5
3C
330
1F
100
AcDbEntity
  8
LAYER_1
100
AcDb2dPolyline
 66
     1
 10
0.0
 20
0.0
 30
0.0
  0
VERTEX
  5
3D
330
3C
100
AcDbEntity
  8
LAYER_1
100
AcDbVertex
100
AcDb2dVertex
 10
64.49998149899822
 20
130.499958561813
 30
0.0
  0
VERTEX
  5
3E
330
3C
100
AcDbEntity
  8
LAYER_1
100
AcDbVertex
100
AcDb2dVertex
 10
64.49998149899822
 20
139.4999319447121
 30
0.0
  0
VERTEX
  5
3F
330
3C
100
AcDbEntity
  8
LAYER_1
100
AcDbVertex
100
AcDb2dVertex
 10
61.49999037136519
 20
139.4999319447121
 30
0.0
  0
VERTEX
  5
40
330
3C
100
AcDbEntity
  8
LAYER_1
100
AcDbVertex
100
AcDb2dVertex
 10
61.49999037136519
 20
142.4999230723451
 30
0.0
  0
VERTEX
  5
41
330
3C
100
AcDbEntity
  8
LAYER_1
100
AcDbVertex
100
AcDb2dVertex
 10
52.50001698846607
 20
142.4999230723451
 30
0.0
  0
VERTEX
  5
42
330
3C
100
AcDbEntity
  8
LAYER_1
100
AcDbVertex
100
AcDb2dVertex
 10
52.50001698846607
 20
145.5000864548661
 30
0.0
  0
VERTEX
  5
43
330
3C
100
AcDbEntity
  8
LAYER_1
100
AcDbVertex
100
AcDb2dVertex
 10
40.50005247793391
 20
145.5000864548661
 30
0.0
  0
VERTEX
  5
44
330
3C
100
AcDbEntity
  8
LAYER_1
100
AcDbVertex
100
AcDb2dVertex
 10
40.50005247793391
 20
142.4999230723451
 30
0.0
  0
VERTEX
  5
45
330
3C
100
AcDbEntity
  8
LAYER_1
100
AcDbVertex
100
AcDb2dVertex
 10
31.5000790950348
 20
142.4999230723451
 30
0.0
  0
VERTEX
  5
46
330
3C
100
AcDbEntity
  8
LAYER_1
100
AcDbVertex
100
AcDb2dVertex
 10
31.5000790950348
 20
139.4999319447121
 30
0.0
  0
VERTEX
  5
47
330
3C
100
AcDbEntity
  8
LAYER_1
100
AcDbVertex
100
AcDb2dVertex
 10
28.50008796740176
 20
139.4999319447121
 30
0.0
  0
VERTEX
  5
48
330
3C
100
AcDbEntity
  8
LAYER_1
100
AcDbVertex
100
AcDb2dVertex
 10
28.50008796740176
 20
130.499958561813
 30
0.0
  0
VERTEX
  5
49
330
3C
100
AcDbEntity
  8
LAYER_1
100
AcDbVertex
100
AcDb2dVertex
 10
34.50007022266784
 20
130.499958561813
 30
0.0
  0
VERTEX
  5
4A
330
3C
100
AcDbEntity
  8
LAYER_1
100
AcDbVertex
100
AcDb2dVertex
 10
34.50007022266784
 20
127.4999674341799
 30
0.0
  0
VERTEX
  5
4B
330
3C
100
AcDbEntity
  8
LAYER_1
100
AcDbVertex
100
AcDb2dVertex
 10
31.5000790950348
 20
127.4999674341799
 30
0.0
  0
VERTEX
  5
4C
330
3C
100
AcDbEntity
  8
LAYER_1
100
AcDbVertex
100
AcDb2dVertex
 10
31.5000790950348
 20
124.4999763065469
 30
0.0
  0
VERTEX
  5
4D
330
3C
100
AcDbEntity
  8
LAYER_1
100
AcDbVertex
100
AcDb2dVertex
 10
34.50007022266784
 20
124.4999763065469
 30
0.0
  0
VERTEX
  5
4E
330
3C
100
AcDbEntity
  8
LAYER_1
100
AcDbVertex
100
AcDb2dVertex
 10
34.50007022266784
 20
121.4999851789138
 30
0.0
  0
VERTEX
  5
4F
330
3C
100
AcDbEntity
  8
LAYER_1
100
AcDbVertex
100
AcDb2dVertex
 10
40.50005247793391
 20
121.4999851789138
 30
0.0
  0
VERTEX
  5
50
330
3C
100
AcDbEntity
  8
LAYER_1
100
AcDbVertex
100
AcDb2dVertex
 10
40.50005247793391
 20
124.4999763065469
 30
0.0
  0
VERTEX
  5
51
330
3C
100
AcDbEntity
  8
LAYER_1
100
AcDbVertex
100
AcDb2dVertex
 10
37.50006135030088
 20
124.4999763065469
 30
0.0
  0
VERTEX
  5
52
330
3C
100
AcDbEntity
  8
LAYER_1
100
AcDbVertex
100
AcDb2dVertex
 10
37.50006135030088
 20
127.4999674341799
 30
0.0
  0
VERTEX
  5
53
330
3C
100
AcDbEntity
  8
LAYER_1
100
AcDbVertex
100
AcDb2dVertex
 10
43.50004360556695
 20
127.4999674341799
 30
0.0
  0
VERTEX
  5
54
330
3C
100
AcDbEntity
  8
LAYER_1
100
AcDbVertex
100
AcDb2dVertex
 10
43.50004360556695
 20
130.499958561813
 30
0.0
  0
VERTEX
  5
55
330
3C
100
AcDbEntity
  8
LAYER_1
100
AcDbVertex
100
AcDb2dVertex
 10
49.50002586083303
 20
130.499958561813
 30
0.0
  0
VERTEX
  5
56
330
3C
100
AcDbEntity
  8
LAYER_1
100
AcDbVertex
100
AcDb2dVertex
 10
49.50002586083303
 20
127.4999674341799
 30
0.0
  0
VERTEX
  5
57
330
3C
100
AcDbEntity
  8
LAYER_1
100
AcDbVertex
100
AcDb2dVertex
 10
55.50000811609911
 20
127.4999674341799
 30
0.0
  0
VERTEX
  5
58
330
3C
100
AcDbEntity
  8
LAYER_1
100
AcDbVertex
100
AcDb2dVertex
 10
55.50000811609911
 20
124.4999763065469
 30
0.0
  0
VERTEX
  5
59
330
3C
100
AcDbEntity
  8
LAYER_1
100
AcDbVertex
100
AcDb2dVertex
 10
52.50001698846607
 20
124.4999763065469
 30
0.0
  0
VERTEX
  5
5A
330
3C
100
AcDbEntity
  8
LAYER_1
100
AcDbVertex
100
AcDb2dVertex
 10
52.50001698846607
 20
121.4999851789138
 30
0.0
  0
VERTEX
  5
5B
330
3C
100
AcDbEntity
  8
LAYER_1
100
AcDbVertex
100
AcDb2dVertex
 10
58.49999924373215
 20
121.4999851789138
 30
0.0
  0
VERTEX
  5
5C
330
3C
100
AcDbEntity
  8
LAYER_1
100
AcDbVertex
100
AcDb2dVertex
 10
58.49999924373215
 20
124.4999763065469
 30
0.0
  0
VERTEX
  5
5D
330
3C
100
AcDbEntity
  8
LAYER_1
100
AcDbVertex
100
AcDb2dVertex
 10
61.49999037136519
 20
124.4999763065469
 30
0.0
  0
VERTEX
  5
5E
330
3C
100
AcDbEntity
  8
LAYER_1
100
AcDbVertex
100
AcDb2dVertex
 10
61.49999037136519
 20
127.4999674341799
 30
0.0
  0
VERTEX
  5
5F
330
3C
100
AcDbEntity
  8
LAYER_1
100
AcDbVertex
100
AcDb2dVertex
 10
58.49999924373215
 20
127.4999674341799
 30
0.0
  0
VERTEX
  5
60
330
3C
100
AcDbEntity
  8
LAYER_1
100
AcDbVertex
100
AcDb2dVertex
 10
58.49999924373215
 20
130.499958561813
 30
0.0
  0
VERTEX
  5
61
330
3C
100
AcDbEntity
  8
LAYER_1
100
AcDbVertex
100
AcDb2dVertex
 10
64.49998149899822
 20
130.499958561813
 30
0.0
  0
SEQEND
  5
62
330
3C
100
AcDbEntity
  8
LAYER_1
  0
POLYLINE
  5
63
330
1F
100
AcDbEntity
  8
LAYER_1
100
AcDb2dPolyline
 66
     1
 10
0.0
 20
0.0
 30
0.0
  0
VERTEX
  5
64
330
63
100
AcDbEntity
  8
LAYER_1
100
AcDbVertex
100
AcDb2dVertex
 10
43.50004360556695
 20
133.499949689446
 30
0.0
  0
VERTEX
  5
65
330
63
100
AcDbEntity
  8
LAYER_1
100
AcDbVertex
100
AcDb2dVertex
 10
37.50006135030088
 20
133.499949689446
 30
0.0
  0
VERTEX
  5
66
330
63
100
AcDbEntity
  8
LAYER_1
100
AcDbVertex
100
AcDb2dVertex
 10
37.50006135030088
 20
136.4999408170791
 30
0.0
  0
VERTEX
  5
67
330
63
100
AcDbEntity
  8
LAYER_1
100
AcDbVertex
100
AcDb2dVertex
 10
43.50004360556695
 20
136.4999408170791
 30
0.0
  0
VERTEX
  5
68
330
63
100
AcDbEntity
  8
LAYER_1
100
AcDbVertex
100
AcDb2dVertex
 10
43.50004360556695
 20
133.499949689446
 30
0.0
  0
SEQEND
  5
69
330
63
100
AcDbEntity
  8
LAYER_1
  0
POLYLINE
  5
6A
330
1F
100
AcDbEntity
  8
LAYER_1
100
AcDb2dPolyline
 66
     1
 10
0.0
 20
0.0
 30
0.0
  0
VERTEX
  5
6B
330
6A
100
AcDbEntity
  8
LAYER_1
100
AcDbVertex
100
AcDb2dVertex
 10
55.50000811609911
 20
133.499949689446
 30
0.0
  0
VERTEX
  5
6C
330
6A
100
AcDbEntity
  8
LAYER_1
100
AcDbVertex
100
AcDb2dVertex
 10
49.50002586083303
 20
133.499949689446
 30
0.0
  0
VERTEX
  5
6D
330
6A
100
AcDbEntity
  8
LAYER_1
100
AcDbVertex
100
AcDb2dVertex
 10
49.50002586083303
 20
136.4999408170791
 30
0.0
  0
VERTEX
  5
6E
330
6A
100
AcDbEntity
  8
LAYER_1
100
AcDbVertex
100
AcDb2dVertex
 10
55.50000811609911
 20
136.4999408170791
 30
0.0
  0
VERTEX
  5
6F
330
6A
100
AcDbEntity
  8
LAYER_1
100
AcDbVertex
100
AcDb2dVertex
 10
55.50000811609911
 20
133.499949689446
 30
0.0
  0
SEQEND
  5
70
330
6A
100
AcDbEntity
  8
LAYER_1
  0
INSERT
  5
71
330
1F
100
AcDbEntity
  8
LAYER_1
 62
   250
100
AcDbBlockReference
  2
*U1
 10
0.0
 20
0.0
 30
0.0
1001
ACAD
1002
{
1000
R14_HATCH_DATA
1000
71
1011
1.0
1021
0.0
1031
0.0
1011
0.0
1021
1.0
1031
0.0
1011
0.0
1021
0.0
1031
1.0
1040
0.0
1010
0.0
1020
0.0
1030
1.0
1000
SOLID
1070
     1
1070
     1
1071
        3
1071
        1
1071
       36
1070
     1
1040
64.49998149899822
1040
130.499958561813
1040
64.49998149899822
1040
139.4999319447121
1070
     1
1040
64.49998149899822
1040
139.4999319447121
1040
61.49999037136519
1040
139.4999319447121
1070
     1
1040
61.49999037136519
1040
139.4999319447121
1040
61.49999037136519
1040
142.4999230723451
1070
     1
1040
61.49999037136519
1040
142.4999230723451
1040
52.50001698846607
1040
142.4999230723451
1070
     1
1040
52.50001698846607
1040
142.4999230723451
1040
52.50001698846607
1040
145.5000864548661
1070
     1
1040
52.50001698846607
1040
145.5000864548661
1040
40.50005247793391
1040
145.5000864548661
1070
     1
1040
40.50005247793391
1040
145.5000864548661
1040
40.50005247793391
1040
142.4999230723451
1070
     1
1040
40.50005247793391
1040
142.4999230723451
1040
31.5000790950348
1040
142.4999230723451
1070
     1
1040
31.5000790950348
1040
142.4999230723451
1040
31.5000790950348
1040
139.4999319447121
1070
     1
1040
31.5000790950348
1040
139.4999319447121
1040
28.50008796740176
1040
139.4999319447121
1070
     1
1040
28.50008796740176
1040
139.4999319447121
1040
28.50008796740176
1040
130.499958561813
1070
     1
1040
28.50008796740176
1040
130.499958561813
1040
34.50007022266784
1040
130.499958561813
1070
     1
1040
34.50007022266784
1040
130.499958561813
1040
34.50007022266784
1040
127.4999674341799
1070
     1
1040
34.50007022266784
1040
127.4999674341799
1040
31.5000790950348
1040
127.4999674341799
1070
     1
1040
31.5000790950348
1040
127.4999674341799
1040
31.5000790950348
1040
124.4999763065469
1070
     1
1040
31.5000790950348
1040
124.4999763065469
1040
34.50007022266784
1040
124.4999763065469
1070
     1
1040
34.50007022266784
1040
124.4999763065469
1040
34.50007022266784
1040
121.4999851789138
1070
     1
1040
34.50007022266784
1040
121.4999851789138
1040
40.50005247793391
1040
121.4999851789138
1070
     1
1040
40.50005247793391
1040
121.4999851789138
1040
40.50005247793391
1040
124.4999763065469
1070
     1
1040
40.50005247793391
1040
124.4999763065469
1040
37.50006135030088
1040
124.4999763065469
1070
     1
1040
37.50006135030088
1040
124.4999763065469
1040
37.50006135030088
1040
127.4999674341799
1070
     1
1040
37.50006135030088
1040
127.4999674341799
1040
43.50004360556695
1040
127.4999674341799
1070
     1
1040
43.50004360556695
1040
127.4999674341799
1040
43.50004360556695
1040
130.499958561813
1070
     1
1040
43.50004360556695
1040
130.499958561813
1040
49.50002586083303
1040
130.499958561813
1070
     1
1040
49.50002586083303
1040
130.499958561813
1040
49.50002586083303
1040
127.4999674341799
1070
     1
1040
49.50002586083303
1040
127.4999674341799
1040
55.50000811609911
1040
127.4999674341799
1070
     1
1040
55.50000811609911
1040
127.4999674341799
1040
55.50000811609911
1040
124.4999763065469
1070
     1
1040
55.50000811609911
1040
124.4999763065469
1040
52.50001698846607
1040
124.4999763065469
1070
     1
1040
52.50001698846607
1040
124.4999763065469
1040
52.50001698846607
1040
121.4999851789138
1070
     1
1040
52.50001698846607
1040
121.4999851789138
1040
58.49999924373215
1040
121.4999851789138
1070
     1
1040
58.49999924373215
1040
121.4999851789138
1040
58.49999924373215
1040
124.4999763065469
1070
     1
1040
58.49999924373215
1040
124.4999763065469
1040
61.49999037136519
1040
124.4999763065469
1070
     1
1040
61.49999037136519
1040
124.4999763065469
1040
61.49999037136519
1040
127.4999674341799
1070
     1
1040
61.49999037136519
1040
127.4999674341799
1040
58.49999924373215
1040
127.4999674341799
1070
     1
1040
58.49999924373215
1040
127.4999674341799
1040
58.49999924373215
1040
130.499958561813
1070
     1
1040
58.49999924373215
1040
130.499958561813
1040
64.49998149899822
1040
130.499958561813
1071
        0
1071
        1
1071
        4
1070
     1
1040
43.50004360556695
1040
133.499949689446
1040
37.50006135030088
1040
133.499949689446
1070
     1
1040
37.50006135030088
1040
133.499949689446
1040
37.50006135030088
1040
136.4999408170791
1070
     1
1040
37.50006135030088
1040
136.4999408170791
1040
43.50004360556695
1040
136.4999408170791
1070
     1
1040
43.50004360556695
1040
136.4999408170791
1040
43.50004360556695
1040
133.499949689446
1071
        0
1071
        1
1071
        4
1070
     1
1040
55.50000811609911
1040
133.499949689446
1040
49.50002586083303
1040
133.499949689446
1070
     1
1040
49.50002586083303
1040
133.499949689446
1040
49.50002586083303
1040
136.4999408170791
1070
     1
1040
49.50002586083303
1040
136.4999408170791
1040
55.50000811609911
1040
136.4999408170791
1070
     1
1040
55.50000811609911
1040
136.4999408170791
1040
55.50000811609911
1040
133.499949689446
1071
        0
1070
     2
1070
     1
1071
        0
1002
}
  0
POLYLINE
  5
72
330
1F
100
AcDbEntity
  8
LAYER_1
100
AcDb2dPolyline
 66
     1
 10
0.0
 20
0.0
 30
0.0
  0
VERTEX
  5
73
330
72
100
AcDbEntity
  8
LAYER_1
100
AcDbVertex
100
AcDb2dVertex
 10
111.0000162321982
 20
162.0000376568478
 30
0.0
  0
VERTEX
  5
74
330
72
100
AcDbEntity
  8
LAYER_1
100
AcDbVertex
100
AcDb2dVertex
 10
111.0000162321982
 20
165.0000287844808
 30
0.0
  0
VERTEX
  5
75
330
72
100
AcDbEntity
  8
LAYER_1
100
AcDbVertex
100
AcDb2dVertex
 10
108.0000251045652
 20
165.0000287844808
 30
0.0
  0
VERTEX
  5
76
330
72
100
AcDbEntity
  8
LAYER_1
100
AcDbVertex
100
AcDb2dVertex
 10
108.0000251045652
 20
168.0000199121138
 30
0.0
  0
VERTEX
  5
77
330
72
100
AcDbEntity
  8
LAYER_1
100
AcDbVertex
100
AcDb2dVertex
 10
105.0000339769321
 20
168.0000199121138
 30
0.0
  0
VERTEX
  5
78
330
72
100
AcDbEntity
  8
LAYER_1
100
AcDbVertex
100
AcDb2dVertex
 10
102.0000428492991
 20
168.0000199121138
 30
0.0
  0
VERTEX
  5
79
330
72
100
AcDbEntity
  8
LAYER_1
100
AcDbVertex
100
AcDb2dVertex
 10
102.0000428492991
 20
171.0001832946348
 30
0.0
  0
VERTEX
  5
7A
330
72
100
AcDbEntity
  8
LAYER_1
100
AcDbVertex
100
AcDb2dVertex
 10
105.0000339769321
 20
171.0001832946348
 30
0.0
  0
VERTEX
  5
7B
330
72
100
AcDbEntity
  8
LAYER_1
100
AcDbVertex
100
AcDb2dVertex
 10
105.0000339769321
 20
174.0001744222678
 30
0.0
  0
VERTEX
  5
7C
330
72
100
AcDbEntity
  8
LAYER_1
100
AcDbVertex
100
AcDb2dVertex
 10
108.0000251045652
 20
174.0001744222678
 30
0.0
  0
VERTEX
  5
7D
330
72
100
AcDbEntity
  8
LAYER_1
100
AcDbVertex
100
AcDb2dVertex
 10
108.0000251045652
 20
177.0001655499009
 30
0.0
  0
VERTEX
  5
7E
330
72
100
AcDbEntity
  8
LAYER_1
100
AcDbVertex
100
AcDb2dVertex
 10
103.5000384131156
 20
177.0001655499009
 30
0.0
  0
VERTEX
  5
7F
330
72
100
AcDbEntity
  8
LAYER_1
100
AcDbVertex
100
AcDb2dVertex
 10
103.5000384131156
 20
174.0001744222678
 30
0.0
  0
VERTEX
  5
80
330
72
100
AcDbEntity
  8
LAYER_1
100
AcDbVertex
100
AcDb2dVertex
 10
100.5000472854826
 20
174.0001744222678
 30
0.0
  0
VERTEX
  5
81
330
72
100
AcDbEntity
  8
LAYER_1
100
AcDbVertex
100
AcDb2dVertex
 10
99.00005172166605
 20
174.0001744222678
 30
0.0
  0
VERTEX
  5
82
330
72
100
AcDbEntity
  8
LAYER_1
100
AcDbVertex
100
AcDb2dVertex
 10
99.00005172166605
 20
168.0000199121138
 30
0.0
  0
VERTEX
  5
83
330
72
100
AcDbEntity
  8
LAYER_1
100
AcDbVertex
100
AcDb2dVertex
 10
90.00007833876694
 20
168.0000199121138
 30
0.0
  0
VERTEX
  5
84
330
72
100
AcDbEntity
  8
LAYER_1
100
AcDbVertex
100
AcDb2dVertex
 10
90.00007833876694
 20
174.0001744222678
 30
0.0
  0
VERTEX
  5
85
330
72
100
AcDbEntity
  8
LAYER_1
100
AcDbVertex
100
AcDb2dVertex
 10
85.50009164731739
 20
174.0001744222678
 30
0.0
  0
VERTEX
  5
86
330
72
100
AcDbEntity
  8
LAYER_1
100
AcDbVertex
100
AcDb2dVertex
 10
85.50009164731739
 20
177.0001655499009
 30
0.0
  0
VERTEX
  5
87
330
72
100
AcDbEntity
  8
LAYER_1
100
AcDbVertex
100
AcDb2dVertex
 10
81.00010495586783
 20
177.0001655499009
 30
0.0
  0
VERTEX
  5
88
330
72
100
AcDbEntity
  8
LAYER_1
100
AcDbVertex
100
AcDb2dVertex
 10
81.00010495586783
 20
174.0001744222678
 30
0.0
  0
VERTEX
  5
89
330
72
100
AcDbEntity
  8
LAYER_1
100
AcDbVertex
100
AcDb2dVertex
 10
84.00009608350086
 20
174.0001744222678
 30
0.0
  0
VERTEX
  5
8A
330
72
100
AcDbEntity
  8
LAYER_1
100
AcDbVertex
100
AcDb2dVertex
 10
84.00009608350086
 20
171.0001832946348
 30
0.0
  0
VERTEX
  5
8B
330
72
100
AcDbEntity
  8
LAYER_1
100
AcDbVertex
100
AcDb2dVertex
 10
87.0000872111339
 20
171.0001832946348
 30
0.0
  0
VERTEX
  5
8C
330
72
100
AcDbEntity
  8
LAYER_1
100
AcDbVertex
100
AcDb2dVertex
 10
87.0000872111339
 20
168.0000199121138
 30
0.0
  0
VERTEX
  5
8D
330
72
100
AcDbEntity
  8
LAYER_1
100
AcDbVertex
100
AcDb2dVertex
 10
81.00010495586783
 20
168.0000199121138
 30
0.0
  0
VERTEX
  5
8E
330
72
100
AcDbEntity
  8
LAYER_1
100
AcDbVertex
100
AcDb2dVertex
 10
81.00010495586783
 20
165.0000287844808
 30
0.0
  0
VERTEX
  5
8F
330
72
100
AcDbEntity
  8
LAYER_1
100
AcDbVertex
100
AcDb2dVertex
 10
78.00011382823479
 20
165.0000287844808
 30
0.0
  0
VERTEX
  5
90
330
72
100
AcDbEntity
  8
LAYER_1
100
AcDbVertex
100
AcDb2dVertex
 10
78.00011382823479
 20
162.0000376568478
 30
0.0
  0
VERTEX
  5
91
330
72
100
AcDbEntity
  8
LAYER_1
100
AcDbVertex
100
AcDb2dVertex
 10
75.00012270060175
 20
162.0000376568478
 30
0.0
  0
VERTEX
  5
92
330
72
100
AcDbEntity
  8
LAYER_1
100
AcDbVertex
100
AcDb2dVertex
 10
75.00012270060175
 20
153.0000642739487
 30
0.0
  0
VERTEX
  5
93
330
72
100
AcDbEntity
  8
LAYER_1
100
AcDbVertex
100
AcDb2dVertex
 10
78.00011382823479
 20
153.0000642739487
 30
0.0
  0
VERTEX
  5
94
330
72
100
AcDbEntity
  8
LAYER_1
100
AcDbVertex
100
AcDb2dVertex
 10
78.00011382823479
 20
159.0000465292147
 30
0.0
  0
VERTEX
  5
95
330
72
100
AcDbEntity
  8
LAYER_1
100
AcDbVertex
100
AcDb2dVertex
 10
81.00010495586783
 20
159.0000465292147
 30
0.0
  0
VERTEX
  5
96
330
72
100
AcDbEntity
  8
LAYER_1
100
AcDbVertex
100
AcDb2dVertex
 10
81.00010495586783
 20
153.0000642739487
 30
0.0
  0
VERTEX
  5
97
330
72
100
AcDbEntity
  8
LAYER_1
100
AcDbVertex
100
AcDb2dVertex
 10
84.00009608350086
 20
153.0000642739487
 30
0.0
  0
VERTEX
  5
98
330
72
100
AcDbEntity
  8
LAYER_1
100
AcDbVertex
100
AcDb2dVertex
 10
84.00009608350086
 20
150.0000731463156
 30
0.0
  0
VERTEX
  5
99
330
72
100
AcDbEntity
  8
LAYER_1
100
AcDbVertex
100
AcDb2dVertex
 10
93.00006946639998
 20
150.0000731463156
 30
0.0
  0
VERTEX
  5
9A
330
72
100
AcDbEntity
  8
LAYER_1
100
AcDbVertex
100
AcDb2dVertex
 10
93.00006946639998
 20
153.0000642739487
 30
0.0
  0
VERTEX
  5
9B
330
72
100
AcDbEntity
  8
LAYER_1
100
AcDbVertex
100
AcDb2dVertex
 10
87.0000872111339
 20
153.0000642739487
 30
0.0
  0
VERTEX
  5
9C
330
72
100
AcDbEntity
  8
LAYER_1
100
AcDbVertex
100
AcDb2dVertex
 10
87.0000872111339
 20
156.0000554015817
 30
0.0
  0
VERTEX
  5
9D
330
72
100
AcDbEntity
  8
LAYER_1
100
AcDbVertex
100
AcDb2dVertex
 10
102.0000428492991
 20
156.0000554015817
 30
0.0
  0
VERTEX
  5
9E
330
72
100
AcDbEntity
  8
LAYER_1
100
AcDbVertex
100
AcDb2dVertex
 10
102.0000428492991
 20
153.0000642739487
 30
0.0
  0
VERTEX
  5
9F
330
72
100
AcDbEntity
  8
LAYER_1
100
AcDbVertex
100
AcDb2dVertex
 10
96.00006059403302
 20
153.0000642739487
 30
0.0
  0
VERTEX
  5
A0
330
72
100
AcDbEntity
  8
LAYER_1
100
AcDbVertex
100
AcDb2dVertex
 10
96.00006059403302
 20
150.0000731463156
 30
0.0
  0
VERTEX
  5
A1
330
72
100
AcDbEntity
  8
LAYER_1
100
AcDbVertex
100
AcDb2dVertex
 10
100.5000472854826
 20
150.0000731463156
 30
0.0
  0
VERTEX
  5
A2
330
72
100
AcDbEntity
  8
LAYER_1
100
AcDbVertex
100
AcDb2dVertex
 10
105.0000339769321
 20
150.0000731463156
 30
0.0
  0
VERTEX
  5
A3
330
72
100
AcDbEntity
  8
LAYER_1
100
AcDbVertex
100
AcDb2dVertex
 10
105.0000339769321
 20
153.0000642739487
 30
0.0
  0
VERTEX
  5
A4
330
72
100
AcDbEntity
  8
LAYER_1
100
AcDbVertex
100
AcDb2dVertex
 10
108.0000251045652
 20
153.0000642739487
 30
0.0
  0
VERTEX
  5
A5
330
72
100
AcDbEntity
  8
LAYER_1
100
AcDbVertex
100
AcDb2dVertex
 10
108.0000251045652
 20
159.0000465292147
 30
0.0
  0
VERTEX
  5
A6
330
72
100
AcDbEntity
  8
LAYER_1
100
AcDbVertex
100
AcDb2dVertex
 10
111.0000162321982
 20
159.0000465292147
 30
0.0
  0
VERTEX
  5
A7
330
72
100
AcDbEntity
  8
LAYER_1
100
AcDbVertex
100
AcDb2dVertex
 10
111.0000162321982
 20
153.0000642739487
 30
0.0
  0
VERTEX
  5
A8
330
72
100
AcDbEntity
  8
LAYER_1
100
AcDbVertex
100
AcDb2dVertex
 10
114.0000073598313
 20
153.0000642739487
 30
0.0
  0
VERTEX
  5
A9
330
72
100
AcDbEntity
  8
LAYER_1
100
AcDbVertex
100
AcDb2dVertex
 10
114.0000073598313
 20
162.0000376568478
 30
0.0
  0
VERTEX
  5
AA
330
72
100
AcDbEntity
  8
LAYER_1
100
AcDbVertex
100
AcDb2dVertex
 10
111.0000162321982
 20
162.0000376568478
 30
0.0
  0
SEQEND
  5
AB
330
72
100
AcDbEntity
  8
LAYER_1
  0
POLYLINE
  5
AC
330
1F
100
AcDbEntity
  8
LAYER_1
100
AcDb2dPolyline
 66
     1
 10
0.0
 20
0.0
 30
0.0
  0
VERTEX
  5
AD
330
AC
100
AcDbEntity
  8
LAYER_1
100
AcDbVertex
100
AcDb2dVertex
 10
90.00007833876694
 20
162.0000376568478
 30
0.0
  0
VERTEX
  5
AE
330
AC
100
AcDbEntity
  8
LAYER_1
100
AcDbVertex
100
AcDb2dVertex
 10
87.0000872111339
 20
162.0000376568478
 30
0.0
  0
VERTEX
  5
AF
330
AC
100
AcDbEntity
  8
LAYER_1
100
AcDbVertex
100
AcDb2dVertex
 10
87.0000872111339
 20
165.0000287844808
 30
0.0
  0
VERTEX
  5
B0
330
AC
100
AcDbEntity
  8
LAYER_1
100
AcDbVertex
100
AcDb2dVertex
 10
90.00007833876694
 20
165.0000287844808
 30
0.0
  0
VERTEX
  5
B1
330
AC
100
AcDbEntity
  8
LAYER_1
100
AcDbVertex
100
AcDb2dVertex
 10
90.00007833876694
 20
162.0000376568478
 30
0.0
  0
SEQEND
  5
B2
330
AC
100
AcDbEntity
  8
LAYER_1
  0
POLYLINE
  5
B3
330
1F
100
AcDbEntity
  8
LAYER_1
100
AcDb2dPolyline
 66
     1
 10
0.0
 20
0.0
 30
0.0
  0
VERTEX
  5
B4
330
B3
100
AcDbEntity
  8
LAYER_1
100
AcDbVertex
100
AcDb2dVertex
 10
102.0000428492991
 20
162.0000376568478
 30
0.0
  0
VERTEX
  5
B5
330
B3
100
AcDbEntity
  8
LAYER_1
100
AcDbVertex
100
AcDb2dVertex
 10
99.00005172166605
 20
162.0000376568478
 30
0.0
  0
VERTEX
  5
B6
330
B3
100
AcDbEntity
  8
LAYER_1
100
AcDbVertex
100
AcDb2dVertex
 10
99.00005172166605
 20
165.0000287844808
 30
0.0
  0
VERTEX
  5
B7
330
B3
100
AcDbEntity
  8
LAYER_1
100
AcDbVertex
100
AcDb2dVertex
 10
102.0000428492991
 20
165.0000287844808
 30
0.0
  0
VERTEX
  5
B8
330
B3
100
AcDbEntity
  8
LAYER_1
100
AcDbVertex
100
AcDb2dVertex
 10
102.0000428492991
 20
162.0000376568478
 30
0.0
  0
SEQEND
  5
B9
330
B3
100
AcDbEntity
  8
LAYER_1
  0
INSERT
  5
BA
330
1F
100
AcDbEntity
  8
LAYER_1
 62
   250
100
AcDbBlockReference
  2
*U2
 10
0.0
 20
0.0
 30
0.0
1001
ACAD
1002
{
1000
R14_HATCH_DATA
1000
BA
1011
1.0
1021
0.0
1031
0.0
1011
0.0
1021
1.0
1031
0.0
1011
0.0
1021
0.0
1031
1.0
1040
0.0
1010
0.0
1020
0.0
1030
1.0
1000
SOLID
1070
     1
1070
     1
1071
        3
1071
        1
1071
       55
1070
     1
1040
111.0000162321982
1040
162.0000376568478
1040
111.0000162321982
1040
165.0000287844808
1070
     1
1040
111.0000162321982
1040
165.0000287844808
1040
108.0000251045652
1040
165.0000287844808
1070
     1
1040
108.0000251045652
1040
165.0000287844808
1040
108.0000251045652
1040
168.0000199121138
1070
     1
1040
108.0000251045652
1040
168.0000199121138
1040
105.0000339769321
1040
168.0000199121138
1070
     1
1040
105.0000339769321
1040
168.0000199121138
1040
102.0000428492991
1040
168.0000199121138
1070
     1
1040
102.0000428492991
1040
168.0000199121138
1040
102.0000428492991
1040
171.0001832946348
1070
     1
1040
102.0000428492991
1040
171.0001832946348
1040
105.0000339769321
1040
171.0001832946348
1070
     1
1040
105.0000339769321
1040
171.0001832946348
1040
105.0000339769321
1040
174.0001744222678
1070
     1
1040
105.0000339769321
1040
174.0001744222678
1040
108.0000251045652
1040
174.0001744222678
1070
     1
1040
108.0000251045652
1040
174.0001744222678
1040
108.0000251045652
1040
177.0001655499009
1070
     1
1040
108.0000251045652
1040
177.0001655499009
1040
103.5000384131156
1040
177.0001655499009
1070
     1
1040
103.5000384131156
1040
177.0001655499009
1040
103.5000384131156
1040
174.0001744222678
1070
     1
1040
103.5000384131156
1040
174.0001744222678
1040
100.5000472854826
1040
174.0001744222678
1070
     1
1040
100.5000472854826
1040
174.0001744222678
1040
99.00005172166605
1040
174.0001744222678
1070
     1
1040
99.00005172166605
1040
174.0001744222678
1040
99.00005172166605
1040
168.0000199121138
1070
     1
1040
99.00005172166605
1040
168.0000199121138
1040
90.00007833876694
1040
168.0000199121138
1070
     1
1040
90.00007833876694
1040
168.0000199121138
1040
90.00007833876694
1040
174.0001744222678
1070
     1
1040
90.00007833876694
1040
174.0001744222678
1040
85.50009164731739
1040
174.0001744222678
1070
     1
1040
85.50009164731739
1040
174.0001744222678
1040
85.50009164731739
1040
177.0001655499009
1070
     1
1040
85.50009164731739
1040
177.0001655499009
1040
81.00010495586783
1040
177.0001655499009
1070
     1
1040
81.00010495586783
1040
177.0001655499009
1040
81.00010495586783
1040
174.0001744222678
1070
     1
1040
81.00010495586783
1040
174.0001744222678
1040
84.00009608350086
1040
174.0001744222678
1070
     1
1040
84.00009608350086
1040
174.0001744222678
1040
84.00009608350086
1040
171.0001832946348
1070
     1
1040
84.00009608350086
1040
171.0001832946348
1040
87.0000872111339
1040
171.0001832946348
1070
     1
1040
87.0000872111339
1040
171.0001832946348
1040
87.0000872111339
1040
168.0000199121138
1070
     1
1040
87.0000872111339
1040
168.0000199121138
1040
81.00010495586783
1040
168.0000199121138
1070
     1
1040
81.00010495586783
1040
168.0000199121138
1040
81.00010495586783
1040
165.0000287844808
1070
     1
1040
81.00010495586783
1040
165.0000287844808
1040
78.00011382823479
1040
165.0000287844808
1070
     1
1040
78.00011382823479
1040
165.0000287844808
1040
78.00011382823479
1040
162.0000376568478
1070
     1
1040
78.00011382823479
1040
162.0000376568478
1040
75.00012270060175
1040
162.0000376568478
1070
     1
1040
75.00012270060175
1040
162.0000376568478
1040
75.00012270060175
1040
153.0000642739487
1070
     1
1040
75.00012270060175
1040
153.0000642739487
1040
78.00011382823479
1040
153.0000642739487
1070
     1
1040
78.00011382823479
1040
153.0000642739487
1040
78.00011382823479
1040
159.0000465292147
1070
     1
1040
78.00011382823479
1040
159.0000465292147
1040
81.00010495586783
1040
159.0000465292147
1070
     1
1040
81.00010495586783
1040
159.0000465292147
1040
81.00010495586783
1040
153.0000642739487
1070
     1
1040
81.00010495586783
1040
153.0000642739487
1040
84.00009608350086
1040
153.0000642739487
1070
     1
1040
84.00009608350086
1040
153.0000642739487
1040
84.00009608350086
1040
150.0000731463156
1070
     1
1040
84.00009608350086
1040
150.0000731463156
1040
93.00006946639998
1040
150.0000731463156
1070
     1
1040
93.00006946639998
1040
150.0000731463156
1040
93.00006946639998
1040
153.0000642739487
1070
     1
1040
93.00006946639998
1040
153.0000642739487
1040
87.0000872111339
1040
153.0000642739487
1070
     1
1040
87.0000872111339
1040
153.0000642739487
1040
87.0000872111339
1040
156.0000554015817
1070
     1
1040
87.0000872111339
1040
156.0000554015817
1040
102.0000428492991
1040
156.0000554015817
1070
     1
1040
102.0000428492991
1040
156.0000554015817
1040
102.0000428492991
1040
153.0000642739487
1070
     1
1040
102.0000428492991
1040
153.0000642739487
1040
96.00006059403302
1040
153.0000642739487
1070
     1
1040
96.00006059403302
1040
153.0000642739487
1040
96.00006059403302
1040
150.0000731463156
1070
     1
1040
96.00006059403302
1040
150.0000731463156
1040
100.5000472854826
1040
150.0000731463156
1070
     1
1040
100.5000472854826
1040
150.0000731463156
1040
105.0000339769321
1040
150.0000731463156
1070
     1
1040
105.0000339769321
1040
150.0000731463156
1040
105.0000339769321
1040
153.0000642739487
1070
     1
1040
105.0000339769321
1040
153.0000642739487
1040
108.0000251045652
1040
153.0000642739487
1070
     1
1040
108.0000251045652
1040
153.0000642739487
1040
108.0000251045652
1040
159.0000465292147
1070
     1
1040
108.0000251045652
1040
159.0000465292147
1040
111.0000162321982
1040
159.0000465292147
1070
     1
1040
111.0000162321982
1040
159.0000465292147
1040
111.0000162321982
1040
153.0000642739487
1070
     1
1040
111.0000162321982
1040
153.0000642739487
1040
114.0000073598313
1040
153.0000642739487
1070
     1
1040
114.0000073598313
1040
153.0000642739487
1040
114.0000073598313
1040
162.0000376568478
1070
     1
1040
114.0000073598313
1040
162.0000376568478
1040
111.0000162321982
1040
162.0000376568478
1071
        0
1071
        1
1071
        4
1070
     1
1040
90.00007833876694
1040
162.0000376568478
1040
87.0000872111339
1040
162.0000376568478
1070
     1
1040
87.0000872111339
1040
162.0000376568478
1040
87.0000872111339
1040
165.0000287844808
1070
     1
1040
87.0000872111339
1040
165.0000287844808
1040
90.00007833876694
1040
165.0000287844808
1070
     1
1040
90.00007833876694
1040
165.0000287844808
1040
90.00007833876694
1040
162.0000376568478
1071
        0
1071
        1
1071
        4
1070
     1
1040
102.0000428492991
1040
162.0000376568478
1040
99.00005172166605
1040
162.0000376568478
1070
     1
1040
99.00005172166605
1040
162.0000376568478
1040
99.00005172166605
1040
165.0000287844808
1070
     1
1040
99.00005172166605
1040
165.0000287844808
1040
102.0000428492991
1040
165.0000287844808
1070
     1
1040
102.0000428492991
1040
165.0000287844808
1040
102.0000428492991
1040
162.0000376568478
1071
        0
1070
     2
1070
     1
1071
        0
1002
}
  0
POLYLINE
  5
BB
330
1F
100
AcDbEntity
  8
LAYER_1
100
AcDb2dPolyline
 66
     1
 10
0.0
 20
0.0
 30
0.0
  0
VERTEX
  5
BC
330
BB
100
AcDbEntity
  8
LAYER_1
100
AcDbVertex
100
AcDb2dVertex
 10
168.0001921670017
 20
166.5001966031852
 30
0.0
  0
VERTEX
  5
BD
330
BB
100
AcDbEntity
  8
LAYER_1
100
AcDbVertex
100
AcDb2dVertex
 10
168.0001921670017
 20
172.5001788584513
 30
0.0
  0
VERTEX
  5
BE
330
BB
100
AcDbEntity
  8
LAYER_1
100
AcDbVertex
100
AcDb2dVertex
 10
165.0002010393687
 20
172.5001788584513
 30
0.0
  0
VERTEX
  5
BF
330
BB
100
AcDbEntity
  8
LAYER_1
100
AcDbVertex
100
AcDb2dVertex
 10
165.0002010393687
 20
175.5001699860843
 30
0.0
  0
VERTEX
  5
C0
330
BB
100
AcDbEntity
  8
LAYER_1
100
AcDbVertex
100
AcDb2dVertex
 10
162.0002099117357
 20
175.5001699860843
 30
0.0
  0
VERTEX
  5
C1
330
BB
100
AcDbEntity
  8
LAYER_1
100
AcDbVertex
100
AcDb2dVertex
 10
162.0002099117357
 20
178.5001611137174
 30
0.0
  0
VERTEX
  5
C2
330
BB
100
AcDbEntity
  8
LAYER_1
100
AcDbVertex
100
AcDb2dVertex
 10
159.0002187841026
 20
178.5001611137174
 30
0.0
  0
VERTEX
  5
C3
330
BB
100
AcDbEntity
  8
LAYER_1
100
AcDbVertex
100
AcDb2dVertex
 10
159.0002187841026
 20
181.5001522413504
 30
0.0
  0
VERTEX
  5
C4
330
BB
100
AcDbEntity
  8
LAYER_1
100
AcDbVertex
100
AcDb2dVertex
 10
153.0002365288366
 20
181.5001522413504
 30
0.0
  0
VERTEX
  5
C5
330
BB
100
AcDbEntity
  8
LAYER_1
100
AcDbVertex
100
AcDb2dVertex
 10
153.0002365288366
 20
178.5001611137174
 30
0.0
  0
VERTEX
  5
C6
330
BB
100
AcDbEntity
  8
LAYER_1
100
AcDbVertex
100
AcDb2dVertex
 10
150.0002454012035
 20
178.5001611137174
 30
0.0
  0
VERTEX
  5
C7
330
BB
100
AcDbEntity
  8
LAYER_1
100
AcDbVertex
100
AcDb2dVertex
 10
150.0002454012035
 20
175.5001699860843
 30
0.0
  0
VERTEX
  5
C8
330
BB
100
AcDbEntity
  8
LAYER_1
100
AcDbVertex
100
AcDb2dVertex
 10
147.0002542735705
 20
175.5001699860843
 30
0.0
  0
VERTEX
  5
C9
330
BB
100
AcDbEntity
  8
LAYER_1
100
AcDbVertex
100
AcDb2dVertex
 10
147.0002542735705
 20
172.5001788584513
 30
0.0
  0
VERTEX
  5
CA
330
BB
100
AcDbEntity
  8
LAYER_1
100
AcDbVertex
100
AcDb2dVertex
 10
144.0002631459374
 20
172.5001788584513
 30
0.0
  0
VERTEX
  5
CB
330
BB
100
AcDbEntity
  8
LAYER_1
100
AcDbVertex
100
AcDb2dVertex
 10
144.0002631459374
 20
166.5001966031852
 30
0.0
  0
VERTEX
  5
CC
330
BB
100
AcDbEntity
  8
LAYER_1
100
AcDbVertex
100
AcDb2dVertex
 10
145.500258709754
 20
166.5001966031852
 30
0.0
  0
VERTEX
  5
CD
330
BB
100
AcDbEntity
  8
LAYER_1
100
AcDbVertex
100
AcDb2dVertex
 10
145.500258709754
 20
163.5002054755522
 30
0.0
  0
VERTEX
  5
CE
330
BB
100
AcDbEntity
  8
LAYER_1
100
AcDbVertex
100
AcDb2dVertex
 10
144.0002631459374
 20
163.5002054755522
 30
0.0
  0
VERTEX
  5
CF
330
BB
100
AcDbEntity
  8
LAYER_1
100
AcDbVertex
100
AcDb2dVertex
 10
144.0002631459374
 20
160.5002143479192
 30
0.0
  0
VERTEX
  5
D0
330
BB
100
AcDbEntity
  8
LAYER_1
100
AcDbVertex
100
AcDb2dVertex
 10
145.500258709754
 20
160.5002143479192
 30
0.0
  0
VERTEX
  5
D1
330
BB
100
AcDbEntity
  8
LAYER_1
100
AcDbVertex
100
AcDb2dVertex
 10
145.500258709754
 20
157.5000509653982
 30
0.0
  0
VERTEX
  5
D2
330
BB
100
AcDbEntity
  8
LAYER_1
100
AcDbVertex
100
AcDb2dVertex
 10
150.0002454012035
 20
157.5000509653982
 30
0.0
  0
VERTEX
  5
D3
330
BB
100
AcDbEntity
  8
LAYER_1
100
AcDbVertex
100
AcDb2dVertex
 10
150.0002454012035
 20
160.5002143479192
 30
0.0
  0
VERTEX
  5
D4
330
BB
100
AcDbEntity
  8
LAYER_1
100
AcDbVertex
100
AcDb2dVertex
 10
148.500249837387
 20
160.5002143479192
 30
0.0
  0
VERTEX
  5
D5
330
BB
100
AcDbEntity
  8
LAYER_1
100
AcDbVertex
100
AcDb2dVertex
 10
148.500249837387
 20
163.5002054755522
 30
0.0
  0
VERTEX
  5
D6
330
BB
100
AcDbEntity
  8
LAYER_1
100
AcDbVertex
100
AcDb2dVertex
 10
150.0002454012035
 20
163.5002054755522
 30
0.0
  0
VERTEX
  5
D7
330
BB
100
AcDbEntity
  8
LAYER_1
100
AcDbVertex
100
AcDb2dVertex
 10
150.0002454012035
 20
166.5001966031852
 30
0.0
  0
VERTEX
  5
D8
330
BB
100
AcDbEntity
  8
LAYER_1
100
AcDbVertex
100
AcDb2dVertex
 10
153.0002365288366
 20
166.5001966031852
 30
0.0
  0
VERTEX
  5
D9
330
BB
100
AcDbEntity
  8
LAYER_1
100
AcDbVertex
100
AcDb2dVertex
 10
153.0002365288366
 20
163.5002054755522
 30
0.0
  0
VERTEX
  5
DA
330
BB
100
AcDbEntity
  8
LAYER_1
100
AcDbVertex
100
AcDb2dVertex
 10
159.0002187841026
 20
163.5002054755522
 30
0.0
  0
VERTEX
  5
DB
330
BB
100
AcDbEntity
  8
LAYER_1
100
AcDbVertex
100
AcDb2dVertex
 10
159.0002187841026
 20
166.5001966031852
 30
0.0
  0
VERTEX
  5
DC
330
BB
100
AcDbEntity
  8
LAYER_1
100
AcDbVertex
100
AcDb2dVertex
 10
162.0002099117357
 20
166.5001966031852
 30
0.0
  0
VERTEX
  5
DD
330
BB
100
AcDbEntity
  8
LAYER_1
100
AcDbVertex
100
AcDb2dVertex
 10
162.0002099117357
 20
163.5002054755522
 30
0.0
  0
VERTEX
  5
DE
330
BB
100
AcDbEntity
  8
LAYER_1
100
AcDbVertex
100
AcDb2dVertex
 10
163.5002054755522
 20
163.5002054755522
 30
0.0
  0
VERTEX
  5
DF
330
BB
100
AcDbEntity
  8
LAYER_1
100
AcDbVertex
100
AcDb2dVertex
 10
163.5002054755522
 20
160.5002143479192
 30
0.0
  0
VERTEX
  5
E0
330
BB
100
AcDbEntity
  8
LAYER_1
100
AcDbVertex
100
AcDb2dVertex
 10
162.0002099117357
 20
160.5002143479192
 30
0.0
  0
VERTEX
  5
E1
330
BB
100
AcDbEntity
  8
LAYER_1
100
AcDbVertex
100
AcDb2dVertex
 10
162.0002099117357
 20
157.5000509653982
 30
0.0
  0
VERTEX
  5
E2
330
BB
100
AcDbEntity
  8
LAYER_1
100
AcDbVertex
100
AcDb2dVertex
 10
166.5001966031852
 20
157.5000509653982
 30
0.0
  0
VERTEX
  5
E3
330
BB
100
AcDbEntity
  8
LAYER_1
100
AcDbVertex
100
AcDb2dVertex
 10
166.5001966031852
 20
160.5002143479192
 30
0.0
  0
VERTEX
  5
E4
330
BB
100
AcDbEntity
  8
LAYER_1
100
AcDbVertex
100
AcDb2dVertex
 10
168.0001921670017
 20
160.5002143479192
 30
0.0
  0
VERTEX
  5
E5
330
BB
100
AcDbEntity
  8
LAYER_1
100
AcDbVertex
100
AcDb2dVertex
 10
168.0001921670017
 20
163.5002054755522
 30
0.0
  0
VERTEX
  5
E6
330
BB
100
AcDbEntity
  8
LAYER_1
100
AcDbVertex
100
AcDb2dVertex
 10
166.5001966031852
 20
163.5002054755522
 30
0.0
  0
VERTEX
  5
E7
330
BB
100
AcDbEntity
  8
LAYER_1
100
AcDbVertex
100
AcDb2dVertex
 10
166.5001966031852
 20
166.5001966031852
 30
0.0
  0
VERTEX
  5
E8
330
BB
100
AcDbEntity
  8
LAYER_1
100
AcDbVertex
100
AcDb2dVertex
 10
168.0001921670017
 20
166.5001966031852
 30
0.0
  0
SEQEND
  5
E9
330
BB
100
AcDbEntity
  8
LAYER_1
  0
POLYLINE
  5
EA
330
1F
100
AcDbEntity
  8
LAYER_1
100
AcDb2dPolyline
 66
     1
 10
0.0
 20
0.0
 30
0.0
  0
VERTEX
  5
EB
330
EA
100
AcDbEntity
  8
LAYER_1
100
AcDbVertex
100
AcDb2dVertex
 10
153.0002365288366
 20
169.5001877308183
 30
0.0
  0
VERTEX
  5
EC
330
EA
100
AcDbEntity
  8
LAYER_1
100
AcDbVertex
100
AcDb2dVertex
 10
150.0002454012035
 20
169.5001877308183
 30
0.0
  0
VERTEX
  5
ED
330
EA
100
AcDbEntity
  8
LAYER_1
100
AcDbVertex
100
AcDb2dVertex
 10
150.0002454012035
 20
172.5001788584513
 30
0.0
  0
VERTEX
  5
EE
330
EA
100
AcDbEntity
  8
LAYER_1
100
AcDbVertex
100
AcDb2dVertex
 10
153.0002365288366
 20
172.5001788584513
 30
0.0
  0
VERTEX
  5
EF
330
EA
100
AcDbEntity
  8
LAYER_1
100
AcDbVertex
100
AcDb2dVertex
 10
153.0002365288366
 20
169.5001877308183
 30
0.0
  0
SEQEND
  5
F0
330
EA
100
AcDbEntity
  8
LAYER_1
  0
POLYLINE
  5
F1
330
1F
100
AcDbEntity
  8
LAYER_1
100
AcDb2dPolyline
 66
     1
 10
0.0
 20
0.0
 30
0.0
  0
VERTEX
  5
F2
330
F1
100
AcDbEntity
  8
LAYER_1
100
AcDbVertex
100
AcDb2dVertex
 10
162.0002099117357
 20
169.5001877308183
 30
0.0
  0
VERTEX
  5
F3
330
F1
100
AcDbEntity
  8
LAYER_1
100
AcDbVertex
100
AcDb2dVertex
 10
159.0002187841026
 20
169.5001877308183
 30
0.0
  0
VERTEX
  5
F4
330
F1
100
AcDbEntity
  8
LAYER_1
100
AcDbVertex
100
AcDb2dVertex
 10
159.0002187841026
 20
172.5001788584513
 30
0.0
  0
VERTEX
  5
F5
330
F1
100
AcDbEntity
  8
LAYER_1
100
AcDbVertex
100
AcDb2dVertex
 10
162.0002099117357
 20
172.5001788584513
 30
0.0
  0
VERTEX
  5
F6
330
F1
100
AcDbEntity
  8
LAYER_1
100
AcDbVertex
100
AcDb2dVertex
 10
162.0002099117357
 20
169.5001877308183
 30
0.0
  0
SEQEND
  5
F7
330
F1
100
AcDbEntity
  8
LAYER_1
  0
INSERT
  5
F8
330
1F
100
AcDbEntity
  8
LAYER_1
 62
   250
100
AcDbBlockReference
  2
*U3
 10
0.0
 20
0.0
 30
0.0
1001
ACAD
1002
{
1000
R14_HATCH_DATA
1000
F8
1011
1.0
1021
0.0
1031
0.0
1011
0.0
1021
1.0
1031
0.0
1011
0.0
1021
0.0
1031
1.0
1040
0.0
1010
0.0
1020
0.0
1030
1.0
1000
SOLID
1070
     1
1070
     1
1071
        3
1071
        1
1071
       44
1070
     1
1040
168.0001921670017
1040
166.5001966031852
1040
168.0001921670017
1040
172.5001788584513
1070
     1
1040
168.0001921670017
1040
172.5001788584513
1040
165.0002010393687
1040
172.5001788584513
1070
     1
1040
165.0002010393687
1040
172.5001788584513
1040
165.0002010393687
1040
175.5001699860843
1070
     1
1040
165.0002010393687
1040
175.5001699860843
1040
162.0002099117357
1040
175.5001699860843
1070
     1
1040
162.0002099117357
1040
175.5001699860843
1040
162.0002099117357
1040
178.5001611137174
1070
     1
1040
162.0002099117357
1040
178.5001611137174
1040
159.0002187841026
1040
178.5001611137174
1070
     1
1040
159.0002187841026
1040
178.5001611137174
1040
159.0002187841026
1040
181.5001522413504
1070
     1
1040
159.0002187841026
1040
181.5001522413504
1040
153.0002365288366
1040
181.5001522413504
1070
     1
1040
153.0002365288366
1040
181.5001522413504
1040
153.0002365288366
1040
178.5001611137174
1070
     1
1040
153.0002365288366
1040
178.5001611137174
1040
150.0002454012035
1040
178.5001611137174
1070
     1
1040
150.0002454012035
1040
178.5001611137174
1040
150.0002454012035
1040
175.5001699860843
1070
     1
1040
150.0002454012035
1040
175.5001699860843
1040
147.0002542735705
1040
175.5001699860843
1070
     1
1040
147.0002542735705
1040
175.5001699860843
1040
147.0002542735705
1040
172.5001788584513
1070
     1
1040
147.0002542735705
1040
172.5001788584513
1040
144.0002631459374
1040
172.5001788584513
1070
     1
1040
144.0002631459374
1040
172.5001788584513
1040
144.0002631459374
1040
166.5001966031852
1070
     1
1040
144.0002631459374
1040
166.5001966031852
1040
145.500258709754
1040
166.5001966031852
1070
     1
1040
145.500258709754
1040
166.5001966031852
1040
145.500258709754
1040
163.5002054755522
1070
     1
1040
145.500258709754
1040
163.5002054755522
1040
144.0002631459374
1040
163.5002054755522
1070
     1
1040
144.0002631459374
1040
163.5002054755522
1040
144.0002631459374
1040
160.5002143479192
1070
     1
1040
144.0002631459374
1040
160.5002143479192
1040
145.500258709754
1040
160.5002143479192
1070
     1
1040
145.500258709754
1040
160.5002143479192
1040
145.500258709754
1040
157.5000509653982
1070
     1
1040
145.500258709754
1040
157.5000509653982
1040
150.0002454012035
1040
157.5000509653982
1070
     1
1040
150.0002454012035
1040
157.5000509653982
1040
150.0002454012035
1040
160.5002143479192
1070
     1
1040
150.0002454012035
1040
160.5002143479192
1040
148.500249837387
1040
160.5002143479192
1070
     1
1040
148.500249837387
1040
160.5002143479192
1040
148.500249837387
1040
163.5002054755522
1070
     1
1040
148.500249837387
1040
163.5002054755522
1040
150.0002454012035
1040
163.5002054755522
1070
     1
1040
150.0002454012035
1040
163.5002054755522
1040
150.0002454012035
1040
166.5001966031852
1070
     1
1040
150.0002454012035
1040
166.5001966031852
1040
153.0002365288366
1040
166.5001966031852
1070
     1
1040
153.0002365288366
1040
166.5001966031852
1040
153.0002365288366
1040
163.5002054755522
1070
     1
1040
153.0002365288366
1040
163.5002054755522
1040
159.0002187841026
1040
163.5002054755522
1070
     1
1040
159.0002187841026
1040
163.5002054755522
1040
159.0002187841026
1040
166.5001966031852
1070
     1
1040
159.0002187841026
1040
166.5001966031852
1040
162.0002099117357
1040
166.5001966031852
1070
     1
1040
162.0002099117357
1040
166.5001966031852
1040
162.0002099117357
1040
163.5002054755522
1070
     1
1040
162.0002099117357
1040
163.5002054755522
1040
163.5002054755522
1040
163.5002054755522
1070
     1
1040
163.5002054755522
1040
163.5002054755522
1040
163.5002054755522
1040
160.5002143479192
1070
     1
1040
163.5002054755522
1040
160.5002143479192
1040
162.0002099117357
1040
160.5002143479192
1070
     1
1040
162.0002099117357
1040
160.5002143479192
1040
162.0002099117357
1040
157.5000509653982
1070
     1
1040
162.0002099117357
1040
157.5000509653982
1040
166.5001966031852
1040
157.5000509653982
1070
     1
1040
166.5001966031852
1040
157.5000509653982
1040
166.5001966031852
1040
160.5002143479192
1070
     1
1040
166.5001966031852
1040
160.5002143479192
1040
168.0001921670017
1040
160.5002143479192
1070
     1
1040
168.0001921670017
1040
160.5002143479192
1040
168.0001921670017
1040
163.5002054755522
1070
     1
1040
168.0001921670017
1040
163.5002054755522
1040
166.5001966031852
1040
163.5002054755522
1070
     1
1040
166.5001966031852
1040
163.5002054755522
1040
166.5001966031852
1040
166.5001966031852
1070
     1
1040
166.5001966031852
1040
166.5001966031852
1040
168.0001921670017
1040
166.5001966031852
1071
        0
1071
        1
1071
        4
1070
     1
1040
153.0002365288366
1040
169.5001877308183
1040
150.0002454012035
1040
169.5001877308183
1070
     1
1040
150.0002454012035
1040
169.5001877308183
1040
150.0002454012035
1040
172.5001788584513
1070
     1
1040
150.0002454012035
1040
172.5001788584513
1040
153.0002365288366
1040
172.5001788584513
1070
     1
1040
153.0002365288366
1040
172.5001788584513
1040
153.0002365288366
1040
169.5001877308183
1071
        0
1071
        1
1071
        4
1070
     1
1040
162.0002099117357
1040
169.5001877308183
1040
159.0002187841026
1040
169.5001877308183
1070
     1
1040
159.0002187841026
1040
169.5001877308183
1040
159.0002187841026
1040
172.5001788584513
1070
     1
1040
159.0002187841026
1040
172.5001788584513
1040
162.0002099117357
1040
172.5001788584513
1070
     1
1040
162.0002099117357
1040
172.5001788584513
1040
162.0002099117357
1040
169.5001877308183
1071
        0
1070
     2
1070
     1
1071
        0
1002
}
  0
POLYLINE
  5
F9
330
1F
100
AcDbEntity
  8
LAYER_1
100
AcDb2dPolyline
 66
     1
 10
0.0
 20
0.0
 30
0.0
  0
VERTEX
  5
FA
330
F9
100
AcDbEntity
  8
LAYER_1
100
AcDbVertex
100
AcDb2dVertex
 10
118.4999940512808
 20
109.5003651781575
 30
0.0
  0
VERTEX
  5
FB
330
F9
100
AcDbEntity
  8
LAYER_1
100
AcDbVertex
100
AcDb2dVertex
 10
117.0003429972401
 20
109.5003651781575
 30
0.0
  0
VERTEX
  5
FC
330
F9
100
AcDbEntity
  8
LAYER_1
100
AcDbVertex
100
AcDb2dVertex
 10
117.0003429972401
 20
112.5003563057905
 30
0.0
  0
VERTEX
  5
FD
330
F9
100
AcDbEntity
  8
LAYER_1
100
AcDbVertex
100
AcDb2dVertex
 10
114.000351869607
 20
112.5003563057905
 30
0.0
  0
VERTEX
  5
FE
330
F9
100
AcDbEntity
  8
LAYER_1
100
AcDbVertex
100
AcDb2dVertex
 10
114.000351869607
 20
115.5003474334236
 30
0.0
  0
VERTEX
  5
FF
330
F9
100
AcDbEntity
  8
LAYER_1
100
AcDbVertex
100
AcDb2dVertex
 10
121.4999851789138
 20
115.5003474334236
 30
0.0
  0
VERTEX
  5
100
330
F9
100
AcDbEntity
  8
LAYER_1
100
AcDbVertex
100
AcDb2dVertex
 10
121.4999851789138
 20
124.5003208163227
 30
0.0
  0
VERTEX
  5
101
330
F9
100
AcDbEntity
  8
LAYER_1
100
AcDbVertex
100
AcDb2dVertex
 10
118.4999940512808
 20
124.5003208163227
 30
0.0
  0
VERTEX
  5
102
330
F9
100
AcDbEntity
  8
LAYER_1
100
AcDbVertex
100
AcDb2dVertex
 10
118.4999940512808
 20
127.5003119439557
 30
0.0
  0
VERTEX
  5
103
330
F9
100
AcDbEntity
  8
LAYER_1
100
AcDbVertex
100
AcDb2dVertex
 10
112.5000117960147
 20
127.5003119439557
 30
0.0
  0
VERTEX
  5
104
330
F9
100
AcDbEntity
  8
LAYER_1
100
AcDbVertex
100
AcDb2dVertex
 10
112.5000117960147
 20
130.5003030715887
 30
0.0
  0
VERTEX
  5
105
330
F9
100
AcDbEntity
  8
LAYER_1
100
AcDbVertex
100
AcDb2dVertex
 10
103.5000384131156
 20
130.5003030715887
 30
0.0
  0
VERTEX
  5
106
330
F9
100
AcDbEntity
  8
LAYER_1
100
AcDbVertex
100
AcDb2dVertex
 10
97.50005615784954
 20
130.5003030715887
 30
0.0
  0
VERTEX
  5
107
330
F9
100
AcDbEntity
  8
LAYER_1
100
AcDbVertex
100
AcDb2dVertex
 10
97.50005615784954
 20
127.5003119439557
 30
0.0
  0
VERTEX
  5
108
330
F9
100
AcDbEntity
  8
LAYER_1
100
AcDbVertex
100
AcDb2dVertex
 10
91.50007390258347
 20
127.5003119439557
 30
0.0
  0
VERTEX
  5
109
330
F9
100
AcDbEntity
  8
LAYER_1
100
AcDbVertex
100
AcDb2dVertex
 10
91.50007390258347
 20
124.5003208163227
 30
0.0
  0
VERTEX
  5
10A
330
F9
100
AcDbEntity
  8
LAYER_1
100
AcDbVertex
100
AcDb2dVertex
 10
88.50008277495043
 20
124.5003208163227
 30
0.0
  0
VERTEX
  5
10B
330
F9
100
AcDbEntity
  8
LAYER_1
100
AcDbVertex
100
AcDb2dVertex
 10
88.50008277495043
 20
115.5003474334236
 30
0.0
  0
VERTEX
  5
10C
330
F9
100
AcDbEntity
  8
LAYER_1
100
AcDbVertex
100
AcDb2dVertex
 10
96.00006059403302
 20
115.5003474334236
 30
0.0
  0
VERTEX
  5
10D
330
F9
100
AcDbEntity
  8
LAYER_1
100
AcDbVertex
100
AcDb2dVertex
 10
96.00006059403302
 20
112.5003563057905
 30
0.0
  0
VERTEX
  5
10E
330
F9
100
AcDbEntity
  8
LAYER_1
100
AcDbVertex
100
AcDb2dVertex
 10
93.00006946639998
 20
112.5003563057905
 30
0.0
  0
VERTEX
  5
10F
330
F9
100
AcDbEntity
  8
LAYER_1
100
AcDbVertex
100
AcDb2dVertex
 10
93.00006946639998
 20
109.5003651781575
 30
0.0
  0
VERTEX
  5
110
330
F9
100
AcDbEntity
  8
LAYER_1
100
AcDbVertex
100
AcDb2dVertex
 10
88.50008277495043
 20
109.5003651781575
 30
0.0
  0
VERTEX
  5
111
330
F9
100
AcDbEntity
  8
LAYER_1
100
AcDbVertex
100
AcDb2dVertex
 10
88.50008277495043
 20
106.5000295407487
 30
0.0
  0
VERTEX
  5
112
330
F9
100
AcDbEntity
  8
LAYER_1
100
AcDbVertex
100
AcDb2dVertex
 10
96.00006059403302
 20
106.5000295407487
 30
0.0
  0
VERTEX
  5
113
330
F9
100
AcDbEntity
  8
LAYER_1
100
AcDbVertex
100
AcDb2dVertex
 10
96.00006059403302
 20
109.5003651781575
 30
0.0
  0
VERTEX
  5
114
330
F9
100
AcDbEntity
  8
LAYER_1
100
AcDbVertex
100
AcDb2dVertex
 10
99.00005172166605
 20
109.5003651781575
 30
0.0
  0
VERTEX
  5
115
330
F9
100
AcDbEntity
  8
LAYER_1
100
AcDbVertex
100
AcDb2dVertex
 10
99.00005172166605
 20
112.5003563057905
 30
0.0
  0
VERTEX
  5
116
330
F9
100
AcDbEntity
  8
LAYER_1
100
AcDbVertex
100
AcDb2dVertex
 10
102.0000428492991
 20
112.5003563057905
 30
0.0
  0
VERTEX
  5
117
330
F9
100
AcDbEntity
  8
LAYER_1
100
AcDbVertex
100
AcDb2dVertex
 10
102.0000428492991
 20
109.5003651781575
 30
0.0
  0
VERTEX
  5
118
330
F9
100
AcDbEntity
  8
LAYER_1
100
AcDbVertex
100
AcDb2dVertex
 10
108.000369614341
 20
109.5003651781575
 30
0.0
  0
VERTEX
  5
119
330
F9
100
AcDbEntity
  8
LAYER_1
100
AcDbVertex
100
AcDb2dVertex
 10
108.0000251045652
 20
112.5003563057905
 30
0.0
  0
VERTEX
  5
11A
330
F9
100
AcDbEntity
  8
LAYER_1
100
AcDbVertex
100
AcDb2dVertex
 10
111.000360741974
 20
112.5003563057905
 30
0.0
  0
VERTEX
  5
11B
330
F9
100
AcDbEntity
  8
LAYER_1
100
AcDbVertex
100
AcDb2dVertex
 10
111.000360741974
 20
109.5003651781575
 30
0.0
  0
VERTEX
  5
11C
330
F9
100
AcDbEntity
  8
LAYER_1
100
AcDbVertex
100
AcDb2dVertex
 10
114.0000073598313
 20
109.5003651781575
 30
0.0
  0
VERTEX
  5
11D
330
F9
100
AcDbEntity
  8
LAYER_1
100
AcDbVertex
100
AcDb2dVertex
 10
114.0000073598313
 20
106.5000295407487
 30
0.0
  0
VERTEX
  5
11E
330
F9
100
AcDbEntity
  8
LAYER_1
100
AcDbVertex
100
AcDb2dVertex
 10
121.5003296886896
 20
106.5000295407487
 30
0.0
  0
VERTEX
  5
11F
330
F9
100
AcDbEntity
  8
LAYER_1
100
AcDbVertex
100
AcDb2dVertex
 10
121.5003296886896
 20
109.5003651781575
 30
0.0
  0
VERTEX
  5
120
330
F9
100
AcDbEntity
  8
LAYER_1
100
AcDbVertex
100
AcDb2dVertex
 10
118.4999940512808
 20
109.5003651781575
 30
0.0
  0
SEQEND
  5
121
330
F9
100
AcDbEntity
  8
LAYER_1
  0
POLYLINE
  5
122
330
1F
100
AcDbEntity
  8
LAYER_1
100
AcDb2dPolyline
 66
     1
 10
0.0
 20
0.0
 30
0.0
  0
VERTEX
  5
123
330
122
100
AcDbEntity
  8
LAYER_1
100
AcDbVertex
100
AcDb2dVertex
 10
102.0000428492991
 20
118.5003385610566
 30
0.0
  0
VERTEX
  5
124
330
122
100
AcDbEntity
  8
LAYER_1
100
AcDbVertex
100
AcDb2dVertex
 10
97.50005615784954
 20
118.5003385610566
 30
0.0
  0
VERTEX
  5
125
330
122
100
AcDbEntity
  8
LAYER_1
100
AcDbVertex
100
AcDb2dVertex
 10
97.50005615784954
 20
121.5003296886896
 30
0.0
  0
VERTEX
  5
126
330
122
100
AcDbEntity
  8
LAYER_1
100
AcDbVertex
100
AcDb2dVertex
 10
102.0000428492991
 20
121.5003296886896
 30
0.0
  0
VERTEX
  5
127
330
122
100
AcDbEntity
  8
LAYER_1
100
AcDbVertex
100
AcDb2dVertex
 10
102.0000428492991
 20
118.5003385610566
 30
0.0
  0
SEQEND
  5
128
330
122
100
AcDbEntity
  8
LAYER_1
  0
POLYLINE
  5
129
330
1F
100
AcDbEntity
  8
LAYER_1
100
AcDb2dPolyline
 66
     1
 10
0.0
 20
0.0
 30
0.0
  0
VERTEX
  5
12A
330
129
100
AcDbEntity
  8
LAYER_1
100
AcDbVertex
100
AcDb2dVertex
 10
112.5000117960147
 20
118.5003385610566
 30
0.0
  0
VERTEX
  5
12B
330
129
100
AcDbEntity
  8
LAYER_1
100
AcDbVertex
100
AcDb2dVertex
 10
108.0000251045652
 20
118.5003385610566
 30
0.0
  0
VERTEX
  5
12C
330
129
100
AcDbEntity
  8
LAYER_1
100
AcDbVertex
100
AcDb2dVertex
 10
108.0000251045652
 20
121.5003296886896
 30
0.0
  0
VERTEX
  5
12D
330
129
100
AcDbEntity
  8
LAYER_1
100
AcDbVertex
100
AcDb2dVertex
 10
112.5000117960147
 20
121.5003296886896
 30
0.0
  0
VERTEX
  5
12E
330
129
100
AcDbEntity
  8
LAYER_1
100
AcDbVertex
100
AcDb2dVertex
 10
112.5000117960147
 20
118.5003385610566
 30
0.0
  0
SEQEND
  5
12F
330
129
100
AcDbEntity
  8
LAYER_1
  0
INSERT
  5
130
330
1F
100
AcDbEntity
  8
LAYER_1
 62
   250
100
AcDbBlockReference
  2
*U4
 10
0.0
 20
0.0
 30
0.0
1001
ACAD
1002
{
1000
R14_HATCH_DATA
1000
130
1011
1.0
1021
0.0
1031
0.0
1011
0.0
1021
1.0
1031
0.0
1011
0.0
1021
0.0
1031
1.0
1040
0.0
1010
0.0
1020
0.0
1030
1.0
1000
SOLID
1070
     1
1070
     1
1071
        3
1071
        1
1071
       38
1070
     1
1040
118.4999940512808
1040
109.5003651781575
1040
117.0003429972401
1040
109.5003651781575
1070
     1
1040
117.0003429972401
1040
109.5003651781575
1040
117.0003429972401
1040
112.5003563057905
1070
     1
1040
117.0003429972401
1040
112.5003563057905
1040
114.000351869607
1040
112.5003563057905
1070
     1
1040
114.000351869607
1040
112.5003563057905
1040
114.000351869607
1040
115.5003474334236
1070
     1
1040
114.000351869607
1040
115.5003474334236
1040
121.4999851789138
1040
115.5003474334236
1070
     1
1040
121.4999851789138
1040
115.5003474334236
1040
121.4999851789138
1040
124.5003208163227
1070
     1
1040
121.4999851789138
1040
124.5003208163227
1040
118.4999940512808
1040
124.5003208163227
1070
     1
1040
118.4999940512808
1040
124.5003208163227
1040
118.4999940512808
1040
127.5003119439557
1070
     1
1040
118.4999940512808
1040
127.5003119439557
1040
112.5000117960147
1040
127.5003119439557
1070
     1
1040
112.5000117960147
1040
127.5003119439557
1040
112.5000117960147
1040
130.5003030715887
1070
     1
1040
112.5000117960147
1040
130.5003030715887
1040
103.5000384131156
1040
130.5003030715887
1070
     1
1040
103.5000384131156
1040
130.5003030715887
1040
97.50005615784954
1040
130.5003030715887
1070
     1
1040
97.50005615784954
1040
130.5003030715887
1040
97.50005615784954
1040
127.5003119439557
1070
     1
1040
97.50005615784954
1040
127.5003119439557
1040
91.50007390258347
1040
127.5003119439557
1070
     1
1040
91.50007390258347
1040
127.5003119439557
1040
91.50007390258347
1040
124.5003208163227
1070
     1
1040
91.50007390258347
1040
124.5003208163227
1040
88.50008277495043
1040
124.5003208163227
1070
     1
1040
88.50008277495043
1040
124.5003208163227
1040
88.50008277495043
1040
115.5003474334236
1070
     1
1040
88.50008277495043
1040
115.5003474334236
1040
96.00006059403302
1040
115.5003474334236
1070
     1
1040
96.00006059403302
1040
115.5003474334236
1040
96.00006059403302
1040
112.5003563057905
1070
     1
1040
96.00006059403302
1040
112.5003563057905
1040
93.00006946639998
1040
112.5003563057905
1070
     1
1040
93.00006946639998
1040
112.5003563057905
1040
93.00006946639998
1040
109.5003651781575
1070
     1
1040
93.00006946639998
1040
109.5003651781575
1040
88.50008277495043
1040
109.5003651781575
1070
     1
1040
88.50008277495043
1040
109.5003651781575
1040
88.50008277495043
1040
106.5000295407487
1070
     1
1040
88.50008277495043
1040
106.5000295407487
1040
96.00006059403302
1040
106.5000295407487
1070
     1
1040
96.00006059403302
1040
106.5000295407487
1040
96.00006059403302
1040
109.5003651781575
1070
     1
1040
96.00006059403302
1040
109.5003651781575
1040
99.00005172166605
1040
109.5003651781575
1070
     1
1040
99.00005172166605
1040
109.5003651781575
1040
99.00005172166605
1040
112.5003563057905
1070
     1
1040
99.00005172166605
1040
112.5003563057905
1040
102.0000428492991
1040
112.5003563057905
1070
     1
1040
102.0000428492991
1040
112.5003563057905
1040
102.0000428492991
1040
109.5003651781575
1070
     1
1040
102.0000428492991
1040
109.5003651781575
1040
108.000369614341
1040
109.5003651781575
1070
     1
1040
108.000369614341
1040
109.5003651781575
1040
108.0000251045652
1040
112.5003563057905
1070
     1
1040
108.0000251045652
1040
112.5003563057905
1040
111.000360741974
1040
112.5003563057905
1070
     1
1040
111.000360741974
1040
112.5003563057905
1040
111.000360741974
1040
109.5003651781575
1070
     1
1040
111.000360741974
1040
109.5003651781575
1040
114.0000073598313
1040
109.5003651781575
1070
     1
1040
114.0000073598313
1040
109.5003651781575
1040
114.0000073598313
1040
106.5000295407487
1070
     1
1040
114.0000073598313
1040
106.5000295407487
1040
121.5003296886896
1040
106.5000295407487
1070
     1
1040
121.5003296886896
1040
106.5000295407487
1040
121.5003296886896
1040
109.5003651781575
1070
     1
1040
121.5003296886896
1040
109.5003651781575
1040
118.4999940512808
1040
109.5003651781575
1071
        0
1071
        1
1071
        4
1070
     1
1040
102.0000428492991
1040
118.5003385610566
1040
97.50005615784954
1040
118.5003385610566
1070
     1
1040
97.50005615784954
1040
118.5003385610566
1040
97.50005615784954
1040
121.5003296886896
1070
     1
1040
97.50005615784954
1040
121.5003296886896
1040
102.0000428492991
1040
121.5003296886896
1070
     1
1040
102.0000428492991
1040
121.5003296886896
1040
102.0000428492991
1040
118.5003385610566
1071
        0
1071
        1
1071
        4
1070
     1
1040
112.5000117960147
1040
118.5003385610566
1040
108.0000251045652
1040
118.5003385610566
1070
     1
1040
108.0000251045652
1040
118.5003385610566
1040
108.0000251045652
1040
121.5003296886896
1070
     1
1040
108.0000251045652
1040
121.5003296886896
1040
112.5000117960147
1040
121.5003296886896
1070
     1
1040
112.5000117960147
1040
121.5003296886896
1040
112.5000117960147
1040
118.5003385610566
1071
        0
1070
     2
1070
     1
1071
        0
1002
}
  0
POLYLINE
  5
131
330
1F
100
AcDbEntity
  8
LAYER_1
100
AcDb2dPolyline
 66
     1
 10
0.0
 20
0.0
 30
0.0
  0
VERTEX
  5
132
330
131
100
AcDbEntity
  8
LAYER_1
100
AcDbVertex
100
AcDb2dVertex
 10
103.5000384131156
 20
66.00014931770264
 30
0.0
  0
VERTEX
  5
133
330
131
100
AcDbEntity
  8
LAYER_1
100
AcDbVertex
100
AcDb2dVertex
 10
103.5000384131156
 20
69.00014044533567
 30
0.0
  0
VERTEX
  5
134
330
131
100
AcDbEntity
  8
LAYER_1
100
AcDbVertex
100
AcDb2dVertex
 10
100.5000472854826
 20
69.00014044533567
 30
0.0
  0
VERTEX
  5
135
330
131
100
AcDbEntity
  8
LAYER_1
100
AcDbVertex
100
AcDb2dVertex
 10
100.5000472854826
 20
72.00013157296871
 30
0.0
  0
VERTEX
  5
136
330
131
100
AcDbEntity
  8
LAYER_1
100
AcDbVertex
100
AcDb2dVertex
 10
97.50005615784954
 20
72.00013157296871
 30
0.0
  0
VERTEX
  5
137
330
131
100
AcDbEntity
  8
LAYER_1
100
AcDbVertex
100
AcDb2dVertex
 10
97.50005615784954
 20
75.00012270060175
 30
0.0
  0
VERTEX
  5
138
330
131
100
AcDbEntity
  8
LAYER_1
100
AcDbVertex
100
AcDb2dVertex
 10
91.50007390258347
 20
75.00012270060175
 30
0.0
  0
VERTEX
  5
139
330
131
100
AcDbEntity
  8
LAYER_1
100
AcDbVertex
100
AcDb2dVertex
 10
91.50007390258347
 20
78.00011382823479
 30
0.0
  0
VERTEX
  5
13A
330
131
100
AcDbEntity
  8
LAYER_1
100
AcDbVertex
100
AcDb2dVertex
 10
73.50012713678524
 20
78.00011382823479
 30
0.0
  0
VERTEX
  5
13B
330
131
100
AcDbEntity
  8
LAYER_1
100
AcDbVertex
100
AcDb2dVertex
 10
73.50012713678524
 20
75.00012270060175
 30
0.0
  0
VERTEX
  5
13C
330
131
100
AcDbEntity
  8
LAYER_1
100
AcDbVertex
100
AcDb2dVertex
 10
67.50014488151916
 20
75.00012270060175
 30
0.0
  0
VERTEX
  5
13D
330
131
100
AcDbEntity
  8
LAYER_1
100
AcDbVertex
100
AcDb2dVertex
 10
67.50014488151916
 20
72.00013157296871
 30
0.0
  0
VERTEX
  5
13E
330
131
100
AcDbEntity
  8
LAYER_1
100
AcDbVertex
100
AcDb2dVertex
 10
64.50015375388612
 20
72.00013157296871
 30
0.0
  0
VERTEX
  5
13F
330
131
100
AcDbEntity
  8
LAYER_1
100
AcDbVertex
100
AcDb2dVertex
 10
64.50015375388612
 20
69.00014044533567
 30
0.0
  0
VERTEX
  5
140
330
131
100
AcDbEntity
  8
LAYER_1
100
AcDbVertex
100
AcDb2dVertex
 10
61.50016262625308
 20
69.00014044533567
 30
0.0
  0
VERTEX
  5
141
330
131
100
AcDbEntity
  8
LAYER_1
100
AcDbVertex
100
AcDb2dVertex
 10
61.50016262625308
 20
66.00014931770264
 30
0.0
  0
VERTEX
  5
142
330
131
100
AcDbEntity
  8
LAYER_1
100
AcDbVertex
100
AcDb2dVertex
 10
58.50017149862004
 20
66.00014931770264
 30
0.0
  0
VERTEX
  5
143
330
131
100
AcDbEntity
  8
LAYER_1
100
AcDbVertex
100
AcDb2dVertex
 10
58.50017149862004
 20
63.0001581900696
 30
0.0
  0
VERTEX
  5
144
330
131
100
AcDbEntity
  8
LAYER_1
100
AcDbVertex
100
AcDb2dVertex
 10
64.50015375388612
 20
63.0001581900696
 30
0.0
  0
VERTEX
  5
145
330
131
100
AcDbEntity
  8
LAYER_1
100
AcDbVertex
100
AcDb2dVertex
 10
64.50015375388612
 20
60.00016706243656
 30
0.0
  0
VERTEX
  5
146
330
131
100
AcDbEntity
  8
LAYER_1
100
AcDbVertex
100
AcDb2dVertex
 10
67.50014488151916
 20
60.00016706243656
 30
0.0
  0
VERTEX
  5
147
330
131
100
AcDbEntity
  8
LAYER_1
100
AcDbVertex
100
AcDb2dVertex
 10
67.50014488151916
 20
56.99983142502773
 30
0.0
  0
VERTEX
  5
148
330
131
100
AcDbEntity
  8
LAYER_1
100
AcDbVertex
100
AcDb2dVertex
 10
70.5001360091522
 20
56.99983142502773
 30
0.0
  0
VERTEX
  5
149
330
131
100
AcDbEntity
  8
LAYER_1
100
AcDbVertex
100
AcDb2dVertex
 10
70.5001360091522
 20
60.00016706243656
 30
0.0
  0
VERTEX
  5
14A
330
131
100
AcDbEntity
  8
LAYER_1
100
AcDbVertex
100
AcDb2dVertex
 10
73.50012713678524
 20
60.00016706243656
 30
0.0
  0
VERTEX
  5
14B
330
131
100
AcDbEntity
  8
LAYER_1
100
AcDbVertex
100
AcDb2dVertex
 10
73.50012713678524
 20
63.0001581900696
 30
0.0
  0
VERTEX
  5
14C
330
131
100
AcDbEntity
  8
LAYER_1
100
AcDbVertex
100
AcDb2dVertex
 10
79.50010939205131
 20
63.0001581900696
 30
0.0
  0
VERTEX
  5
14D
330
131
100
AcDbEntity
  8
LAYER_1
100
AcDbVertex
100
AcDb2dVertex
 10
79.50010939205131
 20
60.00016706243656
 30
0.0
  0
VERTEX
  5
14E
330
131
100
AcDbEntity
  8
LAYER_1
100
AcDbVertex
100
AcDb2dVertex
 10
85.50009164731739
 20
60.00016706243656
 30
0.0
  0
VERTEX
  5
14F
330
131
100
AcDbEntity
  8
LAYER_1
100
AcDbVertex
100
AcDb2dVertex
 10
85.50009164731739
 20
63.0001581900696
 30
0.0
  0
VERTEX
  5
150
330
131
100
AcDbEntity
  8
LAYER_1
100
AcDbVertex
100
AcDb2dVertex
 10
91.50007390258347
 20
63.0001581900696
 30
0.0
  0
VERTEX
  5
151
330
131
100
AcDbEntity
  8
LAYER_1
100
AcDbVertex
100
AcDb2dVertex
 10
91.50007390258347
 20
60.00016706243656
 30
0.0
  0
VERTEX
  5
152
330
131
100
AcDbEntity
  8
LAYER_1
100
AcDbVertex
100
AcDb2dVertex
 10
94.5000650302165
 20
60.00016706243656
 30
0.0
  0
VERTEX
  5
153
330
131
100
AcDbEntity
  8
LAYER_1
100
AcDbVertex
100
AcDb2dVertex
 10
94.5000650302165
 20
56.99983142502773
 30
0.0
  0
VERTEX
  5
154
330
131
100
AcDbEntity
  8
LAYER_1
100
AcDbVertex
100
AcDb2dVertex
 10
97.50005615784954
 20
56.99983142502773
 30
0.0
  0
VERTEX
  5
155
330
131
100
AcDbEntity
  8
LAYER_1
100
AcDbVertex
100
AcDb2dVertex
 10
97.50005615784954
 20
60.00016706243656
 30
0.0
  0
VERTEX
  5
156
330
131
100
AcDbEntity
  8
LAYER_1
100
AcDbVertex
100
AcDb2dVertex
 10
100.5000472854826
 20
60.00016706243656
 30
0.0
  0
VERTEX
  5
157
330
131
100
AcDbEntity
  8
LAYER_1
100
AcDbVertex
100
AcDb2dVertex
 10
100.5000472854826
 20
63.0001581900696
 30
0.0
  0
VERTEX
  5
158
330
131
100
AcDbEntity
  8
LAYER_1
100
AcDbVertex
100
AcDb2dVertex
 10
106.5000295407487
 20
63.0001581900696
 30
0.0
  0
VERTEX
  5
159
330
131
100
AcDbEntity
  8
LAYER_1
100
AcDbVertex
100
AcDb2dVertex
 10
106.5000295407487
 20
66.00014931770264
 30
0.0
  0
VERTEX
  5
15A
330
131
100
AcDbEntity
  8
LAYER_1
100
AcDbVertex
100
AcDb2dVertex
 10
103.5000384131156
 20
66.00014931770264
 30
0.0
  0
SEQEND
  5
15B
330
131
100
AcDbEntity
  8
LAYER_1
  0
POLYLINE
  5
15C
330
1F
100
AcDbEntity
  8
LAYER_1
100
AcDb2dPolyline
 66
     1
 10
0.0
 20
0.0
 30
0.0
  0
VERTEX
  5
15D
330
15C
100
AcDbEntity
  8
LAYER_1
100
AcDbVertex
100
AcDb2dVertex
 10
70.5001360091522
 20
66.00014931770264
 30
0.0
  0
VERTEX
  5
15E
330
15C
100
AcDbEntity
  8
LAYER_1
100
AcDbVertex
100
AcDb2dVertex
 10
67.50014488151916
 20
66.00014931770264
 30
0.0
  0
VERTEX
  5
15F
330
15C
100
AcDbEntity
  8
LAYER_1
100
AcDbVertex
100
AcDb2dVertex
 10
67.50014488151916
 20
69.00014044533567
 30
0.0
  0
VERTEX
  5
160
330
15C
100
AcDbEntity
  8
LAYER_1
100
AcDbVertex
100
AcDb2dVertex
 10
70.5001360091522
 20
69.00014044533567
 30
0.0
  0
VERTEX
  5
161
330
15C
100
AcDbEntity
  8
LAYER_1
100
AcDbVertex
100
AcDb2dVertex
 10
70.5001360091522
 20
66.00014931770264
 30
0.0
  0
SEQEND
  5
162
330
15C
100
AcDbEntity
  8
LAYER_1
  0
POLYLINE
  5
163
330
1F
100
AcDbEntity
  8
LAYER_1
100
AcDb2dPolyline
 66
     1
 10
0.0
 20
0.0
 30
0.0
  0
VERTEX
  5
164
330
163
100
AcDbEntity
  8
LAYER_1
100
AcDbVertex
100
AcDb2dVertex
 10
79.50010939205131
 20
66.00014931770264
 30
0.0
  0
VERTEX
  5
165
330
163
100
AcDbEntity
  8
LAYER_1
100
AcDbVertex
100
AcDb2dVertex
 10
76.50011826441828
 20
66.00014931770264
 30
0.0
  0
VERTEX
  5
166
330
163
100
AcDbEntity
  8
LAYER_1
100
AcDbVertex
100
AcDb2dVertex
 10
76.50011826441828
 20
69.00014044533567
 30
0.0
  0
VERTEX
  5
167
330
163
100
AcDbEntity
  8
LAYER_1
100
AcDbVertex
100
AcDb2dVertex
 10
79.50010939205131
 20
69.00014044533567
 30
0.0
  0
VERTEX
  5
168
330
163
100
AcDbEntity
  8
LAYER_1
100
AcDbVertex
100
AcDb2dVertex
 10
79.50010939205131
 20
66.00014931770264
 30
0.0
  0
SEQEND
  5
169
330
163
100
AcDbEntity
  8
LAYER_1
  0
POLYLINE
  5
16A
330
1F
100
AcDbEntity
  8
LAYER_1
100
AcDb2dPolyline
 66
     1
 10
0.0
 20
0.0
 30
0.0
  0
VERTEX
  5
16B
330
16A
100
AcDbEntity
  8
LAYER_1
100
AcDbVertex
100
AcDb2dVertex
 10
88.50008277495043
 20
66.00014931770264
 30
0.0
  0
VERTEX
  5
16C
330
16A
100
AcDbEntity
  8
LAYER_1
100
AcDbVertex
100
AcDb2dVertex
 10
85.50009164731739
 20
66.00014931770264
 30
0.0
  0
VERTEX
  5
16D
330
16A
100
AcDbEntity
  8
LAYER_1
100
AcDbVertex
100
AcDb2dVertex
 10
85.50009164731739
 20
69.00014044533567
 30
0.0
  0
VERTEX
  5
16E
330
16A
100
AcDbEntity
  8
LAYER_1
100
AcDbVertex
100
AcDb2dVertex
 10
88.50008277495043
 20
69.00014044533567
 30
0.0
  0
VERTEX
  5
16F
330
16A
100
AcDbEntity
  8
LAYER_1
100
AcDbVertex
100
AcDb2dVertex
 10
88.50008277495043
 20
66.00014931770264
 30
0.0
  0
SEQEND
  5
170
330
16A
100
AcDbEntity
  8
LAYER_1
  0
POLYLINE
  5
171
330
1F
100
AcDbEntity
  8
LAYER_1
100
AcDb2dPolyline
 66
     1
 10
0.0
 20
0.0
 30
0.0
  0
VERTEX
  5
172
330
171
100
AcDbEntity
  8
LAYER_1
100
AcDbVertex
100
AcDb2dVertex
 10
97.50005615784954
 20
66.00014931770264
 30
0.0
  0
VERTEX
  5
173
330
171
100
AcDbEntity
  8
LAYER_1
100
AcDbVertex
100
AcDb2dVertex
 10
94.5000650302165
 20
66.00014931770264
 30
0.0
  0
VERTEX
  5
174
330
171
100
AcDbEntity
  8
LAYER_1
100
AcDbVertex
100
AcDb2dVertex
 10
94.5000650302165
 20
69.00014044533567
 30
0.0
  0
VERTEX
  5
175
330
171
100
AcDbEntity
  8
LAYER_1
100
AcDbVertex
100
AcDb2dVertex
 10
97.50005615784954
 20
69.00014044533567
 30
0.0
  0
VERTEX
  5
176
330
171
100
AcDbEntity
  8
LAYER_1
100
AcDbVertex
100
AcDb2dVertex
 10
97.50005615784954
 20
66.00014931770264
 30
0.0
  0
SEQEND
  5
177
330
171
100
AcDbEntity
  8
LAYER_1
  0
INSERT
  5
178
330
1F
100
AcDbEntity
  8
LAYER_1
 62
   250
100
AcDbBlockReference
  2
*U5
 10
0.0
 20
0.0
 30
0.0
1001
ACAD
1002
{
1000
R14_HATCH_DATA
1000
178
1011
1.0
1021
0.0
1031
0.0
1011
0.0
1021
1.0
1031
0.0
1011
0.0
1021
0.0
1031
1.0
1040
0.0
1010
0.0
1020
0.0
1030
1.0
1000
SOLID
1070
     1
1070
     1
1071
        5
1071
        1
1071
       40
1070
     1
1040
103.5000384131156
1040
66.00014931770264
1040
103.5000384131156
1040
69.00014044533567
1070
     1
1040
103.5000384131156
1040
69.00014044533567
1040
100.5000472854826
1040
69.00014044533567
1070
     1
1040
100.5000472854826
1040
69.00014044533567
1040
100.5000472854826
1040
72.00013157296871
1070
     1
1040
100.5000472854826
1040
72.00013157296871
1040
97.50005615784954
1040
72.00013157296871
1070
     1
1040
97.50005615784954
1040
72.00013157296871
1040
97.50005615784954
1040
75.00012270060175
1070
     1
1040
97.50005615784954
1040
75.00012270060175
1040
91.50007390258347
1040
75.00012270060175
1070
     1
1040
91.50007390258347
1040
75.00012270060175
1040
91.50007390258347
1040
78.00011382823479
1070
     1
1040
91.50007390258347
1040
78.00011382823479
1040
73.50012713678524
1040
78.00011382823479
1070
     1
1040
73.50012713678524
1040
78.00011382823479
1040
73.50012713678524
1040
75.00012270060175
1070
     1
1040
73.50012713678524
1040
75.00012270060175
1040
67.50014488151916
1040
75.00012270060175
1070
     1
1040
67.50014488151916
1040
75.00012270060175
1040
67.50014488151916
1040
72.00013157296871
1070
     1
1040
67.50014488151916
1040
72.00013157296871
1040
64.50015375388612
1040
72.00013157296871
1070
     1
1040
64.50015375388612
1040
72.00013157296871
1040
64.50015375388612
1040
69.00014044533567
1070
     1
1040
64.50015375388612
1040
69.00014044533567
1040
61.50016262625308
1040
69.00014044533567
1070
     1
1040
61.50016262625308
1040
69.00014044533567
1040
61.50016262625308
1040
66.00014931770264
1070
     1
1040
61.50016262625308
1040
66.00014931770264
1040
58.50017149862004
1040
66.00014931770264
1070
     1
1040
58.50017149862004
1040
66.00014931770264
1040
58.50017149862004
1040
63.0001581900696
1070
     1
1040
58.50017149862004
1040
63.0001581900696
1040
64.50015375388612
1040
63.0001581900696
1070
     1
1040
64.50015375388612
1040
63.0001581900696
1040
64.50015375388612
1040
60.00016706243656
1070
     1
1040
64.50015375388612
1040
60.00016706243656
1040
67.50014488151916
1040
60.00016706243656
1070
     1
1040
67.50014488151916
1040
60.00016706243656
1040
67.50014488151916
1040
56.99983142502773
1070
     1
1040
67.50014488151916
1040
56.99983142502773
1040
70.5001360091522
1040
56.99983142502773
1070
     1
1040
70.5001360091522
1040
56.99983142502773
1040
70.5001360091522
1040
60.00016706243656
1070
     1
1040
70.5001360091522
1040
60.00016706243656
1040
73.50012713678524
1040
60.00016706243656
1070
     1
1040
73.50012713678524
1040
60.00016706243656
1040
73.50012713678524
1040
63.0001581900696
1070
     1
1040
73.50012713678524
1040
63.0001581900696
1040
79.50010939205131
1040
63.0001581900696
1070
     1
1040
79.50010939205131
1040
63.0001581900696
1040
79.50010939205131
1040
60.00016706243656
1070
     1
1040
79.50010939205131
1040
60.00016706243656
1040
85.50009164731739
1040
60.00016706243656
1070
     1
1040
85.50009164731739
1040
60.00016706243656
1040
85.50009164731739
1040
63.0001581900696
1070
     1
1040
85.50009164731739
1040
63.0001581900696
1040
91.50007390258347
1040
63.0001581900696
1070
     1
1040
91.50007390258347
1040
63.0001581900696
1040
91.50007390258347
1040
60.00016706243656
1070
     1
1040
91.50007390258347
1040
60.00016706243656
1040
94.5000650302165
1040
60.00016706243656
1070
     1
1040
94.5000650302165
1040
60.00016706243656
1040
94.5000650302165
1040
56.99983142502773
1070
     1
1040
94.5000650302165
1040
56.99983142502773
1040
97.50005615784954
1040
56.99983142502773
1070
     1
1040
97.50005615784954
1040
56.99983142502773
1040
97.50005615784954
1040
60.00016706243656
1070
     1
1040
97.50005615784954
1040
60.00016706243656
1040
100.5000472854826
1040
60.00016706243656
1070
     1
1040
100.5000472854826
1040
60.00016706243656
1040
100.5000472854826
1040
63.0001581900696
1070
     1
1040
100.5000472854826
1040
63.0001581900696
1040
106.5000295407487
1040
63.0001581900696
1070
     1
1040
106.5000295407487
1040
63.0001581900696
1040
106.5000295407487
1040
66.00014931770264
1070
     1
1040
106.5000295407487
1040
66.00014931770264
1040
103.5000384131156
1040
66.00014931770264
1071
        0
1071
        1
1071
        4
1070
     1
1040
70.5001360091522
1040
66.00014931770264
1040
67.50014488151916
1040
66.00014931770264
1070
     1
1040
67.50014488151916
1040
66.00014931770264
1040
67.50014488151916
1040
69.00014044533567
1070
     1
1040
67.50014488151916
1040
69.00014044533567
1040
70.5001360091522
1040
69.00014044533567
1070
     1
1040
70.5001360091522
1040
69.00014044533567
1040
70.5001360091522
1040
66.00014931770264
1071
        0
1071
        1
1071
        4
1070
     1
1040
79.50010939205131
1040
66.00014931770264
1040
76.50011826441828
1040
66.00014931770264
1070
     1
1040
76.50011826441828
1040
66.00014931770264
1040
76.50011826441828
1040
69.00014044533567
1070
     1
1040
76.50011826441828
1040
69.00014044533567
1040
79.50010939205131
1040
69.00014044533567
1070
     1
1040
79.50010939205131
1040
69.00014044533567
1040
79.50010939205131
1040
66.00014931770264
1071
        0
1071
        1
1071
        4
1070
     1
1040
88.50008277495043
1040
66.00014931770264
1040
85.50009164731739
1040
66.00014931770264
1070
     1
1040
85.50009164731739
1040
66.00014931770264
1040
85.50009164731739
1040
69.00014044533567
1070
     1
1040
85.50009164731739
1040
69.00014044533567
1040
88.50008277495043
1040
69.00014044533567
1070
     1
1040
88.50008277495043
1040
69.00014044533567
1040
88.50008277495043
1040
66.00014931770264
1071
        0
1071
        1
1071
        4
1070
     1
1040
97.50005615784954
1040
66.00014931770264
1040
94.5000650302165
1040
66.00014931770264
1070
     1
1040
94.5000650302165
1040
66.00014931770264
1040
94.5000650302165
1040
69.00014044533567
1070
     1
1040
94.5000650302165
1040
69.00014044533567
1040
97.50005615784954
1040
69.00014044533567
1070
     1
1040
97.50005615784954
1040
69.00014044533567
1040
97.50005615784954
1040
66.00014931770264
1071
        0
1070
     2
1070
     1
1071
        0
1002
}
  0
ENDSEC
  0
SECTION
  2
OBJECTS
  0
DICTIONARY
  5
C
330
0
100
AcDbDictionary
  3
ACAD_GROUP
350
D
  3
ACAD_LAYOUT
350
1A
  3
ACAD_MLINESTYLE
350
17
  3
ACAD_PLOTSETTINGS
350
19
  3
ACAD_TABLESTYLE
350
179
  3
ACAD_VISUALSTYLE
350
2A
1001
ACAD
1000
TREAT_AS_HARD
1070
     0
  0
DICTIONARY
  5
D
102
{ACAD_REACTORS
330
C
102
}
330
C
100
AcDbDictionary
1001
ACAD
1000
TREAT_AS_HARD
1070
     0
  0
DICTIONARY
  5
1A
102
{ACAD_REACTORS
330
C
102
}
330
C
100
AcDbDictionary
1001
ACAD
1000
TREAT_AS_HARD
1070
     0
  0
DICTIONARY
  5
17
102
{ACAD_REACTORS
330
C
102
}
330
C
100
AcDbDictionary
  3
STANDARD
350
18
1001
ACAD
1000
TREAT_AS_HARD
1070
     0
  0
DICTIONARY
  5
19
102
{ACAD_REACTORS
330
C
102
}
330
C
100
AcDbDictionary
1001
ACAD
1000
TREAT_AS_HARD
1070
     0
  0
DICTIONARY
  5
179
102
{ACAD_REACTORS
330
C
102
}
330
C
100
AcDbDictionary
1001
ACAD
1000
TREAT_AS_HARD
1070
     0
  0
DICTIONARY
  5
2A
102
{ACAD_REACTORS
330
C
102
}
330
C
100
AcDbDictionary
  3
2DWIREFRAME
350
2F
  3
3D_HIDDEN
350
31
  3
3DWIREFRAME
350
30
  3
BASIC
350
32
  3
BRIGHTEN
350
36
  3
COLORCHANGE
350
3A
  3
CONCEPTUAL
350
34
  3
DIM
350
35
  3
FACEPATTERN
350
39
  3
FLAT
350
2B
  3
FLATWITHEDGES
350
2C
  3
GOURAUD
350
2D
  3
GOURAUDWITHEDGES
350
2E
  3
LINEPATTERN
350
38
  3
REALISTIC
350
33
  3
THICKEN
350
37
1001
ACAD
1000
TREAT_AS_HARD
1070
     0
  0
MLINESTYLE
  5
18
102
{ACAD_REACTORS
330
17
102
}
330
17
100
AcDbMlineStyle
  2
Standard
 70
     0
  3

 62
   256
 51
90.0
 52
90.0
 71
     2
 49
0.5
 62
   256
  6
BYLAYER
 49
-0.5
 62
   256
  6
BYLAYER
  0
VISUALSTYLE
  5
2F
102
{ACAD_REACTORS
330
2A
102
}
330
2A
100
AcDbVisualStyle
  2
2dWireframe
 70
     4
 71
     0
 72
     2
 73
     0
 90
        0
 40
-0.6
 41
-30.0
 62
     5
 63
     7
 74
     1
 91
        4
 64
     7
 65
   257
 75
     1
175
     1
 42
1.0
 92
        0
 66
   257
 43
1.0
 76
     1
 77
     6
 78
     2
 67
     7
 79
     5
170
     0
171
     0
290
     0
174
     0
 93
        1
 44
0.0
173
     0
291
     0
 45
0.0
1001
ACAD
1000
AcDbSavedByObjectVersion
1070
     0
  0
VISUALSTYLE
  5
31
102
{ACAD_REACTORS
330
2A
102
}
330
2A
100
AcDbVisualStyle
  2
3D Hidden
 70
     6
 71
     1
 72
     2
 73
     2
 90
        0
 40
-0.6
 41
-30.0
 62
     5
 63
     7
 74
     2
 91
        2
 64
     7
 65
   257
 75
     2
175
     1
 42
40.0
 92
        0
 66
   257
 43
1.0
 76
     1
 77
     6
 78
     2
 67
     7
 79
     3
170
     0
171
     0
290
     0
174
     0
 93
        1
 44
0.0
173
     0
291
     0
 45
0.0
1001
ACAD
1000
AcDbSavedByObjectVersion
1070
     0
  0
VISUALSTYLE
  5
30
102
{ACAD_REACTORS
330
2A
102
}
330
2A
100
AcDbVisualStyle
  2
3dWireframe
 70
     5
 71
     0
 72
     2
 73
     0
 90
        0
 40
-0.6
 41
-30.0
 62
     5
 63
     7
 74
     1
 91
        4
 64
     7
 65
   257
 75
     1
175
     1
 42
1.0
 92
        0
 66
   257
 43
1.0
 76
     1
 77
     6
 78
     2
 67
     7
 79
     5
170
     0
171
     0
290
     0
174
     0
 93
        1
 44
0.0
173
     0
291
     0
 45
0.0
1001
ACAD
1000
AcDbSavedByObjectVersion
1070
     0
  0
VISUALSTYLE
  5
32
102
{ACAD_REACTORS
330
2A
102
}
330
2A
100
AcDbVisualStyle
  2
Basic
 70
     7
 71
     1
 72
     0
 73
     1
 90
        0
 40
-0.6
 41
-30.0
 62
     5
 63
     7
 74
     0
 91
        4
 64
     7
 65
   257
 75
     1
175
     1
 42
1.0
 92
        8
 66
     7
 43
1.0
 76
     1
 77
     6
 78
     2
 67
     7
 79
     5
170
     0
171
     0
290
     0
174
     0
 93
        1
 44
0.0
173
     0
291
     1
 45
0.0
1001
ACAD
1000
AcDbSavedByObjectVersion
1070
     0
  0
VISUALSTYLE
  5
36
102
{ACAD_REACTORS
330
2A
102
}
330
2A
100
AcDbVisualStyle
  2
Brighten
 70
    12
 71
     2
 72
     2
 73
     0
 90
        0
 40
-0.6
 41
-30.0
 62
     5
 63
     7
 74
     1
 91
        4
 64
     7
 65
   257
 75
     1
175
     1
 42
1.0
 92
        8
 66
     7
 43
1.0
 76
     1
 77
     6
 78
     2
 67
     7
 79
     5
170
     0
171
     0
290
     0
174
     0
 93
        1
 44
50.0
173
     0
291
     1
 45
0.0
1001
ACAD
1000
AcDbSavedByObjectVersion
1070
     0
  0
VISUALSTYLE
  5
3A
102
{ACAD_REACTORS
330
2A
102
}
330
2A
100
AcDbVisualStyle
  2
ColorChange
 70
    16
 71
     2
 72
     2
 73
     3
 90
        0
 40
-0.6
 41
-30.0
 62
     5
 63
     8
 74
     1
 91
        4
 64
     7
 65
   257
 75
     1
175
     1
 42
1.0
 92
        8
 66
     8
 43
1.0
 76
     1
 77
     6
 78
     2
 67
     7
 79
     5
170
     0
171
     0
290
     0
174
     0
 93
        1
 44
0.0
173
     0
291
     1
 45
0.0
1001
ACAD
1000
AcDbSavedByObjectVersion
1070
     0
  0
VISUALSTYLE
  5
34
102
{ACAD_REACTORS
330
2A
102
}
330
2A
100
AcDbVisualStyle
  2
Conceptual
 70
     9
 71
     3
 72
     2
 73
     0
 90
        0
 40
-0.6
 41
-30.0
 62
     5
 63
     7
 74
     2
 91
        2
 64
     7
 65
   257
 75
     1
175
     1
 42
40.0
 92
        8
 66
     7
 43
1.0
 76
     1
 77
     6
 78
     2
 67
     7
 79
     3
170
     0
171
     0
290
     0
174
     0
 93
        1
 44
0.0
173
     0
291
     0
 45
0.0
1001
ACAD
1000
AcDbSavedByObjectVersion
1070
     0
  0
VISUALSTYLE
  5
35
102
{ACAD_REACTORS
330
2A
102
}
330
2A
100
AcDbVisualStyle
  2
Dim
 70
    11
 71
     2
 72
     2
 73
     0
 90
        0
 40
-0.6
 41
-30.0
 62
     5
 63
     7
 74
     1
 91
        4
 64
     7
 65
   257
 75
     1
175
     1
 42
1.0
 92
        8
 66
     7
 43
1.0
 76
     1
 77
     6
 78
     2
 67
     7
 79
     5
170
     0
171
     0
290
     0
174
     0
 93
        1
 44
-50.0
173
     0
291
     1
 45
0.0
1001
ACAD
1000
AcDbSavedByObjectVersion
1070
     0
  0
VISUALSTYLE
  5
39
102
{ACAD_REACTORS
330
2A
102
}
330
2A
100
AcDbVisualStyle
  2
Facepattern
 70
    15
 71
     2
 72
     2
 73
     0
 90
        0
 40
-0.6
 41
-30.0
 62
     5
 63
     7
 74
     1
 91
        4
 64
     7
 65
   257
 75
     1
175
     1
 42
1.0
 92
        8
 66
     7
 43
1.0
 76
     1
 77
     6
 78
     2
 67
     7
 79
     5
170
     0
171
     0
290
     0
174
     0
 93
        1
 44
0.0
173
     0
291
     1
 45
0.0
1001
ACAD
1000
AcDbSavedByObjectVersion
1070
     0
  0
VISUALSTYLE
  5
2B
102
{ACAD_REACTORS
330
2A
102
}
330
2A
100
AcDbVisualStyle
  2
Flat
 70
     0
 71
     2
 72
     1
 73
     1
 90
        2
 40
-0.6
 41
30.0
 62
     5
 63
     7
 74
     0
 91
        4
 64
     7
 65
   257
 75
     1
175
     1
 42
1.0
 92
        8
 66
     7
 43
1.0
 76
     1
 77
     6
 78
     2
 67
     7
 79
     5
170
     0
171
     0
290
     0
174
     0
 93
       13
 44
0.0
173
     0
291
     1
 45
0.0
1001
ACAD
1000
AcDbSavedByObjectVersion
1070
     0
  0
VISUALSTYLE
  5
2C
102
{ACAD_REACTORS
330
2A
102
}
330
2A
100
AcDbVisualStyle
  2
FlatWithEdges
 70
     1
 71
     2
 72
     1
 73
     1
 90
        2
 40
-0.6
 41
30.0
 62
     5
 63
     7
 74
     1
 91
        4
 64
     7
 65
   257
 75
     1
175
     1
 42
1.0
 92
        0
 66
   257
 43
1.0
 76
     1
 77
     6
 78
     2
 67
     7
 79
     5
170
     0
171
     0
290
     0
174
     0
 93
       13
 44
0.0
173
     0
291
     1
 45
0.0
1001
ACAD
1000
AcDbSavedByObjectVersion
1070
     0
  0
VISUALSTYLE
  5
2D
102
{ACAD_REACTORS
330
2A
102
}
330
2A
100
AcDbVisualStyle
  2
Gouraud
 70
     2
 71
     2
 72
     2
 73
     1
 90
        2
 40
-0.6
 41
30.0
 62
     5
 63
     7
 74
     0
 91
        4
 64
     7
 65
   257
 75
     1
175
     1
 42
1.0
 92
        0
 66
     7
 43
1.0
 76
     1
 77
     6
 78
     2
 67
     7
 79
     5
170
     0
171
     0
290
     0
174
     0
 93
       13
 44
0.0
173
     0
291
     1
 45
0.0
1001
ACAD
1000
AcDbSavedByObjectVersion
1070
     0
  0
VISUALSTYLE
  5
2E
102
{ACAD_REACTORS
330
2A
102
}
330
2A
100
AcDbVisualStyle
  2
GouraudWithEdges
 70
     3
 71
     2
 72
     2
 73
     1
 90
        2
 40
-0.6
 41
30.0
 62
     5
 63
     7
 74
     1
 91
        4
 64
     7
 65
   257
 75
     1
175
     1
 42
1.0
 92
        0
 66
   257
 43
1.0
 76
     1
 77
     6
 78
     2
 67
     7
 79
     5
170
     0
171
     0
290
     0
174
     0
 93
       13
 44
0.0
173
     0
291
     1
 45
0.0
1001
ACAD
1000
AcDbSavedByObjectVersion
1070
     0
  0
VISUALSTYLE
  5
38
102
{ACAD_REACTORS
330
2A
102
}
330
2A
100
AcDbVisualStyle
  2
Linepattern
 70
    14
 71
     2
 72
     2
 73
     0
 90
        0
 40
-0.6
 41
-30.0
 62
     5
 63
     7
 74
     1
 91
        4
 64
     7
 65
   257
 75
     7
175
     7
 42
1.0
 92
        8
 66
     7
 43
1.0
 76
     1
 77
     6
 78
     2
 67
     7
 79
     5
170
     0
171
     0
290
     0
174
     0
 93
        1
 44
0.0
173
     0
291
     1
 45
0.0
1001
ACAD
1000
AcDbSavedByObjectVersion
1070
     0
  0
VISUALSTYLE
  5
33
102
{ACAD_REACTORS
330
2A
102
}
330
2A
100
AcDbVisualStyle
  2
Realistic
 70
     8
 71
     2
 72
     2
 73
     0
 90
        0
 40
-0.6
 41
-30.0
 62
     5
 63
     7
 74
     1
 91
        0
 64
     7
 65
   257
 75
     1
175
     1
 42
1.0
 92
        8
 66
     8
 43
1.0
 76
     1
 77
     6
 78
     2
 67
     7
 79
     5
170
     0
171
     0
290
     0
174
     0
 93
       13
 44
0.0
173
     0
291
     0
 45
0.0
1001
ACAD
1000
AcDbSavedByObjectVersion
1070
     0
  0
VISUALSTYLE
  5
37
102
{ACAD_REACTORS
330
2A
102
}
330
2A
100
AcDbVisualStyle
  2
Thicken
 70
    13
 71
     2
 72
     2
 73
     0
 90
        0
 40
-0.6
 41
-30.0
 62
     5
 63
     7
 74
     1
 91
        4
 64
     7
 65
   257
 75
     1
175
     1
 42
1.0
 92
       12
 66
     7
 43
1.0
 76
     1
 77
     6
 78
     2
 67
     7
 79
     5
170
     0
171
     0
290
     0
174
     0
 93
        1
 44
0.0
173
     0
291
     1
 45
0.0
1001
ACAD
1000
AcDbSavedByObjectVersion
1070
     0
  0
ENDSEC
  0
EOF
