999
DXF created by Inkscape
  0
SECTION
  2
HEADER
  9
$ACADVER
  1
AC1014
  9
$HANDSEED
  5
FFFF
  9
$MEASUREMENT
 70
     1
  0
ENDSEC
  0
SECTION
  2
TABLES
  0
TABLE
  2
VPORT
  5
8
330
0
100
AcDbSymbolTable
 70
     4
  0
VPORT
  5
2E
330
8
100
AcDbSymbolTableRecord
100
AcDbViewportTableRecord
  2
*ACTIVE
 70
     0
 10
0.0
 20
0.0
 11
1.0
 21
1.0
 12
210.0
 22
148.5
 13
0.0
 23
0.0
 14
10.0
 24
10.0
 15
10.0
 25
10.0
 16
0.0
 26
0.0
 36
1.0
 17
0.0
 27
0.0
 37
0.0
 40
341.0
 41
1.24
 42
50.0
 43
0.0
 44
0.0
 50
0.0
 51
0.0
 71
     0
 72
   100
 73
     1
 74
     3
 75
     0
 76
     0
 77
     0
 78
     0
  0
ENDTAB
  0
TABLE
  2
LTYPE
  5
5
330
0
100
AcDbSymbolTable
 70
     1
  0
LTYPE
  5
14
330
5
100
AcDbSymbolTableRecord
100
AcDbLinetypeTableRecord
  2
BYBLOCK
 70
     0
  3

 72
    65
 73
     0
 40
0.0
  0
LTYPE
  5
15
330
5
100
AcDbSymbolTableRecord
100
AcDbLinetypeTableRecord
  2
BYLAYER
 70
     0
  3

 72
    65
 73
     0
 40
0.0
  0
LTYPE
  5
16
330
5
100
AcDbSymbolTableRecord
100
AcDbLinetypeTableRecord
  2
CONTINUOUS
 70
     0
  3
Solid line
 72
    65
 73
     0
 40
0.0
  0
ENDTAB
  0
TABLE
  2
LAYER
  5
2
100
AcDbSymbolTable
 70
1
  0
LAYER
  5
50
100
AcDbSymbolTableRecord
100
AcDbLayerTableRecord
  2
0
 70
0
  6
CONTINUOUS
  0
ENDTAB
  0
TABLE
  2
STYLE
  5
3
330
0
100
AcDbSymbolTable
 70
     1
  0
STYLE
  5
11
330
3
100
AcDbSymbolTableRecord
100
AcDbTextStyleTableRecord
  2
STANDARD
 70
     0
 40
0.0
 41
1.0
 50
0.0
 71
     0
 42
2.5
  3
txt
  4

  0
ENDTAB
  0
TABLE
  2
VIEW
  5
6
330
0
100
AcDbSymbolTable
 70
     0
  0
ENDTAB
  0
TABLE
  2
UCS
  5
7
330
0
100
AcDbSymbolTable
 70
     0
  0
ENDTAB
  0
TABLE
  2
APPID
  5
9
330
0
100
AcDbSymbolTable
 70
     2
  0
APPID
  5
12
330
9
100
AcDbSymbolTableRecord
100
AcDbRegAppTableRecord
  2
ACAD
 70
     0
  0
ENDTAB
  0
TABLE
  2
DIMSTYLE
  5
A
330
0
100
AcDbSymbolTable
 70
     1
  0
DIMSTYLE
105
27
330
A
100
AcDbSymbolTableRecord
100
AcDbDimStyleTableRecord
  2
ISO-25
 70
     0
  3

  4

  5

  6

  7

 40
1.0
 41
2.5
 42
0.625
 43
3.75
 44
1.25
 45
0.0
 46
0.0
 47
0.0
 48
0.0
140
2.5
141
2.5
142
0.0
143
0.03937007874016
144
1.0
145
0.0
146
1.0
147
0.625
 71
     0
 72
     0
 73
     0
 74
     0
 75
     0
 76
     0
 77
     1
 78
     8
170
     0
171
     3
172
     1
173
     0
174
     0
175
     0
176
     0
177
     0
178
     0
270
     2
271
     2
272
     2
273
     2
274
     3
340
11
275
     0
280
     0
281
     0
282
     0
283
     0
284
     8
285
     0
286
     0
287
     3
288
     0
  0
ENDTAB
  0
TABLE
  2
BLOCK_RECORD
  5
1
330
0
100
AcDbSymbolTable
 70
     1
  0
BLOCK_RECORD
  5
1F
330
1
100
AcDbSymbolTableRecord
100
AcDbBlockTableRecord
  2
*MODEL_SPACE
  0
BLOCK_RECORD
  5
1B
330
1
100
AcDbSymbolTableRecord
100
AcDbBlockTableRecord
  2
*PAPER_SPACE
  0
ENDTAB
  0
ENDSEC
  0
SECTION
  2
BLOCKS
  0
BLOCK
  5
20
330
1F
100
AcDbEntity
  8
0
100
AcDbBlockBegin
  2
*MODEL_SPACE
 70
     0
 10
0.0
 20
0.0
 30
0.0
  3
*MODEL_SPACE
  1

  0
ENDBLK
  5
21
330
1F
100
AcDbEntity
  8
0
100
AcDbBlockEnd
  0
BLOCK
  5
1C
330
1B
100
AcDbEntity
 67
     1
  8
0
100
AcDbBlockBegin
  2
*PAPER_SPACE
  1

  0
ENDBLK
  5
1D
330
1B
100
AcDbEntity
 67
     1
  8
0
100
AcDbBlockEnd
  0
ENDSEC
  0
SECTION
  2
ENTITIES
  0
LWPOLYLINE
  5
100
100
AcDbEntity
  8
0
 62
7
100
AcDbPolyline
 90
41
 70
0
 10
3.333747
 20
56.044520
 30
0.0
 10
3.371591
 20
56.221967
 30
0.0
 10
3.390215
 20
56.377833
 30
0.0
 10
3.389284
 20
56.513283
 30
0.0
 10
3.368459
 20
56.629482
 30
0.0
 10
3.327405
 20
56.727591
 30
0.0
 10
3.265785
 20
56.808781
 30
0.0
 10
3.183263
 20
56.874214
 30
0.0
 10
3.079504
 20
56.925053
 30
0.0
 10
2.870852
 20
57.060359
 30
0.0
 10
2.826763
 20
57.275243
 30
0.0
 10
2.979264
 20
57.605785
 30
0.0
 10
3.360382
 20
58.088068
 30
0.0
 10
4.002146
 20
58.758177
 30
0.0
 10
4.936582
 20
59.652195
 30
0.0
 10
6.195719
 20
60.806202
 30
0.0
 10
7.811583
 20
62.256288
 30
0.0
 10
9.523032
 20
63.804037
 30
0.0
 10
11.195632
 20
65.358914
 30
0.0
 10
12.827147
 20
66.918692
 30
0.0
 10
14.415341
 20
68.481130
 30
0.0
 10
15.957976
 20
70.044001
 30
0.0
 10
17.452818
 20
71.605071
 30
0.0
 10
18.897628
 20
73.162111
 30
0.0
 10
20.290171
 20
74.712882
 30
0.0
 10
21.382504
 20
75.857118
 30
0.0
 10
22.443641
 20
76.776824
 30
0.0
 10
23.479597
 20
77.474192
 30
0.0
 10
24.496387
 20
77.951413
 30
0.0
 10
25.500027
 20
78.210685
 30
0.0
 10
26.496532
 20
78.254198
 30
0.0
 10
27.491919
 20
78.084142
 30
0.0
 10
28.492202
 20
77.702716
 30
0.0
 10
28.742632
 20
77.572245
 30
0.0
 10
29.008169
 20
77.417223
 30
0.0
 10
29.280722
 20
77.243422
 30
0.0
 10
29.552197
 20
77.056619
 30
0.0
 10
29.814500
 20
76.862583
 30
0.0
 10
30.059537
 20
76.667096
 30
0.0
 10
30.279213
 20
76.475927
 30
0.0
 10
30.465440
 20
76.294853
 30
0.0
  0
LWPOLYLINE
  5
101
100
AcDbEntity
  8
0
 62
7
100
AcDbPolyline
 90
129
 70
0
 10
37.998239
 20
78.903425
 30
0.0
 10
39.347513
 20
79.600852
 30
0.0
 10
40.603466
 20
80.258924
 30
0.0
 10
41.738810
 20
80.862710
 30
0.0
 10
42.726260
 20
81.397273
 30
0.0
 10
43.538524
 20
81.847680
 30
0.0
 10
44.148313
 20
82.198999
 30
0.0
 10
44.528345
 20
82.436288
 30
0.0
 10
44.651326
 20
82.544622
 30
0.0
 10
44.559305
 20
82.643025
 30
0.0
 10
44.323135
 20
82.851866
 30
0.0
 10
43.958730
 20
83.158202
 30
0.0
 10
43.482012
 20
83.549096
 30
0.0
 10
42.908897
 20
84.011605
 30
0.0
 10
42.255302
 20
84.532790
 30
0.0
 10
41.537148
 20
85.099715
 30
0.0
 10
40.770350
 20
85.699435
 30
0.0
 10
36.140746
 20
89.494666
 30
0.0
 10
31.806749
 20
93.441894
 30
0.0
 10
27.766262
 20
97.543647
 30
0.0
 10
24.017189
 20
101.802448
 30
0.0
 10
20.557429
 20
106.220823
 30
0.0
 10
17.384884
 20
110.801301
 30
0.0
 10
14.497457
 20
115.546408
 30
0.0
 10
11.893047
 20
120.458666
 30
0.0
 10
9.133911
 20
126.559238
 30
0.0
 10
6.782778
 20
132.825277
 30
0.0
 10
4.847674
 20
139.216504
 30
0.0
 10
3.336626
 20
145.692637
 30
0.0
 10
2.257661
 20
152.213399
 30
0.0
 10
1.618806
 20
158.738506
 30
0.0
 10
1.428088
 20
165.227684
 30
0.0
 10
1.693533
 20
171.640648
 30
0.0
 10
2.982868
 20
181.701994
 30
0.0
 10
5.243394
 20
191.460985
 30
0.0
 10
8.449911
 20
200.869230
 30
0.0
 10
12.577216
 20
209.878333
 30
0.0
 10
17.600109
 20
218.439900
 30
0.0
 10
23.493389
 20
226.505540
 30
0.0
 10
30.231853
 20
234.026861
 30
0.0
 10
37.790301
 20
240.955470
 30
0.0
 10
39.653992
 20
242.462297
 30
0.0
 10
41.602505
 20
243.953870
 30
0.0
 10
43.648483
 20
245.438691
 30
0.0
 10
45.804576
 20
246.925272
 30
0.0
 10
48.083433
 20
248.422122
 30
0.0
 10
50.497700
 20
249.937745
 30
0.0
 10
53.060027
 20
251.480657
 30
0.0
 10
55.783062
 20
253.059357
 30
0.0
 10
56.152869
 20
253.300497
 30
0.0
 10
56.575308
 20
253.633920
 30
0.0
 10
57.054953
 20
254.064277
 30
0.0
 10
57.596371
 20
254.596232
 30
0.0
 10
58.204140
 20
255.234433
 30
0.0
 10
58.882825
 20
255.983538
 30
0.0
 10
59.636999
 20
256.848199
 30
0.0
 10
60.471236
 20
257.833073
 30
0.0
 10
61.190200
 20
258.681526
 30
0.0
 10
61.944747
 20
259.552582
 30
0.0
 10
62.712369
 20
260.421488
 30
0.0
 10
63.470559
 20
261.263495
 30
0.0
 10
64.196807
 20
262.053853
 30
0.0
 10
64.868608
 20
262.767810
 30
0.0
 10
65.463454
 20
263.380614
 30
0.0
 10
65.958836
 20
263.867518
 30
0.0
 10
67.194117
 20
264.985896
 30
0.0
 10
68.791139
 20
266.354680
 30
0.0
 10
70.607027
 20
267.859921
 30
0.0
 10
72.498904
 20
269.387680
 30
0.0
 10
74.323891
 20
270.824017
 30
0.0
 10
75.939111
 20
272.054990
 30
0.0
 10
77.201686
 20
272.966658
 30
0.0
 10
77.968737
 20
273.445081
 30
0.0
 10
78.414045
 20
273.624929
 30
0.0
 10
78.830452
 20
273.726575
 30
0.0
 10
79.221104
 20
273.749164
 30
0.0
 10
79.589128
 20
273.691842
 30
0.0
 10
79.937666
 20
273.553752
 30
0.0
 10
80.269856
 20
273.334039
 30
0.0
 10
80.588829
 20
273.031847
 30
0.0
 10
80.897724
 20
272.646321
 30
0.0
 10
81.091126
 20
272.355121
 30
0.0
 10
81.243780
 20
272.066508
 30
0.0
 10
81.360899
 20
271.751504
 30
0.0
 10
81.447702
 20
271.381133
 30
0.0
 10
81.509404
 20
270.926419
 30
0.0
 10
81.551221
 20
270.358383
 30
0.0
 10
81.578371
 20
269.648049
 30
0.0
 10
81.596066
 20
268.766441
 30
0.0
 10
81.630935
 20
267.230139
 30
0.0
 10
81.686355
 20
265.928555
 30
0.0
 10
81.763286
 20
264.855250
 30
0.0
 10
81.862690
 20
264.003786
 30
0.0
 10
81.985530
 20
263.367719
 30
0.0
 10
82.132765
 20
262.940615
 30
0.0
 10
82.305358
 20
262.716034
 30
0.0
 10
82.504272
 20
262.687535
 30
0.0
 10
83.126413
 20
262.831621
 30
0.0
 10
84.259804
 20
263.045565
 30
0.0
 10
85.767192
 20
263.307250
 30
0.0
 10
87.511328
 20
263.594563
 30
0.0
 10
89.354965
 20
263.885385
 30
0.0
 10
91.160846
 20
264.157597
 30
0.0
 10
92.791726
 20
264.389087
 30
0.0
 10
94.110350
 20
264.557737
 30
0.0
 10
96.204761
 20
264.725555
 30
0.0
 10
98.966497
 20
264.837671
 30
0.0
 10
102.173267
 20
264.895447
 30
0.0
 10
105.602786
 20
264.900245
 30
0.0
 10
109.032771
 20
264.853424
 30
0.0
 10
112.240929
 20
264.756345
 30
0.0
 10
115.004977
 20
264.610374
 30
0.0
 10
117.102625
 20
264.416869
 30
0.0
 10
123.822186
 20
263.360991
 30
0.0
 10
130.373557
 20
261.939409
 30
0.0
 10
136.752632
 20
260.153693
 30
0.0
 10
142.955292
 20
258.005406
 30
0.0
 10
148.977435
 20
255.496115
 30
0.0
 10
154.814947
 20
252.627385
 30
0.0
 10
160.463715
 20
249.400781
 30
0.0
 10
165.919633
 20
245.817871
 30
0.0
 10
167.680773
 20
244.556473
 30
0.0
 10
169.358541
 20
243.300158
 30
0.0
 10
170.981119
 20
242.025075
 30
0.0
 10
172.576685
 20
240.707369
 30
0.0
 10
174.173425
 20
239.323187
 30
0.0
 10
175.799519
 20
237.848680
 30
0.0
 10
177.483146
 20
236.259992
 30
0.0
 10
179.252491
 20
234.533275
 30
0.0
  0
LWPOLYLINE
  5
102
100
AcDbEntity
  8
0
 62
7
100
AcDbPolyline
 90
17
 70
0
 10
30.465440
 20
76.294853
 30
0.0
 10
30.566532
 20
76.189336
 30
0.0
 10
30.667624
 20
76.083819
 30
0.0
 10
30.768716
 20
75.978302
 30
0.0
 10
30.869805
 20
75.872782
 30
0.0
 10
30.970897
 20
75.767264
 30
0.0
 10
31.071989
 20
75.661747
 30
0.0
 10
31.173081
 20
75.556230
 30
0.0
 10
31.274173
 20
75.450715
 30
0.0
 10
32.114682
 20
75.882304
 30
0.0
 10
32.955190
 20
76.313892
 30
0.0
 10
33.795699
 20
76.745480
 30
0.0
 10
34.636205
 20
77.177069
 30
0.0
 10
35.476713
 20
77.608660
 30
0.0
 10
36.317222
 20
78.040248
 30
0.0
 10
37.157731
 20
78.471837
 30
0.0
 10
37.998239
 20
78.903425
 30
0.0
  0
LWPOLYLINE
  5
103
100
AcDbEntity
  8
0
 62
7
100
AcDbPolyline
 90
129
 70
0
 10
184.755824
 20
231.713531
 30
0.0
 10
185.443089
 20
232.222899
 30
0.0
 10
186.067542
 20
232.653559
 30
0.0
 10
186.635833
 20
233.008829
 30
0.0
 10
187.154611
 20
233.292045
 30
0.0
 10
187.630531
 20
233.506531
 30
0.0
 10
188.070239
 20
233.655615
 30
0.0
 10
188.480390
 20
233.742624
 30
0.0
 10
188.867635
 20
233.770888
 30
0.0
 10
189.075890
 20
233.785761
 30
0.0
 10
189.285321
 20
233.830922
 30
0.0
 10
189.497343
 20
233.907170
 30
0.0
 10
189.713359
 20
234.015304
 30
0.0
 10
189.934779
 20
234.156127
 30
0.0
 10
190.163010
 20
234.330439
 30
0.0
 10
190.399461
 20
234.539046
 30
0.0
 10
190.645539
 20
234.782745
 30
0.0
 10
191.540251
 20
235.598921
 30
0.0
 10
192.403191
 20
236.166867
 30
0.0
 10
193.215204
 20
236.487867
 30
0.0
 10
193.957132
 20
236.563212
 30
0.0
 10
194.609816
 20
236.394186
 30
0.0
 10
195.154101
 20
235.982074
 30
0.0
 10
195.570831
 20
235.328168
 30
0.0
 10
195.840847
 20
234.433752
 30
0.0
 10
195.911845
 20
233.759230
 30
0.0
 10
195.877696
 20
233.011962
 30
0.0
 10
195.731116
 20
232.169153
 30
0.0
 10
195.464817
 20
231.208011
 30
0.0
 10
195.071512
 20
230.105747
 30
0.0
 10
194.543920
 20
228.839563
 30
0.0
 10
193.874751
 20
227.386672
 30
0.0
 10
193.056719
 20
225.724278
 30
0.0
 10
192.305378
 20
224.229756
 30
0.0
 10
191.743779
 20
223.090552
 30
0.0
 10
191.351679
 20
222.248455
 30
0.0
 10
191.108844
 20
221.645258
 30
0.0
 10
190.995032
 20
221.222755
 30
0.0
 10
190.990008
 20
220.922738
 30
0.0
 10
191.073524
 20
220.686998
 30
0.0
 10
191.225342
 20
220.457329
 30
0.0
 10
191.865687
 20
219.522552
 30
0.0
 10
192.662957
 20
218.271690
 30
0.0
 10
193.570058
 20
216.785533
 30
0.0
 10
194.539904
 20
215.144879
 30
0.0
 10
195.525410
 20
213.430517
 30
0.0
 10
196.479485
 20
211.723239
 30
0.0
 10
197.355045
 20
210.103840
 30
0.0
 10
198.105003
 20
208.653110
 30
0.0
 10
199.874372
 20
204.962409
 30
0.0
 10
201.462533
 20
201.303592
 30
0.0
 10
202.879147
 20
197.646198
 30
0.0
 10
204.133876
 20
193.959755
 30
0.0
 10
205.236383
 20
190.213803
 30
0.0
 10
206.196331
 20
186.377872
 30
0.0
 10
207.023380
 20
182.421500
 30
0.0
 10
207.727194
 20
178.314222
 30
0.0
 10
208.081163
 20
175.613360
 30
0.0
 10
208.352424
 20
172.690134
 30
0.0
 10
208.539616
 20
169.617840
 30
0.0
 10
208.641380
 20
166.469778
 30
0.0
 10
208.656366
 20
163.319241
 30
0.0
 10
208.583200
 20
160.239528
 30
0.0
 10
208.420533
 20
157.303934
 30
0.0
 10
208.167001
 20
154.585759
 30
0.0
 10
207.376118
 20
148.957759
 30
0.0
 10
206.324598
 20
143.493268
 30
0.0
 10
205.008847
 20
138.181654
 30
0.0
 10
203.425281
 20
133.012269
 30
0.0
 10
201.570319
 20
127.974472
 30
0.0
 10
199.440371
 20
123.057628
 30
0.0
 10
197.031856
 20
118.251090
 30
0.0
 10
194.341186
 20
113.544222
 30
0.0
 10
191.841380
 20
109.654034
 30
0.0
 10
189.110612
 20
105.819794
 30
0.0
 10
186.173779
 20
102.069317
 30
0.0
 10
183.055791
 20
98.430406
 30
0.0
 10
179.781547
 20
94.930873
 30
0.0
 10
176.375952
 20
91.598531
 30
0.0
 10
172.863905
 20
88.461185
 30
0.0
 10
169.270313
 20
85.546651
 30
0.0
 10
168.608211
 20
85.034056
 30
0.0
 10
168.114867
 20
84.638838
 30
0.0
 10
167.772489
 20
84.335635
 30
0.0
 10
167.563278
 20
84.099097
 30
0.0
 10
167.469442
 20
83.903875
 30
0.0
 10
167.473195
 20
83.724613
 30
0.0
 10
167.556722
 20
83.535959
 30
0.0
 10
167.702238
 20
83.312560
 30
0.0
 10
168.260564
 20
82.561587
 30
0.0
 10
169.213781
 20
81.346634
 30
0.0
 10
170.456885
 20
79.796204
 30
0.0
 10
171.884882
 20
78.038800
 30
0.0
 10
173.392781
 20
76.202920
 30
0.0
 10
174.875591
 20
74.417065
 30
0.0
 10
176.228319
 20
72.809739
 30
0.0
 10
177.345972
 20
71.509440
 30
0.0
 10
177.866850
 20
70.904169
 30
0.0
 10
178.359223
 20
70.313831
 30
0.0
 10
178.811863
 20
69.753182
 30
0.0
 10
179.213524
 20
69.236978
 30
0.0
 10
179.552975
 20
68.779976
 30
0.0
 10
179.818975
 20
68.396929
 30
0.0
 10
180.000292
 20
68.102597
 30
0.0
 10
180.085684
 20
67.911736
 30
0.0
 10
180.157151
 20
67.461989
 30
0.0
 10
180.136464
 20
67.068986
 30
0.0
 10
180.029536
 20
66.738637
 30
0.0
 10
179.842259
 20
66.476839
 30
0.0
 10
179.580534
 20
66.289494
 30
0.0
 10
179.250261
 20
66.182509
 30
0.0
 10
178.857343
 20
66.161794
 30
0.0
 10
178.407678
 20
66.233233
 30
0.0
 10
178.216896
 20
66.316991
 30
0.0
 10
177.922620
 20
66.493699
 30
0.0
 10
177.539605
 20
66.752426
 30
0.0
 10
177.082614
 20
67.082259
 30
0.0
 10
176.566401
 20
67.472285
 30
0.0
 10
176.005719
 20
67.911589
 30
0.0
 10
175.415329
 20
68.389259
 30
0.0
 10
174.809983
 20
68.894380
 30
0.0
 10
174.106702
 20
69.480973
 30
0.0
 10
173.235626
 20
70.192170
 30
0.0
 10
172.231194
 20
71.000683
 30
0.0
 10
171.127838
 20
71.879219
 30
0.0
 10
169.959999
 20
72.800491
 30
0.0
 10
168.762116
 20
73.737209
 30
0.0
 10
167.568618
 20
74.662082
 30
0.0
 10
166.413948
 20
75.547825
 30
0.0
  0
LWPOLYLINE
  5
104
100
AcDbEntity
  8
0
 62
7
100
AcDbPolyline
 90
17
 70
0
 10
179.252491
 20
234.533275
 30
0.0
 10
179.752899
 20
234.037791
 30
0.0
 10
180.253304
 20
233.542305
 30
0.0
 10
180.753712
 20
233.046819
 30
0.0
 10
181.254118
 20
232.551333
 30
0.0
 10
181.754526
 20
232.055849
 30
0.0
 10
182.254931
 20
231.560363
 30
0.0
 10
182.755340
 20
231.064877
 30
0.0
 10
183.255745
 20
230.569393
 30
0.0
 10
183.443256
 20
230.712409
 30
0.0
 10
183.630765
 20
230.855425
 30
0.0
 10
183.818276
 20
230.998444
 30
0.0
 10
184.005784
 20
231.141460
 30
0.0
 10
184.193296
 20
231.284477
 30
0.0
 10
184.380804
 20
231.427495
 30
0.0
 10
184.568313
 20
231.570512
 30
0.0
 10
184.755824
 20
231.713531
 30
0.0
  0
LWPOLYLINE
  5
105
100
AcDbEntity
  8
0
 62
7
100
AcDbPolyline
 90
33
 70
0
 10
157.631074
 20
77.854600
 30
0.0
 10
153.309551
 20
75.559823
 30
0.0
 10
149.043542
 20
73.503455
 30
0.0
 10
144.796739
 20
71.672657
 30
0.0
 10
140.532835
 20
70.054576
 30
0.0
 10
136.215521
 20
68.636367
 30
0.0
 10
131.808488
 20
67.405184
 30
0.0
 10
127.275429
 20
66.348180
 30
0.0
 10
122.580036
 20
65.452508
 30
0.0
 10
121.709042
 20
65.306912
 30
0.0
 10
120.788354
 20
65.159186
 30
0.0
 10
119.845850
 20
65.013415
 30
0.0
 10
118.909417
 20
64.873684
 30
0.0
 10
118.006938
 20
64.744076
 30
0.0
 10
117.166291
 20
64.628676
 30
0.0
 10
116.415360
 20
64.531566
 30
0.0
 10
115.782028
 20
64.456828
 30
0.0
 10
113.816192
 20
64.311201
 30
0.0
 10
111.161452
 20
64.213558
 30
0.0
 10
108.045992
 20
64.162741
 30
0.0
 10
104.697990
 20
64.157576
 30
0.0
 10
101.345625
 20
64.196912
 30
0.0
 10
98.217081
 20
64.279578
 30
0.0
 10
95.540539
 20
64.404413
 30
0.0
 10
93.544176
 20
64.570247
 30
0.0
 10
88.016444
 20
65.346068
 30
0.0
 10
82.651786
 20
66.356790
 30
0.0
 10
77.425101
 20
67.610514
 30
0.0
 10
72.311280
 20
69.115335
 30
0.0
 10
67.285221
 20
70.879345
 30
0.0
 10
62.321818
 20
72.910634
 30
0.0
 10
57.395971
 20
75.217301
 30
0.0
 10
52.482572
 20
77.807432
 30
0.0
  0
LWPOLYLINE
  5
106
100
AcDbEntity
  8
0
 62
7
100
AcDbPolyline
 90
17
 70
0
 10
166.413948
 20
75.547825
 30
0.0
 10
165.732869
 20
76.067264
 30
0.0
 10
165.051794
 20
76.586705
 30
0.0
 10
164.370715
 20
77.106146
 30
0.0
 10
163.689637
 20
77.625588
 30
0.0
 10
163.008558
 20
78.145029
 30
0.0
 10
162.327483
 20
78.664470
 30
0.0
 10
161.646404
 20
79.183911
 30
0.0
 10
160.965326
 20
79.703350
 30
0.0
 10
160.548546
 20
79.472258
 30
0.0
 10
160.131763
 20
79.241163
 30
0.0
 10
159.714983
 20
79.010071
 30
0.0
 10
159.298200
 20
78.778976
 30
0.0
 10
158.881420
 20
78.547881
 30
0.0
 10
158.464637
 20
78.316789
 30
0.0
 10
158.047857
 20
78.085695
 30
0.0
 10
157.631074
 20
77.854600
 30
0.0
  0
LWPOLYLINE
  5
107
100
AcDbEntity
  8
0
 62
7
100
AcDbPolyline
 90
41
 70
0
 10
34.753976
 20
69.417253
 30
0.0
 10
35.043593
 20
67.977606
 30
0.0
 10
35.127413
 20
66.681123
 30
0.0
 10
35.004460
 20
65.525685
 30
0.0
 10
34.673766
 20
64.509174
 30
0.0
 10
34.134354
 20
63.629474
 30
0.0
 10
33.385258
 20
62.884461
 30
0.0
 10
32.425499
 20
62.272016
 30
0.0
 10
31.254110
 20
61.790028
 30
0.0
 10
30.869848
 20
61.681116
 30
0.0
 10
30.292511
 20
61.540199
 30
0.0
 10
29.550383
 20
61.373172
 30
0.0
 10
28.671749
 20
61.185926
 30
0.0
 10
27.684898
 20
60.984363
 30
0.0
 10
26.618112
 20
60.774372
 30
0.0
 10
25.499678
 20
60.561851
 30
0.0
 10
24.357880
 20
60.352696
 30
0.0
 10
22.355108
 20
59.983069
 30
0.0
 10
20.509143
 20
59.619418
 30
0.0
 10
18.758833
 20
59.247079
 30
0.0
 10
17.043024
 20
58.851389
 30
0.0
 10
15.300562
 20
58.417676
 30
0.0
 10
13.470295
 20
57.931277
 30
0.0
 10
11.491070
 20
57.377523
 30
0.0
 10
9.301733
 20
56.741750
 30
0.0
 10
8.593091
 20
56.537133
 30
0.0
 10
7.877548
 20
56.338079
 30
0.0
 10
7.174657
 20
56.149526
 30
0.0
 10
6.503972
 20
55.976417
 30
0.0
 10
5.885046
 20
55.823692
 30
0.0
 10
5.337434
 20
55.696292
 30
0.0
 10
4.880688
 20
55.599156
 30
0.0
 10
4.534362
 20
55.537223
 30
0.0
 10
4.081461
 20
55.470810
 30
0.0
 10
3.742758
 20
55.429795
 30
0.0
 10
3.504414
 20
55.420030
 30
0.0
 10
3.352591
 20
55.447349
 30
0.0
 10
3.273451
 20
55.517614
 30
0.0
 10
3.253157
 20
55.636664
 30
0.0
 10
3.277868
 20
55.810352
 30
0.0
 10
3.333747
 20
56.044523
 30
0.0
  0
LWPOLYLINE
  5
108
100
AcDbEntity
  8
0
 62
7
100
AcDbPolyline
 90
33
 70
0
 10
52.482572
 20
77.807432
 30
0.0
 10
52.200350
 20
77.964435
 30
0.0
 10
51.918128
 20
78.121438
 30
0.0
 10
51.635906
 20
78.278441
 30
0.0
 10
51.353683
 20
78.435447
 30
0.0
 10
51.071461
 20
78.592450
 30
0.0
 10
50.789239
 20
78.749453
 30
0.0
 10
50.507017
 20
78.906456
 30
0.0
 10
50.224794
 20
79.063459
 30
0.0
 10
49.234623
 20
78.550184
 30
0.0
 10
48.244450
 20
78.036910
 30
0.0
 10
47.254279
 20
77.523638
 30
0.0
 10
46.264108
 20
77.010363
 30
0.0
 10
45.273936
 20
76.497088
 30
0.0
 10
44.283765
 20
75.983816
 30
0.0
 10
43.293592
 20
75.470542
 30
0.0
 10
42.303421
 20
74.957267
 30
0.0
 10
41.313250
 20
74.443995
 30
0.0
 10
40.323079
 20
73.930720
 30
0.0
 10
39.332908
 20
73.417448
 30
0.0
 10
38.342737
 20
72.904174
 30
0.0
 10
37.352563
 20
72.390899
 30
0.0
 10
36.362392
 20
71.877627
 30
0.0
 10
35.372221
 20
71.364352
 30
0.0
 10
34.382050
 20
70.851080
 30
0.0
 10
34.428540
 20
70.671849
 30
0.0
 10
34.475031
 20
70.492621
 30
0.0
 10
34.521521
 20
70.313393
 30
0.0
 10
34.568011
 20
70.134165
 30
0.0
 10
34.614505
 20
69.954937
 30
0.0
 10
34.660995
 20
69.775709
 30
0.0
 10
34.707486
 20
69.596481
 30
0.0
 10
34.753976
 20
69.417253
 30
0.0
  0
LWPOLYLINE
  5
109
100
AcDbEntity
  8
0
 62
7
100
AcDbPolyline
 90
73
 70
0
 10
108.738978
 20
90.049222
 30
0.0
 10
108.928428
 20
91.631986
 30
0.0
 10
109.115682
 20
93.236622
 30
0.0
 10
109.295884
 20
94.818850
 30
0.0
 10
109.464190
 20
96.334398
 30
0.0
 10
109.615746
 20
97.738984
 30
0.0
 10
109.745704
 20
98.988334
 30
0.0
 10
109.849214
 20
100.038172
 30
0.0
 10
109.921427
 20
100.844222
 30
0.0
 10
110.024054
 20
102.299407
 30
0.0
 10
110.102537
 20
103.823359
 30
0.0
 10
110.156013
 20
105.335083
 30
0.0
 10
110.183614
 20
106.753579
 30
0.0
 10
110.184461
 20
107.997849
 30
0.0
 10
110.157706
 20
108.986897
 30
0.0
 10
110.102492
 20
109.639722
 30
0.0
 10
110.017941
 20
109.875330
 30
0.0
 10
109.485052
 20
109.631363
 30
0.0
 10
108.137751
 20
108.964579
 30
0.0
 10
106.167767
 20
107.972650
 30
0.0
 10
103.766798
 20
106.753249
 30
0.0
 10
101.126538
 20
105.404052
 30
0.0
 10
98.438688
 20
104.022732
 30
0.0
 10
95.894948
 20
102.706964
 30
0.0
 10
93.687017
 20
101.554422
 30
0.0
 10
93.168676
 20
101.282645
 30
0.0
 10
92.559838
 20
100.964420
 30
0.0
 10
91.882787
 20
100.611337
 30
0.0
 10
91.159804
 20
100.234988
 30
0.0
 10
90.413177
 20
99.846958
 30
0.0
 10
89.665183
 20
99.458841
 30
0.0
 10
88.938111
 20
99.082224
 30
0.0
 10
88.254239
 20
98.728698
 30
0.0
 10
87.616448
 20
98.393847
 30
0.0
 10
87.021447
 20
98.070750
 30
0.0
 10
86.482253
 20
97.767249
 30
0.0
 10
86.011896
 20
97.491176
 30
0.0
 10
85.623392
 20
97.250370
 30
0.0
 10
85.329768
 20
97.052670
 30
0.0
 10
85.144040
 20
96.905909
 30
0.0
 10
85.079239
 20
96.817929
 30
0.0
 10
85.178733
 20
96.572675
 30
0.0
 10
85.470495
 20
96.058452
 30
0.0
 10
85.944459
 20
95.290734
 30
0.0
 10
86.590542
 20
94.284996
 30
0.0
 10
87.398677
 20
93.056711
 30
0.0
 10
88.358791
 20
91.621355
 30
0.0
 10
89.460807
 20
89.994405
 30
0.0
 10
90.694651
 20
88.191339
 30
0.0
 10
91.156793
 20
87.506281
 30
0.0
 10
91.560371
 20
86.881187
 30
0.0
 10
91.904439
 20
86.317792
 30
0.0
 10
92.188058
 20
85.817838
 30
0.0
 10
92.410288
 20
85.383061
 30
0.0
 10
92.570190
 20
85.015198
 30
0.0
 10
92.666820
 20
84.715989
 30
0.0
 10
92.699239
 20
84.487172
 30
0.0
 10
92.710387
 20
84.183676
 30
0.0
 10
92.776480
 20
83.948283
 30
0.0
 10
92.946578
 20
83.765293
 30
0.0
 10
93.269726
 20
83.619005
 30
0.0
 10
93.794967
 20
83.493721
 30
0.0
 10
94.571349
 20
83.373743
 30
0.0
 10
95.647908
 20
83.243371
 30
0.0
 10
97.073697
 20
83.086907
 30
0.0
 10
98.451312
 20
82.939767
 30
0.0
 10
99.581679
 20
82.824688
 30
0.0
 10
100.532952
 20
82.737022
 30
0.0
 10
101.373280
 20
82.672122
 30
0.0
 10
102.170820
 20
82.625338
 30
0.0
 10
102.993735
 20
82.592024
 30
0.0
 10
103.910178
 20
82.567527
 30
0.0
 10
104.988309
 20
82.547207
 30
0.0
  0
LWPOLYLINE
  5
10a
100
AcDbEntity
  8
0
 62
7
100
AcDbPolyline
 90
9
 70
0
 10
3.333747
 20
56.044520
 30
0.0
 10
3.333747
 20
56.044520
 30
0.0
 10
3.333747
 20
56.044520
 30
0.0
 10
3.333747
 20
56.044520
 30
0.0
 10
3.333747
 20
56.044520
 30
0.0
 10
3.333747
 20
56.044520
 30
0.0
 10
3.333747
 20
56.044520
 30
0.0
 10
3.333747
 20
56.044520
 30
0.0
 10
3.333747
 20
56.044520
 30
0.0
  0
LWPOLYLINE
  5
10b
100
AcDbEntity
  8
0
 62
7
100
AcDbPolyline
 90
9
 70
0
 10
118.099239
 20
83.642701
 30
0.0
 10
121.305439
 20
84.200124
 30
0.0
 10
124.594137
 20
84.905067
 30
0.0
 10
127.911507
 20
85.741001
 30
0.0
 10
131.203731
 20
86.691387
 30
0.0
 10
134.416983
 20
87.739687
 30
0.0
 10
137.497439
 20
88.869366
 30
0.0
 10
140.391281
 20
90.063889
 30
0.0
 10
143.044683
 20
91.306719
 30
0.0
  0
LWPOLYLINE
  5
10c
100
AcDbEntity
  8
0
 62
7
100
AcDbPolyline
 90
25
 70
0
 10
104.988309
 20
82.547216
 30
0.0
 10
105.342636
 20
82.541289
 30
0.0
 10
105.696964
 20
82.535362
 30
0.0
 10
106.051294
 20
82.529436
 30
0.0
 10
106.405621
 20
82.523509
 30
0.0
 10
106.759948
 20
82.517582
 30
0.0
 10
107.114275
 20
82.511656
 30
0.0
 10
107.468605
 20
82.505729
 30
0.0
 10
107.822932
 20
82.499802
 30
0.0
 10
107.937438
 20
83.443483
 30
0.0
 10
108.051944
 20
84.387164
 30
0.0
 10
108.166450
 20
85.330844
 30
0.0
 10
108.280956
 20
86.274525
 30
0.0
 10
108.395460
 20
87.218205
 30
0.0
 10
108.509966
 20
88.161886
 30
0.0
 10
108.624472
 20
89.105566
 30
0.0
 10
108.738978
 20
90.049247
 30
0.0
 10
108.738978
 20
90.049247
 30
0.0
 10
108.738978
 20
90.049247
 30
0.0
 10
108.738978
 20
90.049247
 30
0.0
 10
108.738978
 20
90.049247
 30
0.0
 10
108.738978
 20
90.049247
 30
0.0
 10
108.738978
 20
90.049247
 30
0.0
 10
108.738978
 20
90.049247
 30
0.0
 10
108.738978
 20
90.049247
 30
0.0
  0
LWPOLYLINE
  5
10d
100
AcDbEntity
  8
0
 62
7
100
AcDbPolyline
 90
113
 70
0
 10
143.729473
 20
93.458813
 30
0.0
 10
142.851564
 20
94.065182
 30
0.0
 10
142.043381
 20
94.658613
 30
0.0
 10
141.302706
 20
95.241080
 30
0.0
 10
140.627309
 20
95.814553
 30
0.0
 10
140.014966
 20
96.381001
 30
0.0
 10
139.463450
 20
96.942392
 30
0.0
 10
138.970540
 20
97.500695
 30
0.0
 10
138.534005
 20
98.057884
 30
0.0
 10
138.321627
 20
98.334377
 30
0.0
 10
138.104959
 20
98.592785
 30
0.0
 10
137.890067
 20
98.827416
 30
0.0
 10
137.683023
 20
99.032583
 30
0.0
 10
137.489890
 20
99.202600
 30
0.0
 10
137.316738
 20
99.331776
 30
0.0
 10
137.169635
 20
99.414419
 30
0.0
 10
137.054646
 20
99.444848
 30
0.0
 10
136.932083
 20
99.457209
 30
0.0
 10
136.763272
 20
99.488082
 30
0.0
 10
136.555796
 20
99.535407
 30
0.0
 10
136.317253
 20
99.597127
 30
0.0
 10
136.055227
 20
99.671179
 30
0.0
 10
135.777311
 20
99.755507
 30
0.0
 10
135.491093
 20
99.848050
 30
0.0
 10
135.204163
 20
99.946758
 30
0.0
 10
134.441342
 20
100.153906
 30
0.0
 10
133.603351
 20
100.255749
 30
0.0
 10
132.676643
 20
100.250161
 30
0.0
 10
131.647675
 20
100.135006
 30
0.0
 10
130.502900
 20
99.908152
 30
0.0
 10
129.228777
 20
99.567471
 30
0.0
 10
127.811761
 20
99.110832
 30
0.0
 10
126.238305
 20
98.536104
 30
0.0
 10
126.005169
 20
98.432997
 30
0.0
 10
125.738193
 20
98.291203
 30
0.0
 10
125.446759
 20
98.117080
 30
0.0
 10
125.140249
 20
97.916996
 30
0.0
 10
124.828040
 20
97.697311
 30
0.0
 10
124.519518
 20
97.464396
 30
0.0
 10
124.224062
 20
97.224609
 30
0.0
 10
123.951055
 20
96.984319
 30
0.0
 10
123.686677
 20
96.748153
 30
0.0
 10
123.415961
 20
96.520188
 30
0.0
 10
123.146549
 20
96.305961
 30
0.0
 10
122.886089
 20
96.111011
 30
0.0
 10
122.642226
 20
95.940867
 30
0.0
 10
122.422612
 20
95.801066
 30
0.0
 10
122.234887
 20
95.697149
 30
0.0
 10
122.086703
 20
95.634645
 30
0.0
 10
121.953246
 20
95.574433
 30
0.0
 10
121.807729
 20
95.477072
 30
0.0
 10
121.654841
 20
95.347642
 30
0.0
 10
121.499269
 20
95.191214
 30
0.0
 10
121.345703
 20
95.012870
 30
0.0
 10
121.198826
 20
94.817682
 30
0.0
 10
121.063329
 20
94.610726
 30
0.0
 10
120.943895
 20
94.397078
 30
0.0
 10
120.813322
 20
94.155984
 30
0.0
 10
120.645896
 20
93.870361
 30
0.0
 10
120.448544
 20
93.550798
 30
0.0
 10
120.228193
 20
93.207889
 30
0.0
 10
119.991765
 20
92.852227
 30
0.0
 10
119.746189
 20
92.494406
 30
0.0
 10
119.498389
 20
92.145012
 30
0.0
 10
119.255294
 20
91.814643
 30
0.0
 10
119.023068
 20
91.494408
 30
0.0
 10
118.806420
 20
91.174066
 30
0.0
 10
118.610095
 20
90.862171
 30
0.0
 10
118.438831
 20
90.567277
 30
0.0
 10
118.297373
 20
90.297944
 30
0.0
 10
118.190459
 20
90.062720
 30
0.0
 10
118.122835
 20
89.870166
 30
0.0
 10
118.099242
 20
89.728834
 30
0.0
 10
118.085608
 20
89.595357
 30
0.0
 10
118.046562
 20
89.425316
 30
0.0
 10
117.984832
 20
89.225686
 30
0.0
 10
117.903154
 20
89.003447
 30
0.0
 10
117.804269
 20
88.765573
 30
0.0
 10
117.690914
 20
88.519041
 30
0.0
 10
117.565822
 20
88.270826
 30
0.0
 10
117.431738
 20
88.027904
 30
0.0
 10
117.290957
 20
87.775399
 30
0.0
 10
117.146654
 20
87.499716
 30
0.0
 10
117.002918
 20
87.209756
 30
0.0
 10
116.863839
 20
86.914421
 30
0.0
 10
116.733503
 20
86.622615
 30
0.0
 10
116.615989
 20
86.343237
 30
0.0
 10
116.515385
 20
86.085196
 30
0.0
 10
116.435779
 20
85.857389
 30
0.0
 10
116.355563
 20
85.639756
 30
0.0
 10
116.253212
 20
85.410877
 30
0.0
 10
116.132935
 20
85.177606
 30
0.0
 10
115.998941
 20
84.946802
 30
0.0
 10
115.855437
 20
84.725325
 30
0.0
 10
115.706629
 20
84.520028
 30
0.0
 10
115.556727
 20
84.337775
 30
0.0
 10
115.409938
 20
84.185417
 30
0.0
 10
115.124244
 20
83.901380
 30
0.0
 10
114.917838
 20
83.661107
 30
0.0
 10
114.790779
 20
83.465468
 30
0.0
 10
114.743120
 20
83.315332
 30
0.0
 10
114.774915
 20
83.211573
 30
0.0
 10
114.886221
 20
83.155066
 30
0.0
 10
115.077088
 20
83.146684
 30
0.0
 10
115.347572
 20
83.187290
 30
0.0
 10
115.518331
 20
83.220728
 30
0.0
 10
115.761149
 20
83.264616
 30
0.0
 10
116.064738
 20
83.317084
 30
0.0
 10
116.417812
 20
83.376261
 30
0.0
 10
116.809085
 20
83.440280
 30
0.0
 10
117.227271
 20
83.507271
 30
0.0
 10
117.661086
 20
83.575365
 30
0.0
 10
118.099239
 20
83.642701
 30
0.0
  0
LWPOLYLINE
  5
10e
100
AcDbEntity
  8
0
 62
7
100
AcDbPolyline
 90
17
 70
0
 10
143.044683
 20
91.306719
 30
0.0
 10
143.323002
 20
91.446303
 30
0.0
 10
143.601321
 20
91.585890
 30
0.0
 10
143.879641
 20
91.725475
 30
0.0
 10
144.157960
 20
91.865062
 30
0.0
 10
144.436282
 20
92.004649
 30
0.0
 10
144.714601
 20
92.144233
 30
0.0
 10
144.992920
 20
92.283820
 30
0.0
 10
145.271239
 20
92.423405
 30
0.0
 10
145.078518
 20
92.552832
 30
0.0
 10
144.885797
 20
92.682259
 30
0.0
 10
144.693076
 20
92.811683
 30
0.0
 10
144.500357
 20
92.941110
 30
0.0
 10
144.307636
 20
93.070535
 30
0.0
 10
144.114915
 20
93.199962
 30
0.0
 10
143.922194
 20
93.329386
 30
0.0
 10
143.729473
 20
93.458813
 30
0.0
  0
LWPOLYLINE
  5
10f
100
AcDbEntity
  8
0
 62
7
100
AcDbPolyline
 90
49
 70
0
 10
82.647889
 20
86.803666
 30
0.0
 10
82.379922
 20
87.093570
 30
0.0
 10
82.053735
 20
87.458673
 30
0.0
 10
81.681918
 20
87.884219
 30
0.0
 10
81.277056
 20
88.355445
 30
0.0
 10
80.851742
 20
88.857597
 30
0.0
 10
80.418559
 20
89.375910
 30
0.0
 10
79.990095
 20
89.895631
 30
0.0
 10
79.578939
 20
90.401999
 30
0.0
 10
79.188900
 20
90.886465
 30
0.0
 10
78.820958
 20
91.343422
 30
0.0
 10
78.483457
 20
91.762508
 30
0.0
 10
78.184739
 20
92.133368
 30
0.0
 10
77.933152
 20
92.445641
 30
0.0
 10
77.737039
 20
92.688973
 30
0.0
 10
77.604741
 20
92.853001
 30
0.0
 10
77.544603
 20
92.927369
 30
0.0
 10
77.460754
 20
92.921640
 30
0.0
 10
77.260498
 20
92.856074
 30
0.0
 10
76.956943
 20
92.736423
 30
0.0
 10
76.563197
 20
92.568425
 30
0.0
 10
76.092372
 20
92.357822
 30
0.0
 10
75.557572
 20
92.110355
 30
0.0
 10
74.971910
 20
91.831762
 30
0.0
 10
74.348495
 20
91.527789
 30
0.0
 10
73.731453
 20
91.217565
 30
0.0
 10
73.164054
 20
90.921093
 30
0.0
 10
72.658131
 20
90.645357
 30
0.0
 10
72.225507
 20
90.397354
 30
0.0
 10
71.878018
 20
90.184073
 30
0.0
 10
71.627484
 20
90.012510
 30
0.0
 10
71.485740
 20
89.889662
 30
0.0
 10
71.464602
 20
89.822521
 30
0.0
 10
72.090497
 20
89.515838
 30
0.0
 10
73.424618
 20
88.983985
 30
0.0
 10
75.236110
 20
88.308365
 30
0.0
 10
77.294116
 20
87.570388
 30
0.0
 10
79.367778
 20
86.851455
 30
0.0
 10
81.226237
 20
86.232973
 30
0.0
 10
82.638635
 20
85.796350
 30
0.0
 10
83.374111
 20
85.622989
 30
0.0
 10
83.437453
 20
85.642406
 30
0.0
 10
83.452016
 20
85.706171
 30
0.0
 10
83.420164
 20
85.810413
 30
0.0
 10
83.344278
 20
85.951273
 30
0.0
 10
83.226732
 20
86.124888
 30
0.0
 10
83.069901
 20
86.327399
 30
0.0
 10
82.876164
 20
86.554944
 30
0.0
 10
82.647892
 20
86.803660
 30
0.0
  0
LWPOLYLINE
  5
110
100
AcDbEntity
  8
0
 62
7
100
AcDbPolyline
 90
9
 70
0
 10
118.099239
 20
83.642701
 30
0.0
 10
118.099239
 20
83.642701
 30
0.0
 10
118.099239
 20
83.642701
 30
0.0
 10
118.099239
 20
83.642701
 30
0.0
 10
118.099239
 20
83.642701
 30
0.0
 10
118.099239
 20
83.642701
 30
0.0
 10
118.099239
 20
83.642701
 30
0.0
 10
118.099239
 20
83.642701
 30
0.0
 10
118.099239
 20
83.642701
 30
0.0
  0
LWPOLYLINE
  5
111
100
AcDbEntity
  8
0
 62
7
100
AcDbPolyline
 90
265
 70
0
 10
69.348878
 20
95.090543
 30
0.0
 10
70.214877
 20
95.524115
 30
0.0
 10
71.026932
 20
95.932426
 30
0.0
 10
71.766972
 20
96.306260
 30
0.0
 10
72.416927
 20
96.636412
 30
0.0
 10
72.958726
 20
96.913670
 30
0.0
 10
73.374301
 20
97.128822
 30
0.0
 10
73.645578
 20
97.272663
 30
0.0
 10
73.754494
 20
97.335982
 30
0.0
 10
73.678819
 20
97.563721
 30
0.0
 10
73.314066
 20
98.053244
 30
0.0
 10
72.711104
 20
98.751039
 30
0.0
 10
71.920808
 20
99.603584
 30
0.0
 10
70.994047
 20
100.557362
 30
0.0
 10
69.981696
 20
101.558859
 30
0.0
 10
68.934626
 20
102.554559
 30
0.0
 10
67.903708
 20
103.490944
 30
0.0
 10
66.359123
 20
104.827362
 30
0.0
 10
64.855135
 20
106.063924
 30
0.0
 10
63.333774
 20
107.241429
 30
0.0
 10
61.737057
 20
108.400671
 30
0.0
 10
60.007012
 20
109.582454
 30
0.0
 10
58.085660
 20
110.827567
 30
0.0
 10
55.915029
 20
112.176815
 30
0.0
 10
53.437138
 20
113.670993
 30
0.0
 10
50.151307
 20
115.663307
 30
0.0
 10
47.412916
 20
117.405086
 30
0.0
 10
45.162016
 20
118.945145
 30
0.0
 10
43.338663
 20
120.332298
 30
0.0
 10
41.882907
 20
121.615357
 30
0.0
 10
40.734810
 20
122.843139
 30
0.0
 10
39.834419
 20
124.064458
 30
0.0
 10
39.121794
 20
125.328128
 30
0.0
 10
38.901449
 20
125.784357
 30
0.0
 10
38.739036
 20
126.145362
 30
0.0
 10
38.632119
 20
126.428115
 30
0.0
 10
38.578274
 20
126.649583
 30
0.0
 10
38.575084
 20
126.826739
 30
0.0
 10
38.620096
 20
126.976560
 30
0.0
 10
38.710890
 20
127.116014
 30
0.0
 10
38.845041
 20
127.262073
 30
0.0
 10
38.979317
 20
127.409449
 30
0.0
 10
39.070681
 20
127.554291
 30
0.0
 10
39.116920
 20
127.715717
 30
0.0
 10
39.115791
 20
127.912846
 30
0.0
 10
39.065175
 20
128.164803
 30
0.0
 10
38.962827
 20
128.490705
 30
0.0
 10
38.806549
 20
128.909675
 30
0.0
 10
38.594140
 20
129.440831
 30
0.0
 10
38.308105
 20
130.201939
 30
0.0
 10
38.035902
 20
131.034247
 30
0.0
 10
37.784930
 20
131.906432
 30
0.0
 10
37.562561
 20
132.787174
 30
0.0
 10
37.376156
 20
133.645144
 30
0.0
 10
37.233078
 20
134.449025
 30
0.0
 10
37.140690
 20
135.167490
 30
0.0
 10
37.106360
 20
135.769222
 30
0.0
 10
37.115787
 20
135.975913
 30
0.0
 10
37.145301
 20
136.183882
 30
0.0
 10
37.193508
 20
136.389425
 30
0.0
 10
37.259006
 20
136.588829
 30
0.0
 10
37.340396
 20
136.778386
 30
0.0
 10
37.436275
 20
136.954388
 30
0.0
 10
37.545247
 20
137.113124
 30
0.0
 10
37.665908
 20
137.250888
 30
0.0
 10
37.817682
 20
137.421545
 30
0.0
 10
37.941479
 20
137.606965
 30
0.0
 10
38.039686
 20
137.817001
 30
0.0
 10
38.114687
 20
138.061498
 30
0.0
 10
38.168868
 20
138.350305
 30
0.0
 10
38.204614
 20
138.693272
 30
0.0
 10
38.224313
 20
139.100248
 30
0.0
 10
38.230353
 20
139.581084
 30
0.0
 10
38.246719
 20
140.326735
 30
0.0
 10
38.296046
 20
141.009151
 30
0.0
 10
38.378709
 20
141.629797
 30
0.0
 10
38.495074
 20
142.190138
 30
0.0
 10
38.645510
 20
142.691639
 30
0.0
 10
38.830385
 20
143.135763
 30
0.0
 10
39.050067
 20
143.523977
 30
0.0
 10
39.304922
 20
143.857747
 30
0.0
 10
39.444933
 20
144.050590
 30
0.0
 10
39.569523
 20
144.302526
 30
0.0
 10
39.681345
 20
144.625888
 30
0.0
 10
39.783049
 20
145.033008
 30
0.0
 10
39.877289
 20
145.536219
 30
0.0
 10
39.966722
 20
146.147848
 30
0.0
 10
40.054002
 20
146.880231
 30
0.0
 10
40.141782
 20
147.745697
 30
0.0
 10
40.264035
 20
148.848582
 30
0.0
 10
40.408956
 20
149.834376
 30
0.0
 10
40.573861
 20
150.693844
 30
0.0
 10
40.756061
 20
151.417755
 30
0.0
 10
40.952872
 20
151.996869
 30
0.0
 10
41.161606
 20
152.421958
 30
0.0
 10
41.379580
 20
152.683781
 30
0.0
 10
41.604105
 20
152.773110
 30
0.0
 10
41.858619
 20
152.817462
 30
0.0
 10
42.084399
 20
152.948119
 30
0.0
 10
42.279847
 20
153.161468
 30
0.0
 10
42.443352
 20
153.453904
 30
0.0
 10
42.573313
 20
153.821814
 30
0.0
 10
42.668131
 20
154.261596
 30
0.0
 10
42.726195
 20
154.769638
 30
0.0
 10
42.745894
 20
155.342332
 30
0.0
 10
42.754372
 20
155.700528
 30
0.0
 10
42.778643
 20
156.073880
 30
0.0
 10
42.817017
 20
156.451409
 30
0.0
 10
42.867792
 20
156.822147
 30
0.0
 10
42.929265
 20
157.175117
 30
0.0
 10
42.999736
 20
157.499348
 30
0.0
 10
43.077500
 20
157.783864
 30
0.0
 10
43.160854
 20
158.017697
 30
0.0
 10
43.287820
 20
158.310181
 30
0.0
 10
43.398813
 20
158.533111
 30
0.0
 10
43.501395
 20
158.691706
 30
0.0
 10
43.603122
 20
158.791175
 30
0.0
 10
43.711551
 20
158.836740
 30
0.0
 10
43.834236
 20
158.833607
 30
0.0
 10
43.978740
 20
158.786998
 30
0.0
 10
44.152614
 20
158.702128
 30
0.0
 10
44.284014
 20
158.616651
 30
0.0
 10
44.436625
 20
158.491528
 30
0.0
 10
44.604963
 20
158.332747
 30
0.0
 10
44.783539
 20
158.146291
 30
0.0
 10
44.966865
 20
157.938147
 30
0.0
 10
45.149454
 20
157.714291
 30
0.0
 10
45.325820
 20
157.480713
 30
0.0
 10
45.490474
 20
157.243392
 30
0.0
 10
45.645364
 20
157.018393
 30
0.0
 10
45.793739
 20
156.820123
 30
0.0
 10
45.932079
 20
156.652094
 30
0.0
 10
46.056858
 20
156.517813
 30
0.0
 10
46.164548
 20
156.420782
 30
0.0
 10
46.251628
 20
156.364512
 30
0.0
 10
46.314569
 20
156.352518
 30
0.0
 10
46.349852
 20
156.388290
 30
0.0
 10
46.457941
 20
156.500213
 30
0.0
 10
46.662820
 20
156.533055
 30
0.0
 10
46.939897
 20
156.495881
 30
0.0
 10
47.264594
 20
156.397761
 30
0.0
 10
47.612317
 20
156.247768
 30
0.0
 10
47.958485
 20
156.054974
 30
0.0
 10
48.278508
 20
155.828454
 30
0.0
 10
48.547802
 20
155.577276
 30
0.0
 10
48.651722
 20
155.467517
 30
0.0
 10
48.757544
 20
155.365124
 30
0.0
 10
48.862319
 20
155.272332
 30
0.0
 10
48.963095
 20
155.191388
 30
0.0
 10
49.056922
 20
155.124530
 30
0.0
 10
49.140849
 20
155.074000
 30
0.0
 10
49.211924
 20
155.042039
 30
0.0
 10
49.267200
 20
155.030891
 30
0.0
 10
49.329989
 20
155.056486
 30
0.0
 10
49.422600
 20
155.129827
 30
0.0
 10
49.540572
 20
155.245778
 30
0.0
 10
49.679448
 20
155.399194
 30
0.0
 10
49.834760
 20
155.584933
 30
0.0
 10
50.002056
 20
155.797855
 30
0.0
 10
50.176870
 20
156.032817
 30
0.0
 10
50.354744
 20
156.284675
 30
0.0
 10
50.571942
 20
156.586889
 30
0.0
 10
50.859464
 20
156.966207
 30
0.0
 10
51.204944
 20
157.407352
 30
0.0
 10
51.596019
 20
157.895057
 30
0.0
 10
52.020329
 20
158.414061
 30
0.0
 10
52.465509
 20
158.949101
 30
0.0
 10
52.919193
 20
159.484908
 30
0.0
 10
53.369021
 20
160.006223
 30
0.0
 10
54.478840
 20
161.347868
 30
0.0
 10
55.371517
 20
162.582390
 30
0.0
 10
56.051120
 20
163.721030
 30
0.0
 10
56.521714
 20
164.775025
 30
0.0
 10
56.787370
 20
165.755620
 30
0.0
 10
56.852154
 20
166.674056
 30
0.0
 10
56.720130
 20
167.541571
 30
0.0
 10
56.395374
 20
168.369407
 30
0.0
 10
56.156205
 20
168.698194
 30
0.0
 10
55.650011
 20
169.293835
 30
0.0
 10
54.908106
 20
170.122642
 30
0.0
 10
53.961812
 20
171.150916
 30
0.0
 10
52.842451
 20
172.344959
 30
0.0
 10
51.581344
 20
173.671082
 30
0.0
 10
50.209808
 20
175.095581
 30
0.0
 10
48.759166
 20
176.584769
 30
0.0
 10
47.272284
 20
178.112500
 30
0.0
 10
45.796883
 20
179.647482
 30
0.0
 10
44.371562
 20
181.148269
 30
0.0
 10
43.034932
 20
182.573418
 30
0.0
 10
41.825587
 20
183.881489
 30
0.0
 10
40.782138
 20
185.031037
 30
0.0
 10
39.943185
 20
185.980624
 30
0.0
 10
39.347329
 20
186.688802
 30
0.0
 10
38.435844
 20
187.882342
 30
0.0
 10
37.578871
 20
189.124450
 30
0.0
 10
36.786597
 20
190.395850
 30
0.0
 10
36.069211
 20
191.677266
 30
0.0
 10
35.436903
 20
192.949422
 30
0.0
 10
34.899860
 20
194.193040
 30
0.0
 10
34.468271
 20
195.388844
 30
0.0
 10
34.152329
 20
196.517555
 30
0.0
 10
33.978853
 20
197.425543
 30
0.0
 10
33.852335
 20
198.443293
 30
0.0
 10
33.773020
 20
199.535882
 30
0.0
 10
33.741157
 20
200.668378
 30
0.0
 10
33.756989
 20
201.805852
 30
0.0
 10
33.820766
 20
202.913379
 30
0.0
 10
33.932732
 20
203.956030
 30
0.0
 10
34.093136
 20
204.898880
 30
0.0
 10
34.162532
 20
205.247614
 30
0.0
 10
34.219066
 20
205.567885
 30
0.0
 10
34.262094
 20
205.853043
 30
0.0
 10
34.290962
 20
206.096440
 30
0.0
 10
34.305017
 20
206.291433
 30
0.0
 10
34.303606
 20
206.431370
 30
0.0
 10
34.286080
 20
206.509607
 30
0.0
 10
34.251801
 20
206.519513
 30
0.0
 10
33.854531
 20
206.029914
 30
0.0
 10
33.190744
 20
204.951083
 30
0.0
 10
32.333743
 20
203.423603
 30
0.0
 10
31.356802
 20
201.588078
 30
0.0
 10
30.333202
 20
199.585107
 30
0.0
 10
29.336221
 20
197.555297
 30
0.0
 10
28.439135
 20
195.639245
 30
0.0
 10
27.715226
 20
193.977555
 30
0.0
 10
26.118880
 20
189.753594
 30
0.0
 10
24.754177
 20
185.409872
 30
0.0
 10
23.628204
 20
180.988280
 30
0.0
 10
22.748050
 20
176.530707
 30
0.0
 10
22.120800
 20
172.079041
 30
0.0
 10
21.753543
 20
167.675172
 30
0.0
 10
21.653366
 20
163.360988
 30
0.0
 10
21.827357
 20
159.178378
 30
0.0
 10
22.160212
 20
155.628251
 30
0.0
 10
22.609275
 20
152.229057
 30
0.0
 10
23.184248
 20
148.941151
 30
0.0
 10
23.894833
 20
145.724890
 30
0.0
 10
24.750733
 20
142.540636
 30
0.0
 10
25.761649
 20
139.348745
 30
0.0
 10
26.937284
 20
136.109576
 30
0.0
 10
28.287339
 20
132.783483
 30
0.0
 10
30.533013
 20
127.953763
 30
0.0
 10
33.074314
 20
123.314236
 30
0.0
 10
35.906665
 20
118.870709
 30
0.0
 10
39.025497
 20
114.628988
 30
0.0
 10
42.426232
 20
110.594875
 30
0.0
 10
46.104302
 20
106.774179
 30
0.0
 10
50.055128
 20
103.172704
 30
0.0
 10
54.274139
 20
99.796260
 30
0.0
 10
55.699976
 20
98.759268
 30
0.0
 10
57.312258
 20
97.638459
 30
0.0
 10
59.005151
 20
96.501575
 30
0.0
 10
60.672813
 20
95.416360
 30
0.0
 10
62.209412
 20
94.450559
 30
0.0
 10
63.509107
 20
93.671922
 30
0.0
 10
64.466058
 20
93.148191
 30
0.0
 10
64.974433
 20
92.947113
 30
0.0
 10
65.077086
 20
92.989935
 30
0.0
 10
65.342524
 20
93.114657
 30
0.0
 10
65.752802
 20
93.312487
 30
0.0
 10
66.289984
 20
93.574631
 30
0.0
 10
66.936126
 20
93.892301
 30
0.0
 10
67.673282
 20
94.256706
 30
0.0
 10
68.483514
 20
94.659048
 30
0.0
 10
69.348878
 20
95.090543
 30
0.0
  0
LWPOLYLINE
  5
112
100
AcDbEntity
  8
0
 62
7
100
AcDbPolyline
 90
9
 70
0
 10
82.647889
 20
86.803666
 30
0.0
 10
82.647889
 20
86.803666
 30
0.0
 10
82.647889
 20
86.803666
 30
0.0
 10
82.647889
 20
86.803666
 30
0.0
 10
82.647889
 20
86.803666
 30
0.0
 10
82.647889
 20
86.803666
 30
0.0
 10
82.647889
 20
86.803666
 30
0.0
 10
82.647889
 20
86.803666
 30
0.0
 10
82.647889
 20
86.803666
 30
0.0
  0
LWPOLYLINE
  5
113
100
AcDbEntity
  8
0
 62
7
100
AcDbPolyline
 90
25
 70
0
 10
161.279236
 20
103.263388
 30
0.0
 10
164.762019
 20
106.423487
 30
0.0
 10
168.117850
 20
109.899183
 30
0.0
 10
171.314852
 20
113.645728
 30
0.0
 10
174.321145
 20
117.618376
 30
0.0
 10
177.104847
 20
121.772377
 30
0.0
 10
179.634078
 20
126.062984
 30
0.0
 10
181.876954
 20
130.445455
 30
0.0
 10
183.801597
 20
134.875040
 30
0.0
 10
184.357639
 20
136.316360
 30
0.0
 10
184.892913
 20
137.768393
 30
0.0
 10
185.387959
 20
139.171614
 30
0.0
 10
185.823321
 20
140.466491
 30
0.0
 10
186.179545
 20
141.593501
 30
0.0
 10
186.437171
 20
142.493115
 30
0.0
 10
186.576747
 20
143.105805
 30
0.0
 10
186.578723
 20
143.372048
 30
0.0
 10
186.467471
 20
143.356695
 30
0.0
 10
186.210033
 20
143.250983
 30
0.0
 10
185.823121
 20
143.063766
 30
0.0
 10
185.323347
 20
142.803895
 30
0.0
 10
184.727328
 20
142.480220
 30
0.0
 10
184.051677
 20
142.101585
 30
0.0
 10
183.313008
 20
141.676838
 30
0.0
 10
182.527939
 20
141.214829
 30
0.0
  0
LWPOLYLINE
  5
114
100
AcDbEntity
  8
0
 62
7
100
AcDbPolyline
 90
9
 70
0
 10
69.348878
 20
95.090543
 30
0.0
 10
69.348878
 20
95.090543
 30
0.0
 10
69.348878
 20
95.090543
 30
0.0
 10
69.348878
 20
95.090543
 30
0.0
 10
69.348878
 20
95.090543
 30
0.0
 10
69.348878
 20
95.090543
 30
0.0
 10
69.348878
 20
95.090543
 30
0.0
 10
69.348878
 20
95.090543
 30
0.0
 10
69.348878
 20
95.090543
 30
0.0
  0
LWPOLYLINE
  5
115
100
AcDbEntity
  8
0
 62
7
100
AcDbPolyline
 90
9
 70
0
 10
176.942569
 20
139.065721
 30
0.0
 10
174.578772
 20
139.274458
 30
0.0
 10
172.558758
 20
139.392441
 30
0.0
 10
170.819019
 20
139.413721
 30
0.0
 10
169.296040
 20
139.332322
 30
0.0
 10
167.926306
 20
139.142294
 30
0.0
 10
166.646307
 20
138.837674
 30
0.0
 10
165.392529
 20
138.412506
 30
0.0
 10
164.101458
 20
137.860830
 30
0.0
  0
LWPOLYLINE
  5
116
100
AcDbEntity
  8
0
 62
7
100
AcDbPolyline
 90
17
 70
0
 10
182.527939
 20
141.214818
 30
0.0
 10
182.041436
 20
140.925311
 30
0.0
 10
181.554930
 20
140.635802
 30
0.0
 10
181.068427
 20
140.346293
 30
0.0
 10
180.581921
 20
140.056784
 30
0.0
 10
180.095418
 20
139.767275
 30
0.0
 10
179.608912
 20
139.477765
 30
0.0
 10
179.122409
 20
139.188259
 30
0.0
 10
178.635903
 20
138.898750
 30
0.0
 10
178.424236
 20
138.919606
 30
0.0
 10
178.212569
 20
138.940491
 30
0.0
 10
178.000903
 20
138.961347
 30
0.0
 10
177.789236
 20
138.982231
 30
0.0
 10
177.577569
 20
139.003087
 30
0.0
 10
177.365903
 20
139.023944
 30
0.0
 10
177.154236
 20
139.044828
 30
0.0
 10
176.942569
 20
139.065684
 30
0.0
  0
LWPOLYLINE
  5
117
100
AcDbEntity
  8
0
 62
7
100
AcDbPolyline
 90
33
 70
0
 10
163.678125
 20
136.985255
 30
0.0
 10
163.967851
 20
136.975942
 30
0.0
 10
164.250254
 20
136.959093
 30
0.0
 10
164.518286
 20
136.935640
 30
0.0
 10
164.764898
 20
136.906532
 30
0.0
 10
164.983041
 20
136.872727
 30
0.0
 10
165.165676
 20
136.835183
 30
0.0
 10
165.305748
 20
136.794851
 30
0.0
 10
165.396215
 20
136.752687
 30
0.0
 10
165.570450
 20
136.591397
 30
0.0
 10
165.706758
 20
136.377173
 30
0.0
 10
165.803456
 20
136.124079
 30
0.0
 10
165.858859
 20
135.846186
 30
0.0
 10
165.871277
 20
135.557575
 30
0.0
 10
165.839030
 20
135.272316
 30
0.0
 10
165.760434
 20
135.004484
 30
0.0
 10
165.633804
 20
134.768154
 30
0.0
 10
165.457714
 20
134.614103
 30
0.0
 10
165.100906
 20
134.383716
 30
0.0
 10
164.584961
 20
134.088233
 30
0.0
 10
163.931456
 20
133.738892
 30
0.0
 10
163.161963
 20
133.346934
 30
0.0
 10
162.298061
 20
132.923600
 30
0.0
 10
161.361326
 20
132.480130
 30
0.0
 10
160.373334
 20
132.027762
 30
0.0
 10
159.348602
 20
131.564285
 30
0.0
 10
158.306567
 20
131.088984
 30
0.0
 10
157.276188
 20
130.615324
 30
0.0
 10
156.286423
 20
130.156781
 30
0.0
 10
155.366237
 20
129.726824
 30
0.0
 10
154.544587
 20
129.338926
 30
0.0
 10
153.850430
 20
129.006559
 30
0.0
 10
153.312726
 20
128.743195
 30
0.0
  0
LWPOLYLINE
  5
118
100
AcDbEntity
  8
0
 62
7
100
AcDbPolyline
 90
17
 70
0
 10
164.101458
 20
137.860821
 30
0.0
 10
163.872153
 20
137.754528
 30
0.0
 10
163.642847
 20
137.648237
 30
0.0
 10
163.413542
 20
137.541944
 30
0.0
 10
163.184236
 20
137.435651
 30
0.0
 10
162.954930
 20
137.329360
 30
0.0
 10
162.725625
 20
137.223067
 30
0.0
 10
162.496319
 20
137.116776
 30
0.0
 10
162.267014
 20
137.010483
 30
0.0
 10
162.443403
 20
137.007322
 30
0.0
 10
162.619792
 20
137.004161
 30
0.0
 10
162.796180
 20
137.001000
 30
0.0
 10
162.972569
 20
136.997839
 30
0.0
 10
163.148958
 20
136.994678
 30
0.0
 10
163.325347
 20
136.991517
 30
0.0
 10
163.501736
 20
136.988357
 30
0.0
 10
163.678125
 20
136.985196
 30
0.0
  0
LWPOLYLINE
  5
119
100
AcDbEntity
  8
0
 62
7
100
AcDbPolyline
 90
9
 70
0
 10
147.561523
 20
127.655330
 30
0.0
 10
146.410649
 20
127.652508
 30
0.0
 10
145.515158
 20
127.638142
 30
0.0
 10
144.821348
 20
127.603105
 30
0.0
 10
144.275505
 20
127.538340
 30
0.0
 10
143.823927
 20
127.434787
 30
0.0
 10
143.412904
 20
127.283381
 30
0.0
 10
142.988727
 20
127.075056
 30
0.0
 10
142.497689
 20
126.800752
 30
0.0
  0
LWPOLYLINE
  5
11a
100
AcDbEntity
  8
0
 62
7
100
AcDbPolyline
 90
17
 70
0
 10
153.312726
 20
128.743195
 30
0.0
 10
153.040105
 20
128.607212
 30
0.0
 10
152.767487
 20
128.471229
 30
0.0
 10
152.494866
 20
128.335245
 30
0.0
 10
152.222248
 20
128.199262
 30
0.0
 10
151.949627
 20
128.063279
 30
0.0
 10
151.677006
 20
127.927296
 30
0.0
 10
151.404388
 20
127.791313
 30
0.0
 10
151.131767
 20
127.655330
 30
0.0
 10
150.685486
 20
127.655330
 30
0.0
 10
150.239205
 20
127.655330
 30
0.0
 10
149.792924
 20
127.655330
 30
0.0
 10
149.346646
 20
127.655330
 30
0.0
 10
148.900365
 20
127.655330
 30
0.0
 10
148.454085
 20
127.655330
 30
0.0
 10
148.007804
 20
127.655330
 30
0.0
 10
147.561523
 20
127.655330
 30
0.0
  0
LWPOLYLINE
  5
11b
100
AcDbEntity
  8
0
 62
7
100
AcDbPolyline
 90
17
 70
0
 10
145.306014
 20
118.969117
 30
0.0
 10
146.212230
 20
117.495558
 30
0.0
 10
147.138935
 20
115.981670
 30
0.0
 10
148.060040
 20
114.470534
 30
0.0
 10
148.949447
 20
113.005242
 30
0.0
 10
149.781060
 20
111.628878
 30
0.0
 10
150.528785
 20
110.384529
 30
0.0
 10
151.166528
 20
109.315280
 30
0.0
 10
151.668192
 20
108.464222
 30
0.0
 10
152.113494
 20
107.701951
 30
0.0
 10
152.589690
 20
106.887181
 30
0.0
 10
153.082015
 20
106.045154
 30
0.0
 10
153.575704
 20
105.201112
 30
0.0
 10
154.055987
 20
104.380297
 30
0.0
 10
154.508093
 20
103.607956
 30
0.0
 10
154.917259
 20
102.909332
 30
0.0
 10
155.268716
 20
102.309666
 30
0.0
  0
LWPOLYLINE
  5
11c
100
AcDbEntity
  8
0
 62
7
100
AcDbPolyline
 90
17
 70
0
 10
142.497689
 20
126.800786
 30
0.0
 10
142.310990
 20
126.693968
 30
0.0
 10
142.124292
 20
126.587150
 30
0.0
 10
141.937593
 20
126.480331
 30
0.0
 10
141.750895
 20
126.373513
 30
0.0
 10
141.564193
 20
126.266695
 30
0.0
 10
141.377495
 20
126.159877
 30
0.0
 10
141.190797
 20
126.053058
 30
0.0
 10
141.004098
 20
125.946240
 30
0.0
 10
141.541839
 20
125.074100
 30
0.0
 10
142.079576
 20
124.201960
 30
0.0
 10
142.617317
 20
123.329820
 30
0.0
 10
143.155055
 20
122.457680
 30
0.0
 10
143.692795
 20
121.585537
 30
0.0
 10
144.230536
 20
120.713397
 30
0.0
 10
144.768274
 20
119.841257
 30
0.0
 10
145.306014
 20
118.969117
 30
0.0
  0
LWPOLYLINE
  5
11d
100
AcDbEntity
  8
0
 62
7
100
AcDbPolyline
 90
9
 70
0
 10
157.844662
 20
100.459677
 30
0.0
 10
158.101671
 20
100.657088
 30
0.0
 10
158.436087
 20
100.921229
 30
0.0
 10
158.833820
 20
101.240597
 30
0.0
 10
159.280787
 20
101.603696
 30
0.0
 10
159.762901
 20
101.999024
 30
0.0
 10
160.266070
 20
102.415079
 30
0.0
 10
160.776212
 20
102.840368
 30
0.0
 10
161.279236
 20
103.263388
 30
0.0
  0
LWPOLYLINE
  5
11e
100
AcDbEntity
  8
0
 62
7
100
AcDbPolyline
 90
17
 70
0
 10
155.268716
 20
102.309666
 30
0.0
 10
155.461248
 20
101.981317
 30
0.0
 10
155.653782
 20
101.652972
 30
0.0
 10
155.846314
 20
101.324623
 30
0.0
 10
156.038846
 20
100.996277
 30
0.0
 10
156.231378
 20
100.667929
 30
0.0
 10
156.423910
 20
100.339583
 30
0.0
 10
156.616445
 20
100.011234
 30
0.0
 10
156.808977
 20
99.682888
 30
0.0
 10
156.938438
 20
99.779987
 30
0.0
 10
157.067899
 20
99.877085
 30
0.0
 10
157.197360
 20
99.974184
 30
0.0
 10
157.326818
 20
100.071283
 30
0.0
 10
157.456279
 20
100.168381
 30
0.0
 10
157.585740
 20
100.265480
 30
0.0
 10
157.715201
 20
100.362578
 30
0.0
 10
157.844662
 20
100.459677
 30
0.0
  0
LWPOLYLINE
  5
11f
100
AcDbEntity
  8
0
 62
7
100
AcDbPolyline
 90
89
 70
0
 10
89.279925
 20
105.362929
 30
0.0
 10
90.853616
 20
106.169298
 30
0.0
 10
92.581911
 20
107.055856
 30
0.0
 10
94.408379
 20
107.993602
 30
0.0
 10
96.276592
 20
108.953527
 30
0.0
 10
98.130117
 20
109.906625
 30
0.0
 10
99.912523
 20
110.823890
 30
0.0
 10
101.567381
 20
111.676317
 30
0.0
 10
103.038258
 20
112.434899
 30
0.0
 10
105.549406
 20
113.718722
 30
0.0
 10
107.372850
 20
114.680095
 30
0.0
 10
108.596441
 20
115.449950
 30
0.0
 10
109.308042
 20
116.159222
 30
0.0
 10
109.595511
 20
116.938847
 30
0.0
 10
109.546706
 20
117.919758
 30
0.0
 10
109.249484
 20
119.232887
 30
0.0
 10
108.791705
 20
121.009174
 30
0.0
 10
108.424808
 20
122.367521
 30
0.0
 10
108.004593
 20
123.698834
 30
0.0
 10
107.531177
 20
125.002847
 30
0.0
 10
107.004668
 20
126.279302
 30
0.0
 10
106.425190
 20
127.527935
 30
0.0
 10
105.792851
 20
128.748481
 30
0.0
 10
105.107768
 20
129.940681
 30
0.0
 10
104.370059
 20
131.104272
 30
0.0
 10
103.977234
 20
131.687264
 30
0.0
 10
103.656827
 20
132.138658
 30
0.0
 10
103.392376
 20
132.472908
 30
0.0
 10
103.167423
 20
132.704472
 30
0.0
 10
102.965512
 20
132.847798
 30
0.0
 10
102.770181
 20
132.917346
 30
0.0
 10
102.564974
 20
132.927563
 30
0.0
 10
102.333431
 20
132.892914
 30
0.0
 10
99.239284
 20
132.416258
 30
0.0
 10
95.784831
 20
132.186964
 30
0.0
 10
92.054305
 20
132.197519
 30
0.0
 10
88.131946
 20
132.440382
 30
0.0
 10
84.101994
 20
132.908036
 30
0.0
 10
80.048681
 20
133.592952
 30
0.0
 10
76.056250
 20
134.487605
 30
0.0
 10
72.208938
 20
135.584468
 30
0.0
 10
71.686801
 20
135.749136
 30
0.0
 10
71.188016
 20
135.902761
 30
0.0
 10
70.724333
 20
136.041975
 30
0.0
 10
70.307505
 20
136.163415
 30
0.0
 10
69.949283
 20
136.263726
 30
0.0
 10
69.661419
 20
136.339536
 30
0.0
 10
69.455662
 20
136.387489
 30
0.0
 10
69.343770
 20
136.404224
 30
0.0
 10
69.164827
 20
136.329218
 30
0.0
 10
68.995578
 20
136.115469
 30
0.0
 10
68.840384
 20
135.779847
 30
0.0
 10
68.703616
 20
135.339242
 30
0.0
 10
68.589641
 20
134.810524
 30
0.0
 10
68.502824
 20
134.210582
 30
0.0
 10
68.447531
 20
133.556294
 30
0.0
 10
68.428142
 20
132.864537
 30
0.0
 10
68.440179
 20
132.248008
 30
0.0
 10
68.495999
 20
131.624190
 30
0.0
 10
68.625122
 20
130.878392
 30
0.0
 10
68.857066
 20
129.895915
 30
0.0
 10
69.221356
 20
128.562067
 30
0.0
 10
69.747511
 20
126.762150
 30
0.0
 10
70.465058
 20
124.381470
 30
0.0
 10
71.403520
 20
121.305330
 30
0.0
 10
71.847385
 20
119.948422
 30
0.0
 10
72.357553
 20
118.573577
 30
0.0
 10
72.946638
 20
117.154301
 30
0.0
 10
73.627248
 20
115.664103
 30
0.0
 10
74.412004
 20
114.076490
 30
0.0
 10
75.313515
 20
112.364967
 30
0.0
 10
76.344396
 20
110.503040
 30
0.0
 10
77.517261
 20
108.464222
 30
0.0
 10
78.692451
 20
106.456989
 30
0.0
 10
79.620505
 20
104.884145
 30
0.0
 10
80.334144
 20
103.694324
 30
0.0
 10
80.866099
 20
102.836160
 30
0.0
 10
81.249097
 20
102.258282
 30
0.0
 10
81.515867
 20
101.909328
 30
0.0
 10
81.699134
 20
101.737926
 30
0.0
 10
81.831629
 20
101.692714
 30
0.0
 10
82.034953
 20
101.767988
 30
0.0
 10
82.507294
 20
101.982935
 30
0.0
 10
83.218102
 20
102.322499
 30
0.0
 10
84.136828
 20
102.771638
 30
0.0
 10
85.232926
 20
103.315300
 30
0.0
 10
86.475838
 20
103.938435
 30
0.0
 10
87.835023
 20
104.625994
 30
0.0
 10
89.279925
 20
105.362929
 30
0.0
  0
LWPOLYLINE
  5
120
100
AcDbEntity
  8
0
 62
7
100
AcDbPolyline
 90
9
 70
0
 10
161.279236
 20
103.263388
 30
0.0
 10
161.279236
 20
103.263388
 30
0.0
 10
161.279236
 20
103.263388
 30
0.0
 10
161.279236
 20
103.263388
 30
0.0
 10
161.279236
 20
103.263388
 30
0.0
 10
161.279236
 20
103.263388
 30
0.0
 10
161.279236
 20
103.263388
 30
0.0
 10
161.279236
 20
103.263388
 30
0.0
 10
161.279236
 20
103.263388
 30
0.0
  0
LWPOLYLINE
  5
121
100
AcDbEntity
  8
0
 62
7
100
AcDbPolyline
 90
57
 70
0
 10
140.237825
 20
131.544809
 30
0.0
 10
140.883866
 20
131.894065
 30
0.0
 10
141.377503
 20
132.180450
 30
0.0
 10
141.748482
 20
132.438079
 30
0.0
 10
142.026544
 20
132.701068
 30
0.0
 10
142.241434
 20
133.003537
 30
0.0
 10
142.422888
 20
133.379601
 30
0.0
 10
142.600655
 20
133.863378
 30
0.0
 10
142.804475
 20
134.488985
 30
0.0
 10
142.946021
 20
134.901560
 30
0.0
 10
143.100036
 20
135.297287
 30
0.0
 10
143.263027
 20
135.669501
 30
0.0
 10
143.431503
 20
136.011523
 30
0.0
 10
143.601965
 20
136.316685
 30
0.0
 10
143.770920
 20
136.578313
 30
0.0
 10
143.934874
 20
136.789740
 30
0.0
 10
144.090334
 20
136.944290
 30
0.0
 10
144.883655
 20
137.455725
 30
0.0
 10
146.498175
 20
138.405818
 30
0.0
 10
148.666048
 20
139.645095
 30
0.0
 10
151.119425
 20
141.024078
 30
0.0
 10
153.590464
 20
142.393285
 30
0.0
 10
155.811319
 20
143.603242
 30
0.0
 10
157.514140
 20
144.504468
 30
0.0
 10
158.431083
 20
144.947489
 30
0.0
 10
158.814081
 20
145.058416
 30
0.0
 10
159.199004
 20
145.108567
 30
0.0
 10
159.572300
 20
145.101483
 30
0.0
 10
159.920415
 20
145.040698
 30
0.0
 10
160.229798
 20
144.929757
 30
0.0
 10
160.486900
 20
144.772192
 30
0.0
 10
160.678168
 20
144.571549
 30
0.0
 10
160.790049
 20
144.331367
 30
0.0
 10
160.807857
 20
144.203879
 30
0.0
 10
160.803455
 20
144.050409
 30
0.0
 10
160.778450
 20
143.876786
 30
0.0
 10
160.734454
 20
143.688837
 30
0.0
 10
160.673057
 20
143.492391
 30
0.0
 10
160.595855
 20
143.293272
 30
0.0
 10
160.504446
 20
143.097313
 30
0.0
 10
160.400427
 20
142.910344
 30
0.0
 10
160.293507
 20
142.731390
 30
0.0
 10
160.193750
 20
142.558416
 30
0.0
 10
160.103352
 20
142.395633
 30
0.0
 10
160.024493
 20
142.247257
 30
0.0
 10
159.959356
 20
142.117514
 30
0.0
 10
159.910128
 20
142.010611
 30
0.0
 10
159.878990
 20
141.930770
 30
0.0
 10
159.868125
 20
141.882208
 30
0.0
 10
160.126070
 20
141.881080
 30
0.0
 10
160.815508
 20
142.175429
 30
0.0
 10
161.809834
 20
142.691379
 30
0.0
 10
162.982444
 20
143.354948
 30
0.0
 10
164.206736
 20
144.092144
 30
0.0
 10
165.356108
 20
144.828981
 30
0.0
 10
166.303957
 20
145.491469
 30
0.0
 10
166.923680
 20
146.005625
 30
0.0
  0
LWPOLYLINE
  5
122
100
AcDbEntity
  8
0
 62
7
100
AcDbPolyline
 90
9
 70
0
 10
166.923680
 20
146.005512
 30
0.0
 10
167.477079
 20
146.621033
 30
0.0
 10
168.078616
 20
147.395216
 30
0.0
 10
168.706600
 20
148.292889
 30
0.0
 10
169.339342
 20
149.278872
 30
0.0
 10
169.955162
 20
150.317994
 30
0.0
 10
170.532366
 20
151.375075
 30
0.0
 10
171.049267
 20
152.414942
 30
0.0
 10
171.484180
 20
153.402418
 30
0.0
  0
LWPOLYLINE
  5
123
100
AcDbEntity
  8
0
 62
7
100
AcDbPolyline
 90
9
 70
0
 10
89.279925
 20
105.362929
 30
0.0
 10
89.279925
 20
105.362929
 30
0.0
 10
89.279925
 20
105.362929
 30
0.0
 10
89.279925
 20
105.362929
 30
0.0
 10
89.279925
 20
105.362929
 30
0.0
 10
89.279925
 20
105.362929
 30
0.0
 10
89.279925
 20
105.362929
 30
0.0
 10
89.279925
 20
105.362929
 30
0.0
 10
89.279925
 20
105.362929
 30
0.0
  0
LWPOLYLINE
  5
124
100
AcDbEntity
  8
0
 62
7
100
AcDbPolyline
 90
17
 70
0
 10
189.645468
 20
165.884921
 30
0.0
 10
189.322699
 20
169.913019
 30
0.0
 10
188.858124
 20
173.806342
 30
0.0
 10
188.246952
 20
177.585704
 30
0.0
 10
187.484385
 20
181.271919
 30
0.0
 10
186.565630
 20
184.885808
 30
0.0
 10
185.485893
 20
188.448181
 30
0.0
 10
184.240382
 20
191.979856
 30
0.0
 10
182.824301
 20
195.501648
 30
0.0
 10
182.317980
 20
196.634372
 30
0.0
 10
181.692812
 20
197.946717
 30
0.0
 10
180.982391
 20
199.374527
 30
0.0
 10
180.220310
 20
200.853645
 30
0.0
 10
179.440160
 20
202.319917
 30
0.0
 10
178.675532
 20
203.709192
 30
0.0
 10
177.960020
 20
204.957309
 30
0.0
 10
177.327216
 20
206.000117
 30
0.0
  0
LWPOLYLINE
  5
125
100
AcDbEntity
  8
0
 62
7
100
AcDbPolyline
 90
33
 70
0
 10
171.484180
 20
153.402418
 30
0.0
 10
171.566496
 20
153.604551
 30
0.0
 10
171.648814
 20
153.806687
 30
0.0
 10
171.731130
 20
154.008823
 30
0.0
 10
171.813446
 20
154.210959
 30
0.0
 10
171.895762
 20
154.413092
 30
0.0
 10
171.978080
 20
154.615228
 30
0.0
 10
172.060396
 20
154.817364
 30
0.0
 10
172.142712
 20
155.019501
 30
0.0
 10
173.247578
 20
155.521481
 30
0.0
 10
174.352441
 20
156.023461
 30
0.0
 10
175.457307
 20
156.525441
 30
0.0
 10
176.562171
 20
157.027421
 30
0.0
 10
177.667034
 20
157.529402
 30
0.0
 10
178.771900
 20
158.031382
 30
0.0
 10
179.876763
 20
158.533362
 30
0.0
 10
180.981629
 20
159.035342
 30
0.0
 10
182.086493
 20
159.537319
 30
0.0
 10
183.191359
 20
160.039300
 30
0.0
 10
184.296222
 20
160.541280
 30
0.0
 10
185.401088
 20
161.043260
 30
0.0
 10
186.505952
 20
161.545240
 30
0.0
 10
187.610818
 20
162.047220
 30
0.0
 10
188.715681
 20
162.549201
 30
0.0
 10
189.820547
 20
163.051181
 30
0.0
 10
189.798675
 20
163.405398
 30
0.0
 10
189.776803
 20
163.759615
 30
0.0
 10
189.754931
 20
164.113832
 30
0.0
 10
189.733058
 20
164.468052
 30
0.0
 10
189.711186
 20
164.822269
 30
0.0
 10
189.689286
 20
165.176486
 30
0.0
 10
189.667413
 20
165.530703
 30
0.0
 10
189.645541
 20
165.884921
 30
0.0
  0
LWPOLYLINE
  5
126
100
AcDbEntity
  8
0
 62
7
100
AcDbPolyline
 90
185
 70
0
 10
172.064680
 20
205.777297
 30
0.0
 10
170.910532
 20
205.219194
 30
0.0
 10
169.933812
 20
204.726900
 30
0.0
 10
169.106283
 20
204.283055
 30
0.0
 10
168.399700
 20
203.870299
 30
0.0
 10
167.785833
 20
203.471271
 30
0.0
 10
167.236439
 20
203.068613
 30
0.0
 10
166.723283
 20
202.644961
 30
0.0
 10
166.218125
 20
202.182960
 30
0.0
 10
165.839484
 20
201.837082
 30
0.0
 10
165.411844
 20
201.472948
 30
0.0
 10
164.949889
 20
201.101490
 30
0.0
 10
164.468294
 20
200.733642
 30
0.0
 10
163.981742
 20
200.380336
 30
0.0
 10
163.504911
 20
200.052512
 30
0.0
 10
163.052478
 20
199.761101
 30
0.0
 10
162.639127
 20
199.517038
 30
0.0
 10
162.107479
 20
199.211151
 30
0.0
 10
161.659389
 20
198.929039
 30
0.0
 10
161.280396
 20
198.657231
 30
0.0
 10
160.956027
 20
198.382256
 30
0.0
 10
160.671818
 20
198.090647
 30
0.0
 10
160.413302
 20
197.768939
 30
0.0
 10
160.166013
 20
197.403659
 30
0.0
 10
159.915485
 20
196.981342
 30
0.0
 10
159.449347
 20
196.248600
 30
0.0
 10
158.879424
 20
195.511221
 30
0.0
 10
158.218073
 20
194.780361
 30
0.0
 10
157.477655
 20
194.067189
 30
0.0
 10
156.670527
 20
193.382856
 30
0.0
 10
155.809053
 20
192.738532
 30
0.0
 10
154.905586
 20
192.145371
 30
0.0
 10
153.972489
 20
191.614539
 30
0.0
 10
153.557546
 20
191.386106
 30
0.0
 10
153.151747
 20
191.143098
 30
0.0
 10
152.765308
 20
190.892970
 30
0.0
 10
152.408450
 20
190.643178
 30
0.0
 10
152.091387
 20
190.401181
 30
0.0
 10
151.824343
 20
190.174435
 30
0.0
 10
151.617533
 20
189.970394
 30
0.0
 10
151.481175
 20
189.796520
 30
0.0
 10
151.358233
 20
189.614275
 30
0.0
 10
151.189868
 20
189.386254
 30
0.0
 10
150.983603
 20
189.121588
 30
0.0
 10
150.746962
 20
188.829424
 30
0.0
 10
150.487467
 20
188.518894
 30
0.0
 10
150.212642
 20
188.199137
 30
0.0
 10
149.930008
 20
187.879294
 30
0.0
 10
149.647089
 20
187.568500
 30
0.0
 10
149.363207
 20
187.248460
 30
0.0
 10
149.077813
 20
186.902111
 30
0.0
 10
148.798624
 20
186.540452
 30
0.0
 10
148.533358
 20
186.174480
 30
0.0
 10
148.289730
 20
185.815191
 30
0.0
 10
148.075455
 20
185.473581
 30
0.0
 10
147.898254
 20
185.160650
 30
0.0
 10
147.765835
 20
184.887389
 30
0.0
 10
147.430781
 20
184.204837
 30
0.0
 10
147.001936
 20
183.491777
 30
0.0
 10
146.485872
 20
182.756030
 30
0.0
 10
145.889162
 20
182.005412
 30
0.0
 10
145.218370
 20
181.247741
 30
0.0
 10
144.480066
 20
180.490835
 30
0.0
 10
143.680823
 20
179.742511
 30
0.0
 10
142.827211
 20
179.010588
 30
0.0
 10
142.224681
 20
178.505069
 30
0.0
 10
141.721340
 20
178.052997
 30
0.0
 10
141.296161
 20
177.628136
 30
0.0
 10
140.928104
 20
177.204258
 30
0.0
 10
140.596137
 20
176.755138
 30
0.0
 10
140.279230
 20
176.254538
 30
0.0
 10
139.956348
 20
175.676231
 30
0.0
 10
139.606460
 20
174.993990
 30
0.0
 10
139.075242
 20
173.997494
 30
0.0
 10
138.504738
 20
173.057858
 30
0.0
 10
137.899360
 20
172.180336
 30
0.0
 10
137.263508
 20
171.370183
 30
0.0
 10
136.601595
 20
170.632655
 30
0.0
 10
135.918025
 20
169.973008
 30
0.0
 10
135.217208
 20
169.396499
 30
0.0
 10
134.503549
 20
168.908387
 30
0.0
 10
134.183749
 20
168.701315
 30
0.0
 10
133.898152
 20
168.494886
 30
0.0
 10
133.647454
 20
168.289810
 30
0.0
 10
133.432341
 20
168.086790
 30
0.0
 10
133.253508
 20
167.886537
 30
0.0
 10
133.111646
 20
167.689757
 30
0.0
 10
133.007447
 20
167.497160
 30
0.0
 10
132.941602
 20
167.309454
 30
0.0
 10
132.679700
 20
166.570698
 30
0.0
 10
132.260873
 20
165.758005
 30
0.0
 10
131.716828
 20
164.910356
 30
0.0
 10
131.079257
 20
164.066741
 30
0.0
 10
130.379865
 20
163.266141
 30
0.0
 10
129.650349
 20
162.547541
 30
0.0
 10
128.922410
 20
161.949924
 30
0.0
 10
128.227746
 20
161.512277
 30
0.0
 10
127.933602
 20
161.351447
 30
0.0
 10
127.696677
 20
161.197497
 30
0.0
 10
127.509329
 20
161.039292
 30
0.0
 10
127.363914
 20
160.865697
 30
0.0
 10
127.252786
 20
160.665579
 30
0.0
 10
127.168306
 20
160.427798
 30
0.0
 10
127.102825
 20
160.141224
 30
0.0
 10
127.048700
 20
159.794723
 30
0.0
 10
126.998829
 20
159.528111
 30
0.0
 10
126.918661
 20
159.232630
 30
0.0
 10
126.812127
 20
158.917559
 30
0.0
 10
126.683172
 20
158.592188
 30
0.0
 10
126.535730
 20
158.265801
 30
0.0
 10
126.373740
 20
157.947683
 30
0.0
 10
126.201136
 20
157.647119
 30
0.0
 10
126.021860
 20
157.373392
 30
0.0
 10
125.847684
 20
157.117529
 30
0.0
 10
125.685194
 20
156.861901
 30
0.0
 10
125.537948
 20
156.613314
 30
0.0
 10
125.409494
 20
156.378573
 30
0.0
 10
125.303399
 20
156.164485
 30
0.0
 10
125.223211
 20
155.977851
 30
0.0
 10
125.172490
 20
155.825479
 30
0.0
 10
125.154794
 20
155.714176
 30
0.0
 10
125.119881
 20
155.429022
 30
0.0
 10
125.021284
 20
155.101320
 30
0.0
 10
124.868215
 20
154.746580
 30
0.0
 10
124.669886
 20
154.380315
 30
0.0
 10
124.435509
 20
154.018032
 30
0.0
 10
124.174295
 20
153.675245
 30
0.0
 10
123.895460
 20
153.367459
 30
0.0
 10
123.608211
 20
153.110191
 30
0.0
 10
123.450993
 20
152.973387
 30
0.0
 10
123.310977
 20
152.824653
 30
0.0
 10
123.189320
 20
152.666126
 30
0.0
 10
123.087184
 20
152.499936
 30
0.0
 10
123.005723
 20
152.328221
 30
0.0
 10
122.946104
 20
152.153113
 30
0.0
 10
122.909482
 20
151.976747
 30
0.0
 10
122.897008
 20
151.801253
 30
0.0
 10
122.865394
 20
151.420713
 30
0.0
 10
122.775966
 20
151.021366
 30
0.0
 10
122.636892
 20
150.618787
 30
0.0
 10
122.456338
 20
150.228547
 30
0.0
 10
122.242461
 20
149.866216
 30
0.0
 10
122.003425
 20
149.547370
 30
0.0
 10
121.747390
 20
149.287576
 30
0.0
 10
121.482519
 20
149.102407
 30
0.0
 10
121.285835
 20
148.946115
 30
0.0
 10
121.062437
 20
148.686995
 30
0.0
 10
120.828644
 20
148.354069
 30
0.0
 10
120.600769
 20
147.976366
 30
0.0
 10
120.395131
 20
147.582905
 30
0.0
 10
120.228044
 20
147.202718
 30
0.0
 10
120.115827
 20
146.864825
 30
0.0
 10
120.074794
 20
146.598252
 30
0.0
 10
120.102057
 20
146.545770
 30
0.0
 10
120.180227
 20
146.464961
 30
0.0
 10
120.303812
 20
146.359873
 30
0.0
 10
120.467329
 20
146.234549
 30
0.0
 10
120.665299
 20
146.093035
 30
0.0
 10
120.892240
 20
145.939382
 30
0.0
 10
121.142673
 20
145.777629
 30
0.0
 10
121.411114
 20
145.611826
 30
0.0
 10
123.088400
 20
144.513172
 30
0.0
 10
124.944567
 20
143.147919
 30
0.0
 10
126.912006
 20
141.575707
 30
0.0
 10
128.923096
 20
139.856183
 30
0.0
 10
130.910220
 20
138.048993
 30
0.0
 10
132.805757
 20
136.213781
 30
0.0
 10
134.542087
 20
134.410195
 30
0.0
 10
136.051589
 20
132.697879
 30
0.0
 10
136.427422
 20
132.252044
 30
0.0
 10
136.785432
 20
131.836472
 30
0.0
 10
137.117255
 20
131.460233
 30
0.0
 10
137.414525
 20
131.132395
 30
0.0
 10
137.668881
 20
130.862032
 30
0.0
 10
137.871956
 20
130.658208
 30
0.0
 10
138.015390
 20
130.530000
 30
0.0
 10
138.090814
 20
130.486476
 30
0.0
 10
138.168439
 20
130.509675
 30
0.0
 10
138.318178
 20
130.572734
 30
0.0
 10
138.531222
 20
130.671300
 30
0.0
 10
138.798766
 20
130.801029
 30
0.0
 10
139.112004
 20
130.957587
 30
0.0
 10
139.462132
 20
131.136626
 30
0.0
 10
139.840341
 20
131.333811
 30
0.0
 10
140.237825
 20
131.544798
 30
0.0
  0
LWPOLYLINE
  5
127
100
AcDbEntity
  8
0
 62
7
100
AcDbPolyline
 90
17
 70
0
 10
177.327216
 20
206.000117
 30
0.0
 10
177.188551
 20
206.219675
 30
0.0
 10
177.049887
 20
206.439235
 30
0.0
 10
176.911223
 20
206.658793
 30
0.0
 10
176.772559
 20
206.878353
 30
0.0
 10
176.633894
 20
207.097911
 30
0.0
 10
176.495230
 20
207.317471
 30
0.0
 10
176.356566
 20
207.537029
 30
0.0
 10
176.217902
 20
207.756589
 30
0.0
 10
175.698748
 20
207.509176
 30
0.0
 10
175.179598
 20
207.261766
 30
0.0
 10
174.660444
 20
207.014353
 30
0.0
 10
174.141291
 20
206.766943
 30
0.0
 10
173.622137
 20
206.519530
 30
0.0
 10
173.102987
 20
206.272120
 30
0.0
 10
172.583833
 20
206.024707
 30
0.0
 10
172.064680
 20
205.777297
 30
0.0
  0
LWPOLYLINE
  5
128
100
AcDbEntity
  8
0
 62
7
100
AcDbPolyline
 90
33
 70
0
 10
187.994067
 20
151.825250
 30
0.0
 10
188.174331
 20
151.886619
 30
0.0
 10
188.323643
 20
151.985493
 30
0.0
 10
188.448673
 20
152.139708
 30
0.0
 10
188.556076
 20
152.367097
 30
0.0
 10
188.652514
 20
152.685500
 30
0.0
 10
188.744651
 20
153.112748
 30
0.0
 10
188.839148
 20
153.666682
 30
0.0
 10
188.942664
 20
154.365134
 30
0.0
 10
189.008168
 20
154.847974
 30
0.0
 10
189.064138
 20
155.303563
 30
0.0
 10
189.109720
 20
155.721557
 30
0.0
 10
189.144052
 20
156.091620
 30
0.0
 10
189.166291
 20
156.403411
 30
0.0
 10
189.175548
 20
156.646596
 30
0.0
 10
189.170976
 20
156.810830
 30
0.0
 10
189.151728
 20
156.885780
 30
0.0
 10
188.896648
 20
156.726141
 30
0.0
 10
188.336459
 20
156.189667
 30
0.0
 10
187.575701
 20
155.393174
 30
0.0
 10
186.718885
 20
154.453476
 30
0.0
 10
185.870540
 20
153.487387
 30
0.0
 10
185.135173
 20
152.611724
 30
0.0
 10
184.617306
 20
151.943304
 30
0.0
 10
184.421458
 20
151.598939
 30
0.0
 10
184.508546
 20
151.507756
 30
0.0
 10
184.751946
 20
151.454103
 30
0.0
 10
185.124855
 20
151.436294
 30
0.0
 10
185.600473
 20
151.452607
 30
0.0
 10
186.152005
 20
151.501361
 30
0.0
 10
186.752648
 20
151.580851
 30
0.0
 10
187.375602
 20
151.689383
 30
0.0
 10
187.994067
 20
151.825261
 30
0.0
  0
LWPOLYLINE
  5
129
100
AcDbEntity
  8
0
 62
7
100
AcDbPolyline
 90
9
 70
0
 10
140.237825
 20
131.544809
 30
0.0
 10
140.237825
 20
131.544809
 30
0.0
 10
140.237825
 20
131.544809
 30
0.0
 10
140.237825
 20
131.544809
 30
0.0
 10
140.237825
 20
131.544809
 30
0.0
 10
140.237825
 20
131.544809
 30
0.0
 10
140.237825
 20
131.544809
 30
0.0
 10
140.237825
 20
131.544809
 30
0.0
 10
140.237825
 20
131.544809
 30
0.0
  0
LWPOLYLINE
  5
12a
100
AcDbEntity
  8
0
 62
7
100
AcDbPolyline
 90
113
 70
0
 10
103.447568
 20
193.286506
 30
0.0
 10
105.574231
 20
194.482580
 30
0.0
 10
108.279068
 20
195.856588
 30
0.0
 10
111.399650
 20
197.337345
 30
0.0
 10
114.773546
 20
198.853669
 30
0.0
 10
118.238329
 20
200.334373
 30
0.0
 10
121.631563
 20
201.708273
 30
0.0
 10
124.790827
 20
202.904187
 30
0.0
 10
127.553683
 20
203.850930
 30
0.0
 10
129.201678
 20
204.349013
 30
0.0
 10
131.079807
 20
204.870684
 30
0.0
 10
133.142482
 20
205.405156
 30
0.0
 10
135.344103
 20
205.941632
 30
0.0
 10
137.639072
 20
206.469328
 30
0.0
 10
139.981796
 20
206.977453
 30
0.0
 10
142.326682
 20
207.455210
 30
0.0
 10
144.628128
 20
207.891813
 30
0.0
 10
145.695004
 20
208.092222
 30
0.0
 10
146.725231
 20
208.297350
 30
0.0
 10
147.693761
 20
208.501405
 30
0.0
 10
148.575550
 20
208.698599
 30
0.0
 10
149.345551
 20
208.883147
 30
0.0
 10
149.978722
 20
209.049257
 30
0.0
 10
150.450017
 20
209.191142
 30
0.0
 10
150.734389
 20
209.303017
 30
0.0
 10
150.975890
 20
209.455674
 30
0.0
 10
151.324313
 20
209.714452
 30
0.0
 10
151.763230
 20
210.065362
 30
0.0
 10
152.276212
 20
210.494424
 30
0.0
 10
152.846826
 20
210.987653
 30
0.0
 10
153.458644
 20
211.531060
 30
0.0
 10
154.095238
 20
212.110666
 30
0.0
 10
154.740173
 20
212.712485
 30
0.0
 10
156.885143
 20
214.705298
 30
0.0
 10
158.721323
 20
216.329975
 30
0.0
 10
160.289556
 20
217.613547
 30
0.0
 10
161.630690
 20
218.583051
 30
0.0
 10
162.785572
 20
219.265521
 30
0.0
 10
163.795050
 20
219.687991
 30
0.0
 10
164.699967
 20
219.877495
 30
0.0
 10
165.541175
 20
219.861069
 30
0.0
 10
165.915140
 20
219.812061
 30
0.0
 10
166.190329
 20
219.782465
 30
0.0
 10
166.373929
 20
219.777102
 30
0.0
 10
166.473130
 20
219.800781
 30
0.0
 10
166.495115
 20
219.858318
 30
0.0
 10
166.447081
 20
219.954533
 30
0.0
 10
166.336210
 20
220.094238
 30
0.0
 10
166.169690
 20
220.282258
 30
0.0
 10
165.621372
 20
220.831248
 30
0.0
 10
164.738270
 20
221.645047
 30
0.0
 10
163.610174
 20
222.646608
 30
0.0
 10
162.326868
 20
223.758902
 30
0.0
 10
160.978136
 20
224.904888
 30
0.0
 10
159.653763
 20
226.007531
 30
0.0
 10
158.443538
 20
226.989799
 30
0.0
 10
157.437241
 20
227.774654
 30
0.0
 10
152.093611
 20
231.499598
 30
0.0
 10
146.488779
 20
234.808450
 30
0.0
 10
140.658026
 20
237.688418
 30
0.0
 10
134.636637
 20
240.126713
 30
0.0
 10
128.459890
 20
242.110541
 30
0.0
 10
122.163072
 20
243.627115
 30
0.0
 10
115.781463
 20
244.663644
 30
0.0
 10
109.350350
 20
245.207337
 30
0.0
 10
107.377030
 20
245.259616
 30
0.0
 10
105.189127
 20
245.252080
 30
0.0
 10
102.864020
 20
245.189193
 30
0.0
 10
100.479090
 20
245.075418
 30
0.0
 10
98.111719
 20
244.915212
 30
0.0
 10
95.839286
 20
244.713036
 30
0.0
 10
93.739174
 20
244.473353
 30
0.0
 10
91.888764
 20
244.200622
 30
0.0
 10
90.427172
 20
243.936981
 30
0.0
 10
88.890153
 20
243.631690
 30
0.0
 10
87.355539
 20
243.303217
 30
0.0
 10
85.901160
 20
242.970032
 30
0.0
 10
84.604840
 20
242.650593
 30
0.0
 10
83.544410
 20
242.363372
 30
0.0
 10
82.797701
 20
242.126831
 30
0.0
 10
82.442538
 20
241.959439
 30
0.0
 10
82.402025
 20
241.900531
 30
0.0
 10
82.378262
 20
241.819358
 30
0.0
 10
82.370755
 20
241.719573
 30
0.0
 10
82.379052
 20
241.604821
 30
0.0
 10
82.402646
 20
241.478761
 30
0.0
 10
82.441048
 20
241.345038
 30
0.0
 10
82.493781
 20
241.207308
 30
0.0
 10
82.560363
 20
241.069217
 30
0.0
 10
82.714423
 20
240.591223
 30
0.0
 10
82.884024
 20
239.727651
 30
0.0
 10
83.064011
 20
238.523572
 30
0.0
 10
83.249245
 20
237.024061
 30
0.0
 10
83.434583
 20
235.274184
 30
0.0
 10
83.614887
 20
233.319022
 30
0.0
 10
83.785016
 20
231.203640
 30
0.0
 10
83.939832
 20
228.973110
 30
0.0
 10
83.998116
 20
228.165534
 30
0.0
 10
84.070498
 20
227.330509
 30
0.0
 10
84.154100
 20
226.492146
 30
0.0
 10
84.246051
 20
225.674559
 30
0.0
 10
84.343486
 20
224.901860
 30
0.0
 10
84.443525
 20
224.198162
 30
0.0
 10
84.543302
 20
223.587577
 30
0.0
 10
84.639943
 20
223.094215
 30
0.0
 10
84.792902
 20
222.337188
 30
0.0
 10
84.894318
 20
221.659931
 30
0.0
 10
84.942364
 20
221.030533
 30
0.0
 10
84.935195
 20
220.417095
 30
0.0
 10
84.871001
 20
219.787711
 30
0.0
 10
84.747938
 20
219.110471
 30
0.0
 10
84.564178
 20
218.353475
 30
0.0
 10
84.317885
 20
217.484812
 30
0.0
  0
LWPOLYLINE
  5
12b
100
AcDbEntity
  8
0
 62
7
100
AcDbPolyline
 90
9
 70
0
 10
187.994067
 20
151.825250
 30
0.0
 10
187.994067
 20
151.825250
 30
0.0
 10
187.994067
 20
151.825250
 30
0.0
 10
187.994067
 20
151.825250
 30
0.0
 10
187.994067
 20
151.825250
 30
0.0
 10
187.994067
 20
151.825250
 30
0.0
 10
187.994067
 20
151.825250
 30
0.0
 10
187.994067
 20
151.825250
 30
0.0
 10
187.994067
 20
151.825250
 30
0.0
  0
LWPOLYLINE
  5
12c
100
AcDbEntity
  8
0
 62
7
100
AcDbPolyline
 90
97
 70
0
 10
85.023266
 20
214.717493
 30
0.0
 10
85.417623
 20
214.225021
 30
0.0
 10
85.791887
 20
213.673288
 30
0.0
 10
86.136051
 20
213.083926
 30
0.0
 10
86.440092
 20
212.478559
 30
0.0
 10
86.694004
 20
211.878823
 30
0.0
 10
86.887767
 20
211.306341
 30
0.0
 10
87.011369
 20
210.782748
 30
0.0
 10
87.054794
 20
210.329674
 30
0.0
 10
87.073449
 20
210.207844
 30
0.0
 10
87.130382
 20
210.093773
 30
0.0
 10
87.227085
 20
209.986534
 30
0.0
 10
87.365047
 20
209.885205
 30
0.0
 10
87.545759
 20
209.788863
 30
0.0
 10
87.770705
 20
209.696588
 30
0.0
 10
88.041373
 20
209.607456
 30
0.0
 10
88.359248
 20
209.520543
 30
0.0
 10
88.942266
 20
209.334155
 30
0.0
 10
89.482168
 20
209.082605
 30
0.0
 10
89.972289
 20
208.772284
 30
0.0
 10
90.405963
 20
208.409586
 30
0.0
 10
90.776527
 20
208.000903
 30
0.0
 10
91.077313
 20
207.552624
 30
0.0
 10
91.301660
 20
207.071142
 30
0.0
 10
91.442904
 20
206.562851
 30
0.0
 10
91.508013
 20
206.261647
 30
0.0
 10
91.584856
 20
206.011637
 30
0.0
 10
91.681334
 20
205.803744
 30
0.0
 10
91.805342
 20
205.628882
 30
0.0
 10
91.964787
 20
205.477978
 30
0.0
 10
92.167563
 20
205.341949
 30
0.0
 10
92.421569
 20
205.211721
 30
0.0
 10
92.734711
 20
205.078210
 30
0.0
 10
93.216098
 20
204.850217
 30
0.0
 10
93.668796
 20
204.565026
 30
0.0
 10
94.088509
 20
204.227462
 30
0.0
 10
94.470934
 20
203.842359
 30
0.0
 10
94.811774
 20
203.414547
 30
0.0
 10
95.106733
 20
202.948860
 30
0.0
 10
95.351507
 20
202.450128
 30
0.0
 10
95.541801
 20
201.923183
 30
0.0
 10
95.643105
 20
201.620861
 30
0.0
 10
95.756744
 20
201.363497
 30
0.0
 10
95.892064
 20
201.141721
 30
0.0
 10
96.058406
 20
200.946158
 30
0.0
 10
96.265111
 20
200.767435
 30
0.0
 10
96.521524
 20
200.596177
 30
0.0
 10
96.836986
 20
200.423011
 30
0.0
 10
97.220840
 20
200.238562
 30
0.0
 10
97.611407
 20
200.050449
 30
0.0
 10
97.933928
 20
199.871461
 30
0.0
 10
98.199572
 20
199.690150
 30
0.0
 10
98.419516
 20
199.495067
 30
0.0
 10
98.604934
 20
199.274756
 30
0.0
 10
98.767003
 20
199.017767
 30
0.0
 10
98.916894
 20
198.712651
 30
0.0
 10
99.065783
 20
198.347958
 30
0.0
 10
99.178237
 20
198.028223
 30
0.0
 10
99.269539
 20
197.712837
 30
0.0
 10
99.339829
 20
197.400735
 30
0.0
 10
99.389238
 20
197.090858
 30
0.0
 10
99.417897
 20
196.782135
 30
0.0
 10
99.425941
 20
196.473508
 30
0.0
 10
99.413523
 20
196.163913
 30
0.0
 10
99.380748
 20
195.852284
 30
0.0
 10
99.333634
 20
195.477120
 30
0.0
 10
99.310097
 20
195.180025
 30
0.0
 10
99.314697
 20
194.947843
 30
0.0
 10
99.352024
 20
194.767421
 30
0.0
 10
99.426638
 20
194.625599
 30
0.0
 10
99.543105
 20
194.509225
 30
0.0
 10
99.705998
 20
194.405141
 30
0.0
 10
99.919889
 20
194.300194
 30
0.0
 10
100.071880
 20
194.218172
 30
0.0
 10
100.232631
 20
194.108317
 30
0.0
 10
100.397282
 20
193.975413
 30
0.0
 10
100.560957
 20
193.824249
 30
0.0
 10
100.718784
 20
193.659615
 30
0.0
 10
100.865886
 20
193.486296
 30
0.0
 10
100.997393
 20
193.309086
 30
0.0
 10
101.108423
 20
193.132765
 30
0.0
 10
101.207135
 20
192.962991
 30
0.0
 10
101.303336
 20
192.804535
 30
0.0
 10
101.394627
 20
192.660872
 30
0.0
 10
101.478605
 20
192.535475
 30
0.0
 10
101.552875
 20
192.431818
 30
0.0
 10
101.615037
 20
192.353372
 30
0.0
 10
101.662687
 20
192.303607
 30
0.0
 10
101.693432
 20
192.285997
 30
0.0
 10
101.748037
 20
192.306128
 30
0.0
 10
101.864078
 20
192.364440
 30
0.0
 10
102.034360
 20
192.456831
 30
0.0
 10
102.251688
 20
192.579203
 30
0.0
 10
102.508868
 20
192.727454
 30
0.0
 10
102.798705
 20
192.897485
 30
0.0
 10
103.114004
 20
193.085196
 30
0.0
 10
103.447568
 20
193.286491
 30
0.0
  0
LWPOLYLINE
  5
12d
100
AcDbEntity
  8
0
 62
7
100
AcDbPolyline
 90
17
 70
0
 10
84.317894
 20
217.484812
 30
0.0
 10
84.263255
 20
217.301136
 30
0.0
 10
84.208620
 20
217.117460
 30
0.0
 10
84.153982
 20
216.933784
 30
0.0
 10
84.099344
 20
216.750108
 30
0.0
 10
84.044708
 20
216.566432
 30
0.0
 10
83.990070
 20
216.382757
 30
0.0
 10
83.935435
 20
216.199081
 30
0.0
 10
83.880796
 20
216.015405
 30
0.0
 10
84.023604
 20
215.853167
 30
0.0
 10
84.166414
 20
215.690928
 30
0.0
 10
84.309221
 20
215.528687
 30
0.0
 10
84.452031
 20
215.366449
 30
0.0
 10
84.594841
 20
215.204211
 30
0.0
 10
84.737648
 20
215.041970
 30
0.0
 10
84.880458
 20
214.879731
 30
0.0
 10
85.023266
 20
214.717493
 30
0.0
  0
LWPOLYLINE
  5
12e
100
AcDbEntity
  8
0
 62
7
100
AcDbPolyline
 90
9
 70
0
 10
103.447568
 20
193.286506
 30
0.0
 10
103.447568
 20
193.286506
 30
0.0
 10
103.447568
 20
193.286506
 30
0.0
 10
103.447568
 20
193.286506
 30
0.0
 10
103.447568
 20
193.286506
 30
0.0
 10
103.447568
 20
193.286506
 30
0.0
 10
103.447568
 20
193.286506
 30
0.0
 10
103.447568
 20
193.286506
 30
0.0
 10
103.447568
 20
193.286506
 30
0.0
  0
ENDSEC
  0
SECTION
  2
OBJECTS
  0
DICTIONARY
  5
C
330
0
100
AcDbDictionary
  3
ACAD_GROUP
350
D
  3
ACAD_MLINESTYLE
350
17
  0
DICTIONARY
  5
D
330
C
100
AcDbDictionary
  0
DICTIONARY
  5
1A
330
C
100
AcDbDictionary
  0
DICTIONARY
  5
17
330
C
100
AcDbDictionary
  3
STANDARD
350
18
  0
DICTIONARY
  5
19
330
C
100
AcDbDictionary
  0
ENDSEC
  0
EOF
