  0
SECTION
  2
BLOCKS
  0
ENDSEC
  0
SECTION
  2
ENTITIES
  0
LINE
  8
0
 10
-25.801
 11
-25.604
 20
11.126
 21
15.351
  0
LINE
  8
0
 10
-25.604
 11
-24.849
 20
15.351
 21
19.646
  0
LINE
  8
0
 10
-24.849
 11
-23.508
 20
19.646
 21
23.735
  0
LINE
  8
0
 10
-23.508
 11
-21.495
 20
23.735
 21
27.708
  0
LINE
  8
0
 10
-21.495
 11
-18.91
 20
27.708
 21
31.426
  0
LINE
  8
0
 10
-18.91
 11
-16.278
 20
31.426
 21
34.424
  0
LINE
  8
0
 10
-16.278
 11
-12.978
 20
34.424
 21
37.514
  0
LINE
  8
0
 10
-12.978
 11
-14.262
 20
37.514
 21
39.283
  0
LINE
  8
0
 10
-14.262
 11
-15.145
 20
39.283
 21
41.217
  0
LINE
  8
0
 10
-15.145
 11
-15.508
 20
41.217
 21
42.448
  0
LINE
  8
0
 10
-15.508
 11
-15.297
 20
42.448
 21
43.338
  0
LINE
  8
0
 10
-15.297
 11
-14.481
 20
43.338
 21
43.695
  0
LINE
  8
0
 10
-14.481
 11
-13.282
 20
43.695
 21
43.773
  0
LINE
  8
0
 10
-13.282
 11
-11.157
 20
43.773
 21
43.688
  0
LINE
  8
0
 10
-11.157
 11
-8.95
 20
43.688
 21
43.678
  0
LINE
  8
0
 10
-8.95
 11
-6.772
 20
43.678
 21
43.776
  0
LINE
  8
0
 10
-6.772
 11
-4.585
 20
43.776
 21
43.919
  0
LINE
  8
0
 10
-4.585
 11
-2.507
 20
43.919
 21
43.99
  0
LINE
  8
0
 10
-2.507
 11
-0.242
 20
43.99
 21
43.875
  0
LINE
  8
0
 10
-0.242
 11
1.826
 20
43.875
 21
44.02
  0
LINE
  8
0
 10
1.826
 11
4.04
 20
44.02
 21
43.986
  0
LINE
  8
0
 10
4.04
 11
6.28
 20
43.986
 21
43.874
  0
LINE
  8
0
 10
6.28
 11
8.501
 20
43.874
 21
43.808
  0
LINE
  8
0
 10
8.501
 11
10.619
 20
43.808
 21
43.848
  0
LINE
  8
0
 10
10.619
 11
12.707
 20
43.848
 21
43.964
  0
LINE
  8
0
 10
12.707
 11
13.924
 20
43.964
 21
43.918
  0
LINE
  8
0
 10
13.924
 11
14.778
 20
43.918
 21
43.599
  0
LINE
  8
0
 10
14.778
 11
15.049
 20
43.599
 21
42.711
  0
LINE
  8
0
 10
15.049
 11
14.699
 20
42.711
 21
41.439
  0
LINE
  8
0
 10
14.699
 11
13.863
 20
41.439
 21
39.525
  0
LINE
  8
0
 10
13.863
 11
12.588
 20
39.525
 21
37.704
  0
LINE
  8
0
 10
12.588
 11
15.669
 20
37.704
 21
34.927
  0
LINE
  8
0
 10
15.669
 11
18.708
 20
34.927
 21
31.584
  0
LINE
  8
0
 10
18.708
 11
21.132
 20
31.584
 21
28.214
  0
LINE
  8
0
 10
21.132
 11
23.219
 20
28.214
 21
24.318
  0
LINE
  8
0
 10
23.219
 11
24.646
 20
24.318
 21
20.302
  0
LINE
  8
0
 10
24.646
 11
25.506
 20
20.302
 21
16.014
  0
LINE
  8
0
 10
25.506
 11
25.801
 20
16.014
 21
11.645
  0
LINE
  8
0
 10
25.801
 11
25.576
 20
11.645
 21
7.254
  0
LINE
  8
0
 10
25.576
 11
24.856
 20
7.254
 21
2.861
  0
LINE
  8
0
 10
24.856
 11
23.729
 20
2.861
 21
-1.247
  0
LINE
  8
0
 10
23.729
 11
22.226
 20
-1.247
 21
-5.135
  0
LINE
  8
0
 10
22.226
 11
20.125
 20
-5.135
 21
-9.193
  0
LINE
  8
0
 10
20.125
 11
17.875
 20
-9.193
 21
-12.583
  0
LINE
  8
0
 10
17.875
 11
15.024
 20
-12.583
 21
-16.05
  0
LINE
  8
0
 10
15.024
 11
16.376
 20
-16.05
 21
-17.533
  0
LINE
  8
0
 10
16.376
 11
17.435
 20
-17.533
 21
-19.009
  0
LINE
  8
0
 10
17.435
 11
18.345
 20
-19.009
 21
-20.624
  0
LINE
  8
0
 10
18.345
 11
19.09
 20
-20.624
 21
-22.484
  0
LINE
  8
0
 10
19.09
 11
19.497
 20
-22.484
 21
-24.312
  0
LINE
  8
0
 10
19.497
 11
19.542
 20
-24.312
 21
-26.208
  0
LINE
  8
0
 10
19.542
 11
19.194
 20
-26.208
 21
-28.2
  0
LINE
  8
0
 10
19.194
 11
18.657
 20
-28.2
 21
-29.879
  0
LINE
  8
0
 10
18.657
 11
17.852
 20
-29.879
 21
-31.795
  0
LINE
  8
0
 10
17.852
 11
17.108
 20
-31.795
 21
-33.386
  0
LINE
  8
0
 10
17.108
 11
16.438
 20
-33.386
 21
-35.235
  0
LINE
  8
0
 10
16.438
 11
16.323
 20
-35.235
 21
-36.187
  0
LINE
  8
0
 10
16.323
 11
16.538
 20
-36.187
 21
-37.075
  0
LINE
  8
0
 10
16.538
 11
17.685
 20
-37.075
 21
-38.733
  0
LINE
  8
0
 10
17.685
 11
18.852
 20
-38.733
 21
-40.254
  0
LINE
  8
0
 10
18.852
 11
19.413
 20
-40.254
 21
-41.991
  0
LINE
  8
0
 10
19.413
 11
19.298
 20
-41.991
 21
-43.014
  0
LINE
  8
0
 10
19.298
 11
18.831
 20
-43.014
 21
-43.711
  0
LINE
  8
0
 10
18.831
 11
18.034
 20
-43.711
 21
-43.654
  0
LINE
  8
0
 10
18.034
 11
17.066
 20
-43.654
 21
-43.157
  0
LINE
  8
0
 10
17.066
 11
15.376
 20
-43.157
 21
-42.229
  0
LINE
  8
0
 10
15.376
 11
13.68
 20
-42.229
 21
-41.396
  0
LINE
  8
0
 10
13.68
 11
11.984
 20
-41.396
 21
-40.528
  0
LINE
  8
0
 10
11.984
 11
10.314
 20
-40.528
 21
-39.436
  0
LINE
  8
0
 10
10.314
 11
7.375
 20
-39.436
 21
-41.628
  0
LINE
  8
0
 10
7.375
 11
4.059
 20
-41.628
 21
-43.03
  0
LINE
  8
0
 10
4.059
 11
0.408
 20
-43.03
 21
-43.496
  0
LINE
  8
0
 10
0.408
 11
-3.14
 20
-43.496
 21
-43.112
  0
LINE
  8
0
 10
-3.14
 11
-6.525
 20
-43.112
 21
-41.766
  0
LINE
  8
0
 10
-6.525
 11
-9.558
 20
-41.766
 21
-39.584
  0
LINE
  8
0
 10
-9.558
 11
-11.082
 20
-39.584
 21
-40.625
  0
LINE
  8
0
 10
-11.082
 11
-12.857
 20
-40.625
 21
-41.575
  0
LINE
  8
0
 10
-12.857
 11
-14.545
 20
-41.575
 21
-42.435
  0
LINE
  8
0
 10
-14.545
 11
-16.225
 20
-42.435
 21
-43.388
  0
LINE
  8
0
 10
-16.225
 11
-17.148
 20
-43.388
 21
-43.889
  0
LINE
  8
0
 10
-17.148
 11
-17.933
 20
-43.889
 21
-44.013
  0
LINE
  8
0
 10
-17.933
 11
-18.463
 20
-44.013
 21
-43.369
  0
LINE
  8
0
 10
-18.463
 11
-18.619
 20
-43.369
 21
-42.313
  0
LINE
  8
0
 10
-18.619
 11
-18.08
 20
-42.313
 21
-40.526
  0
LINE
  8
0
 10
-18.08
 11
-16.905
 20
-40.526
 21
-38.95
  0
LINE
  8
0
 10
-16.905
 11
-15.861
 20
-38.95
 21
-37.416
  0
LINE
  8
0
 10
-15.861
 11
-15.619
 20
-37.416
 21
-36.514
  0
LINE
  8
0
 10
-15.619
 11
-15.725
 20
-36.514
 21
-35.548
  0
LINE
  8
0
 10
-15.725
 11
-16.387
 20
-35.548
 21
-33.75
  0
LINE
  8
0
 10
-16.387
 11
-17.21
 20
-33.75
 21
-32.052
  0
LINE
  8
0
 10
-17.21
 11
-18.031
 20
-32.052
 21
-30.18
  0
LINE
  8
0
 10
-18.031
 11
-18.602
 20
-30.18
 21
-28.487
  0
LINE
  8
0
 10
-18.602
 11
-18.975
 20
-28.487
 21
-26.562
  0
LINE
  8
0
 10
-18.975
 11
-18.962
 20
-26.562
 21
-24.578
  0
LINE
  8
0
 10
-18.962
 11
-18.587
 20
-24.578
 21
-22.77
  0
LINE
  8
0
 10
-18.587
 11
-17.919
 20
-22.77
 21
-21.005
  0
LINE
  8
0
 10
-17.919
 11
-16.977
 20
-21.005
 21
-19.258
  0
LINE
  8
0
 10
-16.977
 11
-15.903
 20
-19.258
 21
-17.719
  0
LINE
  8
0
 10
-15.903
 11
-14.615
 20
-17.719
 21
-16.271
  0
LINE
  8
0
 10
-14.615
 11
-17.511
 20
-16.271
 21
-12.853
  0
LINE
  8
0
 10
-17.511
 11
-19.824
 20
-12.853
 21
-9.479
  0
LINE
  8
0
 10
-19.824
 11
-21.922
 20
-9.479
 21
-5.584
  0
LINE
  8
0
 10
-21.922
 11
-23.492
 20
-5.584
 21
-1.735
  0
LINE
  8
0
 10
-23.492
 11
-24.75
 20
-1.735
 21
2.592
  0
LINE
  8
0
 10
-24.75
 11
-25.512
 20
2.592
 21
6.874
  0
LINE
  8
0
 10
-25.512
 11
-25.801
 20
6.874
 21
11.126
  0
ENDSEC
  0
SECTION
  2
OBJECTS
  0
DICTIONARY
  0
ENDSEC
  0
EOF
