  0
SECTION
  2
BLOCKS
  0
ENDSEC
  0
SECTION
  2
ENTITIES
  0
LINE
  8
0
 10
-41.39
 11
-41.098
 20
20.954
 21
22.259
  0
LINE
  8
0
 10
-41.098
 11
-40.108
 20
22.259
 21
24.81
  0
LINE
  8
0
 10
-40.108
 11
-39.046
 20
24.81
 21
27.216
  0
LINE
  8
0
 10
-39.046
 11
-37.44
 20
27.216
 21
29.444
  0
LINE
  8
0
 10
-37.44
 11
-34.912
 20
29.444
 21
30.789
  0
LINE
  8
0
 10
-34.912
 11
-32.421
 20
30.789
 21
31.837
  0
LINE
  8
0
 10
-32.421
 11
-31.489
 20
31.837
 21
32.683
  0
LINE
  8
0
 10
-31.489
 11
-30.994
 20
32.683
 21
33.895
  0
LINE
  8
0
 10
-30.994
 11
-30.237
 20
33.895
 21
36.526
  0
LINE
  8
0
 10
-30.237
 11
-29.225
 20
36.526
 21
37.279
  0
LINE
  8
0
 10
-29.225
 11
-27.762
 20
37.279
 21
37.543
  0
LINE
  8
0
 10
-27.762
 11
-25.083
 20
37.543
 21
37.762
  0
LINE
  8
0
 10
-25.083
 11
-22.411
 20
37.762
 21
37.981
  0
LINE
  8
0
 10
-22.411
 11
-19.518
 20
37.981
 21
38.201
  0
LINE
  8
0
 10
-19.518
 11
-16.967
 20
38.201
 21
38.361
  0
LINE
  8
0
 10
-16.967
 11
-14.31
 20
38.361
 21
38.475
  0
LINE
  8
0
 10
-14.31
 11
-11.531
 20
38.475
 21
38.524
  0
LINE
  8
0
 10
-11.531
 11
-8.859
 20
38.524
 21
38.522
  0
LINE
  8
0
 10
-8.859
 11
-6.087
 20
38.522
 21
38.502
  0
LINE
  8
0
 10
-6.087
 11
-3.322
 20
38.502
 21
38.494
  0
LINE
  8
0
 10
-3.322
 11
-0.725
 20
38.494
 21
38.518
  0
LINE
  8
0
 10
-0.725
 11
2.029
 20
38.518
 21
38.571
  0
LINE
  8
0
 10
2.029
 11
4.728
 20
38.571
 21
38.64
  0
LINE
  8
0
 10
4.728
 11
7.476
 20
38.64
 21
38.712
  0
LINE
  8
0
 10
7.476
 11
10.237
 20
38.712
 21
38.772
  0
LINE
  8
0
 10
10.237
 11
13.017
 20
38.772
 21
38.807
  0
LINE
  8
0
 10
13.017
 11
15.632
 20
38.807
 21
38.804
  0
LINE
  8
0
 10
15.632
 11
18.353
 20
38.804
 21
38.75
  0
LINE
  8
0
 10
18.353
 11
21.059
 20
38.75
 21
38.632
  0
LINE
  8
0
 10
21.059
 11
23.801
 20
38.632
 21
38.437
  0
LINE
  8
0
 10
23.801
 11
26.681
 20
38.437
 21
38.137
  0
LINE
  8
0
 10
26.681
 11
29.389
 20
38.137
 21
37.744
  0
LINE
  8
0
 10
29.389
 11
31.911
 20
37.744
 21
37.159
  0
LINE
  8
0
 10
31.911
 11
34.363
 20
37.159
 21
36.168
  0
LINE
  8
0
 10
34.363
 11
36.638
 20
36.168
 21
34.503
  0
LINE
  8
0
 10
36.638
 11
38.271
 20
34.503
 21
32.323
  0
LINE
  8
0
 10
38.271
 11
39.105
 20
32.323
 21
29.846
  0
LINE
  8
0
 10
39.105
 11
39.162
 20
29.846
 21
28.464
  0
LINE
  8
0
 10
39.162
 11
38.911
 20
28.464
 21
27.064
  0
LINE
  8
0
 10
38.911
 11
37.702
 20
27.064
 21
24.778
  0
LINE
  8
0
 10
37.702
 11
36.632
 20
24.778
 21
23.856
  0
LINE
  8
0
 10
36.632
 11
35.338
 20
23.856
 21
23.392
  0
LINE
  8
0
 10
35.338
 11
33.991
 20
23.392
 21
23.213
  0
LINE
  8
0
 10
33.991
 11
32.782
 20
23.213
 21
22.685
  0
LINE
  8
0
 10
32.782
 11
32.066
 20
22.685
 21
21.564
  0
LINE
  8
0
 10
32.066
 11
31.983
 20
21.564
 21
20.213
  0
LINE
  8
0
 10
31.983
 11
31.854
 20
20.213
 21
17.445
  0
LINE
  8
0
 10
31.854
 11
32.021
 20
17.445
 21
16.024
  0
LINE
  8
0
 10
32.021
 11
32.474
 20
16.024
 21
15.688
  0
LINE
  8
0
 10
32.474
 11
33.201
 20
15.688
 21
15.613
  0
LINE
  8
0
 10
33.201
 11
34.598
 20
15.613
 21
15.527
  0
LINE
  8
0
 10
34.598
 11
35.867
 20
15.527
 21
15.162
  0
LINE
  8
0
 10
35.867
 11
38.035
 20
15.162
 21
13.716
  0
LINE
  8
0
 10
38.035
 11
39.748
 20
13.716
 21
11.58
  0
LINE
  8
0
 10
39.748
 11
40.876
 20
11.58
 21
9.188
  0
LINE
  8
0
 10
40.876
 11
41.425
 20
9.188
 21
6.491
  0
LINE
  8
0
 10
41.425
 11
41.199
 20
6.491
 21
3.753
  0
LINE
  8
0
 10
41.199
 11
40.253
 20
3.753
 21
1.297
  0
LINE
  8
0
 10
40.253
 11
38.741
 20
1.297
 21
-1.002
  0
LINE
  8
0
 10
38.741
 11
36.929
 20
-1.002
 21
-3.014
  0
LINE
  8
0
 10
36.929
 11
34.874
 20
-3.014
 21
-4.856
  0
LINE
  8
0
 10
34.874
 11
32.769
 20
-4.856
 21
-6.492
  0
LINE
  8
0
 10
32.769
 11
30.522
 20
-6.492
 21
-8.213
  0
LINE
  8
0
 10
30.522
 11
28.626
 20
-8.213
 21
-10.058
  0
LINE
  8
0
 10
28.626
 11
27.595
 20
-10.058
 21
-12.538
  0
LINE
  8
0
 10
27.595
 11
26.751
 20
-12.538
 21
-15.186
  0
LINE
  8
0
 10
26.751
 11
25.776
 20
-15.186
 21
-17.666
  0
LINE
  8
0
 10
25.776
 11
24.568
 20
-17.666
 21
-20.164
  0
LINE
  8
0
 10
24.568
 11
23.155
 20
-20.164
 21
-22.539
  0
LINE
  8
0
 10
23.155
 11
21.614
 20
-22.539
 21
-24.653
  0
LINE
  8
0
 10
21.614
 11
19.82
 20
-24.653
 21
-26.668
  0
LINE
  8
0
 10
19.82
 11
17.711
 20
-26.668
 21
-28.64
  0
LINE
  8
0
 10
17.711
 11
15.621
 20
-28.64
 21
-30.31
  0
LINE
  8
0
 10
15.621
 11
13.423
 20
-30.31
 21
-31.854
  0
LINE
  8
0
 10
13.423
 11
11.174
 20
-31.854
 21
-33.268
  0
LINE
  8
0
 10
11.174
 11
8.823
 20
-33.268
 21
-34.617
  0
LINE
  8
0
 10
8.823
 11
6.249
 20
-34.617
 21
-35.984
  0
LINE
  8
0
 10
6.249
 11
3.978
 20
-35.984
 21
-37.122
  0
LINE
  8
0
 10
3.978
 11
1.392
 20
-37.122
 21
-38.206
  0
LINE
  8
0
 10
1.392
 11
-1.395
 20
-38.206
 21
-38.79
  0
LINE
  8
0
 10
-1.395
 11
-4.07
 20
-38.79
 21
-38.603
  0
LINE
  8
0
 10
-4.07
 11
-5.073
 20
-38.603
 21
-37.936
  0
LINE
  8
0
 10
-5.073
 11
-5.408
 20
-37.936
 21
-36.709
  0
LINE
  8
0
 10
-5.408
 11
-5.499
 20
-36.709
 21
-33.922
  0
LINE
  8
0
 10
-5.499
 11
-5.382
 20
-33.922
 21
-31.142
  0
LINE
  8
0
 10
-5.382
 11
-4.692
 20
-31.142
 21
-28.543
  0
LINE
  8
0
 10
-4.692
 11
-3.411
 20
-28.543
 21
-26.229
  0
LINE
  8
0
 10
-3.411
 11
-1.748
 20
-26.229
 21
-24.112
  0
LINE
  8
0
 10
-1.748
 11
0.117
 20
-24.112
 21
-22.135
  0
LINE
  8
0
 10
0.117
 11
2.117
 20
-22.135
 21
-20.17
  0
LINE
  8
0
 10
2.117
 11
4.169
 20
-20.17
 21
-18.126
  0
LINE
  8
0
 10
4.169
 11
6.121
 20
-18.126
 21
-16.48
  0
LINE
  8
0
 10
6.121
 11
7.3
 20
-16.48
 21
-15.787
  0
LINE
  8
0
 10
7.3
 11
8.269
 20
-15.787
 21
-14.897
  0
LINE
  8
0
 10
8.269
 11
8.486
 20
-14.897
 21
-13.576
  0
LINE
  8
0
 10
8.486
 11
7.762
 20
-13.576
 21
-12.478
  0
LINE
  8
0
 10
7.762
 11
6.557
 20
-12.478
 21
-12.114
  0
LINE
  8
0
 10
6.557
 11
5.114
 20
-12.114
 21
-12.321
  0
LINE
  8
0
 10
5.114
 11
2.559
 20
-12.321
 21
-13.035
  0
LINE
  8
0
 10
2.559
 11
-0.099
 20
-13.035
 21
-13.587
  0
LINE
  8
0
 10
-0.099
 11
-2.954
 20
-13.587
 21
-13.9
  0
LINE
  8
0
 10
-2.954
 11
-5.556
 20
-13.9
 21
-13.926
  0
LINE
  8
0
 10
-5.556
 11
-8.291
 20
-13.926
 21
-13.693
  0
LINE
  8
0
 10
-8.291
 11
-11.011
 20
-13.693
 21
-13.221
  0
LINE
  8
0
 10
-11.011
 11
-13.575
 20
-13.221
 21
-12.588
  0
LINE
  8
0
 10
-13.575
 11
-16.175
 20
-12.588
 21
-11.775
  0
LINE
  8
0
 10
-16.175
 11
-18.82
 20
-11.775
 21
-10.722
  0
LINE
  8
0
 10
-18.82
 11
-21.167
 20
-10.722
 21
-9.527
  0
LINE
  8
0
 10
-21.167
 11
-23.463
 20
-9.527
 21
-8.02
  0
LINE
  8
0
 10
-23.463
 11
-25.52
 20
-8.02
 21
-6.244
  0
LINE
  8
0
 10
-25.52
 11
-27.285
 20
-6.244
 21
-4.238
  0
LINE
  8
0
 10
-27.285
 11
-28.772
 20
-4.238
 21
-1.995
  0
LINE
  8
0
 10
-28.772
 11
-29.971
 20
-1.995
 21
0.537
  0
LINE
  8
0
 10
-29.971
 11
-30.749
 20
0.537
 21
3.117
  0
LINE
  8
0
 10
-30.749
 11
-31.214
 20
3.117
 21
5.766
  0
LINE
  8
0
 10
-31.214
 11
-31.557
 20
5.766
 21
8.56
  0
LINE
  8
0
 10
-31.557
 11
-31.954
 20
8.56
 21
11.229
  0
LINE
  8
0
 10
-31.954
 11
-32.302
 20
11.229
 21
12.567
  0
LINE
  8
0
 10
-32.302
 11
-32.639
 20
12.567
 21
13.111
  0
LINE
  8
0
 10
-32.639
 11
-33.186
 20
13.111
 21
13.336
  0
LINE
  8
0
 10
-33.186
 11
-34.575
 20
13.336
 21
13.348
  0
LINE
  8
0
 10
-34.575
 11
-35.846
 20
13.348
 21
13.67
  0
LINE
  8
0
 10
-35.846
 11
-38.147
 20
13.67
 21
15.284
  0
LINE
  8
0
 10
-38.147
 11
-40.062
 20
15.284
 21
17.213
  0
LINE
  8
0
 10
-40.062
 11
-40.897
 20
17.213
 21
18.417
  0
LINE
  8
0
 10
-40.897
 11
-41.366
 20
18.417
 21
19.699
  0
LINE
  8
0
 10
-41.366
 11
-41.39
 20
19.699
 21
20.954
  0
ENDSEC
  0
SECTION
  2
OBJECTS
  0
DICTIONARY
  0
ENDSEC
  0
EOF
