  0
SECTION
  2
HEADER
  9
$ACADVER
  1
AC1009
  9
$EXTMIN
 10
0.0
 20
0.0
 30
0.0
  9
$EXTMAX
 10
1000.0
 20
1000.0
 30
0.0
  9
$FILLMODE
 70
 0
  9
$SPLFRAME
 70
 1
  0
ENDSEC
  0
SECTION
  2
TABLES
  0
TABLE
  2
LAYER
 70
1
  0
LAYER
  2
0
 70
     0
 62
     7
  6
CONTINUOUS
  0
ENDTAB
  0
ENDSEC
  0
SECTION
  2
ENTITIES
  0
LINE
  8
0
 62
     0
 10
11.3633
 20
23.942
 30
0.0
 11
11.9311
 21
23.7174
 31
0.0
  0
LINE
  8
0
 62
     0
 10
11.9311
 20
23.7174
 30
0.0
 11
12.5016
 21
23.6209
 31
0.0
  0
LINE
  8
0
 62
     0
 10
12.5016
 20
23.6209
 30
0.0
 11
12.9398
 21
23.6003
 31
0.0
  0
LINE
  8
0
 62
     0
 10
12.9398
 20
23.6003
 30
0.0
 11
13.1162
 21
23.6044
 31
0.0
  0
LINE
  8
0
 62
     0
 10
13.1162
 20
23.6044
 30
0.0
 11
13.0597
 21
23.4804
 31
0.0
  0
LINE
  8
0
 62
     0
 10
13.0597
 20
23.4804
 30
0.0
 11
12.8681
 21
23.1731
 31
0.0
  0
LINE
  8
0
 62
     0
 10
12.8681
 20
23.1731
 30
0.0
 11
12.4988
 21
22.7817
 31
0.0
  0
LINE
  8
0
 62
     0
 10
12.4988
 20
22.7817
 30
0.0
 11
11.9159
 21
22.4055
 31
0.0
  0
LINE
  8
0
 62
     0
 10
11.9159
 20
22.4055
 30
0.0
 11
11.0712
 21
22.1216
 31
0.0
  0
LINE
  8
0
 62
     0
 10
11.0712
 20
22.1216
 30
0.0
 11
9.8764
 21
22.0307
 31
0.0
  0
LINE
  8
0
 62
     0
 10
9.8764
 20
22.0307
 30
0.0
 11
9.01513
 21
22.265
 31
0.0
  0
LINE
  8
0
 62
     0
 10
9.01513
 20
22.265
 30
0.0
 11
8.42395
 21
22.7914
 31
0.0
  0
LINE
  8
0
 62
     0
 10
8.42395
 20
22.7914
 30
0.0
 11
8.10563
 21
23.5245
 31
0.0
  0
LINE
  8
0
 62
     0
 10
8.10563
 20
23.5245
 30
0.0
 11
8.03811
 21
23.8842
 31
0.0
  0
LINE
  8
0
 62
     0
 10
8.03811
 20
23.8842
 30
0.0
 11
8.24343
 21
23.9269
 31
0.0
  0
LINE
  8
0
 62
     0
 10
8.24343
 20
23.9269
 30
0.0
 11
8.75055
 21
24.1074
 31
0.0
  0
LINE
  8
0
 62
     0
 10
8.75055
 20
24.1074
 30
0.0
 11
9.16122
 21
24.6999
 31
0.0
  0
LINE
  8
0
 62
     0
 10
9.16122
 20
24.6999
 30
0.0
 11
9.25629
 21
25.4262
 31
0.0
  0
LINE
  8
0
 62
     0
 10
9.25629
 20
25.4262
 30
0.0
 11
7.91408
 21
25.3793
 31
0.0
  0
LINE
  8
0
 62
     0
 10
7.91408
 20
25.3793
 30
0.0
 11
7.932
 21
25.5075
 31
0.0
  0
LINE
  8
0
 62
     0
 10
7.932
 20
25.5075
 30
0.0
 11
8.02569
 21
25.7996
 31
0.0
  0
LINE
  8
0
 62
     0
 10
8.02569
 20
25.7996
 30
0.0
 11
8.2448
 21
26.1235
 31
0.0
  0
LINE
  8
0
 62
     0
 10
8.2448
 20
26.1235
 30
0.0
 11
8.64581
 21
26.3481
 31
0.0
  0
LINE
  8
0
 62
     0
 10
8.64581
 20
26.3481
 30
0.0
 11
8.99583
 21
26.3853
 31
0.0
  0
LINE
  8
0
 62
     0
 10
8.99583
 20
26.3853
 30
0.0
 11
9.24387
 21
26.3192
 31
0.0
  0
LINE
  8
0
 62
     0
 10
9.24387
 20
26.3192
 30
0.0
 11
9.50845
 21
26.2241
 31
0.0
  0
LINE
  8
0
 62
     0
 10
9.50845
 20
26.2241
 30
0.0
 11
9.90808
 21
26.1772
 31
0.0
  0
LINE
  8
0
 62
     0
 10
9.90808
 20
26.1772
 30
0.0
 11
10.061
 21
26.1786
 31
0.0
  0
LINE
  8
0
 62
     0
 10
10.061
 20
26.1786
 30
0.0
 11
10.5089
 21
26.2626
 31
0.0
  0
LINE
  8
0
 62
     0
 10
10.5089
 20
26.2626
 30
0.0
 11
11.0794
 21
26.4432
 31
0.0
  0
LINE
  8
0
 62
     0
 10
11.0794
 20
26.4432
 30
0.0
 11
11.7271
 21
26.4942
 31
0.0
  0
LINE
  8
0
 62
     0
 10
11.7271
 20
26.4942
 30
0.0
 11
12.2452
 21
26.4445
 31
0.0
  0
LINE
  8
0
 62
     0
 10
12.2452
 20
26.4445
 30
0.0
 11
12.7482
 21
26.2874
 31
0.0
  0
LINE
  8
0
 62
     0
 10
12.7482
 20
26.2874
 30
0.0
 11
13.1768
 21
25.9553
 31
0.0
  0
LINE
  8
0
 62
     0
 10
13.1768
 20
25.9553
 30
0.0
 11
13.4731
 21
25.3766
 31
0.0
  0
LINE
  8
0
 62
     0
 10
13.4731
 20
25.3766
 30
0.0
 11
12.2494
 21
25.4951
 31
0.0
  0
LINE
  8
0
 62
     0
 10
12.2494
 20
25.4951
 30
0.0
 11
10.79
 21
25.4468
 31
0.0
  0
LINE
  8
0
 62
     0
 10
10.79
 20
25.4468
 30
0.0
 11
10.7776
 21
25.0748
 31
0.0
  0
LINE
  8
0
 62
     0
 10
10.7776
 20
25.0748
 30
0.0
 11
10.8107
 21
24.6751
 31
0.0
  0
LINE
  8
0
 62
     0
 10
10.8107
 20
24.6751
 30
0.0
 11
10.9775
 21
24.2852
 31
0.0
  0
LINE
  8
0
 62
     0
 10
10.9775
 20
24.2852
 30
0.0
 11
11.3633
 21
23.942
 31
0.0
  0
LINE
  8
0
 62
     0
 10
34.9677
 20
10.9995
 30
0.0
 11
34.3917
 21
12.4671
 31
0.0
  0
LINE
  8
0
 62
     0
 10
34.3917
 20
12.4671
 30
0.0
 11
33.9011
 21
13.7956
 31
0.0
  0
LINE
  8
0
 62
     0
 10
33.9011
 20
13.7956
 30
0.0
 11
33.8005
 21
14.056
 31
0.0
  0
LINE
  8
0
 62
     0
 10
33.8005
 20
14.056
 30
0.0
 11
33.5125
 21
14.6541
 31
0.0
  0
LINE
  8
0
 62
     0
 10
33.5125
 20
14.6541
 30
0.0
 11
32.9944
 21
15.5374
 31
0.0
  0
LINE
  8
0
 62
     0
 10
32.9944
 20
15.5374
 30
0.0
 11
32.2006
 21
16.6522
 31
0.0
  0
LINE
  8
0
 62
     0
 10
32.2006
 20
16.6522
 30
0.0
 11
31.0858
 21
17.9476
 31
0.0
  0
LINE
  8
0
 62
     0
 10
31.0858
 20
17.9476
 30
0.0
 11
29.6072
 21
19.3683
 31
0.0
  0
LINE
  8
0
 62
     0
 10
29.6072
 20
19.3683
 30
0.0
 11
27.7179
 21
20.8607
 31
0.0
  0
LINE
  8
0
 62
     0
 10
27.7179
 20
20.8607
 30
0.0
 11
25.3752
 21
22.3725
 31
0.0
  0
LINE
  8
0
 62
     0
 10
25.3752
 20
22.3725
 30
0.0
 11
24.0068
 21
22.9622
 31
0.0
  0
LINE
  8
0
 62
     0
 10
24.0068
 20
22.9622
 30
0.0
 11
22.0417
 21
23.6361
 31
0.0
  0
LINE
  8
0
 62
     0
 10
22.0417
 20
23.6361
 30
0.0
 11
20.1042
 21
24.2548
 31
0.0
  0
LINE
  8
0
 62
     0
 10
20.1042
 20
24.2548
 30
0.0
 11
18.8213
 21
24.6779
 31
0.0
  0
LINE
  8
0
 62
     0
 10
18.8213
 20
24.6779
 30
0.0
 11
18.3045
 21
25.0624
 31
0.0
  0
LINE
  8
0
 62
     0
 10
18.3045
 20
25.0624
 30
0.0
 11
17.7409
 21
25.6301
 31
0.0
  0
LINE
  8
0
 62
     0
 10
17.7409
 20
25.6301
 30
0.0
 11
17.0946
 21
26.3688
 31
0.0
  0
LINE
  8
0
 62
     0
 10
17.0946
 20
26.3688
 30
0.0
 11
16.4014
 21
27.1032
 31
0.0
  0
LINE
  8
0
 62
     0
 10
16.4014
 20
27.1032
 30
0.0
 11
15.7
 21
27.6545
 31
0.0
  0
LINE
  8
0
 62
     0
 10
15.7
 20
27.6545
 30
0.0
 11
14.7877
 21
28.1037
 31
0.0
  0
LINE
  8
0
 62
     0
 10
14.7877
 20
28.1037
 30
0.0
 11
13.9816
 21
28.3614
 31
0.0
  0
LINE
  8
0
 62
     0
 10
13.9816
 20
28.3614
 30
0.0
 11
13.2374
 21
28.4923
 31
0.0
  0
LINE
  8
0
 62
     0
 10
13.2374
 20
28.4923
 30
0.0
 11
12.5167
 21
28.5543
 31
0.0
  0
LINE
  8
0
 62
     0
 10
12.5167
 20
28.5543
 30
0.0
 11
11.8001
 21
28.5846
 31
0.0
  0
LINE
  8
0
 62
     0
 10
11.8001
 20
28.5846
 30
0.0
 11
10.9209
 21
28.5557
 31
0.0
  0
LINE
  8
0
 62
     0
 10
10.9209
 20
28.5557
 30
0.0
 11
9.93842
 21
28.4165
 31
0.0
  0
LINE
  8
0
 62
     0
 10
9.93842
 20
28.4165
 30
0.0
 11
8.91177
 21
28.1147
 31
0.0
  0
LINE
  8
0
 62
     0
 10
8.91177
 20
28.1147
 30
0.0
 11
8.05462
 21
27.6462
 31
0.0
  0
LINE
  8
0
 62
     0
 10
8.05462
 20
27.6462
 30
0.0
 11
7.50753
 21
27.1088
 31
0.0
  0
LINE
  8
0
 62
     0
 10
7.50753
 20
27.1088
 30
0.0
 11
7.21127
 21
26.6072
 31
0.0
  0
LINE
  8
0
 62
     0
 10
7.21127
 20
26.6072
 30
0.0
 11
7.10928
 21
26.2503
 31
0.0
  0
LINE
  8
0
 62
     0
 10
7.10928
 20
26.2503
 30
0.0
 11
7.028
 21
25.6742
 31
0.0
  0
LINE
  8
0
 62
     0
 10
7.028
 20
25.6742
 30
0.0
 11
7.29671
 21
25.2815
 31
0.0
  0
LINE
  8
0
 62
     0
 10
7.29671
 20
25.2815
 30
0.0
 11
7.40008
 21
24.7964
 31
0.0
  0
LINE
  8
0
 62
     0
 10
7.40008
 20
24.7964
 30
0.0
 11
7.30497
 21
24.3072
 31
0.0
  0
LINE
  8
0
 62
     0
 10
7.30497
 20
24.3072
 30
0.0
 11
7.2099
 21
23.7339
 31
0.0
  0
LINE
  8
0
 62
     0
 10
7.2099
 20
23.7339
 30
0.0
 11
7.25674
 21
23.264
 31
0.0
  0
LINE
  8
0
 62
     0
 10
7.25674
 20
23.264
 30
0.0
 11
7.43313
 21
22.7004
 31
0.0
  0
LINE
  8
0
 62
     0
 10
7.43313
 20
22.7004
 30
0.0
 11
7.78316
 21
22.0941
 31
0.0
  0
LINE
  8
0
 62
     0
 10
7.78316
 20
22.0941
 30
0.0
 11
8.3578
 21
21.4919
 31
0.0
  0
LINE
  8
0
 62
     0
 10
8.3578
 20
21.4919
 30
0.0
 11
10.1492
 21
20.395
 31
0.0
  0
LINE
  8
0
 62
     0
 10
10.1492
 20
20.395
 30
0.0
 11
12.0523
 21
19.48
 31
0.0
  0
LINE
  8
0
 62
     0
 10
12.0523
 20
19.48
 30
0.0
 11
12.1199
 21
19.44
 31
0.0
  0
LINE
  8
0
 62
     0
 10
12.1199
 20
19.44
 30
0.0
 11
12.7096
 21
18.6242
 31
0.0
  0
LINE
  8
0
 62
     0
 10
12.7096
 20
18.6242
 30
0.0
 11
12.7813
 21
17.8635
 31
0.0
  0
LINE
  8
0
 62
     0
 10
12.7813
 20
17.8635
 30
0.0
 11
12.6159
 21
17.3013
 31
0.0
  0
LINE
  8
0
 62
     0
 10
12.6159
 20
17.3013
 30
0.0
 11
12.4988
 21
17.0822
 31
0.0
  0
LINE
  8
0
 62
     0
 10
12.4988
 20
17.0822
 30
0.0
 11
5.47906
 21
20.078
 31
0.0
  0
LINE
  8
0
 62
     0
 10
5.47906
 20
20.078
 30
0.0
 11
3.86401
 21
20.6265
 31
0.0
  0
LINE
  8
0
 62
     0
 10
3.86401
 20
20.6265
 30
0.0
 11
2.44189
 21
20.5769
 31
0.0
  0
LINE
  8
0
 62
     0
 10
2.44189
 20
20.5769
 30
0.0
 11
1.22783
 21
19.9857
 31
0.0
  0
LINE
  8
0
 62
     0
 10
1.22783
 20
19.9857
 30
0.0
 11
0.235645
 21
18.9095
 31
0.0
  0
LINE
  8
0
 62
     0
 10
0.235645
 20
18.9095
 30
0.0
 11
0.0330729
 21
18.5884
 31
0.0
  0
LINE
  8
0
 62
     0
 10
0.0330729
 20
18.5884
 30
0.0
 11
0.0606337
 21
18.3155
 31
0.0
  0
LINE
  8
0
 62
     0
 10
0.0606337
 20
18.3155
 30
0.0
 11
0.326595
 21
18.3596
 31
0.0
  0
LINE
  8
0
 62
     0
 10
0.326595
 20
18.3596
 30
0.0
 11
1.1107
 21
18.9935
 31
0.0
  0
LINE
  8
0
 62
     0
 10
1.1107
 20
18.9935
 30
0.0
 11
2.07808
 21
19.2912
 31
0.0
  0
LINE
  8
0
 62
     0
 10
2.07808
 20
19.2912
 30
0.0
 11
3.06338
 21
19.2609
 31
0.0
  0
LINE
  8
0
 62
     0
 10
3.06338
 20
19.2609
 30
0.0
 11
3.90811
 21
18.9163
 31
0.0
  0
LINE
  8
0
 62
     0
 10
3.90811
 20
18.9163
 30
0.0
 11
4.05832
 21
18.8061
 31
0.0
  0
LINE
  8
0
 62
     0
 10
4.05832
 20
18.8061
 30
0.0
 11
4.13964
 21
18.4478
 31
0.0
  0
LINE
  8
0
 62
     0
 10
4.13964
 20
18.4478
 30
0.0
 11
4.18373
 21
18.1722
 31
0.0
  0
LINE
  8
0
 62
     0
 10
4.18373
 20
18.1722
 30
0.0
 11
4.26089
 21
17.7671
 31
0.0
  0
LINE
  8
0
 62
     0
 10
4.26089
 20
17.7671
 30
0.0
 11
4.44556
 21
17.0188
 31
0.0
  0
LINE
  8
0
 62
     0
 10
4.44556
 20
17.0188
 30
0.0
 11
4.67568
 21
16.4717
 31
0.0
  0
LINE
  8
0
 62
     0
 10
4.67568
 20
16.4717
 30
0.0
 11
4.98023
 21
16.0348
 31
0.0
  0
LINE
  8
0
 62
     0
 10
4.98023
 20
16.0348
 30
0.0
 11
5.24344
 21
15.7455
 31
0.0
  0
LINE
  8
0
 62
     0
 10
5.24344
 20
15.7455
 30
0.0
 11
5.35781
 21
15.6407
 31
0.0
  0
LINE
  8
0
 62
     0
 10
5.35781
 20
15.6407
 30
0.0
 11
5.59347
 21
15.4189
 31
0.0
  0
LINE
  8
0
 62
     0
 10
5.59347
 20
15.4189
 30
0.0
 11
6.22184
 21
14.8249
 31
0.0
  0
LINE
  8
0
 62
     0
 10
6.22184
 20
14.8249
 30
0.0
 11
7.12033
 21
13.9788
 31
0.0
  0
LINE
  8
0
 62
     0
 10
7.12033
 20
13.9788
 30
0.0
 11
8.16624
 21
12.9921
 31
0.0
  0
LINE
  8
0
 62
     0
 10
8.16624
 20
12.9921
 30
0.0
 11
9.23837
 21
11.982
 31
0.0
  0
LINE
  8
0
 62
     0
 10
9.23837
 20
11.982
 30
0.0
 11
10.2154
 21
11.0629
 31
0.0
  0
LINE
  8
0
 62
     0
 10
10.2154
 20
11.0629
 30
0.0
 11
10.9733
 21
10.3504
 31
0.0
  0
LINE
  8
0
 62
     0
 10
10.9733
 20
10.3504
 30
0.0
 11
11.3936
 21
9.95909
 31
0.0
  0
LINE
  8
0
 62
     0
 10
11.3936
 20
9.95909
 30
0.0
 11
12.1515
 21
9.48641
 31
0.0
  0
LINE
  8
0
 62
     0
 10
12.1515
 20
9.48641
 30
0.0
 11
13.1423
 21
9.20531
 31
0.0
  0
LINE
  8
0
 62
     0
 10
13.1423
 20
9.20531
 30
0.0
 11
14.2544
 21
9.16122
 31
0.0
  0
LINE
  8
0
 62
     0
 10
14.2544
 20
9.16122
 30
0.0
 11
15.3748
 21
9.39684
 31
0.0
  0
LINE
  8
0
 62
     0
 10
15.3748
 20
9.39684
 30
0.0
 11
15.9274
 21
9.62145
 31
0.0
  0
LINE
  8
0
 62
     0
 10
15.9274
 20
9.62145
 30
0.0
 11
16.6756
 21
9.94255
 31
0.0
  0
LINE
  8
0
 62
     0
 10
16.6756
 20
9.94255
 30
0.0
 11
17.5493
 21
10.305
 31
0.0
  0
LINE
  8
0
 62
     0
 10
17.5493
 20
10.305
 30
0.0
 11
18.4795
 21
10.6509
 31
0.0
  0
LINE
  8
0
 62
     0
 10
18.4795
 20
10.6509
 30
0.0
 11
18.8764
 21
10.6867
 31
0.0
  0
LINE
  8
0
 62
     0
 10
18.8764
 20
10.6867
 30
0.0
 11
19.1864
 21
10.469
 31
0.0
  0
LINE
  8
0
 62
     0
 10
19.1864
 20
10.469
 30
0.0
 11
19.4138
 21
10.2264
 31
0.0
  0
LINE
  8
0
 62
     0
 10
19.4138
 20
10.2264
 30
0.0
 11
19.6605
 21
9.9701
 31
0.0
  0
LINE
  8
0
 62
     0
 10
19.6605
 20
9.9701
 30
0.0
 11
19.9788
 21
9.64628
 31
0.0
  0
LINE
  8
0
 62
     0
 10
19.9788
 20
9.64628
 30
0.0
 11
20.4184
 21
9.19565
 31
0.0
  0
LINE
  8
0
 62
     0
 10
20.4184
 20
9.19565
 30
0.0
 11
20.5521
 21
8.90076
 31
0.0
  0
LINE
  8
0
 62
     0
 10
20.5521
 20
8.90076
 30
0.0
 11
20.4184
 21
8.56587
 31
0.0
  0
LINE
  8
0
 62
     0
 10
20.4184
 20
8.56587
 30
0.0
 11
16.9967
 21
4.68394
 31
0.0
  0
LINE
  8
0
 62
     0
 10
16.9967
 20
4.68394
 30
0.0
 11
16.9733
 21
4.66189
 31
0.0
  0
LINE
  8
0
 62
     0
 10
16.9733
 20
4.66189
 30
0.0
 11
16.3614
 21
3.81028
 31
0.0
  0
LINE
  8
0
 62
     0
 10
16.3614
 20
3.81028
 30
0.0
 11
16.0982
 21
2.96554
 31
0.0
  0
LINE
  8
0
 62
     0
 10
16.0982
 20
2.96554
 30
0.0
 11
16.0982
 21
2.13045
 31
0.0
  0
LINE
  8
0
 62
     0
 10
16.0982
 20
2.13045
 30
0.0
 11
16.2788
 21
1.305
 31
0.0
  0
LINE
  8
0
 62
     0
 10
16.2788
 20
1.305
 30
0.0
 11
16.5943
 21
0.620116
 31
0.0
  0
LINE
  8
0
 62
     0
 10
16.5943
 20
0.620116
 30
0.0
 11
17.0587
 21
0.0509873
 31
0.0
  0
LINE
  8
0
 62
     0
 10
17.0587
 20
0.0509873
 30
0.0
 11
17.2751
 21
0.0303168
 31
0.0
  0
LINE
  8
0
 62
     0
 10
17.2751
 20
0.0303168
 30
0.0
 11
17.3109
 21
0.272852
 31
0.0
  0
LINE
  8
0
 62
     0
 10
17.3109
 20
0.272852
 30
0.0
 11
17.107
 21
1.28157
 31
0.0
  0
LINE
  8
0
 62
     0
 10
17.107
 20
1.28157
 30
0.0
 11
17.2131
 21
2.15938
 31
0.0
  0
LINE
  8
0
 62
     0
 10
17.2131
 20
2.15938
 30
0.0
 11
17.6348
 21
2.8801
 31
0.0
  0
LINE
  8
0
 62
     0
 10
17.6348
 20
2.8801
 30
0.0
 11
18.3761
 21
3.41478
 31
0.0
  0
LINE
  8
0
 62
     0
 10
18.3761
 20
3.41478
 30
0.0
 11
19.2815
 21
2.89664
 31
0.0
  0
LINE
  8
0
 62
     0
 10
19.2815
 20
2.89664
 30
0.0
 11
19.9457
 21
2.51216
 31
0.0
  0
LINE
  8
0
 62
     0
 10
19.9457
 20
2.51216
 30
0.0
 11
20.4556
 21
2.33026
 31
0.0
  0
LINE
  8
0
 62
     0
 10
20.4556
 20
2.33026
 30
0.0
 11
20.993
 21
2.29306
 31
0.0
  0
LINE
  8
0
 62
     0
 10
20.993
 20
2.29306
 30
0.0
 11
21.4836
 21
2.34404
 31
0.0
  0
LINE
  8
0
 62
     0
 10
21.4836
 20
2.34404
 30
0.0
 11
21.8529
 21
2.42259
 31
0.0
  0
LINE
  8
0
 62
     0
 10
21.8529
 20
2.42259
 30
0.0
 11
23.3164
 21
2.80706
 31
0.0
  0
LINE
  8
0
 62
     0
 10
23.3164
 20
2.80706
 30
0.0
 11
25.4152
 21
3.3569
 31
0.0
  0
LINE
  8
0
 62
     0
 10
25.4152
 20
3.3569
 30
0.0
 11
27.2989
 21
3.85025
 31
0.0
  0
LINE
  8
0
 62
     0
 10
27.2989
 20
3.85025
 30
0.0
 11
28.1161
 21
4.06382
 31
0.0
  0
LINE
  8
0
 62
     0
 10
28.1161
 20
4.06382
 30
0.0
 11
29.4473
 21
4.54201
 31
0.0
  0
LINE
  8
0
 62
     0
 10
29.4473
 20
4.54201
 30
0.0
 11
30.5139
 21
5.10977
 31
0.0
  0
LINE
  8
0
 62
     0
 10
30.5139
 20
5.10977
 30
0.0
 11
31.3559
 21
5.73952
 31
0.0
  0
LINE
  8
0
 62
     0
 10
31.3559
 20
5.73952
 30
0.0
 11
32.0173
 21
6.40235
 31
0.0
  0
LINE
  8
0
 62
     0
 10
32.0173
 20
6.40235
 30
0.0
 11
32.5424
 21
7.07072
 31
0.0
  0
LINE
  8
0
 62
     0
 10
32.5424
 20
7.07072
 30
0.0
 11
32.9723
 21
7.71564
 31
0.0
  0
LINE
  8
0
 62
     0
 10
32.9723
 20
7.71564
 30
0.0
 11
33.3513
 21
8.30682
 31
0.0
  0
LINE
  8
0
 62
     0
 10
33.3513
 20
8.30682
 30
0.0
 11
33.7234
 21
8.81532
 31
0.0
  0
LINE
  8
0
 62
     0
 10
33.7234
 20
8.81532
 30
0.0
 11
33.7606
 21
8.86354
 31
0.0
  0
LINE
  8
0
 62
     0
 10
33.7606
 20
8.86354
 30
0.0
 11
34.4206
 21
8.79464
 31
0.0
  0
LINE
  8
0
 62
     0
 10
34.4206
 20
8.79464
 30
0.0
 11
34.9305
 21
9.01375
 31
0.0
  0
LINE
  8
0
 62
     0
 10
34.9305
 20
9.01375
 30
0.0
 11
35.2309
 21
9.46023
 31
0.0
  0
LINE
  8
0
 62
     0
 10
35.2309
 20
9.46023
 30
0.0
 11
35.2654
 21
9.97977
 31
0.0
  0
LINE
  8
0
 62
     0
 10
35.2654
 20
9.97977
 30
0.0
 11
35.1427
 21
10.5144
 31
0.0
  0
LINE
  8
0
 62
     0
 10
35.1427
 20
10.5144
 30
0.0
 11
34.9677
 21
10.9995
 31
0.0
  0
LINE
  8
0
 62
     0
 10
9.12125
 20
23.8786
 30
0.0
 11
8.97516
 21
23.6113
 31
0.0
  0
LINE
  8
0
 62
     0
 10
8.97516
 20
23.6113
 30
0.0
 11
9.124
 21
23.0546
 31
0.0
  0
LINE
  8
0
 62
     0
 10
9.124
 20
23.0546
 30
0.0
 11
9.58427
 21
22.7693
 31
0.0
  0
LINE
  8
0
 62
     0
 10
9.58427
 20
22.7693
 30
0.0
 11
10.1217
 21
22.9995
 31
0.0
  0
LINE
  8
0
 62
     0
 10
10.1217
 20
22.9995
 30
0.0
 11
10.2609
 21
23.6168
 31
0.0
  0
LINE
  8
0
 62
     0
 10
10.2609
 20
23.6168
 30
0.0
 11
10.1989
 21
23.7808
 31
0.0
  0
LINE
  8
0
 62
     0
 10
10.1989
 20
23.7808
 30
0.0
 11
9.54017
 21
23.993
 31
0.0
  0
LINE
  8
0
 62
     0
 10
9.54017
 20
23.993
 30
0.0
 11
9.12125
 21
23.8786
 31
0.0
  0
ENDSEC
  0
EOF
