999
DXF created by Inkscape
  0
SECTION
  2
HEADER
  9
$ACADVER
  1
AC1014
  9
$HANDSEED
  5
FFFF
  9
$MEASUREMENT
 70
     1
  0
ENDSEC
  0
SECTION
  2
TABLES
  0
TABLE
  2
VPORT
  5
8
330
0
100
AcDbSymbolTable
 70
     4
  0
VPORT
  5
2E
330
8
100
AcDbSymbolTableRecord
100
AcDbViewportTableRecord
  2
*ACTIVE
 70
     0
 10
0.0
 20
0.0
 11
1.0
 21
1.0
 12
210.0
 22
148.5
 13
0.0
 23
0.0
 14
10.0
 24
10.0
 15
10.0
 25
10.0
 16
0.0
 26
0.0
 36
1.0
 17
0.0
 27
0.0
 37
0.0
 40
341.0
 41
1.24
 42
50.0
 43
0.0
 44
0.0
 50
0.0
 51
0.0
 71
     0
 72
   100
 73
     1
 74
     3
 75
     0
 76
     0
 77
     0
 78
     0
  0
ENDTAB
  0
TABLE
  2
LTYPE
  5
5
330
0
100
AcDbSymbolTable
 70
     1
  0
LTYPE
  5
14
330
5
100
AcDbSymbolTableRecord
100
AcDbLinetypeTableRecord
  2
BYBLOCK
 70
     0
  3

 72
    65
 73
     0
 40
0.0
  0
LTYPE
  5
15
330
5
100
AcDbSymbolTableRecord
100
AcDbLinetypeTableRecord
  2
BYLAYER
 70
     0
  3

 72
    65
 73
     0
 40
0.0
  0
LTYPE
  5
16
330
5
100
AcDbSymbolTableRecord
100
AcDbLinetypeTableRecord
  2
CONTINUOUS
 70
     0
  3
Solid line
 72
    65
 73
     0
 40
0.0
  0
ENDTAB
  0
TABLE
  2
LAYER
  5
2
100
AcDbSymbolTable
 70
4
  0
LAYER
  5
50
100
AcDbSymbolTableRecord
100
AcDbLayerTableRecord
  2
0
 70
0
  6
CONTINUOUS
  0
LAYER
  5
51
100
AcDbSymbolTableRecord
100
AcDbLayerTableRecord
  2
Layer_1
 70
0
  6
CONTINUOUS
  0
LAYER
  5
52
100
AcDbSymbolTableRecord
100
AcDbLayerTableRecord
  2
CC
 70
0
  6
CONTINUOUS
  0
LAYER
  5
53
100
AcDbSymbolTableRecord
100
AcDbLayerTableRecord
  2
Stamp
 70
0
  6
CONTINUOUS
  0
ENDTAB
  0
TABLE
  2
STYLE
  5
3
330
0
100
AcDbSymbolTable
 70
     1
  0
STYLE
  5
11
330
3
100
AcDbSymbolTableRecord
100
AcDbTextStyleTableRecord
  2
STANDARD
 70
     0
 40
0.0
 41
1.0
 50
0.0
 71
     0
 42
2.5
  3
txt
  4

  0
ENDTAB
  0
TABLE
  2
VIEW
  5
6
330
0
100
AcDbSymbolTable
 70
     0
  0
ENDTAB
  0
TABLE
  2
UCS
  5
7
330
0
100
AcDbSymbolTable
 70
     0
  0
ENDTAB
  0
TABLE
  2
APPID
  5
9
330
0
100
AcDbSymbolTable
 70
     2
  0
APPID
  5
12
330
9
100
AcDbSymbolTableRecord
100
AcDbRegAppTableRecord
  2
ACAD
 70
     0
  0
ENDTAB
  0
TABLE
  2
DIMSTYLE
  5
A
330
0
100
AcDbSymbolTable
 70
     1
  0
DIMSTYLE
105
27
330
A
100
AcDbSymbolTableRecord
100
AcDbDimStyleTableRecord
  2
ISO-25
 70
     0
  3

  4

  5

  6

  7

 40
1.0
 41
2.5
 42
0.625
 43
3.75
 44
1.25
 45
0.0
 46
0.0
 47
0.0
 48
0.0
140
2.5
141
2.5
142
0.0
143
0.03937007874016
144
1.0
145
0.0
146
1.0
147
0.625
 71
     0
 72
     0
 73
     0
 74
     0
 75
     0
 76
     0
 77
     1
 78
     8
170
     0
171
     3
172
     1
173
     0
174
     0
175
     0
176
     0
177
     0
178
     0
270
     2
271
     2
272
     2
273
     2
274
     3
340
11
275
     0
280
     0
281
     0
282
     0
283
     0
284
     8
285
     0
286
     0
287
     3
288
     0
  0
ENDTAB
  0
TABLE
  2
BLOCK_RECORD
  5
1
330
0
100
AcDbSymbolTable
 70
     1
  0
BLOCK_RECORD
  5
1F
330
1
100
AcDbSymbolTableRecord
100
AcDbBlockTableRecord
  2
*MODEL_SPACE
  0
BLOCK_RECORD
  5
1B
330
1
100
AcDbSymbolTableRecord
100
AcDbBlockTableRecord
  2
*PAPER_SPACE
  0
ENDTAB
  0
ENDSEC
  0
SECTION
  2
BLOCKS
  0
BLOCK
  5
20
330
1F
100
AcDbEntity
  8
0
100
AcDbBlockBegin
  2
*MODEL_SPACE
 70
     0
 10
0.0
 20
0.0
 30
0.0
  3
*MODEL_SPACE
  1

  0
ENDBLK
  5
21
330
1F
100
AcDbEntity
  8
0
100
AcDbBlockEnd
  0
BLOCK
  5
1C
330
1B
100
AcDbEntity
 67
     1
  8
0
100
AcDbBlockBegin
  2
*PAPER_SPACE
  1

  0
ENDBLK
  5
1D
330
1B
100
AcDbEntity
 67
     1
  8
0
100
AcDbBlockEnd
  0
ENDSEC
  0
SECTION
  2
ENTITIES
  0
LINE
  5
100
100
AcDbEntity
  8
CC
 62
3
100
AcDbLine
 10
55.765785
 20
48.766967
 30
0.0
 11
55.640882
 21
46.293431
 31
0.0
  0
LINE
  5
101
100
AcDbEntity
  8
CC
 62
3
100
AcDbLine
 10
55.640882
 20
46.293431
 30
0.0
 11
55.274281
 21
43.891349
 31
0.0
  0
LINE
  5
102
100
AcDbEntity
  8
CC
 62
3
100
AcDbLine
 10
55.274281
 20
43.891349
 30
0.0
 11
54.678141
 21
41.572878
 31
0.0
  0
LINE
  5
103
100
AcDbEntity
  8
CC
 62
3
100
AcDbLine
 10
54.678141
 20
41.572878
 30
0.0
 11
53.864623
 21
39.350183
 31
0.0
  0
LINE
  5
104
100
AcDbEntity
  8
CC
 62
3
100
AcDbLine
 10
53.864623
 20
39.350183
 30
0.0
 11
52.845890
 21
37.235420
 31
0.0
  0
LINE
  5
105
100
AcDbEntity
  8
CC
 62
3
100
AcDbLine
 10
52.845890
 20
37.235420
 30
0.0
 11
51.634098
 21
35.240751
 31
0.0
  0
LINE
  5
106
100
AcDbEntity
  8
CC
 62
3
100
AcDbLine
 10
51.634098
 20
35.240751
 30
0.0
 11
50.241408
 21
33.378338
 31
0.0
  0
LINE
  5
107
100
AcDbEntity
  8
CC
 62
3
100
AcDbLine
 10
50.241408
 20
33.378338
 30
0.0
 11
48.679986
 21
31.660340
 31
0.0
  0
LINE
  5
108
100
AcDbEntity
  8
CC
 62
3
100
AcDbLine
 10
48.679986
 20
31.660340
 30
0.0
 11
46.961986
 21
30.098918
 31
0.0
  0
LINE
  5
109
100
AcDbEntity
  8
CC
 62
3
100
AcDbLine
 10
46.961986
 20
30.098918
 30
0.0
 11
45.099570
 21
28.706228
 31
0.0
  0
LINE
  5
10a
100
AcDbEntity
  8
CC
 62
3
100
AcDbLine
 10
45.099570
 20
28.706228
 30
0.0
 11
43.104903
 21
27.494428
 31
0.0
  0
LINE
  5
10b
100
AcDbEntity
  8
CC
 62
3
100
AcDbLine
 10
43.104903
 20
27.494428
 30
0.0
 11
40.990138
 21
26.475712
 31
0.0
  0
LINE
  5
10c
100
AcDbEntity
  8
CC
 62
3
100
AcDbLine
 10
40.990138
 20
26.475712
 30
0.0
 11
38.767440
 21
25.662185
 31
0.0
  0
LINE
  5
10d
100
AcDbEntity
  8
CC
 62
3
100
AcDbLine
 10
38.767440
 20
25.662185
 30
0.0
 11
36.448972
 21
25.066065
 31
0.0
  0
LINE
  5
10e
100
AcDbEntity
  8
CC
 62
3
100
AcDbLine
 10
36.448972
 20
25.066065
 30
0.0
 11
34.046887
 21
24.699456
 31
0.0
  0
LINE
  5
10f
100
AcDbEntity
  8
CC
 62
3
100
AcDbLine
 10
34.046887
 20
24.699456
 30
0.0
 11
31.573351
 21
24.574547
 31
0.0
  0
LINE
  5
110
100
AcDbEntity
  8
CC
 62
3
100
AcDbLine
 10
31.573351
 20
24.574547
 30
0.0
 11
29.099815
 21
24.699456
 31
0.0
  0
LINE
  5
111
100
AcDbEntity
  8
CC
 62
3
100
AcDbLine
 10
29.099815
 20
24.699456
 30
0.0
 11
26.697733
 21
25.066065
 31
0.0
  0
LINE
  5
112
100
AcDbEntity
  8
CC
 62
3
100
AcDbLine
 10
26.697733
 20
25.066065
 30
0.0
 11
24.379263
 21
25.662185
 31
0.0
  0
LINE
  5
113
100
AcDbEntity
  8
CC
 62
3
100
AcDbLine
 10
24.379263
 20
25.662185
 30
0.0
 11
22.156566
 21
26.475712
 31
0.0
  0
LINE
  5
114
100
AcDbEntity
  8
CC
 62
3
100
AcDbLine
 10
22.156566
 20
26.475712
 30
0.0
 11
20.041803
 21
27.494428
 31
0.0
  0
LINE
  5
115
100
AcDbEntity
  8
CC
 62
3
100
AcDbLine
 10
20.041803
 20
27.494428
 30
0.0
 11
18.047134
 21
28.706228
 31
0.0
  0
LINE
  5
116
100
AcDbEntity
  8
CC
 62
3
100
AcDbLine
 10
18.047134
 20
28.706228
 30
0.0
 11
16.184719
 21
30.098918
 31
0.0
  0
LINE
  5
117
100
AcDbEntity
  8
CC
 62
3
100
AcDbLine
 10
16.184719
 20
30.098918
 30
0.0
 11
14.466720
 21
31.660340
 31
0.0
  0
LINE
  5
118
100
AcDbEntity
  8
CC
 62
3
100
AcDbLine
 10
14.466720
 20
31.660340
 30
0.0
 11
12.905296
 21
33.378338
 31
0.0
  0
LINE
  5
119
100
AcDbEntity
  8
CC
 62
3
100
AcDbLine
 10
12.905296
 20
33.378338
 30
0.0
 11
11.512608
 21
35.240751
 31
0.0
  0
LINE
  5
11a
100
AcDbEntity
  8
CC
 62
3
100
AcDbLine
 10
11.512608
 20
35.240751
 30
0.0
 11
10.300816
 21
37.235420
 31
0.0
  0
LINE
  5
11b
100
AcDbEntity
  8
CC
 62
3
100
AcDbLine
 10
10.300816
 20
37.235420
 30
0.0
 11
9.282082
 21
39.350183
 31
0.0
  0
LINE
  5
11c
100
AcDbEntity
  8
CC
 62
3
100
AcDbLine
 10
9.282082
 20
39.350183
 30
0.0
 11
8.468565
 21
41.572878
 31
0.0
  0
LINE
  5
11d
100
AcDbEntity
  8
CC
 62
3
100
AcDbLine
 10
8.468565
 20
41.572878
 30
0.0
 11
7.872425
 21
43.891349
 31
0.0
  0
LINE
  5
11e
100
AcDbEntity
  8
CC
 62
3
100
AcDbLine
 10
7.872425
 20
43.891349
 30
0.0
 11
7.505823
 21
46.293431
 31
0.0
  0
LINE
  5
11f
100
AcDbEntity
  8
CC
 62
3
100
AcDbLine
 10
7.505823
 20
46.293431
 30
0.0
 11
7.380921
 21
48.766967
 31
0.0
  0
LINE
  5
120
100
AcDbEntity
  8
CC
 62
3
100
AcDbLine
 10
7.380921
 20
48.766967
 30
0.0
 11
7.505823
 21
51.240503
 31
0.0
  0
LINE
  5
121
100
AcDbEntity
  8
CC
 62
3
100
AcDbLine
 10
7.505823
 20
51.240503
 30
0.0
 11
7.872425
 21
53.642584
 31
0.0
  0
LINE
  5
122
100
AcDbEntity
  8
CC
 62
3
100
AcDbLine
 10
7.872425
 20
53.642584
 30
0.0
 11
8.468565
 21
55.961055
 31
0.0
  0
LINE
  5
123
100
AcDbEntity
  8
CC
 62
3
100
AcDbLine
 10
8.468565
 20
55.961055
 30
0.0
 11
9.282082
 21
58.183753
 31
0.0
  0
LINE
  5
124
100
AcDbEntity
  8
CC
 62
3
100
AcDbLine
 10
9.282082
 20
58.183753
 30
0.0
 11
10.300816
 21
60.298516
 31
0.0
  0
LINE
  5
125
100
AcDbEntity
  8
CC
 62
3
100
AcDbLine
 10
10.300816
 20
60.298516
 30
0.0
 11
11.512608
 21
62.293186
 31
0.0
  0
LINE
  5
126
100
AcDbEntity
  8
CC
 62
3
100
AcDbLine
 10
11.512608
 20
62.293186
 30
0.0
 11
12.905296
 21
64.155598
 31
0.0
  0
LINE
  5
127
100
AcDbEntity
  8
CC
 62
3
100
AcDbLine
 10
12.905296
 20
64.155598
 30
0.0
 11
14.466720
 21
65.873599
 31
0.0
  0
LINE
  5
128
100
AcDbEntity
  8
CC
 62
3
100
AcDbLine
 10
14.466720
 20
65.873599
 30
0.0
 11
16.184719
 21
67.435023
 31
0.0
  0
LINE
  5
129
100
AcDbEntity
  8
CC
 62
3
100
AcDbLine
 10
16.184719
 20
67.435023
 30
0.0
 11
18.047134
 21
68.827711
 31
0.0
  0
LINE
  5
12a
100
AcDbEntity
  8
CC
 62
3
100
AcDbLine
 10
18.047134
 20
68.827711
 30
0.0
 11
20.041803
 21
70.039503
 31
0.0
  0
LINE
  5
12b
100
AcDbEntity
  8
CC
 62
3
100
AcDbLine
 10
20.041803
 20
70.039503
 30
0.0
 11
22.156566
 21
71.058236
 31
0.0
  0
LINE
  5
12c
100
AcDbEntity
  8
CC
 62
3
100
AcDbLine
 10
22.156566
 20
71.058236
 30
0.0
 11
24.379263
 21
71.871754
 31
0.0
  0
LINE
  5
12d
100
AcDbEntity
  8
CC
 62
3
100
AcDbLine
 10
24.379263
 20
71.871754
 30
0.0
 11
26.697733
 21
72.467894
 31
0.0
  0
LINE
  5
12e
100
AcDbEntity
  8
CC
 62
3
100
AcDbLine
 10
26.697733
 20
72.467894
 30
0.0
 11
29.099815
 21
72.834494
 31
0.0
  0
LINE
  5
12f
100
AcDbEntity
  8
CC
 62
3
100
AcDbLine
 10
29.099815
 20
72.834494
 30
0.0
 11
31.573351
 21
72.959397
 31
0.0
  0
LINE
  5
130
100
AcDbEntity
  8
CC
 62
3
100
AcDbLine
 10
31.573351
 20
72.959397
 30
0.0
 11
34.046887
 21
72.834494
 31
0.0
  0
LINE
  5
131
100
AcDbEntity
  8
CC
 62
3
100
AcDbLine
 10
34.046887
 20
72.834494
 30
0.0
 11
36.448972
 21
72.467894
 31
0.0
  0
LINE
  5
132
100
AcDbEntity
  8
CC
 62
3
100
AcDbLine
 10
36.448972
 20
72.467894
 30
0.0
 11
38.767440
 21
71.871754
 31
0.0
  0
LINE
  5
133
100
AcDbEntity
  8
CC
 62
3
100
AcDbLine
 10
38.767440
 20
71.871754
 30
0.0
 11
40.990138
 21
71.058236
 31
0.0
  0
LINE
  5
134
100
AcDbEntity
  8
CC
 62
3
100
AcDbLine
 10
40.990138
 20
71.058236
 30
0.0
 11
43.104903
 21
70.039503
 31
0.0
  0
LINE
  5
135
100
AcDbEntity
  8
CC
 62
3
100
AcDbLine
 10
43.104903
 20
70.039503
 30
0.0
 11
45.099570
 21
68.827711
 31
0.0
  0
LINE
  5
136
100
AcDbEntity
  8
CC
 62
3
100
AcDbLine
 10
45.099570
 20
68.827711
 30
0.0
 11
46.961986
 21
67.435023
 31
0.0
  0
LINE
  5
137
100
AcDbEntity
  8
CC
 62
3
100
AcDbLine
 10
46.961986
 20
67.435023
 30
0.0
 11
48.679986
 21
65.873599
 31
0.0
  0
LINE
  5
138
100
AcDbEntity
  8
CC
 62
3
100
AcDbLine
 10
48.679986
 20
65.873599
 30
0.0
 11
50.241408
 21
64.155598
 31
0.0
  0
LINE
  5
139
100
AcDbEntity
  8
CC
 62
3
100
AcDbLine
 10
50.241408
 20
64.155598
 30
0.0
 11
51.634098
 21
62.293186
 31
0.0
  0
LINE
  5
13a
100
AcDbEntity
  8
CC
 62
3
100
AcDbLine
 10
51.634098
 20
62.293186
 30
0.0
 11
52.845890
 21
60.298516
 31
0.0
  0
LINE
  5
13b
100
AcDbEntity
  8
CC
 62
3
100
AcDbLine
 10
52.845890
 20
60.298516
 30
0.0
 11
53.864623
 21
58.183753
 31
0.0
  0
LINE
  5
13c
100
AcDbEntity
  8
CC
 62
3
100
AcDbLine
 10
53.864623
 20
58.183753
 30
0.0
 11
54.678141
 21
55.961055
 31
0.0
  0
LINE
  5
13d
100
AcDbEntity
  8
CC
 62
3
100
AcDbLine
 10
54.678141
 20
55.961055
 30
0.0
 11
55.274281
 21
53.642584
 31
0.0
  0
LINE
  5
13e
100
AcDbEntity
  8
CC
 62
3
100
AcDbLine
 10
55.274281
 20
53.642584
 30
0.0
 11
55.640882
 21
51.240503
 31
0.0
  0
LINE
  5
13f
100
AcDbEntity
  8
CC
 62
3
100
AcDbLine
 10
55.640882
 20
51.240503
 30
0.0
 11
55.765785
 21
48.766967
 31
0.0
  0
LINE
  5
140
100
AcDbEntity
  8
Stamp
 62
3
100
AcDbLine
 10
27.539452
 20
57.174312
 30
0.0
 11
27.475596
 21
56.209067
 31
0.0
  0
LINE
  5
141
100
AcDbEntity
  8
Stamp
 62
3
100
AcDbLine
 10
27.475596
 20
56.209067
 30
0.0
 11
27.292453
 21
55.310034
 31
0.0
  0
LINE
  5
142
100
AcDbEntity
  8
Stamp
 62
3
100
AcDbLine
 10
27.292453
 20
55.310034
 30
0.0
 11
27.002662
 21
54.496475
 31
0.0
  0
LINE
  5
143
100
AcDbEntity
  8
Stamp
 62
3
100
AcDbLine
 10
27.002662
 20
54.496475
 30
0.0
 11
26.618862
 21
53.787645
 31
0.0
  0
LINE
  5
144
100
AcDbEntity
  8
Stamp
 62
3
100
AcDbLine
 10
26.618862
 20
53.787645
 30
0.0
 11
26.153694
 21
53.202810
 31
0.0
  0
LINE
  5
145
100
AcDbEntity
  8
Stamp
 62
3
100
AcDbLine
 10
26.153694
 20
53.202810
 30
0.0
 11
25.619795
 21
52.761223
 31
0.0
  0
LINE
  5
146
100
AcDbEntity
  8
Stamp
 62
3
100
AcDbLine
 10
25.619795
 20
52.761223
 30
0.0
 11
25.029805
 21
52.482147
 31
0.0
  0
LINE
  5
147
100
AcDbEntity
  8
Stamp
 62
3
100
AcDbLine
 10
25.029805
 20
52.482147
 30
0.0
 11
24.396362
 21
52.384843
 31
0.0
  0
LINE
  5
148
100
AcDbEntity
  8
Stamp
 62
3
100
AcDbLine
 10
24.396362
 20
52.384843
 30
0.0
 11
23.762920
 21
52.482147
 31
0.0
  0
LINE
  5
149
100
AcDbEntity
  8
Stamp
 62
3
100
AcDbLine
 10
23.762920
 20
52.482147
 30
0.0
 11
23.172930
 21
52.761223
 31
0.0
  0
LINE
  5
14a
100
AcDbEntity
  8
Stamp
 62
3
100
AcDbLine
 10
23.172930
 20
52.761223
 30
0.0
 11
22.639031
 21
53.202810
 31
0.0
  0
LINE
  5
14b
100
AcDbEntity
  8
Stamp
 62
3
100
AcDbLine
 10
22.639031
 20
53.202810
 30
0.0
 11
22.173862
 21
53.787645
 31
0.0
  0
LINE
  5
14c
100
AcDbEntity
  8
Stamp
 62
3
100
AcDbLine
 10
22.173862
 20
53.787645
 30
0.0
 11
21.790063
 21
54.496475
 31
0.0
  0
LINE
  5
14d
100
AcDbEntity
  8
Stamp
 62
3
100
AcDbLine
 10
21.790063
 20
54.496475
 30
0.0
 11
21.500272
 21
55.310034
 31
0.0
  0
LINE
  5
14e
100
AcDbEntity
  8
Stamp
 62
3
100
AcDbLine
 10
21.500272
 20
55.310034
 30
0.0
 11
21.317129
 21
56.209067
 31
0.0
  0
LINE
  5
14f
100
AcDbEntity
  8
Stamp
 62
3
100
AcDbLine
 10
21.317129
 20
56.209067
 30
0.0
 11
21.253272
 21
57.174312
 31
0.0
  0
LINE
  5
150
100
AcDbEntity
  8
Stamp
 62
3
100
AcDbLine
 10
21.253272
 20
57.174312
 30
0.0
 11
21.317129
 21
58.139557
 31
0.0
  0
LINE
  5
151
100
AcDbEntity
  8
Stamp
 62
3
100
AcDbLine
 10
21.317129
 20
58.139557
 30
0.0
 11
21.500272
 21
59.038590
 31
0.0
  0
LINE
  5
152
100
AcDbEntity
  8
Stamp
 62
3
100
AcDbLine
 10
21.500272
 20
59.038590
 30
0.0
 11
21.790063
 21
59.852149
 31
0.0
  0
LINE
  5
153
100
AcDbEntity
  8
Stamp
 62
3
100
AcDbLine
 10
21.790063
 20
59.852149
 30
0.0
 11
22.173862
 21
60.560979
 31
0.0
  0
LINE
  5
154
100
AcDbEntity
  8
Stamp
 62
3
100
AcDbLine
 10
22.173862
 20
60.560979
 30
0.0
 11
22.639031
 21
61.145814
 31
0.0
  0
LINE
  5
155
100
AcDbEntity
  8
Stamp
 62
3
100
AcDbLine
 10
22.639031
 20
61.145814
 30
0.0
 11
23.172930
 21
61.587401
 31
0.0
  0
LINE
  5
156
100
AcDbEntity
  8
Stamp
 62
3
100
AcDbLine
 10
23.172930
 20
61.587401
 30
0.0
 11
23.762920
 21
61.866477
 31
0.0
  0
LINE
  5
157
100
AcDbEntity
  8
Stamp
 62
3
100
AcDbLine
 10
23.762920
 20
61.866477
 30
0.0
 11
24.396362
 21
61.963781
 31
0.0
  0
LINE
  5
158
100
AcDbEntity
  8
Stamp
 62
3
100
AcDbLine
 10
24.396362
 20
61.963781
 30
0.0
 11
25.029805
 21
61.866477
 31
0.0
  0
LINE
  5
159
100
AcDbEntity
  8
Stamp
 62
3
100
AcDbLine
 10
25.029805
 20
61.866477
 30
0.0
 11
25.619795
 21
61.587401
 31
0.0
  0
LINE
  5
15a
100
AcDbEntity
  8
Stamp
 62
3
100
AcDbLine
 10
25.619795
 20
61.587401
 30
0.0
 11
26.153694
 21
61.145814
 31
0.0
  0
LINE
  5
15b
100
AcDbEntity
  8
Stamp
 62
3
100
AcDbLine
 10
26.153694
 20
61.145814
 30
0.0
 11
26.618862
 21
60.560979
 31
0.0
  0
LINE
  5
15c
100
AcDbEntity
  8
Stamp
 62
3
100
AcDbLine
 10
26.618862
 20
60.560979
 30
0.0
 11
27.002662
 21
59.852149
 31
0.0
  0
LINE
  5
15d
100
AcDbEntity
  8
Stamp
 62
3
100
AcDbLine
 10
27.002662
 20
59.852149
 30
0.0
 11
27.292453
 21
59.038590
 31
0.0
  0
LINE
  5
15e
100
AcDbEntity
  8
Stamp
 62
3
100
AcDbLine
 10
27.292453
 20
59.038590
 30
0.0
 11
27.475596
 21
58.139557
 31
0.0
  0
LINE
  5
15f
100
AcDbEntity
  8
Stamp
 62
3
100
AcDbLine
 10
27.475596
 20
58.139557
 30
0.0
 11
27.539452
 21
57.174312
 31
0.0
  0
LINE
  5
160
100
AcDbEntity
  8
Stamp
 62
3
100
AcDbLine
 10
42.057533
 20
57.274085
 30
0.0
 11
41.993677
 21
56.308840
 31
0.0
  0
LINE
  5
161
100
AcDbEntity
  8
Stamp
 62
3
100
AcDbLine
 10
41.993677
 20
56.308840
 30
0.0
 11
41.810534
 21
55.409807
 31
0.0
  0
LINE
  5
162
100
AcDbEntity
  8
Stamp
 62
3
100
AcDbLine
 10
41.810534
 20
55.409807
 30
0.0
 11
41.520743
 21
54.596247
 31
0.0
  0
LINE
  5
163
100
AcDbEntity
  8
Stamp
 62
3
100
AcDbLine
 10
41.520743
 20
54.596247
 30
0.0
 11
41.136943
 21
53.887418
 31
0.0
  0
LINE
  5
164
100
AcDbEntity
  8
Stamp
 62
3
100
AcDbLine
 10
41.136943
 20
53.887418
 30
0.0
 11
40.671775
 21
53.302583
 31
0.0
  0
LINE
  5
165
100
AcDbEntity
  8
Stamp
 62
3
100
AcDbLine
 10
40.671775
 20
53.302583
 30
0.0
 11
40.137876
 21
52.860996
 31
0.0
  0
LINE
  5
166
100
AcDbEntity
  8
Stamp
 62
3
100
AcDbLine
 10
40.137876
 20
52.860996
 30
0.0
 11
39.547886
 21
52.581920
 31
0.0
  0
LINE
  5
167
100
AcDbEntity
  8
Stamp
 62
3
100
AcDbLine
 10
39.547886
 20
52.581920
 30
0.0
 11
38.914443
 21
52.484616
 31
0.0
  0
LINE
  5
168
100
AcDbEntity
  8
Stamp
 62
3
100
AcDbLine
 10
38.914443
 20
52.484616
 30
0.0
 11
38.281001
 21
52.581920
 31
0.0
  0
LINE
  5
169
100
AcDbEntity
  8
Stamp
 62
3
100
AcDbLine
 10
38.281001
 20
52.581920
 30
0.0
 11
37.691011
 21
52.860996
 31
0.0
  0
LINE
  5
16a
100
AcDbEntity
  8
Stamp
 62
3
100
AcDbLine
 10
37.691011
 20
52.860996
 30
0.0
 11
37.157112
 21
53.302583
 31
0.0
  0
LINE
  5
16b
100
AcDbEntity
  8
Stamp
 62
3
100
AcDbLine
 10
37.157112
 20
53.302583
 30
0.0
 11
36.691943
 21
53.887418
 31
0.0
  0
LINE
  5
16c
100
AcDbEntity
  8
Stamp
 62
3
100
AcDbLine
 10
36.691943
 20
53.887418
 30
0.0
 11
36.308144
 21
54.596247
 31
0.0
  0
LINE
  5
16d
100
AcDbEntity
  8
Stamp
 62
3
100
AcDbLine
 10
36.308144
 20
54.596247
 30
0.0
 11
36.018353
 21
55.409807
 31
0.0
  0
LINE
  5
16e
100
AcDbEntity
  8
Stamp
 62
3
100
AcDbLine
 10
36.018353
 20
55.409807
 30
0.0
 11
35.835210
 21
56.308840
 31
0.0
  0
LINE
  5
16f
100
AcDbEntity
  8
Stamp
 62
3
100
AcDbLine
 10
35.835210
 20
56.308840
 30
0.0
 11
35.771353
 21
57.274085
 31
0.0
  0
LINE
  5
170
100
AcDbEntity
  8
Stamp
 62
3
100
AcDbLine
 10
35.771353
 20
57.274085
 30
0.0
 11
35.835210
 21
58.239330
 31
0.0
  0
LINE
  5
171
100
AcDbEntity
  8
Stamp
 62
3
100
AcDbLine
 10
35.835210
 20
58.239330
 30
0.0
 11
36.018353
 21
59.138363
 31
0.0
  0
LINE
  5
172
100
AcDbEntity
  8
Stamp
 62
3
100
AcDbLine
 10
36.018353
 20
59.138363
 30
0.0
 11
36.308144
 21
59.951922
 31
0.0
  0
LINE
  5
173
100
AcDbEntity
  8
Stamp
 62
3
100
AcDbLine
 10
36.308144
 20
59.951922
 30
0.0
 11
36.691943
 21
60.660751
 31
0.0
  0
LINE
  5
174
100
AcDbEntity
  8
Stamp
 62
3
100
AcDbLine
 10
36.691943
 20
60.660751
 30
0.0
 11
37.157112
 21
61.245586
 31
0.0
  0
LINE
  5
175
100
AcDbEntity
  8
Stamp
 62
3
100
AcDbLine
 10
37.157112
 20
61.245586
 30
0.0
 11
37.691011
 21
61.687174
 31
0.0
  0
LINE
  5
176
100
AcDbEntity
  8
Stamp
 62
3
100
AcDbLine
 10
37.691011
 20
61.687174
 30
0.0
 11
38.281001
 21
61.966249
 31
0.0
  0
LINE
  5
177
100
AcDbEntity
  8
Stamp
 62
3
100
AcDbLine
 10
38.281001
 20
61.966249
 30
0.0
 11
38.914443
 21
62.063554
 31
0.0
  0
LINE
  5
178
100
AcDbEntity
  8
Stamp
 62
3
100
AcDbLine
 10
38.914443
 20
62.063554
 30
0.0
 11
39.547886
 21
61.966249
 31
0.0
  0
LINE
  5
179
100
AcDbEntity
  8
Stamp
 62
3
100
AcDbLine
 10
39.547886
 20
61.966249
 30
0.0
 11
40.137876
 21
61.687174
 31
0.0
  0
LINE
  5
17a
100
AcDbEntity
  8
Stamp
 62
3
100
AcDbLine
 10
40.137876
 20
61.687174
 30
0.0
 11
40.671775
 21
61.245586
 31
0.0
  0
LINE
  5
17b
100
AcDbEntity
  8
Stamp
 62
3
100
AcDbLine
 10
40.671775
 20
61.245586
 30
0.0
 11
41.136943
 21
60.660751
 31
0.0
  0
LINE
  5
17c
100
AcDbEntity
  8
Stamp
 62
3
100
AcDbLine
 10
41.136943
 20
60.660751
 30
0.0
 11
41.520743
 21
59.951922
 31
0.0
  0
LINE
  5
17d
100
AcDbEntity
  8
Stamp
 62
3
100
AcDbLine
 10
41.520743
 20
59.951922
 30
0.0
 11
41.810534
 21
59.138363
 31
0.0
  0
LINE
  5
17e
100
AcDbEntity
  8
Stamp
 62
3
100
AcDbLine
 10
41.810534
 20
59.138363
 30
0.0
 11
41.993677
 21
58.239330
 31
0.0
  0
LINE
  5
17f
100
AcDbEntity
  8
Stamp
 62
3
100
AcDbLine
 10
41.993677
 20
58.239330
 30
0.0
 11
42.057533
 21
57.274085
 31
0.0
  0
LINE
  5
180
100
AcDbEntity
  8
Stamp
 62
7
100
AcDbLine
 10
46.679925
 20
41.670327
 30
0.0
 11
47.427981
 21
41.469371
 31
0.0
  0
LINE
  5
181
100
AcDbEntity
  8
Stamp
 62
7
100
AcDbLine
 10
47.427981
 20
41.469371
 30
0.0
 11
48.085705
 21
41.291937
 31
0.0
  0
LINE
  5
182
100
AcDbEntity
  8
Stamp
 62
7
100
AcDbLine
 10
48.085705
 20
41.291937
 30
0.0
 11
48.650198
 21
41.162098
 31
0.0
  0
LINE
  5
183
100
AcDbEntity
  8
Stamp
 62
7
100
AcDbLine
 10
48.650198
 20
41.162098
 30
0.0
 11
49.118560
 21
41.103930
 31
0.0
  0
LINE
  5
184
100
AcDbEntity
  8
Stamp
 62
7
100
AcDbLine
 10
49.118560
 20
41.103930
 30
0.0
 11
49.487890
 21
41.141507
 31
0.0
  0
LINE
  5
185
100
AcDbEntity
  8
Stamp
 62
7
100
AcDbLine
 10
49.487890
 20
41.141507
 30
0.0
 11
49.755287
 21
41.298903
 31
0.0
  0
LINE
  5
186
100
AcDbEntity
  8
Stamp
 62
7
100
AcDbLine
 10
49.755287
 20
41.298903
 30
0.0
 11
49.917852
 21
41.600192
 31
0.0
  0
LINE
  5
187
100
AcDbEntity
  8
Stamp
 62
7
100
AcDbLine
 10
49.917852
 20
41.600192
 30
0.0
 11
49.972685
 21
42.069448
 31
0.0
  0
LINE
  5
188
100
AcDbEntity
  8
Stamp
 62
7
100
AcDbLine
 10
49.972685
 20
42.069448
 30
0.0
 11
49.892198
 21
42.674369
 31
0.0
  0
LINE
  5
189
100
AcDbEntity
  8
Stamp
 62
7
100
AcDbLine
 10
49.892198
 20
42.674369
 30
0.0
 11
49.665549
 21
42.979945
 31
0.0
  0
LINE
  5
18a
100
AcDbEntity
  8
Stamp
 62
7
100
AcDbLine
 10
49.665549
 20
42.979945
 30
0.0
 11
49.314952
 21
43.079728
 31
0.0
  0
LINE
  5
18b
100
AcDbEntity
  8
Stamp
 62
7
100
AcDbLine
 10
49.314952
 20
43.079728
 30
0.0
 11
48.862626
 21
43.067254
 31
0.0
  0
LINE
  5
18c
100
AcDbEntity
  8
Stamp
 62
7
100
AcDbLine
 10
48.862626
 20
43.067254
 30
0.0
 11
48.330787
 21
43.036074
 31
0.0
  0
LINE
  5
18d
100
AcDbEntity
  8
Stamp
 62
7
100
AcDbLine
 10
48.330787
 20
43.036074
 30
0.0
 11
47.741654
 21
43.079728
 31
0.0
  0
LINE
  5
18e
100
AcDbEntity
  8
Stamp
 62
7
100
AcDbLine
 10
47.741654
 20
43.079728
 30
0.0
 11
47.117440
 21
43.291761
 31
0.0
  0
LINE
  5
18f
100
AcDbEntity
  8
Stamp
 62
7
100
AcDbLine
 10
47.117440
 20
43.291761
 30
0.0
 11
46.480363
 21
43.765720
 31
0.0
  0
LINE
  5
190
100
AcDbEntity
  8
Stamp
 62
7
100
AcDbLine
 10
46.480363
 20
43.765720
 30
0.0
 11
45.907376
 21
44.409121
 31
0.0
  0
LINE
  5
191
100
AcDbEntity
  8
Stamp
 62
7
100
AcDbLine
 10
45.907376
 20
44.409121
 30
0.0
 11
45.441478
 21
45.043348
 31
0.0
  0
LINE
  5
192
100
AcDbEntity
  8
Stamp
 62
7
100
AcDbLine
 10
45.441478
 20
45.043348
 30
0.0
 11
45.053964
 21
45.632750
 31
0.0
  0
LINE
  5
193
100
AcDbEntity
  8
Stamp
 62
7
100
AcDbLine
 10
45.053964
 20
45.632750
 30
0.0
 11
44.716124
 21
46.141667
 31
0.0
  0
LINE
  5
194
100
AcDbEntity
  8
Stamp
 62
7
100
AcDbLine
 10
44.716124
 20
46.141667
 30
0.0
 11
44.399254
 21
46.534441
 31
0.0
  0
LINE
  5
195
100
AcDbEntity
  8
Stamp
 62
7
100
AcDbLine
 10
44.399254
 20
46.534441
 30
0.0
 11
44.074644
 21
46.775419
 31
0.0
  0
LINE
  5
196
100
AcDbEntity
  8
Stamp
 62
7
100
AcDbLine
 10
44.074644
 20
46.775419
 30
0.0
 11
43.713592
 21
46.828943
 31
0.0
  0
LINE
  5
197
100
AcDbEntity
  8
Stamp
 62
7
100
AcDbLine
 10
43.713592
 20
46.828943
 30
0.0
 11
43.287383
 21
46.659358
 31
0.0
  0
LINE
  5
198
100
AcDbEntity
  8
Stamp
 62
7
100
AcDbLine
 10
43.287383
 20
46.659358
 30
0.0
 11
42.930140
 21
46.234845
 31
0.0
  0
LINE
  5
199
100
AcDbEntity
  8
Stamp
 62
7
100
AcDbLine
 10
42.930140
 20
46.234845
 30
0.0
 11
42.864651
 21
45.663949
 31
0.0
  0
LINE
  5
19a
100
AcDbEntity
  8
Stamp
 62
7
100
AcDbLine
 10
42.864651
 20
45.663949
 30
0.0
 11
43.015679
 21
45.009239
 31
0.0
  0
LINE
  5
19b
100
AcDbEntity
  8
Stamp
 62
7
100
AcDbLine
 10
43.015679
 20
45.009239
 30
0.0
 11
43.307974
 21
44.333274
 31
0.0
  0
LINE
  5
19c
100
AcDbEntity
  8
Stamp
 62
7
100
AcDbLine
 10
43.307974
 20
44.333274
 30
0.0
 11
43.666294
 21
43.698619
 31
0.0
  0
LINE
  5
19d
100
AcDbEntity
  8
Stamp
 62
7
100
AcDbLine
 10
43.666294
 20
43.698619
 30
0.0
 11
44.015395
 21
43.167835
 31
0.0
  0
LINE
  5
19e
100
AcDbEntity
  8
Stamp
 62
7
100
AcDbLine
 10
44.015395
 20
43.167835
 30
0.0
 11
44.280037
 21
42.803486
 31
0.0
  0
LINE
  5
19f
100
AcDbEntity
  8
Stamp
 62
7
100
AcDbLine
 10
44.280037
 20
42.803486
 30
0.0
 11
44.384970
 21
42.668132
 31
0.0
  0
LINE
  5
1a0
100
AcDbEntity
  8
Stamp
 62
7
100
AcDbLine
 10
44.384970
 20
42.668132
 30
0.0
 11
43.251103
 21
41.273751
 31
0.0
  0
LINE
  5
1a1
100
AcDbEntity
  8
Stamp
 62
7
100
AcDbLine
 10
43.251103
 20
41.273751
 30
0.0
 11
42.064672
 21
39.894650
 31
0.0
  0
LINE
  5
1a2
100
AcDbEntity
  8
Stamp
 62
7
100
AcDbLine
 10
42.064672
 20
39.894650
 30
0.0
 11
40.780835
 21
38.583530
 31
0.0
  0
LINE
  5
1a3
100
AcDbEntity
  8
Stamp
 62
7
100
AcDbLine
 10
40.780835
 20
38.583530
 30
0.0
 11
39.354752
 21
37.393091
 31
0.0
  0
LINE
  5
1a4
100
AcDbEntity
  8
Stamp
 62
7
100
AcDbLine
 10
39.354752
 20
37.393091
 30
0.0
 11
37.741578
 21
36.376030
 31
0.0
  0
LINE
  5
1a5
100
AcDbEntity
  8
Stamp
 62
7
100
AcDbLine
 10
37.741578
 20
36.376030
 30
0.0
 11
35.896477
 21
35.585046
 31
0.0
  0
LINE
  5
1a6
100
AcDbEntity
  8
Stamp
 62
7
100
AcDbLine
 10
35.896477
 20
35.585046
 30
0.0
 11
33.774600
 21
35.072841
 31
0.0
  0
LINE
  5
1a7
100
AcDbEntity
  8
Stamp
 62
7
100
AcDbLine
 10
33.774600
 20
35.072841
 30
0.0
 11
31.331114
 21
34.892111
 31
0.0
  0
LINE
  5
1a8
100
AcDbEntity
  8
Stamp
 62
7
100
AcDbLine
 10
31.331114
 20
34.892111
 30
0.0
 11
28.887626
 21
35.077370
 31
0.0
  0
LINE
  5
1a9
100
AcDbEntity
  8
Stamp
 62
7
100
AcDbLine
 10
28.887626
 20
35.077370
 30
0.0
 11
26.765753
 21
35.592982
 31
0.0
  0
LINE
  5
1aa
100
AcDbEntity
  8
Stamp
 62
7
100
AcDbLine
 10
26.765753
 20
35.592982
 30
0.0
 11
24.920651
 21
36.386407
 31
0.0
  0
LINE
  5
1ab
100
AcDbEntity
  8
Stamp
 62
7
100
AcDbLine
 10
24.920651
 20
36.386407
 30
0.0
 11
23.307478
 21
37.405105
 31
0.0
  0
LINE
  5
1ac
100
AcDbEntity
  8
Stamp
 62
7
100
AcDbLine
 10
23.307478
 20
37.405105
 30
0.0
 11
21.881394
 21
38.596540
 31
0.0
  0
LINE
  5
1ad
100
AcDbEntity
  8
Stamp
 62
7
100
AcDbLine
 10
21.881394
 20
38.596540
 30
0.0
 11
20.597558
 21
39.908171
 31
0.0
  0
LINE
  5
1ae
100
AcDbEntity
  8
Stamp
 62
7
100
AcDbLine
 10
20.597558
 20
39.908171
 30
0.0
 11
19.411127
 21
41.287459
 31
0.0
  0
LINE
  5
1af
100
AcDbEntity
  8
Stamp
 62
7
100
AcDbLine
 10
19.411127
 20
41.287459
 30
0.0
 11
18.277260
 21
42.681868
 31
0.0
  0
LINE
  5
1b0
100
AcDbEntity
  8
Stamp
 62
7
100
AcDbLine
 10
18.277260
 20
42.681868
 30
0.0
 11
18.382194
 21
42.817222
 31
0.0
  0
LINE
  5
1b1
100
AcDbEntity
  8
Stamp
 62
7
100
AcDbLine
 10
18.382194
 20
42.817222
 30
0.0
 11
18.646834
 21
43.181570
 31
0.0
  0
LINE
  5
1b2
100
AcDbEntity
  8
Stamp
 62
7
100
AcDbLine
 10
18.646834
 20
43.181570
 30
0.0
 11
18.995936
 21
43.712354
 31
0.0
  0
LINE
  5
1b3
100
AcDbEntity
  8
Stamp
 62
7
100
AcDbLine
 10
18.995936
 20
43.712354
 30
0.0
 11
19.354257
 21
44.347010
 31
0.0
  0
LINE
  5
1b4
100
AcDbEntity
  8
Stamp
 62
7
100
AcDbLine
 10
19.354257
 20
44.347010
 30
0.0
 11
19.646552
 21
45.022975
 31
0.0
  0
LINE
  5
1b5
100
AcDbEntity
  8
Stamp
 62
7
100
AcDbLine
 10
19.646552
 20
45.022975
 30
0.0
 11
19.797578
 21
45.677685
 31
0.0
  0
LINE
  5
1b6
100
AcDbEntity
  8
Stamp
 62
7
100
AcDbLine
 10
19.797578
 20
45.677685
 30
0.0
 11
19.732091
 21
46.248581
 31
0.0
  0
LINE
  5
1b7
100
AcDbEntity
  8
Stamp
 62
7
100
AcDbLine
 10
19.732091
 20
46.248581
 30
0.0
 11
19.374847
 21
46.673094
 31
0.0
  0
LINE
  5
1b8
100
AcDbEntity
  8
Stamp
 62
7
100
AcDbLine
 10
19.374847
 20
46.673094
 30
0.0
 11
18.948638
 21
46.842679
 31
0.0
  0
LINE
  5
1b9
100
AcDbEntity
  8
Stamp
 62
7
100
AcDbLine
 10
18.948638
 20
46.842679
 30
0.0
 11
18.587583
 21
46.789155
 31
0.0
  0
LINE
  5
1ba
100
AcDbEntity
  8
Stamp
 62
7
100
AcDbLine
 10
18.587583
 20
46.789155
 30
0.0
 11
18.262974
 21
46.548177
 31
0.0
  0
LINE
  5
1bb
100
AcDbEntity
  8
Stamp
 62
7
100
AcDbLine
 10
18.262974
 20
46.548177
 30
0.0
 11
17.946104
 21
46.155402
 31
0.0
  0
LINE
  5
1bc
100
AcDbEntity
  8
Stamp
 62
7
100
AcDbLine
 10
17.946104
 20
46.155402
 30
0.0
 11
17.608265
 21
45.646485
 31
0.0
  0
LINE
  5
1bd
100
AcDbEntity
  8
Stamp
 62
7
100
AcDbLine
 10
17.608265
 20
45.646485
 30
0.0
 11
17.220751
 21
45.057084
 31
0.0
  0
LINE
  5
1be
100
AcDbEntity
  8
Stamp
 62
7
100
AcDbLine
 10
17.220751
 20
45.057084
 30
0.0
 11
16.754854
 21
44.422857
 31
0.0
  0
LINE
  5
1bf
100
AcDbEntity
  8
Stamp
 62
7
100
AcDbLine
 10
16.754854
 20
44.422857
 30
0.0
 11
16.181866
 21
43.779455
 31
0.0
  0
LINE
  5
1c0
100
AcDbEntity
  8
Stamp
 62
7
100
AcDbLine
 10
16.181866
 20
43.779455
 30
0.0
 11
15.544790
 21
43.305497
 31
0.0
  0
LINE
  5
1c1
100
AcDbEntity
  8
Stamp
 62
7
100
AcDbLine
 10
15.544790
 20
43.305497
 30
0.0
 11
14.920577
 21
43.093464
 31
0.0
  0
LINE
  5
1c2
100
AcDbEntity
  8
Stamp
 62
7
100
AcDbLine
 10
14.920577
 20
43.093464
 30
0.0
 11
14.331443
 21
43.049809
 31
0.0
  0
LINE
  5
1c3
100
AcDbEntity
  8
Stamp
 62
7
100
AcDbLine
 10
14.331443
 20
43.049809
 30
0.0
 11
13.799604
 21
43.080989
 31
0.0
  0
LINE
  5
1c4
100
AcDbEntity
  8
Stamp
 62
7
100
AcDbLine
 10
13.799604
 20
43.080989
 30
0.0
 11
13.347278
 21
43.093464
 31
0.0
  0
LINE
  5
1c5
100
AcDbEntity
  8
Stamp
 62
7
100
AcDbLine
 10
13.347278
 20
43.093464
 30
0.0
 11
12.996682
 21
42.993681
 31
0.0
  0
LINE
  5
1c6
100
AcDbEntity
  8
Stamp
 62
7
100
AcDbLine
 10
12.996682
 20
42.993681
 30
0.0
 11
12.770032
 21
42.688105
 31
0.0
  0
LINE
  5
1c7
100
AcDbEntity
  8
Stamp
 62
7
100
AcDbLine
 10
12.770032
 20
42.688105
 30
0.0
 11
12.689545
 21
42.083184
 31
0.0
  0
LINE
  5
1c8
100
AcDbEntity
  8
Stamp
 62
7
100
AcDbLine
 10
12.689545
 20
42.083184
 30
0.0
 11
12.744377
 21
41.613928
 31
0.0
  0
LINE
  5
1c9
100
AcDbEntity
  8
Stamp
 62
7
100
AcDbLine
 10
12.744377
 20
41.613928
 30
0.0
 11
12.906943
 21
41.312638
 31
0.0
  0
LINE
  5
1ca
100
AcDbEntity
  8
Stamp
 62
7
100
AcDbLine
 10
12.906943
 20
41.312638
 30
0.0
 11
13.174340
 21
41.155243
 31
0.0
  0
LINE
  5
1cb
100
AcDbEntity
  8
Stamp
 62
7
100
AcDbLine
 10
13.174340
 20
41.155243
 30
0.0
 11
13.543670
 21
41.117665
 31
0.0
  0
LINE
  5
1cc
100
AcDbEntity
  8
Stamp
 62
7
100
AcDbLine
 10
13.543670
 20
41.117665
 30
0.0
 11
14.012032
 21
41.175834
 31
0.0
  0
LINE
  5
1cd
100
AcDbEntity
  8
Stamp
 62
7
100
AcDbLine
 10
14.012032
 20
41.175834
 30
0.0
 11
14.576525
 21
41.305673
 31
0.0
  0
LINE
  5
1ce
100
AcDbEntity
  8
Stamp
 62
7
100
AcDbLine
 10
14.576525
 20
41.305673
 30
0.0
 11
15.234249
 21
41.483106
 31
0.0
  0
LINE
  5
1cf
100
AcDbEntity
  8
Stamp
 62
7
100
AcDbLine
 10
15.234249
 20
41.483106
 30
0.0
 11
15.982305
 21
41.684063
 31
0.0
  0
LINE
  5
1d0
100
AcDbEntity
  8
Stamp
 62
7
100
AcDbLine
 10
15.982305
 20
41.684063
 30
0.0
 11
17.215148
 21
39.540480
 31
0.0
  0
LINE
  5
1d1
100
AcDbEntity
  8
Stamp
 62
7
100
AcDbLine
 10
17.215148
 20
39.540480
 30
0.0
 11
18.685779
 21
37.473019
 31
0.0
  0
LINE
  5
1d2
100
AcDbEntity
  8
Stamp
 62
7
100
AcDbLine
 10
18.685779
 20
37.473019
 30
0.0
 11
20.373270
 21
35.544809
 31
0.0
  0
LINE
  5
1d3
100
AcDbEntity
  8
Stamp
 62
7
100
AcDbLine
 10
20.373270
 20
35.544809
 30
0.0
 11
22.256693
 21
33.818995
 31
0.0
  0
LINE
  5
1d4
100
AcDbEntity
  8
Stamp
 62
7
100
AcDbLine
 10
22.256693
 20
33.818995
 30
0.0
 11
24.315117
 21
32.358712
 31
0.0
  0
LINE
  5
1d5
100
AcDbEntity
  8
Stamp
 62
7
100
AcDbLine
 10
24.315117
 20
32.358712
 30
0.0
 11
26.527615
 21
31.227094
 31
0.0
  0
LINE
  5
1d6
100
AcDbEntity
  8
Stamp
 62
7
100
AcDbLine
 10
26.527615
 20
31.227094
 30
0.0
 11
28.873258
 21
30.487285
 31
0.0
  0
LINE
  5
1d7
100
AcDbEntity
  8
Stamp
 62
7
100
AcDbLine
 10
28.873258
 20
30.487285
 30
0.0
 11
31.331114
 21
30.202419
 31
0.0
  0
LINE
  5
1d8
100
AcDbEntity
  8
Stamp
 62
7
100
AcDbLine
 10
31.331114
 20
30.202419
 30
0.0
 11
33.788971
 21
30.482750
 31
0.0
  0
LINE
  5
1d9
100
AcDbEntity
  8
Stamp
 62
7
100
AcDbLine
 10
33.788971
 20
30.482750
 30
0.0
 11
36.134613
 21
31.219153
 31
0.0
  0
LINE
  5
1da
100
AcDbEntity
  8
Stamp
 62
7
100
AcDbLine
 10
36.134613
 20
31.219153
 30
0.0
 11
38.347111
 21
32.348329
 31
0.0
  0
LINE
  5
1db
100
AcDbEntity
  8
Stamp
 62
7
100
AcDbLine
 10
38.347111
 20
32.348329
 30
0.0
 11
40.405535
 21
33.806975
 31
0.0
  0
LINE
  5
1dc
100
AcDbEntity
  8
Stamp
 62
7
100
AcDbLine
 10
40.405535
 20
33.806975
 30
0.0
 11
42.288960
 21
35.531799
 31
0.0
  0
LINE
  5
1dd
100
AcDbEntity
  8
Stamp
 62
7
100
AcDbLine
 10
42.288960
 20
35.531799
 30
0.0
 11
43.976451
 21
37.459498
 31
0.0
  0
LINE
  5
1de
100
AcDbEntity
  8
Stamp
 62
7
100
AcDbLine
 10
43.976451
 20
37.459498
 30
0.0
 11
45.447083
 21
39.526773
 31
0.0
  0
LINE
  5
1df
100
AcDbEntity
  8
Stamp
 62
7
100
AcDbLine
 10
45.447083
 20
39.526773
 30
0.0
 11
46.679925
 21
41.670327
 31
0.0
  0
ENDSEC
  0
SECTION
  2
OBJECTS
  0
DICTIONARY
  5
C
330
0
100
AcDbDictionary
  3
ACAD_GROUP
350
D
  3
ACAD_MLINESTYLE
350
17
  0
DICTIONARY
  5
D
330
C
100
AcDbDictionary
  0
DICTIONARY
  5
1A
330
C
100
AcDbDictionary
  0
DICTIONARY
  5
17
330
C
100
AcDbDictionary
  3
STANDARD
350
18
  0
DICTIONARY
  5
19
330
C
100
AcDbDictionary
  0
ENDSEC
  0
EOF
