  0
SECTION
  2
BLOCKS
  0
ENDSEC
  0
SECTION
  2
ENTITIES
  0
LINE
  8
0
 10
-44.201
 11
-44.185
 20
-10.147
 21
-7.479
  0
LINE
  8
0
 10
-44.185
 11
-43.683
 20
-7.479
 21
-4.69
  0
LINE
  8
0
 10
-43.683
 11
-42.731
 20
-4.69
 21
-2.253
  0
LINE
  8
0
 10
-42.731
 11
-41.185
 20
-2.253
 21
-0.224
  0
LINE
  8
0
 10
-41.185
 11
-40.014
 20
-0.224
 21
0.267
  0
LINE
  8
0
 10
-40.014
 11
-38.681
 20
0.267
 21
0.107
  0
LINE
  8
0
 10
-38.681
 11
-36.255
 20
0.107
 21
-1.075
  0
LINE
  8
0
 10
-36.255
 11
-34.037
 20
-1.075
 21
-2.46
  0
LINE
  8
0
 10
-34.037
 11
-31.726
 20
-2.46
 21
-3.929
  0
LINE
  8
0
 10
-31.726
 11
-29.44
 20
-3.929
 21
-5.298
  0
LINE
  8
0
 10
-29.44
 11
-26.973
 20
-5.298
 21
-6.584
  0
LINE
  8
0
 10
-26.973
 11
-24.65
 20
-6.584
 21
-7.592
  0
LINE
  8
0
 10
-24.65
 11
-22.042
 20
-7.592
 21
-8.245
  0
LINE
  8
0
 10
-22.042
 11
-20.688
 20
-8.245
 21
-7.983
  0
LINE
  8
0
 10
-20.688
 11
-19.783
 20
-7.983
 21
-6.996
  0
LINE
  8
0
 10
-19.783
 11
-19.2
 20
-6.996
 21
-4.541
  0
LINE
  8
0
 10
-19.2
 11
-19.347
 20
-4.541
 21
-1.786
  0
LINE
  8
0
 10
-19.347
 11
-19.976
 20
-1.786
 21
0.73
  0
LINE
  8
0
 10
-19.976
 11
-21.088
 20
0.73
 21
3.123
  0
LINE
  8
0
 10
-21.088
 11
-22.694
 20
3.123
 21
5.54
  0
LINE
  8
0
 10
-22.694
 11
-24.262
 20
5.54
 21
7.692
  0
LINE
  8
0
 10
-24.262
 11
-25.576
 20
7.692
 21
9.9
  0
LINE
  8
0
 10
-25.576
 11
-26.518
 20
9.9
 21
12.27
  0
LINE
  8
0
 10
-26.518
 11
-27.173
 20
12.27
 21
14.915
  0
LINE
  8
0
 10
-27.173
 11
-27.535
 20
14.915
 21
17.522
  0
LINE
  8
0
 10
-27.535
 11
-27.698
 20
17.522
 21
20.246
  0
LINE
  8
0
 10
-27.698
 11
-27.703
 20
20.246
 21
22.941
  0
LINE
  8
0
 10
-27.703
 11
-27.606
 20
22.941
 21
25.511
  0
LINE
  8
0
 10
-27.606
 11
-27.412
 20
25.511
 21
28.408
  0
LINE
  8
0
 10
-27.412
 11
-27.152
 20
28.408
 21
30.856
  0
LINE
  8
0
 10
-27.152
 11
-26.701
 20
30.856
 21
33.549
  0
LINE
  8
0
 10
-26.701
 11
-26.044
 20
33.549
 21
36.092
  0
LINE
  8
0
 10
-26.044
 11
-25.084
 20
36.092
 21
38.583
  0
LINE
  8
0
 10
-25.084
 11
-23.791
 20
38.583
 21
40.891
  0
LINE
  8
0
 10
-23.791
 11
-22.05
 20
40.891
 21
43.055
  0
LINE
  8
0
 10
-22.05
 11
-20.104
 20
43.055
 21
44.738
  0
LINE
  8
0
 10
-20.104
 11
-17.655
 20
44.738
 21
46.031
  0
LINE
  8
0
 10
-17.655
 11
-14.987
 20
46.031
 21
46.491
  0
LINE
  8
0
 10
-14.987
 11
-12.488
 20
46.491
 21
46.373
  0
LINE
  8
0
 10
-12.488
 11
-9.651
 20
46.373
 21
46.166
  0
LINE
  8
0
 10
-9.651
 11
-7.113
 20
46.166
 21
46.045
  0
LINE
  8
0
 10
-7.113
 11
-4.472
 20
46.045
 21
45.976
  0
LINE
  8
0
 10
-4.472
 11
-1.639
 20
45.976
 21
45.962
  0
LINE
  8
0
 10
-1.639
 11
1.105
 20
45.962
 21
45.999
  0
LINE
  8
0
 10
1.105
 11
3.608
 20
45.999
 21
46.071
  0
LINE
  8
0
 10
3.608
 11
6.327
 20
46.071
 21
46.185
  0
LINE
  8
0
 10
6.327
 11
9.1
 20
46.185
 21
46.331
  0
LINE
  8
0
 10
9.1
 11
11.557
 20
46.331
 21
46.474
  0
LINE
  8
0
 10
11.557
 11
14.225
 20
46.474
 21
46.597
  0
LINE
  8
0
 10
14.225
 11
16.966
 20
46.597
 21
46.631
  0
LINE
  8
0
 10
16.966
 11
19.65
 20
46.631
 21
46.527
  0
LINE
  8
0
 10
19.65
 11
22.294
 20
46.527
 21
46.256
  0
LINE
  8
0
 10
22.294
 11
24.919
 20
46.256
 21
45.795
  0
LINE
  8
0
 10
24.919
 11
27.422
 20
45.795
 21
44.829
  0
LINE
  8
0
 10
27.422
 11
28.372
 20
44.829
 21
43.852
  0
LINE
  8
0
 10
28.372
 11
28.789
 20
43.852
 21
42.497
  0
LINE
  8
0
 10
28.789
 11
28.446
 20
42.497
 21
39.909
  0
LINE
  8
0
 10
28.446
 11
27.093
 20
39.909
 21
37.688
  0
LINE
  8
0
 10
27.093
 11
24.993
 20
37.688
 21
36.111
  0
LINE
  8
0
 10
24.993
 11
22.643
 20
36.111
 21
34.929
  0
LINE
  8
0
 10
22.643
 11
20.447
 20
34.929
 21
33.543
  0
LINE
  8
0
 10
20.447
 11
19.567
 20
33.543
 21
32.411
  0
LINE
  8
0
 10
19.567
 11
19.083
 20
32.411
 21
31.025
  0
LINE
  8
0
 10
19.083
 11
18.934
 20
31.025
 21
28.597
  0
LINE
  8
0
 10
18.934
 11
19.246
 20
28.597
 21
25.957
  0
LINE
  8
0
 10
19.246
 11
19.785
 20
25.957
 21
23.266
  0
LINE
  8
0
 10
19.785
 11
20.864
 20
23.266
 21
20.781
  0
LINE
  8
0
 10
20.864
 11
21.895
 20
20.781
 21
20.062
  0
LINE
  8
0
 10
21.895
 11
23.261
 20
20.062
 21
19.846
  0
LINE
  8
0
 10
23.261
 11
25.808
 20
19.846
 21
20.12
  0
LINE
  8
0
 10
25.808
 11
28.637
 20
20.12
 21
20.577
  0
LINE
  8
0
 10
28.637
 11
31.247
 20
20.577
 21
20.702
  0
LINE
  8
0
 10
31.247
 11
33.775
 20
20.702
 21
20.43
  0
LINE
  8
0
 10
33.775
 11
36.381
 20
20.43
 21
19.784
  0
LINE
  8
0
 10
36.381
 11
39.01
 20
19.784
 21
18.794
  0
LINE
  8
0
 10
39.01
 11
41.301
 20
18.794
 21
17.554
  0
LINE
  8
0
 10
41.301
 11
43.248
 20
17.554
 21
15.893
  0
LINE
  8
0
 10
43.248
 11
44.013
 20
15.893
 21
14.657
  0
LINE
  8
0
 10
44.013
 11
44.242
 20
14.657
 21
13.328
  0
LINE
  8
0
 10
44.242
 11
43.947
 20
13.328
 21
12.106
  0
LINE
  8
0
 10
43.947
 11
43.265
 20
12.106
 21
10.873
  0
LINE
  8
0
 10
43.265
 11
41.577
 20
10.873
 21
8.944
  0
LINE
  8
0
 10
41.577
 11
39.53
 20
8.944
 21
7.287
  0
LINE
  8
0
 10
39.53
 11
37.123
 20
7.287
 21
5.966
  0
LINE
  8
0
 10
37.123
 11
34.651
 20
5.966
 21
5.22
  0
LINE
  8
0
 10
34.651
 11
31.942
 20
5.22
 21
4.817
  0
LINE
  8
0
 10
31.942
 11
29.431
 20
4.817
 21
4.052
  0
LINE
  8
0
 10
29.431
 11
28.583
 20
4.052
 21
3.097
  0
LINE
  8
0
 10
28.583
 11
28.328
 20
3.097
 21
1.687
  0
LINE
  8
0
 10
28.328
 11
28.608
 20
1.687
 21
0.303
  0
LINE
  8
0
 10
28.608
 11
29.338
 20
0.303
 21
-0.811
  0
LINE
  8
0
 10
29.338
 11
31.423
 20
-0.811
 21
-2.138
  0
LINE
  8
0
 10
31.423
 11
34.051
 20
-2.138
 21
-2.99
  0
LINE
  8
0
 10
34.051
 11
36.627
 20
-2.99
 21
-3.588
  0
LINE
  8
0
 10
36.627
 11
39.224
 20
-3.588
 21
-4.28
  0
LINE
  8
0
 10
39.224
 11
41.556
 20
-4.28
 21
-5.41
  0
LINE
  8
0
 10
41.556
 11
42.565
 20
-5.41
 21
-6.345
  0
LINE
  8
0
 10
42.565
 11
43.313
 20
-6.345
 21
-7.563
  0
LINE
  8
0
 10
43.313
 11
43.98
 20
-7.563
 21
-10.221
  0
LINE
  8
0
 10
43.98
 11
43.918
 20
-10.221
 21
-12.707
  0
LINE
  8
0
 10
43.918
 11
43.197
 20
-12.707
 21
-15.323
  0
LINE
  8
0
 10
43.197
 11
41.77
 20
-15.323
 21
-17.504
  0
LINE
  8
0
 10
41.77
 11
39.625
 20
-17.504
 21
-19.199
  0
LINE
  8
0
 10
39.625
 11
37.32
 20
-19.199
 21
-20.264
  0
LINE
  8
0
 10
37.32
 11
34.733
 20
-20.264
 21
-21.014
  0
LINE
  8
0
 10
34.733
 11
32.091
 20
-21.014
 21
-21.578
  0
LINE
  8
0
 10
32.091
 11
30.741
 20
-21.578
 21
-22.158
  0
LINE
  8
0
 10
30.741
 11
29.941
 20
-22.158
 21
-23.244
  0
LINE
  8
0
 10
29.941
 11
29.148
 20
-23.244
 21
-25.733
  0
LINE
  8
0
 10
29.148
 11
28.046
 20
-25.733
 21
-28.231
  0
LINE
  8
0
 10
28.046
 11
27.202
 20
-28.231
 21
-30.62
  0
LINE
  8
0
 10
27.202
 11
26.446
 20
-30.62
 21
-31.66
  0
LINE
  8
0
 10
26.446
 11
25.283
 20
-31.66
 21
-32.344
  0
LINE
  8
0
 10
25.283
 11
23.856
 20
-32.344
 21
-32.591
  0
LINE
  8
0
 10
23.856
 11
22.528
 20
-32.591
 21
-32.285
  0
LINE
  8
0
 10
22.528
 11
21.548
 20
-32.285
 21
-31.579
  0
LINE
  8
0
 10
21.548
 11
20.74
 20
-31.579
 21
-30.586
  0
LINE
  8
0
 10
20.74
 11
19.511
 20
-30.586
 21
-28.191
  0
LINE
  8
0
 10
19.511
 11
18.649
 20
-28.191
 21
-25.732
  0
LINE
  8
0
 10
18.649
 11
17.979
 20
-25.732
 21
-23.1
  0
LINE
  8
0
 10
17.979
 11
17.399
 20
-23.1
 21
-20.498
  0
LINE
  8
0
 10
17.399
 11
16.682
 20
-20.498
 21
-17.811
  0
LINE
  8
0
 10
16.682
 11
15.704
 20
-17.811
 21
-15.485
  0
LINE
  8
0
 10
15.704
 11
14.133
 20
-15.485
 21
-13.365
  0
LINE
  8
0
 10
14.133
 11
11.924
 20
-13.365
 21
-11.876
  0
LINE
  8
0
 10
11.924
 11
10.588
 20
-11.876
 21
-11.737
  0
LINE
  8
0
 10
10.588
 11
9.363
 20
-11.737
 21
-12.353
  0
LINE
  8
0
 10
9.363
 11
8.473
 20
-12.353
 21
-13.364
  0
LINE
  8
0
 10
8.473
 11
7.908
 20
-13.364
 21
-14.547
  0
LINE
  8
0
 10
7.908
 11
7.675
 20
-14.547
 21
-17.305
  0
LINE
  8
0
 10
7.675
 11
7.986
 20
-17.305
 21
-19.92
  0
LINE
  8
0
 10
7.986
 11
8.258
 20
-19.92
 21
-22.483
  0
LINE
  8
0
 10
8.258
 11
8.405
 20
-22.483
 21
-25.162
  0
LINE
  8
0
 10
8.405
 11
8.344
 20
-25.162
 21
-27.771
  0
LINE
  8
0
 10
8.344
 11
7.964
 20
-27.771
 21
-30.481
  0
LINE
  8
0
 10
7.964
 11
7.147
 20
-30.481
 21
-33.11
  0
LINE
  8
0
 10
7.147
 11
5.923
 20
-33.11
 21
-35.412
  0
LINE
  8
0
 10
5.923
 11
4.299
 20
-35.412
 21
-37.533
  0
LINE
  8
0
 10
4.299
 11
2.447
 20
-37.533
 21
-39.358
  0
LINE
  8
0
 10
2.447
 11
0.293
 20
-39.358
 21
-41.032
  0
LINE
  8
0
 10
0.293
 11
-1.943
 20
-41.032
 21
-42.431
  0
LINE
  8
0
 10
-1.943
 11
-4.277
 20
-42.431
 21
-43.623
  0
LINE
  8
0
 10
-4.277
 11
-6.768
 20
-43.623
 21
-44.649
  0
LINE
  8
0
 10
-6.768
 11
-9.385
 20
-44.649
 21
-45.489
  0
LINE
  8
0
 10
-9.385
 11
-12.132
 20
-45.489
 21
-46.123
  0
LINE
  8
0
 10
-12.132
 11
-14.716
 20
-46.123
 21
-46.491
  0
LINE
  8
0
 10
-14.716
 11
-17.224
 20
-46.491
 21
-46.631
  0
LINE
  8
0
 10
-17.224
 11
-20.094
 20
-46.631
 21
-46.518
  0
LINE
  8
0
 10
-20.094
 11
-22.551
 20
-46.518
 21
-46.167
  0
LINE
  8
0
 10
-22.551
 11
-25.239
 20
-46.167
 21
-45.479
  0
LINE
  8
0
 10
-25.239
 11
-27.663
 20
-45.479
 21
-44.541
  0
LINE
  8
0
 10
-27.663
 11
-30.025
 20
-44.541
 21
-43.27
  0
LINE
  8
0
 10
-30.025
 11
-32.162
 20
-43.27
 21
-41.755
  0
LINE
  8
0
 10
-32.162
 11
-34.161
 20
-41.755
 21
-39.963
  0
LINE
  8
0
 10
-34.161
 11
-36.01
 20
-39.963
 21
-37.895
  0
LINE
  8
0
 10
-36.01
 11
-37.493
 20
-37.895
 21
-35.84
  0
LINE
  8
0
 10
-37.493
 11
-38.877
 20
-35.84
 21
-33.426
  0
LINE
  8
0
 10
-38.877
 11
-39.983
 20
-33.426
 21
-30.893
  0
LINE
  8
0
 10
-39.983
 11
-40.778
 20
-30.893
 21
-28.518
  0
LINE
  8
0
 10
-40.778
 11
-41.456
 20
-28.518
 21
-25.928
  0
LINE
  8
0
 10
-41.456
 11
-42.037
 20
-25.928
 21
-23.159
  0
LINE
  8
0
 10
-42.037
 11
-42.512
 20
-23.159
 21
-20.543
  0
LINE
  8
0
 10
-42.512
 11
-42.939
 20
-20.543
 21
-18.112
  0
LINE
  8
0
 10
-42.939
 11
-43.437
 20
-18.112
 21
-15.438
  0
LINE
  8
0
 10
-43.437
 11
-43.918
 20
-15.438
 21
-12.698
  0
LINE
  8
0
 10
-43.918
 11
-44.201
 20
-12.698
 21
-10.147
  0
ENDSEC
  0
SECTION
  2
OBJECTS
  0
DICTIONARY
  0
ENDSEC
  0
EOF
