999
Created by Wolfram Mathematica 8.0 : www.wolfram.com
0
SECTION
2
HEADER
9
$ACADVER
1
AC1009
0
ENDSEC
0
SECTION
2
ENTITIES
0
LINE
8
0
10
0.
20
0.
30
0.
11
0.05555555555555555
21
0.09622504486493763
31
0.
0
LINE
8
0
10
0.05555555555555555
20
0.09622504486493763
30
0.
11
0.
21
0.19245008972987526
31
0.
0
LINE
8
0
10
0.
20
0.19245008972987526
30
0.
11
0.1111111111111111
21
0.19245008972987526
31
0.
0
LINE
8
0
10
0.1111111111111111
20
0.19245008972987526
30
0.
11
0.16666666666666666
21
0.2886751345948129
31
0.
0
LINE
8
0
10
0.16666666666666666
20
0.2886751345948129
30
0.
11
0.1111111111111111
21
0.3849001794597505
31
0.
0
LINE
8
0
10
0.1111111111111111
20
0.3849001794597505
30
0.
11
-1.3877787807814457e-17
21
0.3849001794597505
31
0.
0
LINE
8
0
10
-1.3877787807814457e-17
20
0.3849001794597505
30
0.
11
0.05555555555555555
21
0.4811252243246882
31
0.
0
LINE
8
0
10
0.05555555555555555
20
0.4811252243246882
30
0.
11
0.
21
0.5773502691896257
31
0.
0
LINE
8
0
10
0.
20
0.5773502691896257
30
0.
11
0.1111111111111111
21
0.5773502691896257
31
0.
0
LINE
8
0
10
0.1111111111111111
20
0.5773502691896257
30
0.
11
0.16666666666666666
21
0.6735753140545634
31
0.
0
LINE
8
0
10
0.16666666666666666
20
0.6735753140545634
30
0.
11
0.2222222222222222
21
0.5773502691896257
31
0.
0
LINE
8
0
10
0.2222222222222222
20
0.5773502691896257
30
0.
11
0.3333333333333333
21
0.5773502691896258
31
0.
0
LINE
8
0
10
0.3333333333333333
20
0.5773502691896258
30
0.
11
0.3888888888888889
21
0.6735753140545634
31
0.
0
LINE
8
0
10
0.3888888888888889
20
0.6735753140545634
30
0.
11
0.33333333333333337
21
0.769800358919501
31
0.
0
LINE
8
0
10
0.33333333333333337
20
0.769800358919501
30
0.
11
0.4444444444444444
21
0.769800358919501
31
0.
0
LINE
8
0
10
0.4444444444444444
20
0.769800358919501
30
0.
11
0.5
21
0.8660254037844386
31
0.
0
LINE
8
0
10
0.5
20
0.8660254037844386
30
0.
11
0.5555555555555556
21
0.7698003589195009
31
0.
0
LINE
8
0
10
0.5555555555555556
20
0.7698003589195009
30
0.
11
0.6666666666666666
21
0.7698003589195009
31
0.
0
LINE
8
0
10
0.6666666666666666
20
0.7698003589195009
30
0.
11
0.6111111111111112
21
0.6735753140545633
31
0.
0
LINE
8
0
10
0.6111111111111112
20
0.6735753140545633
30
0.
11
0.6666666666666666
21
0.5773502691896257
31
0.
0
LINE
8
0
10
0.6666666666666666
20
0.5773502691896257
30
0.
11
0.7777777777777778
21
0.5773502691896257
31
0.
0
LINE
8
0
10
0.7777777777777778
20
0.5773502691896257
30
0.
11
0.8333333333333334
21
0.6735753140545633
31
0.
0
LINE
8
0
10
0.8333333333333334
20
0.6735753140545633
30
0.
11
0.8888888888888888
21
0.5773502691896257
31
0.
0
LINE
8
0
10
0.8888888888888888
20
0.5773502691896257
30
0.
11
1.
21
0.5773502691896257
31
0.
0
LINE
8
0
10
1.
20
0.5773502691896257
30
0.
11
0.9444444444444444
21
0.48112522432468807
31
0.
0
LINE
8
0
10
0.9444444444444444
20
0.48112522432468807
30
0.
11
1.
21
0.38490017945975047
31
0.
0
LINE
8
0
10
1.
20
0.38490017945975047
30
0.
11
0.8888888888888888
21
0.3849001794597504
31
0.
0
LINE
8
0
10
0.8888888888888888
20
0.3849001794597504
30
0.
11
0.8333333333333334
21
0.28867513459481275
31
0.
0
LINE
8
0
10
0.8333333333333334
20
0.28867513459481275
30
0.
11
0.8888888888888888
21
0.19245008972987518
31
0.
0
LINE
8
0
10
0.8888888888888888
20
0.19245008972987518
30
0.
11
0.9999999999999999
21
0.19245008972987526
31
0.
0
LINE
8
0
10
0.9999999999999999
20
0.19245008972987526
30
0.
11
0.9444444444444444
21
0.0962250448649376
31
0.
0
LINE
8
0
10
0.9444444444444444
20
0.0962250448649376
30
0.
11
1.
21
0.
31
0.
0
LINE
8
0
10
1.
20
0.
30
0.
11
0.8888888888888888
21
0.
31
0.
0
LINE
8
0
10
0.8888888888888888
20
0.
30
0.
11
0.8333333333333334
21
-0.09622504486493763
31
0.
0
LINE
8
0
10
0.8333333333333334
20
-0.09622504486493763
30
0.
11
0.7777777777777778
21
0.
31
0.
0
LINE
8
0
10
0.7777777777777778
20
0.
30
0.
11
0.6666666666666666
21
0.
31
0.
0
LINE
8
0
10
0.6666666666666666
20
0.
30
0.
11
0.6111111111111112
21
-0.09622504486493763
31
0.
0
LINE
8
0
10
0.6111111111111112
20
-0.09622504486493763
30
0.
11
0.6666666666666666
21
-0.19245008972987526
31
0.
0
LINE
8
0
10
0.6666666666666666
20
-0.19245008972987526
30
0.
11
0.5555555555555556
21
-0.19245008972987526
31
0.
0
LINE
8
0
10
0.5555555555555556
20
-0.19245008972987526
30
0.
11
0.5
21
-0.2886751345948129
31
0.
0
LINE
8
0
10
0.5
20
-0.2886751345948129
30
0.
11
0.4444444444444444
21
-0.19245008972987526
31
0.
0
LINE
8
0
10
0.4444444444444444
20
-0.19245008972987526
30
0.
11
0.3333333333333333
21
-0.19245008972987526
31
0.
0
LINE
8
0
10
0.3333333333333333
20
-0.19245008972987526
30
0.
11
0.3888888888888889
21
-0.09622504486493763
31
0.
0
LINE
8
0
10
0.3888888888888889
20
-0.09622504486493763
30
0.
11
0.3333333333333333
21
0.
31
0.
0
LINE
8
0
10
0.3333333333333333
20
0.
30
0.
11
0.2222222222222222
21
0.
31
0.
0
LINE
8
0
10
0.2222222222222222
20
0.
30
0.
11
0.16666666666666666
21
-0.09622504486493763
31
0.
0
LINE
8
0
10
0.16666666666666666
20
-0.09622504486493763
30
0.
11
0.1111111111111111
21
0.
31
0.
0
LINE
8
0
10
0.1111111111111111
20
0.
30
0.
11
0.
21
0.
31
0.
0
ENDSEC
0
EOF
